<svg xmlns="http://www.w3.org/2000/svg" viewBox="-250 -250 500 500">
<defs><filter id="tg"><feGaussianBlur stdDeviation="3.0"/></filter></defs>
<rect x="-250" y="-250" width="500" height="500" fill="#e42161"/>
<path d="M143.6,0.0L142.5,7.5L139.2,14.6L134.0,21.2L127.3,27.0L119.4,32.0L110.8,36.0L102.3,39.3L94.1,41.9L86.8,44.2L80.6,46.5L75.8,49.2L72.4,52.6L70.2,56.9L69.2,62.3L68.9,68.9L68.9,76.5L68.9,85.1L68.5,94.3L67.3,103.6L65.0,112.7L61.6,120.9L56.9,127.9L51.1,133.2L44.4,136.6L36.9,137.9L29.1,137.0L21.2,134.0L13.6,129.4L6.5,123.4L0.0,116.5L-5.7,109.4L-10.8,102.4L-15.2,96.2L-19.4,91.1L-23.4,87.3L-27.6,85.1L-32.4,84.4L-37.9,85.0L-44.2,86.8L-51.5,89.2L-59.7,91.9L-68.5,94.3L-77.8,96.0L-87.1,96.7L-96.0,96.0L-104.0,93.7L-110.9,89.8L-116.2,84.4L-119.7,77.7L-121.3,70.0L-120.9,61.6L-118.8,52.9L-115.4,44.3L-110.8,36.0L-105.8,28.4L-100.8,21.4L-96.2,15.2L-92.6,9.7L-90.3,4.7L-89.5,0.0L-90.3,-4.7L-92.6,-9.7L-96.2,-15.2L-100.8,-21.4L-105.8,-28.4L-110.8,-36.0L-115.4,-44.3L-118.8,-52.9L-120.9,-61.6L-121.3,-70.0L-119.7,-77.7L-116.2,-84.4L-110.9,-89.8L-104.0,-93.7L-96.0,-96.0L-87.1,-96.7L-77.8,-96.0L-68.5,-94.3L-59.7,-91.9L-51.5,-89.2L-44.2,-86.8L-37.9,-85.0L-32.4,-84.4L-27.6,-85.1L-23.4,-87.3L-19.4,-91.1L-15.2,-96.2L-10.8,-102.4L-5.7,-109.4L-0.0,-116.5L6.5,-123.4L13.6,-129.4L21.2,-134.0L29.1,-137.0L36.9,-137.9L44.4,-136.6L51.1,-133.2L56.9,-127.9L61.6,-120.9L65.0,-112.7L67.3,-103.6L68.5,-94.3L68.9,-85.1L68.9,-76.5L68.9,-68.9L69.2,-62.3L70.2,-56.9L72.4,-52.6L75.8,-49.2L80.6,-46.5L86.8,-44.2L94.1,-41.9L102.3,-39.3L110.8,-36.0L119.4,-32.0L127.3,-27.0L134.0,-21.2L139.2,-14.6L142.5,-7.5L143.6,-0.0Z" fill="none" stroke="#fdcee7" stroke-width="17.1" stroke-linecap="round" opacity="0.04" filter="url(#tg)"/><path d="M143.6,0.0L142.5,7.5L139.2,14.6L134.0,21.2L127.3,27.0L119.4,32.0L110.8,36.0L102.3,39.3L94.1,41.9L86.8,44.2L80.6,46.5L75.8,49.2L72.4,52.6L70.2,56.9L69.2,62.3L68.9,68.9L68.9,76.5L68.9,85.1L68.5,94.3L67.3,103.6L65.0,112.7L61.6,120.9L56.9,127.9L51.1,133.2L44.4,136.6L36.9,137.9L29.1,137.0L21.2,134.0L13.6,129.4L6.5,123.4L0.0,116.5L-5.7,109.4L-10.8,102.4L-15.2,96.2L-19.4,91.1L-23.4,87.3L-27.6,85.1L-32.4,84.4L-37.9,85.0L-44.2,86.8L-51.5,89.2L-59.7,91.9L-68.5,94.3L-77.8,96.0L-87.1,96.7L-96.0,96.0L-104.0,93.7L-110.9,89.8L-116.2,84.4L-119.7,77.7L-121.3,70.0L-120.9,61.6L-118.8,52.9L-115.4,44.3L-110.8,36.0L-105.8,28.4L-100.8,21.4L-96.2,15.2L-92.6,9.7L-90.3,4.7L-89.5,0.0L-90.3,-4.7L-92.6,-9.7L-96.2,-15.2L-100.8,-21.4L-105.8,-28.4L-110.8,-36.0L-115.4,-44.3L-118.8,-52.9L-120.9,-61.6L-121.3,-70.0L-119.7,-77.7L-116.2,-84.4L-110.9,-89.8L-104.0,-93.7L-96.0,-96.0L-87.1,-96.7L-77.8,-96.0L-68.5,-94.3L-59.7,-91.9L-51.5,-89.2L-44.2,-86.8L-37.9,-85.0L-32.4,-84.4L-27.6,-85.1L-23.4,-87.3L-19.4,-91.1L-15.2,-96.2L-10.8,-102.4L-5.7,-109.4L-0.0,-116.5L6.5,-123.4L13.6,-129.4L21.2,-134.0L29.1,-137.0L36.9,-137.9L44.4,-136.6L51.1,-133.2L56.9,-127.9L61.6,-120.9L65.0,-112.7L67.3,-103.6L68.5,-94.3L68.9,-85.1L68.9,-76.5L68.9,-68.9L69.2,-62.3L70.2,-56.9L72.4,-52.6L75.8,-49.2L80.6,-46.5L86.8,-44.2L94.1,-41.9L102.3,-39.3L110.8,-36.0L119.4,-32.0L127.3,-27.0L134.0,-21.2L139.2,-14.6L142.5,-7.5L143.6,-0.0Z" fill="none" stroke="#fdcee7" stroke-width="5.7" stroke-linecap="round" opacity="0.95"/><path d="M135.4,0.0L136.1,7.1L134.7,14.2L131.1,20.8L125.6,26.7L118.6,31.8L110.6,35.9L102.0,39.1L93.4,41.6L85.3,43.4L78.0,45.0L71.9,46.7L67.2,48.8L63.8,51.7L61.7,55.6L60.7,60.7L60.3,66.9L60.2,74.4L60.1,82.7L59.5,91.6L58.1,100.7L55.7,109.4L52.2,117.3L47.6,123.9L41.8,128.8L35.3,131.7L28.2,132.4L20.8,131.1L13.4,127.7L6.4,122.6L0.0,116.3L-5.7,109.1L-10.7,101.7L-15.0,94.5L-18.7,88.1L-22.2,82.9L-25.7,79.0L-29.4,76.7L-33.8,75.9L-38.9,76.4L-45.0,78.0L-52.1,80.3L-60.1,82.7L-68.7,84.9L-77.8,86.4L-86.8,86.8L-95.4,85.9L-103.1,83.5L-109.5,79.6L-114.3,74.3L-117.3,67.7L-118.2,60.2L-117.3,52.2L-114.6,44.0L-110.6,35.9L-105.5,28.3L-100.0,21.3L-94.5,15.0L-89.6,9.4L-85.7,4.5L-83.1,0.0L-82.0,-4.3L-82.6,-8.7L-84.7,-13.4L-88.1,-18.7L-92.4,-24.8L-97.2,-31.6L-102.0,-39.1L-106.2,-47.3L-109.4,-55.7L-111.2,-64.2L-111.3,-72.3L-109.5,-79.6L-105.9,-85.8L-100.6,-90.6L-93.8,-93.8L-85.9,-95.4L-77.3,-95.4L-68.3,-94.1L-59.5,-91.6L-51.1,-88.5L-43.4,-85.3L-36.6,-82.3L-30.7,-80.1L-25.7,-79.0L-21.3,-79.4L-17.3,-81.3L-13.4,-84.7L-9.4,-89.6L-5.0,-95.6L-0.0,-102.2L5.7,-109.1L12.2,-115.6L19.2,-121.3L26.7,-125.6L34.3,-128.2L41.8,-128.8L48.9,-127.3L55.1,-123.7L60.2,-118.2L64.2,-111.2L66.9,-103.0L68.3,-94.1L68.7,-84.9L68.4,-76.0L67.7,-67.7L66.9,-60.3L66.7,-54.0L67.2,-48.8L68.9,-44.7L71.9,-41.5L76.4,-38.9L82.3,-36.6L89.3,-34.3L97.2,-31.6L105.5,-28.3L113.7,-24.2L121.3,-19.2L127.7,-13.4L132.5,-6.9L135.4,-0.0Z" fill="none" stroke="#fad1e4" stroke-width="17.1" stroke-linecap="round" opacity="0.04" filter="url(#tg)"/><path d="M135.4,0.0L136.1,7.1L134.7,14.2L131.1,20.8L125.6,26.7L118.6,31.8L110.6,35.9L102.0,39.1L93.4,41.6L85.3,43.4L78.0,45.0L71.9,46.7L67.2,48.8L63.8,51.7L61.7,55.6L60.7,60.7L60.3,66.9L60.2,74.4L60.1,82.7L59.5,91.6L58.1,100.7L55.7,109.4L52.2,117.3L47.6,123.9L41.8,128.8L35.3,131.7L28.2,132.4L20.8,131.1L13.4,127.7L6.4,122.6L0.0,116.3L-5.7,109.1L-10.7,101.7L-15.0,94.5L-18.7,88.1L-22.2,82.9L-25.7,79.0L-29.4,76.7L-33.8,75.9L-38.9,76.4L-45.0,78.0L-52.1,80.3L-60.1,82.7L-68.7,84.9L-77.8,86.4L-86.8,86.8L-95.4,85.9L-103.1,83.5L-109.5,79.6L-114.3,74.3L-117.3,67.7L-118.2,60.2L-117.3,52.2L-114.6,44.0L-110.6,35.9L-105.5,28.3L-100.0,21.3L-94.5,15.0L-89.6,9.4L-85.7,4.5L-83.1,0.0L-82.0,-4.3L-82.6,-8.7L-84.7,-13.4L-88.1,-18.7L-92.4,-24.8L-97.2,-31.6L-102.0,-39.1L-106.2,-47.3L-109.4,-55.7L-111.2,-64.2L-111.3,-72.3L-109.5,-79.6L-105.9,-85.8L-100.6,-90.6L-93.8,-93.8L-85.9,-95.4L-77.3,-95.4L-68.3,-94.1L-59.5,-91.6L-51.1,-88.5L-43.4,-85.3L-36.6,-82.3L-30.7,-80.1L-25.7,-79.0L-21.3,-79.4L-17.3,-81.3L-13.4,-84.7L-9.4,-89.6L-5.0,-95.6L-0.0,-102.2L5.7,-109.1L12.2,-115.6L19.2,-121.3L26.7,-125.6L34.3,-128.2L41.8,-128.8L48.9,-127.3L55.1,-123.7L60.2,-118.2L64.2,-111.2L66.9,-103.0L68.3,-94.1L68.7,-84.9L68.4,-76.0L67.7,-67.7L66.9,-60.3L66.7,-54.0L67.2,-48.8L68.9,-44.7L71.9,-41.5L76.4,-38.9L82.3,-36.6L89.3,-34.3L97.2,-31.6L105.5,-28.3L113.7,-24.2L121.3,-19.2L127.7,-13.4L132.5,-6.9L135.4,-0.0Z" fill="none" stroke="#fad1e4" stroke-width="5.7" stroke-linecap="round" opacity="0.95"/><path d="M125.4,0.0L127.9,6.7L128.3,13.5L126.5,20.0L122.7,26.1L117.0,31.3L109.8,35.7L101.7,39.0L93.1,41.5L84.6,43.1L76.5,44.2L69.4,45.1L63.5,46.1L58.9,47.7L55.6,50.1L53.6,53.6L52.5,58.3L52.1,64.3L52.0,71.5L51.7,79.6L51.0,88.3L49.5,97.1L47.0,105.5L43.4,113.0L38.7,119.3L33.2,123.7L26.8,126.2L20.0,126.5L13.1,124.7L6.3,120.9L0.0,115.5L-5.7,108.8L-10.7,101.4L-14.8,93.8L-18.4,86.5L-21.4,80.0L-24.2,74.6L-27.2,70.7L-30.4,68.4L-34.4,67.5L-39.2,68.0L-45.1,69.4L-52.0,71.5L-59.7,73.8L-68.2,75.8L-77.0,77.0L-85.8,77.3L-94.1,76.2L-101.4,73.7L-107.4,69.8L-111.7,64.5L-114.1,58.2L-114.6,51.0L-113.0,43.4L-109.8,35.7L-105.2,28.2L-99.7,21.2L-93.8,14.8L-87.9,9.2L-82.7,4.3L-78.5,0.0L-75.7,-4.0L-74.4,-7.8L-74.8,-11.9L-76.8,-16.3L-80.0,-21.4L-84.1,-27.3L-88.6,-34.0L-93.1,-41.5L-97.1,-49.5L-100.0,-57.7L-101.6,-66.0L-101.4,-73.7L-99.6,-80.6L-95.9,-86.3L-90.6,-90.6L-83.9,-93.2L-76.2,-94.1L-67.9,-93.4L-59.3,-91.4L-51.0,-88.3L-43.1,-84.6L-36.0,-80.7L-29.7,-77.3L-24.2,-74.6L-19.6,-73.2L-15.6,-73.2L-11.9,-74.8L-8.2,-78.0L-4.3,-82.7L-0.0,-88.4L5.0,-94.8L10.7,-101.4L17.0,-107.6L24.0,-113.0L31.3,-117.0L38.7,-119.3L45.9,-119.6L52.5,-117.9L58.2,-114.1L62.7,-108.6L66.0,-101.6L67.9,-93.4L68.6,-84.7L68.2,-75.8L67.1,-67.1L65.7,-59.1L64.3,-52.1L63.5,-46.1L63.5,-41.3L64.8,-37.4L67.5,-34.4L71.7,-31.9L77.3,-29.7L84.1,-27.3L91.7,-24.6L99.7,-21.2L107.6,-17.0L114.8,-12.1L120.9,-6.3L125.4,-0.0Z" fill="none" stroke="#f7d3e1" stroke-width="17.1" stroke-linecap="round" opacity="0.04" filter="url(#tg)"/><path d="M125.4,0.0L127.9,6.7L128.3,13.5L126.5,20.0L122.7,26.1L117.0,31.3L109.8,35.7L101.7,39.0L93.1,41.5L84.6,43.1L76.5,44.2L69.4,45.1L63.5,46.1L58.9,47.7L55.6,50.1L53.6,53.6L52.5,58.3L52.1,64.3L52.0,71.5L51.7,79.6L51.0,88.3L49.5,97.1L47.0,105.5L43.4,113.0L38.7,119.3L33.2,123.7L26.8,126.2L20.0,126.5L13.1,124.7L6.3,120.9L0.0,115.5L-5.7,108.8L-10.7,101.4L-14.8,93.8L-18.4,86.5L-21.4,80.0L-24.2,74.6L-27.2,70.7L-30.4,68.4L-34.4,67.5L-39.2,68.0L-45.1,69.4L-52.0,71.5L-59.7,73.8L-68.2,75.8L-77.0,77.0L-85.8,77.3L-94.1,76.2L-101.4,73.7L-107.4,69.8L-111.7,64.5L-114.1,58.2L-114.6,51.0L-113.0,43.4L-109.8,35.7L-105.2,28.2L-99.7,21.2L-93.8,14.8L-87.9,9.2L-82.7,4.3L-78.5,0.0L-75.7,-4.0L-74.4,-7.8L-74.8,-11.9L-76.8,-16.3L-80.0,-21.4L-84.1,-27.3L-88.6,-34.0L-93.1,-41.5L-97.1,-49.5L-100.0,-57.7L-101.6,-66.0L-101.4,-73.7L-99.6,-80.6L-95.9,-86.3L-90.6,-90.6L-83.9,-93.2L-76.2,-94.1L-67.9,-93.4L-59.3,-91.4L-51.0,-88.3L-43.1,-84.6L-36.0,-80.7L-29.7,-77.3L-24.2,-74.6L-19.6,-73.2L-15.6,-73.2L-11.9,-74.8L-8.2,-78.0L-4.3,-82.7L-0.0,-88.4L5.0,-94.8L10.7,-101.4L17.0,-107.6L24.0,-113.0L31.3,-117.0L38.7,-119.3L45.9,-119.6L52.5,-117.9L58.2,-114.1L62.7,-108.6L66.0,-101.6L67.9,-93.4L68.6,-84.7L68.2,-75.8L67.1,-67.1L65.7,-59.1L64.3,-52.1L63.5,-46.1L63.5,-41.3L64.8,-37.4L67.5,-34.4L71.7,-31.9L77.3,-29.7L84.1,-27.3L91.7,-24.6L99.7,-21.2L107.6,-17.0L114.8,-12.1L120.9,-6.3L125.4,-0.0Z" fill="none" stroke="#f7d3e1" stroke-width="5.7" stroke-linecap="round" opacity="0.95"/><path d="M113.8,0.0L117.9,6.2L120.1,12.6L120.2,19.0L118.2,25.1L114.1,30.6L108.2,35.2L101.0,38.8L92.9,41.3L84.3,43.0L75.9,43.8L68.0,44.2L61.1,44.4L55.3,44.8L50.9,45.8L47.8,47.8L45.8,50.9L44.8,55.3L44.4,61.1L44.2,68.0L43.8,75.9L43.0,84.3L41.3,92.9L38.8,101.0L35.2,108.2L30.6,114.1L25.1,118.2L19.0,120.2L12.6,120.1L6.2,117.9L0.0,113.8L-5.7,108.0L-10.6,101.1L-14.8,93.5L-18.2,85.7L-21.0,78.3L-23.3,71.8L-25.5,66.4L-27.8,62.5L-30.7,60.2L-34.2,59.3L-38.8,59.7L-44.4,61.1L-51.0,63.0L-58.6,65.1L-66.9,66.9L-75.5,68.0L-84.1,68.1L-92.1,66.9L-99.0,64.3L-104.6,60.4L-108.4,55.3L-110.3,49.1L-110.2,42.3L-108.2,35.2L-104.5,28.0L-99.4,21.1L-93.5,14.8L-87.1,9.2L-81.0,4.2L-75.5,0.0L-71.1,-3.7L-68.1,-7.2L-66.7,-10.6L-67.0,-14.2L-68.7,-18.4L-71.8,-23.3L-75.7,-29.1L-80.0,-35.6L-84.3,-43.0L-88.0,-50.8L-90.7,-58.9L-92.1,-66.9L-91.8,-74.3L-89.8,-80.8L-86.1,-86.1L-80.8,-89.8L-74.3,-91.8L-66.9,-92.1L-58.9,-90.7L-50.8,-88.0L-43.0,-84.3L-35.6,-80.0L-29.1,-75.7L-23.3,-71.8L-18.4,-68.7L-14.2,-67.0L-10.6,-66.7L-7.2,-68.1L-3.7,-71.1L-0.0,-75.5L4.2,-81.0L9.2,-87.1L14.8,-93.5L21.1,-99.4L28.0,-104.5L35.2,-108.2L42.3,-110.2L49.1,-110.3L55.3,-108.4L60.4,-104.6L64.3,-99.0L66.9,-92.1L68.1,-84.1L68.0,-75.5L66.9,-66.9L65.1,-58.6L63.0,-51.0L61.1,-44.4L59.7,-38.8L59.3,-34.2L60.2,-30.7L62.5,-27.8L66.4,-25.5L71.8,-23.3L78.3,-21.0L85.7,-18.2L93.5,-14.8L101.1,-10.6L108.0,-5.7L113.8,-0.0Z" fill="none" stroke="#f4d6de" stroke-width="17.1" stroke-linecap="round" opacity="0.04" filter="url(#tg)"/><path d="M113.8,0.0L117.9,6.2L120.1,12.6L120.2,19.0L118.2,25.1L114.1,30.6L108.2,35.2L101.0,38.8L92.9,41.3L84.3,43.0L75.9,43.8L68.0,44.2L61.1,44.4L55.3,44.8L50.9,45.8L47.8,47.8L45.8,50.9L44.8,55.3L44.4,61.1L44.2,68.0L43.8,75.9L43.0,84.3L41.3,92.9L38.8,101.0L35.2,108.2L30.6,114.1L25.1,118.2L19.0,120.2L12.6,120.1L6.2,117.9L0.0,113.8L-5.7,108.0L-10.6,101.1L-14.8,93.5L-18.2,85.7L-21.0,78.3L-23.3,71.8L-25.5,66.4L-27.8,62.5L-30.7,60.2L-34.2,59.3L-38.8,59.7L-44.4,61.1L-51.0,63.0L-58.6,65.1L-66.9,66.9L-75.5,68.0L-84.1,68.1L-92.1,66.9L-99.0,64.3L-104.6,60.4L-108.4,55.3L-110.3,49.1L-110.2,42.3L-108.2,35.2L-104.5,28.0L-99.4,21.1L-93.5,14.8L-87.1,9.2L-81.0,4.2L-75.5,0.0L-71.1,-3.7L-68.1,-7.2L-66.7,-10.6L-67.0,-14.2L-68.7,-18.4L-71.8,-23.3L-75.7,-29.1L-80.0,-35.6L-84.3,-43.0L-88.0,-50.8L-90.7,-58.9L-92.1,-66.9L-91.8,-74.3L-89.8,-80.8L-86.1,-86.1L-80.8,-89.8L-74.3,-91.8L-66.9,-92.1L-58.9,-90.7L-50.8,-88.0L-43.0,-84.3L-35.6,-80.0L-29.1,-75.7L-23.3,-71.8L-18.4,-68.7L-14.2,-67.0L-10.6,-66.7L-7.2,-68.1L-3.7,-71.1L-0.0,-75.5L4.2,-81.0L9.2,-87.1L14.8,-93.5L21.1,-99.4L28.0,-104.5L35.2,-108.2L42.3,-110.2L49.1,-110.3L55.3,-108.4L60.4,-104.6L64.3,-99.0L66.9,-92.1L68.1,-84.1L68.0,-75.5L66.9,-66.9L65.1,-58.6L63.0,-51.0L61.1,-44.4L59.7,-38.8L59.3,-34.2L60.2,-30.7L62.5,-27.8L66.4,-25.5L71.8,-23.3L78.3,-21.0L85.7,-18.2L93.5,-14.8L101.1,-10.6L108.0,-5.7L113.8,-0.0Z" fill="none" stroke="#f4d6de" stroke-width="5.7" stroke-linecap="round" opacity="0.95"/><path d="M100.9,0.0L106.3,5.6L110.2,11.6L112.1,17.8L111.9,23.8L109.6,29.4L105.4,34.2L99.4,38.2L92.1,41.0L84.0,42.8L75.6,43.7L67.4,43.7L59.7,43.4L53.0,42.9L47.5,42.7L43.2,43.2L40.3,44.8L38.5,47.5L37.5,51.7L37.1,57.2L36.9,63.9L36.5,71.6L35.5,79.8L33.8,88.1L31.2,95.9L27.6,102.8L23.0,108.4L17.8,112.1L12.0,113.8L5.9,113.3L0.0,110.8L-5.6,106.3L-10.5,100.3L-14.8,93.2L-18.2,85.4L-20.8,77.6L-22.8,70.2L-24.4,63.6L-26.0,58.3L-27.8,54.5L-30.1,52.2L-33.3,51.3L-37.5,51.7L-42.9,53.0L-49.4,54.8L-56.8,56.8L-64.9,58.4L-73.3,59.4L-81.6,59.3L-89.3,58.0L-95.9,55.4L-101.1,51.5L-104.5,46.5L-105.9,40.7L-105.4,34.2L-102.8,27.6L-98.7,21.0L-93.2,14.8L-86.8,9.1L-80.2,4.2L-73.8,0.0L-68.1,-3.6L-63.5,-6.7L-60.4,-9.6L-58.9,-12.5L-59.1,-15.8L-60.7,-19.7L-63.6,-24.4L-67.4,-30.0L-71.6,-36.5L-75.6,-43.7L-79.1,-51.4L-81.6,-59.3L-82.7,-67.0L-82.3,-74.1L-80.2,-80.2L-76.6,-85.0L-71.4,-88.2L-65.1,-89.6L-58.0,-89.3L-50.4,-87.3L-42.8,-84.0L-35.5,-79.8L-28.8,-75.0L-22.8,-70.2L-17.6,-65.8L-13.3,-62.5L-9.6,-60.4L-6.3,-59.9L-3.2,-61.1L-0.0,-63.9L3.6,-68.1L7.7,-73.4L12.6,-79.3L18.2,-85.4L24.4,-91.1L31.2,-95.9L38.2,-99.4L45.1,-101.2L51.5,-101.1L57.2,-99.1L61.8,-95.2L65.1,-89.6L67.0,-82.7L67.5,-75.0L66.7,-66.7L64.9,-58.4L62.4,-50.5L59.7,-43.4L57.2,-37.1L55.3,-31.9L54.5,-27.8L55.0,-24.5L57.1,-21.9L60.7,-19.7L65.8,-17.6L72.2,-15.3L79.3,-12.6L86.8,-9.1L94.2,-4.9L100.9,-0.0Z" fill="none" stroke="#f0d8db" stroke-width="17.1" stroke-linecap="round" opacity="0.04" filter="url(#tg)"/><path d="M100.9,0.0L106.3,5.6L110.2,11.6L112.1,17.8L111.9,23.8L109.6,29.4L105.4,34.2L99.4,38.2L92.1,41.0L84.0,42.8L75.6,43.7L67.4,43.7L59.7,43.4L53.0,42.9L47.5,42.7L43.2,43.2L40.3,44.8L38.5,47.5L37.5,51.7L37.1,57.2L36.9,63.9L36.5,71.6L35.5,79.8L33.8,88.1L31.2,95.9L27.6,102.8L23.0,108.4L17.8,112.1L12.0,113.8L5.9,113.3L0.0,110.8L-5.6,106.3L-10.5,100.3L-14.8,93.2L-18.2,85.4L-20.8,77.6L-22.8,70.2L-24.4,63.6L-26.0,58.3L-27.8,54.5L-30.1,52.2L-33.3,51.3L-37.5,51.7L-42.9,53.0L-49.4,54.8L-56.8,56.8L-64.9,58.4L-73.3,59.4L-81.6,59.3L-89.3,58.0L-95.9,55.4L-101.1,51.5L-104.5,46.5L-105.9,40.7L-105.4,34.2L-102.8,27.6L-98.7,21.0L-93.2,14.8L-86.8,9.1L-80.2,4.2L-73.8,0.0L-68.1,-3.6L-63.5,-6.7L-60.4,-9.6L-58.9,-12.5L-59.1,-15.8L-60.7,-19.7L-63.6,-24.4L-67.4,-30.0L-71.6,-36.5L-75.6,-43.7L-79.1,-51.4L-81.6,-59.3L-82.7,-67.0L-82.3,-74.1L-80.2,-80.2L-76.6,-85.0L-71.4,-88.2L-65.1,-89.6L-58.0,-89.3L-50.4,-87.3L-42.8,-84.0L-35.5,-79.8L-28.8,-75.0L-22.8,-70.2L-17.6,-65.8L-13.3,-62.5L-9.6,-60.4L-6.3,-59.9L-3.2,-61.1L-0.0,-63.9L3.6,-68.1L7.7,-73.4L12.6,-79.3L18.2,-85.4L24.4,-91.1L31.2,-95.9L38.2,-99.4L45.1,-101.2L51.5,-101.1L57.2,-99.1L61.8,-95.2L65.1,-89.6L67.0,-82.7L67.5,-75.0L66.7,-66.7L64.9,-58.4L62.4,-50.5L59.7,-43.4L57.2,-37.1L55.3,-31.9L54.5,-27.8L55.0,-24.5L57.1,-21.9L60.7,-19.7L65.8,-17.6L72.2,-15.3L79.3,-12.6L86.8,-9.1L94.2,-4.9L100.9,-0.0Z" fill="none" stroke="#f0d8db" stroke-width="5.7" stroke-linecap="round" opacity="0.95"/><path d="M87.0,0.0L93.4,4.9L98.6,10.4L102.2,16.2L103.9,22.1L103.5,27.7L101.0,32.8L96.6,37.1L90.6,40.3L83.4,42.5L75.4,43.5L67.1,43.6L59.1,42.9L51.7,41.8L45.2,40.7L40.0,40.0L36.0,40.0L33.3,41.1L31.6,43.6L30.8,47.4L30.4,52.7L30.2,59.2L29.7,66.7L28.7,74.7L26.9,82.8L24.2,90.4L20.6,97.0L16.2,102.2L11.1,105.6L5.6,107.0L0.0,106.2L-5.4,103.3L-10.4,98.6L-14.6,92.4L-18.1,85.1L-20.7,77.3L-22.6,69.4L-23.8,62.1L-24.8,55.6L-25.7,50.4L-26.9,46.6L-28.8,44.4L-31.6,43.6L-35.6,43.9L-40.7,45.2L-47.0,47.0L-54.2,48.8L-62.2,50.4L-70.4,51.1L-78.5,51.0L-85.9,49.6L-92.2,47.0L-97.0,43.2L-100.0,38.4L-101.0,32.8L-99.9,26.8L-97.0,20.6L-92.4,14.6L-86.5,9.1L-79.9,4.2L-73.0,0.0L-66.4,-3.5L-60.5,-6.4L-55.9,-8.8L-52.7,-11.2L-51.1,-13.7L-51.2,-16.6L-52.8,-20.3L-55.6,-24.8L-59.2,-30.2L-63.2,-36.5L-67.1,-43.6L-70.4,-51.1L-72.7,-58.9L-73.7,-66.4L-73.2,-73.2L-71.0,-78.9L-67.4,-83.2L-62.4,-85.9L-56.4,-86.8L-49.6,-85.9L-42.5,-83.4L-35.4,-79.5L-28.7,-74.7L-22.6,-69.4L-17.2,-64.2L-12.7,-59.5L-8.8,-55.9L-5.6,-53.5L-2.8,-52.8L-0.0,-53.8L3.0,-56.5L6.4,-60.5L10.4,-65.6L15.2,-71.4L20.7,-77.3L26.9,-82.8L33.5,-87.3L40.3,-90.6L47.0,-92.2L53.1,-92.0L58.3,-89.8L62.4,-85.9L65.1,-80.4L66.4,-73.7L66.2,-66.2L64.7,-58.2L62.2,-50.4L59.1,-42.9L55.7,-36.2L52.7,-30.4L50.4,-25.7L49.2,-21.9L49.4,-19.0L51.2,-16.6L54.6,-14.6L59.5,-12.7L65.6,-10.4L72.6,-7.6L79.9,-4.2L87.0,-0.0Z" fill="none" stroke="#eddbd8" stroke-width="17.1" stroke-linecap="round" opacity="0.04" filter="url(#tg)"/><path d="M87.0,0.0L93.4,4.9L98.6,10.4L102.2,16.2L103.9,22.1L103.5,27.7L101.0,32.8L96.6,37.1L90.6,40.3L83.4,42.5L75.4,43.5L67.1,43.6L59.1,42.9L51.7,41.8L45.2,40.7L40.0,40.0L36.0,40.0L33.3,41.1L31.6,43.6L30.8,47.4L30.4,52.7L30.2,59.2L29.7,66.7L28.7,74.7L26.9,82.8L24.2,90.4L20.6,97.0L16.2,102.2L11.1,105.6L5.6,107.0L0.0,106.2L-5.4,103.3L-10.4,98.6L-14.6,92.4L-18.1,85.1L-20.7,77.3L-22.6,69.4L-23.8,62.1L-24.8,55.6L-25.7,50.4L-26.9,46.6L-28.8,44.4L-31.6,43.6L-35.6,43.9L-40.7,45.2L-47.0,47.0L-54.2,48.8L-62.2,50.4L-70.4,51.1L-78.5,51.0L-85.9,49.6L-92.2,47.0L-97.0,43.2L-100.0,38.4L-101.0,32.8L-99.9,26.8L-97.0,20.6L-92.4,14.6L-86.5,9.1L-79.9,4.2L-73.0,0.0L-66.4,-3.5L-60.5,-6.4L-55.9,-8.8L-52.7,-11.2L-51.1,-13.7L-51.2,-16.6L-52.8,-20.3L-55.6,-24.8L-59.2,-30.2L-63.2,-36.5L-67.1,-43.6L-70.4,-51.1L-72.7,-58.9L-73.7,-66.4L-73.2,-73.2L-71.0,-78.9L-67.4,-83.2L-62.4,-85.9L-56.4,-86.8L-49.6,-85.9L-42.5,-83.4L-35.4,-79.5L-28.7,-74.7L-22.6,-69.4L-17.2,-64.2L-12.7,-59.5L-8.8,-55.9L-5.6,-53.5L-2.8,-52.8L-0.0,-53.8L3.0,-56.5L6.4,-60.5L10.4,-65.6L15.2,-71.4L20.7,-77.3L26.9,-82.8L33.5,-87.3L40.3,-90.6L47.0,-92.2L53.1,-92.0L58.3,-89.8L62.4,-85.9L65.1,-80.4L66.4,-73.7L66.2,-66.2L64.7,-58.2L62.2,-50.4L59.1,-42.9L55.7,-36.2L52.7,-30.4L50.4,-25.7L49.2,-21.9L49.4,-19.0L51.2,-16.6L54.6,-14.6L59.5,-12.7L65.6,-10.4L72.6,-7.6L79.9,-4.2L87.0,-0.0Z" fill="none" stroke="#eddbd8" stroke-width="5.7" stroke-linecap="round" opacity="0.95"/><path d="M72.7,0.0L79.6,4.2L85.8,9.0L90.7,14.4L94.1,20.0L95.5,25.6L94.9,30.8L92.3,35.4L87.8,39.1L81.8,41.7L74.7,43.1L66.9,43.4L58.8,42.7L51.1,41.3L44.0,39.6L37.9,37.9L32.9,36.6L29.3,36.2L26.8,36.9L25.3,39.0L24.6,42.6L24.3,47.7L24.1,54.0L23.5,61.3L22.5,69.1L20.6,77.0L17.9,84.4L14.4,90.7L10.1,95.6L5.2,98.7L0.0,99.8L-5.2,98.7L-10.1,95.6L-14.4,90.7L-17.9,84.4L-20.6,77.0L-22.5,69.1L-23.5,61.3L-24.1,54.0L-24.3,47.7L-24.6,42.6L-25.3,39.0L-26.8,36.9L-29.3,36.2L-32.9,36.6L-37.9,37.9L-44.0,39.6L-51.1,41.3L-58.8,42.7L-66.9,43.4L-74.7,43.1L-81.8,41.7L-87.8,39.1L-92.3,35.4L-94.9,30.8L-95.5,25.6L-94.1,20.0L-90.7,14.4L-85.8,9.0L-79.6,4.2L-72.7,0.0L-65.6,-3.4L-58.8,-6.2L-52.9,-8.4L-48.2,-10.2L-44.9,-12.0L-43.4,-14.1L-43.4,-16.7L-45.0,-20.0L-47.7,-24.3L-51.2,-29.6L-55.1,-35.8L-58.8,-42.7L-61.9,-50.2L-64.1,-57.7L-65.0,-65.0L-64.3,-71.5L-62.2,-76.8L-58.7,-80.7L-53.8,-82.9L-48.1,-83.3L-41.7,-81.8L-35.1,-78.8L-28.6,-74.4L-22.5,-69.1L-17.0,-63.5L-12.3,-57.9L-8.4,-52.9L-5.1,-49.0L-2.4,-46.5L-0.0,-45.6L2.4,-46.5L5.1,-49.0L8.4,-52.9L12.3,-57.9L17.0,-63.5L22.5,-69.1L28.6,-74.4L35.1,-78.8L41.7,-81.8L48.1,-83.3L53.8,-82.9L58.7,-80.7L62.2,-76.8L64.3,-71.5L65.0,-65.0L64.1,-57.7L61.9,-50.2L58.8,-42.7L55.1,-35.8L51.2,-29.6L47.7,-24.3L45.0,-20.0L43.4,-16.7L43.4,-14.1L44.9,-12.0L48.2,-10.2L52.9,-8.4L58.8,-6.2L65.6,-3.4L72.7,-0.0Z" fill="none" stroke="#eaded5" stroke-width="17.1" stroke-linecap="round" opacity="0.04" filter="url(#tg)"/><path d="M72.7,0.0L79.6,4.2L85.8,9.0L90.7,14.4L94.1,20.0L95.5,25.6L94.9,30.8L92.3,35.4L87.8,39.1L81.8,41.7L74.7,43.1L66.9,43.4L58.8,42.7L51.1,41.3L44.0,39.6L37.9,37.9L32.9,36.6L29.3,36.2L26.8,36.9L25.3,39.0L24.6,42.6L24.3,47.7L24.1,54.0L23.5,61.3L22.5,69.1L20.6,77.0L17.9,84.4L14.4,90.7L10.1,95.6L5.2,98.7L0.0,99.8L-5.2,98.7L-10.1,95.6L-14.4,90.7L-17.9,84.4L-20.6,77.0L-22.5,69.1L-23.5,61.3L-24.1,54.0L-24.3,47.7L-24.6,42.6L-25.3,39.0L-26.8,36.9L-29.3,36.2L-32.9,36.6L-37.9,37.9L-44.0,39.6L-51.1,41.3L-58.8,42.7L-66.9,43.4L-74.7,43.1L-81.8,41.7L-87.8,39.1L-92.3,35.4L-94.9,30.8L-95.5,25.6L-94.1,20.0L-90.7,14.4L-85.8,9.0L-79.6,4.2L-72.7,0.0L-65.6,-3.4L-58.8,-6.2L-52.9,-8.4L-48.2,-10.2L-44.9,-12.0L-43.4,-14.1L-43.4,-16.7L-45.0,-20.0L-47.7,-24.3L-51.2,-29.6L-55.1,-35.8L-58.8,-42.7L-61.9,-50.2L-64.1,-57.7L-65.0,-65.0L-64.3,-71.5L-62.2,-76.8L-58.7,-80.7L-53.8,-82.9L-48.1,-83.3L-41.7,-81.8L-35.1,-78.8L-28.6,-74.4L-22.5,-69.1L-17.0,-63.5L-12.3,-57.9L-8.4,-52.9L-5.1,-49.0L-2.4,-46.5L-0.0,-45.6L2.4,-46.5L5.1,-49.0L8.4,-52.9L12.3,-57.9L17.0,-63.5L22.5,-69.1L28.6,-74.4L35.1,-78.8L41.7,-81.8L48.1,-83.3L53.8,-82.9L58.7,-80.7L62.2,-76.8L64.3,-71.5L65.0,-65.0L64.1,-57.7L61.9,-50.2L58.8,-42.7L55.1,-35.8L51.2,-29.6L47.7,-24.3L45.0,-20.0L43.4,-16.7L43.4,-14.1L44.9,-12.0L48.2,-10.2L52.9,-8.4L58.8,-6.2L65.6,-3.4L72.7,-0.0Z" fill="none" stroke="#eaded5" stroke-width="5.7" stroke-linecap="round" opacity="0.95"/><path d="M58.4,0.0L65.3,3.4L72.0,7.6L78.0,12.3L82.7,17.6L85.8,23.0L87.1,28.3L86.3,33.1L83.6,37.2L79.2,40.3L73.2,42.3L66.2,43.0L58.6,42.6L50.8,41.2L43.4,39.1L36.7,36.7L30.9,34.4L26.4,32.6L23.1,31.7L20.9,32.1L19.6,34.0L19.0,37.4L18.8,42.2L18.6,48.4L18.0,55.5L16.9,63.2L15.1,70.8L12.3,78.0L8.8,84.1L4.7,88.7L0.0,91.6L-4.8,92.4L-9.6,91.1L-13.9,87.8L-17.6,82.7L-20.4,76.2L-22.4,68.9L-23.4,61.1L-23.7,53.3L-23.5,46.2L-23.1,40.0L-22.8,35.2L-23.1,31.7L-24.1,29.8L-26.2,29.2L-29.7,29.7L-34.4,30.9L-40.3,32.6L-47.2,34.3L-54.8,35.6L-62.7,36.2L-70.3,35.8L-77.2,34.4L-83.0,31.8L-87.1,28.3L-89.3,23.9L-89.6,19.0L-87.8,13.9L-84.1,8.8L-78.8,4.1L-72.4,0.0L-65.3,-3.4L-58.1,-6.1L-51.2,-8.1L-45.2,-9.6L-40.5,-10.9L-37.3,-12.1L-35.8,-13.7L-35.8,-16.0L-37.4,-19.0L-40.0,-23.1L-43.5,-28.2L-47.2,-34.3L-50.8,-41.2L-53.8,-48.4L-55.8,-55.8L-56.6,-62.8L-55.9,-69.1L-53.8,-74.1L-50.4,-77.6L-45.8,-79.3L-40.3,-79.2L-34.4,-77.2L-28.3,-73.7L-22.4,-68.9L-16.9,-63.2L-12.1,-57.1L-8.1,-51.2L-4.8,-46.0L-2.2,-41.9L-0.0,-39.2L2.0,-38.3L4.1,-39.0L6.6,-41.4L9.6,-45.2L13.4,-50.1L18.0,-55.5L23.4,-61.1L29.4,-66.1L35.8,-70.3L42.3,-73.2L48.4,-74.5L53.8,-74.1L58.2,-71.9L61.3,-68.0L62.8,-62.8L62.8,-56.6L61.3,-49.7L58.6,-42.6L54.8,-35.6L50.6,-29.2L46.2,-23.5L42.2,-18.8L39.1,-15.0L37.3,-12.1L37.0,-9.9L38.4,-8.2L41.4,-6.6L46.0,-4.8L51.8,-2.7L58.4,-0.0Z" fill="none" stroke="#e7e0d2" stroke-width="17.1" stroke-linecap="round" opacity="0.04" filter="url(#tg)"/><path d="M58.4,0.0L65.3,3.4L72.0,7.6L78.0,12.3L82.7,17.6L85.8,23.0L87.1,28.3L86.3,33.1L83.6,37.2L79.2,40.3L73.2,42.3L66.2,43.0L58.6,42.6L50.8,41.2L43.4,39.1L36.7,36.7L30.9,34.4L26.4,32.6L23.1,31.7L20.9,32.1L19.6,34.0L19.0,37.4L18.8,42.2L18.6,48.4L18.0,55.5L16.9,63.2L15.1,70.8L12.3,78.0L8.8,84.1L4.7,88.7L0.0,91.6L-4.8,92.4L-9.6,91.1L-13.9,87.8L-17.6,82.7L-20.4,76.2L-22.4,68.9L-23.4,61.1L-23.7,53.3L-23.5,46.2L-23.1,40.0L-22.8,35.2L-23.1,31.7L-24.1,29.8L-26.2,29.2L-29.7,29.7L-34.4,30.9L-40.3,32.6L-47.2,34.3L-54.8,35.6L-62.7,36.2L-70.3,35.8L-77.2,34.4L-83.0,31.8L-87.1,28.3L-89.3,23.9L-89.6,19.0L-87.8,13.9L-84.1,8.8L-78.8,4.1L-72.4,0.0L-65.3,-3.4L-58.1,-6.1L-51.2,-8.1L-45.2,-9.6L-40.5,-10.9L-37.3,-12.1L-35.8,-13.7L-35.8,-16.0L-37.4,-19.0L-40.0,-23.1L-43.5,-28.2L-47.2,-34.3L-50.8,-41.2L-53.8,-48.4L-55.8,-55.8L-56.6,-62.8L-55.9,-69.1L-53.8,-74.1L-50.4,-77.6L-45.8,-79.3L-40.3,-79.2L-34.4,-77.2L-28.3,-73.7L-22.4,-68.9L-16.9,-63.2L-12.1,-57.1L-8.1,-51.2L-4.8,-46.0L-2.2,-41.9L-0.0,-39.2L2.0,-38.3L4.1,-39.0L6.6,-41.4L9.6,-45.2L13.4,-50.1L18.0,-55.5L23.4,-61.1L29.4,-66.1L35.8,-70.3L42.3,-73.2L48.4,-74.5L53.8,-74.1L58.2,-71.9L61.3,-68.0L62.8,-62.8L62.8,-56.6L61.3,-49.7L58.6,-42.6L54.8,-35.6L50.6,-29.2L46.2,-23.5L42.2,-18.8L39.1,-15.0L37.3,-12.1L37.0,-9.9L38.4,-8.2L41.4,-6.6L46.0,-4.8L51.8,-2.7L58.4,-0.0Z" fill="none" stroke="#e7e0d2" stroke-width="5.7" stroke-linecap="round" opacity="0.95"/><path d="M44.5,0.0L51.0,2.7L57.8,6.1L64.3,10.2L70.1,14.9L74.6,20.0L77.6,25.2L78.7,30.2L77.8,34.6L75.1,38.3L70.6,40.8L64.8,42.1L58.0,42.1L50.6,41.0L43.2,38.9L36.1,36.1L29.8,33.1L24.5,30.3L20.4,28.0L17.4,26.8L15.5,26.8L14.5,28.4L14.1,31.6L14.0,36.3L13.8,42.4L13.2,49.3L12.1,56.8L10.2,64.3L7.5,71.2L4.0,77.1L0.0,81.5L-4.4,84.1L-8.9,84.7L-13.2,83.2L-17.0,79.8L-20.0,74.6L-22.1,68.1L-23.3,60.8L-23.6,53.1L-23.2,45.5L-22.3,38.6L-21.2,32.6L-20.4,28.0L-20.1,24.8L-20.7,23.0L-22.6,22.6L-25.7,23.2L-30.3,24.5L-36.0,26.2L-42.8,27.8L-50.3,29.0L-58.0,29.6L-65.4,29.1L-72.1,27.7L-77.6,25.2L-81.4,21.8L-83.3,17.7L-83.2,13.2L-81.1,8.5L-77.1,4.0L-71.6,0.0L-65.0,-3.4L-57.8,-6.1L-50.4,-8.0L-43.6,-9.3L-37.6,-10.1L-32.9,-10.7L-29.8,-11.4L-28.3,-12.6L-28.4,-14.5L-30.0,-17.3L-32.6,-21.2L-36.0,-26.2L-39.7,-32.1L-43.2,-38.9L-46.0,-46.0L-47.9,-53.2L-48.6,-60.0L-47.9,-66.0L-45.9,-70.7L-42.6,-73.8L-38.3,-75.1L-33.2,-74.5L-27.7,-72.1L-22.1,-68.1L-16.8,-62.9L-12.1,-56.8L-8.0,-50.4L-4.7,-44.3L-2.0,-38.9L-0.0,-34.6L1.7,-31.9L3.2,-30.8L5.0,-31.5L7.2,-33.9L10.1,-37.6L13.8,-42.4L18.3,-47.7L23.6,-53.1L29.6,-58.0L35.8,-62.0L42.1,-64.8L47.9,-66.0L53.0,-65.5L57.0,-63.3L59.6,-59.6L60.6,-54.6L60.0,-48.6L58.0,-42.1L54.6,-35.5L50.3,-29.0L45.5,-23.2L40.7,-18.1L36.3,-14.0L32.9,-10.7L30.8,-8.3L30.3,-6.4L31.5,-5.0L34.4,-3.6L38.9,-2.0L44.5,-0.0Z" fill="none" stroke="#e4e3ce" stroke-width="17.1" stroke-linecap="round" opacity="0.04" filter="url(#tg)"/><path d="M44.5,0.0L51.0,2.7L57.8,6.1L64.3,10.2L70.1,14.9L74.6,20.0L77.6,25.2L78.7,30.2L77.8,34.6L75.1,38.3L70.6,40.8L64.8,42.1L58.0,42.1L50.6,41.0L43.2,38.9L36.1,36.1L29.8,33.1L24.5,30.3L20.4,28.0L17.4,26.8L15.5,26.8L14.5,28.4L14.1,31.6L14.0,36.3L13.8,42.4L13.2,49.3L12.1,56.8L10.2,64.3L7.5,71.2L4.0,77.1L0.0,81.5L-4.4,84.1L-8.9,84.7L-13.2,83.2L-17.0,79.8L-20.0,74.6L-22.1,68.1L-23.3,60.8L-23.6,53.1L-23.2,45.5L-22.3,38.6L-21.2,32.6L-20.4,28.0L-20.1,24.8L-20.7,23.0L-22.6,22.6L-25.7,23.2L-30.3,24.5L-36.0,26.2L-42.8,27.8L-50.3,29.0L-58.0,29.6L-65.4,29.1L-72.1,27.7L-77.6,25.2L-81.4,21.8L-83.3,17.7L-83.2,13.2L-81.1,8.5L-77.1,4.0L-71.6,0.0L-65.0,-3.4L-57.8,-6.1L-50.4,-8.0L-43.6,-9.3L-37.6,-10.1L-32.9,-10.7L-29.8,-11.4L-28.3,-12.6L-28.4,-14.5L-30.0,-17.3L-32.6,-21.2L-36.0,-26.2L-39.7,-32.1L-43.2,-38.9L-46.0,-46.0L-47.9,-53.2L-48.6,-60.0L-47.9,-66.0L-45.9,-70.7L-42.6,-73.8L-38.3,-75.1L-33.2,-74.5L-27.7,-72.1L-22.1,-68.1L-16.8,-62.9L-12.1,-56.8L-8.0,-50.4L-4.7,-44.3L-2.0,-38.9L-0.0,-34.6L1.7,-31.9L3.2,-30.8L5.0,-31.5L7.2,-33.9L10.1,-37.6L13.8,-42.4L18.3,-47.7L23.6,-53.1L29.6,-58.0L35.8,-62.0L42.1,-64.8L47.9,-66.0L53.0,-65.5L57.0,-63.3L59.6,-59.6L60.6,-54.6L60.0,-48.6L58.0,-42.1L54.6,-35.5L50.3,-29.0L45.5,-23.2L40.7,-18.1L36.3,-14.0L32.9,-10.7L30.8,-8.3L30.3,-6.4L31.5,-5.0L34.4,-3.6L38.9,-2.0L44.5,-0.0Z" fill="none" stroke="#e4e3ce" stroke-width="5.7" stroke-linecap="round" opacity="0.95"/><path d="M31.6,0.0L37.2,1.9L43.5,4.6L50.2,7.9L56.5,12.0L62.1,16.6L66.5,21.6L69.3,26.6L70.3,31.3L69.4,35.4L66.6,38.5L62.3,40.4L56.6,41.1L50.0,40.5L42.9,38.7L35.9,35.9L29.3,32.5L23.4,28.9L18.6,25.6L14.9,22.9L12.3,21.3L10.8,21.1L10.0,22.5L9.8,25.5L9.8,30.1L9.6,36.0L9.1,42.8L7.9,50.2L6.0,57.5L3.4,64.2L0.0,69.9L-3.9,74.1L-8.0,76.5L-12.2,76.9L-16.0,75.3L-19.2,71.7L-21.6,66.5L-23.1,60.1L-23.5,52.8L-23.1,45.2L-21.9,37.9L-20.3,31.2L-18.6,25.6L-17.2,21.2L-16.5,18.3L-16.7,16.7L-18.3,16.5L-21.2,17.2L-25.6,18.6L-31.2,20.3L-37.9,21.9L-45.2,23.1L-52.8,23.5L-60.1,23.1L-66.5,21.6L-71.7,19.2L-75.3,16.0L-76.9,12.2L-76.5,8.0L-74.1,3.9L-69.9,0.0L-64.2,-3.4L-57.5,-6.0L-50.2,-7.9L-42.8,-9.1L-36.0,-9.6L-30.1,-9.8L-25.5,-9.8L-22.5,-10.0L-21.1,-10.8L-21.3,-12.3L-22.9,-14.9L-25.6,-18.6L-28.9,-23.4L-32.5,-29.3L-35.9,-35.9L-38.7,-42.9L-40.5,-50.0L-41.1,-56.6L-40.4,-62.3L-38.5,-66.6L-35.4,-69.4L-31.3,-70.3L-26.6,-69.3L-21.6,-66.5L-16.6,-62.1L-12.0,-56.5L-7.9,-50.2L-4.6,-43.5L-1.9,-37.2L-0.0,-31.6L1.4,-27.3L2.6,-24.5L3.7,-23.4L5.1,-24.1L7.1,-26.4L9.8,-30.1L13.3,-34.8L17.8,-40.0L23.1,-45.2L28.9,-50.0L35.0,-53.9L41.1,-56.6L46.7,-57.7L51.5,-57.2L55.1,-55.1L57.2,-51.5L57.7,-46.7L56.6,-41.1L53.9,-35.0L50.0,-28.9L45.2,-23.1L40.0,-17.8L34.8,-13.3L30.1,-9.8L26.4,-7.1L24.1,-5.1L23.4,-3.7L24.5,-2.6L27.3,-1.4L31.6,-0.0Z" fill="none" stroke="#e1e5cb" stroke-width="17.1" stroke-linecap="round" opacity="0.04" filter="url(#tg)"/><path d="M31.6,0.0L37.2,1.9L43.5,4.6L50.2,7.9L56.5,12.0L62.1,16.6L66.5,21.6L69.3,26.6L70.3,31.3L69.4,35.4L66.6,38.5L62.3,40.4L56.6,41.1L50.0,40.5L42.9,38.7L35.9,35.9L29.3,32.5L23.4,28.9L18.6,25.6L14.9,22.9L12.3,21.3L10.8,21.1L10.0,22.5L9.8,25.5L9.8,30.1L9.6,36.0L9.1,42.8L7.9,50.2L6.0,57.5L3.4,64.2L0.0,69.9L-3.9,74.1L-8.0,76.5L-12.2,76.9L-16.0,75.3L-19.2,71.7L-21.6,66.5L-23.1,60.1L-23.5,52.8L-23.1,45.2L-21.9,37.9L-20.3,31.2L-18.6,25.6L-17.2,21.2L-16.5,18.3L-16.7,16.7L-18.3,16.5L-21.2,17.2L-25.6,18.6L-31.2,20.3L-37.9,21.9L-45.2,23.1L-52.8,23.5L-60.1,23.1L-66.5,21.6L-71.7,19.2L-75.3,16.0L-76.9,12.2L-76.5,8.0L-74.1,3.9L-69.9,0.0L-64.2,-3.4L-57.5,-6.0L-50.2,-7.9L-42.8,-9.1L-36.0,-9.6L-30.1,-9.8L-25.5,-9.8L-22.5,-10.0L-21.1,-10.8L-21.3,-12.3L-22.9,-14.9L-25.6,-18.6L-28.9,-23.4L-32.5,-29.3L-35.9,-35.9L-38.7,-42.9L-40.5,-50.0L-41.1,-56.6L-40.4,-62.3L-38.5,-66.6L-35.4,-69.4L-31.3,-70.3L-26.6,-69.3L-21.6,-66.5L-16.6,-62.1L-12.0,-56.5L-7.9,-50.2L-4.6,-43.5L-1.9,-37.2L-0.0,-31.6L1.4,-27.3L2.6,-24.5L3.7,-23.4L5.1,-24.1L7.1,-26.4L9.8,-30.1L13.3,-34.8L17.8,-40.0L23.1,-45.2L28.9,-50.0L35.0,-53.9L41.1,-56.6L46.7,-57.7L51.5,-57.2L55.1,-55.1L57.2,-51.5L57.7,-46.7L56.6,-41.1L53.9,-35.0L50.0,-28.9L45.2,-23.1L40.0,-17.8L34.8,-13.3L30.1,-9.8L26.4,-7.1L24.1,-5.1L23.4,-3.7L24.5,-2.6L27.3,-1.4L31.6,-0.0Z" fill="none" stroke="#e1e5cb" stroke-width="5.7" stroke-linecap="round" opacity="0.95"/><path d="M20.0,0.0L24.3,1.3L29.8,3.1L36.0,5.7L42.5,9.0L48.8,13.1L54.2,17.6L58.5,22.4L61.1,27.2L62.0,31.6L61.1,35.3L58.4,37.9L54.1,39.3L48.7,39.4L42.4,38.2L35.7,35.7L29.1,32.3L22.9,28.3L17.6,24.2L13.2,20.4L10.0,17.3L7.9,15.4L6.7,15.0L6.2,16.2L6.2,19.0L6.3,23.5L6.2,29.3L5.7,36.0L4.5,43.2L2.6,50.4L0.0,57.0L-3.3,62.5L-7.0,66.6L-10.9,68.8L-14.7,69.0L-18.0,67.3L-20.7,63.7L-22.4,58.5L-23.2,52.1L-22.9,45.0L-21.7,37.6L-19.9,30.6L-17.6,24.2L-15.3,18.9L-13.4,14.9L-12.2,12.2L-12.2,11.0L-13.4,10.9L-16.2,11.8L-20.4,13.2L-25.9,15.0L-32.5,16.6L-39.7,17.7L-47.1,18.1L-54.2,17.6L-60.5,16.2L-65.5,13.9L-68.8,10.9L-70.2,7.4L-69.5,3.6L-66.9,0.0L-62.5,-3.3L-56.7,-6.0L-49.9,-7.9L-42.5,-9.0L-35.2,-9.4L-28.5,-9.2L-22.7,-8.7L-18.3,-8.1L-15.4,-7.9L-14.2,-8.2L-14.5,-9.4L-16.2,-11.8L-18.9,-15.3L-22.2,-20.0L-25.8,-25.8L-29.1,-32.3L-31.8,-39.2L-33.5,-46.1L-34.1,-52.5L-33.5,-58.0L-31.6,-62.0L-28.7,-64.5L-25.0,-65.0L-20.7,-63.7L-16.2,-60.5L-11.9,-55.8L-7.9,-49.9L-4.5,-43.2L-1.9,-36.4L-0.0,-29.9L1.3,-24.3L2.1,-19.9L2.7,-17.1L3.4,-16.0L4.5,-16.7L6.2,-19.0L8.7,-22.7L12.2,-27.3L16.6,-32.5L21.7,-37.6L27.5,-42.3L33.5,-46.1L39.4,-48.7L44.8,-49.7L49.2,-49.2L52.4,-47.2L54.1,-43.8L54.1,-39.3L52.5,-34.1L49.4,-28.5L45.0,-22.9L39.7,-17.7L34.0,-13.1L28.5,-9.2L23.5,-6.3L19.6,-4.2L17.1,-2.7L16.3,-1.7L17.3,-0.9L20.0,-0.0Z" fill="none" stroke="#dee8c8" stroke-width="17.1" stroke-linecap="round" opacity="0.04" filter="url(#tg)"/><path d="M20.0,0.0L24.3,1.3L29.8,3.1L36.0,5.7L42.5,9.0L48.8,13.1L54.2,17.6L58.5,22.4L61.1,27.2L62.0,31.6L61.1,35.3L58.4,37.9L54.1,39.3L48.7,39.4L42.4,38.2L35.7,35.7L29.1,32.3L22.9,28.3L17.6,24.2L13.2,20.4L10.0,17.3L7.9,15.4L6.7,15.0L6.2,16.2L6.2,19.0L6.3,23.5L6.2,29.3L5.7,36.0L4.5,43.2L2.6,50.4L0.0,57.0L-3.3,62.5L-7.0,66.6L-10.9,68.8L-14.7,69.0L-18.0,67.3L-20.7,63.7L-22.4,58.5L-23.2,52.1L-22.9,45.0L-21.7,37.6L-19.9,30.6L-17.6,24.2L-15.3,18.9L-13.4,14.9L-12.2,12.2L-12.2,11.0L-13.4,10.9L-16.2,11.8L-20.4,13.2L-25.9,15.0L-32.5,16.6L-39.7,17.7L-47.1,18.1L-54.2,17.6L-60.5,16.2L-65.5,13.9L-68.8,10.9L-70.2,7.4L-69.5,3.6L-66.9,0.0L-62.5,-3.3L-56.7,-6.0L-49.9,-7.9L-42.5,-9.0L-35.2,-9.4L-28.5,-9.2L-22.7,-8.7L-18.3,-8.1L-15.4,-7.9L-14.2,-8.2L-14.5,-9.4L-16.2,-11.8L-18.9,-15.3L-22.2,-20.0L-25.8,-25.8L-29.1,-32.3L-31.8,-39.2L-33.5,-46.1L-34.1,-52.5L-33.5,-58.0L-31.6,-62.0L-28.7,-64.5L-25.0,-65.0L-20.7,-63.7L-16.2,-60.5L-11.9,-55.8L-7.9,-49.9L-4.5,-43.2L-1.9,-36.4L-0.0,-29.9L1.3,-24.3L2.1,-19.9L2.7,-17.1L3.4,-16.0L4.5,-16.7L6.2,-19.0L8.7,-22.7L12.2,-27.3L16.6,-32.5L21.7,-37.6L27.5,-42.3L33.5,-46.1L39.4,-48.7L44.8,-49.7L49.2,-49.2L52.4,-47.2L54.1,-43.8L54.1,-39.3L52.5,-34.1L49.4,-28.5L45.0,-22.9L39.7,-17.7L34.0,-13.1L28.5,-9.2L23.5,-6.3L19.6,-4.2L17.1,-2.7L16.3,-1.7L17.3,-0.9L20.0,-0.0Z" fill="none" stroke="#dee8c8" stroke-width="5.7" stroke-linecap="round" opacity="0.95"/><path d="M10.0,0.0L12.7,0.7L16.9,1.8L22.3,3.5L28.5,6.1L34.9,9.4L41.1,13.3L46.4,17.8L50.5,22.5L53.1,27.1L54.0,31.2L53.0,34.4L50.4,36.6L46.3,37.5L41.1,37.0L35.1,35.1L28.9,32.1L22.8,28.1L17.1,23.6L12.3,19.0L8.5,14.7L5.8,11.3L4.1,9.1L3.3,8.5L3.1,9.5L3.3,12.3L3.5,16.6L3.5,22.3L3.0,29.0L1.9,36.1L0.0,43.2L-2.6,49.6L-5.8,55.0L-9.3,58.9L-13.0,61.0L-16.4,61.1L-19.3,59.3L-21.4,55.7L-22.5,50.5L-22.6,44.3L-21.6,37.4L-19.7,30.3L-17.1,23.6L-14.2,17.6L-11.4,12.6L-9.0,9.0L-7.4,6.7L-7.1,5.7L-8.1,5.9L-10.7,6.9L-14.7,8.5L-20.2,10.3L-26.6,11.9L-33.8,13.0L-41.1,13.3L-48.0,12.9L-54.1,11.5L-58.9,9.3L-62.0,6.5L-63.2,3.3L-62.3,0.0L-59.5,-3.1L-55.0,-5.8L-49.1,-7.8L-42.2,-9.0L-34.9,-9.4L-27.7,-9.0L-21.1,-8.1L-15.5,-6.9L-11.3,-5.8L-8.7,-5.0L-7.6,-4.9L-8.1,-5.9L-9.9,-8.0L-12.6,-11.4L-16.0,-16.0L-19.5,-21.7L-22.8,-28.1L-25.4,-34.9L-27.1,-41.7L-27.7,-47.9L-27.1,-53.1L-25.4,-56.9L-22.7,-59.1L-19.3,-59.3L-15.4,-57.6L-11.5,-54.1L-7.8,-49.1L-4.5,-42.9L-1.9,-36.1L-0.0,-29.2L1.2,-22.6L1.8,-16.9L2.0,-12.5L2.1,-9.8L2.3,-8.8L3.1,-9.5L4.6,-11.9L6.9,-15.5L10.3,-20.2L14.6,-25.2L19.7,-30.3L25.4,-34.9L31.3,-38.6L37.0,-41.1L42.2,-42.2L46.3,-41.7L49.2,-39.8L50.4,-36.6L50.0,-32.5L47.9,-27.7L44.3,-22.6L39.4,-17.6L33.8,-13.0L27.7,-9.0L21.8,-5.9L16.6,-3.5L12.5,-2.0L9.9,-1.0L9.1,-0.5L10.0,-0.0Z" fill="none" stroke="#daebc5" stroke-width="17.1" stroke-linecap="round" opacity="0.04" filter="url(#tg)"/><path d="M10.0,0.0L12.7,0.7L16.9,1.8L22.3,3.5L28.5,6.1L34.9,9.4L41.1,13.3L46.4,17.8L50.5,22.5L53.1,27.1L54.0,31.2L53.0,34.4L50.4,36.6L46.3,37.5L41.1,37.0L35.1,35.1L28.9,32.1L22.8,28.1L17.1,23.6L12.3,19.0L8.5,14.7L5.8,11.3L4.1,9.1L3.3,8.5L3.1,9.5L3.3,12.3L3.5,16.6L3.5,22.3L3.0,29.0L1.9,36.1L0.0,43.2L-2.6,49.6L-5.8,55.0L-9.3,58.9L-13.0,61.0L-16.4,61.1L-19.3,59.3L-21.4,55.7L-22.5,50.5L-22.6,44.3L-21.6,37.4L-19.7,30.3L-17.1,23.6L-14.2,17.6L-11.4,12.6L-9.0,9.0L-7.4,6.7L-7.1,5.7L-8.1,5.9L-10.7,6.9L-14.7,8.5L-20.2,10.3L-26.6,11.9L-33.8,13.0L-41.1,13.3L-48.0,12.9L-54.1,11.5L-58.9,9.3L-62.0,6.5L-63.2,3.3L-62.3,0.0L-59.5,-3.1L-55.0,-5.8L-49.1,-7.8L-42.2,-9.0L-34.9,-9.4L-27.7,-9.0L-21.1,-8.1L-15.5,-6.9L-11.3,-5.8L-8.7,-5.0L-7.6,-4.9L-8.1,-5.9L-9.9,-8.0L-12.6,-11.4L-16.0,-16.0L-19.5,-21.7L-22.8,-28.1L-25.4,-34.9L-27.1,-41.7L-27.7,-47.9L-27.1,-53.1L-25.4,-56.9L-22.7,-59.1L-19.3,-59.3L-15.4,-57.6L-11.5,-54.1L-7.8,-49.1L-4.5,-42.9L-1.9,-36.1L-0.0,-29.2L1.2,-22.6L1.8,-16.9L2.0,-12.5L2.1,-9.8L2.3,-8.8L3.1,-9.5L4.6,-11.9L6.9,-15.5L10.3,-20.2L14.6,-25.2L19.7,-30.3L25.4,-34.9L31.3,-38.6L37.0,-41.1L42.2,-42.2L46.3,-41.7L49.2,-39.8L50.4,-36.6L50.0,-32.5L47.9,-27.7L44.3,-22.6L39.4,-17.6L33.8,-13.0L27.7,-9.0L21.8,-5.9L16.6,-3.5L12.5,-2.0L9.9,-1.0L9.1,-0.5L10.0,-0.0Z" fill="none" stroke="#daebc5" stroke-width="5.7" stroke-linecap="round" opacity="0.95"/><path d="M1.8,0.0L2.7,0.1L5.4,0.6L9.6,1.5L15.0,3.2L21.1,5.7L27.4,8.9L33.5,12.9L38.7,17.2L42.8,21.8L45.3,26.2L46.1,30.0L45.3,32.9L42.8,34.6L38.9,35.0L33.9,33.9L28.4,31.5L22.6,27.9L17.0,23.3L11.9,18.3L7.7,13.3L4.4,8.6L2.2,4.9L1.0,2.5L0.5,1.7L0.7,2.6L1.1,5.3L1.5,9.6L1.6,15.2L1.1,21.8L0.0,28.9L-1.9,35.8L-4.4,42.2L-7.5,47.4L-10.9,51.2L-14.2,53.1L-17.3,53.2L-19.7,51.4L-21.3,47.8L-21.8,42.8L-21.2,36.7L-19.5,30.1L-17.0,23.3L-13.7,17.0L-10.2,11.4L-6.9,6.9L-4.0,3.6L-2.1,1.7L-1.4,1.0L-2.3,1.5L-4.7,2.7L-8.6,4.4L-14.0,6.2L-20.4,7.8L-27.4,8.9L-34.6,9.3L-41.5,8.8L-47.4,7.5L-52.0,5.5L-54.9,2.9L-55.9,0.0L-54.9,-2.9L-52.0,-5.5L-47.4,-7.5L-41.5,-8.8L-34.6,-9.3L-27.4,-8.9L-20.4,-7.8L-14.0,-6.2L-8.6,-4.4L-4.7,-2.7L-2.3,-1.5L-1.4,-1.0L-2.1,-1.7L-4.0,-3.6L-6.9,-6.9L-10.2,-11.4L-13.7,-17.0L-17.0,-23.3L-19.5,-30.1L-21.2,-36.7L-21.8,-42.8L-21.3,-47.8L-19.7,-51.4L-17.3,-53.2L-14.2,-53.1L-10.9,-51.2L-7.5,-47.4L-4.4,-42.2L-1.9,-35.8L-0.0,-28.9L1.1,-21.8L1.6,-15.2L1.5,-9.6L1.1,-5.3L0.7,-2.6L0.5,-1.7L1.0,-2.5L2.2,-4.9L4.4,-8.6L7.7,-13.3L11.9,-18.3L17.0,-23.3L22.6,-27.9L28.4,-31.5L33.9,-33.9L38.9,-35.0L42.8,-34.6L45.3,-32.9L46.1,-30.0L45.3,-26.2L42.8,-21.8L38.7,-17.2L33.5,-12.9L27.4,-8.9L21.1,-5.7L15.0,-3.2L9.6,-1.5L5.4,-0.6L2.7,-0.1L1.8,-0.0Z" fill="none" stroke="#d7edc2" stroke-width="17.1" stroke-linecap="round" opacity="0.04" filter="url(#tg)"/><path d="M1.8,0.0L2.7,0.1L5.4,0.6L9.6,1.5L15.0,3.2L21.1,5.7L27.4,8.9L33.5,12.9L38.7,17.2L42.8,21.8L45.3,26.2L46.1,30.0L45.3,32.9L42.8,34.6L38.9,35.0L33.9,33.9L28.4,31.5L22.6,27.9L17.0,23.3L11.9,18.3L7.7,13.3L4.4,8.6L2.2,4.9L1.0,2.5L0.5,1.7L0.7,2.6L1.1,5.3L1.5,9.6L1.6,15.2L1.1,21.8L0.0,28.9L-1.9,35.8L-4.4,42.2L-7.5,47.4L-10.9,51.2L-14.2,53.1L-17.3,53.2L-19.7,51.4L-21.3,47.8L-21.8,42.8L-21.2,36.7L-19.5,30.1L-17.0,23.3L-13.7,17.0L-10.2,11.4L-6.9,6.9L-4.0,3.6L-2.1,1.7L-1.4,1.0L-2.3,1.5L-4.7,2.7L-8.6,4.4L-14.0,6.2L-20.4,7.8L-27.4,8.9L-34.6,9.3L-41.5,8.8L-47.4,7.5L-52.0,5.5L-54.9,2.9L-55.9,0.0L-54.9,-2.9L-52.0,-5.5L-47.4,-7.5L-41.5,-8.8L-34.6,-9.3L-27.4,-8.9L-20.4,-7.8L-14.0,-6.2L-8.6,-4.4L-4.7,-2.7L-2.3,-1.5L-1.4,-1.0L-2.1,-1.7L-4.0,-3.6L-6.9,-6.9L-10.2,-11.4L-13.7,-17.0L-17.0,-23.3L-19.5,-30.1L-21.2,-36.7L-21.8,-42.8L-21.3,-47.8L-19.7,-51.4L-17.3,-53.2L-14.2,-53.1L-10.9,-51.2L-7.5,-47.4L-4.4,-42.2L-1.9,-35.8L-0.0,-28.9L1.1,-21.8L1.6,-15.2L1.5,-9.6L1.1,-5.3L0.7,-2.6L0.5,-1.7L1.0,-2.5L2.2,-4.9L4.4,-8.6L7.7,-13.3L11.9,-18.3L17.0,-23.3L22.6,-27.9L28.4,-31.5L33.9,-33.9L38.9,-35.0L42.8,-34.6L45.3,-32.9L46.1,-30.0L45.3,-26.2L42.8,-21.8L38.7,-17.2L33.5,-12.9L27.4,-8.9L21.1,-5.7L15.0,-3.2L9.6,-1.5L5.4,-0.6L2.7,-0.1L1.8,-0.0Z" fill="none" stroke="#d7edc2" stroke-width="5.7" stroke-linecap="round" opacity="0.95"/>
</svg>