<svg xmlns="http://www.w3.org/2000/svg" viewBox="-250 -250 500 500">
<defs><filter id="tg"><feGaussianBlur stdDeviation="8.0"/></filter></defs>
<rect x="-250" y="-250" width="500" height="500" fill="#9f4422"/>
<path d="M129.8,0.0L128.6,6.7L125.2,13.2L119.8,19.0L112.8,24.0L104.6,28.0L95.9,31.1L87.1,33.4L78.8,35.1L71.6,36.5L65.6,37.9L61.1,39.7L58.1,42.2L56.6,45.8L56.3,50.7L56.8,56.8L57.8,64.1L58.7,72.5L59.2,81.5L59.0,90.8L57.6,99.8L55.1,108.1L51.2,115.0L46.2,120.2L40.1,123.4L33.3,124.4L26.2,123.1L19.0,119.8L12.1,114.7L5.7,108.2L0.0,100.8L-4.9,93.2L-9.0,85.8L-12.6,79.3L-15.7,74.0L-18.8,70.3L-22.2,68.3L-26.1,68.0L-30.8,69.2L-36.5,71.6L-43.2,74.7L-50.8,78.2L-59.2,81.5L-68.2,84.2L-77.1,85.7L-85.8,85.8L-93.6,84.2L-100.1,81.1L-105.0,76.3L-108.0,70.1L-109.0,62.9L-108.1,55.1L-105.3,46.9L-101.1,38.8L-95.9,31.1L-90.1,24.1L-84.4,17.9L-79.3,12.6L-75.3,7.9L-72.7,3.8L-71.8,0.0L-72.7,-3.8L-75.3,-7.9L-79.3,-12.6L-84.4,-17.9L-90.1,-24.1L-95.9,-31.1L-101.1,-38.8L-105.3,-46.9L-108.1,-55.1L-109.0,-62.9L-108.0,-70.1L-105.0,-76.3L-100.1,-81.1L-93.6,-84.2L-85.8,-85.8L-77.1,-85.7L-68.2,-84.2L-59.2,-81.5L-50.8,-78.2L-43.2,-74.7L-36.5,-71.6L-30.8,-69.2L-26.1,-68.0L-22.2,-68.3L-18.8,-70.3L-15.7,-74.0L-12.6,-79.3L-9.0,-85.8L-4.9,-93.2L-0.0,-100.8L5.7,-108.2L12.1,-114.7L19.0,-119.8L26.2,-123.1L33.3,-124.4L40.1,-123.4L46.2,-120.2L51.2,-115.0L55.1,-108.1L57.6,-99.8L59.0,-90.8L59.2,-81.5L58.7,-72.5L57.8,-64.1L56.8,-56.8L56.3,-50.7L56.6,-45.8L58.1,-42.2L61.1,-39.7L65.6,-37.9L71.6,-36.5L78.8,-35.1L87.1,-33.4L95.9,-31.1L104.6,-28.0L112.8,-24.0L119.8,-19.0L125.2,-13.2L128.6,-6.7L129.8,-0.0Z" fill="none" stroke="#e3d4fc" stroke-width="3" stroke-linecap="round" opacity="0.20" filter="url(#tg)"/><path d="M129.8,0.0L128.6,6.7L125.2,13.2L119.8,19.0L112.8,24.0L104.6,28.0L95.9,31.1L87.1,33.4L78.8,35.1L71.6,36.5L65.6,37.9L61.1,39.7L58.1,42.2L56.6,45.8L56.3,50.7L56.8,56.8L57.8,64.1L58.7,72.5L59.2,81.5L59.0,90.8L57.6,99.8L55.1,108.1L51.2,115.0L46.2,120.2L40.1,123.4L33.3,124.4L26.2,123.1L19.0,119.8L12.1,114.7L5.7,108.2L0.0,100.8L-4.9,93.2L-9.0,85.8L-12.6,79.3L-15.7,74.0L-18.8,70.3L-22.2,68.3L-26.1,68.0L-30.8,69.2L-36.5,71.6L-43.2,74.7L-50.8,78.2L-59.2,81.5L-68.2,84.2L-77.1,85.7L-85.8,85.8L-93.6,84.2L-100.1,81.1L-105.0,76.3L-108.0,70.1L-109.0,62.9L-108.1,55.1L-105.3,46.9L-101.1,38.8L-95.9,31.1L-90.1,24.1L-84.4,17.9L-79.3,12.6L-75.3,7.9L-72.7,3.8L-71.8,0.0L-72.7,-3.8L-75.3,-7.9L-79.3,-12.6L-84.4,-17.9L-90.1,-24.1L-95.9,-31.1L-101.1,-38.8L-105.3,-46.9L-108.1,-55.1L-109.0,-62.9L-108.0,-70.1L-105.0,-76.3L-100.1,-81.1L-93.6,-84.2L-85.8,-85.8L-77.1,-85.7L-68.2,-84.2L-59.2,-81.5L-50.8,-78.2L-43.2,-74.7L-36.5,-71.6L-30.8,-69.2L-26.1,-68.0L-22.2,-68.3L-18.8,-70.3L-15.7,-74.0L-12.6,-79.3L-9.0,-85.8L-4.9,-93.2L-0.0,-100.8L5.7,-108.2L12.1,-114.7L19.0,-119.8L26.2,-123.1L33.3,-124.4L40.1,-123.4L46.2,-120.2L51.2,-115.0L55.1,-108.1L57.6,-99.8L59.0,-90.8L59.2,-81.5L58.7,-72.5L57.8,-64.1L56.8,-56.8L56.3,-50.7L56.6,-45.8L58.1,-42.2L61.1,-39.7L65.6,-37.9L71.6,-36.5L78.8,-35.1L87.1,-33.4L95.9,-31.1L104.6,-28.0L112.8,-24.0L119.8,-19.0L125.2,-13.2L128.6,-6.7L129.8,-0.0Z" fill="none" stroke="#e3d4fc" stroke-width="1" stroke-linecap="round" opacity="0.95"/><path d="M120.7,0.0L122.2,6.4L121.4,12.8L118.3,18.7L113.2,24.1L106.4,28.5L98.3,32.0L89.6,34.4L80.8,36.0L72.4,36.9L64.8,37.4L58.5,38.0L53.6,38.9L50.2,40.7L48.3,43.5L47.5,47.5L47.7,53.0L48.4,59.7L49.1,67.6L49.5,76.3L49.3,85.3L48.0,94.2L45.6,102.4L42.0,109.4L37.3,114.8L31.7,118.2L25.4,119.4L18.7,118.3L12.1,115.1L5.8,110.0L0.0,103.4L-5.0,95.9L-9.2,88.0L-12.7,80.2L-15.6,73.2L-18.1,67.4L-20.5,63.0L-23.2,60.3L-26.4,59.3L-30.5,59.9L-35.6,61.7L-41.9,64.5L-49.1,67.6L-57.2,70.7L-65.9,73.2L-74.8,74.8L-83.3,75.0L-91.1,73.8L-97.7,71.0L-102.6,66.6L-105.7,61.0L-106.7,54.4L-105.7,47.1L-102.8,39.5L-98.3,32.0L-92.7,24.9L-86.5,18.4L-80.2,12.7L-74.5,7.8L-69.7,3.7L-66.3,0.0L-64.5,-3.4L-64.6,-6.8L-66.4,-10.5L-69.7,-14.8L-74.3,-19.9L-79.5,-25.8L-84.9,-32.6L-90.0,-40.1L-94.2,-48.0L-97.1,-56.1L-98.3,-63.8L-97.7,-71.0L-95.1,-77.0L-90.7,-81.7L-84.7,-84.7L-77.4,-86.0L-69.3,-85.6L-60.8,-83.7L-52.3,-80.5L-44.2,-76.6L-36.9,-72.4L-30.4,-68.4L-25.0,-65.1L-20.5,-63.0L-16.7,-62.4L-13.5,-63.5L-10.5,-66.4L-7.5,-70.9L-4.0,-76.8L-0.0,-83.6L4.8,-90.8L10.3,-98.0L16.5,-104.4L23.3,-109.7L30.3,-113.2L37.3,-114.8L43.9,-114.2L49.6,-111.5L54.4,-106.7L57.8,-100.2L60.0,-92.3L60.8,-83.7L60.4,-74.6L59.2,-65.7L57.4,-57.4L55.6,-50.1L54.2,-43.9L53.6,-38.9L54.2,-35.2L56.3,-32.5L59.9,-30.5L65.1,-29.0L71.8,-27.5L79.5,-25.8L87.9,-23.5L96.4,-20.5L104.4,-16.5L111.5,-11.7L117.1,-6.1L120.7,-0.0Z" fill="none" stroke="#e7e4f8" stroke-width="3" stroke-linecap="round" opacity="0.20" filter="url(#tg)"/><path d="M120.7,0.0L122.2,6.4L121.4,12.8L118.3,18.7L113.2,24.1L106.4,28.5L98.3,32.0L89.6,34.4L80.8,36.0L72.4,36.9L64.8,37.4L58.5,38.0L53.6,38.9L50.2,40.7L48.3,43.5L47.5,47.5L47.7,53.0L48.4,59.7L49.1,67.6L49.5,76.3L49.3,85.3L48.0,94.2L45.6,102.4L42.0,109.4L37.3,114.8L31.7,118.2L25.4,119.4L18.7,118.3L12.1,115.1L5.8,110.0L0.0,103.4L-5.0,95.9L-9.2,88.0L-12.7,80.2L-15.6,73.2L-18.1,67.4L-20.5,63.0L-23.2,60.3L-26.4,59.3L-30.5,59.9L-35.6,61.7L-41.9,64.5L-49.1,67.6L-57.2,70.7L-65.9,73.2L-74.8,74.8L-83.3,75.0L-91.1,73.8L-97.7,71.0L-102.6,66.6L-105.7,61.0L-106.7,54.4L-105.7,47.1L-102.8,39.5L-98.3,32.0L-92.7,24.9L-86.5,18.4L-80.2,12.7L-74.5,7.8L-69.7,3.7L-66.3,0.0L-64.5,-3.4L-64.6,-6.8L-66.4,-10.5L-69.7,-14.8L-74.3,-19.9L-79.5,-25.8L-84.9,-32.6L-90.0,-40.1L-94.2,-48.0L-97.1,-56.1L-98.3,-63.8L-97.7,-71.0L-95.1,-77.0L-90.7,-81.7L-84.7,-84.7L-77.4,-86.0L-69.3,-85.6L-60.8,-83.7L-52.3,-80.5L-44.2,-76.6L-36.9,-72.4L-30.4,-68.4L-25.0,-65.1L-20.5,-63.0L-16.7,-62.4L-13.5,-63.5L-10.5,-66.4L-7.5,-70.9L-4.0,-76.8L-0.0,-83.6L4.8,-90.8L10.3,-98.0L16.5,-104.4L23.3,-109.7L30.3,-113.2L37.3,-114.8L43.9,-114.2L49.6,-111.5L54.4,-106.7L57.8,-100.2L60.0,-92.3L60.8,-83.7L60.4,-74.6L59.2,-65.7L57.4,-57.4L55.6,-50.1L54.2,-43.9L53.6,-38.9L54.2,-35.2L56.3,-32.5L59.9,-30.5L65.1,-29.0L71.8,-27.5L79.5,-25.8L87.9,-23.5L96.4,-20.5L104.4,-16.5L111.5,-11.7L117.1,-6.1L120.7,-0.0Z" fill="none" stroke="#e7e4f8" stroke-width="1" stroke-linecap="round" opacity="0.95"/><path d="M108.4,0.0L112.3,5.9L114.1,12.0L113.6,18.0L110.9,23.6L106.2,28.5L99.7,32.4L91.9,35.3L83.3,37.1L74.5,38.0L66.1,38.1L58.3,37.9L51.8,37.6L46.6,37.7L42.8,38.6L40.5,40.5L39.4,43.8L39.3,48.5L39.7,54.7L40.3,62.0L40.6,70.3L40.3,79.0L39.1,87.8L36.8,96.0L33.5,103.1L29.1,108.6L23.9,112.2L18.0,113.6L11.9,112.8L5.8,109.8L0.0,104.8L-5.2,98.3L-9.5,90.7L-13.1,82.6L-15.9,74.6L-18.0,67.2L-19.8,60.9L-21.5,55.9L-23.4,52.7L-26.0,51.1L-29.5,51.1L-34.0,52.4L-39.7,54.7L-46.5,57.5L-54.3,60.3L-62.7,62.7L-71.4,64.3L-79.9,64.7L-87.7,63.7L-94.3,61.2L-99.4,57.4L-102.5,52.2L-103.6,46.1L-102.6,39.4L-99.7,32.4L-95.1,25.5L-89.2,19.0L-82.6,13.1L-75.9,8.0L-69.5,3.6L-64.0,0.0L-59.8,-3.1L-57.3,-6.0L-56.6,-9.0L-57.7,-12.3L-60.3,-16.2L-64.2,-20.9L-69.0,-26.5L-74.1,-33.0L-79.0,-40.3L-83.2,-48.0L-86.2,-56.0L-87.7,-63.7L-87.4,-70.8L-85.3,-76.8L-81.4,-81.4L-75.9,-84.3L-69.2,-85.4L-61.6,-84.8L-53.6,-82.6L-45.6,-79.0L-38.0,-74.5L-31.0,-69.7L-24.9,-64.9L-19.8,-60.9L-15.5,-57.9L-12.0,-56.4L-9.0,-56.6L-6.2,-58.6L-3.3,-62.4L-0.0,-67.6L3.9,-73.8L8.5,-80.7L13.9,-87.6L20.0,-94.0L26.6,-99.3L33.5,-103.1L40.3,-105.0L46.7,-104.8L52.2,-102.5L56.7,-98.2L59.9,-92.2L61.6,-84.8L61.9,-76.5L61.0,-67.8L59.2,-59.2L56.7,-51.0L54.1,-43.8L51.8,-37.6L50.3,-32.6L49.9,-28.8L51.1,-26.0L53.9,-24.0L58.3,-22.4L64.2,-20.9L71.4,-19.1L79.4,-16.9L87.6,-13.9L95.6,-10.0L102.7,-5.4L108.4,-0.0Z" fill="none" stroke="#e3d4fc" stroke-width="3" stroke-linecap="round" opacity="0.20" filter="url(#tg)"/><path d="M108.4,0.0L112.3,5.9L114.1,12.0L113.6,18.0L110.9,23.6L106.2,28.5L99.7,32.4L91.9,35.3L83.3,37.1L74.5,38.0L66.1,38.1L58.3,37.9L51.8,37.6L46.6,37.7L42.8,38.6L40.5,40.5L39.4,43.8L39.3,48.5L39.7,54.7L40.3,62.0L40.6,70.3L40.3,79.0L39.1,87.8L36.8,96.0L33.5,103.1L29.1,108.6L23.9,112.2L18.0,113.6L11.9,112.8L5.8,109.8L0.0,104.8L-5.2,98.3L-9.5,90.7L-13.1,82.6L-15.9,74.6L-18.0,67.2L-19.8,60.9L-21.5,55.9L-23.4,52.7L-26.0,51.1L-29.5,51.1L-34.0,52.4L-39.7,54.7L-46.5,57.5L-54.3,60.3L-62.7,62.7L-71.4,64.3L-79.9,64.7L-87.7,63.7L-94.3,61.2L-99.4,57.4L-102.5,52.2L-103.6,46.1L-102.6,39.4L-99.7,32.4L-95.1,25.5L-89.2,19.0L-82.6,13.1L-75.9,8.0L-69.5,3.6L-64.0,0.0L-59.8,-3.1L-57.3,-6.0L-56.6,-9.0L-57.7,-12.3L-60.3,-16.2L-64.2,-20.9L-69.0,-26.5L-74.1,-33.0L-79.0,-40.3L-83.2,-48.0L-86.2,-56.0L-87.7,-63.7L-87.4,-70.8L-85.3,-76.8L-81.4,-81.4L-75.9,-84.3L-69.2,-85.4L-61.6,-84.8L-53.6,-82.6L-45.6,-79.0L-38.0,-74.5L-31.0,-69.7L-24.9,-64.9L-19.8,-60.9L-15.5,-57.9L-12.0,-56.4L-9.0,-56.6L-6.2,-58.6L-3.3,-62.4L-0.0,-67.6L3.9,-73.8L8.5,-80.7L13.9,-87.6L20.0,-94.0L26.6,-99.3L33.5,-103.1L40.3,-105.0L46.7,-104.8L52.2,-102.5L56.7,-98.2L59.9,-92.2L61.6,-84.8L61.9,-76.5L61.0,-67.8L59.2,-59.2L56.7,-51.0L54.1,-43.8L51.8,-37.6L50.3,-32.6L49.9,-28.8L51.1,-26.0L53.9,-24.0L58.3,-22.4L64.2,-20.9L71.4,-19.1L79.4,-16.9L87.6,-13.9L95.6,-10.0L102.7,-5.4L108.4,-0.0Z" fill="none" stroke="#e3d4fc" stroke-width="1" stroke-linecap="round" opacity="0.95"/><path d="M93.4,0.0L99.2,5.2L103.4,10.9L105.6,16.7L105.5,22.4L103.2,27.7L98.9,32.1L92.8,35.6L85.3,38.0L77.0,39.2L68.3,39.4L59.9,38.9L52.1,37.8L45.4,36.7L40.0,36.0L36.0,36.0L33.4,37.1L32.0,39.5L31.6,43.5L31.8,49.0L32.2,55.8L32.4,63.6L32.1,72.1L31.0,80.6L28.9,88.8L25.7,96.0L21.6,101.7L16.7,105.6L11.3,107.3L5.6,106.7L0.0,104.0L-5.2,99.2L-9.8,92.9L-13.5,85.3L-16.4,77.2L-18.5,68.9L-19.9,61.2L-20.9,54.5L-21.9,49.1L-23.1,45.3L-24.9,43.2L-27.7,42.7L-31.6,43.5L-36.7,45.4L-43.1,47.8L-50.5,50.5L-58.6,52.8L-67.1,54.4L-75.5,54.9L-83.3,54.1L-90.0,52.0L-95.2,48.5L-98.5,43.9L-99.8,38.3L-98.9,32.1L-96.0,25.7L-91.3,19.4L-85.3,13.5L-78.4,8.2L-71.3,3.7L-64.4,0.0L-58.3,-3.1L-53.5,-5.6L-50.3,-8.0L-48.8,-10.4L-49.1,-13.2L-51.1,-16.6L-54.5,-20.9L-58.8,-26.2L-63.6,-32.4L-68.3,-39.4L-72.4,-47.0L-75.5,-54.9L-77.2,-62.5L-77.3,-69.6L-75.6,-75.6L-72.2,-80.2L-67.3,-83.1L-61.1,-84.1L-54.1,-83.3L-46.7,-80.9L-39.2,-77.0L-32.1,-72.1L-25.6,-66.6L-19.9,-61.2L-15.1,-56.4L-11.2,-52.6L-8.0,-50.3L-5.2,-49.6L-2.7,-50.8L-0.0,-53.8L3.1,-58.3L6.7,-64.0L11.2,-70.5L16.4,-77.2L22.4,-83.4L28.9,-88.8L35.6,-92.8L42.3,-95.0L48.5,-95.2L53.9,-93.4L58.2,-89.6L61.1,-84.1L62.5,-77.2L62.5,-69.4L61.1,-61.1L58.6,-52.8L55.5,-44.9L52.1,-37.8L49.0,-31.8L46.6,-26.9L45.3,-23.1L45.6,-20.3L47.5,-18.2L51.1,-16.6L56.4,-15.1L63.0,-13.4L70.5,-11.2L78.4,-8.2L86.3,-4.5L93.4,-0.0Z" fill="none" stroke="#e7e4f8" stroke-width="3" stroke-linecap="round" opacity="0.20" filter="url(#tg)"/><path d="M93.4,0.0L99.2,5.2L103.4,10.9L105.6,16.7L105.5,22.4L103.2,27.7L98.9,32.1L92.8,35.6L85.3,38.0L77.0,39.2L68.3,39.4L59.9,38.9L52.1,37.8L45.4,36.7L40.0,36.0L36.0,36.0L33.4,37.1L32.0,39.5L31.6,43.5L31.8,49.0L32.2,55.8L32.4,63.6L32.1,72.1L31.0,80.6L28.9,88.8L25.7,96.0L21.6,101.7L16.7,105.6L11.3,107.3L5.6,106.7L0.0,104.0L-5.2,99.2L-9.8,92.9L-13.5,85.3L-16.4,77.2L-18.5,68.9L-19.9,61.2L-20.9,54.5L-21.9,49.1L-23.1,45.3L-24.9,43.2L-27.7,42.7L-31.6,43.5L-36.7,45.4L-43.1,47.8L-50.5,50.5L-58.6,52.8L-67.1,54.4L-75.5,54.9L-83.3,54.1L-90.0,52.0L-95.2,48.5L-98.5,43.9L-99.8,38.3L-98.9,32.1L-96.0,25.7L-91.3,19.4L-85.3,13.5L-78.4,8.2L-71.3,3.7L-64.4,0.0L-58.3,-3.1L-53.5,-5.6L-50.3,-8.0L-48.8,-10.4L-49.1,-13.2L-51.1,-16.6L-54.5,-20.9L-58.8,-26.2L-63.6,-32.4L-68.3,-39.4L-72.4,-47.0L-75.5,-54.9L-77.2,-62.5L-77.3,-69.6L-75.6,-75.6L-72.2,-80.2L-67.3,-83.1L-61.1,-84.1L-54.1,-83.3L-46.7,-80.9L-39.2,-77.0L-32.1,-72.1L-25.6,-66.6L-19.9,-61.2L-15.1,-56.4L-11.2,-52.6L-8.0,-50.3L-5.2,-49.6L-2.7,-50.8L-0.0,-53.8L3.1,-58.3L6.7,-64.0L11.2,-70.5L16.4,-77.2L22.4,-83.4L28.9,-88.8L35.6,-92.8L42.3,-95.0L48.5,-95.2L53.9,-93.4L58.2,-89.6L61.1,-84.1L62.5,-77.2L62.5,-69.4L61.1,-61.1L58.6,-52.8L55.5,-44.9L52.1,-37.8L49.0,-31.8L46.6,-26.9L45.3,-23.1L45.6,-20.3L47.5,-18.2L51.1,-16.6L56.4,-15.1L63.0,-13.4L70.5,-11.2L78.4,-8.2L86.3,-4.5L93.4,-0.0Z" fill="none" stroke="#e7e4f8" stroke-width="1" stroke-linecap="round" opacity="0.95"/><path d="M76.6,0.0L83.7,4.4L89.7,9.4L94.1,14.9L96.6,20.5L97.0,26.0L95.2,30.9L91.3,35.1L85.7,38.1L78.6,40.0L70.6,40.7L62.1,40.4L53.8,39.1L46.1,37.3L39.3,35.4L33.8,33.8L29.7,32.9L26.9,33.2L25.3,34.8L24.7,38.0L24.7,42.8L24.9,49.0L25.1,56.3L24.7,64.5L23.7,72.9L21.7,81.0L18.8,88.2L14.9,94.1L10.3,98.3L5.3,100.3L0.0,100.1L-5.1,97.7L-9.8,93.3L-13.8,87.1L-16.9,79.7L-19.2,71.6L-20.6,63.3L-21.3,55.4L-21.5,48.4L-21.7,42.6L-22.2,38.4L-23.3,35.8L-25.3,34.8L-28.5,35.2L-33.0,36.7L-38.9,38.9L-45.8,41.3L-53.7,43.4L-62.0,45.0L-70.3,45.6L-78.1,45.1L-84.9,43.3L-90.3,40.2L-93.8,36.0L-95.2,30.9L-94.5,25.3L-91.7,19.5L-87.1,13.8L-81.0,8.5L-74.0,3.9L-66.5,0.0L-59.2,-3.1L-52.7,-5.5L-47.2,-7.5L-43.4,-9.2L-41.2,-11.1L-40.9,-13.3L-42.3,-16.2L-45.1,-20.1L-49.0,-24.9L-53.4,-30.8L-57.9,-37.6L-62.0,-45.0L-65.1,-52.7L-67.0,-60.4L-67.4,-67.4L-66.1,-73.4L-63.2,-78.1L-58.8,-81.0L-53.3,-82.0L-46.9,-81.2L-40.0,-78.6L-33.1,-74.4L-26.6,-69.2L-20.6,-63.3L-15.4,-57.3L-11.0,-51.8L-7.5,-47.2L-4.6,-44.1L-2.2,-42.6L-0.0,-43.0L2.4,-45.2L5.2,-49.1L8.6,-54.3L12.8,-60.3L17.9,-66.7L23.7,-72.9L30.0,-78.2L36.7,-82.4L43.3,-84.9L49.4,-85.6L54.7,-84.2L58.8,-81.0L61.6,-76.0L62.7,-69.7L62.4,-62.4L60.6,-54.5L57.6,-46.6L53.8,-39.1L49.8,-32.3L45.8,-26.5L42.6,-21.7L40.5,-18.0L39.9,-15.3L40.9,-13.3L43.8,-11.7L48.3,-10.3L54.3,-8.6L61.3,-6.4L68.9,-3.6L76.6,-0.0Z" fill="none" stroke="#e3d4fc" stroke-width="3" stroke-linecap="round" opacity="0.20" filter="url(#tg)"/><path d="M76.6,0.0L83.7,4.4L89.7,9.4L94.1,14.9L96.6,20.5L97.0,26.0L95.2,30.9L91.3,35.1L85.7,38.1L78.6,40.0L70.6,40.7L62.1,40.4L53.8,39.1L46.1,37.3L39.3,35.4L33.8,33.8L29.7,32.9L26.9,33.2L25.3,34.8L24.7,38.0L24.7,42.8L24.9,49.0L25.1,56.3L24.7,64.5L23.7,72.9L21.7,81.0L18.8,88.2L14.9,94.1L10.3,98.3L5.3,100.3L0.0,100.1L-5.1,97.7L-9.8,93.3L-13.8,87.1L-16.9,79.7L-19.2,71.6L-20.6,63.3L-21.3,55.4L-21.5,48.4L-21.7,42.6L-22.2,38.4L-23.3,35.8L-25.3,34.8L-28.5,35.2L-33.0,36.7L-38.9,38.9L-45.8,41.3L-53.7,43.4L-62.0,45.0L-70.3,45.6L-78.1,45.1L-84.9,43.3L-90.3,40.2L-93.8,36.0L-95.2,30.9L-94.5,25.3L-91.7,19.5L-87.1,13.8L-81.0,8.5L-74.0,3.9L-66.5,0.0L-59.2,-3.1L-52.7,-5.5L-47.2,-7.5L-43.4,-9.2L-41.2,-11.1L-40.9,-13.3L-42.3,-16.2L-45.1,-20.1L-49.0,-24.9L-53.4,-30.8L-57.9,-37.6L-62.0,-45.0L-65.1,-52.7L-67.0,-60.4L-67.4,-67.4L-66.1,-73.4L-63.2,-78.1L-58.8,-81.0L-53.3,-82.0L-46.9,-81.2L-40.0,-78.6L-33.1,-74.4L-26.6,-69.2L-20.6,-63.3L-15.4,-57.3L-11.0,-51.8L-7.5,-47.2L-4.6,-44.1L-2.2,-42.6L-0.0,-43.0L2.4,-45.2L5.2,-49.1L8.6,-54.3L12.8,-60.3L17.9,-66.7L23.7,-72.9L30.0,-78.2L36.7,-82.4L43.3,-84.9L49.4,-85.6L54.7,-84.2L58.8,-81.0L61.6,-76.0L62.7,-69.7L62.4,-62.4L60.6,-54.5L57.6,-46.6L53.8,-39.1L49.8,-32.3L45.8,-26.5L42.6,-21.7L40.5,-18.0L39.9,-15.3L40.9,-13.3L43.8,-11.7L48.3,-10.3L54.3,-8.6L61.3,-6.4L68.9,-3.6L76.6,-0.0Z" fill="none" stroke="#e3d4fc" stroke-width="1" stroke-linecap="round" opacity="0.95"/><path d="M59.2,0.0L66.7,3.5L73.8,7.8L79.9,12.7L84.6,18.0L87.4,23.4L88.3,28.7L86.9,33.4L83.6,37.2L78.4,40.0L71.8,41.4L64.2,41.7L56.1,40.7L48.0,38.9L40.4,36.4L33.7,33.7L28.1,31.3L23.9,29.5L21.0,28.9L19.3,29.7L18.5,32.1L18.4,36.1L18.6,41.7L18.6,48.6L18.3,56.3L17.3,64.5L15.4,72.6L12.7,79.9L9.0,86.0L4.7,90.4L0.0,92.8L-4.9,93.0L-9.6,91.0L-13.8,86.9L-17.2,81.1L-19.8,73.9L-21.4,65.9L-22.1,57.6L-22.1,49.6L-21.6,42.4L-21.0,36.4L-20.7,31.9L-21.0,28.9L-22.3,27.5L-24.8,27.5L-28.7,28.7L-33.9,30.5L-40.4,32.7L-47.9,34.8L-56.0,36.4L-64.2,37.1L-72.1,36.7L-79.0,35.2L-84.5,32.4L-88.3,28.7L-90.0,24.1L-89.5,19.0L-86.9,13.8L-82.4,8.7L-76.4,4.0L-69.3,0.0L-61.6,-3.2L-54.1,-5.7L-47.1,-7.5L-41.1,-8.7L-36.7,-9.8L-34.0,-11.0L-33.0,-12.7L-33.8,-15.1L-36.1,-18.4L-39.5,-22.8L-43.6,-28.3L-47.9,-34.8L-51.9,-42.0L-55.1,-49.6L-57.2,-57.2L-57.9,-64.3L-57.0,-70.4L-54.5,-75.1L-50.7,-78.1L-45.7,-79.2L-40.0,-78.4L-33.7,-75.7L-27.4,-71.4L-21.4,-65.9L-16.0,-59.6L-11.3,-53.2L-7.5,-47.1L-4.4,-41.8L-2.0,-37.9L-0.0,-35.7L1.9,-35.3L3.9,-36.8L6.3,-40.0L9.5,-44.6L13.5,-50.2L18.3,-56.3L23.9,-62.3L30.2,-67.8L36.7,-72.1L43.2,-74.9L49.3,-75.9L54.5,-75.1L58.6,-72.4L61.2,-68.0L62.2,-62.2L61.6,-55.5L59.5,-48.1L56.1,-40.7L51.8,-33.6L47.1,-27.2L42.4,-21.6L38.4,-17.1L35.5,-13.6L34.0,-11.0L34.2,-9.2L36.2,-7.7L40.0,-6.3L45.4,-4.8L51.9,-2.7L59.2,-0.0Z" fill="none" stroke="#e7e4f8" stroke-width="3" stroke-linecap="round" opacity="0.20" filter="url(#tg)"/><path d="M59.2,0.0L66.7,3.5L73.8,7.8L79.9,12.7L84.6,18.0L87.4,23.4L88.3,28.7L86.9,33.4L83.6,37.2L78.4,40.0L71.8,41.4L64.2,41.7L56.1,40.7L48.0,38.9L40.4,36.4L33.7,33.7L28.1,31.3L23.9,29.5L21.0,28.9L19.3,29.7L18.5,32.1L18.4,36.1L18.6,41.7L18.6,48.6L18.3,56.3L17.3,64.5L15.4,72.6L12.7,79.9L9.0,86.0L4.7,90.4L0.0,92.8L-4.9,93.0L-9.6,91.0L-13.8,86.9L-17.2,81.1L-19.8,73.9L-21.4,65.9L-22.1,57.6L-22.1,49.6L-21.6,42.4L-21.0,36.4L-20.7,31.9L-21.0,28.9L-22.3,27.5L-24.8,27.5L-28.7,28.7L-33.9,30.5L-40.4,32.7L-47.9,34.8L-56.0,36.4L-64.2,37.1L-72.1,36.7L-79.0,35.2L-84.5,32.4L-88.3,28.7L-90.0,24.1L-89.5,19.0L-86.9,13.8L-82.4,8.7L-76.4,4.0L-69.3,0.0L-61.6,-3.2L-54.1,-5.7L-47.1,-7.5L-41.1,-8.7L-36.7,-9.8L-34.0,-11.0L-33.0,-12.7L-33.8,-15.1L-36.1,-18.4L-39.5,-22.8L-43.6,-28.3L-47.9,-34.8L-51.9,-42.0L-55.1,-49.6L-57.2,-57.2L-57.9,-64.3L-57.0,-70.4L-54.5,-75.1L-50.7,-78.1L-45.7,-79.2L-40.0,-78.4L-33.7,-75.7L-27.4,-71.4L-21.4,-65.9L-16.0,-59.6L-11.3,-53.2L-7.5,-47.1L-4.4,-41.8L-2.0,-37.9L-0.0,-35.7L1.9,-35.3L3.9,-36.8L6.3,-40.0L9.5,-44.6L13.5,-50.2L18.3,-56.3L23.9,-62.3L30.2,-67.8L36.7,-72.1L43.2,-74.9L49.3,-75.9L54.5,-75.1L58.6,-72.4L61.2,-68.0L62.2,-62.2L61.6,-55.5L59.5,-48.1L56.1,-40.7L51.8,-33.6L47.1,-27.2L42.4,-21.6L38.4,-17.1L35.5,-13.6L34.0,-11.0L34.2,-9.2L36.2,-7.7L40.0,-6.3L45.4,-4.8L51.9,-2.7L59.2,-0.0Z" fill="none" stroke="#e7e4f8" stroke-width="1" stroke-linecap="round" opacity="0.95"/><path d="M42.5,0.0L49.4,2.6L56.6,6.0L63.7,10.1L69.9,14.9L74.8,20.0L78.0,25.4L79.3,30.4L78.5,35.0L75.7,38.6L71.1,41.0L64.9,42.2L57.8,42.0L50.1,40.6L42.3,38.1L35.0,35.0L28.4,31.6L22.9,28.3L18.7,25.8L15.8,24.3L14.0,24.2L13.1,25.8L13.0,29.1L13.1,34.0L13.1,40.4L12.8,47.8L11.8,55.7L10.1,63.7L7.5,71.1L4.1,77.3L0.0,82.0L-4.4,84.8L-9.0,85.5L-13.3,83.9L-17.1,80.3L-20.0,74.8L-22.1,67.9L-23.1,60.2L-23.2,52.0L-22.5,44.1L-21.2,36.8L-19.9,30.6L-18.7,25.8L-18.2,22.5L-18.7,20.8L-20.5,20.5L-23.7,21.3L-28.3,22.9L-34.4,25.0L-41.5,26.9L-49.3,28.5L-57.4,29.3L-65.3,29.1L-72.3,27.8L-78.0,25.4L-82.1,22.0L-84.1,17.9L-83.9,13.3L-81.6,8.6L-77.3,4.1L-71.4,0.0L-64.4,-3.4L-56.6,-6.0L-48.8,-7.7L-41.5,-8.8L-35.2,-9.4L-30.3,-9.8L-27.0,-10.4L-25.6,-11.4L-25.8,-13.1L-27.6,-15.9L-30.6,-19.9L-34.4,-25.0L-38.4,-31.1L-42.3,-38.1L-45.6,-45.6L-47.8,-53.1L-48.7,-60.2L-48.2,-66.4L-46.3,-71.2L-43.0,-74.4L-38.6,-75.7L-33.4,-75.0L-27.8,-72.3L-22.1,-67.9L-16.7,-62.3L-11.8,-55.7L-7.7,-48.8L-4.4,-42.2L-1.9,-36.4L-0.0,-31.9L1.5,-28.9L2.9,-27.8L4.5,-28.6L6.6,-31.2L9.4,-35.2L13.1,-40.4L17.7,-46.2L23.2,-52.0L29.3,-57.4L35.7,-61.9L42.2,-64.9L48.2,-66.4L53.5,-66.0L57.5,-63.9L60.1,-60.1L61.0,-54.9L60.2,-48.7L57.8,-42.0L54.1,-35.1L49.3,-28.5L44.1,-22.5L38.8,-17.3L34.0,-13.1L30.3,-9.8L28.0,-7.5L27.4,-5.8L28.6,-4.5L31.7,-3.3L36.4,-1.9L42.5,-0.0Z" fill="none" stroke="#e3d4fc" stroke-width="3" stroke-linecap="round" opacity="0.20" filter="url(#tg)"/><path d="M42.5,0.0L49.4,2.6L56.6,6.0L63.7,10.1L69.9,14.9L74.8,20.0L78.0,25.4L79.3,30.4L78.5,35.0L75.7,38.6L71.1,41.0L64.9,42.2L57.8,42.0L50.1,40.6L42.3,38.1L35.0,35.0L28.4,31.6L22.9,28.3L18.7,25.8L15.8,24.3L14.0,24.2L13.1,25.8L13.0,29.1L13.1,34.0L13.1,40.4L12.8,47.8L11.8,55.7L10.1,63.7L7.5,71.1L4.1,77.3L0.0,82.0L-4.4,84.8L-9.0,85.5L-13.3,83.9L-17.1,80.3L-20.0,74.8L-22.1,67.9L-23.1,60.2L-23.2,52.0L-22.5,44.1L-21.2,36.8L-19.9,30.6L-18.7,25.8L-18.2,22.5L-18.7,20.8L-20.5,20.5L-23.7,21.3L-28.3,22.9L-34.4,25.0L-41.5,26.9L-49.3,28.5L-57.4,29.3L-65.3,29.1L-72.3,27.8L-78.0,25.4L-82.1,22.0L-84.1,17.9L-83.9,13.3L-81.6,8.6L-77.3,4.1L-71.4,0.0L-64.4,-3.4L-56.6,-6.0L-48.8,-7.7L-41.5,-8.8L-35.2,-9.4L-30.3,-9.8L-27.0,-10.4L-25.6,-11.4L-25.8,-13.1L-27.6,-15.9L-30.6,-19.9L-34.4,-25.0L-38.4,-31.1L-42.3,-38.1L-45.6,-45.6L-47.8,-53.1L-48.7,-60.2L-48.2,-66.4L-46.3,-71.2L-43.0,-74.4L-38.6,-75.7L-33.4,-75.0L-27.8,-72.3L-22.1,-67.9L-16.7,-62.3L-11.8,-55.7L-7.7,-48.8L-4.4,-42.2L-1.9,-36.4L-0.0,-31.9L1.5,-28.9L2.9,-27.8L4.5,-28.6L6.6,-31.2L9.4,-35.2L13.1,-40.4L17.7,-46.2L23.2,-52.0L29.3,-57.4L35.7,-61.9L42.2,-64.9L48.2,-66.4L53.5,-66.0L57.5,-63.9L60.1,-60.1L61.0,-54.9L60.2,-48.7L57.8,-42.0L54.1,-35.1L49.3,-28.5L44.1,-22.5L38.8,-17.3L34.0,-13.1L30.3,-9.8L28.0,-7.5L27.4,-5.8L28.6,-4.5L31.7,-3.3L36.4,-1.9L42.5,-0.0Z" fill="none" stroke="#e3d4fc" stroke-width="1" stroke-linecap="round" opacity="0.95"/><path d="M27.4,0.0L33.0,1.7L39.5,4.2L46.5,7.4L53.5,11.4L59.8,16.0L64.9,21.1L68.5,26.3L70.2,31.3L70.0,35.6L67.7,39.1L63.7,41.3L58.1,42.2L51.5,41.7L44.3,39.9L36.9,36.9L29.9,33.2L23.5,29.1L18.2,25.1L14.1,21.7L11.2,19.4L9.4,18.5L8.6,19.3L8.4,21.8L8.5,26.1L8.5,31.9L8.3,38.9L7.4,46.5L5.7,54.4L3.2,61.8L0.0,68.3L-3.8,73.3L-8.0,76.5L-12.3,77.5L-16.3,76.5L-19.6,73.3L-22.2,68.3L-23.7,61.9L-24.2,54.4L-23.7,46.5L-22.3,38.6L-20.4,31.4L-18.2,25.1L-16.3,20.1L-15.0,16.7L-14.7,14.7L-15.7,14.1L-18.2,14.7L-22.2,16.1L-27.7,18.0L-34.4,19.9L-42.0,21.4L-49.9,22.2L-57.8,22.2L-64.9,21.1L-70.9,19.0L-75.2,16.0L-77.5,12.3L-77.8,8.2L-75.8,4.0L-71.8,0.0L-66.2,-3.5L-59.2,-6.2L-51.5,-8.2L-43.6,-9.3L-36.1,-9.7L-29.5,-9.6L-24.2,-9.3L-20.5,-9.1L-18.5,-9.4L-18.3,-10.6L-19.6,-12.7L-22.2,-16.1L-25.7,-20.8L-29.5,-26.6L-33.3,-33.3L-36.6,-40.6L-38.9,-48.1L-40.1,-55.2L-40.0,-61.5L-38.4,-66.6L-35.6,-70.0L-31.8,-71.4L-27.2,-70.9L-22.2,-68.3L-17.2,-64.0L-12.4,-58.3L-8.2,-51.5L-4.7,-44.4L-2.0,-37.3L-0.0,-31.0L1.4,-25.9L2.3,-22.3L3.2,-20.5L4.4,-20.6L6.1,-22.6L8.5,-26.1L11.8,-30.8L16.2,-36.3L21.4,-42.0L27.3,-47.4L33.7,-51.9L40.1,-55.2L46.2,-57.0L51.4,-57.1L55.5,-55.5L58.1,-52.3L59.0,-47.8L58.1,-42.2L55.6,-36.1L51.6,-29.8L46.5,-23.7L40.8,-18.1L34.9,-13.4L29.5,-9.6L25.0,-6.7L21.9,-4.7L20.5,-3.2L21.0,-2.2L23.3,-1.2L27.4,-0.0Z" fill="none" stroke="#e7e4f8" stroke-width="3" stroke-linecap="round" opacity="0.20" filter="url(#tg)"/><path d="M27.4,0.0L33.0,1.7L39.5,4.2L46.5,7.4L53.5,11.4L59.8,16.0L64.9,21.1L68.5,26.3L70.2,31.3L70.0,35.6L67.7,39.1L63.7,41.3L58.1,42.2L51.5,41.7L44.3,39.9L36.9,36.9L29.9,33.2L23.5,29.1L18.2,25.1L14.1,21.7L11.2,19.4L9.4,18.5L8.6,19.3L8.4,21.8L8.5,26.1L8.5,31.9L8.3,38.9L7.4,46.5L5.7,54.4L3.2,61.8L0.0,68.3L-3.8,73.3L-8.0,76.5L-12.3,77.5L-16.3,76.5L-19.6,73.3L-22.2,68.3L-23.7,61.9L-24.2,54.4L-23.7,46.5L-22.3,38.6L-20.4,31.4L-18.2,25.1L-16.3,20.1L-15.0,16.7L-14.7,14.7L-15.7,14.1L-18.2,14.7L-22.2,16.1L-27.7,18.0L-34.4,19.9L-42.0,21.4L-49.9,22.2L-57.8,22.2L-64.9,21.1L-70.9,19.0L-75.2,16.0L-77.5,12.3L-77.8,8.2L-75.8,4.0L-71.8,0.0L-66.2,-3.5L-59.2,-6.2L-51.5,-8.2L-43.6,-9.3L-36.1,-9.7L-29.5,-9.6L-24.2,-9.3L-20.5,-9.1L-18.5,-9.4L-18.3,-10.6L-19.6,-12.7L-22.2,-16.1L-25.7,-20.8L-29.5,-26.6L-33.3,-33.3L-36.6,-40.6L-38.9,-48.1L-40.1,-55.2L-40.0,-61.5L-38.4,-66.6L-35.6,-70.0L-31.8,-71.4L-27.2,-70.9L-22.2,-68.3L-17.2,-64.0L-12.4,-58.3L-8.2,-51.5L-4.7,-44.4L-2.0,-37.3L-0.0,-31.0L1.4,-25.9L2.3,-22.3L3.2,-20.5L4.4,-20.6L6.1,-22.6L8.5,-26.1L11.8,-30.8L16.2,-36.3L21.4,-42.0L27.3,-47.4L33.7,-51.9L40.1,-55.2L46.2,-57.0L51.4,-57.1L55.5,-55.5L58.1,-52.3L59.0,-47.8L58.1,-42.2L55.6,-36.1L51.6,-29.8L46.5,-23.7L40.8,-18.1L34.9,-13.4L29.5,-9.6L25.0,-6.7L21.9,-4.7L20.5,-3.2L21.0,-2.2L23.3,-1.2L27.4,-0.0Z" fill="none" stroke="#e7e4f8" stroke-width="1" stroke-linecap="round" opacity="0.95"/><path d="M15.1,0.0L18.6,1.0L23.6,2.5L29.7,4.7L36.5,7.8L43.3,11.6L49.7,16.1L55.0,21.1L59.0,26.2L61.1,31.1L61.4,35.4L59.7,38.8L56.3,40.9L51.3,41.6L45.3,40.8L38.6,38.6L31.7,35.2L25.1,30.9L19.1,26.2L14.0,21.6L10.1,17.4L7.3,14.3L5.6,12.6L4.8,12.6L4.7,14.4L4.8,18.0L4.9,23.2L4.7,29.7L3.9,37.1L2.3,44.8L0.0,52.2L-3.1,58.9L-6.7,64.2L-10.7,67.8L-14.7,69.3L-18.4,68.8L-21.5,66.2L-23.7,61.7L-24.8,55.7L-24.8,48.6L-23.7,41.0L-21.7,33.4L-19.1,26.2L-16.2,20.0L-13.5,15.0L-11.4,11.4L-10.3,9.2L-10.5,8.5L-12.2,8.9L-15.6,10.1L-20.5,11.9L-26.8,13.7L-34.1,15.2L-41.9,16.1L-49.7,16.1L-56.9,15.3L-63.1,13.4L-67.8,10.7L-70.5,7.4L-71.1,3.7L-69.6,0.0L-66.0,-3.5L-60.6,-6.4L-53.9,-8.5L-46.3,-9.8L-38.5,-10.3L-30.8,-10.0L-24.0,-9.2L-18.4,-8.2L-14.3,-7.3L-11.9,-6.9L-11.3,-7.3L-12.2,-8.9L-14.5,-11.7L-17.6,-15.9L-21.3,-21.3L-25.0,-27.7L-28.2,-34.9L-30.7,-42.3L-32.1,-49.4L-32.3,-55.9L-31.1,-61.1L-28.8,-64.7L-25.5,-66.5L-21.5,-66.2L-17.1,-63.8L-12.7,-59.6L-8.5,-53.9L-5.0,-47.1L-2.1,-39.8L-0.0,-32.4L1.3,-25.7L2.1,-20.0L2.5,-15.9L2.9,-13.5L3.5,-13.0L4.7,-14.4L6.7,-17.4L9.6,-21.7L13.7,-26.8L18.7,-32.3L24.4,-37.6L30.7,-42.3L37.1,-45.8L43.2,-48.0L48.5,-48.5L52.7,-47.4L55.3,-44.8L56.3,-40.9L55.4,-36.0L52.8,-30.5L48.6,-24.8L43.3,-19.3L37.2,-14.3L30.8,-10.0L24.8,-6.7L19.7,-4.2L15.9,-2.5L13.7,-1.4L13.4,-0.7L15.1,-0.0Z" fill="none" stroke="#e3d4fc" stroke-width="3" stroke-linecap="round" opacity="0.20" filter="url(#tg)"/><path d="M15.1,0.0L18.6,1.0L23.6,2.5L29.7,4.7L36.5,7.8L43.3,11.6L49.7,16.1L55.0,21.1L59.0,26.2L61.1,31.1L61.4,35.4L59.7,38.8L56.3,40.9L51.3,41.6L45.3,40.8L38.6,38.6L31.7,35.2L25.1,30.9L19.1,26.2L14.0,21.6L10.1,17.4L7.3,14.3L5.6,12.6L4.8,12.6L4.7,14.4L4.8,18.0L4.9,23.2L4.7,29.7L3.9,37.1L2.3,44.8L0.0,52.2L-3.1,58.9L-6.7,64.2L-10.7,67.8L-14.7,69.3L-18.4,68.8L-21.5,66.2L-23.7,61.7L-24.8,55.7L-24.8,48.6L-23.7,41.0L-21.7,33.4L-19.1,26.2L-16.2,20.0L-13.5,15.0L-11.4,11.4L-10.3,9.2L-10.5,8.5L-12.2,8.9L-15.6,10.1L-20.5,11.9L-26.8,13.7L-34.1,15.2L-41.9,16.1L-49.7,16.1L-56.9,15.3L-63.1,13.4L-67.8,10.7L-70.5,7.4L-71.1,3.7L-69.6,0.0L-66.0,-3.5L-60.6,-6.4L-53.9,-8.5L-46.3,-9.8L-38.5,-10.3L-30.8,-10.0L-24.0,-9.2L-18.4,-8.2L-14.3,-7.3L-11.9,-6.9L-11.3,-7.3L-12.2,-8.9L-14.5,-11.7L-17.6,-15.9L-21.3,-21.3L-25.0,-27.7L-28.2,-34.9L-30.7,-42.3L-32.1,-49.4L-32.3,-55.9L-31.1,-61.1L-28.8,-64.7L-25.5,-66.5L-21.5,-66.2L-17.1,-63.8L-12.7,-59.6L-8.5,-53.9L-5.0,-47.1L-2.1,-39.8L-0.0,-32.4L1.3,-25.7L2.1,-20.0L2.5,-15.9L2.9,-13.5L3.5,-13.0L4.7,-14.4L6.7,-17.4L9.6,-21.7L13.7,-26.8L18.7,-32.3L24.4,-37.6L30.7,-42.3L37.1,-45.8L43.2,-48.0L48.5,-48.5L52.7,-47.4L55.3,-44.8L56.3,-40.9L55.4,-36.0L52.8,-30.5L48.6,-24.8L43.3,-19.3L37.2,-14.3L30.8,-10.0L24.8,-6.7L19.7,-4.2L15.9,-2.5L13.7,-1.4L13.4,-0.7L15.1,-0.0Z" fill="none" stroke="#e3d4fc" stroke-width="1" stroke-linecap="round" opacity="0.95"/><path d="M6.0,0.0L7.0,0.4L9.9,1.0L14.4,2.3L20.1,4.3L26.6,7.1L33.3,10.8L39.7,15.2L45.2,20.1L49.5,25.2L52.1,30.1L52.9,34.3L51.8,37.6L49.0,39.7L44.7,40.2L39.3,39.3L33.1,36.8L26.8,33.1L20.6,28.3L15.0,23.1L10.3,17.8L6.6,13.0L4.0,9.1L2.5,6.6L1.9,5.8L1.8,6.8L2.1,9.7L2.3,14.4L2.1,20.4L1.4,27.5L0.0,35.0L-2.2,42.5L-5.2,49.2L-8.7,54.8L-12.5,58.8L-16.3,60.9L-19.8,60.9L-22.6,58.8L-24.5,54.9L-25.2,49.5L-24.8,42.9L-23.2,35.7L-20.6,28.3L-17.3,21.4L-13.7,15.3L-10.3,10.3L-7.4,6.6L-5.5,4.4L-4.9,3.6L-5.9,3.8L-8.6,5.0L-13.0,6.6L-18.8,8.4L-25.7,9.9L-33.3,10.8L-41.1,11.0L-48.4,10.3L-54.8,8.7L-59.8,6.3L-62.9,3.3L-64.0,0.0L-62.9,-3.3L-59.8,-6.3L-54.8,-8.7L-48.4,-10.3L-41.1,-11.0L-33.3,-10.8L-25.7,-9.9L-18.8,-8.4L-13.0,-6.6L-8.6,-5.0L-5.9,-3.8L-4.9,-3.6L-5.5,-4.4L-7.4,-6.6L-10.3,-10.3L-13.7,-15.3L-17.3,-21.4L-20.6,-28.3L-23.2,-35.7L-24.8,-42.9L-25.2,-49.5L-24.5,-54.9L-22.6,-58.8L-19.8,-60.9L-16.3,-60.9L-12.5,-58.8L-8.7,-54.8L-5.2,-49.2L-2.2,-42.5L-0.0,-35.0L1.4,-27.5L2.1,-20.4L2.3,-14.4L2.1,-9.7L1.8,-6.8L1.9,-5.8L2.5,-6.6L4.0,-9.1L6.6,-13.0L10.3,-17.8L15.0,-23.1L20.6,-28.3L26.8,-33.1L33.1,-36.8L39.3,-39.3L44.7,-40.2L49.0,-39.7L51.8,-37.6L52.9,-34.3L52.1,-30.1L49.5,-25.2L45.2,-20.1L39.7,-15.2L33.3,-10.8L26.6,-7.1L20.1,-4.3L14.4,-2.3L9.9,-1.0L7.0,-0.4L6.0,-0.0Z" fill="none" stroke="#e7e4f8" stroke-width="3" stroke-linecap="round" opacity="0.20" filter="url(#tg)"/><path d="M6.0,0.0L7.0,0.4L9.9,1.0L14.4,2.3L20.1,4.3L26.6,7.1L33.3,10.8L39.7,15.2L45.2,20.1L49.5,25.2L52.1,30.1L52.9,34.3L51.8,37.6L49.0,39.7L44.7,40.2L39.3,39.3L33.1,36.8L26.8,33.1L20.6,28.3L15.0,23.1L10.3,17.8L6.6,13.0L4.0,9.1L2.5,6.6L1.9,5.8L1.8,6.8L2.1,9.7L2.3,14.4L2.1,20.4L1.4,27.5L0.0,35.0L-2.2,42.5L-5.2,49.2L-8.7,54.8L-12.5,58.8L-16.3,60.9L-19.8,60.9L-22.6,58.8L-24.5,54.9L-25.2,49.5L-24.8,42.9L-23.2,35.7L-20.6,28.3L-17.3,21.4L-13.7,15.3L-10.3,10.3L-7.4,6.6L-5.5,4.4L-4.9,3.6L-5.9,3.8L-8.6,5.0L-13.0,6.6L-18.8,8.4L-25.7,9.9L-33.3,10.8L-41.1,11.0L-48.4,10.3L-54.8,8.7L-59.8,6.3L-62.9,3.3L-64.0,0.0L-62.9,-3.3L-59.8,-6.3L-54.8,-8.7L-48.4,-10.3L-41.1,-11.0L-33.3,-10.8L-25.7,-9.9L-18.8,-8.4L-13.0,-6.6L-8.6,-5.0L-5.9,-3.8L-4.9,-3.6L-5.5,-4.4L-7.4,-6.6L-10.3,-10.3L-13.7,-15.3L-17.3,-21.4L-20.6,-28.3L-23.2,-35.7L-24.8,-42.9L-25.2,-49.5L-24.5,-54.9L-22.6,-58.8L-19.8,-60.9L-16.3,-60.9L-12.5,-58.8L-8.7,-54.8L-5.2,-49.2L-2.2,-42.5L-0.0,-35.0L1.4,-27.5L2.1,-20.4L2.3,-14.4L2.1,-9.7L1.8,-6.8L1.9,-5.8L2.5,-6.6L4.0,-9.1L6.6,-13.0L10.3,-17.8L15.0,-23.1L20.6,-28.3L26.8,-33.1L33.1,-36.8L39.3,-39.3L44.7,-40.2L49.0,-39.7L51.8,-37.6L52.9,-34.3L52.1,-30.1L49.5,-25.2L45.2,-20.1L39.7,-15.2L33.3,-10.8L26.6,-7.1L20.1,-4.3L14.4,-2.3L9.9,-1.0L7.0,-0.4L6.0,-0.0Z" fill="none" stroke="#e7e4f8" stroke-width="1" stroke-linecap="round" opacity="0.95"/><path d="M0.5,0.0L-1.1,-0.1L-0.8,-0.1L1.4,0.2L5.4,1.1L10.7,2.9L16.9,5.5L23.5,9.0L29.9,13.3L35.6,18.1L40.1,23.2L43.2,28.0L44.5,32.3L44.0,35.6L41.8,37.6L38.2,38.2L33.4,37.1L27.9,34.5L22.1,30.4L16.5,25.4L11.3,19.6L7.0,13.8L3.7,8.3L1.4,3.7L0.2,0.5L-0.3,-1.1L-0.2,-0.8L0.2,1.4L0.6,5.5L0.6,11.1L0.0,17.8L-1.3,25.2L-3.4,32.6L-6.3,39.5L-9.6,45.3L-13.3,49.7L-17.0,52.3L-20.3,52.8L-22.9,51.4L-24.5,48.1L-25.0,43.2L-24.2,37.2L-22.1,30.4L-19.0,23.5L-15.2,16.9L-10.9,10.9L-6.8,6.1L-3.1,2.5L-0.4,0.3L1.0,-0.6L0.7,-0.4L-1.3,0.7L-5.0,2.2L-10.4,4.0L-16.9,5.5L-24.3,6.5L-32.0,6.8L-39.5,6.3L-46.1,4.8L-51.4,2.7L-55.0,0.0L-56.5,-3.0L-56.0,-5.9L-53.3,-8.4L-48.8,-10.4L-42.8,-11.5L-35.8,-11.6L-28.2,-10.8L-20.7,-9.2L-13.8,-7.0L-7.9,-4.5L-3.3,-2.2L-0.4,-0.3L0.9,0.7L0.6,0.5L-1.0,-1.0L-3.7,-4.1L-7.0,-8.6L-10.5,-14.4L-13.7,-21.1L-16.4,-28.4L-18.1,-35.6L-18.9,-42.3L-18.4,-48.0L-17.0,-52.3L-14.6,-54.7L-11.7,-55.0L-8.4,-53.3L-5.2,-49.6L-2.3,-44.3L-0.0,-37.6L1.6,-30.2L2.4,-22.6L2.4,-15.3L1.9,-8.9L1.0,-3.8L0.2,-0.5L-0.4,1.1L-0.3,0.7L0.7,-1.3L2.8,-4.8L6.0,-9.3L10.5,-14.4L15.9,-19.6L21.9,-24.3L28.3,-28.3L34.4,-31.0L40.0,-32.4L44.5,-32.3L47.5,-30.8L48.7,-28.1L48.1,-24.5L45.6,-20.3L41.4,-15.9L35.8,-11.6L29.2,-7.8L22.2,-4.7L15.3,-2.4L9.0,-1.0L4.0,-0.2L0.5,-0.0Z" fill="none" stroke="#e3d4fc" stroke-width="3" stroke-linecap="round" opacity="0.20" filter="url(#tg)"/><path d="M0.5,0.0L-1.1,-0.1L-0.8,-0.1L1.4,0.2L5.4,1.1L10.7,2.9L16.9,5.5L23.5,9.0L29.9,13.3L35.6,18.1L40.1,23.2L43.2,28.0L44.5,32.3L44.0,35.6L41.8,37.6L38.2,38.2L33.4,37.1L27.9,34.5L22.1,30.4L16.5,25.4L11.3,19.6L7.0,13.8L3.7,8.3L1.4,3.7L0.2,0.5L-0.3,-1.1L-0.2,-0.8L0.2,1.4L0.6,5.5L0.6,11.1L0.0,17.8L-1.3,25.2L-3.4,32.6L-6.3,39.5L-9.6,45.3L-13.3,49.7L-17.0,52.3L-20.3,52.8L-22.9,51.4L-24.5,48.1L-25.0,43.2L-24.2,37.2L-22.1,30.4L-19.0,23.5L-15.2,16.9L-10.9,10.9L-6.8,6.1L-3.1,2.5L-0.4,0.3L1.0,-0.6L0.7,-0.4L-1.3,0.7L-5.0,2.2L-10.4,4.0L-16.9,5.5L-24.3,6.5L-32.0,6.8L-39.5,6.3L-46.1,4.8L-51.4,2.7L-55.0,0.0L-56.5,-3.0L-56.0,-5.9L-53.3,-8.4L-48.8,-10.4L-42.8,-11.5L-35.8,-11.6L-28.2,-10.8L-20.7,-9.2L-13.8,-7.0L-7.9,-4.5L-3.3,-2.2L-0.4,-0.3L0.9,0.7L0.6,0.5L-1.0,-1.0L-3.7,-4.1L-7.0,-8.6L-10.5,-14.4L-13.7,-21.1L-16.4,-28.4L-18.1,-35.6L-18.9,-42.3L-18.4,-48.0L-17.0,-52.3L-14.6,-54.7L-11.7,-55.0L-8.4,-53.3L-5.2,-49.6L-2.3,-44.3L-0.0,-37.6L1.6,-30.2L2.4,-22.6L2.4,-15.3L1.9,-8.9L1.0,-3.8L0.2,-0.5L-0.4,1.1L-0.3,0.7L0.7,-1.3L2.8,-4.8L6.0,-9.3L10.5,-14.4L15.9,-19.6L21.9,-24.3L28.3,-28.3L34.4,-31.0L40.0,-32.4L44.5,-32.3L47.5,-30.8L48.7,-28.1L48.1,-24.5L45.6,-20.3L41.4,-15.9L35.8,-11.6L29.2,-7.8L22.2,-4.7L15.3,-2.4L9.0,-1.0L4.0,-0.2L0.5,-0.0Z" fill="none" stroke="#e3d4fc" stroke-width="1" stroke-linecap="round" opacity="0.95"/><path d="M-1.8,0.0L-5.8,-0.3L-8.1,-0.8L-8.4,-1.3L-6.7,-1.4L-3.2,-0.9L1.7,0.6L7.6,2.9L14.1,6.3L20.4,10.4L26.3,15.2L31.1,20.2L34.5,25.0L36.3,29.4L36.4,32.8L34.8,34.8L31.9,35.4L27.8,34.3L22.9,31.6L17.8,27.4L12.7,22.0L8.1,15.9L4.3,9.6L1.4,3.5L-0.6,-1.7L-1.5,-5.7L-1.7,-8.0L-1.3,-8.4L-0.7,-6.8L-0.2,-3.3L0.0,1.8L-0.4,8.2L-1.6,15.3L-3.6,22.7L-6.3,29.7L-9.6,35.8L-13.2,40.5L-16.7,43.6L-19.9,44.7L-22.4,43.9L-23.8,41.3L-24.0,37.0L-22.9,31.6L-20.6,25.4L-17.0,18.9L-12.6,12.6L-7.8,7.0L-2.9,2.4L1.4,-1.1L4.9,-3.2L7.0,-4.1L7.5,-3.8L6.2,-2.8L3.1,-1.2L-1.7,0.6L-7.9,2.1L-15.0,3.2L-22.7,3.6L-30.2,3.2L-37.0,1.9L-42.6,0.0L-46.6,-2.4L-48.7,-5.1L-48.7,-7.7L-46.6,-9.9L-42.6,-11.4L-37.1,-12.1L-30.5,-11.7L-23.2,-10.3L-15.9,-8.1L-9.1,-5.3L-3.2,-2.1L1.4,1.1L4.5,3.7L6.0,5.4L6.0,6.0L4.6,5.1L2.1,2.6L-1.0,-1.4L-4.4,-6.8L-7.7,-13.3L-10.4,-20.4L-12.3,-27.7L-13.3,-34.6L-13.2,-40.5L-12.1,-45.1L-10.2,-47.9L-7.7,-48.7L-5.0,-47.4L-2.3,-44.1L-0.0,-39.0L1.7,-32.6L2.7,-25.3L2.8,-17.7L2.2,-10.3L1.0,-3.7L-0.6,1.7L-2.1,5.5L-3.3,7.4L-3.8,7.5L-3.4,5.9L-1.8,2.8L1.0,-1.4L5.1,-6.3L10.3,-11.4L16.2,-16.2L22.5,-20.3L28.8,-23.3L34.5,-25.0L39.1,-25.4L42.4,-24.5L43.9,-22.4L43.5,-19.4L41.2,-15.8L37.1,-12.1L31.5,-8.5L24.9,-5.3L17.7,-2.8L10.4,-1.1L3.8,-0.2L-1.8,0.0Z" fill="none" stroke="#e7e4f8" stroke-width="3" stroke-linecap="round" opacity="0.20" filter="url(#tg)"/><path d="M-1.8,0.0L-5.8,-0.3L-8.1,-0.8L-8.4,-1.3L-6.7,-1.4L-3.2,-0.9L1.7,0.6L7.6,2.9L14.1,6.3L20.4,10.4L26.3,15.2L31.1,20.2L34.5,25.0L36.3,29.4L36.4,32.8L34.8,34.8L31.9,35.4L27.8,34.3L22.9,31.6L17.8,27.4L12.7,22.0L8.1,15.9L4.3,9.6L1.4,3.5L-0.6,-1.7L-1.5,-5.7L-1.7,-8.0L-1.3,-8.4L-0.7,-6.8L-0.2,-3.3L0.0,1.8L-0.4,8.2L-1.6,15.3L-3.6,22.7L-6.3,29.7L-9.6,35.8L-13.2,40.5L-16.7,43.6L-19.9,44.7L-22.4,43.9L-23.8,41.3L-24.0,37.0L-22.9,31.6L-20.6,25.4L-17.0,18.9L-12.6,12.6L-7.8,7.0L-2.9,2.4L1.4,-1.1L4.9,-3.2L7.0,-4.1L7.5,-3.8L6.2,-2.8L3.1,-1.2L-1.7,0.6L-7.9,2.1L-15.0,3.2L-22.7,3.6L-30.2,3.2L-37.0,1.9L-42.6,0.0L-46.6,-2.4L-48.7,-5.1L-48.7,-7.7L-46.6,-9.9L-42.6,-11.4L-37.1,-12.1L-30.5,-11.7L-23.2,-10.3L-15.9,-8.1L-9.1,-5.3L-3.2,-2.1L1.4,1.1L4.5,3.7L6.0,5.4L6.0,6.0L4.6,5.1L2.1,2.6L-1.0,-1.4L-4.4,-6.8L-7.7,-13.3L-10.4,-20.4L-12.3,-27.7L-13.3,-34.6L-13.2,-40.5L-12.1,-45.1L-10.2,-47.9L-7.7,-48.7L-5.0,-47.4L-2.3,-44.1L-0.0,-39.0L1.7,-32.6L2.7,-25.3L2.8,-17.7L2.2,-10.3L1.0,-3.7L-0.6,1.7L-2.1,5.5L-3.3,7.4L-3.8,7.5L-3.4,5.9L-1.8,2.8L1.0,-1.4L5.1,-6.3L10.3,-11.4L16.2,-16.2L22.5,-20.3L28.8,-23.3L34.5,-25.0L39.1,-25.4L42.4,-24.5L43.9,-22.4L43.5,-19.4L41.2,-15.8L37.1,-12.1L31.5,-8.5L24.9,-5.3L17.7,-2.8L10.4,-1.1L3.8,-0.2L-1.8,0.0Z" fill="none" stroke="#e7e4f8" stroke-width="1" stroke-linecap="round" opacity="0.95"/><path d="M-1.4,0.0L-7.4,-0.4L-11.9,-1.3L-14.7,-2.3L-15.5,-3.3L-14.4,-3.9L-11.4,-3.7L-6.9,-2.6L-1.3,-0.6L5.0,2.5L11.3,6.6L17.3,11.2L22.3,16.2L26.1,21.1L28.4,25.6L29.1,29.1L28.2,31.3L25.9,31.9L22.5,30.9L18.3,28.2L13.8,23.9L9.4,18.4L5.3,12.0L2.0,5.2L-0.4,-1.3L-1.9,-7.1L-2.5,-11.7L-2.3,-14.7L-1.7,-15.8L-0.8,-14.9L-0.0,-12.0L0.4,-7.4L0.1,-1.4L-0.9,5.5L-2.7,12.8L-5.3,19.9L-8.5,26.2L-12.0,31.4L-15.5,34.9L-18.7,36.6L-21.0,36.4L-22.4,34.5L-22.5,30.9L-21.1,26.1L-18.5,20.5L-14.6,14.6L-9.7,8.8L-4.4,3.5L1.1,-0.8L6.2,-4.0L10.4,-6.0L13.3,-6.8L14.5,-6.5L13.9,-5.3L11.4,-3.7L7.1,-1.9L1.4,-0.3L-5.5,0.9L-13.0,1.4L-20.6,1.1L-27.6,0.0L-33.5,-1.8L-38.0,-4.0L-40.6,-6.4L-41.2,-8.7L-39.7,-10.6L-36.3,-11.8L-31.4,-12.0L-25.2,-11.2L-18.4,-9.4L-11.3,-6.6L-4.7,-3.1L1.1,0.8L5.7,4.6L8.9,8.0L10.5,10.5L10.6,11.8L9.4,11.6L7.0,9.7L4.0,6.2L0.7,1.2L-2.5,-5.0L-5.3,-12.0L-7.4,-19.2L-8.5,-26.2L-8.7,-32.5L-7.9,-37.4L-6.4,-40.6L-4.4,-41.9L-2.2,-41.0L-0.0,-38.2L1.8,-33.5L2.9,-27.4L3.2,-20.4L2.7,-12.8L1.5,-5.4L-0.4,1.3L-2.6,6.9L-4.9,11.0L-6.8,13.3L-7.9,13.7L-8.1,12.5L-7.0,9.7L-4.6,5.7L-0.9,1.0L4.0,-4.0L9.7,-8.8L16.0,-13.0L22.3,-16.2L28.2,-18.3L33.1,-19.1L36.6,-18.7L38.4,-17.1L38.4,-14.7L36.3,-11.8L32.5,-8.7L27.0,-5.7L20.4,-3.2L13.0,-1.4L5.6,-0.3L-1.4,0.0Z" fill="none" stroke="#e3d4fc" stroke-width="3" stroke-linecap="round" opacity="0.20" filter="url(#tg)"/><path d="M-1.4,0.0L-7.4,-0.4L-11.9,-1.3L-14.7,-2.3L-15.5,-3.3L-14.4,-3.9L-11.4,-3.7L-6.9,-2.6L-1.3,-0.6L5.0,2.5L11.3,6.6L17.3,11.2L22.3,16.2L26.1,21.1L28.4,25.6L29.1,29.1L28.2,31.3L25.9,31.9L22.5,30.9L18.3,28.2L13.8,23.9L9.4,18.4L5.3,12.0L2.0,5.2L-0.4,-1.3L-1.9,-7.1L-2.5,-11.7L-2.3,-14.7L-1.7,-15.8L-0.8,-14.9L-0.0,-12.0L0.4,-7.4L0.1,-1.4L-0.9,5.5L-2.7,12.8L-5.3,19.9L-8.5,26.2L-12.0,31.4L-15.5,34.9L-18.7,36.6L-21.0,36.4L-22.4,34.5L-22.5,30.9L-21.1,26.1L-18.5,20.5L-14.6,14.6L-9.7,8.8L-4.4,3.5L1.1,-0.8L6.2,-4.0L10.4,-6.0L13.3,-6.8L14.5,-6.5L13.9,-5.3L11.4,-3.7L7.1,-1.9L1.4,-0.3L-5.5,0.9L-13.0,1.4L-20.6,1.1L-27.6,0.0L-33.5,-1.8L-38.0,-4.0L-40.6,-6.4L-41.2,-8.7L-39.7,-10.6L-36.3,-11.8L-31.4,-12.0L-25.2,-11.2L-18.4,-9.4L-11.3,-6.6L-4.7,-3.1L1.1,0.8L5.7,4.6L8.9,8.0L10.5,10.5L10.6,11.8L9.4,11.6L7.0,9.7L4.0,6.2L0.7,1.2L-2.5,-5.0L-5.3,-12.0L-7.4,-19.2L-8.5,-26.2L-8.7,-32.5L-7.9,-37.4L-6.4,-40.6L-4.4,-41.9L-2.2,-41.0L-0.0,-38.2L1.8,-33.5L2.9,-27.4L3.2,-20.4L2.7,-12.8L1.5,-5.4L-0.4,1.3L-2.6,6.9L-4.9,11.0L-6.8,13.3L-7.9,13.7L-8.1,12.5L-7.0,9.7L-4.6,5.7L-0.9,1.0L4.0,-4.0L9.7,-8.8L16.0,-13.0L22.3,-16.2L28.2,-18.3L33.1,-19.1L36.6,-18.7L38.4,-17.1L38.4,-14.7L36.3,-11.8L32.5,-8.7L27.0,-5.7L20.4,-3.2L13.0,-1.4L5.6,-0.3L-1.4,0.0Z" fill="none" stroke="#e3d4fc" stroke-width="1" stroke-linecap="round" opacity="0.95"/>
</svg>