<svg xmlns="http://www.w3.org/2000/svg" viewBox="-250 -250 500 500">
<rect x="-250" y="-250" width="500" height="500" fill="#fff7f0"/>
<path d="M143.0,0.0L142.0,7.4L139.2,14.6L134.8,21.3L129.4,27.5L123.5,33.1L117.9,38.3L112.9,43.3L109.0,48.5L106.2,54.1L104.4,60.3L103.5,67.2L103.0,74.8L102.3,82.8L101.0,90.9L98.6,98.6L95.0,105.5L90.0,111.1L83.7,115.2L76.4,117.7L68.5,118.6L60.3,118.4L52.3,117.4L44.6,116.2L37.5,115.4L30.9,115.3L24.8,116.5L18.8,118.8L12.9,122.3L6.6,126.5L0.0,131.0L-7.1,135.1L-14.5,138.3L-22.2,139.9L-29.7,139.8L-36.9,137.7L-43.5,133.8L-49.3,128.4L-54.3,122.0L-58.6,115.0L-62.5,108.3L-66.3,102.0L-70.3,96.7L-74.9,92.5L-80.3,89.2L-86.6,86.6L-93.7,84.4L-101.3,82.0L-109.0,79.2L-116.2,75.5L-122.4,70.7L-127.3,64.9L-130.4,58.1L-131.7,50.6L-131.3,42.7L-129.5,34.7L-126.9,27.0L-124.0,19.6L-121.4,12.8L-119.6,6.3L-119.0,0.0L-119.6,-6.3L-121.4,-12.8L-124.0,-19.6L-126.9,-27.0L-129.5,-34.7L-131.3,-42.7L-131.7,-50.6L-130.4,-58.1L-127.3,-64.9L-122.4,-70.7L-116.2,-75.5L-109.0,-79.2L-101.3,-82.0L-93.7,-84.4L-86.6,-86.6L-80.3,-89.2L-74.9,-92.5L-70.3,-96.7L-66.3,-102.0L-62.5,-108.3L-58.6,-115.0L-54.3,-122.0L-49.3,-128.4L-43.5,-133.8L-36.9,-137.7L-29.7,-139.8L-22.2,-139.9L-14.5,-138.3L-7.1,-135.1L-0.0,-131.0L6.6,-126.5L12.9,-122.3L18.8,-118.8L24.8,-116.5L30.9,-115.3L37.5,-115.4L44.6,-116.2L52.3,-117.4L60.3,-118.4L68.5,-118.6L76.4,-117.7L83.7,-115.2L90.0,-111.1L95.0,-105.5L98.6,-98.6L101.0,-90.9L102.3,-82.8L103.0,-74.8L103.5,-67.2L104.4,-60.3L106.2,-54.1L109.0,-48.5L112.9,-43.3L117.9,-38.3L123.5,-33.1L129.4,-27.5L134.8,-21.3L139.2,-14.6L142.0,-7.4L143.0,-0.0Z" fill="none" stroke="#bfd5ff" stroke-width="0.5" stroke-linecap="round" opacity="0.95"/><path d="M129.6,0.0L132.6,6.9L133.9,14.1L133.3,21.1L130.7,27.8L126.5,33.9L121.0,39.3L114.7,44.0L108.3,48.2L102.4,52.2L97.2,56.1L93.1,60.5L90.2,65.5L88.1,71.3L86.6,78.0L85.3,85.3L83.6,92.9L81.2,100.3L77.8,107.1L73.2,112.8L67.5,116.9L60.8,119.3L53.4,120.0L45.8,119.3L38.2,117.5L30.8,115.1L24.0,112.8L17.6,111.2L11.6,110.5L5.8,111.1L0.0,113.0L-6.1,115.9L-12.5,119.3L-19.5,122.8L-26.7,125.7L-34.2,127.5L-41.5,127.7L-48.4,126.0L-54.6,122.6L-59.9,117.5L-64.2,111.2L-67.6,104.1L-70.4,96.9L-72.9,90.0L-75.5,83.9L-78.7,78.7L-82.6,74.4L-87.6,70.9L-93.5,67.9L-100.1,65.0L-107.2,61.9L-114.0,58.1L-120.2,53.5L-125.1,48.0L-128.4,41.7L-129.8,34.8L-129.4,27.5L-127.3,20.2L-124.1,13.0L-120.2,6.3L-116.4,0.0L-113.1,-5.9L-110.8,-11.6L-109.7,-17.4L-109.9,-23.4L-111.1,-29.8L-113.0,-36.7L-114.9,-44.1L-116.4,-51.8L-116.8,-59.5L-115.8,-66.9L-113.2,-73.5L-108.9,-79.1L-103.1,-83.5L-96.2,-86.6L-88.7,-88.7L-81.0,-89.9L-73.6,-90.9L-66.8,-91.9L-60.8,-93.6L-55.5,-96.1L-50.9,-99.9L-46.6,-104.7L-42.4,-110.4L-37.8,-116.5L-32.8,-122.5L-27.2,-127.8L-20.9,-131.8L-14.1,-134.1L-7.1,-134.5L-0.0,-133.0L6.8,-129.8L13.2,-125.3L19.0,-120.1L24.4,-114.9L29.5,-110.1L34.5,-106.3L39.8,-103.6L45.5,-102.2L51.8,-101.7L58.8,-101.9L66.4,-102.2L74.2,-102.1L81.9,-101.1L89.1,-98.9L95.3,-95.3L100.2,-90.2L103.6,-83.9L105.6,-76.7L106.2,-69.0L105.9,-61.1L105.2,-53.6L104.5,-46.5L104.6,-40.1L105.6,-34.3L107.8,-28.9L111.3,-23.6L115.6,-18.3L120.6,-12.7L125.4,-6.6L129.6,-0.0Z" fill="none" stroke="#bfbfbf" stroke-width="0.5" stroke-linecap="round" opacity="0.95"/><path d="M110.3,0.0L114.4,6.0L118.3,12.4L121.2,19.2L122.8,26.1L122.6,32.8L120.5,39.2L116.6,44.8L111.3,49.6L105.1,53.5L98.3,56.8L91.7,59.6L85.7,62.3L80.6,65.3L76.5,68.9L73.4,73.4L71.1,78.9L69.1,85.3L67.0,92.2L64.4,99.2L61.1,105.8L56.8,111.5L51.6,115.8L45.4,118.4L38.7,119.2L31.7,118.2L24.6,115.9L17.9,112.8L11.5,109.3L5.6,106.2L0.0,104.0L-5.4,102.9L-10.8,103.1L-16.6,104.5L-22.7,106.8L-29.3,109.5L-36.4,111.9L-43.6,113.6L-50.8,114.0L-57.5,112.8L-63.5,109.9L-68.4,105.3L-72.2,99.4L-75.0,92.6L-76.8,85.3L-78.1,78.1L-79.4,71.5L-81.0,65.6L-83.4,60.6L-86.8,56.4L-91.3,52.7L-96.8,49.3L-103.0,45.8L-109.3,42.0L-115.2,37.4L-120.2,32.2L-123.7,26.3L-125.4,19.9L-125.2,13.2L-123.2,6.5L-119.7,0.0L-115.3,-6.0L-110.5,-11.6L-106.0,-16.8L-102.2,-21.7L-99.6,-26.7L-98.3,-31.9L-98.1,-37.6L-98.8,-44.0L-99.9,-50.9L-100.9,-58.2L-101.2,-65.7L-100.4,-72.9L-98.1,-79.5L-94.4,-85.0L-89.2,-89.2L-82.8,-92.0L-75.7,-93.5L-68.2,-93.9L-60.8,-93.7L-53.9,-93.3L-47.6,-93.4L-42.0,-94.3L-37.0,-96.3L-32.4,-99.6L-27.9,-103.9L-23.2,-109.1L-18.1,-114.4L-12.6,-119.4L-6.5,-123.5L-0.0,-126.0L6.6,-126.8L13.2,-125.7L19.4,-122.7L25.1,-118.2L30.2,-112.7L34.7,-106.8L38.8,-101.1L42.8,-96.1L46.9,-92.1L51.5,-89.3L56.9,-87.6L63.0,-86.7L69.8,-86.2L77.1,-85.6L84.5,-84.5L91.5,-82.4L97.8,-79.2L102.7,-74.6L106.1,-68.9L107.9,-62.3L108.1,-55.1L107.1,-47.7L105.4,-40.5L103.5,-33.6L101.9,-27.3L101.3,-21.5L101.8,-16.1L103.6,-10.9L106.5,-5.6L110.3,-0.0Z" fill="none" stroke="#bfd5ff" stroke-width="0.5" stroke-linecap="round" opacity="0.95"/><path d="M95.2,0.0L96.6,5.1L99.1,10.4L102.3,16.2L105.6,22.4L108.3,29.0L110.0,35.8L110.2,42.3L108.7,48.4L105.4,53.7L100.6,58.1L94.5,61.4L87.8,63.8L81.0,65.6L74.5,67.0L68.7,68.7L63.8,70.8L59.9,73.9L56.7,78.0L54.0,83.2L51.5,89.2L48.7,95.6L45.4,101.9L41.3,107.6L36.4,112.1L30.8,114.9L24.6,115.9L18.2,115.1L11.8,112.6L5.7,109.0L0.0,104.8L-5.3,100.6L-10.2,96.9L-14.9,94.3L-19.8,93.0L-24.9,92.9L-30.5,93.9L-36.7,95.6L-43.4,97.5L-50.4,98.9L-57.4,99.4L-64.0,98.6L-69.9,96.2L-74.7,92.2L-78.2,86.9L-80.5,80.5L-81.6,73.5L-81.9,66.4L-81.9,59.5L-82.1,53.3L-82.9,47.8L-84.6,43.1L-87.6,39.0L-91.8,35.2L-96.8,31.5L-102.4,27.4L-108.0,23.0L-112.9,17.9L-116.6,12.3L-118.6,6.2L-118.8,0.0L-117.1,-6.1L-113.7,-11.9L-109.0,-17.3L-103.7,-22.1L-98.4,-26.4L-93.5,-30.4L-89.5,-34.4L-86.8,-38.6L-85.3,-43.4L-84.8,-48.9L-84.9,-55.2L-85.3,-62.0L-85.3,-69.1L-84.6,-76.1L-82.7,-82.7L-79.4,-88.2L-74.8,-92.4L-69.1,-95.1L-62.5,-96.3L-55.5,-96.1L-48.4,-95.1L-41.7,-93.6L-35.4,-92.2L-29.7,-91.5L-24.6,-91.8L-19.9,-93.4L-15.2,-96.3L-10.5,-100.2L-5.5,-104.7L-0.0,-109.2L5.9,-113.1L12.2,-115.9L18.5,-117.0L24.7,-116.4L30.5,-113.8L35.6,-109.6L40.0,-104.2L43.6,-98.0L46.8,-91.8L49.6,-85.9L52.5,-80.9L55.9,-76.9L60.0,-74.1L65.0,-72.2L70.9,-70.9L77.4,-69.7L84.4,-68.3L91.2,-66.3L97.4,-63.2L102.5,-59.2L106.0,-54.0L107.9,-48.0L108.0,-41.5L106.7,-34.7L104.3,-27.9L101.3,-21.5L98.5,-15.6L96.2,-10.1L95.1,-5.0L95.2,-0.0Z" fill="none" stroke="#bfbfbf" stroke-width="0.5" stroke-linecap="round" opacity="0.95"/><path d="M90.7,0.0L88.0,4.6L86.6,9.1L86.4,13.7L87.6,18.6L89.7,24.0L92.2,29.9L94.6,36.3L96.3,42.9L96.7,49.3L95.7,55.3L93.1,60.4L88.8,64.5L83.3,67.5L76.9,69.3L70.2,70.2L63.5,70.5L57.3,70.8L52.0,71.5L47.4,73.0L43.7,75.7L40.5,79.5L37.5,84.3L34.5,89.9L31.1,95.7L27.1,101.2L22.5,105.8L17.3,109.0L11.6,110.4L5.8,109.9L0.0,107.6L-5.4,103.9L-10.4,99.3L-14.9,94.3L-19.0,89.6L-23.0,85.7L-26.9,82.9L-31.3,81.4L-36.1,81.1L-41.7,81.8L-47.8,82.9L-54.5,83.9L-61.3,84.3L-67.8,83.8L-73.7,81.8L-78.5,78.5L-82.0,73.8L-84.0,68.0L-84.7,61.5L-84.3,54.7L-83.2,48.0L-82.1,41.8L-81.4,36.2L-81.5,31.3L-82.9,26.9L-85.5,22.9L-89.3,19.0L-93.9,14.9L-98.9,10.4L-103.5,5.4L-107.3,0.0L-109.7,-5.8L-110.4,-11.6L-109.1,-17.3L-106.1,-22.5L-101.6,-27.2L-96.1,-31.2L-90.3,-34.7L-84.6,-37.7L-79.7,-40.6L-75.7,-43.7L-73.0,-47.4L-71.4,-51.9L-70.6,-57.2L-70.2,-63.2L-69.9,-69.9L-69.0,-76.6L-67.3,-83.1L-64.4,-88.7L-60.4,-93.0L-55.3,-95.8L-49.4,-97.0L-43.0,-96.6L-36.4,-94.9L-30.1,-92.6L-24.1,-90.0L-18.7,-87.8L-13.7,-86.6L-9.1,-86.5L-4.6,-87.8L-0.0,-90.4L4.9,-93.8L10.3,-97.6L16.0,-101.2L22.1,-104.1L28.3,-105.6L34.2,-105.4L39.7,-103.4L44.4,-99.7L48.2,-94.6L51.2,-88.6L53.3,-82.2L55.1,-75.8L56.8,-70.1L58.8,-65.3L61.5,-61.5L65.2,-58.7L69.9,-56.6L75.5,-54.9L81.8,-53.1L88.3,-51.0L94.3,-48.1L99.5,-44.3L103.3,-39.7L105.5,-34.3L105.8,-28.3L104.4,-22.2L101.6,-16.1L98.0,-10.3L94.2,-4.9L90.7,-0.0Z" fill="none" stroke="#bfd5ff" stroke-width="0.5" stroke-linecap="round" opacity="0.95"/>
</svg>