<svg xmlns="http://www.w3.org/2000/svg" viewBox="-250 -250 500 500">
<rect x="-250" y="-250" width="500" height="500" fill="#081a20"/>
<path d="M204.0,0.0L203.4,10.7L201.7,21.2L198.9,31.5L195.1,41.5L190.3,51.0L184.6,60.0L178.2,68.4L171.2,76.2L163.7,83.4L155.9,90.0L147.8,96.0L139.6,101.4L131.4,106.4L123.3,111.0L115.3,115.3L107.5,119.3L99.8,123.3L92.4,127.2L85.1,131.1L78.0,135.1L71.0,139.3L63.9,143.6L56.8,148.1L49.6,152.7L42.2,157.5L34.5,162.3L26.5,167.0L18.0,171.6L9.2,176.0L0.0,180.0L-9.6,183.5L-19.6,186.4L-29.9,188.5L-40.4,189.9L-51.0,190.3L-61.6,189.7L-72.2,188.0L-82.5,185.3L-92.5,181.5L-102.0,176.7L-110.9,170.8L-119.2,164.1L-126.7,156.5L-133.4,148.2L-139.3,139.3L-144.2,129.9L-148.4,120.1L-151.6,110.2L-154.1,100.1L-155.9,90.0L-157.0,80.0L-157.7,70.2L-157.9,60.6L-157.8,51.3L-157.5,42.2L-157.1,33.4L-156.7,24.8L-156.3,16.4L-156.1,8.2L-156.0,0.0L-156.1,-8.2L-156.3,-16.4L-156.7,-24.8L-157.1,-33.4L-157.5,-42.2L-157.8,-51.3L-157.9,-60.6L-157.7,-70.2L-157.0,-80.0L-155.9,-90.0L-154.1,-100.1L-151.6,-110.2L-148.4,-120.1L-144.2,-129.9L-139.3,-139.3L-133.4,-148.2L-126.7,-156.5L-119.2,-164.1L-110.9,-170.8L-102.0,-176.7L-92.5,-181.5L-82.5,-185.3L-72.2,-188.0L-61.6,-189.7L-51.0,-190.3L-40.4,-189.9L-29.9,-188.5L-19.6,-186.4L-9.6,-183.5L-0.0,-180.0L9.2,-176.0L18.0,-171.6L26.5,-167.0L34.5,-162.3L42.2,-157.5L49.6,-152.7L56.8,-148.1L63.9,-143.6L71.0,-139.3L78.0,-135.1L85.1,-131.1L92.4,-127.2L99.8,-123.3L107.5,-119.3L115.3,-115.3L123.3,-111.0L131.4,-106.4L139.6,-101.4L147.8,-96.0L155.9,-90.0L163.7,-83.4L171.2,-76.2L178.2,-68.4L184.6,-60.0L190.3,-51.0L195.1,-41.5L198.9,-31.5L201.7,-21.2L203.4,-10.7L204.0,-0.0Z" fill="none" stroke="#e3f7f5" stroke-width="2" stroke-linecap="round" opacity="0.95"/>
<path d="M203.9,0.0L204.9,10.7L204.7,21.5L203.4,32.2L201.0,42.7L197.4,52.9L192.9,62.7L187.3,71.9L180.9,80.6L173.8,88.6L166.1,95.9L157.8,102.5L149.3,108.5L140.5,113.7L131.5,118.4L122.6,122.6L113.8,126.3L105.0,129.7L96.5,132.8L88.2,135.8L80.0,138.6L72.1,141.5L64.3,144.5L56.6,147.5L49.0,150.8L41.3,154.2L33.5,157.7L25.6,161.3L17.3,165.0L8.8,168.7L0.0,172.2L-9.2,175.5L-18.8,178.5L-28.7,181.0L-38.9,182.9L-49.3,184.1L-59.9,184.5L-70.6,184.0L-81.3,182.6L-91.8,180.1L-102.0,176.6L-111.8,172.1L-121.0,166.6L-129.6,160.1L-137.5,152.7L-144.5,144.5L-150.7,135.7L-155.9,126.3L-160.2,116.4L-163.6,106.2L-166.1,95.9L-167.7,85.4L-168.6,75.0L-168.7,64.8L-168.3,54.7L-167.5,44.9L-166.3,35.3L-164.8,26.1L-163.3,17.2L-161.7,8.5L-160.1,0.0L-158.6,-8.3L-157.3,-16.5L-156.1,-24.7L-155.1,-33.0L-154.2,-41.3L-153.3,-49.8L-152.5,-58.5L-151.6,-67.5L-150.5,-76.7L-149.2,-86.1L-147.4,-95.7L-145.2,-105.5L-142.4,-115.3L-139.0,-125.1L-134.8,-134.8L-129.8,-144.2L-124.0,-153.2L-117.5,-161.7L-110.1,-169.5L-102.0,-176.6L-93.2,-182.8L-83.7,-188.1L-73.8,-192.3L-63.5,-195.4L-52.9,-197.4L-42.2,-198.4L-31.4,-198.2L-20.7,-197.0L-10.2,-194.8L-0.0,-191.8L9.9,-188.0L19.3,-183.5L28.3,-178.5L36.8,-173.1L44.9,-167.5L52.5,-161.7L59.8,-155.8L66.8,-150.0L73.5,-144.2L80.0,-138.6L86.5,-133.2L92.9,-127.9L99.5,-122.8L106.1,-117.8L112.9,-112.9L119.8,-107.9L126.9,-102.8L134.2,-97.5L141.7,-92.0L149.2,-86.1L156.6,-79.8L164.0,-73.0L171.1,-65.7L177.8,-57.8L184.1,-49.3L189.8,-40.3L194.7,-30.8L198.7,-20.9L201.9,-10.6L203.9,-0.0Z" fill="none" stroke="#effbe9" stroke-width="2" stroke-linecap="round" opacity="0.95"/>
<path d="M200.1,0.0L202.4,10.6L203.7,21.4L203.9,32.3L202.9,43.1L200.9,53.8L197.7,64.2L193.4,74.2L188.1,83.8L181.9,92.7L174.8,100.9L167.0,108.4L158.6,115.2L149.7,121.2L140.4,126.5L131.0,131.0L121.4,134.9L111.9,138.2L102.4,141.0L93.1,143.4L84.0,145.4L75.1,147.3L66.4,149.1L57.9,150.9L49.6,152.7L41.4,154.6L33.3,156.6L25.2,158.8L16.9,161.2L8.6,163.6L0.0,166.2L-8.8,168.7L-18.0,171.1L-27.4,173.2L-37.2,175.1L-47.3,176.5L-57.6,177.4L-68.2,177.6L-78.8,177.0L-89.5,175.6L-100.0,173.3L-110.4,170.0L-120.4,165.7L-129.9,160.4L-138.8,154.2L-147.1,147.1L-154.5,139.1L-161.0,130.4L-166.6,121.0L-171.2,111.2L-174.8,100.9L-177.4,90.4L-179.1,79.7L-179.8,69.0L-179.7,58.4L-178.9,47.9L-177.5,37.7L-175.6,27.8L-173.3,18.2L-170.7,8.9L-167.9,0.0L-165.1,-8.7L-162.3,-17.1L-159.6,-25.3L-157.0,-33.4L-154.6,-41.4L-152.3,-49.5L-150.1,-57.6L-148.1,-65.9L-146.0,-74.4L-143.9,-83.1L-141.6,-92.0L-139.2,-101.1L-136.3,-110.4L-133.0,-119.8L-129.2,-129.2L-124.8,-138.6L-119.7,-147.8L-113.9,-156.8L-107.3,-165.3L-100.0,-173.3L-92.0,-180.6L-83.3,-187.1L-74.0,-192.7L-64.1,-197.3L-53.8,-200.9L-43.2,-203.3L-32.4,-204.6L-21.5,-204.8L-10.7,-203.8L-0.0,-201.8L10.4,-198.8L20.5,-194.9L30.1,-190.2L39.3,-184.9L47.9,-178.9L56.1,-172.6L63.7,-166.0L70.9,-159.2L77.6,-152.3L84.0,-145.4L90.1,-138.7L95.9,-132.0L101.7,-125.6L107.4,-119.3L113.2,-113.2L119.0,-107.1L125.0,-101.2L131.1,-95.3L137.4,-89.3L143.9,-83.1L150.5,-76.7L157.1,-70.0L163.7,-62.9L170.2,-55.3L176.5,-47.3L182.4,-38.8L187.9,-29.8L192.7,-20.3L196.8,-10.3L200.1,-0.0Z" fill="none" stroke="#e3f7f5" stroke-width="2" stroke-linecap="round" opacity="0.95"/>
<path d="M193.4,0.0L196.6,10.3L199.0,20.9L200.5,31.8L200.9,42.7L200.3,53.7L198.6,64.5L195.8,75.2L191.8,85.4L186.8,95.2L180.8,104.4L173.9,112.9L166.2,120.7L157.7,127.7L148.7,133.9L139.2,139.2L129.4,143.7L119.4,147.5L109.3,150.5L99.3,152.8L89.3,154.7L79.5,156.0L69.9,157.0L60.6,157.8L51.5,158.4L42.6,159.0L33.9,159.6L25.4,160.3L16.9,161.1L8.5,162.1L0.0,163.2L-8.6,164.4L-17.4,165.7L-26.4,166.9L-35.7,168.1L-45.3,169.1L-55.2,169.8L-65.3,170.1L-75.7,169.9L-86.1,169.1L-96.7,167.5L-107.2,165.1L-117.6,161.9L-127.7,157.7L-137.5,152.7L-146.6,146.6L-155.2,139.7L-163.0,132.0L-169.9,123.4L-175.9,114.2L-180.8,104.4L-184.8,94.2L-187.7,83.6L-189.5,72.7L-190.3,61.8L-190.2,51.0L-189.2,40.2L-187.4,29.7L-185.0,19.4L-182.0,9.5L-178.6,0.0L-174.9,-9.2L-171.0,-18.0L-166.9,-26.4L-162.9,-34.6L-159.0,-42.6L-155.2,-50.4L-151.5,-58.2L-148.0,-65.9L-144.6,-73.7L-141.3,-81.6L-138.1,-89.7L-134.8,-97.9L-131.4,-106.4L-127.7,-115.0L-123.8,-123.8L-119.5,-132.7L-114.7,-141.6L-109.3,-150.5L-103.3,-159.1L-96.7,-167.5L-89.4,-175.4L-81.4,-182.8L-72.7,-189.5L-63.5,-195.4L-53.7,-200.3L-43.4,-204.3L-32.8,-207.1L-22.0,-208.8L-11.0,-209.4L-0.0,-208.8L10.9,-207.1L21.5,-204.3L31.8,-200.5L41.6,-195.7L51.0,-190.2L59.8,-183.9L68.0,-177.2L75.7,-169.9L82.7,-162.4L89.3,-154.7L95.4,-146.9L101.0,-139.1L106.4,-131.4L111.5,-123.8L116.4,-116.4L121.3,-109.2L126.1,-102.1L131.1,-95.2L136.1,-88.4L141.3,-81.6L146.7,-74.7L152.2,-67.8L157.8,-60.6L163.5,-53.1L169.1,-45.3L174.7,-37.1L180.0,-28.5L185.0,-19.4L189.5,-9.9L193.4,-0.0Z" fill="none" stroke="#effbe9" stroke-width="2" stroke-linecap="round" opacity="0.95"/>
</svg>