<svg xmlns="http://www.w3.org/2000/svg" viewBox="-250 -250 500 500">
<rect x="-250" y="-250" width="500" height="500" fill="#fe39ac"/>
<path d="M78.0,0.0L77.9,4.1L77.6,8.2L77.0,12.2L60.6,12.9L59.9,16.0L59.0,19.2L57.9,22.2L56.6,25.2L55.2,28.1L53.7,31.0L65.4,42.5L63.1,45.8L60.6,49.1L58.0,52.2L55.2,55.2L52.2,58.0L39.0,48.2L36.4,50.2L33.8,52.0L31.0,53.7L28.1,55.2L25.2,56.6L22.2,57.9L24.1,74.2L20.2,75.3L16.2,76.3L12.2,77.0L8.2,77.6L4.1,77.9L0.0,78.0L-3.2,61.9L-6.5,61.7L-9.7,61.2L-12.9,60.6L-16.0,59.9L-19.2,59.0L-28.0,72.8L-31.7,71.3L-35.4,69.5L-39.0,67.5L-42.5,65.4L-45.8,63.1L-49.1,60.6L-41.5,46.1L-43.8,43.8L-46.1,41.5L-48.2,39.0L-50.2,36.4L-52.0,33.8L-67.5,39.0L-69.5,35.4L-71.3,31.7L-72.8,28.0L-74.2,24.1L-75.3,20.2L-76.3,16.2L-61.2,9.7L-61.7,6.5L-61.9,3.2L-62.0,0.0L-61.9,-3.2L-61.7,-6.5L-61.2,-9.7L-76.3,-16.2L-75.3,-20.2L-74.2,-24.1L-72.8,-28.0L-71.3,-31.7L-69.5,-35.4L-53.7,-31.0L-52.0,-33.8L-50.2,-36.4L-48.2,-39.0L-46.1,-41.5L-43.8,-43.8L-41.5,-46.1L-49.1,-60.6L-45.8,-63.1L-42.5,-65.4L-39.0,-67.5L-35.4,-69.5L-31.7,-71.3L-28.0,-72.8L-19.2,-59.0L-16.0,-59.9L-12.9,-60.6L-9.7,-61.2L-6.5,-61.7L-3.2,-61.9L-0.0,-62.0L4.1,-77.9L8.2,-77.6L12.2,-77.0L16.2,-76.3L20.2,-75.3L24.1,-74.2L22.2,-57.9L25.2,-56.6L28.1,-55.2L31.0,-53.7L33.8,-52.0L36.4,-50.2L39.0,-48.2L52.2,-58.0L55.2,-55.2L58.0,-52.2L60.6,-49.1L63.1,-45.8L65.4,-42.5L67.5,-39.0L55.2,-28.1L56.6,-25.2L57.9,-22.2L59.0,-19.2L59.9,-16.0L60.6,-12.9L77.0,-12.2L77.6,-8.2L77.9,-4.1L78.0,-0.0Z" fill="none" stroke="#e8c6f1" stroke-width="3.6" stroke-linecap="round" opacity="0.95"/><path d="M55.7,0.0L55.6,2.9L55.4,5.8L55.0,8.7L54.5,11.6L53.8,14.4L53.0,17.2L66.9,25.7L65.5,29.2L63.9,32.6L62.1,35.8L60.1,39.1L58.0,42.1L43.3,35.1L41.4,37.3L39.4,39.4L37.3,41.4L35.1,43.3L32.7,45.1L30.3,46.7L35.9,62.1L32.6,63.9L29.2,65.5L25.7,66.9L22.2,68.2L18.6,69.3L14.9,70.1L8.7,55.0L5.8,55.4L2.9,55.6L0.0,55.7L-2.9,55.6L-5.8,55.4L-11.2,70.8L-14.9,70.1L-18.6,69.3L-22.2,68.2L-25.7,66.9L-29.2,65.5L-32.6,63.9L-27.8,48.2L-30.3,46.7L-32.7,45.1L-35.1,43.3L-37.3,41.4L-39.4,39.4L-41.4,37.3L-55.7,45.1L-58.0,42.1L-60.1,39.1L-62.1,35.8L-63.9,32.6L-65.5,29.2L-52.0,20.0L-53.0,17.2L-53.8,14.4L-54.5,11.6L-55.0,8.7L-55.4,5.8L-55.6,2.9L-71.7,0.0L-71.6,-3.8L-71.3,-7.5L-70.8,-11.2L-70.1,-14.9L-69.3,-18.6L-68.2,-22.2L-52.0,-20.0L-50.9,-22.7L-49.6,-25.3L-48.2,-27.9L-46.7,-30.3L-45.1,-32.7L-55.7,-45.1L-53.3,-48.0L-50.7,-50.7L-48.0,-53.3L-45.1,-55.7L-42.1,-58.0L-39.1,-60.1L-27.9,-48.2L-25.3,-49.6L-22.7,-50.9L-20.0,-52.0L-17.2,-53.0L-14.4,-53.8L-11.6,-54.5L-11.2,-70.8L-7.5,-71.3L-3.8,-71.6L-0.0,-71.7L3.8,-71.6L7.5,-71.3L8.7,-55.0L11.6,-54.5L14.4,-53.8L17.2,-53.0L20.0,-52.0L22.7,-50.9L25.3,-49.6L35.9,-62.1L39.1,-60.1L42.1,-58.0L45.1,-55.7L48.0,-53.3L50.7,-50.7L53.3,-48.0L43.3,-35.1L45.1,-32.7L46.7,-30.3L48.2,-27.9L49.6,-25.3L50.9,-22.7L66.9,-25.7L68.2,-22.2L69.3,-18.6L70.1,-14.9L70.8,-11.2L71.3,-7.5L71.6,-3.8L55.7,-0.0Z" fill="none" stroke="#dcf5e5" stroke-width="3.6" stroke-linecap="round" opacity="0.95"/>
</svg>