<svg xmlns="http://www.w3.org/2000/svg" viewBox="-250 -250 500 500">
<defs><filter id="tg"><feGaussianBlur stdDeviation="7.5"/></filter></defs>
<rect x="-250" y="-250" width="500" height="500" fill="#1b0818"/>
<path d="M116.2,0.0L115.8,6.1L114.5,12.0L112.4,17.8L109.6,23.3L106.1,28.4L102.1,33.2L97.5,37.4L92.6,41.2L87.4,44.5L82.0,47.4L76.6,49.8L71.3,51.8L66.0,53.5L61.0,54.9L56.2,56.2L51.8,57.5L47.6,58.8L43.7,60.1L40.0,61.7L36.6,63.4L33.4,65.5L30.2,67.9L27.1,70.6L23.9,73.6L20.6,76.8L17.1,80.3L13.3,83.9L9.2,87.6L4.8,91.2L0.0,94.7L-5.1,97.9L-10.6,100.8L-16.3,103.2L-22.3,105.0L-28.4,106.1L-34.6,106.6L-40.8,106.3L-46.8,105.2L-52.6,103.3L-58.1,100.6L-63.1,97.2L-67.7,93.1L-71.6,88.5L-75.0,83.3L-77.7,77.7L-79.8,71.8L-81.2,65.7L-82.0,59.6L-82.3,53.4L-82.0,47.4L-81.4,41.5L-80.5,35.8L-79.3,30.5L-78.1,25.4L-76.8,20.6L-75.7,16.1L-74.7,11.8L-73.9,7.8L-73.4,3.8L-73.3,0.0L-73.4,-3.8L-73.9,-7.8L-74.7,-11.8L-75.7,-16.1L-76.8,-20.6L-78.1,-25.4L-79.3,-30.5L-80.5,-35.8L-81.4,-41.5L-82.0,-47.4L-82.3,-53.4L-82.0,-59.6L-81.2,-65.7L-79.8,-71.8L-77.7,-77.7L-75.0,-83.3L-71.6,-88.5L-67.7,-93.1L-63.1,-97.2L-58.1,-100.6L-52.6,-103.3L-46.8,-105.2L-40.8,-106.3L-34.6,-106.6L-28.4,-106.1L-22.3,-105.0L-16.3,-103.2L-10.6,-100.8L-5.1,-97.9L-0.0,-94.7L4.8,-91.2L9.2,-87.6L13.3,-83.9L17.1,-80.3L20.6,-76.8L23.9,-73.6L27.1,-70.6L30.2,-67.9L33.4,-65.5L36.6,-63.4L40.0,-61.7L43.7,-60.1L47.6,-58.8L51.8,-57.5L56.2,-56.2L61.0,-54.9L66.0,-53.5L71.3,-51.8L76.6,-49.8L82.0,-47.4L87.4,-44.5L92.6,-41.2L97.5,-37.4L102.1,-33.2L106.1,-28.4L109.6,-23.3L112.4,-17.8L114.5,-12.0L115.8,-6.1L116.2,-0.0Z" fill="none" stroke="#fdbfd5" stroke-width="4.5" stroke-linecap="round" opacity="0.19" filter="url(#tg)"/><path d="M116.2,0.0L115.8,6.1L114.5,12.0L112.4,17.8L109.6,23.3L106.1,28.4L102.1,33.2L97.5,37.4L92.6,41.2L87.4,44.5L82.0,47.4L76.6,49.8L71.3,51.8L66.0,53.5L61.0,54.9L56.2,56.2L51.8,57.5L47.6,58.8L43.7,60.1L40.0,61.7L36.6,63.4L33.4,65.5L30.2,67.9L27.1,70.6L23.9,73.6L20.6,76.8L17.1,80.3L13.3,83.9L9.2,87.6L4.8,91.2L0.0,94.7L-5.1,97.9L-10.6,100.8L-16.3,103.2L-22.3,105.0L-28.4,106.1L-34.6,106.6L-40.8,106.3L-46.8,105.2L-52.6,103.3L-58.1,100.6L-63.1,97.2L-67.7,93.1L-71.6,88.5L-75.0,83.3L-77.7,77.7L-79.8,71.8L-81.2,65.7L-82.0,59.6L-82.3,53.4L-82.0,47.4L-81.4,41.5L-80.5,35.8L-79.3,30.5L-78.1,25.4L-76.8,20.6L-75.7,16.1L-74.7,11.8L-73.9,7.8L-73.4,3.8L-73.3,0.0L-73.4,-3.8L-73.9,-7.8L-74.7,-11.8L-75.7,-16.1L-76.8,-20.6L-78.1,-25.4L-79.3,-30.5L-80.5,-35.8L-81.4,-41.5L-82.0,-47.4L-82.3,-53.4L-82.0,-59.6L-81.2,-65.7L-79.8,-71.8L-77.7,-77.7L-75.0,-83.3L-71.6,-88.5L-67.7,-93.1L-63.1,-97.2L-58.1,-100.6L-52.6,-103.3L-46.8,-105.2L-40.8,-106.3L-34.6,-106.6L-28.4,-106.1L-22.3,-105.0L-16.3,-103.2L-10.6,-100.8L-5.1,-97.9L-0.0,-94.7L4.8,-91.2L9.2,-87.6L13.3,-83.9L17.1,-80.3L20.6,-76.8L23.9,-73.6L27.1,-70.6L30.2,-67.9L33.4,-65.5L36.6,-63.4L40.0,-61.7L43.7,-60.1L47.6,-58.8L51.8,-57.5L56.2,-56.2L61.0,-54.9L66.0,-53.5L71.3,-51.8L76.6,-49.8L82.0,-47.4L87.4,-44.5L92.6,-41.2L97.5,-37.4L102.1,-33.2L106.1,-28.4L109.6,-23.3L112.4,-17.8L114.5,-12.0L115.8,-6.1L116.2,-0.0Z" fill="none" stroke="#fdbfd5" stroke-width="1.5" stroke-linecap="round" opacity="0.95"/><path d="M89.9,0.0L93.1,4.9L96.1,10.1L98.7,15.6L100.8,21.4L102.4,27.4L103.3,33.6L103.5,39.7L102.9,45.8L101.6,51.8L99.5,57.5L96.7,62.8L93.1,67.7L88.9,72.0L84.1,75.7L78.9,78.9L73.2,81.3L67.3,83.1L61.2,84.2L55.0,84.7L48.9,84.6L42.9,84.1L37.0,83.2L31.4,81.9L26.1,80.5L21.1,78.9L16.4,77.3L12.0,75.9L7.8,74.6L3.9,73.5L0.0,72.7L-3.8,72.3L-7.6,72.2L-11.5,72.4L-15.5,72.8L-19.7,73.6L-24.2,74.4L-28.9,75.4L-34.0,76.4L-39.3,77.2L-45.0,77.9L-50.8,78.2L-56.8,78.2L-62.9,77.7L-69.0,76.6L-74.9,74.9L-80.7,72.7L-86.2,69.8L-91.2,66.2L-95.7,62.1L-99.5,57.5L-102.7,52.3L-105.2,46.8L-106.8,41.0L-107.7,35.0L-107.7,28.9L-107.0,22.7L-105.6,16.7L-103.5,10.9L-100.9,5.3L-97.7,0.0L-94.3,-4.9L-90.5,-9.5L-86.7,-13.7L-82.7,-17.6L-78.9,-21.1L-75.2,-24.4L-71.7,-27.5L-68.5,-30.5L-65.6,-33.4L-63.0,-36.4L-60.7,-39.4L-58.7,-42.6L-56.9,-46.1L-55.3,-49.8L-53.8,-53.8L-52.4,-58.2L-50.8,-62.8L-49.1,-67.6L-47.2,-72.7L-45.0,-77.9L-42.3,-83.1L-39.3,-88.3L-35.8,-93.3L-31.9,-98.0L-27.4,-102.4L-22.6,-106.2L-17.3,-109.5L-11.8,-112.1L-6.0,-113.9L-0.0,-114.9L6.0,-115.1L12.0,-114.5L17.9,-113.0L23.5,-110.7L28.9,-107.7L33.8,-104.0L38.3,-99.8L42.3,-95.1L45.9,-90.0L48.9,-84.6L51.4,-79.2L53.5,-73.6L55.2,-68.2L56.6,-62.9L57.8,-57.8L58.8,-52.9L59.7,-48.3L60.7,-44.1L61.7,-40.1L63.0,-36.4L64.5,-32.9L66.3,-29.5L68.4,-26.3L70.8,-23.0L73.6,-19.7L76.6,-16.3L79.8,-12.6L83.1,-8.7L86.5,-4.5L89.9,-0.0Z" fill="none" stroke="#e6c2e4" stroke-width="4.5" stroke-linecap="round" opacity="0.19" filter="url(#tg)"/><path d="M89.9,0.0L93.1,4.9L96.1,10.1L98.7,15.6L100.8,21.4L102.4,27.4L103.3,33.6L103.5,39.7L102.9,45.8L101.6,51.8L99.5,57.5L96.7,62.8L93.1,67.7L88.9,72.0L84.1,75.7L78.9,78.9L73.2,81.3L67.3,83.1L61.2,84.2L55.0,84.7L48.9,84.6L42.9,84.1L37.0,83.2L31.4,81.9L26.1,80.5L21.1,78.9L16.4,77.3L12.0,75.9L7.8,74.6L3.9,73.5L0.0,72.7L-3.8,72.3L-7.6,72.2L-11.5,72.4L-15.5,72.8L-19.7,73.6L-24.2,74.4L-28.9,75.4L-34.0,76.4L-39.3,77.2L-45.0,77.9L-50.8,78.2L-56.8,78.2L-62.9,77.7L-69.0,76.6L-74.9,74.9L-80.7,72.7L-86.2,69.8L-91.2,66.2L-95.7,62.1L-99.5,57.5L-102.7,52.3L-105.2,46.8L-106.8,41.0L-107.7,35.0L-107.7,28.9L-107.0,22.7L-105.6,16.7L-103.5,10.9L-100.9,5.3L-97.7,0.0L-94.3,-4.9L-90.5,-9.5L-86.7,-13.7L-82.7,-17.6L-78.9,-21.1L-75.2,-24.4L-71.7,-27.5L-68.5,-30.5L-65.6,-33.4L-63.0,-36.4L-60.7,-39.4L-58.7,-42.6L-56.9,-46.1L-55.3,-49.8L-53.8,-53.8L-52.4,-58.2L-50.8,-62.8L-49.1,-67.6L-47.2,-72.7L-45.0,-77.9L-42.3,-83.1L-39.3,-88.3L-35.8,-93.3L-31.9,-98.0L-27.4,-102.4L-22.6,-106.2L-17.3,-109.5L-11.8,-112.1L-6.0,-113.9L-0.0,-114.9L6.0,-115.1L12.0,-114.5L17.9,-113.0L23.5,-110.7L28.9,-107.7L33.8,-104.0L38.3,-99.8L42.3,-95.1L45.9,-90.0L48.9,-84.6L51.4,-79.2L53.5,-73.6L55.2,-68.2L56.6,-62.9L57.8,-57.8L58.8,-52.9L59.7,-48.3L60.7,-44.1L61.7,-40.1L63.0,-36.4L64.5,-32.9L66.3,-29.5L68.4,-26.3L70.8,-23.0L73.6,-19.7L76.6,-16.3L79.8,-12.6L83.1,-8.7L86.5,-4.5L89.9,-0.0Z" fill="none" stroke="#e6c2e4" stroke-width="1.5" stroke-linecap="round" opacity="0.95"/><path d="M72.9,0.0L71.9,3.8L71.1,7.5L70.7,11.2L70.6,15.0L70.8,19.0L71.3,23.2L71.9,27.6L72.6,32.3L73.3,37.3L73.8,42.6L74.2,48.2L74.3,54.0L74.0,59.9L73.2,65.9L71.9,71.9L70.0,77.8L67.5,83.4L64.4,88.7L60.7,93.5L56.5,97.8L51.7,101.5L46.5,104.5L41.0,106.7L35.1,108.1L29.1,108.7L23.1,108.5L17.0,107.6L11.1,105.9L5.4,103.5L0.0,100.6L-5.1,97.3L-9.8,93.6L-14.2,89.6L-18.2,85.5L-21.8,81.3L-25.1,77.3L-28.2,73.4L-31.0,69.7L-33.8,66.3L-36.5,63.1L-39.2,60.3L-42.0,57.9L-45.1,55.6L-48.3,53.7L-51.9,51.9L-55.7,50.1L-59.8,48.5L-64.3,46.7L-69.0,44.8L-73.8,42.6L-78.8,40.2L-83.9,37.3L-88.9,34.1L-93.7,30.4L-98.2,26.3L-102.3,21.8L-106.0,16.8L-109.0,11.5L-111.4,5.8L-113.0,0.0L-113.8,-6.0L-113.7,-12.0L-112.9,-17.9L-111.2,-23.6L-108.7,-29.1L-105.5,-34.3L-101.7,-39.0L-97.2,-43.3L-92.4,-47.1L-87.2,-50.3L-81.7,-53.1L-76.1,-55.3L-70.5,-57.1L-64.9,-58.5L-59.5,-59.5L-54.4,-60.4L-49.5,-61.1L-44.8,-61.7L-40.5,-62.4L-36.5,-63.1L-32.7,-64.1L-29.1,-65.3L-25.7,-66.8L-22.3,-68.7L-19.0,-70.8L-15.6,-73.3L-12.0,-76.0L-8.3,-79.0L-4.3,-82.1L-0.0,-85.3L4.6,-88.4L9.6,-91.3L14.9,-94.0L20.5,-96.3L26.3,-98.2L32.3,-99.5L38.5,-100.2L44.6,-100.1L50.6,-99.4L56.5,-97.8L62.1,-95.6L67.2,-92.5L71.9,-88.8L76.1,-84.5L79.6,-79.6L82.4,-74.2L84.6,-68.5L86.1,-62.6L86.9,-56.5L87.2,-50.3L86.8,-44.2L85.9,-38.3L84.7,-32.5L83.1,-27.0L81.3,-21.8L79.5,-16.9L77.6,-12.3L75.8,-8.0L74.3,-3.9L72.9,-0.0Z" fill="none" stroke="#cfc5f4" stroke-width="4.5" stroke-linecap="round" opacity="0.19" filter="url(#tg)"/><path d="M72.9,0.0L71.9,3.8L71.1,7.5L70.7,11.2L70.6,15.0L70.8,19.0L71.3,23.2L71.9,27.6L72.6,32.3L73.3,37.3L73.8,42.6L74.2,48.2L74.3,54.0L74.0,59.9L73.2,65.9L71.9,71.9L70.0,77.8L67.5,83.4L64.4,88.7L60.7,93.5L56.5,97.8L51.7,101.5L46.5,104.5L41.0,106.7L35.1,108.1L29.1,108.7L23.1,108.5L17.0,107.6L11.1,105.9L5.4,103.5L0.0,100.6L-5.1,97.3L-9.8,93.6L-14.2,89.6L-18.2,85.5L-21.8,81.3L-25.1,77.3L-28.2,73.4L-31.0,69.7L-33.8,66.3L-36.5,63.1L-39.2,60.3L-42.0,57.9L-45.1,55.6L-48.3,53.7L-51.9,51.9L-55.7,50.1L-59.8,48.5L-64.3,46.7L-69.0,44.8L-73.8,42.6L-78.8,40.2L-83.9,37.3L-88.9,34.1L-93.7,30.4L-98.2,26.3L-102.3,21.8L-106.0,16.8L-109.0,11.5L-111.4,5.8L-113.0,0.0L-113.8,-6.0L-113.7,-12.0L-112.9,-17.9L-111.2,-23.6L-108.7,-29.1L-105.5,-34.3L-101.7,-39.0L-97.2,-43.3L-92.4,-47.1L-87.2,-50.3L-81.7,-53.1L-76.1,-55.3L-70.5,-57.1L-64.9,-58.5L-59.5,-59.5L-54.4,-60.4L-49.5,-61.1L-44.8,-61.7L-40.5,-62.4L-36.5,-63.1L-32.7,-64.1L-29.1,-65.3L-25.7,-66.8L-22.3,-68.7L-19.0,-70.8L-15.6,-73.3L-12.0,-76.0L-8.3,-79.0L-4.3,-82.1L-0.0,-85.3L4.6,-88.4L9.6,-91.3L14.9,-94.0L20.5,-96.3L26.3,-98.2L32.3,-99.5L38.5,-100.2L44.6,-100.1L50.6,-99.4L56.5,-97.8L62.1,-95.6L67.2,-92.5L71.9,-88.8L76.1,-84.5L79.6,-79.6L82.4,-74.2L84.6,-68.5L86.1,-62.6L86.9,-56.5L87.2,-50.3L86.8,-44.2L85.9,-38.3L84.7,-32.5L83.1,-27.0L81.3,-21.8L79.5,-16.9L77.6,-12.3L75.8,-8.0L74.3,-3.9L72.9,-0.0Z" fill="none" stroke="#cfc5f4" stroke-width="1.5" stroke-linecap="round" opacity="0.95"/>
</svg>