<svg xmlns="http://www.w3.org/2000/svg" viewBox="-250 -250 500 500">
<rect x="-250" y="-250" width="500" height="500" fill="#0a1a28"/>
<path d="M213.0,0.0L212.2,11.1L210.0,22.1L206.3,32.7L201.2,42.8L195.0,52.2L187.7,61.0L179.5,68.9L170.6,76.0L161.2,82.1L151.6,87.5L141.8,92.1L132.1,96.0L122.6,99.3L113.5,102.2L104.7,104.7L96.5,107.2L88.8,109.7L81.6,112.3L74.9,115.3L68.5,118.6L62.4,122.5L56.5,126.9L50.6,131.8L44.6,137.2L38.3,143.1L31.7,149.3L24.7,155.8L17.1,162.4L8.8,168.8L0.0,175.0L-9.5,180.7L-19.5,185.7L-30.1,189.9L-41.0,193.0L-52.2,195.0L-63.6,195.7L-74.8,195.0L-85.9,192.9L-96.5,189.4L-106.5,184.5L-115.8,178.2L-124.1,170.8L-131.4,162.3L-137.7,152.9L-142.7,142.7L-146.6,132.0L-149.4,121.0L-151.1,109.8L-151.8,98.5L-151.6,87.5L-150.6,76.7L-149.1,66.4L-147.3,56.5L-145.2,47.2L-143.1,38.3L-141.1,30.0L-139.4,22.1L-138.1,14.5L-137.3,7.2L-137.0,0.0L-137.3,-7.2L-138.1,-14.5L-139.4,-22.1L-141.1,-30.0L-143.1,-38.3L-145.2,-47.2L-147.3,-56.5L-149.1,-66.4L-150.6,-76.7L-151.6,-87.5L-151.8,-98.5L-151.1,-109.8L-149.4,-121.0L-146.6,-132.0L-142.7,-142.7L-137.7,-152.9L-131.4,-162.3L-124.1,-170.8L-115.8,-178.2L-106.5,-184.5L-96.5,-189.4L-85.9,-192.9L-74.8,-195.0L-63.6,-195.7L-52.2,-195.0L-41.0,-193.0L-30.1,-189.9L-19.5,-185.7L-9.5,-180.7L-0.0,-175.0L8.8,-168.8L17.1,-162.4L24.7,-155.8L31.7,-149.3L38.3,-143.1L44.6,-137.2L50.6,-131.8L56.5,-126.9L62.4,-122.5L68.5,-118.6L74.9,-115.3L81.6,-112.3L88.8,-109.7L96.5,-107.2L104.7,-104.7L113.5,-102.2L122.6,-99.3L132.1,-96.0L141.8,-92.1L151.6,-87.5L161.2,-82.1L170.6,-76.0L179.5,-68.9L187.7,-61.0L195.0,-52.2L201.2,-42.8L206.3,-32.7L210.0,-22.1L212.2,-11.1L213.0,-0.0Z" fill="none" stroke="#ddecff" stroke-width="2.4" stroke-linecap="round" opacity="0.95"/>
<path d="M211.1,0.0L212.2,11.1L211.8,22.3L209.9,33.2L206.5,43.9L201.7,54.1L195.7,63.6L188.5,72.3L180.3,80.3L171.3,87.3L161.7,93.4L151.8,98.5L141.6,102.9L131.4,106.4L121.3,109.2L111.5,111.5L102.2,113.5L93.2,115.1L84.8,116.7L76.9,118.4L69.4,120.3L62.4,122.5L55.7,125.2L49.3,128.3L42.9,132.1L36.5,136.3L30.0,141.1L23.2,146.3L16.0,151.8L8.3,157.5L0.0,163.3L-8.8,168.8L-18.3,174.0L-28.3,178.7L-38.8,182.7L-49.8,185.7L-61.0,187.7L-72.3,188.5L-83.7,188.0L-94.8,186.1L-105.6,182.9L-115.8,178.2L-125.2,172.3L-133.8,165.2L-141.3,156.9L-147.7,147.7L-152.9,137.7L-156.9,127.0L-159.6,116.0L-161.2,104.7L-161.7,93.4L-161.2,82.1L-159.9,71.2L-157.8,60.6L-155.3,50.4L-152.4,40.8L-149.3,31.7L-146.3,23.2L-143.5,15.1L-140.9,7.4L-138.9,0.0L-137.3,-7.2L-136.2,-14.3L-135.8,-21.5L-135.8,-28.9L-136.3,-36.5L-137.2,-44.6L-138.3,-53.1L-139.5,-62.1L-140.6,-71.6L-141.4,-81.6L-141.8,-92.1L-141.6,-102.9L-140.6,-113.9L-138.8,-125.0L-135.9,-135.9L-132.0,-146.6L-127.0,-156.9L-120.9,-166.4L-113.8,-175.2L-105.6,-182.9L-96.5,-189.4L-86.6,-194.6L-76.2,-198.4L-65.2,-200.8L-54.1,-201.7L-42.8,-201.2L-31.6,-199.4L-20.6,-196.3L-10.1,-192.0L-0.0,-186.7L9.5,-180.7L18.3,-174.0L26.4,-167.0L33.9,-159.7L40.8,-152.4L47.2,-145.2L53.1,-138.3L58.7,-131.8L64.1,-125.8L69.4,-120.3L74.9,-115.3L80.5,-110.8L86.5,-106.8L92.9,-103.2L99.8,-99.8L107.2,-96.5L115.1,-93.2L123.5,-89.7L132.3,-85.9L141.4,-81.6L150.6,-76.7L159.9,-71.2L168.9,-64.8L177.6,-57.7L185.7,-49.8L193.0,-41.0L199.4,-31.6L204.6,-21.5L208.6,-10.9L211.1,-0.0Z" fill="none" stroke="#ddfbf1" stroke-width="2.4" stroke-linecap="round" opacity="0.95"/>
<path d="M205.7,0.0L208.6,10.9L210.0,22.1L209.9,33.2L208.3,44.3L205.3,55.0L200.8,65.2L195.0,74.8L188.0,83.7L179.9,91.6L170.9,98.7L161.2,104.7L151.1,109.8L140.6,113.9L130.1,117.1L119.5,119.5L109.2,121.3L99.3,122.6L89.7,123.5L80.7,124.2L72.1,124.9L64.1,125.8L56.5,126.9L49.3,128.3L42.3,130.3L35.6,132.8L28.9,135.8L22.1,139.4L15.1,143.5L7.8,147.9L0.0,152.7L-8.3,157.5L-17.1,162.4L-26.4,167.0L-36.4,171.2L-46.8,174.8L-57.7,177.6L-68.9,179.5L-80.3,180.3L-91.6,179.9L-102.9,178.2L-113.8,175.2L-124.1,170.8L-133.8,165.2L-142.5,158.3L-150.3,150.3L-156.9,141.3L-162.3,131.4L-166.4,120.9L-169.3,109.9L-170.9,98.7L-171.3,87.3L-170.6,76.0L-168.9,64.8L-166.4,54.1L-163.3,43.8L-159.7,33.9L-155.8,24.7L-151.8,16.0L-147.9,7.8L-144.3,0.0L-140.9,-7.4L-138.1,-14.5L-135.8,-21.5L-134.0,-28.5L-132.8,-35.6L-132.1,-42.9L-131.8,-50.6L-131.8,-58.7L-132.0,-67.2L-132.2,-76.3L-132.3,-85.9L-132.1,-96.0L-131.4,-106.4L-130.1,-117.1L-127.9,-127.9L-125.0,-138.8L-121.0,-149.4L-116.0,-159.6L-109.9,-169.3L-102.9,-178.2L-94.8,-186.1L-85.9,-192.9L-76.2,-198.4L-65.8,-202.6L-55.0,-205.3L-43.9,-206.5L-32.7,-206.3L-21.5,-204.6L-10.6,-201.6L-0.0,-197.3L10.1,-192.0L19.5,-185.7L28.3,-178.7L36.4,-171.2L43.8,-163.3L50.4,-155.3L56.5,-147.3L62.1,-139.5L67.2,-132.0L72.1,-124.9L76.9,-118.4L81.6,-112.3L86.5,-106.8L91.7,-101.8L97.2,-97.2L103.2,-92.9L109.7,-88.8L116.7,-84.8L124.2,-80.7L132.2,-76.3L140.6,-71.6L149.1,-66.4L157.8,-60.6L166.4,-54.1L174.8,-46.8L182.7,-38.8L189.9,-30.1L196.3,-20.6L201.6,-10.6L205.7,-0.0Z" fill="none" stroke="#ddecff" stroke-width="2.4" stroke-linecap="round" opacity="0.95"/>
<path d="M197.3,0.0L201.6,10.6L204.6,21.5L206.3,32.7L206.5,43.9L205.3,55.0L202.6,65.8L198.4,76.2L192.9,85.9L186.1,94.8L178.2,102.9L169.3,109.9L159.6,116.0L149.4,121.0L138.8,125.0L127.9,127.9L117.1,130.1L106.4,131.4L96.0,132.1L85.9,132.3L76.3,132.2L67.2,132.0L58.7,131.8L50.6,131.8L42.9,132.1L35.6,132.8L28.5,134.0L21.5,135.8L14.5,138.1L7.4,140.9L0.0,144.3L-7.8,147.9L-16.0,151.8L-24.7,155.8L-33.9,159.7L-43.8,163.3L-54.1,166.4L-64.8,168.9L-76.0,170.6L-87.3,171.3L-98.7,170.9L-109.9,169.3L-120.9,166.4L-131.4,162.3L-141.3,156.9L-150.3,150.3L-158.3,142.5L-165.2,133.8L-170.8,124.1L-175.2,113.8L-178.2,102.9L-179.9,91.6L-180.3,80.3L-179.5,68.9L-177.6,57.7L-174.8,46.8L-171.2,36.4L-167.0,26.4L-162.4,17.1L-157.5,8.3L-152.7,0.0L-147.9,-7.8L-143.5,-15.1L-139.4,-22.1L-135.8,-28.9L-132.8,-35.6L-130.3,-42.3L-128.3,-49.3L-126.9,-56.5L-125.8,-64.1L-124.9,-72.1L-124.2,-80.7L-123.5,-89.7L-122.6,-99.3L-121.3,-109.2L-119.5,-119.5L-117.1,-130.1L-113.9,-140.6L-109.8,-151.1L-104.7,-161.2L-98.7,-170.9L-91.6,-179.9L-83.7,-188.0L-74.8,-195.0L-65.2,-200.8L-55.0,-205.3L-44.3,-208.3L-33.2,-209.9L-22.1,-210.0L-10.9,-208.6L-0.0,-205.7L10.6,-201.6L20.6,-196.3L30.1,-189.9L38.8,-182.7L46.8,-174.8L54.1,-166.4L60.6,-157.8L66.4,-149.1L71.6,-140.6L76.3,-132.2L80.7,-124.2L84.8,-116.7L88.8,-109.7L92.9,-103.2L97.2,-97.2L101.8,-91.7L106.8,-86.5L112.3,-81.6L118.4,-76.9L124.9,-72.1L132.0,-67.2L139.5,-62.1L147.3,-56.5L155.3,-50.4L163.3,-43.8L171.2,-36.4L178.7,-28.3L185.7,-19.5L192.0,-10.1L197.3,-0.0Z" fill="none" stroke="#ddfbf1" stroke-width="2.4" stroke-linecap="round" opacity="0.95"/>
<path d="M186.7,0.0L192.0,10.1L196.3,20.6L199.4,31.6L201.2,42.8L201.7,54.1L200.8,65.2L198.4,76.2L194.6,86.6L189.4,96.5L182.9,105.6L175.2,113.8L166.4,120.9L156.9,127.0L146.6,132.0L135.9,135.9L125.0,138.8L113.9,140.6L102.9,141.6L92.1,141.8L81.6,141.4L71.6,140.6L62.1,139.5L53.1,138.3L44.6,137.2L36.5,136.3L28.9,135.8L21.5,135.8L14.3,136.2L7.2,137.3L0.0,138.9L-7.4,140.9L-15.1,143.5L-23.2,146.3L-31.7,149.3L-40.8,152.4L-50.4,155.3L-60.6,157.8L-71.2,159.9L-82.1,161.2L-93.4,161.7L-104.7,161.2L-116.0,159.6L-127.0,156.9L-137.7,152.9L-147.7,147.7L-156.9,141.3L-165.2,133.8L-172.3,125.2L-178.2,115.8L-182.9,105.6L-186.1,94.8L-188.0,83.7L-188.5,72.3L-187.7,61.0L-185.7,49.8L-182.7,38.8L-178.7,28.3L-174.0,18.3L-168.8,8.8L-163.3,0.0L-157.5,-8.3L-151.8,-16.0L-146.3,-23.2L-141.1,-30.0L-136.3,-36.5L-132.1,-42.9L-128.3,-49.3L-125.2,-55.7L-122.5,-62.4L-120.3,-69.4L-118.4,-76.9L-116.7,-84.8L-115.1,-93.2L-113.5,-102.2L-111.5,-111.5L-109.2,-121.3L-106.4,-131.4L-102.9,-141.6L-98.5,-151.8L-93.4,-161.7L-87.3,-171.3L-80.3,-180.3L-72.3,-188.5L-63.6,-195.7L-54.1,-201.7L-43.9,-206.5L-33.2,-209.9L-22.3,-211.8L-11.1,-212.2L-0.0,-211.1L10.9,-208.6L21.5,-204.6L31.6,-199.4L41.0,-193.0L49.8,-185.7L57.7,-177.6L64.8,-168.9L71.2,-159.9L76.7,-150.6L81.6,-141.4L85.9,-132.3L89.7,-123.5L93.2,-115.1L96.5,-107.2L99.8,-99.8L103.2,-92.9L106.8,-86.5L110.8,-80.5L115.3,-74.9L120.3,-69.4L125.8,-64.1L131.8,-58.7L138.3,-53.1L145.2,-47.2L152.4,-40.8L159.7,-33.9L167.0,-26.4L174.0,-18.3L180.7,-9.5L186.7,-0.0Z" fill="none" stroke="#ddecff" stroke-width="2.4" stroke-linecap="round" opacity="0.95"/>
<path d="M175.0,0.0L180.7,9.5L185.7,19.5L189.9,30.1L193.0,41.0L195.0,52.2L195.7,63.6L195.0,74.8L192.9,85.9L189.4,96.5L184.5,106.5L178.2,115.8L170.8,124.1L162.3,131.4L152.9,137.7L142.7,142.7L132.0,146.6L121.0,149.4L109.8,151.1L98.5,151.8L87.5,151.6L76.7,150.6L66.4,149.1L56.5,147.3L47.2,145.2L38.3,143.1L30.0,141.1L22.1,139.4L14.5,138.1L7.2,137.3L0.0,137.0L-7.2,137.3L-14.5,138.1L-22.1,139.4L-30.0,141.1L-38.3,143.1L-47.2,145.2L-56.5,147.3L-66.4,149.1L-76.7,150.6L-87.5,151.6L-98.5,151.8L-109.8,151.1L-121.0,149.4L-132.0,146.6L-142.7,142.7L-152.9,137.7L-162.3,131.4L-170.8,124.1L-178.2,115.8L-184.5,106.5L-189.4,96.5L-192.9,85.9L-195.0,74.8L-195.7,63.6L-195.0,52.2L-193.0,41.0L-189.9,30.1L-185.7,19.5L-180.7,9.5L-175.0,0.0L-168.8,-8.8L-162.4,-17.1L-155.8,-24.7L-149.3,-31.7L-143.1,-38.3L-137.2,-44.6L-131.8,-50.6L-126.9,-56.5L-122.5,-62.4L-118.6,-68.5L-115.3,-74.9L-112.3,-81.6L-109.7,-88.8L-107.2,-96.5L-104.7,-104.7L-102.2,-113.5L-99.3,-122.6L-96.0,-132.1L-92.1,-141.8L-87.5,-151.6L-82.1,-161.2L-76.0,-170.6L-68.9,-179.5L-61.0,-187.7L-52.2,-195.0L-42.8,-201.2L-32.7,-206.3L-22.1,-210.0L-11.1,-212.2L-0.0,-213.0L11.1,-212.2L22.1,-210.0L32.7,-206.3L42.8,-201.2L52.2,-195.0L61.0,-187.7L68.9,-179.5L76.0,-170.6L82.1,-161.2L87.5,-151.6L92.1,-141.8L96.0,-132.1L99.3,-122.6L102.2,-113.5L104.7,-104.7L107.2,-96.5L109.7,-88.8L112.3,-81.6L115.3,-74.9L118.6,-68.5L122.5,-62.4L126.9,-56.5L131.8,-50.6L137.2,-44.6L143.1,-38.3L149.3,-31.7L155.8,-24.7L162.4,-17.1L168.8,-8.8L175.0,-0.0Z" fill="none" stroke="#ddfbf1" stroke-width="2.4" stroke-linecap="round" opacity="0.95"/>
</svg>