<svg xmlns="http://www.w3.org/2000/svg" viewBox="-250 -250 500 500">
<defs><filter id="tg"><feGaussianBlur stdDeviation="5.9"/></filter></defs>
<rect x="-250" y="-250" width="500" height="500" fill="#000000"/>
<path d="M105.6,0.0L104.9,5.5L103.0,10.8L100.3,15.9L97.3,20.7L94.6,25.3L92.2,29.9L90.0,34.6L88.0,39.2L85.8,43.7L83.4,48.1L80.7,52.4L77.8,56.6L74.7,60.5L71.0,64.0L66.9,66.9L62.2,69.1L57.3,70.7L52.3,72.0L47.6,73.4L43.5,75.3L39.7,77.9L36.2,81.3L32.6,85.0L28.7,88.5L24.5,91.4L19.9,93.5L15.0,94.9L10.1,95.7L5.0,96.1L0.0,96.3L-5.0,96.1L-10.1,95.7L-15.1,95.2L-20.1,94.8L-25.3,94.6L-30.7,94.6L-36.4,94.8L-42.1,94.6L-47.7,93.6L-52.8,91.5L-57.2,88.1L-60.9,83.8L-63.9,78.9L-66.6,73.9L-69.2,69.2L-72.0,64.8L-74.9,60.7L-77.9,56.6L-80.7,52.4L-83.4,48.1L-85.8,43.7L-87.9,39.1L-89.7,34.4L-90.9,29.5L-91.4,24.5L-91.0,19.3L-89.9,14.2L-88.5,9.3L-87.3,4.6L-86.9,0.0L-87.3,-4.6L-88.5,-9.3L-89.9,-14.2L-91.0,-19.3L-91.4,-24.5L-90.9,-29.5L-89.7,-34.4L-87.9,-39.1L-85.8,-43.7L-83.4,-48.1L-80.7,-52.4L-77.9,-56.6L-74.9,-60.7L-72.0,-64.8L-69.2,-69.2L-66.6,-73.9L-63.9,-78.9L-60.9,-83.8L-57.2,-88.1L-52.8,-91.5L-47.7,-93.6L-42.1,-94.6L-36.4,-94.8L-30.7,-94.6L-25.3,-94.6L-20.1,-94.8L-15.1,-95.2L-10.1,-95.7L-5.0,-96.1L-0.0,-96.3L5.0,-96.1L10.1,-95.7L15.0,-94.9L19.9,-93.5L24.5,-91.4L28.7,-88.5L32.6,-85.0L36.2,-81.3L39.7,-77.9L43.5,-75.3L47.6,-73.4L52.3,-72.0L57.3,-70.7L62.2,-69.1L66.9,-66.9L71.0,-64.0L74.7,-60.5L77.8,-56.6L80.7,-52.4L83.4,-48.1L85.8,-43.7L88.0,-39.2L90.0,-34.6L92.2,-29.9L94.6,-25.3L97.3,-20.7L100.3,-15.9L103.0,-10.8L104.9,-5.5L105.6,-0.0Z" fill="none" stroke="#eec9fb" stroke-width="5.1" stroke-linecap="round" opacity="0.15" filter="url(#tg)"/><path d="M105.6,0.0L104.9,5.5L103.0,10.8L100.3,15.9L97.3,20.7L94.6,25.3L92.2,29.9L90.0,34.6L88.0,39.2L85.8,43.7L83.4,48.1L80.7,52.4L77.8,56.6L74.7,60.5L71.0,64.0L66.9,66.9L62.2,69.1L57.3,70.7L52.3,72.0L47.6,73.4L43.5,75.3L39.7,77.9L36.2,81.3L32.6,85.0L28.7,88.5L24.5,91.4L19.9,93.5L15.0,94.9L10.1,95.7L5.0,96.1L0.0,96.3L-5.0,96.1L-10.1,95.7L-15.1,95.2L-20.1,94.8L-25.3,94.6L-30.7,94.6L-36.4,94.8L-42.1,94.6L-47.7,93.6L-52.8,91.5L-57.2,88.1L-60.9,83.8L-63.9,78.9L-66.6,73.9L-69.2,69.2L-72.0,64.8L-74.9,60.7L-77.9,56.6L-80.7,52.4L-83.4,48.1L-85.8,43.7L-87.9,39.1L-89.7,34.4L-90.9,29.5L-91.4,24.5L-91.0,19.3L-89.9,14.2L-88.5,9.3L-87.3,4.6L-86.9,0.0L-87.3,-4.6L-88.5,-9.3L-89.9,-14.2L-91.0,-19.3L-91.4,-24.5L-90.9,-29.5L-89.7,-34.4L-87.9,-39.1L-85.8,-43.7L-83.4,-48.1L-80.7,-52.4L-77.9,-56.6L-74.9,-60.7L-72.0,-64.8L-69.2,-69.2L-66.6,-73.9L-63.9,-78.9L-60.9,-83.8L-57.2,-88.1L-52.8,-91.5L-47.7,-93.6L-42.1,-94.6L-36.4,-94.8L-30.7,-94.6L-25.3,-94.6L-20.1,-94.8L-15.1,-95.2L-10.1,-95.7L-5.0,-96.1L-0.0,-96.3L5.0,-96.1L10.1,-95.7L15.0,-94.9L19.9,-93.5L24.5,-91.4L28.7,-88.5L32.6,-85.0L36.2,-81.3L39.7,-77.9L43.5,-75.3L47.6,-73.4L52.3,-72.0L57.3,-70.7L62.2,-69.1L66.9,-66.9L71.0,-64.0L74.7,-60.5L77.8,-56.6L80.7,-52.4L83.4,-48.1L85.8,-43.7L88.0,-39.2L90.0,-34.6L92.2,-29.9L94.6,-25.3L97.3,-20.7L100.3,-15.9L103.0,-10.8L104.9,-5.5L105.6,-0.0Z" fill="none" stroke="#eec9fb" stroke-width="1.7" stroke-linecap="round" opacity="0.95"/><path d="M86.9,0.0L87.3,4.6L88.5,9.3L89.9,14.2L91.0,19.3L91.4,24.5L90.9,29.5L89.7,34.4L87.9,39.1L85.8,43.7L83.4,48.1L80.7,52.4L77.9,56.6L74.9,60.7L72.0,64.8L69.2,69.2L66.6,73.9L63.9,78.9L60.9,83.8L57.2,88.1L52.8,91.5L47.7,93.6L42.1,94.6L36.4,94.8L30.7,94.6L25.3,94.6L20.1,94.8L15.1,95.2L10.1,95.7L5.0,96.1L0.0,96.3L-5.0,96.1L-10.1,95.7L-15.0,94.9L-19.9,93.5L-24.5,91.4L-28.7,88.5L-32.6,85.0L-36.2,81.3L-39.7,77.9L-43.4,75.3L-47.6,73.4L-52.3,72.0L-57.3,70.7L-62.2,69.1L-66.9,66.9L-71.0,64.0L-74.7,60.5L-77.8,56.6L-80.7,52.4L-83.4,48.1L-85.8,43.7L-88.0,39.2L-90.0,34.6L-92.2,29.9L-94.6,25.3L-97.3,20.7L-100.3,15.9L-103.0,10.8L-104.9,5.5L-105.6,0.0L-104.9,-5.5L-103.0,-10.8L-100.3,-15.9L-97.3,-20.7L-94.6,-25.3L-92.2,-29.9L-90.0,-34.6L-88.0,-39.2L-85.8,-43.7L-83.4,-48.1L-80.7,-52.4L-77.8,-56.6L-74.7,-60.5L-71.0,-64.0L-66.9,-66.9L-62.2,-69.1L-57.3,-70.7L-52.3,-72.0L-47.6,-73.4L-43.5,-75.3L-39.7,-77.9L-36.2,-81.3L-32.6,-85.0L-28.7,-88.5L-24.5,-91.4L-19.9,-93.5L-15.0,-94.9L-10.1,-95.7L-5.0,-96.1L-0.0,-96.3L5.0,-96.1L10.1,-95.7L15.1,-95.2L20.1,-94.8L25.3,-94.6L30.7,-94.6L36.4,-94.8L42.1,-94.6L47.7,-93.6L52.8,-91.5L57.2,-88.1L60.9,-83.8L63.9,-78.9L66.6,-73.9L69.2,-69.2L72.0,-64.8L74.9,-60.7L77.9,-56.6L80.7,-52.4L83.4,-48.1L85.8,-43.7L87.9,-39.1L89.7,-34.4L90.9,-29.5L91.4,-24.5L91.0,-19.3L89.9,-14.2L88.5,-9.3L87.3,-4.6L86.9,-0.0Z" fill="none" stroke="#c0f8f9" stroke-width="5.1" stroke-linecap="round" opacity="0.15" filter="url(#tg)"/><path d="M86.9,0.0L87.3,4.6L88.5,9.3L89.9,14.2L91.0,19.3L91.4,24.5L90.9,29.5L89.7,34.4L87.9,39.1L85.8,43.7L83.4,48.1L80.7,52.4L77.9,56.6L74.9,60.7L72.0,64.8L69.2,69.2L66.6,73.9L63.9,78.9L60.9,83.8L57.2,88.1L52.8,91.5L47.7,93.6L42.1,94.6L36.4,94.8L30.7,94.6L25.3,94.6L20.1,94.8L15.1,95.2L10.1,95.7L5.0,96.1L0.0,96.3L-5.0,96.1L-10.1,95.7L-15.0,94.9L-19.9,93.5L-24.5,91.4L-28.7,88.5L-32.6,85.0L-36.2,81.3L-39.7,77.9L-43.4,75.3L-47.6,73.4L-52.3,72.0L-57.3,70.7L-62.2,69.1L-66.9,66.9L-71.0,64.0L-74.7,60.5L-77.8,56.6L-80.7,52.4L-83.4,48.1L-85.8,43.7L-88.0,39.2L-90.0,34.6L-92.2,29.9L-94.6,25.3L-97.3,20.7L-100.3,15.9L-103.0,10.8L-104.9,5.5L-105.6,0.0L-104.9,-5.5L-103.0,-10.8L-100.3,-15.9L-97.3,-20.7L-94.6,-25.3L-92.2,-29.9L-90.0,-34.6L-88.0,-39.2L-85.8,-43.7L-83.4,-48.1L-80.7,-52.4L-77.8,-56.6L-74.7,-60.5L-71.0,-64.0L-66.9,-66.9L-62.2,-69.1L-57.3,-70.7L-52.3,-72.0L-47.6,-73.4L-43.5,-75.3L-39.7,-77.9L-36.2,-81.3L-32.6,-85.0L-28.7,-88.5L-24.5,-91.4L-19.9,-93.5L-15.0,-94.9L-10.1,-95.7L-5.0,-96.1L-0.0,-96.3L5.0,-96.1L10.1,-95.7L15.1,-95.2L20.1,-94.8L25.3,-94.6L30.7,-94.6L36.4,-94.8L42.1,-94.6L47.7,-93.6L52.8,-91.5L57.2,-88.1L60.9,-83.8L63.9,-78.9L66.6,-73.9L69.2,-69.2L72.0,-64.8L74.9,-60.7L77.9,-56.6L80.7,-52.4L83.4,-48.1L85.8,-43.7L87.9,-39.1L89.7,-34.4L90.9,-29.5L91.4,-24.5L91.0,-19.3L89.9,-14.2L88.5,-9.3L87.3,-4.6L86.9,-0.0Z" fill="none" stroke="#c0f8f9" stroke-width="1.7" stroke-linecap="round" opacity="0.95"/><path d="M105.6,0.0L104.9,5.5L103.0,10.8L100.3,15.9L97.3,20.7L94.6,25.3L92.2,29.9L90.0,34.6L88.0,39.2L85.8,43.7L83.4,48.1L80.7,52.4L77.8,56.6L74.7,60.5L71.0,64.0L66.9,66.9L62.2,69.1L57.3,70.7L52.3,72.0L47.6,73.4L43.5,75.3L39.7,77.9L36.2,81.3L32.6,85.0L28.7,88.5L24.5,91.4L19.9,93.5L15.0,94.9L10.1,95.7L5.0,96.1L0.0,96.3L-5.0,96.1L-10.1,95.7L-15.1,95.2L-20.1,94.8L-25.3,94.6L-30.7,94.6L-36.4,94.8L-42.1,94.6L-47.7,93.6L-52.8,91.5L-57.2,88.1L-60.9,83.8L-63.9,78.9L-66.6,73.9L-69.2,69.2L-72.0,64.8L-74.9,60.7L-77.9,56.6L-80.7,52.4L-83.4,48.1L-85.8,43.7L-87.9,39.1L-89.7,34.4L-90.9,29.5L-91.4,24.5L-91.0,19.3L-89.9,14.2L-88.5,9.3L-87.3,4.6L-86.9,0.0L-87.3,-4.6L-88.5,-9.3L-89.9,-14.2L-91.0,-19.3L-91.4,-24.5L-90.9,-29.5L-89.7,-34.4L-87.9,-39.1L-85.8,-43.7L-83.4,-48.1L-80.7,-52.4L-77.9,-56.6L-74.9,-60.7L-72.0,-64.8L-69.2,-69.2L-66.6,-73.9L-63.9,-78.9L-60.9,-83.8L-57.2,-88.1L-52.8,-91.5L-47.7,-93.6L-42.1,-94.6L-36.4,-94.8L-30.7,-94.6L-25.3,-94.6L-20.1,-94.8L-15.1,-95.2L-10.1,-95.7L-5.0,-96.1L-0.0,-96.3L5.0,-96.1L10.1,-95.7L15.0,-94.9L19.9,-93.5L24.5,-91.4L28.7,-88.5L32.6,-85.0L36.2,-81.3L39.7,-77.9L43.5,-75.3L47.6,-73.4L52.3,-72.0L57.3,-70.7L62.2,-69.1L66.9,-66.9L71.0,-64.0L74.7,-60.5L77.8,-56.6L80.7,-52.4L83.4,-48.1L85.8,-43.7L88.0,-39.2L90.0,-34.6L92.2,-29.9L94.6,-25.3L97.3,-20.7L100.3,-15.9L103.0,-10.8L104.9,-5.5L105.6,-0.0Z" fill="none" stroke="#eec9fb" stroke-width="5.1" stroke-linecap="round" opacity="0.15" filter="url(#tg)"/><path d="M105.6,0.0L104.9,5.5L103.0,10.8L100.3,15.9L97.3,20.7L94.6,25.3L92.2,29.9L90.0,34.6L88.0,39.2L85.8,43.7L83.4,48.1L80.7,52.4L77.8,56.6L74.7,60.5L71.0,64.0L66.9,66.9L62.2,69.1L57.3,70.7L52.3,72.0L47.6,73.4L43.5,75.3L39.7,77.9L36.2,81.3L32.6,85.0L28.7,88.5L24.5,91.4L19.9,93.5L15.0,94.9L10.1,95.7L5.0,96.1L0.0,96.3L-5.0,96.1L-10.1,95.7L-15.1,95.2L-20.1,94.8L-25.3,94.6L-30.7,94.6L-36.4,94.8L-42.1,94.6L-47.7,93.6L-52.8,91.5L-57.2,88.1L-60.9,83.8L-63.9,78.9L-66.6,73.9L-69.2,69.2L-72.0,64.8L-74.9,60.7L-77.9,56.6L-80.7,52.4L-83.4,48.1L-85.8,43.7L-87.9,39.1L-89.7,34.4L-90.9,29.5L-91.4,24.5L-91.0,19.3L-89.9,14.2L-88.5,9.3L-87.3,4.6L-86.9,0.0L-87.3,-4.6L-88.5,-9.3L-89.9,-14.2L-91.0,-19.3L-91.4,-24.5L-90.9,-29.5L-89.7,-34.4L-87.9,-39.1L-85.8,-43.7L-83.4,-48.1L-80.7,-52.4L-77.9,-56.6L-74.9,-60.7L-72.0,-64.8L-69.2,-69.2L-66.6,-73.9L-63.9,-78.9L-60.9,-83.8L-57.2,-88.1L-52.8,-91.5L-47.7,-93.6L-42.1,-94.6L-36.4,-94.8L-30.7,-94.6L-25.3,-94.6L-20.1,-94.8L-15.1,-95.2L-10.1,-95.7L-5.0,-96.1L-0.0,-96.3L5.0,-96.1L10.1,-95.7L15.0,-94.9L19.9,-93.5L24.5,-91.4L28.7,-88.5L32.6,-85.0L36.2,-81.3L39.7,-77.9L43.5,-75.3L47.6,-73.4L52.3,-72.0L57.3,-70.7L62.2,-69.1L66.9,-66.9L71.0,-64.0L74.7,-60.5L77.8,-56.6L80.7,-52.4L83.4,-48.1L85.8,-43.7L88.0,-39.2L90.0,-34.6L92.2,-29.9L94.6,-25.3L97.3,-20.7L100.3,-15.9L103.0,-10.8L104.9,-5.5L105.6,-0.0Z" fill="none" stroke="#eec9fb" stroke-width="1.7" stroke-linecap="round" opacity="0.95"/><path d="M86.9,0.0L87.3,4.6L88.5,9.3L89.9,14.2L91.0,19.3L91.4,24.5L90.9,29.5L89.7,34.4L87.9,39.1L85.8,43.7L83.4,48.1L80.7,52.4L77.9,56.6L74.9,60.7L72.0,64.8L69.2,69.2L66.6,73.9L63.9,78.9L60.9,83.8L57.2,88.1L52.8,91.5L47.7,93.6L42.1,94.6L36.4,94.8L30.7,94.6L25.3,94.6L20.1,94.8L15.1,95.2L10.1,95.7L5.0,96.1L0.0,96.3L-5.0,96.1L-10.1,95.7L-15.0,94.9L-19.9,93.5L-24.5,91.4L-28.7,88.5L-32.6,85.0L-36.2,81.3L-39.7,77.9L-43.4,75.3L-47.6,73.4L-52.3,72.0L-57.3,70.7L-62.2,69.1L-66.9,66.9L-71.0,64.0L-74.7,60.5L-77.8,56.6L-80.7,52.4L-83.4,48.1L-85.8,43.7L-88.0,39.2L-90.0,34.6L-92.2,29.9L-94.6,25.3L-97.3,20.7L-100.3,15.9L-103.0,10.8L-104.9,5.5L-105.6,0.0L-104.9,-5.5L-103.0,-10.8L-100.3,-15.9L-97.3,-20.7L-94.6,-25.3L-92.2,-29.9L-90.0,-34.6L-88.0,-39.2L-85.8,-43.7L-83.4,-48.1L-80.7,-52.4L-77.8,-56.6L-74.7,-60.5L-71.0,-64.0L-66.9,-66.9L-62.2,-69.1L-57.3,-70.7L-52.3,-72.0L-47.6,-73.4L-43.5,-75.3L-39.7,-77.9L-36.2,-81.3L-32.6,-85.0L-28.7,-88.5L-24.5,-91.4L-19.9,-93.5L-15.0,-94.9L-10.1,-95.7L-5.0,-96.1L-0.0,-96.3L5.0,-96.1L10.1,-95.7L15.1,-95.2L20.1,-94.8L25.3,-94.6L30.7,-94.6L36.4,-94.8L42.1,-94.6L47.7,-93.6L52.8,-91.5L57.2,-88.1L60.9,-83.8L63.9,-78.9L66.6,-73.9L69.2,-69.2L72.0,-64.8L74.9,-60.7L77.9,-56.6L80.7,-52.4L83.4,-48.1L85.8,-43.7L87.9,-39.1L89.7,-34.4L90.9,-29.5L91.4,-24.5L91.0,-19.3L89.9,-14.2L88.5,-9.3L87.3,-4.6L86.9,-0.0Z" fill="none" stroke="#c0f8f9" stroke-width="5.1" stroke-linecap="round" opacity="0.15" filter="url(#tg)"/><path d="M86.9,0.0L87.3,4.6L88.5,9.3L89.9,14.2L91.0,19.3L91.4,24.5L90.9,29.5L89.7,34.4L87.9,39.1L85.8,43.7L83.4,48.1L80.7,52.4L77.9,56.6L74.9,60.7L72.0,64.8L69.2,69.2L66.6,73.9L63.9,78.9L60.9,83.8L57.2,88.1L52.8,91.5L47.7,93.6L42.1,94.6L36.4,94.8L30.7,94.6L25.3,94.6L20.1,94.8L15.1,95.2L10.1,95.7L5.0,96.1L0.0,96.3L-5.0,96.1L-10.1,95.7L-15.0,94.9L-19.9,93.5L-24.5,91.4L-28.7,88.5L-32.6,85.0L-36.2,81.3L-39.7,77.9L-43.4,75.3L-47.6,73.4L-52.3,72.0L-57.3,70.7L-62.2,69.1L-66.9,66.9L-71.0,64.0L-74.7,60.5L-77.8,56.6L-80.7,52.4L-83.4,48.1L-85.8,43.7L-88.0,39.2L-90.0,34.6L-92.2,29.9L-94.6,25.3L-97.3,20.7L-100.3,15.9L-103.0,10.8L-104.9,5.5L-105.6,0.0L-104.9,-5.5L-103.0,-10.8L-100.3,-15.9L-97.3,-20.7L-94.6,-25.3L-92.2,-29.9L-90.0,-34.6L-88.0,-39.2L-85.8,-43.7L-83.4,-48.1L-80.7,-52.4L-77.8,-56.6L-74.7,-60.5L-71.0,-64.0L-66.9,-66.9L-62.2,-69.1L-57.3,-70.7L-52.3,-72.0L-47.6,-73.4L-43.5,-75.3L-39.7,-77.9L-36.2,-81.3L-32.6,-85.0L-28.7,-88.5L-24.5,-91.4L-19.9,-93.5L-15.0,-94.9L-10.1,-95.7L-5.0,-96.1L-0.0,-96.3L5.0,-96.1L10.1,-95.7L15.1,-95.2L20.1,-94.8L25.3,-94.6L30.7,-94.6L36.4,-94.8L42.1,-94.6L47.7,-93.6L52.8,-91.5L57.2,-88.1L60.9,-83.8L63.9,-78.9L66.6,-73.9L69.2,-69.2L72.0,-64.8L74.9,-60.7L77.9,-56.6L80.7,-52.4L83.4,-48.1L85.8,-43.7L87.9,-39.1L89.7,-34.4L90.9,-29.5L91.4,-24.5L91.0,-19.3L89.9,-14.2L88.5,-9.3L87.3,-4.6L86.9,-0.0Z" fill="none" stroke="#c0f8f9" stroke-width="1.7" stroke-linecap="round" opacity="0.95"/><path d="M105.6,0.0L104.9,5.5L103.0,10.8L100.3,15.9L97.3,20.7L94.6,25.3L92.2,29.9L90.0,34.6L88.0,39.2L85.8,43.7L83.4,48.1L80.7,52.4L77.8,56.6L74.7,60.5L71.0,64.0L66.9,66.9L62.2,69.1L57.3,70.7L52.3,72.0L47.6,73.4L43.5,75.3L39.7,77.9L36.2,81.3L32.6,85.0L28.7,88.5L24.5,91.4L19.9,93.5L15.0,94.9L10.1,95.7L5.0,96.1L0.0,96.3L-5.0,96.1L-10.1,95.7L-15.1,95.2L-20.1,94.8L-25.3,94.6L-30.7,94.6L-36.4,94.8L-42.1,94.6L-47.7,93.6L-52.8,91.5L-57.2,88.1L-60.9,83.8L-63.9,78.9L-66.6,73.9L-69.2,69.2L-72.0,64.8L-74.9,60.7L-77.9,56.6L-80.7,52.4L-83.4,48.1L-85.8,43.7L-87.9,39.1L-89.7,34.4L-90.9,29.5L-91.4,24.5L-91.0,19.3L-89.9,14.2L-88.5,9.3L-87.3,4.6L-86.9,0.0L-87.3,-4.6L-88.5,-9.3L-89.9,-14.2L-91.0,-19.3L-91.4,-24.5L-90.9,-29.5L-89.7,-34.4L-87.9,-39.1L-85.8,-43.7L-83.4,-48.1L-80.7,-52.4L-77.9,-56.6L-74.9,-60.7L-72.0,-64.8L-69.2,-69.2L-66.6,-73.9L-63.9,-78.9L-60.9,-83.8L-57.2,-88.1L-52.8,-91.5L-47.7,-93.6L-42.1,-94.6L-36.4,-94.8L-30.7,-94.6L-25.3,-94.6L-20.1,-94.8L-15.1,-95.2L-10.1,-95.7L-5.0,-96.1L-0.0,-96.3L5.0,-96.1L10.1,-95.7L15.0,-94.9L19.9,-93.5L24.5,-91.4L28.7,-88.5L32.6,-85.0L36.2,-81.3L39.7,-77.9L43.5,-75.3L47.6,-73.4L52.3,-72.0L57.3,-70.7L62.2,-69.1L66.9,-66.9L71.0,-64.0L74.7,-60.5L77.8,-56.6L80.7,-52.4L83.4,-48.1L85.8,-43.7L88.0,-39.2L90.0,-34.6L92.2,-29.9L94.6,-25.3L97.3,-20.7L100.3,-15.9L103.0,-10.8L104.9,-5.5L105.6,-0.0Z" fill="none" stroke="#eec9fb" stroke-width="5.1" stroke-linecap="round" opacity="0.15" filter="url(#tg)"/><path d="M105.6,0.0L104.9,5.5L103.0,10.8L100.3,15.9L97.3,20.7L94.6,25.3L92.2,29.9L90.0,34.6L88.0,39.2L85.8,43.7L83.4,48.1L80.7,52.4L77.8,56.6L74.7,60.5L71.0,64.0L66.9,66.9L62.2,69.1L57.3,70.7L52.3,72.0L47.6,73.4L43.5,75.3L39.7,77.9L36.2,81.3L32.6,85.0L28.7,88.5L24.5,91.4L19.9,93.5L15.0,94.9L10.1,95.7L5.0,96.1L0.0,96.3L-5.0,96.1L-10.1,95.7L-15.1,95.2L-20.1,94.8L-25.3,94.6L-30.7,94.6L-36.4,94.8L-42.1,94.6L-47.7,93.6L-52.8,91.5L-57.2,88.1L-60.9,83.8L-63.9,78.9L-66.6,73.9L-69.2,69.2L-72.0,64.8L-74.9,60.7L-77.9,56.6L-80.7,52.4L-83.4,48.1L-85.8,43.7L-87.9,39.1L-89.7,34.4L-90.9,29.5L-91.4,24.5L-91.0,19.3L-89.9,14.2L-88.5,9.3L-87.3,4.6L-86.9,0.0L-87.3,-4.6L-88.5,-9.3L-89.9,-14.2L-91.0,-19.3L-91.4,-24.5L-90.9,-29.5L-89.7,-34.4L-87.9,-39.1L-85.8,-43.7L-83.4,-48.1L-80.7,-52.4L-77.9,-56.6L-74.9,-60.7L-72.0,-64.8L-69.2,-69.2L-66.6,-73.9L-63.9,-78.9L-60.9,-83.8L-57.2,-88.1L-52.8,-91.5L-47.7,-93.6L-42.1,-94.6L-36.4,-94.8L-30.7,-94.6L-25.3,-94.6L-20.1,-94.8L-15.1,-95.2L-10.1,-95.7L-5.0,-96.1L-0.0,-96.3L5.0,-96.1L10.1,-95.7L15.0,-94.9L19.9,-93.5L24.5,-91.4L28.7,-88.5L32.6,-85.0L36.2,-81.3L39.7,-77.9L43.5,-75.3L47.6,-73.4L52.3,-72.0L57.3,-70.7L62.2,-69.1L66.9,-66.9L71.0,-64.0L74.7,-60.5L77.8,-56.6L80.7,-52.4L83.4,-48.1L85.8,-43.7L88.0,-39.2L90.0,-34.6L92.2,-29.9L94.6,-25.3L97.3,-20.7L100.3,-15.9L103.0,-10.8L104.9,-5.5L105.6,-0.0Z" fill="none" stroke="#eec9fb" stroke-width="1.7" stroke-linecap="round" opacity="0.95"/><path d="M86.9,0.0L87.3,4.6L88.5,9.3L89.9,14.2L91.0,19.3L91.4,24.5L90.9,29.5L89.7,34.4L87.9,39.1L85.8,43.7L83.4,48.1L80.7,52.4L77.9,56.6L74.9,60.7L72.0,64.8L69.2,69.2L66.6,73.9L63.9,78.9L60.9,83.8L57.2,88.1L52.8,91.5L47.7,93.6L42.1,94.6L36.4,94.8L30.7,94.6L25.3,94.6L20.1,94.8L15.1,95.2L10.1,95.7L5.0,96.1L0.0,96.3L-5.0,96.1L-10.1,95.7L-15.0,94.9L-19.9,93.5L-24.5,91.4L-28.7,88.5L-32.6,85.0L-36.2,81.3L-39.7,77.9L-43.4,75.3L-47.6,73.4L-52.3,72.0L-57.3,70.7L-62.2,69.1L-66.9,66.9L-71.0,64.0L-74.7,60.5L-77.8,56.6L-80.7,52.4L-83.4,48.1L-85.8,43.7L-88.0,39.2L-90.0,34.6L-92.2,29.9L-94.6,25.3L-97.3,20.7L-100.3,15.9L-103.0,10.8L-104.9,5.5L-105.6,0.0L-104.9,-5.5L-103.0,-10.8L-100.3,-15.9L-97.3,-20.7L-94.6,-25.3L-92.2,-29.9L-90.0,-34.6L-88.0,-39.2L-85.8,-43.7L-83.4,-48.1L-80.7,-52.4L-77.8,-56.6L-74.7,-60.5L-71.0,-64.0L-66.9,-66.9L-62.2,-69.1L-57.3,-70.7L-52.3,-72.0L-47.6,-73.4L-43.5,-75.3L-39.7,-77.9L-36.2,-81.3L-32.6,-85.0L-28.7,-88.5L-24.5,-91.4L-19.9,-93.5L-15.0,-94.9L-10.1,-95.7L-5.0,-96.1L-0.0,-96.3L5.0,-96.1L10.1,-95.7L15.1,-95.2L20.1,-94.8L25.3,-94.6L30.7,-94.6L36.4,-94.8L42.1,-94.6L47.7,-93.6L52.8,-91.5L57.2,-88.1L60.9,-83.8L63.9,-78.9L66.6,-73.9L69.2,-69.2L72.0,-64.8L74.9,-60.7L77.9,-56.6L80.7,-52.4L83.4,-48.1L85.8,-43.7L87.9,-39.1L89.7,-34.4L90.9,-29.5L91.4,-24.5L91.0,-19.3L89.9,-14.2L88.5,-9.3L87.3,-4.6L86.9,-0.0Z" fill="none" stroke="#c0f8f9" stroke-width="5.1" stroke-linecap="round" opacity="0.15" filter="url(#tg)"/><path d="M86.9,0.0L87.3,4.6L88.5,9.3L89.9,14.2L91.0,19.3L91.4,24.5L90.9,29.5L89.7,34.4L87.9,39.1L85.8,43.7L83.4,48.1L80.7,52.4L77.9,56.6L74.9,60.7L72.0,64.8L69.2,69.2L66.6,73.9L63.9,78.9L60.9,83.8L57.2,88.1L52.8,91.5L47.7,93.6L42.1,94.6L36.4,94.8L30.7,94.6L25.3,94.6L20.1,94.8L15.1,95.2L10.1,95.7L5.0,96.1L0.0,96.3L-5.0,96.1L-10.1,95.7L-15.0,94.9L-19.9,93.5L-24.5,91.4L-28.7,88.5L-32.6,85.0L-36.2,81.3L-39.7,77.9L-43.4,75.3L-47.6,73.4L-52.3,72.0L-57.3,70.7L-62.2,69.1L-66.9,66.9L-71.0,64.0L-74.7,60.5L-77.8,56.6L-80.7,52.4L-83.4,48.1L-85.8,43.7L-88.0,39.2L-90.0,34.6L-92.2,29.9L-94.6,25.3L-97.3,20.7L-100.3,15.9L-103.0,10.8L-104.9,5.5L-105.6,0.0L-104.9,-5.5L-103.0,-10.8L-100.3,-15.9L-97.3,-20.7L-94.6,-25.3L-92.2,-29.9L-90.0,-34.6L-88.0,-39.2L-85.8,-43.7L-83.4,-48.1L-80.7,-52.4L-77.8,-56.6L-74.7,-60.5L-71.0,-64.0L-66.9,-66.9L-62.2,-69.1L-57.3,-70.7L-52.3,-72.0L-47.6,-73.4L-43.5,-75.3L-39.7,-77.9L-36.2,-81.3L-32.6,-85.0L-28.7,-88.5L-24.5,-91.4L-19.9,-93.5L-15.0,-94.9L-10.1,-95.7L-5.0,-96.1L-0.0,-96.3L5.0,-96.1L10.1,-95.7L15.1,-95.2L20.1,-94.8L25.3,-94.6L30.7,-94.6L36.4,-94.8L42.1,-94.6L47.7,-93.6L52.8,-91.5L57.2,-88.1L60.9,-83.8L63.9,-78.9L66.6,-73.9L69.2,-69.2L72.0,-64.8L74.9,-60.7L77.9,-56.6L80.7,-52.4L83.4,-48.1L85.8,-43.7L87.9,-39.1L89.7,-34.4L90.9,-29.5L91.4,-24.5L91.0,-19.3L89.9,-14.2L88.5,-9.3L87.3,-4.6L86.9,-0.0Z" fill="none" stroke="#c0f8f9" stroke-width="1.7" stroke-linecap="round" opacity="0.95"/><path d="M105.6,0.0L104.9,5.5L103.0,10.8L100.3,15.9L97.3,20.7L94.6,25.3L92.2,29.9L90.0,34.6L88.0,39.2L85.8,43.7L83.4,48.1L80.7,52.4L77.8,56.6L74.7,60.5L71.0,64.0L66.9,66.9L62.2,69.1L57.3,70.7L52.3,72.0L47.6,73.4L43.5,75.3L39.7,77.9L36.2,81.3L32.6,85.0L28.7,88.5L24.5,91.4L19.9,93.5L15.0,94.9L10.1,95.7L5.0,96.1L0.0,96.3L-5.0,96.1L-10.1,95.7L-15.1,95.2L-20.1,94.8L-25.3,94.6L-30.7,94.6L-36.4,94.8L-42.1,94.6L-47.7,93.6L-52.8,91.5L-57.2,88.1L-60.9,83.8L-63.9,78.9L-66.6,73.9L-69.2,69.2L-72.0,64.8L-74.9,60.7L-77.9,56.6L-80.7,52.4L-83.4,48.1L-85.8,43.7L-87.9,39.1L-89.7,34.4L-90.9,29.5L-91.4,24.5L-91.0,19.3L-89.9,14.2L-88.5,9.3L-87.3,4.6L-86.9,0.0L-87.3,-4.6L-88.5,-9.3L-89.9,-14.2L-91.0,-19.3L-91.4,-24.5L-90.9,-29.5L-89.7,-34.4L-87.9,-39.1L-85.8,-43.7L-83.4,-48.1L-80.7,-52.4L-77.9,-56.6L-74.9,-60.7L-72.0,-64.8L-69.2,-69.2L-66.6,-73.9L-63.9,-78.9L-60.9,-83.8L-57.2,-88.1L-52.8,-91.5L-47.7,-93.6L-42.1,-94.6L-36.4,-94.8L-30.7,-94.6L-25.3,-94.6L-20.1,-94.8L-15.1,-95.2L-10.1,-95.7L-5.0,-96.1L-0.0,-96.3L5.0,-96.1L10.1,-95.7L15.0,-94.9L19.9,-93.5L24.5,-91.4L28.7,-88.5L32.6,-85.0L36.2,-81.3L39.7,-77.9L43.5,-75.3L47.6,-73.4L52.3,-72.0L57.3,-70.7L62.2,-69.1L66.9,-66.9L71.0,-64.0L74.7,-60.5L77.8,-56.6L80.7,-52.4L83.4,-48.1L85.8,-43.7L88.0,-39.2L90.0,-34.6L92.2,-29.9L94.6,-25.3L97.3,-20.7L100.3,-15.9L103.0,-10.8L104.9,-5.5L105.6,-0.0Z" fill="none" stroke="#eec9fb" stroke-width="5.1" stroke-linecap="round" opacity="0.15" filter="url(#tg)"/><path d="M105.6,0.0L104.9,5.5L103.0,10.8L100.3,15.9L97.3,20.7L94.6,25.3L92.2,29.9L90.0,34.6L88.0,39.2L85.8,43.7L83.4,48.1L80.7,52.4L77.8,56.6L74.7,60.5L71.0,64.0L66.9,66.9L62.2,69.1L57.3,70.7L52.3,72.0L47.6,73.4L43.5,75.3L39.7,77.9L36.2,81.3L32.6,85.0L28.7,88.5L24.5,91.4L19.9,93.5L15.0,94.9L10.1,95.7L5.0,96.1L0.0,96.3L-5.0,96.1L-10.1,95.7L-15.1,95.2L-20.1,94.8L-25.3,94.6L-30.7,94.6L-36.4,94.8L-42.1,94.6L-47.7,93.6L-52.8,91.5L-57.2,88.1L-60.9,83.8L-63.9,78.9L-66.6,73.9L-69.2,69.2L-72.0,64.8L-74.9,60.7L-77.9,56.6L-80.7,52.4L-83.4,48.1L-85.8,43.7L-87.9,39.1L-89.7,34.4L-90.9,29.5L-91.4,24.5L-91.0,19.3L-89.9,14.2L-88.5,9.3L-87.3,4.6L-86.9,0.0L-87.3,-4.6L-88.5,-9.3L-89.9,-14.2L-91.0,-19.3L-91.4,-24.5L-90.9,-29.5L-89.7,-34.4L-87.9,-39.1L-85.8,-43.7L-83.4,-48.1L-80.7,-52.4L-77.9,-56.6L-74.9,-60.7L-72.0,-64.8L-69.2,-69.2L-66.6,-73.9L-63.9,-78.9L-60.9,-83.8L-57.2,-88.1L-52.8,-91.5L-47.7,-93.6L-42.1,-94.6L-36.4,-94.8L-30.7,-94.6L-25.3,-94.6L-20.1,-94.8L-15.1,-95.2L-10.1,-95.7L-5.0,-96.1L-0.0,-96.3L5.0,-96.1L10.1,-95.7L15.0,-94.9L19.9,-93.5L24.5,-91.4L28.7,-88.5L32.6,-85.0L36.2,-81.3L39.7,-77.9L43.5,-75.3L47.6,-73.4L52.3,-72.0L57.3,-70.7L62.2,-69.1L66.9,-66.9L71.0,-64.0L74.7,-60.5L77.8,-56.6L80.7,-52.4L83.4,-48.1L85.8,-43.7L88.0,-39.2L90.0,-34.6L92.2,-29.9L94.6,-25.3L97.3,-20.7L100.3,-15.9L103.0,-10.8L104.9,-5.5L105.6,-0.0Z" fill="none" stroke="#eec9fb" stroke-width="1.7" stroke-linecap="round" opacity="0.95"/><path d="M86.9,0.0L87.3,4.6L88.5,9.3L89.9,14.2L91.0,19.3L91.4,24.5L90.9,29.5L89.7,34.4L87.9,39.1L85.8,43.7L83.4,48.1L80.7,52.4L77.9,56.6L74.9,60.7L72.0,64.8L69.2,69.2L66.6,73.9L63.9,78.9L60.9,83.8L57.2,88.1L52.8,91.5L47.7,93.6L42.1,94.6L36.4,94.8L30.7,94.6L25.3,94.6L20.1,94.8L15.1,95.2L10.1,95.7L5.0,96.1L0.0,96.3L-5.0,96.1L-10.1,95.7L-15.0,94.9L-19.9,93.5L-24.5,91.4L-28.7,88.5L-32.6,85.0L-36.2,81.3L-39.7,77.9L-43.4,75.3L-47.6,73.4L-52.3,72.0L-57.3,70.7L-62.2,69.1L-66.9,66.9L-71.0,64.0L-74.7,60.5L-77.8,56.6L-80.7,52.4L-83.4,48.1L-85.8,43.7L-88.0,39.2L-90.0,34.6L-92.2,29.9L-94.6,25.3L-97.3,20.7L-100.3,15.9L-103.0,10.8L-104.9,5.5L-105.6,0.0L-104.9,-5.5L-103.0,-10.8L-100.3,-15.9L-97.3,-20.7L-94.6,-25.3L-92.2,-29.9L-90.0,-34.6L-88.0,-39.2L-85.8,-43.7L-83.4,-48.1L-80.7,-52.4L-77.8,-56.6L-74.7,-60.5L-71.0,-64.0L-66.9,-66.9L-62.2,-69.1L-57.3,-70.7L-52.3,-72.0L-47.6,-73.4L-43.5,-75.3L-39.7,-77.9L-36.2,-81.3L-32.6,-85.0L-28.7,-88.5L-24.5,-91.4L-19.9,-93.5L-15.0,-94.9L-10.1,-95.7L-5.0,-96.1L-0.0,-96.3L5.0,-96.1L10.1,-95.7L15.1,-95.2L20.1,-94.8L25.3,-94.6L30.7,-94.6L36.4,-94.8L42.1,-94.6L47.7,-93.6L52.8,-91.5L57.2,-88.1L60.9,-83.8L63.9,-78.9L66.6,-73.9L69.2,-69.2L72.0,-64.8L74.9,-60.7L77.9,-56.6L80.7,-52.4L83.4,-48.1L85.8,-43.7L87.9,-39.1L89.7,-34.4L90.9,-29.5L91.4,-24.5L91.0,-19.3L89.9,-14.2L88.5,-9.3L87.3,-4.6L86.9,-0.0Z" fill="none" stroke="#c0f8f9" stroke-width="5.1" stroke-linecap="round" opacity="0.15" filter="url(#tg)"/><path d="M86.9,0.0L87.3,4.6L88.5,9.3L89.9,14.2L91.0,19.3L91.4,24.5L90.9,29.5L89.7,34.4L87.9,39.1L85.8,43.7L83.4,48.1L80.7,52.4L77.9,56.6L74.9,60.7L72.0,64.8L69.2,69.2L66.6,73.9L63.9,78.9L60.9,83.8L57.2,88.1L52.8,91.5L47.7,93.6L42.1,94.6L36.4,94.8L30.7,94.6L25.3,94.6L20.1,94.8L15.1,95.2L10.1,95.7L5.0,96.1L0.0,96.3L-5.0,96.1L-10.1,95.7L-15.0,94.9L-19.9,93.5L-24.5,91.4L-28.7,88.5L-32.6,85.0L-36.2,81.3L-39.7,77.9L-43.4,75.3L-47.6,73.4L-52.3,72.0L-57.3,70.7L-62.2,69.1L-66.9,66.9L-71.0,64.0L-74.7,60.5L-77.8,56.6L-80.7,52.4L-83.4,48.1L-85.8,43.7L-88.0,39.2L-90.0,34.6L-92.2,29.9L-94.6,25.3L-97.3,20.7L-100.3,15.9L-103.0,10.8L-104.9,5.5L-105.6,0.0L-104.9,-5.5L-103.0,-10.8L-100.3,-15.9L-97.3,-20.7L-94.6,-25.3L-92.2,-29.9L-90.0,-34.6L-88.0,-39.2L-85.8,-43.7L-83.4,-48.1L-80.7,-52.4L-77.8,-56.6L-74.7,-60.5L-71.0,-64.0L-66.9,-66.9L-62.2,-69.1L-57.3,-70.7L-52.3,-72.0L-47.6,-73.4L-43.5,-75.3L-39.7,-77.9L-36.2,-81.3L-32.6,-85.0L-28.7,-88.5L-24.5,-91.4L-19.9,-93.5L-15.0,-94.9L-10.1,-95.7L-5.0,-96.1L-0.0,-96.3L5.0,-96.1L10.1,-95.7L15.1,-95.2L20.1,-94.8L25.3,-94.6L30.7,-94.6L36.4,-94.8L42.1,-94.6L47.7,-93.6L52.8,-91.5L57.2,-88.1L60.9,-83.8L63.9,-78.9L66.6,-73.9L69.2,-69.2L72.0,-64.8L74.9,-60.7L77.9,-56.6L80.7,-52.4L83.4,-48.1L85.8,-43.7L87.9,-39.1L89.7,-34.4L90.9,-29.5L91.4,-24.5L91.0,-19.3L89.9,-14.2L88.5,-9.3L87.3,-4.6L86.9,-0.0Z" fill="none" stroke="#c0f8f9" stroke-width="1.7" stroke-linecap="round" opacity="0.95"/><path d="M105.6,0.0L104.9,5.5L103.0,10.8L100.3,15.9L97.3,20.7L94.6,25.3L92.2,29.9L90.0,34.6L88.0,39.2L85.8,43.7L83.4,48.1L80.7,52.4L77.8,56.6L74.7,60.5L71.0,64.0L66.9,66.9L62.2,69.1L57.3,70.7L52.3,72.0L47.6,73.4L43.5,75.3L39.7,77.9L36.2,81.3L32.6,85.0L28.7,88.5L24.5,91.4L19.9,93.5L15.0,94.9L10.1,95.7L5.0,96.1L0.0,96.3L-5.0,96.1L-10.1,95.7L-15.1,95.2L-20.1,94.8L-25.3,94.6L-30.7,94.6L-36.4,94.8L-42.1,94.6L-47.7,93.6L-52.8,91.5L-57.2,88.1L-60.9,83.8L-63.9,78.9L-66.6,73.9L-69.2,69.2L-72.0,64.8L-74.9,60.7L-77.9,56.6L-80.7,52.4L-83.4,48.1L-85.8,43.7L-87.9,39.1L-89.7,34.4L-90.9,29.5L-91.4,24.5L-91.0,19.3L-89.9,14.2L-88.5,9.3L-87.3,4.6L-86.9,0.0L-87.3,-4.6L-88.5,-9.3L-89.9,-14.2L-91.0,-19.3L-91.4,-24.5L-90.9,-29.5L-89.7,-34.4L-87.9,-39.1L-85.8,-43.7L-83.4,-48.1L-80.7,-52.4L-77.9,-56.6L-74.9,-60.7L-72.0,-64.8L-69.2,-69.2L-66.6,-73.9L-63.9,-78.9L-60.9,-83.8L-57.2,-88.1L-52.8,-91.5L-47.7,-93.6L-42.1,-94.6L-36.4,-94.8L-30.7,-94.6L-25.3,-94.6L-20.1,-94.8L-15.1,-95.2L-10.1,-95.7L-5.0,-96.1L-0.0,-96.3L5.0,-96.1L10.1,-95.7L15.0,-94.9L19.9,-93.5L24.5,-91.4L28.7,-88.5L32.6,-85.0L36.2,-81.3L39.7,-77.9L43.5,-75.3L47.6,-73.4L52.3,-72.0L57.3,-70.7L62.2,-69.1L66.9,-66.9L71.0,-64.0L74.7,-60.5L77.8,-56.6L80.7,-52.4L83.4,-48.1L85.8,-43.7L88.0,-39.2L90.0,-34.6L92.2,-29.9L94.6,-25.3L97.3,-20.7L100.3,-15.9L103.0,-10.8L104.9,-5.5L105.6,-0.0Z" fill="none" stroke="#eec9fb" stroke-width="5.1" stroke-linecap="round" opacity="0.15" filter="url(#tg)"/><path d="M105.6,0.0L104.9,5.5L103.0,10.8L100.3,15.9L97.3,20.7L94.6,25.3L92.2,29.9L90.0,34.6L88.0,39.2L85.8,43.7L83.4,48.1L80.7,52.4L77.8,56.6L74.7,60.5L71.0,64.0L66.9,66.9L62.2,69.1L57.3,70.7L52.3,72.0L47.6,73.4L43.5,75.3L39.7,77.9L36.2,81.3L32.6,85.0L28.7,88.5L24.5,91.4L19.9,93.5L15.0,94.9L10.1,95.7L5.0,96.1L0.0,96.3L-5.0,96.1L-10.1,95.7L-15.1,95.2L-20.1,94.8L-25.3,94.6L-30.7,94.6L-36.4,94.8L-42.1,94.6L-47.7,93.6L-52.8,91.5L-57.2,88.1L-60.9,83.8L-63.9,78.9L-66.6,73.9L-69.2,69.2L-72.0,64.8L-74.9,60.7L-77.9,56.6L-80.7,52.4L-83.4,48.1L-85.8,43.7L-87.9,39.1L-89.7,34.4L-90.9,29.5L-91.4,24.5L-91.0,19.3L-89.9,14.2L-88.5,9.3L-87.3,4.6L-86.9,0.0L-87.3,-4.6L-88.5,-9.3L-89.9,-14.2L-91.0,-19.3L-91.4,-24.5L-90.9,-29.5L-89.7,-34.4L-87.9,-39.1L-85.8,-43.7L-83.4,-48.1L-80.7,-52.4L-77.9,-56.6L-74.9,-60.7L-72.0,-64.8L-69.2,-69.2L-66.6,-73.9L-63.9,-78.9L-60.9,-83.8L-57.2,-88.1L-52.8,-91.5L-47.7,-93.6L-42.1,-94.6L-36.4,-94.8L-30.7,-94.6L-25.3,-94.6L-20.1,-94.8L-15.1,-95.2L-10.1,-95.7L-5.0,-96.1L-0.0,-96.3L5.0,-96.1L10.1,-95.7L15.0,-94.9L19.9,-93.5L24.5,-91.4L28.7,-88.5L32.6,-85.0L36.2,-81.3L39.7,-77.9L43.5,-75.3L47.6,-73.4L52.3,-72.0L57.3,-70.7L62.2,-69.1L66.9,-66.9L71.0,-64.0L74.7,-60.5L77.8,-56.6L80.7,-52.4L83.4,-48.1L85.8,-43.7L88.0,-39.2L90.0,-34.6L92.2,-29.9L94.6,-25.3L97.3,-20.7L100.3,-15.9L103.0,-10.8L104.9,-5.5L105.6,-0.0Z" fill="none" stroke="#eec9fb" stroke-width="1.7" stroke-linecap="round" opacity="0.95"/><path d="M86.9,0.0L87.3,4.6L88.5,9.3L89.9,14.2L91.0,19.3L91.4,24.5L90.9,29.5L89.7,34.4L87.9,39.1L85.8,43.7L83.4,48.1L80.7,52.4L77.9,56.6L74.9,60.7L72.0,64.8L69.2,69.2L66.6,73.9L63.9,78.9L60.9,83.8L57.2,88.1L52.8,91.5L47.7,93.6L42.1,94.6L36.4,94.8L30.7,94.6L25.3,94.6L20.1,94.8L15.1,95.2L10.1,95.7L5.0,96.1L0.0,96.3L-5.0,96.1L-10.1,95.7L-15.0,94.9L-19.9,93.5L-24.5,91.4L-28.7,88.5L-32.6,85.0L-36.2,81.3L-39.7,77.9L-43.4,75.3L-47.6,73.4L-52.3,72.0L-57.3,70.7L-62.2,69.1L-66.9,66.9L-71.0,64.0L-74.7,60.5L-77.8,56.6L-80.7,52.4L-83.4,48.1L-85.8,43.7L-88.0,39.2L-90.0,34.6L-92.2,29.9L-94.6,25.3L-97.3,20.7L-100.3,15.9L-103.0,10.8L-104.9,5.5L-105.6,0.0L-104.9,-5.5L-103.0,-10.8L-100.3,-15.9L-97.3,-20.7L-94.6,-25.3L-92.2,-29.9L-90.0,-34.6L-88.0,-39.2L-85.8,-43.7L-83.4,-48.1L-80.7,-52.4L-77.8,-56.6L-74.7,-60.5L-71.0,-64.0L-66.9,-66.9L-62.2,-69.1L-57.3,-70.7L-52.3,-72.0L-47.6,-73.4L-43.5,-75.3L-39.7,-77.9L-36.2,-81.3L-32.6,-85.0L-28.7,-88.5L-24.5,-91.4L-19.9,-93.5L-15.0,-94.9L-10.1,-95.7L-5.0,-96.1L-0.0,-96.3L5.0,-96.1L10.1,-95.7L15.1,-95.2L20.1,-94.8L25.3,-94.6L30.7,-94.6L36.4,-94.8L42.1,-94.6L47.7,-93.6L52.8,-91.5L57.2,-88.1L60.9,-83.8L63.9,-78.9L66.6,-73.9L69.2,-69.2L72.0,-64.8L74.9,-60.7L77.9,-56.6L80.7,-52.4L83.4,-48.1L85.8,-43.7L87.9,-39.1L89.7,-34.4L90.9,-29.5L91.4,-24.5L91.0,-19.3L89.9,-14.2L88.5,-9.3L87.3,-4.6L86.9,-0.0Z" fill="none" stroke="#c0f8f9" stroke-width="5.1" stroke-linecap="round" opacity="0.15" filter="url(#tg)"/><path d="M86.9,0.0L87.3,4.6L88.5,9.3L89.9,14.2L91.0,19.3L91.4,24.5L90.9,29.5L89.7,34.4L87.9,39.1L85.8,43.7L83.4,48.1L80.7,52.4L77.9,56.6L74.9,60.7L72.0,64.8L69.2,69.2L66.6,73.9L63.9,78.9L60.9,83.8L57.2,88.1L52.8,91.5L47.7,93.6L42.1,94.6L36.4,94.8L30.7,94.6L25.3,94.6L20.1,94.8L15.1,95.2L10.1,95.7L5.0,96.1L0.0,96.3L-5.0,96.1L-10.1,95.7L-15.0,94.9L-19.9,93.5L-24.5,91.4L-28.7,88.5L-32.6,85.0L-36.2,81.3L-39.7,77.9L-43.4,75.3L-47.6,73.4L-52.3,72.0L-57.3,70.7L-62.2,69.1L-66.9,66.9L-71.0,64.0L-74.7,60.5L-77.8,56.6L-80.7,52.4L-83.4,48.1L-85.8,43.7L-88.0,39.2L-90.0,34.6L-92.2,29.9L-94.6,25.3L-97.3,20.7L-100.3,15.9L-103.0,10.8L-104.9,5.5L-105.6,0.0L-104.9,-5.5L-103.0,-10.8L-100.3,-15.9L-97.3,-20.7L-94.6,-25.3L-92.2,-29.9L-90.0,-34.6L-88.0,-39.2L-85.8,-43.7L-83.4,-48.1L-80.7,-52.4L-77.8,-56.6L-74.7,-60.5L-71.0,-64.0L-66.9,-66.9L-62.2,-69.1L-57.3,-70.7L-52.3,-72.0L-47.6,-73.4L-43.5,-75.3L-39.7,-77.9L-36.2,-81.3L-32.6,-85.0L-28.7,-88.5L-24.5,-91.4L-19.9,-93.5L-15.0,-94.9L-10.1,-95.7L-5.0,-96.1L-0.0,-96.3L5.0,-96.1L10.1,-95.7L15.1,-95.2L20.1,-94.8L25.3,-94.6L30.7,-94.6L36.4,-94.8L42.1,-94.6L47.7,-93.6L52.8,-91.5L57.2,-88.1L60.9,-83.8L63.9,-78.9L66.6,-73.9L69.2,-69.2L72.0,-64.8L74.9,-60.7L77.9,-56.6L80.7,-52.4L83.4,-48.1L85.8,-43.7L87.9,-39.1L89.7,-34.4L90.9,-29.5L91.4,-24.5L91.0,-19.3L89.9,-14.2L88.5,-9.3L87.3,-4.6L86.9,-0.0Z" fill="none" stroke="#c0f8f9" stroke-width="1.7" stroke-linecap="round" opacity="0.95"/><path d="M105.6,0.0L104.9,5.5L103.0,10.8L100.3,15.9L97.3,20.7L94.6,25.3L92.2,29.9L90.0,34.6L88.0,39.2L85.8,43.7L83.4,48.1L80.7,52.4L77.8,56.6L74.7,60.5L71.0,64.0L66.9,66.9L62.2,69.1L57.3,70.7L52.3,72.0L47.6,73.4L43.5,75.3L39.7,77.9L36.2,81.3L32.6,85.0L28.7,88.5L24.5,91.4L19.9,93.5L15.0,94.9L10.1,95.7L5.0,96.1L0.0,96.3L-5.0,96.1L-10.1,95.7L-15.1,95.2L-20.1,94.8L-25.3,94.6L-30.7,94.6L-36.4,94.8L-42.1,94.6L-47.7,93.6L-52.8,91.5L-57.2,88.1L-60.9,83.8L-63.9,78.9L-66.6,73.9L-69.2,69.2L-72.0,64.8L-74.9,60.7L-77.9,56.6L-80.7,52.4L-83.4,48.1L-85.8,43.7L-87.9,39.1L-89.7,34.4L-90.9,29.5L-91.4,24.5L-91.0,19.3L-89.9,14.2L-88.5,9.3L-87.3,4.6L-86.9,0.0L-87.3,-4.6L-88.5,-9.3L-89.9,-14.2L-91.0,-19.3L-91.4,-24.5L-90.9,-29.5L-89.7,-34.4L-87.9,-39.1L-85.8,-43.7L-83.4,-48.1L-80.7,-52.4L-77.9,-56.6L-74.9,-60.7L-72.0,-64.8L-69.2,-69.2L-66.6,-73.9L-63.9,-78.9L-60.9,-83.8L-57.2,-88.1L-52.8,-91.5L-47.7,-93.6L-42.1,-94.6L-36.4,-94.8L-30.7,-94.6L-25.3,-94.6L-20.1,-94.8L-15.1,-95.2L-10.1,-95.7L-5.0,-96.1L-0.0,-96.3L5.0,-96.1L10.1,-95.7L15.0,-94.9L19.9,-93.5L24.5,-91.4L28.7,-88.5L32.6,-85.0L36.2,-81.3L39.7,-77.9L43.5,-75.3L47.6,-73.4L52.3,-72.0L57.3,-70.7L62.2,-69.1L66.9,-66.9L71.0,-64.0L74.7,-60.5L77.8,-56.6L80.7,-52.4L83.4,-48.1L85.8,-43.7L88.0,-39.2L90.0,-34.6L92.2,-29.9L94.6,-25.3L97.3,-20.7L100.3,-15.9L103.0,-10.8L104.9,-5.5L105.6,-0.0Z" fill="none" stroke="#eec9fb" stroke-width="5.1" stroke-linecap="round" opacity="0.15" filter="url(#tg)"/><path d="M105.6,0.0L104.9,5.5L103.0,10.8L100.3,15.9L97.3,20.7L94.6,25.3L92.2,29.9L90.0,34.6L88.0,39.2L85.8,43.7L83.4,48.1L80.7,52.4L77.8,56.6L74.7,60.5L71.0,64.0L66.9,66.9L62.2,69.1L57.3,70.7L52.3,72.0L47.6,73.4L43.5,75.3L39.7,77.9L36.2,81.3L32.6,85.0L28.7,88.5L24.5,91.4L19.9,93.5L15.0,94.9L10.1,95.7L5.0,96.1L0.0,96.3L-5.0,96.1L-10.1,95.7L-15.1,95.2L-20.1,94.8L-25.3,94.6L-30.7,94.6L-36.4,94.8L-42.1,94.6L-47.7,93.6L-52.8,91.5L-57.2,88.1L-60.9,83.8L-63.9,78.9L-66.6,73.9L-69.2,69.2L-72.0,64.8L-74.9,60.7L-77.9,56.6L-80.7,52.4L-83.4,48.1L-85.8,43.7L-87.9,39.1L-89.7,34.4L-90.9,29.5L-91.4,24.5L-91.0,19.3L-89.9,14.2L-88.5,9.3L-87.3,4.6L-86.9,0.0L-87.3,-4.6L-88.5,-9.3L-89.9,-14.2L-91.0,-19.3L-91.4,-24.5L-90.9,-29.5L-89.7,-34.4L-87.9,-39.1L-85.8,-43.7L-83.4,-48.1L-80.7,-52.4L-77.9,-56.6L-74.9,-60.7L-72.0,-64.8L-69.2,-69.2L-66.6,-73.9L-63.9,-78.9L-60.9,-83.8L-57.2,-88.1L-52.8,-91.5L-47.7,-93.6L-42.1,-94.6L-36.4,-94.8L-30.7,-94.6L-25.3,-94.6L-20.1,-94.8L-15.1,-95.2L-10.1,-95.7L-5.0,-96.1L-0.0,-96.3L5.0,-96.1L10.1,-95.7L15.0,-94.9L19.9,-93.5L24.5,-91.4L28.7,-88.5L32.6,-85.0L36.2,-81.3L39.7,-77.9L43.5,-75.3L47.6,-73.4L52.3,-72.0L57.3,-70.7L62.2,-69.1L66.9,-66.9L71.0,-64.0L74.7,-60.5L77.8,-56.6L80.7,-52.4L83.4,-48.1L85.8,-43.7L88.0,-39.2L90.0,-34.6L92.2,-29.9L94.6,-25.3L97.3,-20.7L100.3,-15.9L103.0,-10.8L104.9,-5.5L105.6,-0.0Z" fill="none" stroke="#eec9fb" stroke-width="1.7" stroke-linecap="round" opacity="0.95"/>
</svg>