<svg xmlns="http://www.w3.org/2000/svg" viewBox="-250 -250 500 500">
<rect x="-250" y="-250" width="500" height="500" fill="#1a0a08"/>
<path d="M217.0,0.0L216.2,11.3L213.8,22.5L209.8,33.2L204.4,43.4L197.7,53.0L189.9,61.7L181.2,69.5L171.7,76.5L161.8,82.4L151.6,87.5L141.3,91.7L131.1,95.2L121.2,98.1L111.7,100.6L102.7,102.7L94.4,104.8L86.6,106.9L79.4,109.3L72.7,112.0L66.5,115.2L60.6,119.0L54.9,123.4L49.3,128.4L43.6,134.1L37.6,140.4L31.3,147.0L24.4,154.0L16.9,161.1L8.8,168.2L0.0,175.0L-9.5,181.3L-19.6,186.9L-30.4,191.7L-41.5,195.3L-53.0,197.7L-64.6,198.8L-76.1,198.3L-87.4,196.4L-98.3,192.9L-108.5,187.9L-117.9,181.6L-126.3,173.9L-133.7,165.1L-139.8,155.3L-144.7,144.7L-148.4,133.6L-150.8,122.1L-152.1,110.5L-152.3,98.9L-151.6,87.5L-150.1,76.5L-148.0,65.9L-145.6,55.9L-143.0,46.4L-140.4,37.6L-137.9,29.3L-135.9,21.5L-134.3,14.1L-133.3,7.0L-133.0,0.0L-133.3,-7.0L-134.3,-14.1L-135.9,-21.5L-137.9,-29.3L-140.4,-37.6L-143.0,-46.4L-145.6,-55.9L-148.0,-65.9L-150.1,-76.5L-151.6,-87.5L-152.3,-98.9L-152.1,-110.5L-150.8,-122.1L-148.4,-133.6L-144.7,-144.7L-139.8,-155.3L-133.7,-165.1L-126.3,-173.9L-117.9,-181.6L-108.5,-187.9L-98.3,-192.9L-87.4,-196.4L-76.1,-198.3L-64.6,-198.8L-53.0,-197.7L-41.5,-195.3L-30.4,-191.7L-19.6,-186.9L-9.5,-181.3L-0.0,-175.0L8.8,-168.2L16.9,-161.1L24.4,-154.0L31.3,-147.0L37.6,-140.4L43.6,-134.1L49.3,-128.4L54.9,-123.4L60.6,-119.0L66.5,-115.2L72.7,-112.0L79.4,-109.3L86.6,-106.9L94.4,-104.8L102.7,-102.7L111.7,-100.6L121.2,-98.1L131.1,-95.2L141.3,-91.7L151.6,-87.5L161.8,-82.4L171.7,-76.5L181.2,-69.5L189.9,-61.7L197.7,-53.0L204.4,-43.4L209.8,-33.2L213.8,-22.5L216.2,-11.3L217.0,-0.0Z" fill="none" stroke="#ffebdb" stroke-width="2.6" stroke-linecap="round" opacity="0.95"/>
<path d="M215.6,0.0L216.5,11.3L215.8,22.7L213.4,33.8L209.5,44.5L204.2,54.7L197.5,64.2L189.6,72.8L180.8,80.5L171.1,87.2L161.0,92.9L150.4,97.7L139.8,101.6L129.2,104.6L118.9,107.0L108.9,108.9L99.4,110.4L90.5,111.7L82.2,113.1L74.4,114.6L67.2,116.4L60.5,118.7L54.1,121.6L48.0,125.0L42.0,129.1L35.9,133.9L29.6,139.2L23.0,145.1L15.9,151.3L8.3,157.7L0.0,164.1L-8.9,170.4L-18.5,176.2L-28.7,181.5L-39.5,185.9L-50.7,189.3L-62.2,191.6L-73.9,192.5L-85.5,192.0L-96.9,190.1L-107.8,186.7L-118.1,181.8L-127.5,175.5L-136.0,167.9L-143.3,159.2L-149.5,149.5L-154.3,138.9L-157.8,127.8L-160.1,116.3L-161.1,104.6L-161.0,92.9L-159.8,81.4L-157.9,70.3L-155.2,59.6L-152.1,49.4L-148.8,39.9L-145.3,30.9L-142.0,22.5L-139.0,14.6L-136.4,7.2L-134.4,0.0L-133.0,-7.0L-132.3,-13.9L-132.3,-20.9L-132.8,-28.2L-133.9,-35.9L-135.4,-44.0L-137.1,-52.6L-139.0,-61.9L-140.7,-71.7L-142.1,-82.1L-143.1,-92.9L-143.4,-104.2L-142.8,-115.6L-141.2,-127.2L-138.6,-138.6L-134.8,-149.7L-129.8,-160.3L-123.6,-170.1L-116.2,-178.9L-107.8,-186.7L-98.4,-193.1L-88.2,-198.2L-77.4,-201.7L-66.2,-203.7L-54.7,-204.2L-43.2,-203.1L-31.8,-200.6L-20.7,-196.8L-10.1,-191.8L-0.0,-185.9L9.4,-179.1L18.1,-171.9L26.0,-164.2L33.3,-156.5L39.9,-148.8L45.9,-141.3L51.5,-134.2L56.9,-127.7L62.0,-121.7L67.2,-116.4L72.6,-111.7L78.2,-107.6L84.3,-104.1L90.9,-100.9L98.0,-98.0L105.8,-95.3L114.2,-92.4L123.1,-89.4L132.4,-86.0L142.1,-82.1L152.0,-77.5L161.9,-72.1L171.5,-65.8L180.7,-58.7L189.3,-50.7L197.0,-41.9L203.7,-32.3L209.1,-22.0L213.1,-11.2L215.6,-0.0Z" fill="none" stroke="#ffd7d7" stroke-width="2.6" stroke-linecap="round" opacity="0.95"/>
<path d="M211.4,0.0L213.9,11.2L214.9,22.6L214.3,33.9L212.0,45.1L208.2,55.8L202.9,65.9L196.3,75.3L188.4,83.9L179.5,91.4L169.7,98.0L159.4,103.5L148.6,108.0L137.7,111.5L126.8,114.2L116.1,116.1L105.7,117.4L95.7,118.2L86.3,118.8L77.5,119.4L69.3,120.1L61.6,121.0L54.5,122.3L47.7,124.2L41.2,126.7L34.8,129.9L28.4,133.6L21.9,138.1L15.0,143.0L7.8,148.4L0.0,154.0L-8.4,159.7L-17.4,165.4L-27.0,170.7L-37.3,175.5L-48.1,179.5L-59.4,182.7L-70.9,184.7L-82.6,185.5L-94.3,185.0L-105.7,183.1L-116.7,179.7L-127.0,174.8L-136.5,168.6L-145.0,161.1L-152.4,152.4L-158.6,142.8L-163.4,132.3L-166.8,121.2L-168.9,109.7L-169.7,98.0L-169.3,86.3L-167.8,74.7L-165.4,63.5L-162.3,52.7L-158.5,42.5L-154.5,32.8L-150.3,23.8L-146.1,15.4L-142.2,7.5L-138.6,0.0L-135.6,-7.1L-133.2,-14.0L-131.4,-20.8L-130.3,-27.7L-129.9,-34.8L-129.9,-42.2L-130.5,-50.1L-131.4,-58.5L-132.4,-67.4L-133.4,-77.0L-134.1,-87.1L-134.5,-97.7L-134.3,-108.7L-133.3,-120.0L-131.4,-131.4L-128.5,-142.7L-124.5,-153.8L-119.4,-164.3L-113.1,-174.1L-105.7,-183.1L-97.2,-190.9L-87.9,-197.4L-77.7,-202.5L-67.0,-206.2L-55.8,-208.2L-44.4,-208.7L-32.9,-207.6L-21.6,-205.1L-10.5,-201.2L-0.0,-196.0L9.9,-189.8L19.2,-182.7L27.7,-175.0L35.5,-166.9L42.5,-158.5L48.8,-150.2L54.5,-142.0L59.7,-134.2L64.6,-126.8L69.3,-120.1L74.0,-113.9L78.7,-108.3L83.7,-103.4L89.1,-99.0L95.1,-95.1L101.5,-91.4L108.6,-88.0L116.3,-84.5L124.6,-80.9L133.4,-77.0L142.5,-72.6L151.9,-67.6L161.3,-61.9L170.6,-55.4L179.5,-48.1L187.9,-39.9L195.4,-31.0L202.0,-21.2L207.4,-10.9L211.4,-0.0Z" fill="none" stroke="#ffebdb" stroke-width="2.6" stroke-linecap="round" opacity="0.95"/>
<path d="M204.7,0.0L208.7,10.9L211.3,22.2L212.3,33.6L211.8,45.0L209.6,56.2L205.9,66.9L200.7,77.0L194.1,86.4L186.2,94.9L177.3,102.3L167.5,108.8L157.0,114.1L146.1,118.3L134.9,121.5L123.7,123.7L112.7,125.2L102.0,125.9L91.7,126.2L81.9,126.1L72.7,125.8L64.0,125.7L56.0,125.7L48.4,126.1L41.3,127.0L34.4,128.5L27.8,130.6L21.1,133.4L14.4,136.8L7.4,140.8L0.0,145.3L-7.9,150.1L-16.3,155.1L-25.3,160.0L-35.0,164.7L-45.3,169.0L-56.1,172.7L-67.4,175.5L-78.9,177.3L-90.7,177.9L-102.3,177.3L-113.8,175.3L-124.9,171.9L-135.3,167.0L-144.9,160.9L-153.4,153.4L-160.9,144.9L-167.0,135.3L-171.9,124.9L-175.3,113.8L-177.3,102.3L-177.9,90.7L-177.3,78.9L-175.5,67.4L-172.7,56.1L-169.0,45.3L-164.7,35.0L-160.0,25.3L-155.1,16.3L-150.1,7.9L-145.3,0.0L-140.8,-7.4L-136.8,-14.4L-133.4,-21.1L-130.6,-27.8L-128.5,-34.4L-127.0,-41.3L-126.1,-48.4L-125.7,-56.0L-125.7,-64.0L-125.8,-72.7L-126.1,-81.9L-126.2,-91.7L-125.9,-102.0L-125.2,-112.7L-123.7,-123.7L-121.5,-134.9L-118.3,-146.1L-114.1,-157.0L-108.8,-167.5L-102.3,-177.3L-94.9,-186.2L-86.4,-194.1L-77.0,-200.7L-66.9,-205.9L-56.2,-209.6L-45.0,-211.8L-33.6,-212.3L-22.2,-211.3L-10.9,-208.7L-0.0,-204.7L10.5,-199.4L20.3,-193.0L29.4,-185.7L37.8,-177.6L45.3,-169.0L52.0,-160.2L58.1,-151.3L63.4,-142.5L68.2,-133.9L72.7,-125.8L76.8,-118.3L80.9,-111.3L85.0,-105.0L89.3,-99.2L94.0,-94.0L99.2,-89.3L105.0,-85.0L111.3,-80.9L118.3,-76.8L125.8,-72.7L133.9,-68.2L142.5,-63.4L151.3,-58.1L160.2,-52.0L169.0,-45.3L177.6,-37.8L185.7,-29.4L193.0,-20.3L199.4,-10.5L204.7,-0.0Z" fill="none" stroke="#ffd7d7" stroke-width="2.6" stroke-linecap="round" opacity="0.95"/>
<path d="M196.0,0.0L201.2,10.5L205.1,21.6L207.6,32.9L208.7,44.4L208.2,55.8L206.2,67.0L202.5,77.7L197.4,87.9L190.9,97.2L183.1,105.7L174.1,113.1L164.3,119.4L153.8,124.5L142.7,128.5L131.4,131.4L120.0,133.3L108.7,134.3L97.7,134.5L87.1,134.1L77.0,133.4L67.4,132.4L58.5,131.4L50.1,130.5L42.2,129.9L34.8,129.9L27.7,130.3L20.8,131.4L14.0,133.2L7.1,135.6L0.0,138.6L-7.5,142.2L-15.4,146.1L-23.8,150.3L-32.8,154.5L-42.5,158.5L-52.7,162.3L-63.5,165.4L-74.7,167.8L-86.3,169.3L-98.0,169.7L-109.7,168.9L-121.2,166.8L-132.3,163.4L-142.8,158.6L-152.4,152.4L-161.1,145.0L-168.6,136.5L-174.8,127.0L-179.7,116.7L-183.1,105.7L-185.0,94.3L-185.5,82.6L-184.7,70.9L-182.7,59.4L-179.5,48.1L-175.5,37.3L-170.7,27.0L-165.4,17.4L-159.7,8.4L-154.0,0.0L-148.4,-7.8L-143.0,-15.0L-138.1,-21.9L-133.6,-28.4L-129.9,-34.8L-126.7,-41.2L-124.2,-47.7L-122.3,-54.5L-121.0,-61.6L-120.1,-69.3L-119.4,-77.5L-118.8,-86.3L-118.2,-95.7L-117.4,-105.7L-116.1,-116.1L-114.2,-126.8L-111.5,-137.7L-108.0,-148.6L-103.5,-159.4L-98.0,-169.7L-91.4,-179.5L-83.9,-188.4L-75.3,-196.3L-65.9,-202.9L-55.8,-208.2L-45.1,-212.0L-33.9,-214.3L-22.6,-214.9L-11.2,-213.9L-0.0,-211.4L10.9,-207.4L21.2,-202.0L31.0,-195.4L39.9,-187.9L48.1,-179.5L55.4,-170.6L61.9,-161.3L67.6,-151.9L72.6,-142.5L77.0,-133.4L80.9,-124.6L84.5,-116.3L88.0,-108.6L91.4,-101.5L95.1,-95.1L99.0,-89.1L103.4,-83.7L108.3,-78.7L113.9,-74.0L120.1,-69.3L126.8,-64.6L134.2,-59.7L142.0,-54.5L150.2,-48.8L158.5,-42.5L166.9,-35.5L175.0,-27.7L182.7,-19.2L189.8,-9.9L196.0,-0.0Z" fill="none" stroke="#ffebdb" stroke-width="2.6" stroke-linecap="round" opacity="0.95"/>
<path d="M185.9,0.0L191.8,10.1L196.8,20.7L200.6,31.8L203.1,43.2L204.2,54.7L203.7,66.2L201.7,77.4L198.2,88.2L193.1,98.4L186.7,107.8L178.9,116.2L170.1,123.6L160.3,129.8L149.7,134.8L138.6,138.6L127.2,141.2L115.6,142.8L104.2,143.4L92.9,143.1L82.1,142.1L71.7,140.7L61.9,139.0L52.6,137.1L44.0,135.4L35.9,133.9L28.2,132.8L20.9,132.3L13.9,132.3L7.0,133.0L0.0,134.4L-7.2,136.4L-14.6,139.0L-22.5,142.0L-30.9,145.3L-39.9,148.8L-49.4,152.1L-59.6,155.2L-70.3,157.9L-81.4,159.8L-92.9,161.0L-104.6,161.1L-116.3,160.1L-127.8,157.8L-138.9,154.3L-149.5,149.5L-159.2,143.3L-167.9,136.0L-175.5,127.5L-181.8,118.1L-186.7,107.8L-190.1,96.9L-192.0,85.5L-192.5,73.9L-191.6,62.2L-189.3,50.7L-185.9,39.5L-181.5,28.7L-176.2,18.5L-170.4,8.9L-164.1,0.0L-157.7,-8.3L-151.3,-15.9L-145.1,-23.0L-139.2,-29.6L-133.9,-35.9L-129.1,-42.0L-125.0,-48.0L-121.6,-54.1L-118.7,-60.5L-116.4,-67.2L-114.6,-74.4L-113.1,-82.2L-111.7,-90.5L-110.4,-99.4L-108.9,-108.9L-107.0,-118.9L-104.6,-129.2L-101.6,-139.8L-97.7,-150.4L-92.9,-161.0L-87.2,-171.1L-80.5,-180.8L-72.8,-189.6L-64.2,-197.5L-54.7,-204.2L-44.5,-209.5L-33.8,-213.4L-22.7,-215.8L-11.3,-216.5L-0.0,-215.6L11.2,-213.1L22.0,-209.1L32.3,-203.7L41.9,-197.0L50.7,-189.3L58.7,-180.7L65.8,-171.5L72.1,-161.9L77.5,-152.0L82.1,-142.1L86.0,-132.4L89.4,-123.1L92.4,-114.2L95.3,-105.8L98.0,-98.0L100.9,-90.9L104.1,-84.3L107.6,-78.2L111.7,-72.6L116.4,-67.2L121.7,-62.0L127.7,-56.9L134.2,-51.5L141.3,-45.9L148.8,-39.9L156.5,-33.3L164.2,-26.0L171.9,-18.1L179.1,-9.4L185.9,-0.0Z" fill="none" stroke="#ffd7d7" stroke-width="2.6" stroke-linecap="round" opacity="0.95"/>
<path d="M175.0,0.0L181.3,9.5L186.9,19.6L191.7,30.4L195.3,41.5L197.7,53.0L198.8,64.6L198.3,76.1L196.4,87.4L192.9,98.3L187.9,108.5L181.6,117.9L173.9,126.3L165.1,133.7L155.3,139.8L144.7,144.7L133.6,148.4L122.1,150.8L110.5,152.1L98.9,152.3L87.5,151.6L76.5,150.1L65.9,148.0L55.9,145.6L46.4,143.0L37.6,140.4L29.3,137.9L21.5,135.9L14.1,134.3L7.0,133.3L0.0,133.0L-7.0,133.3L-14.1,134.3L-21.5,135.9L-29.3,137.9L-37.6,140.4L-46.4,143.0L-55.9,145.6L-65.9,148.0L-76.5,150.1L-87.5,151.6L-98.9,152.3L-110.5,152.1L-122.1,150.8L-133.6,148.4L-144.7,144.7L-155.3,139.8L-165.1,133.7L-173.9,126.3L-181.6,117.9L-187.9,108.5L-192.9,98.3L-196.4,87.4L-198.3,76.1L-198.8,64.6L-197.7,53.0L-195.3,41.5L-191.7,30.4L-186.9,19.6L-181.3,9.5L-175.0,0.0L-168.2,-8.8L-161.1,-16.9L-154.0,-24.4L-147.0,-31.3L-140.4,-37.6L-134.1,-43.6L-128.4,-49.3L-123.4,-54.9L-119.0,-60.6L-115.2,-66.5L-112.0,-72.7L-109.3,-79.4L-106.9,-86.6L-104.8,-94.4L-102.7,-102.7L-100.6,-111.7L-98.1,-121.2L-95.2,-131.1L-91.7,-141.3L-87.5,-151.6L-82.4,-161.8L-76.5,-171.7L-69.5,-181.2L-61.7,-189.9L-53.0,-197.7L-43.4,-204.4L-33.2,-209.8L-22.5,-213.8L-11.3,-216.2L-0.0,-217.0L11.3,-216.2L22.5,-213.8L33.2,-209.8L43.4,-204.4L53.0,-197.7L61.7,-189.9L69.5,-181.2L76.5,-171.7L82.4,-161.8L87.5,-151.6L91.7,-141.3L95.2,-131.1L98.1,-121.2L100.6,-111.7L102.7,-102.7L104.8,-94.4L106.9,-86.6L109.3,-79.4L112.0,-72.7L115.2,-66.5L119.0,-60.6L123.4,-54.9L128.4,-49.3L134.1,-43.6L140.4,-37.6L147.0,-31.3L154.0,-24.4L161.1,-16.9L168.2,-8.8L175.0,-0.0Z" fill="none" stroke="#ffebdb" stroke-width="2.6" stroke-linecap="round" opacity="0.95"/>
</svg>