<svg xmlns="http://www.w3.org/2000/svg" viewBox="-250 -250 500 500">
<rect x="-250" y="-250" width="500" height="500" fill="#0c1218"/>
<path d="M175.0,0.0L176.7,9.3L177.8,18.7L178.5,28.3L178.6,38.0L178.2,47.8L177.3,57.6L175.8,67.5L173.8,77.4L171.2,87.2L168.0,97.0L164.3,106.7L160.0,116.3L155.2,125.7L149.8,134.9L143.9,143.9L137.4,152.6L130.5,161.1L123.0,169.2L115.0,177.0L68.5,118.6L63.1,123.8L57.3,128.6L51.1,133.2L44.7,137.5L37.9,141.5L30.9,145.2L23.5,148.4L15.9,151.4L8.1,153.9L0.0,156.0L-8.3,157.7L-16.7,158.9L-25.3,159.7L-34.0,160.0L-42.8,159.9L-51.7,159.2L-60.7,158.1L-69.6,156.4L-78.6,154.2L-87.5,151.6L-96.3,148.4L-105.1,144.7L-113.7,140.4L-122.2,135.7L-130.5,130.5L-138.5,124.7L-146.3,118.5L-153.9,111.8L-161.1,104.6L-168.0,97.0L-174.5,88.9L-180.7,80.5L-186.4,71.6L-191.7,62.3L-196.6,52.7L-200.9,42.7L-204.7,32.4L-208.1,21.9L-210.8,11.0L-137.0,0.0L-138.7,-7.3L-140.0,-14.7L-140.9,-22.3L-141.4,-30.1L-141.5,-37.9L-141.1,-45.9L-140.3,-53.9L-139.0,-61.9L-137.3,-70.0L-135.1,-78.0L-132.4,-86.0L-129.3,-93.9L-125.7,-101.8L-121.6,-109.5L-117.0,-117.0L-112.0,-124.4L-106.5,-131.6L-100.6,-138.5L-94.3,-145.2L-87.5,-151.6L-80.3,-157.6L-72.7,-163.3L-64.8,-168.7L-56.4,-173.7L-47.8,-178.2L-38.8,-182.3L-29.5,-186.0L-19.9,-189.2L-10.1,-191.8L-0.0,-194.0L10.3,-195.6L20.7,-196.7L31.2,-197.2L41.9,-197.2L52.7,-196.6L63.5,-195.3L74.3,-193.5L85.1,-191.1L95.8,-188.1L68.5,-118.6L75.7,-116.5L82.8,-113.9L89.8,-110.9L96.8,-107.5L103.6,-103.6L110.3,-99.3L116.8,-94.6L123.1,-89.5L129.2,-83.9L135.1,-78.0L140.7,-71.7L146.0,-65.0L151.0,-57.9L155.6,-50.6L159.9,-42.8L163.7,-34.8L167.2,-26.5L170.3,-17.9L172.9,-9.1L175.0,-0.0Z" fill="none" stroke="#e6f2c5" stroke-width="2.4" stroke-linecap="round" opacity="0.95"/><path d="M165.7,0.0L167.4,8.8L168.6,17.7L169.3,26.8L169.5,36.0L169.2,45.3L168.4,54.7L167.1,64.2L165.3,73.6L162.9,83.0L160.0,92.4L156.5,101.6L152.5,110.8L148.0,119.8L142.9,128.7L137.3,137.3L131.2,145.7L124.6,153.9L117.5,161.7L109.9,169.3L101.9,176.4L93.3,183.2L53.5,120.1L47.8,124.6L41.8,128.7L35.5,132.5L28.9,136.1L22.1,139.3L14.9,142.1L7.6,144.6L0.0,146.7L-7.8,148.4L-15.7,149.7L-23.8,150.5L-32.1,150.9L-40.4,150.9L-48.9,150.4L-57.3,149.4L-65.9,147.9L-74.4,146.0L-82.9,143.5L-91.3,140.6L-99.6,137.1L-107.9,133.2L-116.0,128.8L-123.9,123.9L-131.6,118.5L-139.1,112.7L-146.4,106.3L-153.3,99.6L-160.0,92.4L-166.3,84.7L-172.2,76.7L-177.8,68.2L-182.9,59.4L-187.6,50.3L-191.8,40.8L-195.6,31.0L-198.8,20.9L-201.5,10.6L-203.7,0.0L-205.3,-10.8L-130.8,-13.7L-131.8,-20.9L-132.4,-28.1L-132.5,-35.5L-132.3,-43.0L-131.7,-50.5L-130.6,-58.1L-129.0,-65.7L-127.1,-73.4L-124.6,-80.9L-121.8,-88.5L-118.4,-95.9L-114.7,-103.3L-110.5,-110.5L-105.8,-117.5L-100.7,-124.4L-95.2,-131.0L-89.2,-137.4L-82.9,-143.5L-76.1,-149.3L-68.9,-154.9L-61.4,-160.0L-53.6,-164.8L-45.3,-169.2L-36.8,-173.2L-28.0,-176.8L-18.9,-179.9L-9.6,-182.6L-0.0,-184.7L9.8,-186.4L19.7,-187.5L29.8,-188.1L40.0,-188.1L50.3,-187.6L60.6,-186.5L71.0,-184.9L81.3,-182.6L91.6,-179.8L101.9,-176.4L112.0,-172.4L77.3,-106.4L84.0,-103.7L90.5,-100.6L97.0,-97.0L103.4,-93.1L109.6,-88.7L115.6,-84.0L121.5,-78.9L127.1,-73.4L132.4,-67.5L137.5,-61.2L142.3,-54.6L146.8,-47.7L150.9,-40.4L154.7,-32.9L158.0,-25.0L161.0,-16.9L163.6,-8.6L165.7,-0.0Z" fill="none" stroke="#ddfbf1" stroke-width="2.4" stroke-linecap="round" opacity="0.95"/><path d="M156.4,0.0L158.1,8.3L159.4,16.7L160.1,25.4L160.4,34.1L160.3,42.9L159.6,51.9L158.5,60.8L156.8,69.8L154.6,78.8L151.9,87.7L148.7,96.6L145.0,105.4L140.8,114.0L136.0,122.5L130.8,130.8L125.0,138.8L118.8,146.7L112.1,154.2L104.9,161.5L97.2,168.4L89.1,174.9L80.6,181.1L71.7,186.8L38.9,119.9L33.1,123.6L27.0,127.0L20.6,130.1L14.0,132.9L7.1,135.3L0.0,137.4L-7.3,139.1L-14.8,140.5L-22.4,141.4L-30.2,141.9L-38.0,141.9L-46.0,141.5L-54.0,140.7L-62.1,139.4L-70.2,137.7L-78.2,135.5L-86.2,132.8L-94.2,129.6L-102.0,126.0L-109.8,121.9L-117.3,117.3L-124.7,112.3L-131.9,106.8L-138.9,100.9L-145.5,94.5L-151.9,87.7L-158.0,80.5L-163.7,72.9L-169.1,64.9L-174.1,56.6L-178.6,47.9L-182.8,38.8L-186.4,29.5L-189.6,19.9L-192.3,10.1L-194.4,0.0L-196.1,-10.3L-197.1,-20.7L-197.7,-31.3L-123.3,-26.2L-123.6,-33.1L-123.5,-40.1L-123.0,-47.2L-122.1,-54.4L-120.8,-61.5L-119.0,-68.7L-116.9,-75.9L-114.3,-83.0L-111.2,-90.1L-107.8,-97.0L-103.9,-103.9L-99.6,-110.6L-94.9,-117.1L-89.7,-123.5L-84.2,-129.6L-78.2,-135.5L-71.9,-141.1L-65.2,-146.4L-58.1,-151.4L-50.7,-156.0L-42.9,-160.3L-34.9,-164.2L-26.6,-167.6L-17.9,-170.7L-9.1,-173.3L-0.0,-175.4L9.3,-177.1L18.7,-178.3L28.3,-178.9L38.1,-179.0L47.9,-178.6L57.7,-177.7L67.6,-176.2L77.5,-174.2L87.4,-171.5L97.2,-168.4L106.9,-164.7L116.5,-160.4L125.9,-155.5L84.3,-93.7L90.5,-90.5L96.5,-86.9L102.4,-82.9L108.1,-78.5L113.7,-73.8L119.0,-68.7L124.1,-63.3L129.0,-57.4L133.6,-51.3L137.9,-44.8L141.9,-38.0L145.6,-30.9L148.9,-23.6L151.8,-16.0L154.3,-8.1L156.4,-0.0Z" fill="none" stroke="#e6f2c5" stroke-width="2.4" stroke-linecap="round" opacity="0.95"/><path d="M147.2,0.0L148.8,7.8L150.1,15.8L151.0,23.9L151.4,32.2L151.3,40.5L150.8,49.0L149.8,57.5L148.3,66.0L146.3,74.6L143.9,83.1L140.9,91.5L137.5,99.9L133.6,108.1L129.1,116.3L124.2,124.2L118.8,131.9L112.9,139.5L106.6,146.7L99.8,153.7L92.6,160.3L84.9,166.7L76.9,172.6L68.4,178.2L59.6,183.3L50.4,188.0L25.1,117.9L19.2,120.9L13.0,123.7L6.6,126.1L0.0,128.2L-6.8,129.9L-13.8,131.2L-20.9,132.2L-28.2,132.8L-35.6,133.0L-43.1,132.7L-50.7,132.1L-58.3,131.0L-65.9,129.4L-73.6,127.4L-81.2,125.0L-88.7,122.1L-96.2,118.8L-103.5,115.0L-110.8,110.8L-117.8,106.1L-124.7,101.0L-131.3,95.4L-137.8,89.5L-143.9,83.1L-149.7,76.3L-155.3,69.1L-160.4,61.6L-165.2,53.7L-169.7,45.5L-173.7,36.9L-177.2,28.1L-180.4,19.0L-183.0,9.6L-185.2,0.0L-186.8,-9.8L-187.9,-19.8L-188.5,-29.9L-188.5,-40.1L-188.0,-50.4L-114.6,-37.3L-114.3,-43.9L-113.6,-50.6L-112.5,-57.3L-111.0,-64.1L-109.1,-70.8L-106.7,-77.6L-104.0,-84.2L-100.9,-90.8L-97.3,-97.3L-93.4,-103.7L-89.0,-109.9L-84.3,-116.0L-79.1,-121.8L-73.6,-127.4L-67.7,-132.8L-61.4,-137.9L-54.8,-142.7L-47.8,-147.2L-40.5,-151.3L-33.0,-155.1L-25.1,-158.5L-17.0,-161.5L-8.6,-164.0L-0.0,-166.2L8.8,-167.8L17.8,-169.0L26.9,-169.7L36.1,-170.0L45.5,-169.7L54.9,-168.9L64.3,-167.5L73.8,-165.7L83.2,-163.3L92.6,-160.3L101.9,-156.9L111.1,-152.9L120.1,-148.3L129.0,-143.2L137.6,-137.6L89.6,-80.7L95.2,-77.1L100.6,-73.1L105.9,-68.8L111.0,-64.1L115.9,-59.0L120.5,-53.7L125.0,-48.0L129.1,-41.9L133.0,-35.6L136.5,-29.0L139.7,-22.1L142.6,-15.0L145.1,-7.6L147.1,-0.0Z" fill="none" stroke="#ddfbf1" stroke-width="2.4" stroke-linecap="round" opacity="0.95"/><path d="M137.9,0.0L139.6,7.3L140.9,14.8L141.8,22.5L142.3,30.2L142.3,38.1L142.0,46.1L141.1,54.2L139.8,62.3L138.1,70.4L135.9,78.4L133.2,86.5L130.0,94.4L126.3,102.3L122.2,110.0L117.6,117.6L112.6,125.0L107.1,132.2L101.1,139.2L94.7,145.9L87.9,152.3L80.7,158.4L73.1,164.1L65.1,169.5L56.7,174.5L48.0,179.1L38.9,183.2L29.6,186.8L12.0,114.4L6.1,116.8L0.0,118.9L-6.3,120.6L-12.8,122.0L-19.5,123.0L-26.3,123.7L-33.2,124.0L-40.3,123.9L-47.4,123.4L-54.5,122.5L-61.7,121.1L-68.9,119.4L-76.1,117.2L-83.3,114.6L-90.3,111.6L-97.3,108.1L-104.2,104.2L-110.9,99.9L-117.5,95.1L-123.8,90.0L-130.0,84.4L-135.9,78.4L-141.5,72.1L-146.8,65.3L-151.8,58.3L-156.4,50.8L-160.7,43.1L-164.6,35.0L-168.1,26.6L-171.1,18.0L-173.7,9.1L-175.9,0.0L-177.5,-9.3L-178.7,-18.8L-179.3,-28.4L-179.5,-38.1L-179.1,-48.0L-178.1,-57.9L-176.6,-67.8L-105.1,-46.8L-104.2,-53.1L-102.9,-59.4L-101.3,-65.8L-99.2,-72.1L-96.8,-78.4L-94.0,-84.6L-90.8,-90.8L-87.2,-96.8L-83.2,-102.7L-78.8,-108.5L-74.1,-114.0L-68.9,-119.4L-63.5,-124.5L-57.6,-129.4L-51.4,-134.0L-45.0,-138.3L-38.1,-142.3L-31.0,-146.0L-23.6,-149.3L-16.0,-152.2L-8.1,-154.8L-0.0,-156.9L8.3,-158.5L16.8,-159.8L25.4,-160.6L34.2,-160.9L43.1,-160.7L52.0,-160.0L61.0,-158.9L70.0,-157.2L79.0,-155.0L87.9,-152.3L96.8,-149.1L105.6,-145.4L114.3,-141.1L122.8,-136.3L131.1,-131.1L139.2,-125.3L147.0,-119.0L93.1,-67.6L98.1,-63.7L102.9,-59.4L107.6,-54.8L112.1,-49.9L116.3,-44.6L120.3,-39.1L124.0,-33.2L127.4,-27.1L130.5,-20.7L133.3,-14.0L135.8,-7.1L137.9,-0.0Z" fill="none" stroke="#e6f2c5" stroke-width="2.4" stroke-linecap="round" opacity="0.95"/><path d="M128.6,0.0L130.3,6.8L131.7,13.8L132.6,21.0L133.2,28.3L133.4,35.7L133.1,43.3L132.5,50.8L131.4,58.5L129.8,66.1L127.8,73.8L125.4,81.4L122.5,89.0L119.1,96.5L115.3,103.8L111.1,111.1L106.4,118.1L101.2,125.0L95.7,131.7L89.7,138.1L83.3,144.3L76.5,150.1L69.3,155.7L61.7,160.8L53.8,165.7L45.6,170.1L37.0,174.1L28.1,177.7L19.0,180.8L9.6,183.4L0.0,109.6L-5.8,111.3L-11.9,112.8L-18.0,113.9L-24.4,114.6L-30.8,115.0L-37.4,115.1L-44.0,114.7L-50.8,114.0L-57.5,112.9L-64.3,111.4L-71.1,109.4L-77.8,107.1L-84.5,104.4L-91.1,101.2L-97.6,97.6L-104.0,93.7L-110.3,89.3L-116.3,84.5L-122.2,79.3L-127.8,73.8L-133.2,67.9L-138.3,61.6L-143.1,54.9L-147.6,48.0L-151.7,40.7L-155.5,33.1L-158.9,25.2L-161.9,17.0L-164.5,8.6L-166.6,0.0L-168.3,-8.8L-169.4,-17.8L-170.2,-27.0L-170.4,-36.2L-170.1,-45.6L-169.3,-55.0L-167.9,-64.5L-166.1,-73.9L-163.7,-83.4L-94.9,-54.8L-93.5,-60.7L-91.7,-66.6L-89.6,-72.6L-87.1,-78.4L-84.2,-84.2L-81.0,-89.9L-77.3,-95.5L-73.3,-101.0L-69.0,-106.2L-64.3,-111.4L-59.2,-116.3L-53.8,-120.9L-48.1,-125.4L-42.1,-129.5L-35.7,-133.4L-29.1,-136.9L-22.2,-140.1L-15.0,-143.0L-7.6,-145.5L-0.0,-147.6L7.8,-149.3L15.8,-150.6L24.0,-151.4L32.3,-151.8L40.7,-151.7L49.1,-151.2L57.7,-150.2L66.2,-148.7L74.8,-146.7L83.3,-144.3L91.8,-141.3L100.1,-137.8L108.4,-133.9L116.6,-129.4L124.5,-124.5L132.3,-119.1L139.8,-113.2L147.1,-106.8L154.0,-100.0L94.9,-54.8L99.3,-50.6L103.6,-46.1L107.6,-41.3L111.4,-36.2L115.0,-30.8L118.3,-25.2L121.4,-19.2L124.1,-13.0L126.5,-6.6L128.6,-0.0Z" fill="none" stroke="#ddfbf1" stroke-width="2.4" stroke-linecap="round" opacity="0.95"/>
</svg>