<svg xmlns="http://www.w3.org/2000/svg" viewBox="-250 -250 500 500">
<defs><filter id="tg"><feGaussianBlur stdDeviation="10.0"/></filter></defs>
<rect x="-250" y="-250" width="500" height="500" fill="#0c1218"/>
<path d="M138.5,0.0L137.4,7.2L134.4,14.1L129.6,20.5L123.3,26.2L116.0,31.1L108.2,35.2L100.2,38.5L92.6,41.2L85.8,43.7L80.0,46.2L75.4,49.0L72.0,52.3L69.9,56.6L68.6,61.8L68.1,68.1L67.8,75.4L67.6,83.4L66.9,92.0L65.4,100.8L63.1,109.2L59.6,116.9L55.0,123.5L49.3,128.5L42.8,131.7L35.6,132.9L28.1,132.2L20.5,129.6L13.2,125.4L6.3,120.0L0.0,113.8L-5.6,107.2L-10.6,100.8L-15.1,95.1L-19.2,90.3L-23.3,86.8L-27.5,84.7L-32.2,83.9L-37.6,84.4L-43.7,85.8L-50.7,87.8L-58.5,90.0L-66.9,92.0L-75.6,93.4L-84.4,93.7L-92.8,92.8L-100.4,90.4L-106.9,86.6L-112.0,81.4L-115.4,74.9L-117.0,67.6L-116.9,59.6L-115.2,51.3L-112.2,43.1L-108.2,35.2L-103.7,27.8L-99.2,21.1L-95.1,15.1L-91.9,9.7L-89.8,4.7L-89.0,0.0L-89.8,-4.7L-91.9,-9.7L-95.1,-15.1L-99.2,-21.1L-103.7,-27.8L-108.2,-35.2L-112.2,-43.1L-115.2,-51.3L-116.9,-59.6L-117.0,-67.6L-115.4,-74.9L-112.0,-81.4L-106.9,-86.6L-100.4,-90.4L-92.8,-92.8L-84.4,-93.7L-75.6,-93.4L-66.9,-92.0L-58.5,-90.0L-50.7,-87.8L-43.7,-85.8L-37.6,-84.4L-32.2,-83.9L-27.5,-84.7L-23.3,-86.8L-19.2,-90.3L-15.1,-95.1L-10.6,-100.8L-5.6,-107.2L-0.0,-113.7L6.3,-120.0L13.2,-125.4L20.5,-129.6L28.1,-132.2L35.6,-132.9L42.8,-131.7L49.3,-128.5L55.0,-123.5L59.6,-116.9L63.0,-109.2L65.4,-100.8L66.9,-92.0L67.6,-83.4L67.8,-75.4L68.1,-68.1L68.6,-61.8L69.9,-56.6L72.0,-52.3L75.4,-49.0L80.0,-46.2L85.8,-43.7L92.6,-41.2L100.2,-38.5L108.2,-35.2L116.0,-31.1L123.3,-26.2L129.6,-20.5L134.4,-14.1L137.4,-7.2L138.5,-0.0Z" fill="none" stroke="#e6f2c5" stroke-width="7.199999999999999" stroke-linecap="round" opacity="0.25" filter="url(#tg)"/><path d="M138.5,0.0L137.4,7.2L134.4,14.1L129.6,20.5L123.3,26.2L116.0,31.1L108.2,35.2L100.2,38.5L92.6,41.2L85.8,43.7L80.0,46.2L75.4,49.0L72.0,52.3L69.9,56.6L68.6,61.8L68.1,68.1L67.8,75.4L67.6,83.4L66.9,92.0L65.4,100.8L63.1,109.2L59.6,116.9L55.0,123.5L49.3,128.5L42.8,131.7L35.6,132.9L28.1,132.2L20.5,129.6L13.2,125.4L6.3,120.0L0.0,113.8L-5.6,107.2L-10.6,100.8L-15.1,95.1L-19.2,90.3L-23.3,86.8L-27.5,84.7L-32.2,83.9L-37.6,84.4L-43.7,85.8L-50.7,87.8L-58.5,90.0L-66.9,92.0L-75.6,93.4L-84.4,93.7L-92.8,92.8L-100.4,90.4L-106.9,86.6L-112.0,81.4L-115.4,74.9L-117.0,67.6L-116.9,59.6L-115.2,51.3L-112.2,43.1L-108.2,35.2L-103.7,27.8L-99.2,21.1L-95.1,15.1L-91.9,9.7L-89.8,4.7L-89.0,0.0L-89.8,-4.7L-91.9,-9.7L-95.1,-15.1L-99.2,-21.1L-103.7,-27.8L-108.2,-35.2L-112.2,-43.1L-115.2,-51.3L-116.9,-59.6L-117.0,-67.6L-115.4,-74.9L-112.0,-81.4L-106.9,-86.6L-100.4,-90.4L-92.8,-92.8L-84.4,-93.7L-75.6,-93.4L-66.9,-92.0L-58.5,-90.0L-50.7,-87.8L-43.7,-85.8L-37.6,-84.4L-32.2,-83.9L-27.5,-84.7L-23.3,-86.8L-19.2,-90.3L-15.1,-95.1L-10.6,-100.8L-5.6,-107.2L-0.0,-113.7L6.3,-120.0L13.2,-125.4L20.5,-129.6L28.1,-132.2L35.6,-132.9L42.8,-131.7L49.3,-128.5L55.0,-123.5L59.6,-116.9L63.0,-109.2L65.4,-100.8L66.9,-92.0L67.6,-83.4L67.8,-75.4L68.1,-68.1L68.6,-61.8L69.9,-56.6L72.0,-52.3L75.4,-49.0L80.0,-46.2L85.8,-43.7L92.6,-41.2L100.2,-38.5L108.2,-35.2L116.0,-31.1L123.3,-26.2L129.6,-20.5L134.4,-14.1L137.4,-7.2L138.5,-0.0Z" fill="none" stroke="#e6f2c5" stroke-width="2.4" stroke-linecap="round" opacity="0.95"/><path d="M131.9,0.0L133.9,7.0L133.9,14.1L131.9,20.9L128.0,27.2L122.4,32.8L115.4,37.5L107.7,41.3L99.5,44.3L91.4,46.6L83.8,48.4L77.0,50.0L71.3,51.8L66.7,54.0L63.4,57.1L61.1,61.1L59.7,66.3L58.7,72.5L57.9,79.7L57.0,87.8L55.5,96.2L53.3,104.6L50.1,112.6L45.9,119.7L40.8,125.4L34.7,129.5L28.0,131.7L20.9,131.9L13.7,130.1L6.6,126.5L0.0,121.4L-6.0,115.2L-11.4,108.3L-16.0,101.3L-20.1,94.6L-23.8,88.6L-27.2,83.8L-30.8,80.2L-34.7,77.9L-39.2,77.0L-44.6,77.2L-50.8,78.2L-57.9,79.7L-65.8,81.3L-74.3,82.5L-83.0,83.0L-91.6,82.5L-99.6,80.7L-106.7,77.5L-112.5,73.0L-116.6,67.3L-119.0,60.6L-119.5,53.2L-118.3,45.4L-115.4,37.5L-111.4,29.8L-106.5,22.6L-101.3,16.0L-96.2,10.1L-91.6,4.8L-88.1,0.0L-85.7,-4.5L-84.8,-8.9L-85.4,-13.5L-87.2,-18.5L-90.1,-24.1L-93.8,-30.5L-97.7,-37.5L-101.5,-45.2L-104.6,-53.3L-106.7,-61.6L-107.5,-69.8L-106.7,-77.5L-104.2,-84.4L-100.1,-90.1L-94.4,-94.4L-87.5,-97.2L-79.7,-98.4L-71.3,-98.2L-62.8,-96.7L-54.5,-94.3L-46.6,-91.4L-39.3,-88.3L-32.9,-85.7L-27.2,-83.8L-22.2,-82.9L-17.7,-83.4L-13.5,-85.4L-9.3,-88.7L-4.9,-93.2L-0.0,-98.6L5.5,-104.5L11.6,-110.4L18.4,-116.0L25.6,-120.6L33.2,-123.8L40.8,-125.4L48.1,-125.2L54.8,-123.0L60.6,-119.0L65.4,-113.3L69.0,-106.2L71.3,-98.2L72.6,-89.6L72.9,-80.9L72.5,-72.5L71.9,-64.7L71.3,-57.8L71.3,-51.8L72.0,-46.8L73.9,-42.7L77.0,-39.2L81.4,-36.3L87.1,-33.4L93.8,-30.5L101.1,-27.1L108.6,-23.1L116.0,-18.4L122.6,-12.9L128.0,-6.7L131.9,-0.0Z" fill="none" stroke="#e5f2c7" stroke-width="7.199999999999999" stroke-linecap="round" opacity="0.25" filter="url(#tg)"/><path d="M131.9,0.0L133.9,7.0L133.9,14.1L131.9,20.9L128.0,27.2L122.4,32.8L115.4,37.5L107.7,41.3L99.5,44.3L91.4,46.6L83.8,48.4L77.0,50.0L71.3,51.8L66.7,54.0L63.4,57.1L61.1,61.1L59.7,66.3L58.7,72.5L57.9,79.7L57.0,87.8L55.5,96.2L53.3,104.6L50.1,112.6L45.9,119.7L40.8,125.4L34.7,129.5L28.0,131.7L20.9,131.9L13.7,130.1L6.6,126.5L0.0,121.4L-6.0,115.2L-11.4,108.3L-16.0,101.3L-20.1,94.6L-23.8,88.6L-27.2,83.8L-30.8,80.2L-34.7,77.9L-39.2,77.0L-44.6,77.2L-50.8,78.2L-57.9,79.7L-65.8,81.3L-74.3,82.5L-83.0,83.0L-91.6,82.5L-99.6,80.7L-106.7,77.5L-112.5,73.0L-116.6,67.3L-119.0,60.6L-119.5,53.2L-118.3,45.4L-115.4,37.5L-111.4,29.8L-106.5,22.6L-101.3,16.0L-96.2,10.1L-91.6,4.8L-88.1,0.0L-85.7,-4.5L-84.8,-8.9L-85.4,-13.5L-87.2,-18.5L-90.1,-24.1L-93.8,-30.5L-97.7,-37.5L-101.5,-45.2L-104.6,-53.3L-106.7,-61.6L-107.5,-69.8L-106.7,-77.5L-104.2,-84.4L-100.1,-90.1L-94.4,-94.4L-87.5,-97.2L-79.7,-98.4L-71.3,-98.2L-62.8,-96.7L-54.5,-94.3L-46.6,-91.4L-39.3,-88.3L-32.9,-85.7L-27.2,-83.8L-22.2,-82.9L-17.7,-83.4L-13.5,-85.4L-9.3,-88.7L-4.9,-93.2L-0.0,-98.6L5.5,-104.5L11.6,-110.4L18.4,-116.0L25.6,-120.6L33.2,-123.8L40.8,-125.4L48.1,-125.2L54.8,-123.0L60.6,-119.0L65.4,-113.3L69.0,-106.2L71.3,-98.2L72.6,-89.6L72.9,-80.9L72.5,-72.5L71.9,-64.7L71.3,-57.8L71.3,-51.8L72.0,-46.8L73.9,-42.7L77.0,-39.2L81.4,-36.3L87.1,-33.4L93.8,-30.5L101.1,-27.1L108.6,-23.1L116.0,-18.4L122.6,-12.9L128.0,-6.7L131.9,-0.0Z" fill="none" stroke="#e5f2c7" stroke-width="2.4" stroke-linecap="round" opacity="0.95"/><path d="M120.4,0.0L125.0,6.5L127.9,13.4L128.9,20.4L128.0,27.2L125.0,33.5L120.3,39.1L114.0,43.8L106.6,47.4L98.5,50.2L90.1,52.0L82.0,53.2L74.5,54.1L67.8,54.9L62.3,56.1L57.9,57.9L54.6,60.6L52.2,64.5L50.5,69.6L49.2,75.8L47.9,82.9L46.3,90.8L44.1,99.0L41.1,107.0L37.2,114.5L32.4,120.9L26.7,125.8L20.4,128.9L13.7,130.1L6.8,129.2L0.0,126.4L-6.4,121.9L-12.2,116.0L-17.3,109.1L-21.6,101.8L-25.3,94.4L-28.4,87.5L-31.3,81.5L-34.1,76.6L-37.2,73.0L-40.8,70.7L-45.2,69.6L-50.5,69.6L-56.8,70.2L-64.1,71.2L-72.1,72.1L-80.5,72.5L-89.1,72.2L-97.4,70.8L-104.9,68.2L-111.4,64.3L-116.3,59.3L-119.5,53.2L-120.8,46.4L-120.3,39.1L-117.9,31.6L-114.1,24.3L-109.1,17.3L-103.5,10.9L-97.6,5.1L-92.0,0.0L-87.2,-4.6L-83.4,-8.8L-80.9,-12.8L-79.8,-17.0L-80.2,-21.5L-81.8,-26.6L-84.3,-32.4L-87.5,-39.0L-90.8,-46.3L-93.8,-54.2L-96.2,-62.4L-97.4,-70.8L-97.2,-78.7L-95.6,-86.0L-92.3,-92.3L-87.5,-97.2L-81.4,-100.6L-74.3,-102.3L-66.5,-102.4L-58.3,-101.0L-50.2,-98.5L-42.3,-95.1L-35.0,-91.3L-28.4,-87.5L-22.6,-84.3L-17.4,-82.0L-12.8,-80.9L-8.5,-81.2L-4.3,-82.9L-0.0,-86.0L4.7,-90.2L10.0,-95.2L15.9,-100.7L22.5,-106.0L29.7,-110.8L37.2,-114.5L44.8,-116.8L52.3,-117.5L59.3,-116.3L65.4,-113.3L70.5,-108.5L74.3,-102.3L76.8,-94.9L78.1,-86.7L78.1,-78.1L77.3,-69.6L76.0,-61.5L74.5,-54.1L73.2,-47.5L72.6,-41.9L73.0,-37.2L74.5,-33.2L77.5,-29.7L81.8,-26.6L87.3,-23.4L93.7,-19.9L100.7,-15.9L107.8,-11.3L114.5,-6.0L120.4,-0.0Z" fill="none" stroke="#e5f3c9" stroke-width="7.199999999999999" stroke-linecap="round" opacity="0.25" filter="url(#tg)"/><path d="M120.4,0.0L125.0,6.5L127.9,13.4L128.9,20.4L128.0,27.2L125.0,33.5L120.3,39.1L114.0,43.8L106.6,47.4L98.5,50.2L90.1,52.0L82.0,53.2L74.5,54.1L67.8,54.9L62.3,56.1L57.9,57.9L54.6,60.6L52.2,64.5L50.5,69.6L49.2,75.8L47.9,82.9L46.3,90.8L44.1,99.0L41.1,107.0L37.2,114.5L32.4,120.9L26.7,125.8L20.4,128.9L13.7,130.1L6.8,129.2L0.0,126.4L-6.4,121.9L-12.2,116.0L-17.3,109.1L-21.6,101.8L-25.3,94.4L-28.4,87.5L-31.3,81.5L-34.1,76.6L-37.2,73.0L-40.8,70.7L-45.2,69.6L-50.5,69.6L-56.8,70.2L-64.1,71.2L-72.1,72.1L-80.5,72.5L-89.1,72.2L-97.4,70.8L-104.9,68.2L-111.4,64.3L-116.3,59.3L-119.5,53.2L-120.8,46.4L-120.3,39.1L-117.9,31.6L-114.1,24.3L-109.1,17.3L-103.5,10.9L-97.6,5.1L-92.0,0.0L-87.2,-4.6L-83.4,-8.8L-80.9,-12.8L-79.8,-17.0L-80.2,-21.5L-81.8,-26.6L-84.3,-32.4L-87.5,-39.0L-90.8,-46.3L-93.8,-54.2L-96.2,-62.4L-97.4,-70.8L-97.2,-78.7L-95.6,-86.0L-92.3,-92.3L-87.5,-97.2L-81.4,-100.6L-74.3,-102.3L-66.5,-102.4L-58.3,-101.0L-50.2,-98.5L-42.3,-95.1L-35.0,-91.3L-28.4,-87.5L-22.6,-84.3L-17.4,-82.0L-12.8,-80.9L-8.5,-81.2L-4.3,-82.9L-0.0,-86.0L4.7,-90.2L10.0,-95.2L15.9,-100.7L22.5,-106.0L29.7,-110.8L37.2,-114.5L44.8,-116.8L52.3,-117.5L59.3,-116.3L65.4,-113.3L70.5,-108.5L74.3,-102.3L76.8,-94.9L78.1,-86.7L78.1,-78.1L77.3,-69.6L76.0,-61.5L74.5,-54.1L73.2,-47.5L72.6,-41.9L73.0,-37.2L74.5,-33.2L77.5,-29.7L81.8,-26.6L87.3,-23.4L93.7,-19.9L100.7,-15.9L107.8,-11.3L114.5,-6.0L120.4,-0.0Z" fill="none" stroke="#e5f3c9" stroke-width="2.4" stroke-linecap="round" opacity="0.95"/><path d="M105.7,0.0L111.7,5.9L116.8,12.3L120.5,19.1L122.5,26.0L122.6,32.9L120.7,39.2L116.9,44.9L111.5,49.6L104.7,53.3L96.9,55.9L88.6,57.5L80.3,58.3L72.3,58.5L65.0,58.5L58.6,58.6L53.3,59.2L49.1,60.6L45.8,63.1L43.4,66.8L41.4,71.7L39.7,77.9L37.8,84.9L35.6,92.6L32.7,100.5L29.0,108.1L24.4,114.9L19.1,120.5L13.1,124.6L6.6,126.8L0.0,126.9L-6.6,125.1L-12.8,121.4L-18.4,116.0L-23.3,109.4L-27.3,102.1L-30.7,94.4L-33.3,86.8L-35.6,79.8L-37.6,73.8L-39.8,69.0L-42.5,65.4L-45.8,63.1L-50.1,61.9L-55.4,61.6L-61.8,61.8L-69.1,62.2L-77.1,62.4L-85.5,62.1L-93.8,60.9L-101.7,58.7L-108.7,55.4L-114.4,50.9L-118.5,45.5L-120.7,39.2L-121.0,32.4L-119.4,25.4L-116.0,18.4L-111.3,11.7L-105.5,5.5L-99.2,0.0L-92.9,-4.9L-86.9,-9.1L-81.8,-13.0L-77.9,-16.6L-75.3,-20.2L-74.1,-24.1L-74.3,-28.5L-75.7,-33.7L-77.9,-39.7L-80.5,-46.5L-83.2,-54.0L-85.5,-62.1L-87.0,-70.4L-87.3,-78.6L-86.3,-86.3L-83.8,-93.1L-79.9,-98.6L-74.6,-102.7L-68.2,-105.1L-61.0,-105.7L-53.3,-104.7L-45.5,-102.2L-37.9,-98.6L-30.7,-94.4L-24.1,-89.8L-18.2,-85.5L-13.0,-81.8L-8.3,-79.2L-4.1,-77.8L-0.0,-78.0L4.2,-79.5L8.7,-82.4L13.7,-86.3L19.3,-91.0L25.7,-95.8L32.7,-100.5L40.1,-104.5L47.8,-107.3L55.4,-108.7L62.6,-108.5L69.1,-106.5L74.6,-102.7L78.8,-97.3L81.7,-90.7L83.1,-83.1L83.2,-74.9L82.1,-66.5L80.3,-58.3L78.0,-50.6L75.7,-43.7L73.8,-37.6L72.7,-32.4L72.8,-27.9L74.1,-24.1L76.9,-20.6L81.0,-17.2L86.3,-13.7L92.5,-9.7L99.1,-5.2L105.7,-0.0Z" fill="none" stroke="#e4f3cc" stroke-width="7.199999999999999" stroke-linecap="round" opacity="0.25" filter="url(#tg)"/><path d="M105.7,0.0L111.7,5.9L116.8,12.3L120.5,19.1L122.5,26.0L122.6,32.9L120.7,39.2L116.9,44.9L111.5,49.6L104.7,53.3L96.9,55.9L88.6,57.5L80.3,58.3L72.3,58.5L65.0,58.5L58.6,58.6L53.3,59.2L49.1,60.6L45.8,63.1L43.4,66.8L41.4,71.7L39.7,77.9L37.8,84.9L35.6,92.6L32.7,100.5L29.0,108.1L24.4,114.9L19.1,120.5L13.1,124.6L6.6,126.8L0.0,126.9L-6.6,125.1L-12.8,121.4L-18.4,116.0L-23.3,109.4L-27.3,102.1L-30.7,94.4L-33.3,86.8L-35.6,79.8L-37.6,73.8L-39.8,69.0L-42.5,65.4L-45.8,63.1L-50.1,61.9L-55.4,61.6L-61.8,61.8L-69.1,62.2L-77.1,62.4L-85.5,62.1L-93.8,60.9L-101.7,58.7L-108.7,55.4L-114.4,50.9L-118.5,45.5L-120.7,39.2L-121.0,32.4L-119.4,25.4L-116.0,18.4L-111.3,11.7L-105.5,5.5L-99.2,0.0L-92.9,-4.9L-86.9,-9.1L-81.8,-13.0L-77.9,-16.6L-75.3,-20.2L-74.1,-24.1L-74.3,-28.5L-75.7,-33.7L-77.9,-39.7L-80.5,-46.5L-83.2,-54.0L-85.5,-62.1L-87.0,-70.4L-87.3,-78.6L-86.3,-86.3L-83.8,-93.1L-79.9,-98.6L-74.6,-102.7L-68.2,-105.1L-61.0,-105.7L-53.3,-104.7L-45.5,-102.2L-37.9,-98.6L-30.7,-94.4L-24.1,-89.8L-18.2,-85.5L-13.0,-81.8L-8.3,-79.2L-4.1,-77.8L-0.0,-78.0L4.2,-79.5L8.7,-82.4L13.7,-86.3L19.3,-91.0L25.7,-95.8L32.7,-100.5L40.1,-104.5L47.8,-107.3L55.4,-108.7L62.6,-108.5L69.1,-106.5L74.6,-102.7L78.8,-97.3L81.7,-90.7L83.1,-83.1L83.2,-74.9L82.1,-66.5L80.3,-58.3L78.0,-50.6L75.7,-43.7L73.8,-37.6L72.7,-32.4L72.8,-27.9L74.1,-24.1L76.9,-20.6L81.0,-17.2L86.3,-13.7L92.5,-9.7L99.1,-5.2L105.7,-0.0Z" fill="none" stroke="#e4f3cc" stroke-width="2.4" stroke-linecap="round" opacity="0.95"/><path d="M90.2,0.0L96.4,5.1L102.4,10.8L107.8,17.1L112.0,23.8L114.9,30.8L115.9,37.7L115.1,44.2L112.4,50.0L107.9,55.0L101.8,58.8L94.6,61.5L86.7,63.0L78.4,63.4L70.1,63.2L62.4,62.4L55.4,61.5L49.4,61.0L44.4,61.0L40.3,62.1L37.2,64.4L34.6,68.0L32.4,72.9L30.3,78.9L27.9,85.8L25.0,93.2L21.4,100.7L17.1,107.8L12.0,113.9L6.2,118.7L0.0,121.9L-6.5,123.1L-12.9,122.3L-18.9,119.6L-24.4,115.0L-29.2,109.0L-33.1,101.9L-36.1,94.1L-38.4,86.2L-40.1,78.6L-41.4,71.7L-42.7,65.8L-44.4,61.0L-46.6,57.6L-49.7,55.2L-53.9,53.9L-59.3,53.4L-65.7,53.2L-73.0,53.0L-80.9,52.6L-89.2,51.5L-97.2,49.5L-104.6,46.6L-111.0,42.6L-115.9,37.7L-119.1,31.9L-120.3,25.6L-119.6,18.9L-116.9,12.3L-112.7,5.9L-107.1,0.0L-100.7,-5.3L-93.9,-9.9L-87.1,-13.8L-81.0,-17.2L-75.8,-20.3L-71.8,-23.3L-69.1,-26.5L-67.9,-30.2L-68.0,-34.6L-69.1,-39.9L-70.9,-46.0L-73.0,-53.0L-75.0,-60.7L-76.5,-68.9L-77.2,-77.2L-76.6,-85.1L-74.8,-92.4L-71.6,-98.6L-67.1,-103.4L-61.5,-106.5L-55.0,-107.9L-47.8,-107.4L-40.4,-105.3L-33.1,-101.9L-26.1,-97.4L-19.6,-92.3L-13.8,-87.1L-8.7,-82.3L-4.1,-78.3L-0.0,-75.5L3.9,-74.0L7.8,-73.9L11.9,-75.3L16.6,-78.0L21.9,-81.6L27.9,-85.8L34.6,-90.1L41.9,-94.1L49.5,-97.2L57.3,-99.2L64.8,-99.7L71.6,-98.6L77.6,-95.8L82.3,-91.4L85.6,-85.6L87.4,-78.7L87.7,-71.0L86.7,-63.0L84.6,-54.9L81.7,-47.2L78.6,-40.1L75.6,-33.7L73.2,-28.1L71.8,-23.3L71.5,-19.2L72.7,-15.5L75.3,-11.9L79.3,-8.3L84.4,-4.4L90.2,-0.0Z" fill="none" stroke="#e4f4ce" stroke-width="7.199999999999999" stroke-linecap="round" opacity="0.25" filter="url(#tg)"/><path d="M90.2,0.0L96.4,5.1L102.4,10.8L107.8,17.1L112.0,23.8L114.9,30.8L115.9,37.7L115.1,44.2L112.4,50.0L107.9,55.0L101.8,58.8L94.6,61.5L86.7,63.0L78.4,63.4L70.1,63.2L62.4,62.4L55.4,61.5L49.4,61.0L44.4,61.0L40.3,62.1L37.2,64.4L34.6,68.0L32.4,72.9L30.3,78.9L27.9,85.8L25.0,93.2L21.4,100.7L17.1,107.8L12.0,113.9L6.2,118.7L0.0,121.9L-6.5,123.1L-12.9,122.3L-18.9,119.6L-24.4,115.0L-29.2,109.0L-33.1,101.9L-36.1,94.1L-38.4,86.2L-40.1,78.6L-41.4,71.7L-42.7,65.8L-44.4,61.0L-46.6,57.6L-49.7,55.2L-53.9,53.9L-59.3,53.4L-65.7,53.2L-73.0,53.0L-80.9,52.6L-89.2,51.5L-97.2,49.5L-104.6,46.6L-111.0,42.6L-115.9,37.7L-119.1,31.9L-120.3,25.6L-119.6,18.9L-116.9,12.3L-112.7,5.9L-107.1,0.0L-100.7,-5.3L-93.9,-9.9L-87.1,-13.8L-81.0,-17.2L-75.8,-20.3L-71.8,-23.3L-69.1,-26.5L-67.9,-30.2L-68.0,-34.6L-69.1,-39.9L-70.9,-46.0L-73.0,-53.0L-75.0,-60.7L-76.5,-68.9L-77.2,-77.2L-76.6,-85.1L-74.8,-92.4L-71.6,-98.6L-67.1,-103.4L-61.5,-106.5L-55.0,-107.9L-47.8,-107.4L-40.4,-105.3L-33.1,-101.9L-26.1,-97.4L-19.6,-92.3L-13.8,-87.1L-8.7,-82.3L-4.1,-78.3L-0.0,-75.5L3.9,-74.0L7.8,-73.9L11.9,-75.3L16.6,-78.0L21.9,-81.6L27.9,-85.8L34.6,-90.1L41.9,-94.1L49.5,-97.2L57.3,-99.2L64.8,-99.7L71.6,-98.6L77.6,-95.8L82.3,-91.4L85.6,-85.6L87.4,-78.7L87.7,-71.0L86.7,-63.0L84.6,-54.9L81.7,-47.2L78.6,-40.1L75.6,-33.7L73.2,-28.1L71.8,-23.3L71.5,-19.2L72.7,-15.5L75.3,-11.9L79.3,-8.3L84.4,-4.4L90.2,-0.0Z" fill="none" stroke="#e4f4ce" stroke-width="2.4" stroke-linecap="round" opacity="0.95"/><path d="M76.7,0.0L81.5,4.3L87.0,9.1L92.7,14.7L98.1,20.8L102.7,27.5L106.1,34.5L108.0,41.5L108.2,48.2L106.5,54.3L103.1,59.5L98.0,63.6L91.5,66.5L84.1,68.1L76.0,68.5L67.9,67.9L59.9,66.6L52.5,64.9L46.0,63.3L40.3,62.1L35.7,61.8L31.9,62.6L28.8,64.7L26.2,68.1L23.7,72.9L21.1,78.8L18.2,85.6L14.7,92.7L10.5,99.7L5.6,106.2L0.0,111.6L-6.1,115.6L-12.4,117.8L-18.7,118.1L-24.7,116.4L-30.2,112.8L-35.0,107.6L-38.8,101.0L-41.6,93.5L-43.6,85.5L-44.8,77.6L-45.5,70.0L-46.0,63.3L-46.6,57.6L-47.7,53.0L-49.7,49.7L-52.6,47.4L-56.7,45.9L-62.0,45.1L-68.5,44.5L-75.8,43.7L-83.6,42.6L-91.6,40.8L-99.2,38.1L-106.1,34.5L-111.8,30.0L-115.9,24.6L-118.1,18.7L-118.4,12.4L-116.6,6.1L-113.1,0.0L-108.0,-5.7L-101.8,-10.7L-94.8,-15.0L-87.6,-18.6L-80.6,-21.6L-74.4,-24.2L-69.1,-26.5L-65.2,-29.0L-62.6,-31.9L-61.3,-35.4L-61.2,-39.8L-62.0,-45.1L-63.4,-51.4L-65.0,-58.5L-66.3,-66.3L-67.1,-74.5L-66.9,-82.6L-65.6,-90.3L-63.0,-97.1L-59.2,-102.6L-54.3,-106.5L-48.4,-108.7L-41.9,-109.1L-35.0,-107.6L-28.0,-104.5L-21.3,-100.1L-15.0,-94.8L-9.4,-89.1L-4.4,-83.4L-0.0,-78.2L3.9,-74.0L7.5,-71.0L11.0,-69.4L14.7,-69.2L18.9,-70.5L23.7,-72.9L29.3,-76.2L35.6,-79.9L42.6,-83.6L50.1,-86.8L57.9,-89.2L65.6,-90.3L72.8,-89.9L79.3,-88.0L84.6,-84.6L88.4,-79.6L90.8,-73.5L91.5,-66.5L90.7,-58.9L88.6,-51.2L85.5,-43.6L81.8,-36.4L77.9,-29.9L74.4,-24.2L71.5,-19.2L69.8,-14.8L69.4,-11.0L70.4,-7.4L72.9,-3.8L76.7,-0.0Z" fill="none" stroke="#e4f4d0" stroke-width="7.199999999999999" stroke-linecap="round" opacity="0.25" filter="url(#tg)"/><path d="M76.7,0.0L81.5,4.3L87.0,9.1L92.7,14.7L98.1,20.8L102.7,27.5L106.1,34.5L108.0,41.5L108.2,48.2L106.5,54.3L103.1,59.5L98.0,63.6L91.5,66.5L84.1,68.1L76.0,68.5L67.9,67.9L59.9,66.6L52.5,64.9L46.0,63.3L40.3,62.1L35.7,61.8L31.9,62.6L28.8,64.7L26.2,68.1L23.7,72.9L21.1,78.8L18.2,85.6L14.7,92.7L10.5,99.7L5.6,106.2L0.0,111.6L-6.1,115.6L-12.4,117.8L-18.7,118.1L-24.7,116.4L-30.2,112.8L-35.0,107.6L-38.8,101.0L-41.6,93.5L-43.6,85.5L-44.8,77.6L-45.5,70.0L-46.0,63.3L-46.6,57.6L-47.7,53.0L-49.7,49.7L-52.6,47.4L-56.7,45.9L-62.0,45.1L-68.5,44.5L-75.8,43.7L-83.6,42.6L-91.6,40.8L-99.2,38.1L-106.1,34.5L-111.8,30.0L-115.9,24.6L-118.1,18.7L-118.4,12.4L-116.6,6.1L-113.1,0.0L-108.0,-5.7L-101.8,-10.7L-94.8,-15.0L-87.6,-18.6L-80.6,-21.6L-74.4,-24.2L-69.1,-26.5L-65.2,-29.0L-62.6,-31.9L-61.3,-35.4L-61.2,-39.8L-62.0,-45.1L-63.4,-51.4L-65.0,-58.5L-66.3,-66.3L-67.1,-74.5L-66.9,-82.6L-65.6,-90.3L-63.0,-97.1L-59.2,-102.6L-54.3,-106.5L-48.4,-108.7L-41.9,-109.1L-35.0,-107.6L-28.0,-104.5L-21.3,-100.1L-15.0,-94.8L-9.4,-89.1L-4.4,-83.4L-0.0,-78.2L3.9,-74.0L7.5,-71.0L11.0,-69.4L14.7,-69.2L18.9,-70.5L23.7,-72.9L29.3,-76.2L35.6,-79.9L42.6,-83.6L50.1,-86.8L57.9,-89.2L65.6,-90.3L72.8,-89.9L79.3,-88.0L84.6,-84.6L88.4,-79.6L90.8,-73.5L91.5,-66.5L90.7,-58.9L88.6,-51.2L85.5,-43.6L81.8,-36.4L77.9,-29.9L74.4,-24.2L71.5,-19.2L69.8,-14.8L69.4,-11.0L70.4,-7.4L72.9,-3.8L76.7,-0.0Z" fill="none" stroke="#e4f4d0" stroke-width="2.4" stroke-linecap="round" opacity="0.95"/><path d="M67.3,0.0L69.6,3.6L73.3,7.7L77.8,12.3L82.9,17.6L88.0,23.6L92.7,30.1L96.6,37.1L99.2,44.2L100.3,51.1L99.6,57.5L97.1,63.1L93.0,67.6L87.4,70.8L80.7,72.7L73.2,73.2L65.3,72.5L57.3,70.8L49.8,68.6L42.9,66.1L36.8,63.8L31.7,62.1L27.4,61.5L23.8,62.0L20.8,64.0L18.0,67.4L15.3,72.1L12.3,77.8L8.9,84.3L4.8,91.0L0.0,97.5L-5.4,103.3L-11.4,108.0L-17.6,111.1L-23.9,112.5L-30.0,111.9L-35.5,109.4L-40.3,105.0L-44.2,99.2L-47.0,92.2L-48.8,84.5L-49.6,76.4L-49.8,68.6L-49.6,61.2L-49.3,54.7L-49.3,49.3L-50.0,45.0L-51.6,41.8L-54.4,39.5L-58.5,38.0L-63.8,36.8L-70.2,35.8L-77.4,34.5L-85.1,32.7L-92.7,30.1L-100.0,26.8L-106.2,22.6L-111.1,17.6L-114.4,12.0L-115.7,6.1L-115.0,0.0L-112.4,-5.9L-108.0,-11.4L-102.2,-16.2L-95.4,-20.3L-88.0,-23.6L-80.6,-26.2L-73.5,-28.2L-67.3,-30.0L-62.1,-31.7L-58.3,-33.6L-55.7,-36.2L-54.4,-39.5L-54.2,-43.9L-54.7,-49.3L-55.7,-55.7L-56.7,-63.0L-57.3,-70.8L-57.3,-78.9L-56.4,-86.8L-54.3,-94.0L-51.1,-100.3L-46.8,-105.0L-41.5,-108.1L-35.5,-109.4L-29.1,-108.7L-22.6,-106.2L-16.2,-102.2L-10.2,-97.0L-4.8,-91.0L-0.0,-84.7L4.1,-78.7L7.7,-73.3L10.9,-68.9L14.0,-65.8L17.2,-64.2L20.8,-64.0L25.0,-65.1L30.0,-67.3L35.8,-70.2L42.4,-73.4L49.6,-76.4L57.3,-78.9L65.1,-80.4L72.7,-80.7L79.6,-79.6L85.5,-76.9L90.0,-72.9L93.0,-67.6L94.4,-61.3L94.0,-54.3L92.2,-47.0L89.1,-39.7L85.1,-32.7L80.6,-26.2L76.1,-20.4L72.1,-15.3L68.9,-10.9L66.9,-7.0L66.3,-3.5L67.3,-0.0Z" fill="none" stroke="#e3f5d3" stroke-width="7.199999999999999" stroke-linecap="round" opacity="0.25" filter="url(#tg)"/><path d="M67.3,0.0L69.6,3.6L73.3,7.7L77.8,12.3L82.9,17.6L88.0,23.6L92.7,30.1L96.6,37.1L99.2,44.2L100.3,51.1L99.6,57.5L97.1,63.1L93.0,67.6L87.4,70.8L80.7,72.7L73.2,73.2L65.3,72.5L57.3,70.8L49.8,68.6L42.9,66.1L36.8,63.8L31.7,62.1L27.4,61.5L23.8,62.0L20.8,64.0L18.0,67.4L15.3,72.1L12.3,77.8L8.9,84.3L4.8,91.0L0.0,97.5L-5.4,103.3L-11.4,108.0L-17.6,111.1L-23.9,112.5L-30.0,111.9L-35.5,109.4L-40.3,105.0L-44.2,99.2L-47.0,92.2L-48.8,84.5L-49.6,76.4L-49.8,68.6L-49.6,61.2L-49.3,54.7L-49.3,49.3L-50.0,45.0L-51.6,41.8L-54.4,39.5L-58.5,38.0L-63.8,36.8L-70.2,35.8L-77.4,34.5L-85.1,32.7L-92.7,30.1L-100.0,26.8L-106.2,22.6L-111.1,17.6L-114.4,12.0L-115.7,6.1L-115.0,0.0L-112.4,-5.9L-108.0,-11.4L-102.2,-16.2L-95.4,-20.3L-88.0,-23.6L-80.6,-26.2L-73.5,-28.2L-67.3,-30.0L-62.1,-31.7L-58.3,-33.6L-55.7,-36.2L-54.4,-39.5L-54.2,-43.9L-54.7,-49.3L-55.7,-55.7L-56.7,-63.0L-57.3,-70.8L-57.3,-78.9L-56.4,-86.8L-54.3,-94.0L-51.1,-100.3L-46.8,-105.0L-41.5,-108.1L-35.5,-109.4L-29.1,-108.7L-22.6,-106.2L-16.2,-102.2L-10.2,-97.0L-4.8,-91.0L-0.0,-84.7L4.1,-78.7L7.7,-73.3L10.9,-68.9L14.0,-65.8L17.2,-64.2L20.8,-64.0L25.0,-65.1L30.0,-67.3L35.8,-70.2L42.4,-73.4L49.6,-76.4L57.3,-78.9L65.1,-80.4L72.7,-80.7L79.6,-79.6L85.5,-76.9L90.0,-72.9L93.0,-67.6L94.4,-61.3L94.0,-54.3L92.2,-47.0L89.1,-39.7L85.1,-32.7L80.6,-26.2L76.1,-20.4L72.1,-15.3L68.9,-10.9L66.9,-7.0L66.3,-3.5L67.3,-0.0Z" fill="none" stroke="#e3f5d3" stroke-width="2.4" stroke-linecap="round" opacity="0.95"/><path d="M63.2,0.0L62.6,3.3L63.5,6.7L65.7,10.4L69.1,14.7L73.4,19.7L78.0,25.3L82.6,31.7L86.6,38.6L89.7,45.7L91.4,52.8L91.6,59.5L90.2,65.5L87.1,70.5L82.4,74.2L76.5,76.5L69.6,77.3L62.2,76.8L54.5,75.0L47.0,72.4L40.0,69.2L33.6,66.0L28.1,63.2L23.5,61.1L19.5,60.2L16.2,60.5L13.3,62.4L10.4,65.7L7.4,70.3L4.0,75.9L0.0,82.0L-4.6,88.3L-9.9,94.3L-15.7,99.4L-21.9,103.3L-28.3,105.5L-34.4,106.0L-40.2,104.6L-45.1,101.3L-49.1,96.4L-52.0,90.1L-53.8,82.8L-54.5,75.0L-54.3,67.1L-53.5,59.4L-52.4,52.4L-51.4,46.3L-50.9,41.2L-51.2,37.2L-52.6,34.1L-55.3,31.9L-59.3,30.2L-64.6,28.7L-70.9,27.2L-78.0,25.3L-85.4,22.9L-92.7,19.7L-99.4,15.7L-105.0,11.0L-109.1,5.7L-111.5,0.0L-111.9,-5.9L-110.3,-11.6L-106.9,-16.9L-101.8,-21.6L-95.4,-25.6L-88.2,-28.6L-80.6,-30.9L-73.0,-32.5L-66.0,-33.6L-59.9,-34.6L-54.9,-35.6L-51.2,-37.2L-48.7,-39.4L-47.4,-42.7L-47.0,-47.0L-47.3,-52.5L-47.8,-59.0L-48.2,-66.4L-48.2,-74.2L-47.4,-82.1L-45.7,-89.7L-42.9,-96.4L-39.2,-102.0L-34.4,-106.0L-29.0,-108.2L-23.1,-108.5L-16.9,-106.9L-10.9,-103.5L-5.2,-98.6L-0.0,-92.7L4.5,-86.2L8.4,-79.5L11.6,-73.2L14.4,-67.6L16.9,-63.2L19.5,-60.2L22.5,-58.5L26.0,-58.3L30.2,-59.3L35.3,-61.2L41.4,-63.7L48.2,-66.4L55.7,-68.7L63.4,-70.4L71.2,-71.2L78.5,-70.6L84.9,-68.8L90.2,-65.5L94.0,-61.0L96.1,-55.5L96.4,-49.1L95.1,-42.3L92.2,-35.4L88.2,-28.6L83.3,-22.3L78.2,-16.6L73.2,-11.6L68.8,-7.2L65.4,-3.4L63.2,-0.0Z" fill="none" stroke="#e3f5d5" stroke-width="7.199999999999999" stroke-linecap="round" opacity="0.25" filter="url(#tg)"/><path d="M63.2,0.0L62.6,3.3L63.5,6.7L65.7,10.4L69.1,14.7L73.4,19.7L78.0,25.3L82.6,31.7L86.6,38.6L89.7,45.7L91.4,52.8L91.6,59.5L90.2,65.5L87.1,70.5L82.4,74.2L76.5,76.5L69.6,77.3L62.2,76.8L54.5,75.0L47.0,72.4L40.0,69.2L33.6,66.0L28.1,63.2L23.5,61.1L19.5,60.2L16.2,60.5L13.3,62.4L10.4,65.7L7.4,70.3L4.0,75.9L0.0,82.0L-4.6,88.3L-9.9,94.3L-15.7,99.4L-21.9,103.3L-28.3,105.5L-34.4,106.0L-40.2,104.6L-45.1,101.3L-49.1,96.4L-52.0,90.1L-53.8,82.8L-54.5,75.0L-54.3,67.1L-53.5,59.4L-52.4,52.4L-51.4,46.3L-50.9,41.2L-51.2,37.2L-52.6,34.1L-55.3,31.9L-59.3,30.2L-64.6,28.7L-70.9,27.2L-78.0,25.3L-85.4,22.9L-92.7,19.7L-99.4,15.7L-105.0,11.0L-109.1,5.7L-111.5,0.0L-111.9,-5.9L-110.3,-11.6L-106.9,-16.9L-101.8,-21.6L-95.4,-25.6L-88.2,-28.6L-80.6,-30.9L-73.0,-32.5L-66.0,-33.6L-59.9,-34.6L-54.9,-35.6L-51.2,-37.2L-48.7,-39.4L-47.4,-42.7L-47.0,-47.0L-47.3,-52.5L-47.8,-59.0L-48.2,-66.4L-48.2,-74.2L-47.4,-82.1L-45.7,-89.7L-42.9,-96.4L-39.2,-102.0L-34.4,-106.0L-29.0,-108.2L-23.1,-108.5L-16.9,-106.9L-10.9,-103.5L-5.2,-98.6L-0.0,-92.7L4.5,-86.2L8.4,-79.5L11.6,-73.2L14.4,-67.6L16.9,-63.2L19.5,-60.2L22.5,-58.5L26.0,-58.3L30.2,-59.3L35.3,-61.2L41.4,-63.7L48.2,-66.4L55.7,-68.7L63.4,-70.4L71.2,-71.2L78.5,-70.6L84.9,-68.8L90.2,-65.5L94.0,-61.0L96.1,-55.5L96.4,-49.1L95.1,-42.3L92.2,-35.4L88.2,-28.6L83.3,-22.3L78.2,-16.6L73.2,-11.6L68.8,-7.2L65.4,-3.4L63.2,-0.0Z" fill="none" stroke="#e3f5d5" stroke-width="2.4" stroke-linecap="round" opacity="0.95"/><path d="M64.7,0.0L61.1,3.2L58.9,6.2L58.3,9.2L59.1,12.6L61.2,16.4L64.4,20.9L68.3,26.2L72.4,32.3L76.4,38.9L79.7,46.0L82.0,53.2L82.9,60.3L82.4,66.7L80.2,72.2L76.5,76.5L71.5,79.4L65.3,80.7L58.5,80.5L51.2,78.9L43.9,76.1L37.0,72.6L30.6,68.6L24.9,64.8L20.0,61.5L15.8,59.1L12.3,58.0L9.2,58.3L6.3,60.0L3.3,63.3L0.0,67.7L-3.8,73.1L-8.3,78.9L-13.4,84.7L-19.1,90.0L-25.3,94.4L-31.7,97.5L-38.0,98.9L-43.9,98.6L-49.1,96.4L-53.4,92.5L-56.5,87.1L-58.5,80.5L-59.2,73.1L-58.8,65.3L-57.6,57.6L-55.8,50.3L-54.0,43.7L-52.3,38.0L-51.3,33.3L-51.3,29.6L-52.6,26.8L-55.2,24.6L-59.1,22.7L-64.4,20.9L-70.7,18.9L-77.6,16.5L-84.7,13.4L-91.5,9.6L-97.6,5.1L-102.5,0.0L-105.8,-5.5L-107.3,-11.3L-106.9,-16.9L-104.5,-22.2L-100.3,-26.9L-94.6,-30.7L-87.8,-33.7L-80.3,-35.7L-72.6,-37.0L-65.1,-37.6L-58.2,-37.8L-52.3,-38.0L-47.6,-38.5L-44.0,-39.7L-41.7,-41.7L-40.4,-44.9L-39.9,-49.2L-39.8,-54.8L-39.8,-61.3L-39.7,-68.7L-38.9,-76.4L-37.4,-84.1L-35.0,-91.3L-31.7,-97.5L-27.4,-102.4L-22.4,-105.6L-16.9,-106.9L-11.2,-106.2L-5.4,-103.7L-0.0,-99.5L4.9,-93.9L9.2,-87.4L12.7,-80.4L15.6,-73.5L18.0,-67.1L20.0,-61.5L21.9,-57.1L24.1,-54.1L26.8,-52.6L30.2,-52.3L34.5,-53.1L39.8,-54.8L46.0,-56.8L53.1,-58.9L60.6,-60.6L68.4,-61.6L76.0,-61.5L82.9,-60.3L88.9,-57.7L93.5,-54.0L96.4,-49.1L97.6,-43.4L96.9,-37.2L94.6,-30.7L90.8,-24.3L86.0,-18.3L80.4,-12.7L74.7,-7.9L69.3,-3.6L64.7,-0.0Z" fill="none" stroke="#e2f6d7" stroke-width="7.199999999999999" stroke-linecap="round" opacity="0.25" filter="url(#tg)"/><path d="M64.7,0.0L61.1,3.2L58.9,6.2L58.3,9.2L59.1,12.6L61.2,16.4L64.4,20.9L68.3,26.2L72.4,32.3L76.4,38.9L79.7,46.0L82.0,53.2L82.9,60.3L82.4,66.7L80.2,72.2L76.5,76.5L71.5,79.4L65.3,80.7L58.5,80.5L51.2,78.9L43.9,76.1L37.0,72.6L30.6,68.6L24.9,64.8L20.0,61.5L15.8,59.1L12.3,58.0L9.2,58.3L6.3,60.0L3.3,63.3L0.0,67.7L-3.8,73.1L-8.3,78.9L-13.4,84.7L-19.1,90.0L-25.3,94.4L-31.7,97.5L-38.0,98.9L-43.9,98.6L-49.1,96.4L-53.4,92.5L-56.5,87.1L-58.5,80.5L-59.2,73.1L-58.8,65.3L-57.6,57.6L-55.8,50.3L-54.0,43.7L-52.3,38.0L-51.3,33.3L-51.3,29.6L-52.6,26.8L-55.2,24.6L-59.1,22.7L-64.4,20.9L-70.7,18.9L-77.6,16.5L-84.7,13.4L-91.5,9.6L-97.6,5.1L-102.5,0.0L-105.8,-5.5L-107.3,-11.3L-106.9,-16.9L-104.5,-22.2L-100.3,-26.9L-94.6,-30.7L-87.8,-33.7L-80.3,-35.7L-72.6,-37.0L-65.1,-37.6L-58.2,-37.8L-52.3,-38.0L-47.6,-38.5L-44.0,-39.7L-41.7,-41.7L-40.4,-44.9L-39.9,-49.2L-39.8,-54.8L-39.8,-61.3L-39.7,-68.7L-38.9,-76.4L-37.4,-84.1L-35.0,-91.3L-31.7,-97.5L-27.4,-102.4L-22.4,-105.6L-16.9,-106.9L-11.2,-106.2L-5.4,-103.7L-0.0,-99.5L4.9,-93.9L9.2,-87.4L12.7,-80.4L15.6,-73.5L18.0,-67.1L20.0,-61.5L21.9,-57.1L24.1,-54.1L26.8,-52.6L30.2,-52.3L34.5,-53.1L39.8,-54.8L46.0,-56.8L53.1,-58.9L60.6,-60.6L68.4,-61.6L76.0,-61.5L82.9,-60.3L88.9,-57.7L93.5,-54.0L96.4,-49.1L97.6,-43.4L96.9,-37.2L94.6,-30.7L90.8,-24.3L86.0,-18.3L80.4,-12.7L74.7,-7.9L69.3,-3.6L64.7,-0.0Z" fill="none" stroke="#e2f6d7" stroke-width="2.4" stroke-linecap="round" opacity="0.95"/><path d="M70.4,0.0L64.7,3.4L59.9,6.3L56.3,8.9L54.1,11.5L53.4,14.3L54.2,17.6L56.2,21.6L59.2,26.3L62.7,31.9L66.3,38.3L69.6,45.2L72.2,52.5L73.7,59.7L73.9,66.5L72.6,72.6L69.8,77.5L65.6,81.1L60.3,83.0L54.1,83.4L47.4,82.1L40.5,79.5L33.8,75.9L27.4,71.5L21.7,66.9L16.8,62.6L12.5,58.9L8.9,56.3L5.8,55.0L2.9,55.3L0.0,57.0L-3.2,60.1L-6.8,64.4L-11.0,69.5L-15.9,74.9L-21.5,80.2L-27.6,84.9L-34.0,88.6L-40.4,90.8L-46.6,91.5L-52.2,90.3L-56.8,87.5L-60.3,83.0L-62.6,77.3L-63.5,70.5L-63.1,63.1L-61.7,55.6L-59.5,48.2L-56.9,41.4L-54.3,35.3L-52.2,30.1L-50.8,25.9L-50.5,22.5L-51.7,19.8L-54.2,17.6L-58.2,15.6L-63.4,13.5L-69.5,11.0L-76.2,8.0L-82.9,4.3L-89.3,0.0L-94.7,-5.0L-98.9,-10.4L-101.4,-16.1L-102.0,-21.7L-100.8,-27.0L-97.6,-31.7L-92.8,-35.6L-86.7,-38.6L-79.5,-40.5L-71.9,-41.5L-64.2,-41.7L-56.9,-41.4L-50.3,-40.8L-44.8,-40.3L-40.3,-40.3L-37.0,-41.1L-34.8,-43.0L-33.5,-46.1L-32.8,-50.5L-32.4,-56.1L-31.9,-62.7L-31.2,-70.0L-29.8,-77.5L-27.6,-84.9L-24.6,-91.6L-20.7,-97.2L-16.1,-101.4L-10.9,-103.7L-5.5,-104.2L-0.0,-102.6L5.2,-99.3L9.9,-94.3L14.0,-88.2L17.3,-81.2L19.8,-74.0L21.7,-66.9L23.2,-60.5L24.5,-55.0L25.9,-50.8L27.7,-47.9L30.1,-46.4L33.5,-46.1L37.9,-46.8L43.3,-48.1L49.8,-49.8L56.9,-51.3L64.5,-52.3L72.2,-52.5L79.6,-51.7L86.1,-49.7L91.5,-46.6L95.3,-42.4L97.4,-37.4L97.6,-31.7L96.0,-25.7L92.8,-19.7L88.2,-14.0L82.6,-8.7L76.5,-4.0L70.4,-0.0Z" fill="none" stroke="#e2f6da" stroke-width="7.199999999999999" stroke-linecap="round" opacity="0.25" filter="url(#tg)"/><path d="M70.4,0.0L64.7,3.4L59.9,6.3L56.3,8.9L54.1,11.5L53.4,14.3L54.2,17.6L56.2,21.6L59.2,26.3L62.7,31.9L66.3,38.3L69.6,45.2L72.2,52.5L73.7,59.7L73.9,66.5L72.6,72.6L69.8,77.5L65.6,81.1L60.3,83.0L54.1,83.4L47.4,82.1L40.5,79.5L33.8,75.9L27.4,71.5L21.7,66.9L16.8,62.6L12.5,58.9L8.9,56.3L5.8,55.0L2.9,55.3L0.0,57.0L-3.2,60.1L-6.8,64.4L-11.0,69.5L-15.9,74.9L-21.5,80.2L-27.6,84.9L-34.0,88.6L-40.4,90.8L-46.6,91.5L-52.2,90.3L-56.8,87.5L-60.3,83.0L-62.6,77.3L-63.5,70.5L-63.1,63.1L-61.7,55.6L-59.5,48.2L-56.9,41.4L-54.3,35.3L-52.2,30.1L-50.8,25.9L-50.5,22.5L-51.7,19.8L-54.2,17.6L-58.2,15.6L-63.4,13.5L-69.5,11.0L-76.2,8.0L-82.9,4.3L-89.3,0.0L-94.7,-5.0L-98.9,-10.4L-101.4,-16.1L-102.0,-21.7L-100.8,-27.0L-97.6,-31.7L-92.8,-35.6L-86.7,-38.6L-79.5,-40.5L-71.9,-41.5L-64.2,-41.7L-56.9,-41.4L-50.3,-40.8L-44.8,-40.3L-40.3,-40.3L-37.0,-41.1L-34.8,-43.0L-33.5,-46.1L-32.8,-50.5L-32.4,-56.1L-31.9,-62.7L-31.2,-70.0L-29.8,-77.5L-27.6,-84.9L-24.6,-91.6L-20.7,-97.2L-16.1,-101.4L-10.9,-103.7L-5.5,-104.2L-0.0,-102.6L5.2,-99.3L9.9,-94.3L14.0,-88.2L17.3,-81.2L19.8,-74.0L21.7,-66.9L23.2,-60.5L24.5,-55.0L25.9,-50.8L27.7,-47.9L30.1,-46.4L33.5,-46.1L37.9,-46.8L43.3,-48.1L49.8,-49.8L56.9,-51.3L64.5,-52.3L72.2,-52.5L79.6,-51.7L86.1,-49.7L91.5,-46.6L95.3,-42.4L97.4,-37.4L97.6,-31.7L96.0,-25.7L92.8,-19.7L88.2,-14.0L82.6,-8.7L76.5,-4.0L70.4,-0.0Z" fill="none" stroke="#e2f6da" stroke-width="2.4" stroke-linecap="round" opacity="0.95"/><path d="M78.2,0.0L71.7,3.8L65.3,6.9L59.4,9.4L54.6,11.6L51.0,13.7L48.9,15.9L48.3,18.5L49.0,21.8L50.9,25.9L53.6,30.9L56.7,36.8L59.8,43.4L62.4,50.6L64.3,57.9L65.0,65.0L64.4,71.6L62.5,77.1L59.2,81.4L54.7,84.2L49.2,85.2L43.1,84.6L36.7,82.4L30.3,78.9L24.2,74.4L18.6,69.3L13.6,64.2L9.4,59.4L5.8,55.5L2.8,52.8L0.0,51.4L-2.7,51.7L-5.6,53.4L-8.9,56.4L-12.9,60.5L-17.5,65.3L-22.8,70.3L-28.8,75.0L-35.2,79.0L-41.7,81.9L-48.1,83.4L-54.1,83.2L-59.2,81.4L-63.2,78.0L-65.9,73.2L-67.2,67.2L-67.0,60.4L-65.7,53.2L-63.3,46.0L-60.2,39.1L-56.8,32.8L-53.6,27.3L-51.0,22.7L-49.3,18.9L-48.9,15.9L-50.0,13.4L-52.5,11.2L-56.4,8.9L-61.5,6.5L-67.5,3.5L-73.9,0.0L-80.2,-4.2L-86.0,-9.0L-90.8,-14.4L-94.2,-20.0L-95.9,-25.7L-95.7,-31.1L-93.7,-36.0L-89.9,-40.0L-84.6,-43.1L-78.1,-45.1L-70.9,-46.0L-63.3,-46.0L-55.8,-45.2L-48.8,-43.9L-42.5,-42.5L-37.3,-41.5L-33.3,-41.1L-30.2,-41.6L-28.2,-43.4L-26.8,-46.5L-25.9,-50.9L-25.2,-56.5L-24.2,-63.1L-22.8,-70.3L-20.8,-77.6L-18.0,-84.6L-14.4,-90.8L-10.1,-95.8L-5.2,-99.1L-0.0,-100.7L5.3,-100.2L10.3,-97.9L14.9,-93.8L18.8,-88.2L21.9,-81.6L24.2,-74.4L25.7,-67.0L26.7,-59.9L27.3,-53.6L27.9,-48.3L28.8,-44.3L30.2,-41.6L32.6,-40.2L35.9,-39.9L40.4,-40.4L46.0,-41.4L52.5,-42.5L59.8,-43.4L67.4,-43.8L74.9,-43.2L81.9,-41.7L88.0,-39.2L92.7,-35.6L95.7,-31.1L97.0,-26.0L96.3,-20.5L93.8,-14.9L89.7,-9.4L84.4,-4.4L78.2,-0.0Z" fill="none" stroke="#e1f7dc" stroke-width="7.199999999999999" stroke-linecap="round" opacity="0.25" filter="url(#tg)"/><path d="M78.2,0.0L71.7,3.8L65.3,6.9L59.4,9.4L54.6,11.6L51.0,13.7L48.9,15.9L48.3,18.5L49.0,21.8L50.9,25.9L53.6,30.9L56.7,36.8L59.8,43.4L62.4,50.6L64.3,57.9L65.0,65.0L64.4,71.6L62.5,77.1L59.2,81.4L54.7,84.2L49.2,85.2L43.1,84.6L36.7,82.4L30.3,78.9L24.2,74.4L18.6,69.3L13.6,64.2L9.4,59.4L5.8,55.5L2.8,52.8L0.0,51.4L-2.7,51.7L-5.6,53.4L-8.9,56.4L-12.9,60.5L-17.5,65.3L-22.8,70.3L-28.8,75.0L-35.2,79.0L-41.7,81.9L-48.1,83.4L-54.1,83.2L-59.2,81.4L-63.2,78.0L-65.9,73.2L-67.2,67.2L-67.0,60.4L-65.7,53.2L-63.3,46.0L-60.2,39.1L-56.8,32.8L-53.6,27.3L-51.0,22.7L-49.3,18.9L-48.9,15.9L-50.0,13.4L-52.5,11.2L-56.4,8.9L-61.5,6.5L-67.5,3.5L-73.9,0.0L-80.2,-4.2L-86.0,-9.0L-90.8,-14.4L-94.2,-20.0L-95.9,-25.7L-95.7,-31.1L-93.7,-36.0L-89.9,-40.0L-84.6,-43.1L-78.1,-45.1L-70.9,-46.0L-63.3,-46.0L-55.8,-45.2L-48.8,-43.9L-42.5,-42.5L-37.3,-41.5L-33.3,-41.1L-30.2,-41.6L-28.2,-43.4L-26.8,-46.5L-25.9,-50.9L-25.2,-56.5L-24.2,-63.1L-22.8,-70.3L-20.8,-77.6L-18.0,-84.6L-14.4,-90.8L-10.1,-95.8L-5.2,-99.1L-0.0,-100.7L5.3,-100.2L10.3,-97.9L14.9,-93.8L18.8,-88.2L21.9,-81.6L24.2,-74.4L25.7,-67.0L26.7,-59.9L27.3,-53.6L27.9,-48.3L28.8,-44.3L30.2,-41.6L32.6,-40.2L35.9,-39.9L40.4,-40.4L46.0,-41.4L52.5,-42.5L59.8,-43.4L67.4,-43.8L74.9,-43.2L81.9,-41.7L88.0,-39.2L92.7,-35.6L95.7,-31.1L97.0,-26.0L96.3,-20.5L93.8,-14.9L89.7,-9.4L84.4,-4.4L78.2,-0.0Z" fill="none" stroke="#e1f7dc" stroke-width="2.4" stroke-linecap="round" opacity="0.95"/><path d="M85.6,0.0L79.6,4.2L73.0,7.7L66.1,10.5L59.5,12.7L53.7,14.4L48.9,15.9L45.5,17.5L43.5,19.4L42.9,21.9L43.6,25.2L45.3,29.4L47.7,34.7L50.4,40.8L52.9,47.6L54.9,54.9L56.0,62.2L56.0,69.1L54.7,75.3L52.2,80.4L48.5,84.0L43.8,85.9L38.3,86.0L32.4,84.5L26.4,81.4L20.6,77.0L15.3,71.8L10.5,66.1L6.4,60.5L2.9,55.5L0.0,51.4L-2.5,48.7L-5.0,47.3L-7.5,47.6L-10.5,49.3L-14.0,52.2L-18.2,56.1L-23.2,60.5L-29.0,65.0L-35.2,69.2L-41.8,72.5L-48.5,74.6L-54.7,75.3L-60.3,74.5L-64.9,72.1L-68.2,68.2L-70.0,63.0L-70.3,56.9L-69.2,50.3L-66.8,43.4L-63.5,36.7L-59.6,30.4L-55.6,24.8L-51.9,19.9L-48.9,15.9L-47.1,12.6L-46.6,9.9L-47.6,7.5L-50.1,5.3L-54.0,2.8L-59.0,0.0L-64.8,-3.4L-70.8,-7.4L-76.7,-12.1L-81.9,-17.4L-85.9,-23.0L-88.6,-28.8L-89.5,-34.3L-88.6,-39.4L-85.9,-43.8L-81.6,-47.1L-75.9,-49.3L-69.2,-50.3L-61.9,-50.2L-54.5,-49.1L-47.3,-47.3L-40.7,-45.2L-35.0,-43.2L-30.2,-41.6L-26.5,-40.9L-23.8,-41.2L-21.9,-42.9L-20.5,-46.0L-19.4,-50.5L-18.2,-56.1L-16.8,-62.6L-14.8,-69.6L-12.1,-76.7L-8.7,-83.2L-4.7,-88.8L-0.0,-93.1L5.0,-95.7L10.1,-96.4L15.1,-95.2L19.6,-92.1L23.4,-87.4L26.4,-81.4L28.6,-74.4L29.8,-67.0L30.4,-59.6L30.4,-52.7L30.3,-46.6L30.2,-41.6L30.7,-37.9L31.9,-35.4L34.1,-34.1L37.4,-33.7L42.0,-34.0L47.7,-34.7L54.4,-35.3L61.7,-35.6L69.2,-35.2L76.5,-34.0L83.1,-31.9L88.6,-28.8L92.6,-24.8L94.8,-20.2L95.2,-15.1L93.7,-9.8L90.4,-4.7L85.6,-0.0Z" fill="none" stroke="#e1f7df" stroke-width="7.199999999999999" stroke-linecap="round" opacity="0.25" filter="url(#tg)"/><path d="M85.6,0.0L79.6,4.2L73.0,7.7L66.1,10.5L59.5,12.7L53.7,14.4L48.9,15.9L45.5,17.5L43.5,19.4L42.9,21.9L43.6,25.2L45.3,29.4L47.7,34.7L50.4,40.8L52.9,47.6L54.9,54.9L56.0,62.2L56.0,69.1L54.7,75.3L52.2,80.4L48.5,84.0L43.8,85.9L38.3,86.0L32.4,84.5L26.4,81.4L20.6,77.0L15.3,71.8L10.5,66.1L6.4,60.5L2.9,55.5L0.0,51.4L-2.5,48.7L-5.0,47.3L-7.5,47.6L-10.5,49.3L-14.0,52.2L-18.2,56.1L-23.2,60.5L-29.0,65.0L-35.2,69.2L-41.8,72.5L-48.5,74.6L-54.7,75.3L-60.3,74.5L-64.9,72.1L-68.2,68.2L-70.0,63.0L-70.3,56.9L-69.2,50.3L-66.8,43.4L-63.5,36.7L-59.6,30.4L-55.6,24.8L-51.9,19.9L-48.9,15.9L-47.1,12.6L-46.6,9.9L-47.6,7.5L-50.1,5.3L-54.0,2.8L-59.0,0.0L-64.8,-3.4L-70.8,-7.4L-76.7,-12.1L-81.9,-17.4L-85.9,-23.0L-88.6,-28.8L-89.5,-34.3L-88.6,-39.4L-85.9,-43.8L-81.6,-47.1L-75.9,-49.3L-69.2,-50.3L-61.9,-50.2L-54.5,-49.1L-47.3,-47.3L-40.7,-45.2L-35.0,-43.2L-30.2,-41.6L-26.5,-40.9L-23.8,-41.2L-21.9,-42.9L-20.5,-46.0L-19.4,-50.5L-18.2,-56.1L-16.8,-62.6L-14.8,-69.6L-12.1,-76.7L-8.7,-83.2L-4.7,-88.8L-0.0,-93.1L5.0,-95.7L10.1,-96.4L15.1,-95.2L19.6,-92.1L23.4,-87.4L26.4,-81.4L28.6,-74.4L29.8,-67.0L30.4,-59.6L30.4,-52.7L30.3,-46.6L30.2,-41.6L30.7,-37.9L31.9,-35.4L34.1,-34.1L37.4,-33.7L42.0,-34.0L47.7,-34.7L54.4,-35.3L61.7,-35.6L69.2,-35.2L76.5,-34.0L83.1,-31.9L88.6,-28.8L92.6,-24.8L94.8,-20.2L95.2,-15.1L93.7,-9.8L90.4,-4.7L85.6,-0.0Z" fill="none" stroke="#e1f7df" stroke-width="2.4" stroke-linecap="round" opacity="0.95"/><path d="M89.9,0.0L85.9,4.5L80.4,8.5L74.0,11.7L67.0,14.2L60.0,16.1L53.4,17.4L47.7,18.3L43.0,19.2L39.8,20.3L37.9,21.9L37.4,24.3L38.1,27.7L39.7,32.1L41.7,37.6L43.9,43.9L45.8,50.9L47.1,58.2L47.5,65.4L46.8,72.1L45.0,77.9L41.9,82.3L37.9,85.2L33.1,86.2L27.8,85.5L22.3,83.0L16.8,79.1L11.7,74.0L7.2,68.1L3.3,62.0L0.0,56.2L-2.7,51.0L-4.9,46.9L-7.0,44.1L-9.1,42.9L-11.6,43.1L-14.6,44.8L-18.3,47.7L-22.8,51.3L-28.2,55.3L-34.3,59.3L-40.8,62.8L-47.5,65.4L-54.1,66.8L-60.2,66.8L-65.3,65.3L-69.3,62.4L-71.8,58.1L-72.7,52.8L-72.1,46.8L-70.0,40.4L-66.7,34.0L-62.6,27.9L-58.0,22.3L-53.4,17.4L-49.3,13.2L-46.1,9.8L-44.1,7.0L-43.6,4.6L-44.6,2.3L-47.1,0.0L-51.0,-2.7L-55.9,-5.9L-61.4,-9.7L-67.0,-14.2L-72.4,-19.4L-76.9,-25.0L-80.3,-30.8L-82.1,-36.6L-82.3,-41.9L-80.7,-46.6L-77.5,-50.3L-72.7,-52.8L-66.8,-54.1L-60.1,-54.1L-53.0,-53.0L-45.8,-50.9L-39.1,-48.3L-33.0,-45.4L-27.8,-42.8L-23.6,-40.8L-20.3,-39.8L-17.8,-40.0L-16.0,-41.7L-14.6,-44.8L-13.2,-49.3L-11.7,-54.9L-9.7,-61.4L-7.2,-68.1L-3.9,-74.8L-0.0,-80.9L4.5,-85.9L9.4,-89.4L14.4,-91.2L19.4,-91.2L23.9,-89.2L27.8,-85.5L30.8,-80.3L32.9,-73.9L34.0,-66.7L34.3,-59.3L33.8,-52.1L33.0,-45.4L32.1,-39.7L31.5,-35.0L31.6,-31.6L32.6,-29.3L34.7,-28.1L38.1,-27.7L42.8,-27.8L48.6,-28.1L55.3,-28.2L62.6,-27.9L69.9,-26.8L76.9,-25.0L83.0,-22.3L87.9,-18.7L91.2,-14.4L92.7,-9.7L92.2,-4.8L89.9,-0.0Z" fill="none" stroke="#e0f8e1" stroke-width="7.199999999999999" stroke-linecap="round" opacity="0.25" filter="url(#tg)"/><path d="M89.9,0.0L85.9,4.5L80.4,8.5L74.0,11.7L67.0,14.2L60.0,16.1L53.4,17.4L47.7,18.3L43.0,19.2L39.8,20.3L37.9,21.9L37.4,24.3L38.1,27.7L39.7,32.1L41.7,37.6L43.9,43.9L45.8,50.9L47.1,58.2L47.5,65.4L46.8,72.1L45.0,77.9L41.9,82.3L37.9,85.2L33.1,86.2L27.8,85.5L22.3,83.0L16.8,79.1L11.7,74.0L7.2,68.1L3.3,62.0L0.0,56.2L-2.7,51.0L-4.9,46.9L-7.0,44.1L-9.1,42.9L-11.6,43.1L-14.6,44.8L-18.3,47.7L-22.8,51.3L-28.2,55.3L-34.3,59.3L-40.8,62.8L-47.5,65.4L-54.1,66.8L-60.2,66.8L-65.3,65.3L-69.3,62.4L-71.8,58.1L-72.7,52.8L-72.1,46.8L-70.0,40.4L-66.7,34.0L-62.6,27.9L-58.0,22.3L-53.4,17.4L-49.3,13.2L-46.1,9.8L-44.1,7.0L-43.6,4.6L-44.6,2.3L-47.1,0.0L-51.0,-2.7L-55.9,-5.9L-61.4,-9.7L-67.0,-14.2L-72.4,-19.4L-76.9,-25.0L-80.3,-30.8L-82.1,-36.6L-82.3,-41.9L-80.7,-46.6L-77.5,-50.3L-72.7,-52.8L-66.8,-54.1L-60.1,-54.1L-53.0,-53.0L-45.8,-50.9L-39.1,-48.3L-33.0,-45.4L-27.8,-42.8L-23.6,-40.8L-20.3,-39.8L-17.8,-40.0L-16.0,-41.7L-14.6,-44.8L-13.2,-49.3L-11.7,-54.9L-9.7,-61.4L-7.2,-68.1L-3.9,-74.8L-0.0,-80.9L4.5,-85.9L9.4,-89.4L14.4,-91.2L19.4,-91.2L23.9,-89.2L27.8,-85.5L30.8,-80.3L32.9,-73.9L34.0,-66.7L34.3,-59.3L33.8,-52.1L33.0,-45.4L32.1,-39.7L31.5,-35.0L31.6,-31.6L32.6,-29.3L34.7,-28.1L38.1,-27.7L42.8,-27.8L48.6,-28.1L55.3,-28.2L62.6,-27.9L69.9,-26.8L76.9,-25.0L83.0,-22.3L87.9,-18.7L91.2,-14.4L92.7,-9.7L92.2,-4.8L89.9,-0.0Z" fill="none" stroke="#e0f8e1" stroke-width="2.4" stroke-linecap="round" opacity="0.95"/><path d="M89.4,0.0L88.2,4.6L85.1,8.9L80.4,12.7L74.5,15.8L67.7,18.1L60.5,19.7L53.5,20.5L47.0,20.9L41.5,21.1L37.1,21.4L34.1,22.1L32.4,23.5L32.0,25.9L32.6,29.4L34.0,34.0L35.7,39.6L37.4,46.2L38.7,53.2L39.3,60.5L39.0,67.6L37.7,73.9L35.2,79.2L31.8,83.0L27.6,85.0L22.9,85.3L17.8,83.7L12.7,80.4L8.0,75.7L3.7,70.0L0.0,63.7L-3.0,57.2L-5.4,51.2L-7.3,46.0L-8.9,41.9L-10.5,39.2L-12.4,38.1L-14.8,38.4L-17.9,40.1L-21.8,42.8L-26.7,46.2L-32.3,49.8L-38.7,53.2L-45.4,56.1L-52.2,58.0L-58.7,58.7L-64.4,58.0L-69.1,55.9L-72.3,52.6L-74.1,48.1L-74.1,42.8L-72.6,37.0L-69.6,31.0L-65.4,25.1L-60.5,19.7L-55.4,14.8L-50.3,10.7L-46.0,7.3L-42.6,4.5L-40.6,2.1L-40.1,0.0L-41.1,-2.2L-43.7,-4.6L-47.5,-7.5L-52.2,-11.1L-57.4,-15.4L-62.6,-20.3L-67.4,-25.9L-71.3,-31.7L-73.9,-37.7L-75.0,-43.3L-74.5,-48.4L-72.3,-52.6L-68.6,-55.6L-63.6,-57.3L-57.6,-57.6L-51.0,-56.6L-44.1,-54.5L-37.4,-51.5L-31.2,-48.1L-25.7,-44.6L-21.1,-41.5L-17.4,-39.1L-14.6,-37.9L-12.4,-38.1L-10.7,-39.8L-9.1,-42.9L-7.5,-47.5L-5.6,-53.0L-3.1,-59.3L-0.0,-65.8L3.8,-72.1L8.2,-77.6L13.0,-81.9L18.0,-84.8L23.0,-85.8L27.6,-85.0L31.6,-82.4L34.8,-78.2L37.0,-72.6L38.1,-65.9L38.2,-58.8L37.4,-51.5L36.1,-44.5L34.4,-38.2L32.9,-32.9L31.8,-28.7L31.6,-25.6L32.4,-23.5L34.5,-22.4L38.0,-22.0L42.8,-21.8L48.7,-21.7L55.4,-21.3L62.6,-20.3L69.7,-18.7L76.3,-16.2L81.9,-13.0L86.2,-9.1L88.7,-4.7L89.4,-0.0Z" fill="none" stroke="#e0f8e3" stroke-width="7.199999999999999" stroke-linecap="round" opacity="0.25" filter="url(#tg)"/><path d="M89.4,0.0L88.2,4.6L85.1,8.9L80.4,12.7L74.5,15.8L67.7,18.1L60.5,19.7L53.5,20.5L47.0,20.9L41.5,21.1L37.1,21.4L34.1,22.1L32.4,23.5L32.0,25.9L32.6,29.4L34.0,34.0L35.7,39.6L37.4,46.2L38.7,53.2L39.3,60.5L39.0,67.6L37.7,73.9L35.2,79.2L31.8,83.0L27.6,85.0L22.9,85.3L17.8,83.7L12.7,80.4L8.0,75.7L3.7,70.0L0.0,63.7L-3.0,57.2L-5.4,51.2L-7.3,46.0L-8.9,41.9L-10.5,39.2L-12.4,38.1L-14.8,38.4L-17.9,40.1L-21.8,42.8L-26.7,46.2L-32.3,49.8L-38.7,53.2L-45.4,56.1L-52.2,58.0L-58.7,58.7L-64.4,58.0L-69.1,55.9L-72.3,52.6L-74.1,48.1L-74.1,42.8L-72.6,37.0L-69.6,31.0L-65.4,25.1L-60.5,19.7L-55.4,14.8L-50.3,10.7L-46.0,7.3L-42.6,4.5L-40.6,2.1L-40.1,0.0L-41.1,-2.2L-43.7,-4.6L-47.5,-7.5L-52.2,-11.1L-57.4,-15.4L-62.6,-20.3L-67.4,-25.9L-71.3,-31.7L-73.9,-37.7L-75.0,-43.3L-74.5,-48.4L-72.3,-52.6L-68.6,-55.6L-63.6,-57.3L-57.6,-57.6L-51.0,-56.6L-44.1,-54.5L-37.4,-51.5L-31.2,-48.1L-25.7,-44.6L-21.1,-41.5L-17.4,-39.1L-14.6,-37.9L-12.4,-38.1L-10.7,-39.8L-9.1,-42.9L-7.5,-47.5L-5.6,-53.0L-3.1,-59.3L-0.0,-65.8L3.8,-72.1L8.2,-77.6L13.0,-81.9L18.0,-84.8L23.0,-85.8L27.6,-85.0L31.6,-82.4L34.8,-78.2L37.0,-72.6L38.1,-65.9L38.2,-58.8L37.4,-51.5L36.1,-44.5L34.4,-38.2L32.9,-32.9L31.8,-28.7L31.6,-25.6L32.4,-23.5L34.5,-22.4L38.0,-22.0L42.8,-21.8L48.7,-21.7L55.4,-21.3L62.6,-20.3L69.7,-18.7L76.3,-16.2L81.9,-13.0L86.2,-9.1L88.7,-4.7L89.4,-0.0Z" fill="none" stroke="#e0f8e3" stroke-width="2.4" stroke-linecap="round" opacity="0.95"/><path d="M83.4,0.0L85.2,4.5L85.1,8.9L83.1,13.2L79.4,16.9L74.2,19.9L67.9,22.1L60.9,23.4L53.7,23.9L46.8,23.8L40.5,23.4L35.3,22.9L31.2,22.7L28.5,23.1L27.0,24.3L26.7,26.7L27.3,30.3L28.4,35.0L29.7,40.9L30.9,47.5L31.6,54.7L31.5,61.9L30.6,68.6L28.6,74.6L25.8,79.3L22.1,82.4L17.8,83.7L13.2,83.1L8.5,80.8L4.0,76.7L0.0,71.4L-3.4,65.2L-6.1,58.5L-8.2,51.9L-9.7,45.8L-10.9,40.6L-11.9,36.7L-13.1,34.2L-14.8,33.2L-17.1,33.6L-20.4,35.3L-24.6,37.8L-29.7,40.9L-35.7,44.0L-42.2,46.9L-49.1,49.1L-55.8,50.3L-62.1,50.3L-67.4,49.0L-71.5,46.5L-74.1,42.8L-75.0,38.2L-74.2,33.0L-71.7,27.5L-67.9,22.1L-63.0,16.9L-57.5,12.2L-51.9,8.2L-46.5,4.9L-42.0,2.2L-38.6,0.0L-36.6,-1.9L-36.2,-3.8L-37.3,-5.9L-39.8,-8.5L-43.6,-11.7L-48.1,-15.6L-52.9,-20.3L-57.7,-25.7L-61.9,-31.5L-65.1,-37.6L-67.0,-43.5L-67.4,-49.0L-66.3,-53.7L-63.6,-57.3L-59.5,-59.5L-54.3,-60.3L-48.4,-59.7L-42.0,-57.8L-35.5,-54.7L-29.4,-50.9L-23.8,-46.8L-19.0,-42.8L-15.1,-39.3L-11.9,-36.7L-9.5,-35.4L-7.6,-35.6L-5.9,-37.3L-4.3,-40.5L-2.4,-45.0L-0.0,-50.5L3.0,-56.6L6.6,-62.8L10.9,-68.6L15.6,-73.5L20.7,-77.2L25.8,-79.3L30.6,-79.6L34.8,-78.2L38.2,-75.0L40.6,-70.3L41.9,-64.4L42.0,-57.8L41.1,-50.7L39.4,-43.7L37.1,-37.1L34.8,-31.3L32.7,-26.5L31.2,-22.7L30.7,-20.0L31.5,-18.2L33.6,-17.1L37.2,-16.6L42.1,-16.2L48.1,-15.6L54.7,-14.7L61.7,-13.1L68.6,-10.9L74.7,-7.9L79.8,-4.2L83.4,-0.0Z" fill="none" stroke="#dff9e6" stroke-width="7.199999999999999" stroke-linecap="round" opacity="0.25" filter="url(#tg)"/><path d="M83.4,0.0L85.2,4.5L85.1,8.9L83.1,13.2L79.4,16.9L74.2,19.9L67.9,22.1L60.9,23.4L53.7,23.9L46.8,23.8L40.5,23.4L35.3,22.9L31.2,22.7L28.5,23.1L27.0,24.3L26.7,26.7L27.3,30.3L28.4,35.0L29.7,40.9L30.9,47.5L31.6,54.7L31.5,61.9L30.6,68.6L28.6,74.6L25.8,79.3L22.1,82.4L17.8,83.7L13.2,83.1L8.5,80.8L4.0,76.7L0.0,71.4L-3.4,65.2L-6.1,58.5L-8.2,51.9L-9.7,45.8L-10.9,40.6L-11.9,36.7L-13.1,34.2L-14.8,33.2L-17.1,33.6L-20.4,35.3L-24.6,37.8L-29.7,40.9L-35.7,44.0L-42.2,46.9L-49.1,49.1L-55.8,50.3L-62.1,50.3L-67.4,49.0L-71.5,46.5L-74.1,42.8L-75.0,38.2L-74.2,33.0L-71.7,27.5L-67.9,22.1L-63.0,16.9L-57.5,12.2L-51.9,8.2L-46.5,4.9L-42.0,2.2L-38.6,0.0L-36.6,-1.9L-36.2,-3.8L-37.3,-5.9L-39.8,-8.5L-43.6,-11.7L-48.1,-15.6L-52.9,-20.3L-57.7,-25.7L-61.9,-31.5L-65.1,-37.6L-67.0,-43.5L-67.4,-49.0L-66.3,-53.7L-63.6,-57.3L-59.5,-59.5L-54.3,-60.3L-48.4,-59.7L-42.0,-57.8L-35.5,-54.7L-29.4,-50.9L-23.8,-46.8L-19.0,-42.8L-15.1,-39.3L-11.9,-36.7L-9.5,-35.4L-7.6,-35.6L-5.9,-37.3L-4.3,-40.5L-2.4,-45.0L-0.0,-50.5L3.0,-56.6L6.6,-62.8L10.9,-68.6L15.6,-73.5L20.7,-77.2L25.8,-79.3L30.6,-79.6L34.8,-78.2L38.2,-75.0L40.6,-70.3L41.9,-64.4L42.0,-57.8L41.1,-50.7L39.4,-43.7L37.1,-37.1L34.8,-31.3L32.7,-26.5L31.2,-22.7L30.7,-20.0L31.5,-18.2L33.6,-17.1L37.2,-16.6L42.1,-16.2L48.1,-15.6L54.7,-14.7L61.7,-13.1L68.6,-10.9L74.7,-7.9L79.8,-4.2L83.4,-0.0Z" fill="none" stroke="#dff9e6" stroke-width="2.4" stroke-linecap="round" opacity="0.95"/><path d="M72.2,0.0L76.7,4.0L79.6,8.4L80.7,12.8L79.9,17.0L77.3,20.7L73.0,23.7L67.4,25.9L60.9,27.1L53.8,27.4L46.7,27.0L40.0,26.0L34.1,24.8L29.2,23.7L25.5,23.0L23.1,23.1L21.9,24.3L21.6,26.7L22.1,30.4L23.0,35.4L23.9,41.4L24.5,48.1L24.6,55.2L23.9,62.2L22.3,68.7L19.9,74.2L16.6,78.3L12.8,80.7L8.5,81.2L4.2,79.9L0.0,76.8L-3.8,72.1L-7.0,66.3L-9.5,59.7L-11.2,52.8L-12.4,46.1L-13.0,40.1L-13.5,35.1L-14.0,31.4L-14.9,29.1L-16.4,28.3L-18.7,28.8L-22.1,30.4L-26.5,32.8L-31.9,35.5L-38.2,38.2L-44.9,40.4L-51.8,41.9L-58.4,42.5L-64.4,41.8L-69.3,40.0L-72.8,37.1L-74.6,33.2L-74.7,28.7L-73.0,23.7L-69.8,18.7L-65.2,13.9L-59.7,9.5L-53.7,5.6L-47.7,2.5L-42.2,0.0L-37.6,-2.0L-34.2,-3.6L-32.3,-5.1L-32.0,-6.8L-33.2,-8.9L-35.8,-11.6L-39.4,-15.1L-43.6,-19.4L-48.1,-24.5L-52.3,-30.2L-55.9,-36.3L-58.4,-42.5L-59.7,-48.3L-59.5,-53.5L-57.8,-57.8L-54.7,-60.7L-50.4,-62.2L-45.1,-62.1L-39.3,-60.6L-33.3,-57.7L-27.4,-53.8L-22.0,-49.3L-17.1,-44.6L-13.0,-40.1L-9.7,-36.3L-7.1,-33.6L-5.1,-32.3L-3.4,-32.5L-1.8,-34.3L-0.0,-37.6L2.2,-42.1L5.0,-47.5L8.4,-53.3L12.6,-59.1L17.3,-64.4L22.3,-68.7L27.5,-71.7L32.5,-73.1L37.1,-72.8L40.8,-70.7L43.6,-67.1L45.1,-62.1L45.5,-56.1L44.6,-49.5L42.7,-42.7L40.1,-36.1L37.1,-30.0L34.1,-24.8L31.5,-20.5L29.8,-17.2L29.1,-14.9L29.9,-13.3L32.1,-12.3L35.8,-11.6L40.7,-10.9L46.7,-9.9L53.3,-8.4L60.1,-6.3L66.6,-3.5L72.2,-0.0Z" fill="none" stroke="#dff9e8" stroke-width="7.199999999999999" stroke-linecap="round" opacity="0.25" filter="url(#tg)"/><path d="M72.2,0.0L76.7,4.0L79.6,8.4L80.7,12.8L79.9,17.0L77.3,20.7L73.0,23.7L67.4,25.9L60.9,27.1L53.8,27.4L46.7,27.0L40.0,26.0L34.1,24.8L29.2,23.7L25.5,23.0L23.1,23.1L21.9,24.3L21.6,26.7L22.1,30.4L23.0,35.4L23.9,41.4L24.5,48.1L24.6,55.2L23.9,62.2L22.3,68.7L19.9,74.2L16.6,78.3L12.8,80.7L8.5,81.2L4.2,79.9L0.0,76.8L-3.8,72.1L-7.0,66.3L-9.5,59.7L-11.2,52.8L-12.4,46.1L-13.0,40.1L-13.5,35.1L-14.0,31.4L-14.9,29.1L-16.4,28.3L-18.7,28.8L-22.1,30.4L-26.5,32.8L-31.9,35.5L-38.2,38.2L-44.9,40.4L-51.8,41.9L-58.4,42.5L-64.4,41.8L-69.3,40.0L-72.8,37.1L-74.6,33.2L-74.7,28.7L-73.0,23.7L-69.8,18.7L-65.2,13.9L-59.7,9.5L-53.7,5.6L-47.7,2.5L-42.2,0.0L-37.6,-2.0L-34.2,-3.6L-32.3,-5.1L-32.0,-6.8L-33.2,-8.9L-35.8,-11.6L-39.4,-15.1L-43.6,-19.4L-48.1,-24.5L-52.3,-30.2L-55.9,-36.3L-58.4,-42.5L-59.7,-48.3L-59.5,-53.5L-57.8,-57.8L-54.7,-60.7L-50.4,-62.2L-45.1,-62.1L-39.3,-60.6L-33.3,-57.7L-27.4,-53.8L-22.0,-49.3L-17.1,-44.6L-13.0,-40.1L-9.7,-36.3L-7.1,-33.6L-5.1,-32.3L-3.4,-32.5L-1.8,-34.3L-0.0,-37.6L2.2,-42.1L5.0,-47.5L8.4,-53.3L12.6,-59.1L17.3,-64.4L22.3,-68.7L27.5,-71.7L32.5,-73.1L37.1,-72.8L40.8,-70.7L43.6,-67.1L45.1,-62.1L45.5,-56.1L44.6,-49.5L42.7,-42.7L40.1,-36.1L37.1,-30.0L34.1,-24.8L31.5,-20.5L29.8,-17.2L29.1,-14.9L29.9,-13.3L32.1,-12.3L35.8,-11.6L40.7,-10.9L46.7,-9.9L53.3,-8.4L60.1,-6.3L66.6,-3.5L72.2,-0.0Z" fill="none" stroke="#dff9e8" stroke-width="2.4" stroke-linecap="round" opacity="0.95"/><path d="M57.7,0.0L63.8,3.3L68.9,7.2L72.8,11.5L75.0,15.9L75.4,20.2L73.9,24.0L70.8,27.2L66.1,29.4L60.2,30.7L53.6,30.9L46.6,30.3L39.8,28.9L33.4,27.1L27.9,25.1L23.5,23.5L20.2,22.5L18.1,22.4L17.1,23.5L16.9,26.0L17.3,29.9L17.8,35.0L18.3,41.1L18.4,47.9L17.8,54.9L16.5,61.7L14.4,67.8L11.5,72.8L8.0,76.2L4.1,77.9L0.0,77.8L-4.0,75.7L-7.6,72.0L-10.6,66.8L-12.9,60.5L-14.4,53.7L-15.2,46.7L-15.4,40.1L-15.3,34.3L-15.1,29.6L-15.1,26.2L-15.7,24.2L-17.1,23.5L-19.5,24.1L-23.1,25.6L-27.8,27.8L-33.4,30.1L-39.8,32.3L-46.7,33.9L-53.6,34.8L-60.0,34.7L-65.6,33.4L-70.0,31.2L-72.9,28.0L-73.9,24.0L-73.2,19.6L-70.8,15.0L-66.8,10.6L-61.5,6.5L-55.5,2.9L-49.1,0.0L-42.9,-2.2L-37.3,-3.9L-32.8,-5.2L-29.6,-6.3L-27.8,-7.5L-27.7,-9.0L-29.0,-11.1L-31.5,-14.0L-35.0,-17.8L-39.0,-22.5L-43.0,-27.9L-46.7,-33.9L-49.6,-40.2L-51.5,-46.4L-52.1,-52.1L-51.3,-57.0L-49.1,-60.6L-45.7,-62.9L-41.3,-63.6L-36.2,-62.7L-30.7,-60.2L-25.2,-56.5L-19.9,-51.9L-15.2,-46.7L-11.1,-41.5L-7.8,-36.7L-5.2,-32.8L-3.2,-30.1L-1.5,-28.8L-0.0,-29.1L1.6,-31.0L3.6,-34.3L6.1,-38.8L9.4,-44.0L13.3,-49.5L17.8,-54.9L22.9,-59.6L28.2,-63.3L33.4,-65.6L38.3,-66.4L42.5,-65.4L45.7,-62.9L47.7,-58.9L48.4,-53.8L47.8,-47.8L46.0,-41.4L43.2,-35.0L39.8,-28.9L36.1,-23.4L32.5,-18.8L29.6,-15.1L27.6,-12.3L26.9,-10.3L27.7,-9.0L30.0,-8.0L33.8,-7.2L38.8,-6.1L44.7,-4.7L51.2,-2.7L57.7,-0.0Z" fill="none" stroke="#dffaea" stroke-width="7.199999999999999" stroke-linecap="round" opacity="0.25" filter="url(#tg)"/><path d="M57.7,0.0L63.8,3.3L68.9,7.2L72.8,11.5L75.0,15.9L75.4,20.2L73.9,24.0L70.8,27.2L66.1,29.4L60.2,30.7L53.6,30.9L46.6,30.3L39.8,28.9L33.4,27.1L27.9,25.1L23.5,23.5L20.2,22.5L18.1,22.4L17.1,23.5L16.9,26.0L17.3,29.9L17.8,35.0L18.3,41.1L18.4,47.9L17.8,54.9L16.5,61.7L14.4,67.8L11.5,72.8L8.0,76.2L4.1,77.9L0.0,77.8L-4.0,75.7L-7.6,72.0L-10.6,66.8L-12.9,60.5L-14.4,53.7L-15.2,46.7L-15.4,40.1L-15.3,34.3L-15.1,29.6L-15.1,26.2L-15.7,24.2L-17.1,23.5L-19.5,24.1L-23.1,25.6L-27.8,27.8L-33.4,30.1L-39.8,32.3L-46.7,33.9L-53.6,34.8L-60.0,34.7L-65.6,33.4L-70.0,31.2L-72.9,28.0L-73.9,24.0L-73.2,19.6L-70.8,15.0L-66.8,10.6L-61.5,6.5L-55.5,2.9L-49.1,0.0L-42.9,-2.2L-37.3,-3.9L-32.8,-5.2L-29.6,-6.3L-27.8,-7.5L-27.7,-9.0L-29.0,-11.1L-31.5,-14.0L-35.0,-17.8L-39.0,-22.5L-43.0,-27.9L-46.7,-33.9L-49.6,-40.2L-51.5,-46.4L-52.1,-52.1L-51.3,-57.0L-49.1,-60.6L-45.7,-62.9L-41.3,-63.6L-36.2,-62.7L-30.7,-60.2L-25.2,-56.5L-19.9,-51.9L-15.2,-46.7L-11.1,-41.5L-7.8,-36.7L-5.2,-32.8L-3.2,-30.1L-1.5,-28.8L-0.0,-29.1L1.6,-31.0L3.6,-34.3L6.1,-38.8L9.4,-44.0L13.3,-49.5L17.8,-54.9L22.9,-59.6L28.2,-63.3L33.4,-65.6L38.3,-66.4L42.5,-65.4L45.7,-62.9L47.7,-58.9L48.4,-53.8L47.8,-47.8L46.0,-41.4L43.2,-35.0L39.8,-28.9L36.1,-23.4L32.5,-18.8L29.6,-15.1L27.6,-12.3L26.9,-10.3L27.7,-9.0L30.0,-8.0L33.8,-7.2L38.8,-6.1L44.7,-4.7L51.2,-2.7L57.7,-0.0Z" fill="none" stroke="#dffaea" stroke-width="2.4" stroke-linecap="round" opacity="0.95"/><path d="M42.2,0.0L48.5,2.5L54.7,5.7L60.3,9.6L64.9,13.8L68.1,18.2L69.6,22.6L69.4,26.6L67.4,30.0L63.8,32.5L58.8,33.9L52.8,34.3L46.2,33.6L39.4,31.9L32.9,29.7L27.1,27.1L22.1,24.5L18.1,22.4L15.3,21.1L13.6,21.0L12.8,22.1L12.6,24.7L12.8,28.7L13.0,34.0L13.1,40.2L12.6,46.9L11.4,53.8L9.6,60.3L6.9,66.0L3.7,70.4L0.0,73.2L-3.9,74.2L-7.7,73.4L-11.2,70.7L-14.1,66.4L-16.3,60.8L-17.6,54.3L-18.2,47.4L-18.0,40.5L-17.4,34.1L-16.5,28.6L-15.7,24.2L-15.3,21.1L-15.7,19.4L-17.1,19.0L-19.6,19.6L-23.4,21.0L-28.3,22.9L-34.2,24.8L-40.7,26.5L-47.6,27.5L-54.4,27.7L-60.6,27.0L-65.8,25.3L-69.6,22.6L-71.8,19.2L-72.2,15.3L-70.7,11.2L-67.5,7.1L-62.8,3.3L-57.1,0.0L-50.7,-2.7L-44.1,-4.6L-37.8,-6.0L-32.3,-6.9L-27.8,-7.5L-24.8,-8.1L-23.3,-9.0L-23.3,-10.4L-24.7,-12.6L-27.2,-15.7L-30.5,-19.8L-34.2,-24.8L-37.8,-30.6L-40.9,-36.8L-43.2,-43.2L-44.4,-49.3L-44.4,-54.8L-43.0,-59.2L-40.5,-62.3L-36.9,-63.9L-32.5,-63.8L-27.6,-62.0L-22.6,-58.8L-17.6,-54.3L-13.1,-49.0L-9.2,-43.3L-6.0,-37.8L-3.4,-32.8L-1.5,-28.8L-0.0,-26.1L1.3,-24.9L2.7,-25.4L4.3,-27.4L6.5,-30.8L9.4,-35.1L13.1,-40.2L17.4,-45.4L22.4,-50.3L27.7,-54.4L33.2,-57.5L38.4,-59.1L43.0,-59.2L46.8,-57.8L49.4,-54.8L50.6,-50.6L50.4,-45.4L48.9,-39.6L46.2,-33.6L42.6,-27.6L38.4,-22.2L34.1,-17.4L30.1,-13.4L26.9,-10.3L24.8,-8.1L24.1,-6.5L25.0,-5.3L27.4,-4.3L31.3,-3.3L36.3,-1.9L42.2,-0.0Z" fill="none" stroke="#defaed" stroke-width="7.199999999999999" stroke-linecap="round" opacity="0.25" filter="url(#tg)"/><path d="M42.2,0.0L48.5,2.5L54.7,5.7L60.3,9.6L64.9,13.8L68.1,18.2L69.6,22.6L69.4,26.6L67.4,30.0L63.8,32.5L58.8,33.9L52.8,34.3L46.2,33.6L39.4,31.9L32.9,29.7L27.1,27.1L22.1,24.5L18.1,22.4L15.3,21.1L13.6,21.0L12.8,22.1L12.6,24.7L12.8,28.7L13.0,34.0L13.1,40.2L12.6,46.9L11.4,53.8L9.6,60.3L6.9,66.0L3.7,70.4L0.0,73.2L-3.9,74.2L-7.7,73.4L-11.2,70.7L-14.1,66.4L-16.3,60.8L-17.6,54.3L-18.2,47.4L-18.0,40.5L-17.4,34.1L-16.5,28.6L-15.7,24.2L-15.3,21.1L-15.7,19.4L-17.1,19.0L-19.6,19.6L-23.4,21.0L-28.3,22.9L-34.2,24.8L-40.7,26.5L-47.6,27.5L-54.4,27.7L-60.6,27.0L-65.8,25.3L-69.6,22.6L-71.8,19.2L-72.2,15.3L-70.7,11.2L-67.5,7.1L-62.8,3.3L-57.1,0.0L-50.7,-2.7L-44.1,-4.6L-37.8,-6.0L-32.3,-6.9L-27.8,-7.5L-24.8,-8.1L-23.3,-9.0L-23.3,-10.4L-24.7,-12.6L-27.2,-15.7L-30.5,-19.8L-34.2,-24.8L-37.8,-30.6L-40.9,-36.8L-43.2,-43.2L-44.4,-49.3L-44.4,-54.8L-43.0,-59.2L-40.5,-62.3L-36.9,-63.9L-32.5,-63.8L-27.6,-62.0L-22.6,-58.8L-17.6,-54.3L-13.1,-49.0L-9.2,-43.3L-6.0,-37.8L-3.4,-32.8L-1.5,-28.8L-0.0,-26.1L1.3,-24.9L2.7,-25.4L4.3,-27.4L6.5,-30.8L9.4,-35.1L13.1,-40.2L17.4,-45.4L22.4,-50.3L27.7,-54.4L33.2,-57.5L38.4,-59.1L43.0,-59.2L46.8,-57.8L49.4,-54.8L50.6,-50.6L50.4,-45.4L48.9,-39.6L46.2,-33.6L42.6,-27.6L38.4,-22.2L34.1,-17.4L30.1,-13.4L26.9,-10.3L24.8,-8.1L24.1,-6.5L25.0,-5.3L27.4,-4.3L31.3,-3.3L36.3,-1.9L42.2,-0.0Z" fill="none" stroke="#defaed" stroke-width="2.4" stroke-linecap="round" opacity="0.95"/><path d="M28.4,0.0L33.5,1.8L39.3,4.1L45.3,7.2L51.1,10.9L56.3,15.1L60.3,19.6L62.8,24.1L63.7,28.4L62.9,32.0L60.4,34.9L56.4,36.6L51.3,37.2L45.3,36.7L38.9,35.0L32.4,32.4L26.4,29.4L21.1,26.1L16.7,23.0L13.3,20.5L11.0,19.1L9.6,18.9L9.0,20.1L8.8,22.9L8.8,27.0L8.7,32.4L8.2,38.6L7.2,45.3L5.5,52.0L3.0,58.2L0.0,63.4L-3.5,67.2L-7.3,69.4L-11.0,69.7L-14.5,68.2L-17.4,65.0L-19.6,60.3L-20.9,54.4L-21.3,47.8L-20.8,40.9L-19.7,34.2L-18.3,28.1L-16.7,23.0L-15.4,19.0L-14.7,16.4L-15.0,15.0L-16.4,14.7L-19.0,15.4L-23.0,16.7L-28.1,18.3L-34.2,19.7L-40.9,20.8L-47.8,21.3L-54.4,20.9L-60.3,19.6L-65.0,17.4L-68.2,14.5L-69.7,11.0L-69.4,7.3L-67.2,3.5L-63.4,0.0L-58.2,-3.0L-52.0,-5.5L-45.3,-7.2L-38.6,-8.2L-32.4,-8.7L-27.0,-8.8L-22.9,-8.8L-20.1,-9.0L-18.9,-9.6L-19.1,-11.0L-20.5,-13.3L-23.0,-16.7L-26.1,-21.1L-29.4,-26.4L-32.4,-32.4L-35.0,-38.9L-36.7,-45.3L-37.2,-51.3L-36.6,-56.4L-34.9,-60.4L-32.0,-62.9L-28.4,-63.7L-24.1,-62.8L-19.6,-60.3L-15.1,-56.3L-10.9,-51.1L-7.2,-45.3L-4.1,-39.3L-1.8,-33.5L-0.0,-28.4L1.3,-24.5L2.3,-21.9L3.3,-20.9L4.6,-21.6L6.3,-23.7L8.8,-27.0L12.0,-31.3L16.1,-36.1L20.8,-40.9L26.1,-45.3L31.7,-48.8L37.2,-51.3L42.3,-52.3L46.7,-51.8L49.9,-49.9L51.8,-46.7L52.3,-42.3L51.3,-37.2L48.8,-31.7L45.3,-26.1L40.9,-20.8L36.1,-16.1L31.3,-12.0L27.0,-8.8L23.7,-6.3L21.6,-4.6L20.9,-3.3L21.9,-2.3L24.5,-1.3L28.4,-0.0Z" fill="none" stroke="#defbef" stroke-width="7.199999999999999" stroke-linecap="round" opacity="0.25" filter="url(#tg)"/><path d="M28.4,0.0L33.5,1.8L39.3,4.1L45.3,7.2L51.1,10.9L56.3,15.1L60.3,19.6L62.8,24.1L63.7,28.4L62.9,32.0L60.4,34.9L56.4,36.6L51.3,37.2L45.3,36.7L38.9,35.0L32.4,32.4L26.4,29.4L21.1,26.1L16.7,23.0L13.3,20.5L11.0,19.1L9.6,18.9L9.0,20.1L8.8,22.9L8.8,27.0L8.7,32.4L8.2,38.6L7.2,45.3L5.5,52.0L3.0,58.2L0.0,63.4L-3.5,67.2L-7.3,69.4L-11.0,69.7L-14.5,68.2L-17.4,65.0L-19.6,60.3L-20.9,54.4L-21.3,47.8L-20.8,40.9L-19.7,34.2L-18.3,28.1L-16.7,23.0L-15.4,19.0L-14.7,16.4L-15.0,15.0L-16.4,14.7L-19.0,15.4L-23.0,16.7L-28.1,18.3L-34.2,19.7L-40.9,20.8L-47.8,21.3L-54.4,20.9L-60.3,19.6L-65.0,17.4L-68.2,14.5L-69.7,11.0L-69.4,7.3L-67.2,3.5L-63.4,0.0L-58.2,-3.0L-52.0,-5.5L-45.3,-7.2L-38.6,-8.2L-32.4,-8.7L-27.0,-8.8L-22.9,-8.8L-20.1,-9.0L-18.9,-9.6L-19.1,-11.0L-20.5,-13.3L-23.0,-16.7L-26.1,-21.1L-29.4,-26.4L-32.4,-32.4L-35.0,-38.9L-36.7,-45.3L-37.2,-51.3L-36.6,-56.4L-34.9,-60.4L-32.0,-62.9L-28.4,-63.7L-24.1,-62.8L-19.6,-60.3L-15.1,-56.3L-10.9,-51.1L-7.2,-45.3L-4.1,-39.3L-1.8,-33.5L-0.0,-28.4L1.3,-24.5L2.3,-21.9L3.3,-20.9L4.6,-21.6L6.3,-23.7L8.8,-27.0L12.0,-31.3L16.1,-36.1L20.8,-40.9L26.1,-45.3L31.7,-48.8L37.2,-51.3L42.3,-52.3L46.7,-51.8L49.9,-49.9L51.8,-46.7L52.3,-42.3L51.3,-37.2L48.8,-31.7L45.3,-26.1L40.9,-20.8L36.1,-16.1L31.3,-12.0L27.0,-8.8L23.7,-6.3L21.6,-4.6L20.9,-3.3L21.9,-2.3L24.5,-1.3L28.4,-0.0Z" fill="none" stroke="#defbef" stroke-width="2.4" stroke-linecap="round" opacity="0.95"/><path d="M18.6,0.0L21.3,1.1L25.3,2.7L30.3,4.8L36.0,7.6L41.7,11.2L47.1,15.3L51.7,19.9L55.1,24.5L57.1,29.1L57.4,33.1L56.0,36.4L53.1,38.6L48.9,39.6L43.7,39.3L37.8,37.8L31.8,35.3L25.8,31.9L20.4,28.1L15.7,24.2L12.0,20.7L9.2,18.0L7.3,16.4L6.3,16.3L5.7,17.7L5.5,20.6L5.3,24.9L4.8,30.3L3.8,36.6L2.3,43.1L0.0,49.5L-2.9,55.3L-6.3,60.0L-10.0,63.2L-13.8,64.8L-17.3,64.5L-20.3,62.5L-22.6,58.8L-23.9,53.7L-24.3,47.7L-23.7,41.1L-22.4,34.4L-20.4,28.1L-18.2,22.4L-16.0,17.8L-14.3,14.3L-13.4,12.0L-13.6,11.0L-15.0,10.9L-17.9,11.6L-22.0,12.7L-27.4,13.9L-33.6,15.0L-40.3,15.5L-47.1,15.3L-53.5,14.3L-59.0,12.5L-63.2,10.0L-65.9,6.9L-66.7,3.5L-65.7,0.0L-62.9,-3.3L-58.5,-6.1L-52.9,-8.4L-46.4,-9.9L-39.6,-10.6L-33.0,-10.7L-26.9,-10.3L-21.8,-9.7L-18.0,-9.2L-15.6,-9.0L-14.6,-9.5L-15.0,-10.9L-16.5,-13.4L-18.9,-17.0L-21.7,-21.7L-24.6,-27.3L-27.2,-33.6L-29.1,-40.1L-30.2,-46.5L-30.2,-52.2L-29.1,-57.1L-26.9,-60.5L-23.9,-62.4L-20.3,-62.5L-16.3,-60.8L-12.2,-57.5L-8.4,-52.9L-5.0,-47.2L-2.1,-41.0L-0.0,-34.7L1.5,-28.8L2.5,-23.8L3.2,-20.0L3.7,-17.6L4.5,-16.8L5.7,-17.7L7.6,-19.9L10.3,-23.2L13.9,-27.4L18.4,-31.8L23.5,-36.2L29.1,-40.1L34.9,-43.0L40.4,-44.8L45.3,-45.3L49.2,-44.3L51.9,-42.0L53.1,-38.6L52.8,-34.3L50.9,-29.4L47.7,-24.3L43.4,-19.3L38.3,-14.7L33.0,-10.7L27.9,-7.5L23.4,-5.0L20.0,-3.2L17.9,-1.9L17.4,-0.9L18.6,-0.0Z" fill="none" stroke="#ddfbf1" stroke-width="7.199999999999999" stroke-linecap="round" opacity="0.25" filter="url(#tg)"/><path d="M18.6,0.0L21.3,1.1L25.3,2.7L30.3,4.8L36.0,7.6L41.7,11.2L47.1,15.3L51.7,19.9L55.1,24.5L57.1,29.1L57.4,33.1L56.0,36.4L53.1,38.6L48.9,39.6L43.7,39.3L37.8,37.8L31.8,35.3L25.8,31.9L20.4,28.1L15.7,24.2L12.0,20.7L9.2,18.0L7.3,16.4L6.3,16.3L5.7,17.7L5.5,20.6L5.3,24.9L4.8,30.3L3.8,36.6L2.3,43.1L0.0,49.5L-2.9,55.3L-6.3,60.0L-10.0,63.2L-13.8,64.8L-17.3,64.5L-20.3,62.5L-22.6,58.8L-23.9,53.7L-24.3,47.7L-23.7,41.1L-22.4,34.4L-20.4,28.1L-18.2,22.4L-16.0,17.8L-14.3,14.3L-13.4,12.0L-13.6,11.0L-15.0,10.9L-17.9,11.6L-22.0,12.7L-27.4,13.9L-33.6,15.0L-40.3,15.5L-47.1,15.3L-53.5,14.3L-59.0,12.5L-63.2,10.0L-65.9,6.9L-66.7,3.5L-65.7,0.0L-62.9,-3.3L-58.5,-6.1L-52.9,-8.4L-46.4,-9.9L-39.6,-10.6L-33.0,-10.7L-26.9,-10.3L-21.8,-9.7L-18.0,-9.2L-15.6,-9.0L-14.6,-9.5L-15.0,-10.9L-16.5,-13.4L-18.9,-17.0L-21.7,-21.7L-24.6,-27.3L-27.2,-33.6L-29.1,-40.1L-30.2,-46.5L-30.2,-52.2L-29.1,-57.1L-26.9,-60.5L-23.9,-62.4L-20.3,-62.5L-16.3,-60.8L-12.2,-57.5L-8.4,-52.9L-5.0,-47.2L-2.1,-41.0L-0.0,-34.7L1.5,-28.8L2.5,-23.8L3.2,-20.0L3.7,-17.6L4.5,-16.8L5.7,-17.7L7.6,-19.9L10.3,-23.2L13.9,-27.4L18.4,-31.8L23.5,-36.2L29.1,-40.1L34.9,-43.0L40.4,-44.8L45.3,-45.3L49.2,-44.3L51.9,-42.0L53.1,-38.6L52.8,-34.3L50.9,-29.4L47.7,-24.3L43.4,-19.3L38.3,-14.7L33.0,-10.7L27.9,-7.5L23.4,-5.0L20.0,-3.2L17.9,-1.9L17.4,-0.9L18.6,-0.0Z" fill="none" stroke="#ddfbf1" stroke-width="2.4" stroke-linecap="round" opacity="0.95"/>
</svg>