<svg xmlns="http://www.w3.org/2000/svg" viewBox="-250 -250 500 500">
<rect x="-250" y="-250" width="500" height="500" fill="#120a28"/>
<path d="M206.0,0.0L203.5,10.7L196.1,20.6L184.7,29.3L170.4,36.2L154.5,41.4L138.6,45.1L124.1,47.6L112.2,49.9L103.6,52.8L98.7,57.0L97.5,63.3L99.3,72.2L103.3,83.7L108.3,97.5L113.1,113.1L116.6,129.5L117.7,145.4L115.9,159.6L111.0,170.9L103.0,178.4L92.5,181.5L80.2,180.2L67.0,174.6L53.8,165.7L41.4,154.5L30.3,142.6L20.8,131.3L12.8,122.1L6.1,116.1L0.0,114.0L-6.1,116.1L-12.8,122.1L-20.8,131.3L-30.3,142.6L-41.4,154.5L-53.8,165.7L-67.0,174.6L-80.2,180.2L-92.5,181.5L-103.0,178.4L-111.0,170.9L-115.9,159.6L-117.7,145.4L-116.6,129.5L-113.1,113.1L-108.3,97.5L-103.3,83.7L-99.3,72.2L-97.5,63.3L-98.7,57.0L-103.6,52.8L-112.2,49.9L-124.1,47.6L-138.6,45.1L-154.5,41.4L-170.4,36.2L-184.7,29.3L-196.1,20.6L-203.5,10.7L-206.0,0.0L-203.5,-10.7L-196.1,-20.6L-184.7,-29.3L-170.4,-36.2L-154.5,-41.4L-138.6,-45.1L-124.1,-47.6L-112.2,-49.9L-103.6,-52.8L-98.7,-57.0L-97.5,-63.3L-99.3,-72.2L-103.3,-83.7L-108.3,-97.5L-113.1,-113.1L-116.6,-129.5L-117.7,-145.4L-115.9,-159.6L-111.0,-170.9L-103.0,-178.4L-92.5,-181.5L-80.2,-180.2L-67.0,-174.6L-53.8,-165.7L-41.4,-154.5L-30.3,-142.6L-20.8,-131.3L-12.8,-122.1L-6.1,-116.1L-0.0,-114.0L6.1,-116.1L12.8,-122.1L20.8,-131.3L30.3,-142.6L41.4,-154.5L53.8,-165.7L67.0,-174.6L80.2,-180.2L92.5,-181.5L103.0,-178.4L111.0,-170.9L115.9,-159.6L117.7,-145.4L116.6,-129.5L113.1,-113.1L108.3,-97.5L103.3,-83.7L99.3,-72.2L97.5,-63.3L98.7,-57.0L103.6,-52.8L112.2,-49.9L124.1,-47.6L138.6,-45.1L154.5,-41.4L170.4,-36.2L184.7,-29.3L196.1,-20.6L203.5,-10.7L206.0,-0.0Z" fill="none" stroke="#ebe1ff" stroke-width="1" stroke-linecap="round" opacity="0.95"/>
<path d="M204.3,0.0L207.8,10.9L206.2,21.7L199.6,31.6L188.9,40.1L174.8,46.8L158.9,51.6L142.6,54.7L127.3,56.7L114.2,58.2L104.2,60.1L97.7,63.5L94.9,69.0L95.2,77.1L97.7,88.0L101.5,101.5L105.4,117.0L108.2,133.6L108.9,149.9L107.0,164.8L102.2,176.9L94.5,185.4L84.3,189.4L72.4,188.7L59.7,183.6L46.8,174.8L34.7,163.5L23.9,150.9L14.6,138.5L6.7,127.9L0.0,120.3L-6.1,116.4L-12.3,116.7L-19.2,121.0L-27.3,128.6L-37.2,138.7L-48.7,149.8L-61.6,160.4L-75.4,169.3L-89.2,175.1L-102.2,176.9L-113.3,174.5L-121.8,167.7L-127.2,157.1L-129.2,143.5L-128.0,128.0L-124.2,111.8L-118.7,96.1L-112.7,81.9L-107.4,69.8L-104.2,60.1L-103.8,52.9L-107.2,47.7L-114.3,43.9L-125.1,40.6L-138.7,37.2L-154.1,32.7L-169.7,26.9L-184.3,19.4L-196.2,10.3L-204.3,0.0L-207.8,-10.9L-206.2,-21.7L-199.6,-31.6L-188.9,-40.1L-174.8,-46.8L-158.9,-51.6L-142.6,-54.7L-127.3,-56.7L-114.2,-58.2L-104.2,-60.1L-97.7,-63.5L-94.9,-69.0L-95.2,-77.1L-97.7,-88.0L-101.5,-101.5L-105.4,-117.0L-108.2,-133.6L-108.9,-149.9L-107.0,-164.8L-102.2,-176.9L-94.5,-185.4L-84.3,-189.4L-72.4,-188.7L-59.7,-183.6L-46.8,-174.8L-34.7,-163.5L-23.9,-150.9L-14.6,-138.5L-6.7,-127.9L-0.0,-120.3L6.1,-116.4L12.3,-116.7L19.2,-121.0L27.3,-128.6L37.2,-138.7L48.7,-149.8L61.6,-160.4L75.4,-169.3L89.2,-175.1L102.2,-176.9L113.3,-174.5L121.8,-167.7L127.2,-157.1L129.2,-143.5L128.0,-128.0L124.2,-111.8L118.7,-96.1L112.7,-81.9L107.4,-69.8L104.2,-60.1L103.8,-52.9L107.2,-47.7L114.3,-43.9L125.1,-40.6L138.7,-37.2L154.1,-32.7L169.7,-26.9L184.3,-19.4L196.2,-10.3L204.3,-0.0Z" fill="none" stroke="#ffe1f4" stroke-width="1" stroke-linecap="round" opacity="0.95"/>
<path d="M195.4,0.0L204.2,10.7L208.4,21.9L207.8,32.9L202.1,43.0L192.0,51.4L178.4,58.0L162.6,62.4L146.0,65.0L130.0,66.2L115.9,66.9L104.6,68.0L96.8,70.3L92.4,74.8L91.1,82.0L92.2,92.2L94.7,105.2L97.6,120.5L99.6,137.1L99.8,153.7L97.7,169.2L92.8,182.2L85.2,191.5L75.4,196.4L63.9,196.5L51.4,192.0L39.0,183.5L27.2,172.0L16.7,158.9L7.6,145.7L0.0,133.8L-6.5,124.6L-12.5,119.0L-18.6,117.4L-25.5,119.9L-33.8,126.0L-43.8,134.7L-55.6,144.7L-68.9,154.8L-83.2,163.3L-97.7,169.2L-111.3,171.5L-123.2,169.6L-132.4,163.5L-138.3,153.6L-140.6,140.6L-139.4,125.5L-135.4,109.6L-129.3,93.9L-122.4,79.5L-115.9,66.9L-111.2,56.6L-109.3,48.6L-111.0,42.6L-116.6,37.9L-126.0,33.8L-138.5,29.4L-153.1,24.3L-168.5,17.7L-183.1,9.6L-195.4,0.0L-204.2,-10.7L-208.4,-21.9L-207.8,-32.9L-202.1,-43.0L-192.0,-51.4L-178.4,-58.0L-162.6,-62.4L-146.0,-65.0L-130.0,-66.2L-115.9,-66.9L-104.6,-68.0L-96.8,-70.3L-92.4,-74.8L-91.1,-82.0L-92.2,-92.2L-94.7,-105.2L-97.6,-120.5L-99.6,-137.1L-99.8,-153.7L-97.7,-169.2L-92.8,-182.2L-85.2,-191.5L-75.4,-196.4L-63.9,-196.5L-51.4,-192.0L-39.0,-183.5L-27.2,-172.0L-16.7,-158.9L-7.6,-145.7L-0.0,-133.8L6.5,-124.6L12.5,-119.0L18.6,-117.4L25.5,-119.9L33.8,-126.0L43.8,-134.7L55.6,-144.7L68.9,-154.8L83.2,-163.3L97.7,-169.2L111.3,-171.5L123.2,-169.6L132.4,-163.5L138.3,-153.6L140.6,-140.6L139.4,-125.5L135.4,-109.6L129.3,-93.9L122.4,-79.5L115.9,-66.9L111.2,-56.6L109.3,-48.6L111.0,-42.6L116.6,-37.9L126.0,-33.8L138.5,-29.4L153.1,-24.3L168.5,-17.7L183.1,-9.6L195.4,-0.0Z" fill="none" stroke="#ebe1ff" stroke-width="1" stroke-linecap="round" opacity="0.95"/>
<path d="M181.1,0.0L193.7,10.1L203.0,21.3L208.1,33.0L208.2,44.3L203.5,54.5L194.1,63.1L181.1,69.5L165.5,73.7L148.7,75.8L132.2,76.3L117.3,76.2L104.9,76.2L95.7,77.5L89.8,80.9L87.1,87.1L86.8,96.4L88.0,108.7L89.7,123.5L90.9,140.0L90.6,156.9L88.0,172.8L83.0,186.5L75.5,196.7L65.8,202.5L54.5,203.5L42.4,199.7L30.3,191.6L18.9,180.1L8.7,166.7L0.0,152.7L-7.3,139.7L-13.6,129.0L-19.3,121.6L-25.1,118.3L-31.9,119.0L-40.1,123.3L-50.1,130.6L-62.1,139.5L-75.8,148.7L-90.6,156.9L-105.6,162.7L-120.0,165.1L-132.6,163.7L-142.5,158.2L-149.0,149.0L-151.7,136.6L-150.7,122.0L-146.5,106.5L-140.0,90.9L-132.2,76.3L-124.6,63.5L-118.5,52.7L-115.0,44.1L-115.0,37.4L-119.0,31.9L-126.9,27.0L-138.1,21.9L-151.8,16.0L-166.7,8.7L-181.1,0.0L-193.7,-10.1L-203.0,-21.3L-208.1,-33.0L-208.2,-44.3L-203.5,-54.5L-194.1,-63.1L-181.1,-69.5L-165.5,-73.7L-148.7,-75.8L-132.2,-76.3L-117.3,-76.2L-104.9,-76.2L-95.7,-77.5L-89.8,-80.9L-87.1,-87.1L-86.8,-96.4L-88.0,-108.7L-89.7,-123.5L-90.9,-140.0L-90.6,-156.9L-88.0,-172.8L-83.0,-186.5L-75.5,-196.7L-65.8,-202.5L-54.5,-203.5L-42.4,-199.7L-30.3,-191.6L-18.9,-180.1L-8.7,-166.7L-0.0,-152.7L7.3,-139.7L13.6,-129.0L19.3,-121.6L25.1,-118.3L31.9,-119.0L40.1,-123.3L50.1,-130.6L62.1,-139.5L75.8,-148.7L90.6,-156.9L105.6,-162.7L120.0,-165.1L132.6,-163.7L142.5,-158.2L149.0,-149.0L151.7,-136.6L150.7,-122.0L146.5,-106.5L140.0,-90.9L132.2,-76.3L124.6,-63.5L118.5,-52.7L115.0,-44.1L115.0,-37.4L119.0,-31.9L126.9,-27.0L138.1,-21.9L151.8,-16.0L166.7,-8.7L181.1,-0.0Z" fill="none" stroke="#ffe1f4" stroke-width="1" stroke-linecap="round" opacity="0.95"/>
<path d="M164.4,0.0L178.5,9.4L191.1,20.1L200.9,31.8L206.6,43.9L207.6,55.6L203.7,66.2L195.2,74.9L182.7,81.3L167.4,85.3L150.7,87.0L133.9,86.9L118.3,85.9L104.9,85.0L94.5,85.1L87.3,87.3L83.1,92.3L81.4,100.5L81.4,112.0L82.0,126.2L82.2,142.4L81.2,159.3L78.2,175.6L72.9,189.9L65.3,200.9L55.6,207.6L44.5,209.5L32.7,206.5L20.9,198.9L9.8,187.7L0.0,174.0L-8.4,159.4L-15.3,145.4L-21.1,133.4L-26.4,124.4L-32.0,119.2L-38.4,118.1L-46.4,120.8L-56.3,126.5L-68.3,134.1L-82.2,142.4L-97.4,149.9L-113.0,155.5L-128.0,158.1L-141.3,157.0L-152.0,152.0L-159.2,143.3L-162.5,131.6L-161.8,117.5L-157.6,102.3L-150.7,87.0L-142.2,72.5L-133.6,59.5L-126.0,48.4L-121.0,39.3L-119.2,32.0L-121.5,25.8L-127.8,20.2L-137.7,14.5L-150.3,7.9L-164.4,0.0L-178.5,-9.4L-191.1,-20.1L-200.9,-31.8L-206.6,-43.9L-207.6,-55.6L-203.7,-66.2L-195.2,-74.9L-182.7,-81.3L-167.4,-85.3L-150.7,-87.0L-133.9,-86.9L-118.3,-85.9L-104.9,-85.0L-94.5,-85.1L-87.3,-87.3L-83.1,-92.3L-81.4,-100.5L-81.4,-112.0L-82.0,-126.2L-82.2,-142.4L-81.2,-159.3L-78.2,-175.6L-72.9,-189.9L-65.3,-200.9L-55.6,-207.6L-44.5,-209.5L-32.7,-206.5L-20.9,-198.9L-9.8,-187.7L-0.0,-174.0L8.4,-159.4L15.3,-145.4L21.1,-133.4L26.4,-124.4L32.0,-119.2L38.4,-118.1L46.4,-120.8L56.3,-126.5L68.3,-134.1L82.2,-142.4L97.4,-149.9L113.0,-155.5L128.0,-158.1L141.3,-157.0L152.0,-152.0L159.2,-143.3L162.5,-131.6L161.8,-117.5L157.6,-102.3L150.7,-87.0L142.2,-72.5L133.6,-59.5L126.0,-48.4L121.0,-39.3L119.2,-32.0L121.5,-25.8L127.8,-20.2L137.7,-14.5L150.3,-7.9L164.4,-0.0Z" fill="none" stroke="#ebe1ff" stroke-width="1" stroke-linecap="round" opacity="0.95"/>
<path d="M148.5,0.0L161.7,8.5L175.3,18.4L187.9,29.8L197.9,42.1L204.1,54.7L205.9,66.9L202.8,77.9L195.1,86.8L183.3,93.4L168.4,97.2L151.9,98.6L134.9,98.0L118.7,96.2L104.6,94.2L93.1,93.1L84.6,94.0L79.1,97.7L76.1,104.7L74.8,115.2L74.2,128.6L73.5,144.3L71.7,161.1L68.2,177.6L62.5,192.4L54.7,204.1L45.0,211.8L34.0,214.6L22.3,212.4L10.8,205.4L0.0,194.5L-9.5,180.8L-17.4,165.8L-23.9,150.9L-29.3,137.6L-34.1,127.2L-39.1,120.3L-45.1,117.4L-52.7,118.3L-62.3,122.3L-74.2,128.6L-88.2,135.8L-103.6,142.6L-119.7,147.8L-135.4,150.3L-149.4,149.4L-160.9,144.9L-168.8,136.7L-172.7,125.5L-172.5,112.0L-168.4,97.2L-161.3,82.2L-152.3,67.8L-142.6,54.8L-133.8,43.5L-127.2,34.1L-123.7,26.3L-124.2,19.7L-128.8,13.5L-137.1,7.2L-148.5,0.0L-161.7,-8.5L-175.3,-18.4L-187.9,-29.8L-197.9,-42.1L-204.1,-54.7L-205.9,-66.9L-202.8,-77.9L-195.1,-86.8L-183.3,-93.4L-168.4,-97.3L-151.9,-98.6L-134.9,-98.0L-118.7,-96.2L-104.6,-94.2L-93.1,-93.1L-84.6,-94.0L-79.1,-97.7L-76.1,-104.7L-74.8,-115.2L-74.3,-128.6L-73.5,-144.3L-71.7,-161.1L-68.2,-177.6L-62.5,-192.4L-54.7,-204.1L-45.0,-211.8L-34.0,-214.6L-22.3,-212.4L-10.8,-205.4L-0.0,-194.5L9.5,-180.8L17.4,-165.8L23.9,-150.9L29.3,-137.6L34.1,-127.2L39.1,-120.3L45.1,-117.4L52.7,-118.3L62.3,-122.3L74.3,-128.6L88.2,-135.8L103.6,-142.6L119.7,-147.8L135.4,-150.3L149.4,-149.4L160.9,-144.9L168.8,-136.7L172.7,-125.5L172.5,-112.0L168.4,-97.3L161.3,-82.2L152.3,-67.8L142.6,-54.8L133.8,-43.5L127.2,-34.1L123.7,-26.3L124.2,-19.7L128.8,-13.5L137.1,-7.2L148.5,-0.0Z" fill="none" stroke="#ffe1f4" stroke-width="1" stroke-linecap="round" opacity="0.95"/>
<path d="M136.6,0.0L146.6,7.7L158.7,16.7L171.7,27.2L183.9,39.1L194.0,52.0L200.7,65.2L203.1,78.0L200.8,89.4L193.8,98.8L182.7,105.5L168.4,109.4L152.1,110.5L135.1,109.4L118.6,106.8L103.8,103.8L91.4,101.5L81.8,101.1L75.1,103.4L70.8,109.1L68.3,118.3L66.6,130.8L64.9,145.8L62.3,162.3L58.1,178.8L52.0,194.0L43.9,206.4L34.0,214.9L23.0,218.6L11.4,217.3L0.0,211.0L-10.5,200.6L-19.7,187.0L-27.2,171.7L-33.2,156.1L-38.0,141.8L-42.2,129.9L-46.6,121.4L-52.0,116.8L-59.0,115.9L-68.3,118.3L-79.9,123.1L-93.8,129.1L-109.4,135.1L-125.8,139.7L-142.0,142.0L-156.8,141.2L-169.1,136.9L-177.8,129.2L-182.5,118.5L-182.7,105.5L-178.9,91.2L-171.8,76.5L-162.3,62.3L-151.8,49.3L-141.8,38.0L-133.6,28.4L-128.5,20.3L-127.1,13.4L-129.9,6.8L-136.6,0.0L-146.6,-7.7L-158.7,-16.7L-171.7,-27.2L-183.9,-39.1L-194.0,-52.0L-200.7,-65.2L-203.1,-78.0L-200.8,-89.4L-193.8,-98.8L-182.7,-105.5L-168.4,-109.4L-152.1,-110.5L-135.1,-109.4L-118.6,-106.8L-103.8,-103.8L-91.4,-101.5L-81.8,-101.1L-75.1,-103.4L-70.8,-109.1L-68.3,-118.3L-66.6,-130.8L-64.9,-145.8L-62.3,-162.3L-58.1,-178.8L-52.0,-194.0L-43.9,-206.4L-34.0,-214.9L-23.0,-218.6L-11.4,-217.3L-0.0,-211.0L10.5,-200.6L19.7,-187.0L27.2,-171.7L33.2,-156.1L38.0,-141.8L42.2,-129.9L46.6,-121.4L52.0,-116.8L59.0,-115.9L68.3,-118.3L79.9,-123.1L93.8,-129.1L109.4,-135.1L125.8,-139.7L142.0,-142.0L156.8,-141.2L169.1,-136.9L177.8,-129.2L182.5,-118.5L182.7,-105.5L178.9,-91.2L171.8,-76.5L162.3,-62.3L151.8,-49.3L141.8,-38.0L133.6,-28.4L128.5,-20.3L127.1,-13.4L129.9,-6.8L136.6,-0.0Z" fill="none" stroke="#ebe1ff" stroke-width="1" stroke-linecap="round" opacity="0.95"/>
<path d="M131.1,0.0L136.1,7.1L144.5,15.2L155.5,24.6L167.5,35.6L179.3,48.1L189.4,61.5L196.3,75.4L199.3,88.7L197.7,100.7L191.5,110.5L181.1,117.6L167.4,121.6L151.4,122.6L134.4,121.1L117.8,117.8L102.4,113.8L89.3,110.3L78.8,108.5L71.0,109.3L65.6,113.5L61.9,121.4L59.1,132.8L56.4,146.9L52.9,162.9L48.1,179.3L41.4,194.7L32.9,207.7L22.8,216.9L11.6,221.5L0.0,221.1L-11.3,215.6L-21.6,205.7L-30.5,192.4L-37.6,177.0L-43.1,160.9L-47.3,145.6L-50.9,132.5L-54.5,122.5L-59.2,116.1L-65.6,113.5L-74.2,114.3L-85.4,117.6L-99.0,122.3L-114.6,127.3L-131.3,131.3L-148.0,133.2L-163.4,132.3L-176.5,128.2L-186.1,120.8L-191.5,110.5L-192.4,98.0L-189.0,84.1L-181.9,69.8L-172.1,55.9L-160.9,43.1L-149.8,31.8L-140.2,22.2L-133.3,14.0L-130.2,6.8L-131.1,0.0L-136.1,-7.1L-144.5,-15.2L-155.5,-24.6L-167.5,-35.6L-179.3,-48.1L-189.4,-61.5L-196.3,-75.4L-199.3,-88.7L-197.7,-100.7L-191.5,-110.5L-181.1,-117.6L-167.4,-121.6L-151.4,-122.6L-134.4,-121.1L-117.8,-117.8L-102.4,-113.8L-89.3,-110.3L-78.8,-108.5L-71.0,-109.3L-65.6,-113.5L-61.9,-121.4L-59.1,-132.8L-56.4,-146.9L-52.9,-162.9L-48.1,-179.3L-41.4,-194.7L-32.9,-207.7L-22.8,-216.9L-11.6,-221.5L-0.0,-221.1L11.3,-215.6L21.6,-205.7L30.5,-192.4L37.6,-177.0L43.1,-160.9L47.3,-145.6L50.9,-132.5L54.5,-122.5L59.2,-116.1L65.6,-113.5L74.2,-114.3L85.4,-117.6L99.0,-122.3L114.6,-127.3L131.3,-131.3L148.0,-133.2L163.4,-132.3L176.5,-128.2L186.1,-120.8L191.5,-110.5L192.4,-98.0L189.0,-84.1L181.9,-69.8L172.1,-55.9L160.9,-43.1L149.8,-31.8L140.2,-22.2L133.3,-14.0L130.2,-6.8L131.1,-0.0Z" fill="none" stroke="#ffe1f4" stroke-width="1" stroke-linecap="round" opacity="0.95"/>
<path d="M133.4,0.0L132.5,6.9L135.6,14.3L142.4,22.6L152.0,32.3L163.1,43.7L174.2,56.6L184.0,70.6L191.1,85.1L194.5,99.1L193.5,111.7L188.0,122.1L178.3,129.6L165.2,133.8L149.7,134.8L132.9,132.9L116.2,129.0L100.5,124.1L86.8,119.4L75.5,116.2L66.7,115.5L60.2,118.2L55.5,124.6L51.7,134.6L48.0,147.8L43.7,163.1L38.1,179.2L30.8,194.7L21.9,208.0L11.4,217.9L0.0,223.4L-11.7,223.8L-23.0,219.2L-33.3,210.0L-41.9,197.0L-48.6,181.6L-53.6,165.1L-57.2,149.1L-60.0,134.9L-62.9,123.5L-66.7,115.5L-72.2,111.3L-80.2,110.3L-90.8,112.1L-104.0,115.5L-119.4,119.4L-136.2,122.6L-153.2,124.0L-169.2,123.0L-183.0,118.9L-193.5,111.7L-199.7,101.8L-201.4,89.7L-198.5,76.2L-191.5,62.2L-181.6,48.6L-169.8,36.1L-157.7,25.0L-146.8,15.4L-138.4,7.3L-133.4,0.0L-132.5,-6.9L-135.6,-14.3L-142.4,-22.6L-152.0,-32.3L-163.1,-43.7L-174.2,-56.6L-184.0,-70.6L-191.1,-85.1L-194.5,-99.1L-193.5,-111.7L-188.0,-122.1L-178.3,-129.6L-165.2,-133.8L-149.7,-134.8L-132.9,-132.9L-116.2,-129.0L-100.5,-124.1L-86.8,-119.4L-75.5,-116.2L-66.7,-115.5L-60.2,-118.2L-55.5,-124.6L-51.7,-134.6L-48.0,-147.8L-43.7,-163.1L-38.1,-179.2L-30.8,-194.7L-21.9,-208.0L-11.4,-217.9L-0.0,-223.4L11.7,-223.8L23.0,-219.2L33.3,-210.0L41.9,-197.0L48.6,-181.6L53.6,-165.1L57.2,-149.1L60.0,-134.9L62.9,-123.5L66.7,-115.5L72.2,-111.3L80.2,-110.3L90.8,-112.1L104.0,-115.5L119.4,-119.4L136.2,-122.6L153.2,-124.0L169.2,-123.0L183.0,-118.9L193.5,-111.7L199.7,-101.8L201.4,-89.7L198.5,-76.2L191.5,-62.2L181.6,-48.6L169.8,-36.1L157.7,-25.0L146.8,-15.4L138.4,-7.3L133.4,-0.0Z" fill="none" stroke="#ebe1ff" stroke-width="1" stroke-linecap="round" opacity="0.95"/>
<path d="M143.5,0.0L136.8,7.2L134.0,14.1L135.3,21.4L140.3,29.8L148.4,39.8L158.3,51.4L168.7,64.8L178.1,79.3L185.1,94.3L188.7,109.0L188.2,122.2L183.4,133.3L174.4,141.3L161.9,145.8L146.9,146.9L130.4,144.8L113.7,140.4L97.9,134.7L83.7,128.9L71.7,124.3L62.2,122.0L54.8,123.1L49.1,127.9L44.3,136.5L39.8,148.4L34.6,162.8L28.3,178.5L20.4,193.8L10.9,207.5L0.0,217.9L-11.7,224.1L-23.7,225.5L-35.1,221.7L-45.3,213.2L-53.8,200.7L-60.2,185.4L-64.8,168.7L-67.7,152.1L-69.8,136.9L-71.7,124.3L-74.6,114.9L-79.2,109.0L-86.2,106.4L-96.0,106.6L-108.7,108.7L-123.7,111.4L-140.4,113.7L-157.7,114.6L-174.2,113.1L-188.7,109.0L-200.0,101.9L-207.1,92.2L-209.5,80.4L-207.2,67.3L-200.7,53.8L-190.7,40.5L-178.5,28.3L-165.6,17.4L-153.5,8.0L-143.5,0.0L-136.8,-7.2L-134.0,-14.1L-135.3,-21.4L-140.3,-29.8L-148.4,-39.8L-158.3,-51.4L-168.7,-64.8L-178.1,-79.3L-185.1,-94.3L-188.7,-109.0L-188.2,-122.2L-183.4,-133.3L-174.4,-141.3L-161.9,-145.8L-146.9,-146.9L-130.4,-144.8L-113.7,-140.4L-97.9,-134.7L-83.7,-128.9L-71.7,-124.3L-62.2,-122.0L-54.8,-123.1L-49.1,-127.9L-44.3,-136.5L-39.8,-148.4L-34.6,-162.8L-28.3,-178.5L-20.4,-193.8L-10.9,-207.5L-0.0,-217.9L11.7,-224.1L23.7,-225.5L35.1,-221.7L45.3,-213.2L53.8,-200.7L60.2,-185.4L64.8,-168.7L67.7,-152.1L69.8,-136.9L71.7,-124.3L74.6,-114.9L79.2,-109.0L86.2,-106.4L96.0,-106.6L108.7,-108.7L123.7,-111.4L140.4,-113.7L157.7,-114.6L174.2,-113.1L188.7,-109.0L200.0,-101.9L207.1,-92.2L209.5,-80.4L207.2,-67.3L200.7,-53.8L190.7,-40.5L178.5,-28.3L165.6,-17.4L153.5,-8.0L143.5,-0.0Z" fill="none" stroke="#ffe1f4" stroke-width="1" stroke-linecap="round" opacity="0.95"/>
<path d="M160.0,0.0L148.6,7.8L140.2,14.7L135.6,21.5L135.0,28.7L138.3,37.1L144.8,47.0L153.4,58.9L162.8,72.5L171.6,87.4L178.4,103.0L182.1,118.3L182.0,132.3L177.8,144.0L169.4,152.6L157.6,157.6L143.0,158.9L126.9,156.8L110.4,151.9L94.5,145.5L80.0,138.6L67.6,132.6L57.3,128.8L49.2,128.1L42.6,131.3L37.1,138.3L31.6,148.9L25.7,162.3L18.6,177.2L10.1,192.3L0.0,206.0L-11.4,216.9L-23.5,223.8L-35.8,225.9L-47.4,223.0L-57.7,215.2L-66.1,203.3L-72.3,188.3L-76.4,171.6L-78.7,154.5L-80.0,138.6L-81.1,124.8L-82.9,114.1L-86.4,106.7L-92.3,102.6L-101.2,101.2L-113.1,101.9L-127.7,103.4L-144.2,104.7L-161.5,104.9L-178.4,103.0L-193.5,98.6L-205.6,91.5L-213.6,82.0L-216.8,70.5L-215.2,57.7L-209.1,44.4L-199.2,31.6L-186.8,19.6L-173.2,9.1L-160.0,0.0L-148.6,-7.8L-140.2,-14.7L-135.6,-21.5L-135.0,-28.7L-138.3,-37.1L-144.8,-47.0L-153.4,-58.9L-162.8,-72.5L-171.6,-87.4L-178.4,-103.0L-182.1,-118.3L-182.0,-132.3L-177.8,-144.0L-169.4,-152.6L-157.6,-157.6L-143.0,-158.9L-126.9,-156.8L-110.4,-151.9L-94.5,-145.5L-80.0,-138.6L-67.6,-132.6L-57.3,-128.8L-49.2,-128.1L-42.6,-131.3L-37.1,-138.3L-31.6,-148.9L-25.7,-162.3L-18.6,-177.2L-10.1,-192.3L-0.0,-206.0L11.4,-216.9L23.5,-223.8L35.8,-225.9L47.4,-223.0L57.7,-215.2L66.1,-203.3L72.3,-188.3L76.4,-171.6L78.7,-154.5L80.0,-138.6L81.1,-124.8L82.9,-114.1L86.4,-106.7L92.3,-102.6L101.2,-101.2L113.1,-101.9L127.7,-103.4L144.2,-104.7L161.5,-104.9L178.4,-103.0L193.5,-98.6L205.6,-91.5L213.6,-82.0L216.8,-70.5L215.2,-57.7L209.1,-44.4L199.2,-31.6L186.8,-19.6L173.2,-9.1L160.0,-0.0Z" fill="none" stroke="#ebe1ff" stroke-width="1" stroke-linecap="round" opacity="0.95"/>
<path d="M180.5,0.0L166.4,8.7L153.7,16.2L143.7,22.8L137.2,29.2L134.8,36.1L136.3,44.3L141.1,54.2L148.3,66.0L156.6,79.8L164.6,95.1L171.1,111.1L174.8,127.0L175.0,141.7L171.1,154.1L163.4,163.4L152.1,168.9L138.1,170.6L122.4,168.5L106.1,163.4L90.2,156.3L75.6,148.4L62.8,141.2L52.1,135.8L43.4,133.4L36.1,134.8L29.8,140.1L23.6,149.3L17.0,161.4L9.2,175.5L0.0,190.1L-10.7,203.7L-22.6,214.9L-35.2,222.4L-47.9,225.3L-59.8,223.2L-70.2,216.2L-78.7,204.9L-84.7,190.3L-88.5,173.6L-90.2,156.3L-90.7,139.7L-90.8,125.0L-91.5,113.0L-93.9,104.3L-98.7,98.7L-106.5,95.9L-117.4,95.1L-131.3,95.4L-147.4,95.7L-164.6,95.1L-181.8,92.6L-197.4,87.9L-210.2,80.7L-219.0,71.2L-223.2,59.8L-222.4,47.3L-216.8,34.3L-207.2,21.8L-194.6,10.2L-180.5,0.0L-166.4,-8.7L-153.7,-16.2L-143.7,-22.8L-137.2,-29.2L-134.8,-36.1L-136.3,-44.3L-141.1,-54.2L-148.3,-66.0L-156.6,-79.8L-164.6,-95.1L-171.1,-111.1L-174.8,-127.0L-175.0,-141.7L-171.1,-154.1L-163.4,-163.4L-152.1,-168.9L-138.1,-170.6L-122.4,-168.5L-106.1,-163.4L-90.2,-156.3L-75.6,-148.4L-62.8,-141.2L-52.1,-135.8L-43.4,-133.4L-36.1,-134.8L-29.8,-140.1L-23.6,-149.3L-17.0,-161.4L-9.2,-175.5L-0.0,-190.1L10.7,-203.7L22.6,-214.9L35.2,-222.4L47.9,-225.3L59.8,-223.2L70.2,-216.2L78.7,-204.9L84.7,-190.3L88.5,-173.6L90.2,-156.3L90.7,-139.7L90.8,-125.0L91.5,-113.0L93.9,-104.3L98.7,-98.7L106.5,-95.9L117.4,-95.1L131.3,-95.4L147.4,-95.7L164.6,-95.1L181.8,-92.6L197.4,-87.9L210.2,-80.7L219.0,-71.2L223.2,-59.8L222.4,-47.3L216.8,-34.3L207.2,-21.8L194.6,-10.2L180.5,-0.0Z" fill="none" stroke="#ffe1f4" stroke-width="1" stroke-linecap="round" opacity="0.95"/>
<path d="M201.8,0.0L187.3,9.8L172.4,18.1L158.6,25.1L147.1,31.3L138.9,37.2L134.7,43.8L134.3,51.6L137.4,61.2L143.1,72.9L150.2,86.7L157.3,102.2L163.3,118.6L166.8,135.1L167.1,150.4L163.6,163.6L156.3,173.6L145.6,179.8L132.1,181.9L116.9,180.0L100.9,174.8L85.2,167.2L70.5,158.4L57.5,149.9L46.5,143.0L37.2,138.9L29.4,138.5L22.5,142.1L15.7,149.6L8.4,160.3L0.0,173.4L-9.8,187.3L-21.1,200.7L-33.6,212.0L-46.7,219.9L-59.9,223.5L-72.2,222.2L-82.9,216.0L-91.4,205.4L-97.4,191.2L-100.9,174.8L-102.2,157.3L-101.9,140.3L-101.0,124.8L-100.6,111.8L-101.7,101.7L-105.2,94.7L-111.8,90.5L-121.7,88.4L-134.7,87.4L-150.2,86.7L-167.2,85.2L-184.4,82.1L-200.4,76.9L-213.8,69.5L-223.5,59.9L-228.5,48.6L-228.5,36.2L-223.6,23.5L-214.3,11.2L-201.8,0.0L-187.3,-9.8L-172.4,-18.1L-158.6,-25.1L-147.1,-31.3L-138.9,-37.2L-134.7,-43.8L-134.3,-51.6L-137.4,-61.2L-143.1,-72.9L-150.2,-86.7L-157.3,-102.2L-163.3,-118.6L-166.8,-135.1L-167.1,-150.4L-163.6,-163.6L-156.3,-173.6L-145.6,-179.8L-132.1,-181.9L-116.9,-180.0L-100.9,-174.8L-85.2,-167.2L-70.5,-158.4L-57.5,-149.9L-46.5,-143.0L-37.2,-138.9L-29.4,-138.5L-22.5,-142.1L-15.7,-149.6L-8.4,-160.3L-0.0,-173.4L9.8,-187.3L21.1,-200.7L33.6,-212.0L46.7,-219.9L59.9,-223.5L72.2,-222.2L82.9,-216.0L91.4,-205.4L97.4,-191.2L100.9,-174.8L102.2,-157.3L101.9,-140.3L101.0,-124.8L100.6,-111.8L101.7,-101.7L105.2,-94.7L111.8,-90.5L121.7,-88.4L134.7,-87.4L150.2,-86.7L167.2,-85.2L184.4,-82.1L200.4,-76.9L213.8,-69.5L223.5,-59.9L228.5,-48.6L228.5,-36.2L223.6,-23.5L214.3,-11.2L201.8,-0.0Z" fill="none" stroke="#ebe1ff" stroke-width="1" stroke-linecap="round" opacity="0.95"/>
</svg>