<svg xmlns="http://www.w3.org/2000/svg" viewBox="-250 -250 500 500">
<defs><filter id="tg"><feGaussianBlur stdDeviation="8.0"/></filter></defs>
<rect x="-250" y="-250" width="500" height="500" fill="#120a28"/>
<path d="M129.8,0.0L128.2,6.7L123.6,13.0L116.4,18.4L107.4,22.8L97.4,26.1L87.3,28.4L78.2,30.0L70.7,31.5L65.3,33.2L62.2,35.9L61.4,39.9L62.6,45.5L65.1,52.7L68.3,61.5L71.3,71.3L73.4,81.6L74.2,91.6L73.0,100.5L69.9,107.7L64.9,112.4L58.3,114.4L50.5,113.5L42.2,110.0L33.9,104.4L26.1,97.4L19.1,89.8L13.1,82.7L8.1,76.9L3.8,73.1L0.0,71.8L-3.8,73.1L-8.1,76.9L-13.1,82.7L-19.1,89.8L-26.1,97.4L-33.9,104.4L-42.2,110.0L-50.5,113.5L-58.3,114.4L-64.9,112.4L-69.9,107.7L-73.0,100.5L-74.2,91.6L-73.4,81.6L-71.3,71.3L-68.3,61.5L-65.1,52.7L-62.6,45.5L-61.4,39.9L-62.2,35.9L-65.3,33.2L-70.7,31.5L-78.2,30.0L-87.3,28.4L-97.4,26.1L-107.4,22.8L-116.4,18.4L-123.6,13.0L-128.2,6.7L-129.8,0.0L-128.2,-6.7L-123.6,-13.0L-116.4,-18.4L-107.4,-22.8L-97.4,-26.1L-87.3,-28.4L-78.2,-30.0L-70.7,-31.5L-65.3,-33.2L-62.2,-35.9L-61.4,-39.9L-62.6,-45.5L-65.1,-52.7L-68.3,-61.5L-71.3,-71.3L-73.4,-81.6L-74.2,-91.6L-73.0,-100.5L-69.9,-107.7L-64.9,-112.4L-58.3,-114.4L-50.5,-113.5L-42.2,-110.0L-33.9,-104.4L-26.1,-97.4L-19.1,-89.8L-13.1,-82.7L-8.1,-76.9L-3.8,-73.1L-0.0,-71.8L3.8,-73.1L8.1,-76.9L13.1,-82.7L19.1,-89.8L26.1,-97.4L33.9,-104.4L42.2,-110.0L50.5,-113.5L58.3,-114.4L64.9,-112.4L69.9,-107.7L73.0,-100.5L74.2,-91.6L73.4,-81.6L71.3,-71.3L68.3,-61.5L65.1,-52.7L62.6,-45.5L61.4,-39.9L62.2,-35.9L65.3,-33.2L70.7,-31.5L78.2,-30.0L87.3,-28.4L97.4,-26.1L107.4,-22.8L116.4,-18.4L123.6,-13.0L128.2,-6.7L129.8,-0.0Z" fill="none" stroke="#ebe1ff" stroke-width="3" stroke-linecap="round" opacity="0.20" filter="url(#tg)"/><path d="M129.8,0.0L128.2,6.7L123.6,13.0L116.4,18.4L107.4,22.8L97.4,26.1L87.3,28.4L78.2,30.0L70.7,31.5L65.3,33.2L62.2,35.9L61.4,39.9L62.6,45.5L65.1,52.7L68.3,61.5L71.3,71.3L73.4,81.6L74.2,91.6L73.0,100.5L69.9,107.7L64.9,112.4L58.3,114.4L50.5,113.5L42.2,110.0L33.9,104.4L26.1,97.4L19.1,89.8L13.1,82.7L8.1,76.9L3.8,73.1L0.0,71.8L-3.8,73.1L-8.1,76.9L-13.1,82.7L-19.1,89.8L-26.1,97.4L-33.9,104.4L-42.2,110.0L-50.5,113.5L-58.3,114.4L-64.9,112.4L-69.9,107.7L-73.0,100.5L-74.2,91.6L-73.4,81.6L-71.3,71.3L-68.3,61.5L-65.1,52.7L-62.6,45.5L-61.4,39.9L-62.2,35.9L-65.3,33.2L-70.7,31.5L-78.2,30.0L-87.3,28.4L-97.4,26.1L-107.4,22.8L-116.4,18.4L-123.6,13.0L-128.2,6.7L-129.8,0.0L-128.2,-6.7L-123.6,-13.0L-116.4,-18.4L-107.4,-22.8L-97.4,-26.1L-87.3,-28.4L-78.2,-30.0L-70.7,-31.5L-65.3,-33.2L-62.2,-35.9L-61.4,-39.9L-62.6,-45.5L-65.1,-52.7L-68.3,-61.5L-71.3,-71.3L-73.4,-81.6L-74.2,-91.6L-73.0,-100.5L-69.9,-107.7L-64.9,-112.4L-58.3,-114.4L-50.5,-113.5L-42.2,-110.0L-33.9,-104.4L-26.1,-97.4L-19.1,-89.8L-13.1,-82.7L-8.1,-76.9L-3.8,-73.1L-0.0,-71.8L3.8,-73.1L8.1,-76.9L13.1,-82.7L19.1,-89.8L26.1,-97.4L33.9,-104.4L42.2,-110.0L50.5,-113.5L58.3,-114.4L64.9,-112.4L69.9,-107.7L73.0,-100.5L74.2,-91.6L73.4,-81.6L71.3,-71.3L68.3,-61.5L65.1,-52.7L62.6,-45.5L61.4,-39.9L62.2,-35.9L65.3,-33.2L70.7,-31.5L78.2,-30.0L87.3,-28.4L97.4,-26.1L107.4,-22.8L116.4,-18.4L123.6,-13.0L128.2,-6.7L129.8,-0.0Z" fill="none" stroke="#ebe1ff" stroke-width="1" stroke-linecap="round" opacity="0.95"/><path d="M128.7,0.0L130.9,6.9L129.9,13.7L125.8,19.9L119.0,25.3L110.2,29.5L100.1,32.5L89.8,34.5L80.2,35.7L71.9,36.6L65.6,37.9L61.6,40.0L59.8,43.4L60.0,48.6L61.6,55.4L64.0,64.0L66.4,73.7L68.1,84.1L68.6,94.4L67.4,103.8L64.4,111.5L59.5,116.8L53.1,119.3L45.6,118.9L37.6,115.7L29.5,110.2L21.9,103.0L15.1,95.0L9.2,87.3L4.2,80.6L0.0,75.8L-3.8,73.3L-7.7,73.5L-12.1,76.2L-17.2,81.0L-23.4,87.4L-30.7,94.4L-38.8,101.1L-47.5,106.6L-56.2,110.3L-64.4,111.5L-71.4,109.9L-76.8,105.7L-80.1,99.0L-81.4,90.4L-80.6,80.6L-78.2,70.4L-74.8,60.6L-71.0,51.6L-67.7,44.0L-65.6,37.9L-65.4,33.3L-67.5,30.1L-72.0,27.6L-78.8,25.6L-87.4,23.4L-97.1,20.6L-106.9,16.9L-116.1,12.2L-123.6,6.5L-128.7,0.0L-130.9,-6.9L-129.9,-13.7L-125.8,-19.9L-119.0,-25.3L-110.2,-29.5L-100.1,-32.5L-89.8,-34.5L-80.2,-35.7L-71.9,-36.6L-65.6,-37.9L-61.6,-40.0L-59.8,-43.4L-60.0,-48.6L-61.6,-55.4L-64.0,-64.0L-66.4,-73.7L-68.1,-84.1L-68.6,-94.4L-67.4,-103.8L-64.4,-111.5L-59.5,-116.8L-53.1,-119.3L-45.6,-118.9L-37.6,-115.7L-29.5,-110.2L-21.9,-103.0L-15.1,-95.0L-9.2,-87.3L-4.2,-80.6L-0.0,-75.8L3.8,-73.3L7.7,-73.5L12.1,-76.2L17.2,-81.0L23.4,-87.4L30.7,-94.4L38.8,-101.1L47.5,-106.6L56.2,-110.3L64.4,-111.5L71.4,-109.9L76.8,-105.7L80.1,-99.0L81.4,-90.4L80.6,-80.6L78.2,-70.4L74.8,-60.6L71.0,-51.6L67.7,-44.0L65.6,-37.9L65.4,-33.3L67.5,-30.1L72.0,-27.6L78.8,-25.6L87.4,-23.4L97.1,-20.6L106.9,-16.9L116.1,-12.2L123.6,-6.5L128.7,-0.0Z" fill="none" stroke="#ffe1f4" stroke-width="3" stroke-linecap="round" opacity="0.20" filter="url(#tg)"/><path d="M128.7,0.0L130.9,6.9L129.9,13.7L125.8,19.9L119.0,25.3L110.2,29.5L100.1,32.5L89.8,34.5L80.2,35.7L71.9,36.6L65.6,37.9L61.6,40.0L59.8,43.4L60.0,48.6L61.6,55.4L64.0,64.0L66.4,73.7L68.1,84.1L68.6,94.4L67.4,103.8L64.4,111.5L59.5,116.8L53.1,119.3L45.6,118.9L37.6,115.7L29.5,110.2L21.9,103.0L15.1,95.0L9.2,87.3L4.2,80.6L0.0,75.8L-3.8,73.3L-7.7,73.5L-12.1,76.2L-17.2,81.0L-23.4,87.4L-30.7,94.4L-38.8,101.1L-47.5,106.6L-56.2,110.3L-64.4,111.5L-71.4,109.9L-76.8,105.7L-80.1,99.0L-81.4,90.4L-80.6,80.6L-78.2,70.4L-74.8,60.6L-71.0,51.6L-67.7,44.0L-65.6,37.9L-65.4,33.3L-67.5,30.1L-72.0,27.6L-78.8,25.6L-87.4,23.4L-97.1,20.6L-106.9,16.9L-116.1,12.2L-123.6,6.5L-128.7,0.0L-130.9,-6.9L-129.9,-13.7L-125.8,-19.9L-119.0,-25.3L-110.2,-29.5L-100.1,-32.5L-89.8,-34.5L-80.2,-35.7L-71.9,-36.6L-65.6,-37.9L-61.6,-40.0L-59.8,-43.4L-60.0,-48.6L-61.6,-55.4L-64.0,-64.0L-66.4,-73.7L-68.1,-84.1L-68.6,-94.4L-67.4,-103.8L-64.4,-111.5L-59.5,-116.8L-53.1,-119.3L-45.6,-118.9L-37.6,-115.7L-29.5,-110.2L-21.9,-103.0L-15.1,-95.0L-9.2,-87.3L-4.2,-80.6L-0.0,-75.8L3.8,-73.3L7.7,-73.5L12.1,-76.2L17.2,-81.0L23.4,-87.4L30.7,-94.4L38.8,-101.1L47.5,-106.6L56.2,-110.3L64.4,-111.5L71.4,-109.9L76.8,-105.7L80.1,-99.0L81.4,-90.4L80.6,-80.6L78.2,-70.4L74.8,-60.6L71.0,-51.6L67.7,-44.0L65.6,-37.9L65.4,-33.3L67.5,-30.1L72.0,-27.6L78.8,-25.6L87.4,-23.4L97.1,-20.6L106.9,-16.9L116.1,-12.2L123.6,-6.5L128.7,-0.0Z" fill="none" stroke="#ffe1f4" stroke-width="1" stroke-linecap="round" opacity="0.95"/><path d="M123.1,0.0L128.6,6.7L131.3,13.8L130.9,20.7L127.3,27.1L121.0,32.4L112.4,36.5L102.4,39.3L92.0,40.9L81.9,41.7L73.0,42.2L65.9,42.8L61.0,44.3L58.2,47.1L57.4,51.7L58.1,58.1L59.7,66.3L61.5,75.9L62.7,86.3L62.9,96.9L61.5,106.6L58.5,114.8L53.7,120.6L47.5,123.7L40.2,123.8L32.4,121.0L24.6,115.6L17.2,108.4L10.5,100.1L4.8,91.8L0.0,84.3L-4.1,78.5L-7.9,74.9L-11.7,74.0L-16.1,75.5L-21.3,79.4L-27.6,84.8L-35.0,91.2L-43.4,97.5L-52.4,102.9L-61.5,106.6L-70.1,108.0L-77.6,106.8L-83.4,103.0L-87.1,96.7L-88.6,88.6L-87.8,79.1L-85.3,69.1L-81.4,59.2L-77.1,50.1L-73.0,42.2L-70.0,35.7L-68.8,30.6L-69.9,26.8L-73.4,23.9L-79.4,21.3L-87.3,18.5L-96.5,15.3L-106.1,11.2L-115.3,6.0L-123.1,0.0L-128.6,-6.7L-131.3,-13.8L-130.9,-20.7L-127.3,-27.1L-121.0,-32.4L-112.4,-36.5L-102.4,-39.3L-92.0,-40.9L-81.9,-41.7L-73.0,-42.2L-65.9,-42.8L-61.0,-44.3L-58.2,-47.1L-57.4,-51.7L-58.1,-58.1L-59.7,-66.3L-61.5,-75.9L-62.7,-86.3L-62.9,-96.9L-61.5,-106.6L-58.5,-114.8L-53.7,-120.6L-47.5,-123.7L-40.2,-123.8L-32.4,-121.0L-24.6,-115.6L-17.2,-108.4L-10.5,-100.1L-4.8,-91.8L-0.0,-84.3L4.1,-78.5L7.9,-74.9L11.7,-74.0L16.1,-75.5L21.3,-79.4L27.6,-84.8L35.0,-91.2L43.4,-97.5L52.4,-102.9L61.5,-106.6L70.1,-108.0L77.6,-106.8L83.4,-103.0L87.1,-96.7L88.6,-88.6L87.8,-79.1L85.3,-69.1L81.4,-59.2L77.1,-50.1L73.0,-42.2L70.0,-35.7L68.8,-30.6L69.9,-26.8L73.4,-23.9L79.4,-21.3L87.3,-18.5L96.5,-15.3L106.1,-11.2L115.3,-6.0L123.1,-0.0Z" fill="none" stroke="#ebe1ff" stroke-width="3" stroke-linecap="round" opacity="0.20" filter="url(#tg)"/><path d="M123.1,0.0L128.6,6.7L131.3,13.8L130.9,20.7L127.3,27.1L121.0,32.4L112.4,36.5L102.4,39.3L92.0,40.9L81.9,41.7L73.0,42.2L65.9,42.8L61.0,44.3L58.2,47.1L57.4,51.7L58.1,58.1L59.7,66.3L61.5,75.9L62.7,86.3L62.9,96.9L61.5,106.6L58.5,114.8L53.7,120.6L47.5,123.7L40.2,123.8L32.4,121.0L24.6,115.6L17.2,108.4L10.5,100.1L4.8,91.8L0.0,84.3L-4.1,78.5L-7.9,74.9L-11.7,74.0L-16.1,75.5L-21.3,79.4L-27.6,84.8L-35.0,91.2L-43.4,97.5L-52.4,102.9L-61.5,106.6L-70.1,108.0L-77.6,106.8L-83.4,103.0L-87.1,96.7L-88.6,88.6L-87.8,79.1L-85.3,69.1L-81.4,59.2L-77.1,50.1L-73.0,42.2L-70.0,35.7L-68.8,30.6L-69.9,26.8L-73.4,23.9L-79.4,21.3L-87.3,18.5L-96.5,15.3L-106.1,11.2L-115.3,6.0L-123.1,0.0L-128.6,-6.7L-131.3,-13.8L-130.9,-20.7L-127.3,-27.1L-121.0,-32.4L-112.4,-36.5L-102.4,-39.3L-92.0,-40.9L-81.9,-41.7L-73.0,-42.2L-65.9,-42.8L-61.0,-44.3L-58.2,-47.1L-57.4,-51.7L-58.1,-58.1L-59.7,-66.3L-61.5,-75.9L-62.7,-86.3L-62.9,-96.9L-61.5,-106.6L-58.5,-114.8L-53.7,-120.6L-47.5,-123.7L-40.2,-123.8L-32.4,-121.0L-24.6,-115.6L-17.2,-108.4L-10.5,-100.1L-4.8,-91.8L-0.0,-84.3L4.1,-78.5L7.9,-74.9L11.7,-74.0L16.1,-75.5L21.3,-79.4L27.6,-84.8L35.0,-91.2L43.4,-97.5L52.4,-102.9L61.5,-106.6L70.1,-108.0L77.6,-106.8L83.4,-103.0L87.1,-96.7L88.6,-88.6L87.8,-79.1L85.3,-69.1L81.4,-59.2L77.1,-50.1L73.0,-42.2L70.0,-35.7L68.8,-30.6L69.9,-26.8L73.4,-23.9L79.4,-21.3L87.3,-18.5L96.5,-15.3L106.1,-11.2L115.3,-6.0L123.1,-0.0Z" fill="none" stroke="#ebe1ff" stroke-width="1" stroke-linecap="round" opacity="0.95"/><path d="M114.1,0.0L122.0,6.4L127.9,13.4L131.1,20.8L131.2,27.9L128.2,34.3L122.3,39.7L114.1,43.8L104.2,46.4L93.7,47.7L83.3,48.1L73.9,48.0L66.1,48.0L60.3,48.8L56.6,51.0L54.9,54.9L54.7,60.7L55.5,68.5L56.5,77.8L57.3,88.2L57.1,98.8L55.5,108.9L52.3,117.5L47.6,123.9L41.4,127.6L34.3,128.2L26.7,125.8L19.1,120.7L11.9,113.5L5.5,105.0L0.0,96.2L-4.6,88.0L-8.5,81.3L-12.1,76.6L-15.8,74.5L-20.1,74.9L-25.2,77.7L-31.6,82.3L-39.1,87.9L-47.7,93.7L-57.1,98.8L-66.5,102.5L-75.6,104.0L-83.5,103.1L-89.7,99.7L-93.8,93.8L-95.6,86.0L-95.0,76.9L-92.3,67.1L-88.2,57.3L-83.3,48.1L-78.5,40.0L-74.6,33.2L-72.4,27.8L-72.4,23.5L-74.9,20.1L-79.9,17.0L-87.0,13.8L-95.7,10.1L-105.0,5.5L-114.1,0.0L-122.0,-6.4L-127.9,-13.4L-131.1,-20.8L-131.2,-27.9L-128.2,-34.3L-122.3,-39.7L-114.1,-43.8L-104.2,-46.4L-93.7,-47.7L-83.3,-48.1L-73.9,-48.0L-66.1,-48.0L-60.3,-48.8L-56.6,-51.0L-54.9,-54.9L-54.7,-60.7L-55.5,-68.5L-56.5,-77.8L-57.3,-88.2L-57.1,-98.8L-55.5,-108.9L-52.3,-117.5L-47.6,-123.9L-41.4,-127.6L-34.3,-128.2L-26.7,-125.8L-19.1,-120.7L-11.9,-113.5L-5.5,-105.0L-0.0,-96.2L4.6,-88.0L8.5,-81.3L12.1,-76.6L15.8,-74.5L20.1,-74.9L25.2,-77.7L31.6,-82.3L39.1,-87.9L47.7,-93.7L57.1,-98.8L66.5,-102.5L75.6,-104.0L83.5,-103.1L89.7,-99.7L93.8,-93.8L95.6,-86.0L95.0,-76.9L92.3,-67.1L88.2,-57.3L83.3,-48.1L78.5,-40.0L74.6,-33.2L72.4,-27.8L72.4,-23.5L74.9,-20.1L79.9,-17.0L87.0,-13.8L95.7,-10.1L105.0,-5.5L114.1,-0.0Z" fill="none" stroke="#ffe1f4" stroke-width="3" stroke-linecap="round" opacity="0.20" filter="url(#tg)"/><path d="M114.1,0.0L122.0,6.4L127.9,13.4L131.1,20.8L131.2,27.9L128.2,34.3L122.3,39.7L114.1,43.8L104.2,46.4L93.7,47.7L83.3,48.1L73.9,48.0L66.1,48.0L60.3,48.8L56.6,51.0L54.9,54.9L54.7,60.7L55.5,68.5L56.5,77.8L57.3,88.2L57.1,98.8L55.5,108.9L52.3,117.5L47.6,123.9L41.4,127.6L34.3,128.2L26.7,125.8L19.1,120.7L11.9,113.5L5.5,105.0L0.0,96.2L-4.6,88.0L-8.5,81.3L-12.1,76.6L-15.8,74.5L-20.1,74.9L-25.2,77.7L-31.6,82.3L-39.1,87.9L-47.7,93.7L-57.1,98.8L-66.5,102.5L-75.6,104.0L-83.5,103.1L-89.7,99.7L-93.8,93.8L-95.6,86.0L-95.0,76.9L-92.3,67.1L-88.2,57.3L-83.3,48.1L-78.5,40.0L-74.6,33.2L-72.4,27.8L-72.4,23.5L-74.9,20.1L-79.9,17.0L-87.0,13.8L-95.7,10.1L-105.0,5.5L-114.1,0.0L-122.0,-6.4L-127.9,-13.4L-131.1,-20.8L-131.2,-27.9L-128.2,-34.3L-122.3,-39.7L-114.1,-43.8L-104.2,-46.4L-93.7,-47.7L-83.3,-48.1L-73.9,-48.0L-66.1,-48.0L-60.3,-48.8L-56.6,-51.0L-54.9,-54.9L-54.7,-60.7L-55.5,-68.5L-56.5,-77.8L-57.3,-88.2L-57.1,-98.8L-55.5,-108.9L-52.3,-117.5L-47.6,-123.9L-41.4,-127.6L-34.3,-128.2L-26.7,-125.8L-19.1,-120.7L-11.9,-113.5L-5.5,-105.0L-0.0,-96.2L4.6,-88.0L8.5,-81.3L12.1,-76.6L15.8,-74.5L20.1,-74.9L25.2,-77.7L31.6,-82.3L39.1,-87.9L47.7,-93.7L57.1,-98.8L66.5,-102.5L75.6,-104.0L83.5,-103.1L89.7,-99.7L93.8,-93.8L95.6,-86.0L95.0,-76.9L92.3,-67.1L88.2,-57.3L83.3,-48.1L78.5,-40.0L74.6,-33.2L72.4,-27.8L72.4,-23.5L74.9,-20.1L79.9,-17.0L87.0,-13.8L95.7,-10.1L105.0,-5.5L114.1,-0.0Z" fill="none" stroke="#ffe1f4" stroke-width="1" stroke-linecap="round" opacity="0.95"/><path d="M103.6,0.0L112.5,5.9L120.4,12.7L126.6,20.0L130.2,27.7L130.8,35.0L128.3,41.7L122.9,47.2L115.1,51.2L105.5,53.7L94.9,54.8L84.3,54.8L74.5,54.1L66.1,53.5L59.5,53.6L55.0,55.0L52.4,58.2L51.3,63.3L51.3,70.5L51.6,79.5L51.8,89.7L51.1,100.3L49.3,110.6L45.9,119.6L41.1,126.6L35.0,130.8L28.1,132.0L20.6,130.1L13.2,125.3L6.2,118.2L0.0,109.6L-5.3,100.4L-9.6,91.6L-13.3,84.0L-16.7,78.4L-20.1,75.1L-24.2,74.4L-29.2,76.1L-35.5,79.7L-43.0,84.5L-51.8,89.7L-61.3,94.5L-71.2,98.0L-80.6,99.6L-89.0,98.9L-95.8,95.8L-100.3,90.3L-102.3,82.9L-101.9,74.1L-99.3,64.5L-94.9,54.8L-89.6,45.7L-84.1,37.5L-79.4,30.5L-76.2,24.8L-75.1,20.1L-76.5,16.3L-80.5,12.7L-86.7,9.1L-94.7,5.0L-103.6,0.0L-112.5,-5.9L-120.4,-12.7L-126.6,-20.0L-130.2,-27.7L-130.8,-35.0L-128.3,-41.7L-122.9,-47.2L-115.1,-51.2L-105.5,-53.7L-94.9,-54.8L-84.3,-54.8L-74.5,-54.1L-66.1,-53.5L-59.5,-53.6L-55.0,-55.0L-52.4,-58.2L-51.3,-63.3L-51.3,-70.5L-51.6,-79.5L-51.8,-89.7L-51.1,-100.3L-49.3,-110.6L-45.9,-119.6L-41.1,-126.6L-35.0,-130.8L-28.1,-132.0L-20.6,-130.1L-13.2,-125.3L-6.2,-118.2L-0.0,-109.6L5.3,-100.4L9.6,-91.6L13.3,-84.0L16.7,-78.4L20.1,-75.1L24.2,-74.4L29.2,-76.1L35.5,-79.7L43.0,-84.5L51.8,-89.7L61.3,-94.5L71.2,-98.0L80.6,-99.6L89.0,-98.9L95.8,-95.8L100.3,-90.3L102.3,-82.9L101.9,-74.1L99.3,-64.5L94.9,-54.8L89.6,-45.7L84.1,-37.5L79.4,-30.5L76.2,-24.8L75.1,-20.1L76.5,-16.3L80.5,-12.7L86.7,-9.1L94.7,-5.0L103.6,-0.0Z" fill="none" stroke="#ebe1ff" stroke-width="3" stroke-linecap="round" opacity="0.20" filter="url(#tg)"/><path d="M103.6,0.0L112.5,5.9L120.4,12.7L126.6,20.0L130.2,27.7L130.8,35.0L128.3,41.7L122.9,47.2L115.1,51.2L105.5,53.7L94.9,54.8L84.3,54.8L74.5,54.1L66.1,53.5L59.5,53.6L55.0,55.0L52.4,58.2L51.3,63.3L51.3,70.5L51.6,79.5L51.8,89.7L51.1,100.3L49.3,110.6L45.9,119.6L41.1,126.6L35.0,130.8L28.1,132.0L20.6,130.1L13.2,125.3L6.2,118.2L0.0,109.6L-5.3,100.4L-9.6,91.6L-13.3,84.0L-16.7,78.4L-20.1,75.1L-24.2,74.4L-29.2,76.1L-35.5,79.7L-43.0,84.5L-51.8,89.7L-61.3,94.5L-71.2,98.0L-80.6,99.6L-89.0,98.9L-95.8,95.8L-100.3,90.3L-102.3,82.9L-101.9,74.1L-99.3,64.5L-94.9,54.8L-89.6,45.7L-84.1,37.5L-79.4,30.5L-76.2,24.8L-75.1,20.1L-76.5,16.3L-80.5,12.7L-86.7,9.1L-94.7,5.0L-103.6,0.0L-112.5,-5.9L-120.4,-12.7L-126.6,-20.0L-130.2,-27.7L-130.8,-35.0L-128.3,-41.7L-122.9,-47.2L-115.1,-51.2L-105.5,-53.7L-94.9,-54.8L-84.3,-54.8L-74.5,-54.1L-66.1,-53.5L-59.5,-53.6L-55.0,-55.0L-52.4,-58.2L-51.3,-63.3L-51.3,-70.5L-51.6,-79.5L-51.8,-89.7L-51.1,-100.3L-49.3,-110.6L-45.9,-119.6L-41.1,-126.6L-35.0,-130.8L-28.1,-132.0L-20.6,-130.1L-13.2,-125.3L-6.2,-118.2L-0.0,-109.6L5.3,-100.4L9.6,-91.6L13.3,-84.0L16.7,-78.4L20.1,-75.1L24.2,-74.4L29.2,-76.1L35.5,-79.7L43.0,-84.5L51.8,-89.7L61.3,-94.5L71.2,-98.0L80.6,-99.6L89.0,-98.9L95.8,-95.8L100.3,-90.3L102.3,-82.9L101.9,-74.1L99.3,-64.5L94.9,-54.8L89.6,-45.7L84.1,-37.5L79.4,-30.5L76.2,-24.8L75.1,-20.1L76.5,-16.3L80.5,-12.7L86.7,-9.1L94.7,-5.0L103.6,-0.0Z" fill="none" stroke="#ebe1ff" stroke-width="1" stroke-linecap="round" opacity="0.95"/><path d="M93.6,0.0L101.9,5.3L110.5,11.6L118.4,18.7L124.7,26.5L128.6,34.5L129.7,42.1L127.8,49.0L122.9,54.7L115.5,58.8L106.1,61.3L95.7,62.1L85.0,61.7L74.8,60.6L65.9,59.3L58.7,58.7L53.3,59.2L49.9,61.6L47.9,66.0L47.1,72.6L46.8,81.0L46.3,90.9L45.2,101.5L42.9,111.9L39.4,121.2L34.5,128.6L28.4,133.4L21.4,135.2L14.1,133.8L6.8,129.4L0.0,122.5L-6.0,113.9L-11.0,104.4L-15.1,95.1L-18.4,86.7L-21.5,80.1L-24.6,75.8L-28.4,74.0L-33.2,74.5L-39.3,77.1L-46.8,81.0L-55.6,85.6L-65.3,89.9L-75.4,93.1L-85.3,94.7L-94.1,94.1L-101.4,91.3L-106.4,86.1L-108.8,79.1L-108.7,70.6L-106.1,61.3L-101.6,51.8L-95.9,42.7L-89.9,34.5L-84.3,27.4L-80.1,21.5L-78.0,16.6L-78.2,12.4L-81.1,8.5L-86.4,4.5L-93.6,0.0L-101.9,-5.3L-110.5,-11.6L-118.4,-18.7L-124.7,-26.5L-128.6,-34.5L-129.7,-42.1L-127.8,-49.0L-122.9,-54.7L-115.5,-58.8L-106.1,-61.3L-95.7,-62.1L-85.0,-61.7L-74.8,-60.6L-65.9,-59.3L-58.7,-58.7L-53.3,-59.2L-49.9,-61.6L-47.9,-66.0L-47.1,-72.6L-46.8,-81.0L-46.3,-90.9L-45.2,-101.5L-42.9,-111.9L-39.4,-121.2L-34.5,-128.6L-28.4,-133.4L-21.4,-135.2L-14.1,-133.8L-6.8,-129.4L-0.0,-122.5L6.0,-113.9L11.0,-104.4L15.1,-95.1L18.4,-86.7L21.5,-80.1L24.6,-75.8L28.4,-74.0L33.2,-74.5L39.3,-77.1L46.8,-81.0L55.6,-85.6L65.3,-89.9L75.4,-93.1L85.3,-94.7L94.1,-94.1L101.4,-91.3L106.4,-86.1L108.8,-79.1L108.7,-70.6L106.1,-61.3L101.6,-51.8L95.9,-42.7L89.9,-34.5L84.3,-27.4L80.1,-21.5L78.0,-16.6L78.2,-12.4L81.1,-8.5L86.4,-4.5L93.6,-0.0Z" fill="none" stroke="#ffe1f4" stroke-width="3" stroke-linecap="round" opacity="0.20" filter="url(#tg)"/><path d="M93.6,0.0L101.9,5.3L110.5,11.6L118.4,18.7L124.7,26.5L128.6,34.5L129.7,42.1L127.8,49.0L122.9,54.7L115.5,58.8L106.1,61.3L95.7,62.1L85.0,61.7L74.8,60.6L65.9,59.3L58.7,58.7L53.3,59.2L49.9,61.6L47.9,66.0L47.1,72.6L46.8,81.0L46.3,90.9L45.2,101.5L42.9,111.9L39.4,121.2L34.5,128.6L28.4,133.4L21.4,135.2L14.1,133.8L6.8,129.4L0.0,122.5L-6.0,113.9L-11.0,104.4L-15.1,95.1L-18.4,86.7L-21.5,80.1L-24.6,75.8L-28.4,74.0L-33.2,74.5L-39.3,77.1L-46.8,81.0L-55.6,85.6L-65.3,89.9L-75.4,93.1L-85.3,94.7L-94.1,94.1L-101.4,91.3L-106.4,86.1L-108.8,79.1L-108.7,70.6L-106.1,61.3L-101.6,51.8L-95.9,42.7L-89.9,34.5L-84.3,27.4L-80.1,21.5L-78.0,16.6L-78.2,12.4L-81.1,8.5L-86.4,4.5L-93.6,0.0L-101.9,-5.3L-110.5,-11.6L-118.4,-18.7L-124.7,-26.5L-128.6,-34.5L-129.7,-42.1L-127.8,-49.0L-122.9,-54.7L-115.5,-58.8L-106.1,-61.3L-95.7,-62.1L-85.0,-61.7L-74.8,-60.6L-65.9,-59.3L-58.7,-58.7L-53.3,-59.2L-49.9,-61.6L-47.9,-66.0L-47.1,-72.6L-46.8,-81.0L-46.3,-90.9L-45.2,-101.5L-42.9,-111.9L-39.4,-121.2L-34.5,-128.6L-28.4,-133.4L-21.4,-135.2L-14.1,-133.8L-6.8,-129.4L-0.0,-122.5L6.0,-113.9L11.0,-104.4L15.1,-95.1L18.4,-86.7L21.5,-80.1L24.6,-75.8L28.4,-74.0L33.2,-74.5L39.3,-77.1L46.8,-81.0L55.6,-85.6L65.3,-89.9L75.4,-93.1L85.3,-94.7L94.1,-94.1L101.4,-91.3L106.4,-86.1L108.8,-79.1L108.7,-70.6L106.1,-61.3L101.6,-51.8L95.9,-42.7L89.9,-34.5L84.3,-27.4L80.1,-21.5L78.0,-16.6L78.2,-12.4L81.1,-8.5L86.4,-4.5L93.6,-0.0Z" fill="none" stroke="#ffe1f4" stroke-width="1" stroke-linecap="round" opacity="0.95"/><path d="M86.0,0.0L92.3,4.8L100.0,10.5L108.1,17.1L115.9,24.6L122.2,32.7L126.4,41.1L128.0,49.1L126.5,56.3L122.1,62.2L115.1,66.5L106.1,68.9L95.8,69.6L85.1,68.9L74.7,67.3L65.4,65.4L57.6,63.9L51.6,63.7L47.3,65.1L44.6,68.7L43.0,74.5L42.0,82.4L40.9,91.8L39.2,102.2L36.6,112.7L32.7,122.2L27.6,130.0L21.4,135.4L14.5,137.7L7.2,136.9L0.0,132.9L-6.6,126.4L-12.4,117.8L-17.1,108.1L-20.9,98.3L-23.9,89.3L-26.6,81.8L-29.4,76.5L-32.7,73.6L-37.2,73.0L-43.0,74.5L-50.4,77.5L-59.1,81.3L-68.9,85.1L-79.3,88.0L-89.5,89.5L-98.8,89.0L-106.5,86.3L-112.0,81.4L-114.9,74.6L-115.1,66.5L-112.7,57.4L-108.2,48.2L-102.2,39.2L-95.6,31.1L-89.3,23.9L-84.2,17.9L-80.9,12.8L-80.1,8.4L-81.8,4.3L-86.0,0.0L-92.3,-4.8L-100.0,-10.5L-108.1,-17.1L-115.9,-24.6L-122.2,-32.7L-126.4,-41.1L-128.0,-49.1L-126.5,-56.3L-122.1,-62.2L-115.1,-66.5L-106.1,-68.9L-95.8,-69.6L-85.1,-68.9L-74.7,-67.3L-65.4,-65.4L-57.6,-63.9L-51.6,-63.7L-47.3,-65.1L-44.6,-68.7L-43.0,-74.5L-42.0,-82.4L-40.9,-91.8L-39.2,-102.2L-36.6,-112.7L-32.7,-122.2L-27.6,-130.0L-21.4,-135.4L-14.5,-137.7L-7.2,-136.9L-0.0,-132.9L6.6,-126.4L12.4,-117.8L17.1,-108.1L20.9,-98.3L23.9,-89.3L26.6,-81.8L29.4,-76.5L32.7,-73.6L37.2,-73.0L43.0,-74.5L50.4,-77.5L59.1,-81.3L68.9,-85.1L79.3,-88.0L89.5,-89.5L98.8,-89.0L106.5,-86.3L112.0,-81.4L114.9,-74.6L115.1,-66.5L112.7,-57.4L108.2,-48.2L102.2,-39.2L95.6,-31.1L89.3,-23.9L84.2,-17.9L80.9,-12.8L80.1,-8.4L81.8,-4.3L86.0,-0.0Z" fill="none" stroke="#ebe1ff" stroke-width="3" stroke-linecap="round" opacity="0.20" filter="url(#tg)"/><path d="M86.0,0.0L92.3,4.8L100.0,10.5L108.1,17.1L115.9,24.6L122.2,32.7L126.4,41.1L128.0,49.1L126.5,56.3L122.1,62.2L115.1,66.5L106.1,68.9L95.8,69.6L85.1,68.9L74.7,67.3L65.4,65.4L57.6,63.9L51.6,63.7L47.3,65.1L44.6,68.7L43.0,74.5L42.0,82.4L40.9,91.8L39.2,102.2L36.6,112.7L32.7,122.2L27.6,130.0L21.4,135.4L14.5,137.7L7.2,136.9L0.0,132.9L-6.6,126.4L-12.4,117.8L-17.1,108.1L-20.9,98.3L-23.9,89.3L-26.6,81.8L-29.4,76.5L-32.7,73.6L-37.2,73.0L-43.0,74.5L-50.4,77.5L-59.1,81.3L-68.9,85.1L-79.3,88.0L-89.5,89.5L-98.8,89.0L-106.5,86.3L-112.0,81.4L-114.9,74.6L-115.1,66.5L-112.7,57.4L-108.2,48.2L-102.2,39.2L-95.6,31.1L-89.3,23.9L-84.2,17.9L-80.9,12.8L-80.1,8.4L-81.8,4.3L-86.0,0.0L-92.3,-4.8L-100.0,-10.5L-108.1,-17.1L-115.9,-24.6L-122.2,-32.7L-126.4,-41.1L-128.0,-49.1L-126.5,-56.3L-122.1,-62.2L-115.1,-66.5L-106.1,-68.9L-95.8,-69.6L-85.1,-68.9L-74.7,-67.3L-65.4,-65.4L-57.6,-63.9L-51.6,-63.7L-47.3,-65.1L-44.6,-68.7L-43.0,-74.5L-42.0,-82.4L-40.9,-91.8L-39.2,-102.2L-36.6,-112.7L-32.7,-122.2L-27.6,-130.0L-21.4,-135.4L-14.5,-137.7L-7.2,-136.9L-0.0,-132.9L6.6,-126.4L12.4,-117.8L17.1,-108.1L20.9,-98.3L23.9,-89.3L26.6,-81.8L29.4,-76.5L32.7,-73.6L37.2,-73.0L43.0,-74.5L50.4,-77.5L59.1,-81.3L68.9,-85.1L79.3,-88.0L89.5,-89.5L98.8,-89.0L106.5,-86.3L112.0,-81.4L114.9,-74.6L115.1,-66.5L112.7,-57.4L108.2,-48.2L102.2,-39.2L95.6,-31.1L89.3,-23.9L84.2,-17.9L80.9,-12.8L80.1,-8.4L81.8,-4.3L86.0,-0.0Z" fill="none" stroke="#ebe1ff" stroke-width="1" stroke-linecap="round" opacity="0.95"/><path d="M82.6,0.0L85.7,4.5L91.1,9.6L97.9,15.5L105.6,22.4L113.0,30.3L119.3,38.8L123.7,47.5L125.5,55.9L124.5,63.5L120.6,69.6L114.1,74.1L105.4,76.6L95.4,77.2L84.7,76.3L74.2,74.2L64.5,71.7L56.3,69.5L49.6,68.3L44.7,68.9L41.3,71.5L39.0,76.5L37.2,83.6L35.5,92.6L33.3,102.6L30.3,113.0L26.1,122.7L20.7,130.8L14.4,136.7L7.3,139.6L0.0,139.3L-7.1,135.9L-13.6,129.6L-19.2,121.2L-23.7,111.5L-27.2,101.3L-29.8,91.7L-32.0,83.5L-34.4,77.2L-37.3,73.2L-41.3,71.5L-46.8,72.0L-53.8,74.1L-62.4,77.1L-72.2,80.2L-82.7,82.7L-93.2,83.9L-103.0,83.4L-111.2,80.8L-117.2,76.1L-120.6,69.6L-121.2,61.8L-119.1,53.0L-114.6,44.0L-108.4,35.2L-101.3,27.2L-94.3,20.1L-88.3,14.0L-84.0,8.8L-82.0,4.3L-82.6,0.0L-85.7,-4.5L-91.1,-9.6L-97.9,-15.5L-105.6,-22.4L-113.0,-30.3L-119.3,-38.8L-123.7,-47.5L-125.5,-55.9L-124.5,-63.5L-120.6,-69.6L-114.1,-74.1L-105.4,-76.6L-95.4,-77.2L-84.7,-76.3L-74.2,-74.2L-64.5,-71.7L-56.3,-69.5L-49.6,-68.3L-44.7,-68.9L-41.3,-71.5L-39.0,-76.5L-37.2,-83.6L-35.5,-92.6L-33.3,-102.6L-30.3,-113.0L-26.1,-122.7L-20.7,-130.8L-14.4,-136.7L-7.3,-139.6L-0.0,-139.3L7.1,-135.9L13.6,-129.6L19.2,-121.2L23.7,-111.5L27.2,-101.3L29.8,-91.7L32.0,-83.5L34.4,-77.2L37.3,-73.2L41.3,-71.5L46.8,-72.0L53.8,-74.1L62.4,-77.1L72.2,-80.2L82.7,-82.7L93.2,-83.9L103.0,-83.4L111.2,-80.8L117.2,-76.1L120.6,-69.6L121.2,-61.8L119.1,-53.0L114.6,-44.0L108.4,-35.2L101.3,-27.2L94.3,-20.1L88.3,-14.0L84.0,-8.8L82.0,-4.3L82.6,-0.0Z" fill="none" stroke="#ffe1f4" stroke-width="3" stroke-linecap="round" opacity="0.20" filter="url(#tg)"/><path d="M82.6,0.0L85.7,4.5L91.1,9.6L97.9,15.5L105.6,22.4L113.0,30.3L119.3,38.8L123.7,47.5L125.5,55.9L124.5,63.5L120.6,69.6L114.1,74.1L105.4,76.6L95.4,77.2L84.7,76.3L74.2,74.2L64.5,71.7L56.3,69.5L49.6,68.3L44.7,68.9L41.3,71.5L39.0,76.5L37.2,83.6L35.5,92.6L33.3,102.6L30.3,113.0L26.1,122.7L20.7,130.8L14.4,136.7L7.3,139.6L0.0,139.3L-7.1,135.9L-13.6,129.6L-19.2,121.2L-23.7,111.5L-27.2,101.3L-29.8,91.7L-32.0,83.5L-34.4,77.2L-37.3,73.2L-41.3,71.5L-46.8,72.0L-53.8,74.1L-62.4,77.1L-72.2,80.2L-82.7,82.7L-93.2,83.9L-103.0,83.4L-111.2,80.8L-117.2,76.1L-120.6,69.6L-121.2,61.8L-119.1,53.0L-114.6,44.0L-108.4,35.2L-101.3,27.2L-94.3,20.1L-88.3,14.0L-84.0,8.8L-82.0,4.3L-82.6,0.0L-85.7,-4.5L-91.1,-9.6L-97.9,-15.5L-105.6,-22.4L-113.0,-30.3L-119.3,-38.8L-123.7,-47.5L-125.5,-55.9L-124.5,-63.5L-120.6,-69.6L-114.1,-74.1L-105.4,-76.6L-95.4,-77.2L-84.7,-76.3L-74.2,-74.2L-64.5,-71.7L-56.3,-69.5L-49.6,-68.3L-44.7,-68.9L-41.3,-71.5L-39.0,-76.5L-37.2,-83.6L-35.5,-92.6L-33.3,-102.6L-30.3,-113.0L-26.1,-122.7L-20.7,-130.8L-14.4,-136.7L-7.3,-139.6L-0.0,-139.3L7.1,-135.9L13.6,-129.6L19.2,-121.2L23.7,-111.5L27.2,-101.3L29.8,-91.7L32.0,-83.5L34.4,-77.2L37.3,-73.2L41.3,-71.5L46.8,-72.0L53.8,-74.1L62.4,-77.1L72.2,-80.2L82.7,-82.7L93.2,-83.9L103.0,-83.4L111.2,-80.8L117.2,-76.1L120.6,-69.6L121.2,-61.8L119.1,-53.0L114.6,-44.0L108.4,-35.2L101.3,-27.2L94.3,-20.1L88.3,-14.0L84.0,-8.8L82.0,-4.3L82.6,-0.0Z" fill="none" stroke="#ffe1f4" stroke-width="1" stroke-linecap="round" opacity="0.95"/><path d="M84.0,0.0L83.5,4.4L85.4,9.0L89.7,14.2L95.8,20.4L102.7,27.5L109.8,35.7L115.9,44.5L120.4,53.6L122.5,62.4L121.9,70.4L118.4,76.9L112.3,81.6L104.1,84.3L94.3,84.9L83.7,83.7L73.2,81.3L63.3,78.2L54.7,75.2L47.5,73.2L42.0,72.8L37.9,74.5L34.9,78.5L32.6,84.8L30.3,93.1L27.5,102.7L24.0,112.9L19.4,122.7L13.8,131.1L7.2,137.3L0.0,140.7L-7.4,141.0L-14.5,138.1L-21.0,132.3L-26.4,124.1L-30.6,114.4L-33.8,104.0L-36.1,93.9L-37.8,85.0L-39.6,77.8L-42.0,72.8L-45.5,70.1L-50.5,69.5L-57.2,70.6L-65.5,72.8L-75.2,75.2L-85.8,77.2L-96.5,78.1L-106.6,77.5L-115.3,74.9L-121.9,70.4L-125.8,64.1L-126.9,56.5L-125.0,48.0L-120.7,39.2L-114.4,30.6L-107.0,22.7L-99.4,15.7L-92.5,9.7L-87.2,4.6L-84.0,0.0L-83.5,-4.4L-85.4,-9.0L-89.7,-14.2L-95.8,-20.4L-102.7,-27.5L-109.8,-35.7L-115.9,-44.5L-120.4,-53.6L-122.5,-62.4L-121.9,-70.4L-118.4,-76.9L-112.3,-81.6L-104.1,-84.3L-94.3,-84.9L-83.7,-83.7L-73.2,-81.3L-63.3,-78.2L-54.7,-75.2L-47.5,-73.2L-42.0,-72.8L-37.9,-74.5L-34.9,-78.5L-32.6,-84.8L-30.3,-93.1L-27.5,-102.7L-24.0,-112.9L-19.4,-122.7L-13.8,-131.1L-7.2,-137.3L-0.0,-140.7L7.4,-141.0L14.5,-138.1L21.0,-132.3L26.4,-124.1L30.6,-114.4L33.8,-104.0L36.1,-93.9L37.8,-85.0L39.6,-77.8L42.0,-72.8L45.5,-70.1L50.5,-69.5L57.2,-70.6L65.5,-72.8L75.2,-75.2L85.8,-77.2L96.5,-78.1L106.6,-77.5L115.3,-74.9L121.9,-70.4L125.8,-64.1L126.9,-56.5L125.0,-48.0L120.7,-39.2L114.4,-30.6L107.0,-22.7L99.4,-15.7L92.5,-9.7L87.2,-4.6L84.0,-0.0Z" fill="none" stroke="#ebe1ff" stroke-width="3" stroke-linecap="round" opacity="0.20" filter="url(#tg)"/><path d="M84.0,0.0L83.5,4.4L85.4,9.0L89.7,14.2L95.8,20.4L102.7,27.5L109.8,35.7L115.9,44.5L120.4,53.6L122.5,62.4L121.9,70.4L118.4,76.9L112.3,81.6L104.1,84.3L94.3,84.9L83.7,83.7L73.2,81.3L63.3,78.2L54.7,75.2L47.5,73.2L42.0,72.8L37.9,74.5L34.9,78.5L32.6,84.8L30.3,93.1L27.5,102.7L24.0,112.9L19.4,122.7L13.8,131.1L7.2,137.3L0.0,140.7L-7.4,141.0L-14.5,138.1L-21.0,132.3L-26.4,124.1L-30.6,114.4L-33.8,104.0L-36.1,93.9L-37.8,85.0L-39.6,77.8L-42.0,72.8L-45.5,70.1L-50.5,69.5L-57.2,70.6L-65.5,72.8L-75.2,75.2L-85.8,77.2L-96.5,78.1L-106.6,77.5L-115.3,74.9L-121.9,70.4L-125.8,64.1L-126.9,56.5L-125.0,48.0L-120.7,39.2L-114.4,30.6L-107.0,22.7L-99.4,15.7L-92.5,9.7L-87.2,4.6L-84.0,0.0L-83.5,-4.4L-85.4,-9.0L-89.7,-14.2L-95.8,-20.4L-102.7,-27.5L-109.8,-35.7L-115.9,-44.5L-120.4,-53.6L-122.5,-62.4L-121.9,-70.4L-118.4,-76.9L-112.3,-81.6L-104.1,-84.3L-94.3,-84.9L-83.7,-83.7L-73.2,-81.3L-63.3,-78.2L-54.7,-75.2L-47.5,-73.2L-42.0,-72.8L-37.9,-74.5L-34.9,-78.5L-32.6,-84.8L-30.3,-93.1L-27.5,-102.7L-24.0,-112.9L-19.4,-122.7L-13.8,-131.1L-7.2,-137.3L-0.0,-140.7L7.4,-141.0L14.5,-138.1L21.0,-132.3L26.4,-124.1L30.6,-114.4L33.8,-104.0L36.1,-93.9L37.8,-85.0L39.6,-77.8L42.0,-72.8L45.5,-70.1L50.5,-69.5L57.2,-70.6L65.5,-72.8L75.2,-75.2L85.8,-77.2L96.5,-78.1L106.6,-77.5L115.3,-74.9L121.9,-70.4L125.8,-64.1L126.9,-56.5L125.0,-48.0L120.7,-39.2L114.4,-30.6L107.0,-22.7L99.4,-15.7L92.5,-9.7L87.2,-4.6L84.0,-0.0Z" fill="none" stroke="#ebe1ff" stroke-width="1" stroke-linecap="round" opacity="0.95"/><path d="M90.4,0.0L86.2,4.5L84.4,8.9L85.2,13.5L88.4,18.8L93.5,25.1L99.8,32.4L106.3,40.8L112.2,49.9L116.6,59.4L118.9,68.6L118.6,77.0L115.5,83.9L109.9,89.0L102.0,91.9L92.5,92.5L82.2,91.3L71.6,88.5L61.7,84.9L52.7,81.2L45.2,78.3L39.2,76.9L34.5,77.5L30.9,80.5L27.9,86.0L25.1,93.5L21.8,102.6L17.8,112.4L12.8,122.1L6.8,130.7L0.0,137.3L-7.4,141.2L-14.9,142.0L-22.1,139.7L-28.5,134.3L-33.9,126.4L-37.9,116.8L-40.8,106.3L-42.7,95.8L-43.9,86.3L-45.2,78.3L-47.0,72.4L-49.9,68.7L-54.3,67.1L-60.5,67.2L-68.5,68.5L-77.9,70.2L-88.5,71.6L-99.3,72.2L-109.8,71.3L-118.9,68.6L-126.0,64.2L-130.5,58.1L-132.0,50.7L-130.6,42.4L-126.4,33.9L-120.1,25.5L-112.4,17.8L-104.3,11.0L-96.7,5.1L-90.4,0.0L-86.2,-4.5L-84.4,-8.9L-85.2,-13.5L-88.4,-18.8L-93.5,-25.1L-99.8,-32.4L-106.3,-40.8L-112.2,-49.9L-116.6,-59.4L-118.9,-68.6L-118.6,-77.0L-115.5,-83.9L-109.9,-89.0L-102.0,-91.9L-92.5,-92.5L-82.2,-91.3L-71.6,-88.5L-61.7,-84.9L-52.7,-81.2L-45.2,-78.3L-39.2,-76.9L-34.5,-77.5L-30.9,-80.5L-27.9,-86.0L-25.1,-93.5L-21.8,-102.6L-17.8,-112.4L-12.8,-122.1L-6.8,-130.7L-0.0,-137.3L7.4,-141.2L14.9,-142.0L22.1,-139.7L28.5,-134.3L33.9,-126.4L37.9,-116.8L40.8,-106.3L42.7,-95.8L43.9,-86.3L45.2,-78.3L47.0,-72.4L49.9,-68.7L54.3,-67.1L60.5,-67.2L68.5,-68.5L77.9,-70.2L88.5,-71.6L99.3,-72.2L109.8,-71.3L118.9,-68.6L126.0,-64.2L130.5,-58.1L132.0,-50.7L130.6,-42.4L126.4,-33.9L120.1,-25.5L112.4,-17.8L104.3,-11.0L96.7,-5.1L90.4,-0.0Z" fill="none" stroke="#ffe1f4" stroke-width="3" stroke-linecap="round" opacity="0.20" filter="url(#tg)"/><path d="M90.4,0.0L86.2,4.5L84.4,8.9L85.2,13.5L88.4,18.8L93.5,25.1L99.8,32.4L106.3,40.8L112.2,49.9L116.6,59.4L118.9,68.6L118.6,77.0L115.5,83.9L109.9,89.0L102.0,91.9L92.5,92.5L82.2,91.3L71.6,88.5L61.7,84.9L52.7,81.2L45.2,78.3L39.2,76.9L34.5,77.5L30.9,80.5L27.9,86.0L25.1,93.5L21.8,102.6L17.8,112.4L12.8,122.1L6.8,130.7L0.0,137.3L-7.4,141.2L-14.9,142.0L-22.1,139.7L-28.5,134.3L-33.9,126.4L-37.9,116.8L-40.8,106.3L-42.7,95.8L-43.9,86.3L-45.2,78.3L-47.0,72.4L-49.9,68.7L-54.3,67.1L-60.5,67.2L-68.5,68.5L-77.9,70.2L-88.5,71.6L-99.3,72.2L-109.8,71.3L-118.9,68.6L-126.0,64.2L-130.5,58.1L-132.0,50.7L-130.6,42.4L-126.4,33.9L-120.1,25.5L-112.4,17.8L-104.3,11.0L-96.7,5.1L-90.4,0.0L-86.2,-4.5L-84.4,-8.9L-85.2,-13.5L-88.4,-18.8L-93.5,-25.1L-99.8,-32.4L-106.3,-40.8L-112.2,-49.9L-116.6,-59.4L-118.9,-68.6L-118.6,-77.0L-115.5,-83.9L-109.9,-89.0L-102.0,-91.9L-92.5,-92.5L-82.2,-91.3L-71.6,-88.5L-61.7,-84.9L-52.7,-81.2L-45.2,-78.3L-39.2,-76.9L-34.5,-77.5L-30.9,-80.5L-27.9,-86.0L-25.1,-93.5L-21.8,-102.6L-17.8,-112.4L-12.8,-122.1L-6.8,-130.7L-0.0,-137.3L7.4,-141.2L14.9,-142.0L22.1,-139.7L28.5,-134.3L33.9,-126.4L37.9,-116.8L40.8,-106.3L42.7,-95.8L43.9,-86.3L45.2,-78.3L47.0,-72.4L49.9,-68.7L54.3,-67.1L60.5,-67.2L68.5,-68.5L77.9,-70.2L88.5,-71.6L99.3,-72.2L109.8,-71.3L118.9,-68.6L126.0,-64.2L130.5,-58.1L132.0,-50.7L130.6,-42.4L126.4,-33.9L120.1,-25.5L112.4,-17.8L104.3,-11.0L96.7,-5.1L90.4,-0.0Z" fill="none" stroke="#ffe1f4" stroke-width="1" stroke-linecap="round" opacity="0.95"/><path d="M100.8,0.0L93.6,4.9L88.3,9.3L85.4,13.5L85.0,18.1L87.1,23.3L91.2,29.6L96.6,37.1L102.6,45.7L108.1,55.1L112.4,64.9L114.8,74.5L114.7,83.3L112.0,90.7L106.7,96.1L99.3,99.3L90.1,100.1L80.0,98.8L69.5,95.7L59.5,91.6L50.4,87.3L42.6,83.5L36.1,81.1L31.0,80.7L26.9,82.7L23.3,87.1L19.9,93.8L16.2,102.2L11.7,111.6L6.3,121.1L0.0,129.8L-7.2,136.6L-14.8,141.0L-22.5,142.3L-29.9,140.5L-36.3,135.6L-41.6,128.1L-45.5,118.6L-48.1,108.1L-49.6,97.4L-50.4,87.3L-51.1,78.6L-52.2,71.9L-54.4,67.2L-58.2,64.6L-63.8,63.8L-71.3,64.2L-80.4,65.1L-90.8,66.0L-101.7,66.1L-112.4,64.9L-121.9,62.1L-129.5,57.7L-134.5,51.6L-136.6,44.4L-135.6,36.3L-131.7,28.0L-125.5,19.9L-117.7,12.4L-109.1,5.7L-100.8,0.0L-93.6,-4.9L-88.3,-9.3L-85.4,-13.5L-85.0,-18.1L-87.1,-23.3L-91.2,-29.6L-96.6,-37.1L-102.6,-45.7L-108.1,-55.1L-112.4,-64.9L-114.8,-74.5L-114.7,-83.3L-112.0,-90.7L-106.7,-96.1L-99.3,-99.3L-90.1,-100.1L-80.0,-98.8L-69.5,-95.7L-59.5,-91.6L-50.4,-87.3L-42.6,-83.5L-36.1,-81.1L-31.0,-80.7L-26.9,-82.7L-23.3,-87.1L-19.9,-93.8L-16.2,-102.2L-11.7,-111.6L-6.3,-121.1L-0.0,-129.8L7.2,-136.6L14.8,-141.0L22.5,-142.3L29.9,-140.5L36.3,-135.6L41.6,-128.1L45.5,-118.6L48.1,-108.1L49.6,-97.4L50.4,-87.3L51.1,-78.6L52.2,-71.9L54.4,-67.2L58.2,-64.6L63.8,-63.8L71.3,-64.2L80.4,-65.1L90.8,-66.0L101.7,-66.1L112.4,-64.9L121.9,-62.1L129.5,-57.7L134.5,-51.6L136.6,-44.4L135.6,-36.3L131.7,-28.0L125.5,-19.9L117.7,-12.4L109.1,-5.7L100.8,-0.0Z" fill="none" stroke="#ebe1ff" stroke-width="3" stroke-linecap="round" opacity="0.20" filter="url(#tg)"/><path d="M100.8,0.0L93.6,4.9L88.3,9.3L85.4,13.5L85.0,18.1L87.1,23.3L91.2,29.6L96.6,37.1L102.6,45.7L108.1,55.1L112.4,64.9L114.8,74.5L114.7,83.3L112.0,90.7L106.7,96.1L99.3,99.3L90.1,100.1L80.0,98.8L69.5,95.7L59.5,91.6L50.4,87.3L42.6,83.5L36.1,81.1L31.0,80.7L26.9,82.7L23.3,87.1L19.9,93.8L16.2,102.2L11.7,111.6L6.3,121.1L0.0,129.8L-7.2,136.6L-14.8,141.0L-22.5,142.3L-29.9,140.5L-36.3,135.6L-41.6,128.1L-45.5,118.6L-48.1,108.1L-49.6,97.4L-50.4,87.3L-51.1,78.6L-52.2,71.9L-54.4,67.2L-58.2,64.6L-63.8,63.8L-71.3,64.2L-80.4,65.1L-90.8,66.0L-101.7,66.1L-112.4,64.9L-121.9,62.1L-129.5,57.7L-134.5,51.6L-136.6,44.4L-135.6,36.3L-131.7,28.0L-125.5,19.9L-117.7,12.4L-109.1,5.7L-100.8,0.0L-93.6,-4.9L-88.3,-9.3L-85.4,-13.5L-85.0,-18.1L-87.1,-23.3L-91.2,-29.6L-96.6,-37.1L-102.6,-45.7L-108.1,-55.1L-112.4,-64.9L-114.8,-74.5L-114.7,-83.3L-112.0,-90.7L-106.7,-96.1L-99.3,-99.3L-90.1,-100.1L-80.0,-98.8L-69.5,-95.7L-59.5,-91.6L-50.4,-87.3L-42.6,-83.5L-36.1,-81.1L-31.0,-80.7L-26.9,-82.7L-23.3,-87.1L-19.9,-93.8L-16.2,-102.2L-11.7,-111.6L-6.3,-121.1L-0.0,-129.8L7.2,-136.6L14.8,-141.0L22.5,-142.3L29.9,-140.5L36.3,-135.6L41.6,-128.1L45.5,-118.6L48.1,-108.1L49.6,-97.4L50.4,-87.3L51.1,-78.6L52.2,-71.9L54.4,-67.2L58.2,-64.6L63.8,-63.8L71.3,-64.2L80.4,-65.1L90.8,-66.0L101.7,-66.1L112.4,-64.9L121.9,-62.1L129.5,-57.7L134.5,-51.6L136.6,-44.4L135.6,-36.3L131.7,-28.0L125.5,-19.9L117.7,-12.4L109.1,-5.7L100.8,-0.0Z" fill="none" stroke="#ebe1ff" stroke-width="1" stroke-linecap="round" opacity="0.95"/><path d="M113.7,0.0L104.8,5.5L96.8,10.2L90.5,14.3L86.5,18.4L84.9,22.8L85.8,27.9L88.9,34.1L93.4,41.6L98.6,50.3L103.7,59.9L107.8,70.0L110.1,80.0L110.2,89.3L107.8,97.1L102.9,102.9L95.8,106.4L87.0,107.5L77.1,106.2L66.9,103.0L56.9,98.5L47.6,93.5L39.6,88.9L32.8,85.6L27.3,84.1L22.8,84.9L18.8,88.3L14.9,94.0L10.7,101.7L5.8,110.6L0.0,119.8L-6.7,128.4L-14.2,135.4L-22.2,140.1L-30.2,141.9L-37.7,140.6L-44.3,136.2L-49.6,129.1L-53.4,119.9L-55.7,109.4L-56.9,98.5L-57.2,88.0L-57.2,78.8L-57.7,71.2L-59.1,65.7L-62.2,62.2L-67.1,60.4L-74.0,59.9L-82.7,60.1L-92.9,60.3L-103.7,59.9L-114.5,58.3L-124.4,55.4L-132.4,50.8L-138.0,44.8L-140.6,37.7L-140.1,29.8L-136.6,21.6L-130.5,13.7L-122.6,6.4L-113.7,0.0L-104.8,-5.5L-96.8,-10.2L-90.5,-14.3L-86.5,-18.4L-84.9,-22.8L-85.8,-27.9L-88.9,-34.1L-93.4,-41.6L-98.6,-50.3L-103.7,-59.9L-107.8,-70.0L-110.1,-80.0L-110.2,-89.3L-107.8,-97.1L-102.9,-102.9L-95.8,-106.4L-87.0,-107.5L-77.1,-106.2L-66.9,-103.0L-56.9,-98.5L-47.6,-93.5L-39.6,-88.9L-32.8,-85.6L-27.3,-84.1L-22.8,-84.9L-18.8,-88.3L-14.9,-94.0L-10.7,-101.7L-5.8,-110.6L-0.0,-119.8L6.7,-128.4L14.2,-135.4L22.2,-140.1L30.2,-141.9L37.7,-140.6L44.3,-136.2L49.6,-129.1L53.4,-119.9L55.7,-109.4L56.9,-98.5L57.2,-88.0L57.2,-78.8L57.7,-71.2L59.1,-65.7L62.2,-62.2L67.1,-60.4L74.0,-59.9L82.7,-60.1L92.9,-60.3L103.7,-59.9L114.5,-58.3L124.4,-55.4L132.4,-50.8L138.0,-44.8L140.6,-37.7L140.1,-29.8L136.6,-21.6L130.5,-13.7L122.6,-6.4L113.7,-0.0Z" fill="none" stroke="#ffe1f4" stroke-width="3" stroke-linecap="round" opacity="0.20" filter="url(#tg)"/><path d="M113.7,0.0L104.8,5.5L96.8,10.2L90.5,14.3L86.5,18.4L84.9,22.8L85.8,27.9L88.9,34.1L93.4,41.6L98.6,50.3L103.7,59.9L107.8,70.0L110.1,80.0L110.2,89.3L107.8,97.1L102.9,102.9L95.8,106.4L87.0,107.5L77.1,106.2L66.9,103.0L56.9,98.5L47.6,93.5L39.6,88.9L32.8,85.6L27.3,84.1L22.8,84.9L18.8,88.3L14.9,94.0L10.7,101.7L5.8,110.6L0.0,119.8L-6.7,128.4L-14.2,135.4L-22.2,140.1L-30.2,141.9L-37.7,140.6L-44.3,136.2L-49.6,129.1L-53.4,119.9L-55.7,109.4L-56.9,98.5L-57.2,88.0L-57.2,78.8L-57.7,71.2L-59.1,65.7L-62.2,62.2L-67.1,60.4L-74.0,59.9L-82.7,60.1L-92.9,60.3L-103.7,59.9L-114.5,58.3L-124.4,55.4L-132.4,50.8L-138.0,44.8L-140.6,37.7L-140.1,29.8L-136.6,21.6L-130.5,13.7L-122.6,6.4L-113.7,0.0L-104.8,-5.5L-96.8,-10.2L-90.5,-14.3L-86.5,-18.4L-84.9,-22.8L-85.8,-27.9L-88.9,-34.1L-93.4,-41.6L-98.6,-50.3L-103.7,-59.9L-107.8,-70.0L-110.1,-80.0L-110.2,-89.3L-107.8,-97.1L-102.9,-102.9L-95.8,-106.4L-87.0,-107.5L-77.1,-106.2L-66.9,-103.0L-56.9,-98.5L-47.6,-93.5L-39.6,-88.9L-32.8,-85.6L-27.3,-84.1L-22.8,-84.9L-18.8,-88.3L-14.9,-94.0L-10.7,-101.7L-5.8,-110.6L-0.0,-119.8L6.7,-128.4L14.2,-135.4L22.2,-140.1L30.2,-141.9L37.7,-140.6L44.3,-136.2L49.6,-129.1L53.4,-119.9L55.7,-109.4L56.9,-98.5L57.2,-88.0L57.2,-78.8L57.7,-71.2L59.1,-65.7L62.2,-62.2L67.1,-60.4L74.0,-59.9L82.7,-60.1L92.9,-60.3L103.7,-59.9L114.5,-58.3L124.4,-55.4L132.4,-50.8L138.0,-44.8L140.6,-37.7L140.1,-29.8L136.6,-21.6L130.5,-13.7L122.6,-6.4L113.7,-0.0Z" fill="none" stroke="#ffe1f4" stroke-width="1" stroke-linecap="round" opacity="0.95"/><path d="M127.1,0.0L118.0,6.2L108.6,11.4L99.9,15.8L92.7,19.7L87.5,23.5L84.8,27.6L84.6,32.5L86.6,38.5L90.1,45.9L94.6,54.6L99.1,64.4L102.9,74.7L105.1,85.1L105.3,94.8L103.1,103.1L98.5,109.4L91.7,113.3L83.2,114.6L73.6,113.4L63.6,110.1L53.7,105.3L44.4,99.8L36.3,94.4L29.3,90.1L23.5,87.5L18.5,87.3L14.2,89.5L9.9,94.2L5.3,101.0L0.0,109.2L-6.2,118.0L-13.3,126.4L-21.2,133.6L-29.4,138.5L-37.7,140.8L-45.5,140.0L-52.2,136.1L-57.6,129.4L-61.4,120.5L-63.6,110.1L-64.4,99.1L-64.2,88.4L-63.7,78.6L-63.4,70.4L-64.1,64.1L-66.3,59.7L-70.4,57.0L-76.6,55.7L-84.8,55.1L-94.6,54.6L-105.3,53.7L-116.2,51.7L-126.2,48.5L-134.7,43.8L-140.8,37.7L-144.0,30.6L-144.0,22.8L-140.9,14.8L-135.0,7.1L-127.1,0.0L-118.0,-6.2L-108.6,-11.4L-99.9,-15.8L-92.7,-19.7L-87.5,-23.5L-84.8,-27.6L-84.6,-32.5L-86.6,-38.5L-90.1,-45.9L-94.6,-54.6L-99.1,-64.4L-102.9,-74.7L-105.1,-85.1L-105.3,-94.8L-103.1,-103.1L-98.5,-109.4L-91.7,-113.3L-83.2,-114.6L-73.6,-113.4L-63.6,-110.1L-53.7,-105.3L-44.4,-99.8L-36.3,-94.4L-29.3,-90.1L-23.5,-87.5L-18.5,-87.3L-14.2,-89.5L-9.9,-94.2L-5.3,-101.0L-0.0,-109.2L6.2,-118.0L13.3,-126.4L21.2,-133.6L29.4,-138.5L37.7,-140.8L45.5,-140.0L52.2,-136.1L57.6,-129.4L61.4,-120.5L63.6,-110.1L64.4,-99.1L64.2,-88.4L63.7,-78.6L63.4,-70.4L64.1,-64.1L66.3,-59.7L70.4,-57.0L76.6,-55.7L84.8,-55.1L94.6,-54.6L105.3,-53.7L116.2,-51.7L126.2,-48.5L134.7,-43.8L140.8,-37.7L144.0,-30.6L144.0,-22.8L140.9,-14.8L135.0,-7.1L127.1,-0.0Z" fill="none" stroke="#ebe1ff" stroke-width="3" stroke-linecap="round" opacity="0.20" filter="url(#tg)"/><path d="M127.1,0.0L118.0,6.2L108.6,11.4L99.9,15.8L92.7,19.7L87.5,23.5L84.8,27.6L84.6,32.5L86.6,38.5L90.1,45.9L94.6,54.6L99.1,64.4L102.9,74.7L105.1,85.1L105.3,94.8L103.1,103.1L98.5,109.4L91.7,113.3L83.2,114.6L73.6,113.4L63.6,110.1L53.7,105.3L44.4,99.8L36.3,94.4L29.3,90.1L23.5,87.5L18.5,87.3L14.2,89.5L9.9,94.2L5.3,101.0L0.0,109.2L-6.2,118.0L-13.3,126.4L-21.2,133.6L-29.4,138.5L-37.7,140.8L-45.5,140.0L-52.2,136.1L-57.6,129.4L-61.4,120.5L-63.6,110.1L-64.4,99.1L-64.2,88.4L-63.7,78.6L-63.4,70.4L-64.1,64.1L-66.3,59.7L-70.4,57.0L-76.6,55.7L-84.8,55.1L-94.6,54.6L-105.3,53.7L-116.2,51.7L-126.2,48.5L-134.7,43.8L-140.8,37.7L-144.0,30.6L-144.0,22.8L-140.9,14.8L-135.0,7.1L-127.1,0.0L-118.0,-6.2L-108.6,-11.4L-99.9,-15.8L-92.7,-19.7L-87.5,-23.5L-84.8,-27.6L-84.6,-32.5L-86.6,-38.5L-90.1,-45.9L-94.6,-54.6L-99.1,-64.4L-102.9,-74.7L-105.1,-85.1L-105.3,-94.8L-103.1,-103.1L-98.5,-109.4L-91.7,-113.3L-83.2,-114.6L-73.6,-113.4L-63.6,-110.1L-53.7,-105.3L-44.4,-99.8L-36.3,-94.4L-29.3,-90.1L-23.5,-87.5L-18.5,-87.3L-14.2,-89.5L-9.9,-94.2L-5.3,-101.0L-0.0,-109.2L6.2,-118.0L13.3,-126.4L21.2,-133.6L29.4,-138.5L37.7,-140.8L45.5,-140.0L52.2,-136.1L57.6,-129.4L61.4,-120.5L63.6,-110.1L64.4,-99.1L64.2,-88.4L63.7,-78.6L63.4,-70.4L64.1,-64.1L66.3,-59.7L70.4,-57.0L76.6,-55.7L84.8,-55.1L94.6,-54.6L105.3,-53.7L116.2,-51.7L126.2,-48.5L134.7,-43.8L140.8,-37.7L144.0,-30.6L144.0,-22.8L140.9,-14.8L135.0,-7.1L127.1,-0.0Z" fill="none" stroke="#ebe1ff" stroke-width="1" stroke-linecap="round" opacity="0.95"/>
</svg>