<svg xmlns="http://www.w3.org/2000/svg" viewBox="-250 -250 500 500">
<defs><filter id="tg"><feGaussianBlur stdDeviation="7.4"/></filter></defs>
<rect x="-250" y="-250" width="500" height="500" fill="#0a1a28"/>
<path d="M94.5,0.0L118.1,6.2L139.0,14.6L154.9,24.5L164.1,34.9L165.7,44.4L159.5,51.8L146.4,56.2L127.7,56.8L105.4,53.7L81.8,47.3L99.2,64.4L113.1,82.1L121.9,98.7L124.6,112.2L121.3,121.3L112.2,124.6L98.7,121.9L82.1,113.1L64.4,99.2L47.3,81.8L53.7,105.4L56.8,127.7L56.2,146.4L51.8,159.5L44.4,165.7L34.9,164.1L24.5,154.9L14.6,139.0L6.2,118.1L0.0,94.5L-6.2,118.1L-14.6,139.0L-24.5,154.9L-34.9,164.1L-44.4,165.7L-51.8,159.5L-56.2,146.4L-56.8,127.7L-53.7,105.4L-47.3,81.8L-64.4,99.2L-82.1,113.1L-98.7,121.9L-112.2,124.6L-121.3,121.3L-124.6,112.2L-121.9,98.7L-113.1,82.1L-99.2,64.4L-81.8,47.3L-105.4,53.7L-127.7,56.8L-146.4,56.2L-159.5,51.8L-165.7,44.4L-164.1,34.9L-154.9,24.5L-139.0,14.6L-118.1,6.2L-94.5,0.0L-118.1,-6.2L-139.0,-14.6L-154.9,-24.5L-164.1,-34.9L-165.7,-44.4L-159.5,-51.8L-146.4,-56.2L-127.7,-56.8L-105.4,-53.7L-81.8,-47.3L-99.2,-64.4L-113.1,-82.1L-121.9,-98.7L-124.6,-112.2L-121.3,-121.3L-112.2,-124.6L-98.7,-121.9L-82.1,-113.1L-64.4,-99.2L-47.3,-81.8L-53.7,-105.4L-56.8,-127.7L-56.2,-146.4L-51.8,-159.5L-44.4,-165.7L-34.9,-164.1L-24.5,-154.9L-14.6,-139.0L-6.2,-118.1L-0.0,-94.5L6.2,-118.1L14.6,-139.0L24.5,-154.9L34.9,-164.1L44.4,-165.7L51.8,-159.5L56.2,-146.4L56.8,-127.7L53.7,-105.4L47.3,-81.8L64.4,-99.2L82.1,-113.1L98.7,-121.9L112.2,-124.6L121.3,-121.3L124.6,-112.2L121.9,-98.7L113.1,-82.1L99.2,-64.4L81.8,-47.3L105.4,-53.7L127.7,-56.8L146.4,-56.2L159.5,-51.8L165.7,-44.4L164.1,-34.9L154.9,-24.5L139.0,-14.6L118.1,-6.2L94.5,-0.0Z" fill="none" stroke="#f5dcee" stroke-width="7.199999999999999" stroke-linecap="round" opacity="0.18" filter="url(#tg)"/><path d="M94.5,0.0L118.1,6.2L139.0,14.6L154.9,24.5L164.1,34.9L165.7,44.4L159.5,51.8L146.4,56.2L127.7,56.8L105.4,53.7L81.8,47.3L99.2,64.4L113.1,82.1L121.9,98.7L124.6,112.2L121.3,121.3L112.2,124.6L98.7,121.9L82.1,113.1L64.4,99.2L47.3,81.8L53.7,105.4L56.8,127.7L56.2,146.4L51.8,159.5L44.4,165.7L34.9,164.1L24.5,154.9L14.6,139.0L6.2,118.1L0.0,94.5L-6.2,118.1L-14.6,139.0L-24.5,154.9L-34.9,164.1L-44.4,165.7L-51.8,159.5L-56.2,146.4L-56.8,127.7L-53.7,105.4L-47.3,81.8L-64.4,99.2L-82.1,113.1L-98.7,121.9L-112.2,124.6L-121.3,121.3L-124.6,112.2L-121.9,98.7L-113.1,82.1L-99.2,64.4L-81.8,47.3L-105.4,53.7L-127.7,56.8L-146.4,56.2L-159.5,51.8L-165.7,44.4L-164.1,34.9L-154.9,24.5L-139.0,14.6L-118.1,6.2L-94.5,0.0L-118.1,-6.2L-139.0,-14.6L-154.9,-24.5L-164.1,-34.9L-165.7,-44.4L-159.5,-51.8L-146.4,-56.2L-127.7,-56.8L-105.4,-53.7L-81.8,-47.3L-99.2,-64.4L-113.1,-82.1L-121.9,-98.7L-124.6,-112.2L-121.3,-121.3L-112.2,-124.6L-98.7,-121.9L-82.1,-113.1L-64.4,-99.2L-47.3,-81.8L-53.7,-105.4L-56.8,-127.7L-56.2,-146.4L-51.8,-159.5L-44.4,-165.7L-34.9,-164.1L-24.5,-154.9L-14.6,-139.0L-6.2,-118.1L-0.0,-94.5L6.2,-118.1L14.6,-139.0L24.5,-154.9L34.9,-164.1L44.4,-165.7L51.8,-159.5L56.2,-146.4L56.8,-127.7L53.7,-105.4L47.3,-81.8L64.4,-99.2L82.1,-113.1L98.7,-121.9L112.2,-124.6L121.3,-121.3L124.6,-112.2L121.9,-98.7L113.1,-82.1L99.2,-64.4L81.8,-47.3L105.4,-53.7L127.7,-56.8L146.4,-56.2L159.5,-51.8L165.7,-44.4L164.1,-34.9L154.9,-24.5L139.0,-14.6L118.1,-6.2L94.5,-0.0Z" fill="none" stroke="#f5dcee" stroke-width="2.4" stroke-linecap="round" opacity="0.95"/><path d="M137.9,0.0L140.2,7.3L134.7,14.2L121.8,19.3L103.2,21.9L80.6,21.6L64.2,20.9L85.1,32.7L102.3,45.5L114.1,58.2L119.4,69.0L117.8,76.5L109.5,79.6L95.9,77.6L78.4,70.6L59.0,59.0L45.2,50.2L57.3,70.8L65.8,90.6L69.8,107.4L69.0,119.4L63.7,125.1L55.1,123.7L44.2,115.2L32.6,100.3L21.6,80.6L14.0,66.1L14.3,90.0L11.7,111.4L6.7,127.9L0.0,137.9L-7.3,140.2L-14.2,134.7L-19.3,121.8L-21.9,103.2L-21.6,80.6L-20.9,64.2L-32.7,85.1L-45.5,102.3L-58.2,114.1L-69.0,119.4L-76.5,117.8L-79.6,109.5L-77.6,95.9L-70.6,78.4L-59.0,59.0L-50.2,45.2L-70.8,57.3L-90.6,65.8L-107.4,69.8L-119.4,69.0L-125.1,63.7L-123.7,55.1L-115.2,44.2L-100.3,32.6L-80.6,21.6L-66.1,14.0L-90.0,14.3L-111.4,11.7L-127.9,6.7L-137.9,0.0L-140.2,-7.3L-134.7,-14.2L-121.8,-19.3L-103.2,-21.9L-80.6,-21.6L-64.2,-20.9L-85.1,-32.7L-102.3,-45.5L-114.1,-58.2L-119.4,-69.0L-117.8,-76.5L-109.5,-79.6L-95.9,-77.6L-78.4,-70.6L-59.0,-59.0L-45.2,-50.2L-57.3,-70.8L-65.8,-90.6L-69.8,-107.4L-69.0,-119.4L-63.7,-125.1L-55.1,-123.7L-44.2,-115.2L-32.6,-100.3L-21.6,-80.6L-14.0,-66.1L-14.3,-90.0L-11.7,-111.4L-6.7,-127.9L-0.0,-137.9L7.3,-140.2L14.2,-134.7L19.3,-121.8L21.9,-103.2L21.6,-80.6L20.9,-64.2L32.7,-85.1L45.5,-102.3L58.2,-114.1L69.0,-119.4L76.5,-117.8L79.6,-109.5L77.6,-95.9L70.6,-78.4L59.0,-59.0L50.2,-45.2L70.8,-57.3L90.6,-65.8L107.4,-69.8L119.4,-69.0L125.1,-63.7L123.7,-55.1L115.2,-44.2L100.3,-32.6L80.6,-21.6L66.1,-14.0L90.0,-14.3L111.4,-11.7L127.9,-6.7L137.9,-0.0Z" fill="none" stroke="#eee0e8" stroke-width="7.199999999999999" stroke-linecap="round" opacity="0.18" filter="url(#tg)"/><path d="M137.9,0.0L140.2,7.3L134.7,14.2L121.8,19.3L103.2,21.9L80.6,21.6L64.2,20.9L85.1,32.7L102.3,45.5L114.1,58.2L119.4,69.0L117.8,76.5L109.5,79.6L95.9,77.6L78.4,70.6L59.0,59.0L45.2,50.2L57.3,70.8L65.8,90.6L69.8,107.4L69.0,119.4L63.7,125.1L55.1,123.7L44.2,115.2L32.6,100.3L21.6,80.6L14.0,66.1L14.3,90.0L11.7,111.4L6.7,127.9L0.0,137.9L-7.3,140.2L-14.2,134.7L-19.3,121.8L-21.9,103.2L-21.6,80.6L-20.9,64.2L-32.7,85.1L-45.5,102.3L-58.2,114.1L-69.0,119.4L-76.5,117.8L-79.6,109.5L-77.6,95.9L-70.6,78.4L-59.0,59.0L-50.2,45.2L-70.8,57.3L-90.6,65.8L-107.4,69.8L-119.4,69.0L-125.1,63.7L-123.7,55.1L-115.2,44.2L-100.3,32.6L-80.6,21.6L-66.1,14.0L-90.0,14.3L-111.4,11.7L-127.9,6.7L-137.9,0.0L-140.2,-7.3L-134.7,-14.2L-121.8,-19.3L-103.2,-21.9L-80.6,-21.6L-64.2,-20.9L-85.1,-32.7L-102.3,-45.5L-114.1,-58.2L-119.4,-69.0L-117.8,-76.5L-109.5,-79.6L-95.9,-77.6L-78.4,-70.6L-59.0,-59.0L-45.2,-50.2L-57.3,-70.8L-65.8,-90.6L-69.8,-107.4L-69.0,-119.4L-63.7,-125.1L-55.1,-123.7L-44.2,-115.2L-32.6,-100.3L-21.6,-80.6L-14.0,-66.1L-14.3,-90.0L-11.7,-111.4L-6.7,-127.9L-0.0,-137.9L7.3,-140.2L14.2,-134.7L19.3,-121.8L21.9,-103.2L21.6,-80.6L20.9,-64.2L32.7,-85.1L45.5,-102.3L58.2,-114.1L69.0,-119.4L76.5,-117.8L79.6,-109.5L77.6,-95.9L70.6,-78.4L59.0,-59.0L50.2,-45.2L70.8,-57.3L90.6,-65.8L107.4,-69.8L119.4,-69.0L125.1,-63.7L123.7,-55.1L115.2,-44.2L100.3,-32.6L80.6,-21.6L66.1,-14.0L90.0,-14.3L111.4,-11.7L127.9,-6.7L137.9,-0.0Z" fill="none" stroke="#eee0e8" stroke-width="2.4" stroke-linecap="round" opacity="0.95"/><path d="M71.0,0.0L48.5,2.5L40.4,4.2L63.1,10.0L82.2,17.5L95.9,25.7L102.6,33.3L101.9,39.1L94.0,41.9L80.0,40.8L61.5,35.5L40.7,26.4L32.8,23.9L49.6,40.2L62.5,56.3L70.2,70.2L72.2,80.2L68.7,84.8L60.5,83.2L48.9,75.3L35.5,61.5L22.0,43.3L16.5,37.1L22.9,59.6L26.0,80.0L25.7,95.9L22.4,105.5L17.1,107.8L10.8,102.3L4.7,89.6L0.0,71.0L-2.5,48.5L-4.2,40.4L-10.0,63.1L-17.5,82.2L-25.7,95.9L-33.3,102.6L-39.1,101.9L-41.9,94.0L-40.8,80.0L-35.5,61.5L-26.4,40.7L-23.9,32.8L-40.2,49.6L-56.3,62.5L-70.2,70.2L-80.2,72.2L-84.8,68.7L-83.2,60.5L-75.3,48.9L-61.5,35.5L-43.3,22.0L-37.1,16.5L-59.6,22.9L-80.0,26.0L-95.9,25.7L-105.5,22.4L-107.8,17.1L-102.3,10.8L-89.6,4.7L-71.1,0.0L-48.5,-2.5L-40.4,-4.2L-63.1,-10.0L-82.2,-17.5L-95.9,-25.7L-102.6,-33.3L-101.9,-39.1L-94.0,-41.9L-80.0,-40.8L-61.5,-35.5L-40.7,-26.4L-32.8,-23.9L-49.6,-40.2L-62.5,-56.3L-70.2,-70.2L-72.2,-80.2L-68.7,-84.8L-60.5,-83.2L-48.9,-75.3L-35.5,-61.5L-22.0,-43.3L-16.5,-37.1L-22.9,-59.6L-26.0,-80.0L-25.7,-95.9L-22.4,-105.5L-17.1,-107.8L-10.8,-102.3L-4.7,-89.6L-0.0,-71.0L2.5,-48.5L4.2,-40.4L10.0,-63.1L17.5,-82.2L25.7,-95.9L33.3,-102.6L39.1,-101.9L41.9,-94.0L40.8,-80.0L35.5,-61.5L26.4,-40.7L23.9,-32.8L40.2,-49.6L56.3,-62.5L70.2,-70.2L80.2,-72.2L84.8,-68.7L83.2,-60.5L75.3,-48.9L61.5,-35.5L43.3,-22.0L37.1,-16.5L59.6,-22.9L80.0,-26.0L95.9,-25.7L105.5,-22.4L107.8,-17.1L102.3,-10.8L89.6,-4.7L71.1,-0.0Z" fill="none" stroke="#e8e4e3" stroke-width="7.199999999999999" stroke-linecap="round" opacity="0.18" filter="url(#tg)"/><path d="M71.0,0.0L48.5,2.5L40.4,4.2L63.1,10.0L82.2,17.5L95.9,25.7L102.6,33.3L101.9,39.1L94.0,41.9L80.0,40.8L61.5,35.5L40.7,26.4L32.8,23.9L49.6,40.2L62.5,56.3L70.2,70.2L72.2,80.2L68.7,84.8L60.5,83.2L48.9,75.3L35.5,61.5L22.0,43.3L16.5,37.1L22.9,59.6L26.0,80.0L25.7,95.9L22.4,105.5L17.1,107.8L10.8,102.3L4.7,89.6L0.0,71.0L-2.5,48.5L-4.2,40.4L-10.0,63.1L-17.5,82.2L-25.7,95.9L-33.3,102.6L-39.1,101.9L-41.9,94.0L-40.8,80.0L-35.5,61.5L-26.4,40.7L-23.9,32.8L-40.2,49.6L-56.3,62.5L-70.2,70.2L-80.2,72.2L-84.8,68.7L-83.2,60.5L-75.3,48.9L-61.5,35.5L-43.3,22.0L-37.1,16.5L-59.6,22.9L-80.0,26.0L-95.9,25.7L-105.5,22.4L-107.8,17.1L-102.3,10.8L-89.6,4.7L-71.1,0.0L-48.5,-2.5L-40.4,-4.2L-63.1,-10.0L-82.2,-17.5L-95.9,-25.7L-102.6,-33.3L-101.9,-39.1L-94.0,-41.9L-80.0,-40.8L-61.5,-35.5L-40.7,-26.4L-32.8,-23.9L-49.6,-40.2L-62.5,-56.3L-70.2,-70.2L-72.2,-80.2L-68.7,-84.8L-60.5,-83.2L-48.9,-75.3L-35.5,-61.5L-22.0,-43.3L-16.5,-37.1L-22.9,-59.6L-26.0,-80.0L-25.7,-95.9L-22.4,-105.5L-17.1,-107.8L-10.8,-102.3L-4.7,-89.6L-0.0,-71.0L2.5,-48.5L4.2,-40.4L10.0,-63.1L17.5,-82.2L25.7,-95.9L33.3,-102.6L39.1,-101.9L41.9,-94.0L40.8,-80.0L35.5,-61.5L26.4,-40.7L23.9,-32.8L40.2,-49.6L56.3,-62.5L70.2,-70.2L80.2,-72.2L84.8,-68.7L83.2,-60.5L75.3,-48.9L61.5,-35.5L43.3,-22.0L37.1,-16.5L59.6,-22.9L80.0,-26.0L95.9,-25.7L105.5,-22.4L107.8,-17.1L102.3,-10.8L89.6,-4.7L71.1,-0.0Z" fill="none" stroke="#e8e4e3" stroke-width="2.4" stroke-linecap="round" opacity="0.95"/><path d="M56.0,0.0L70.1,3.7L77.2,8.1L76.7,12.1L68.6,14.6L54.1,14.5L34.7,11.3L12.7,4.9L12.4,5.5L32.6,16.6L48.5,28.0L58.9,38.2L62.8,45.6L60.3,48.9L52.2,47.0L39.6,39.6L24.4,27.1L8.6,10.6L8.0,11.0L19.9,30.6L28.0,48.5L31.9,62.5L31.6,70.9L27.8,72.5L21.7,66.7L14.5,54.1L7.6,35.7L2.1,13.5L1.4,13.5L1.9,36.5L0.0,56.0L-3.7,70.1L-8.1,77.2L-12.1,76.7L-14.6,68.6L-14.5,54.1L-11.3,34.7L-4.9,12.7L-5.5,12.4L-16.6,32.6L-28.0,48.5L-38.2,58.9L-45.6,62.8L-48.9,60.3L-47.0,52.2L-39.6,39.6L-27.1,24.4L-10.6,8.6L-11.0,8.0L-30.6,19.9L-48.5,28.0L-62.5,31.9L-70.9,31.6L-72.5,27.8L-66.7,21.7L-54.1,14.5L-35.7,7.6L-13.5,2.1L-13.5,1.4L-36.5,1.9L-56.0,0.0L-70.1,-3.7L-77.2,-8.1L-76.7,-12.1L-68.6,-14.6L-54.1,-14.5L-34.7,-11.3L-12.7,-4.9L-12.4,-5.5L-32.6,-16.6L-48.5,-28.0L-58.9,-38.2L-62.8,-45.6L-60.3,-48.9L-52.2,-47.0L-39.6,-39.6L-24.4,-27.1L-8.6,-10.6L-8.0,-11.0L-19.9,-30.6L-28.0,-48.5L-31.9,-62.5L-31.6,-70.9L-27.8,-72.5L-21.7,-66.7L-14.5,-54.1L-7.6,-35.7L-2.1,-13.5L-1.4,-13.5L-1.9,-36.5L-0.0,-56.0L3.7,-70.1L8.1,-77.2L12.1,-76.7L14.6,-68.6L14.5,-54.1L11.3,-34.7L4.9,-12.7L5.5,-12.4L16.6,-32.6L28.0,-48.5L38.2,-58.9L45.6,-62.8L48.9,-60.3L47.0,-52.2L39.6,-39.6L27.1,-24.4L10.6,-8.6L11.0,-8.0L30.6,-19.9L48.5,-28.0L62.5,-31.9L70.9,-31.6L72.5,-27.8L66.7,-21.7L54.1,-14.5L35.7,-7.6L13.5,-2.1L13.5,-1.4L36.5,-1.9L56.0,-0.0Z" fill="none" stroke="#e1e9dd" stroke-width="7.199999999999999" stroke-linecap="round" opacity="0.18" filter="url(#tg)"/><path d="M56.0,0.0L70.1,3.7L77.2,8.1L76.7,12.1L68.6,14.6L54.1,14.5L34.7,11.3L12.7,4.9L12.4,5.5L32.6,16.6L48.5,28.0L58.9,38.2L62.8,45.6L60.3,48.9L52.2,47.0L39.6,39.6L24.4,27.1L8.6,10.6L8.0,11.0L19.9,30.6L28.0,48.5L31.9,62.5L31.6,70.9L27.8,72.5L21.7,66.7L14.5,54.1L7.6,35.7L2.1,13.5L1.4,13.5L1.9,36.5L0.0,56.0L-3.7,70.1L-8.1,77.2L-12.1,76.7L-14.6,68.6L-14.5,54.1L-11.3,34.7L-4.9,12.7L-5.5,12.4L-16.6,32.6L-28.0,48.5L-38.2,58.9L-45.6,62.8L-48.9,60.3L-47.0,52.2L-39.6,39.6L-27.1,24.4L-10.6,8.6L-11.0,8.0L-30.6,19.9L-48.5,28.0L-62.5,31.9L-70.9,31.6L-72.5,27.8L-66.7,21.7L-54.1,14.5L-35.7,7.6L-13.5,2.1L-13.5,1.4L-36.5,1.9L-56.0,0.0L-70.1,-3.7L-77.2,-8.1L-76.7,-12.1L-68.6,-14.6L-54.1,-14.5L-34.7,-11.3L-12.7,-4.9L-12.4,-5.5L-32.6,-16.6L-48.5,-28.0L-58.9,-38.2L-62.8,-45.6L-60.3,-48.9L-52.2,-47.0L-39.6,-39.6L-24.4,-27.1L-8.6,-10.6L-8.0,-11.0L-19.9,-30.6L-28.0,-48.5L-31.9,-62.5L-31.6,-70.9L-27.8,-72.5L-21.7,-66.7L-14.5,-54.1L-7.6,-35.7L-2.1,-13.5L-1.4,-13.5L-1.9,-36.5L-0.0,-56.0L3.7,-70.1L8.1,-77.2L12.1,-76.7L14.6,-68.6L14.5,-54.1L11.3,-34.7L4.9,-12.7L5.5,-12.4L16.6,-32.6L28.0,-48.5L38.2,-58.9L45.6,-62.8L48.9,-60.3L47.0,-52.2L39.6,-39.6L27.1,-24.4L10.6,-8.6L11.0,-8.0L30.6,-19.9L48.5,-28.0L62.5,-31.9L70.9,-31.6L72.5,-27.8L66.7,-21.7L54.1,-14.5L35.7,-7.6L13.5,-2.1L13.5,-1.4L36.5,-1.9L56.0,-0.0Z" fill="none" stroke="#e1e9dd" stroke-width="2.4" stroke-linecap="round" opacity="0.95"/><path d="M37.3,0.0L22.1,1.2L1.9,0.2L-21.1,-3.3L-13.1,-2.8L8.8,2.4L26.5,8.6L38.2,14.7L43.1,19.2L40.9,20.8L32.3,18.6L18.6,12.0L1.6,1.1L-16.6,-13.4L-10.0,-9.0L6.4,6.4L18.6,20.7L25.8,31.8L27.7,38.2L25.0,38.5L18.6,32.3L10.0,19.7L0.8,1.8L-7.7,-19.9L-4.1,-12.7L2.4,8.8L5.8,27.2L6.4,40.4L4.9,46.9L2.4,45.9L0.0,37.3L-1.2,22.1L-0.2,1.9L3.3,-21.1L2.8,-13.1L-2.4,8.8L-8.6,26.5L-14.7,38.2L-19.2,43.1L-20.8,40.9L-18.6,32.3L-12.0,18.6L-1.1,1.6L13.4,-16.6L9.0,-10.0L-6.4,6.4L-20.7,18.6L-31.8,25.8L-38.2,27.7L-38.5,25.0L-32.3,18.6L-19.7,10.0L-1.8,0.8L19.9,-7.7L12.7,-4.1L-8.8,2.4L-27.2,5.8L-40.4,6.4L-46.9,4.9L-45.9,2.4L-37.3,0.0L-22.1,-1.2L-1.9,-0.2L21.1,3.3L13.1,2.8L-8.8,-2.4L-26.5,-8.6L-38.2,-14.7L-43.1,-19.2L-40.9,-20.8L-32.3,-18.6L-18.6,-12.0L-1.6,-1.1L16.6,13.4L10.0,9.0L-6.4,-6.4L-18.6,-20.7L-25.8,-31.8L-27.7,-38.2L-25.0,-38.5L-18.6,-32.3L-10.0,-19.7L-0.8,-1.8L7.7,19.9L4.1,12.7L-2.4,-8.8L-5.8,-27.2L-6.4,-40.4L-4.9,-46.9L-2.4,-45.9L-0.0,-37.3L1.2,-22.1L0.2,-1.9L-3.3,21.1L-2.8,13.1L2.4,-8.8L8.6,-26.5L14.7,-38.2L19.2,-43.1L20.8,-40.9L18.6,-32.3L12.0,-18.6L1.1,-1.6L-13.4,16.6L-9.0,10.0L6.4,-6.4L20.7,-18.6L31.8,-25.8L38.2,-27.7L38.5,-25.0L32.3,-18.6L19.7,-10.0L1.8,-0.8L-19.9,7.7L-12.7,4.1L8.8,-2.4L27.2,-5.8L40.4,-6.4L46.9,-4.9L45.9,-2.4L37.3,-0.0Z" fill="none" stroke="#dbedd8" stroke-width="7.199999999999999" stroke-linecap="round" opacity="0.18" filter="url(#tg)"/><path d="M37.3,0.0L22.1,1.2L1.9,0.2L-21.1,-3.3L-13.1,-2.8L8.8,2.4L26.5,8.6L38.2,14.7L43.1,19.2L40.9,20.8L32.3,18.6L18.6,12.0L1.6,1.1L-16.6,-13.4L-10.0,-9.0L6.4,6.4L18.6,20.7L25.8,31.8L27.7,38.2L25.0,38.5L18.6,32.3L10.0,19.7L0.8,1.8L-7.7,-19.9L-4.1,-12.7L2.4,8.8L5.8,27.2L6.4,40.4L4.9,46.9L2.4,45.9L0.0,37.3L-1.2,22.1L-0.2,1.9L3.3,-21.1L2.8,-13.1L-2.4,8.8L-8.6,26.5L-14.7,38.2L-19.2,43.1L-20.8,40.9L-18.6,32.3L-12.0,18.6L-1.1,1.6L13.4,-16.6L9.0,-10.0L-6.4,6.4L-20.7,18.6L-31.8,25.8L-38.2,27.7L-38.5,25.0L-32.3,18.6L-19.7,10.0L-1.8,0.8L19.9,-7.7L12.7,-4.1L-8.8,2.4L-27.2,5.8L-40.4,6.4L-46.9,4.9L-45.9,2.4L-37.3,0.0L-22.1,-1.2L-1.9,-0.2L21.1,3.3L13.1,2.8L-8.8,-2.4L-26.5,-8.6L-38.2,-14.7L-43.1,-19.2L-40.9,-20.8L-32.3,-18.6L-18.6,-12.0L-1.6,-1.1L16.6,13.4L10.0,9.0L-6.4,-6.4L-18.6,-20.7L-25.8,-31.8L-27.7,-38.2L-25.0,-38.5L-18.6,-32.3L-10.0,-19.7L-0.8,-1.8L7.7,19.9L4.1,12.7L-2.4,-8.8L-5.8,-27.2L-6.4,-40.4L-4.9,-46.9L-2.4,-45.9L-0.0,-37.3L1.2,-22.1L0.2,-1.9L-3.3,21.1L-2.8,13.1L2.4,-8.8L8.6,-26.5L14.7,-38.2L19.2,-43.1L20.8,-40.9L18.6,-32.3L12.0,-18.6L1.1,-1.6L-13.4,16.6L-9.0,10.0L6.4,-6.4L20.7,-18.6L31.8,-25.8L38.2,-27.7L38.5,-25.0L32.3,-18.6L19.7,-10.0L1.8,-0.8L-19.9,7.7L-12.7,4.1L8.8,-2.4L27.2,-5.8L40.4,-6.4L46.9,-4.9L45.9,-2.4L37.3,-0.0Z" fill="none" stroke="#dbedd8" stroke-width="2.4" stroke-linecap="round" opacity="0.95"/><path d="M-40.4,0.0L-18.4,-1.0L-0.5,-0.1L11.4,1.8L16.2,3.4L13.5,3.6L4.0,1.3L-11.1,-4.3L-29.9,-13.3L-50.2,-25.6L-35.0,-20.2L-15.5,-10.0L-0.4,-0.3L8.9,7.2L12.3,11.1L9.9,9.9L2.8,3.1L-7.5,-9.3L-19.3,-26.5L-30.7,-47.3L-20.2,-35.0L-8.4,-16.4L-0.2,-0.5L4.1,10.7L5.1,15.7L3.6,13.5L0.9,4.1L-1.9,-11.8L-3.4,-32.6L-2.9,-56.3L-0.0,-40.4L1.0,-18.4L0.1,-0.5L-1.8,11.4L-3.4,16.2L-3.6,13.5L-1.3,4.0L4.3,-11.1L13.3,-29.9L25.6,-50.2L20.2,-35.0L10.0,-15.5L0.3,-0.4L-7.2,8.9L-11.1,12.3L-9.9,9.9L-3.1,2.8L9.3,-7.5L26.5,-19.3L47.3,-30.7L35.0,-20.2L16.4,-8.4L0.5,-0.2L-10.7,4.1L-15.7,5.1L-13.5,3.6L-4.1,0.9L11.8,-1.9L32.6,-3.4L56.3,-2.9L40.4,-0.0L18.4,1.0L0.5,0.1L-11.4,-1.8L-16.2,-3.4L-13.5,-3.6L-4.0,-1.3L11.1,4.3L29.9,13.3L50.2,25.6L35.0,20.2L15.5,10.0L0.4,0.3L-8.9,-7.2L-12.3,-11.1L-9.9,-9.9L-2.8,-3.1L7.5,9.3L19.3,26.5L30.7,47.3L20.2,35.0L8.4,16.4L0.2,0.5L-4.1,-10.7L-5.1,-15.7L-3.6,-13.5L-0.9,-4.1L1.9,11.8L3.4,32.6L2.9,56.3L0.0,40.4L-1.0,18.4L-0.1,0.5L1.8,-11.4L3.4,-16.2L3.6,-13.5L1.3,-4.0L-4.3,11.1L-13.3,29.9L-25.6,50.2L-20.2,35.0L-10.0,15.5L-0.3,0.4L7.2,-8.9L11.1,-12.3L9.9,-9.9L3.1,-2.8L-9.3,7.5L-26.5,19.3L-47.3,30.7L-35.0,20.2L-16.4,8.4L-0.5,0.2L10.7,-4.1L15.7,-5.1L13.5,-3.6L4.1,-0.9L-11.8,1.9L-32.6,3.4L-56.3,2.9L-40.4,0.0Z" fill="none" stroke="#d4f1d2" stroke-width="7.199999999999999" stroke-linecap="round" opacity="0.18" filter="url(#tg)"/><path d="M-40.4,0.0L-18.4,-1.0L-0.5,-0.1L11.4,1.8L16.2,3.4L13.5,3.6L4.0,1.3L-11.1,-4.3L-29.9,-13.3L-50.2,-25.6L-35.0,-20.2L-15.5,-10.0L-0.4,-0.3L8.9,7.2L12.3,11.1L9.9,9.9L2.8,3.1L-7.5,-9.3L-19.3,-26.5L-30.7,-47.3L-20.2,-35.0L-8.4,-16.4L-0.2,-0.5L4.1,10.7L5.1,15.7L3.6,13.5L0.9,4.1L-1.9,-11.8L-3.4,-32.6L-2.9,-56.3L-0.0,-40.4L1.0,-18.4L0.1,-0.5L-1.8,11.4L-3.4,16.2L-3.6,13.5L-1.3,4.0L4.3,-11.1L13.3,-29.9L25.6,-50.2L20.2,-35.0L10.0,-15.5L0.3,-0.4L-7.2,8.9L-11.1,12.3L-9.9,9.9L-3.1,2.8L9.3,-7.5L26.5,-19.3L47.3,-30.7L35.0,-20.2L16.4,-8.4L0.5,-0.2L-10.7,4.1L-15.7,5.1L-13.5,3.6L-4.1,0.9L11.8,-1.9L32.6,-3.4L56.3,-2.9L40.4,-0.0L18.4,1.0L0.5,0.1L-11.4,-1.8L-16.2,-3.4L-13.5,-3.6L-4.0,-1.3L11.1,4.3L29.9,13.3L50.2,25.6L35.0,20.2L15.5,10.0L0.4,0.3L-8.9,-7.2L-12.3,-11.1L-9.9,-9.9L-2.8,-3.1L7.5,9.3L19.3,26.5L30.7,47.3L20.2,35.0L8.4,16.4L0.2,0.5L-4.1,-10.7L-5.1,-15.7L-3.6,-13.5L-0.9,-4.1L1.9,11.8L3.4,32.6L2.9,56.3L0.0,40.4L-1.0,18.4L-0.1,0.5L1.8,-11.4L3.4,-16.2L3.6,-13.5L1.3,-4.0L-4.3,11.1L-13.3,29.9L-25.6,50.2L-20.2,35.0L-10.0,15.5L-0.3,0.4L7.2,-8.9L11.1,-12.3L9.9,-9.9L3.1,-2.8L-9.3,7.5L-26.5,19.3L-47.3,30.7L-35.0,20.2L-16.4,8.4L-0.5,0.2L10.7,-4.1L15.7,-5.1L13.5,-3.6L4.1,-0.9L-11.8,1.9L-32.6,3.4L-56.3,2.9L-40.4,0.0Z" fill="none" stroke="#d4f1d2" stroke-width="2.4" stroke-linecap="round" opacity="0.95"/>
</svg>