<svg xmlns="http://www.w3.org/2000/svg" viewBox="-250 -250 500 500">
<rect x="-250" y="-250" width="500" height="500" fill="#0a1a28"/>
<path d="M175.0,0.0L182.1,9.5L188.5,19.8L193.9,30.7L198.2,42.1L201.1,53.9L202.6,65.8L202.5,77.7L200.7,89.4L197.3,100.5L192.3,111.0L185.7,120.6L177.7,129.1L168.5,136.5L158.3,142.5L147.2,147.2L135.6,150.6L123.6,152.6L111.4,153.3L99.3,152.9L87.5,151.6L82.8,162.5L77.1,173.1L70.4,183.3L62.6,192.7L53.9,201.1L44.3,208.4L33.9,214.2L23.0,218.5L11.6,221.1L0.0,222.0L-11.6,221.1L-23.0,218.5L-33.9,214.2L-44.3,208.4L-53.9,201.1L-62.6,192.7L-70.4,183.3L-77.1,173.1L-82.8,162.5L-87.5,151.6L-99.3,152.9L-111.4,153.3L-123.6,152.6L-135.6,150.6L-147.2,147.2L-158.3,142.5L-168.5,136.5L-177.7,129.1L-185.7,120.6L-192.3,111.0L-197.3,100.5L-200.7,89.4L-202.5,77.7L-202.6,65.8L-201.1,53.9L-198.2,42.1L-193.9,30.7L-188.5,19.8L-182.1,9.5L-175.0,0.0L-182.1,-9.5L-188.5,-19.8L-193.9,-30.7L-198.2,-42.1L-201.1,-53.9L-202.6,-65.8L-202.5,-77.7L-200.7,-89.4L-197.3,-100.5L-192.3,-111.0L-185.7,-120.6L-177.7,-129.1L-168.5,-136.5L-158.3,-142.5L-147.2,-147.2L-135.6,-150.6L-123.6,-152.6L-111.4,-153.3L-99.3,-152.9L-87.5,-151.6L-82.8,-162.5L-77.1,-173.1L-70.4,-183.3L-62.6,-192.7L-53.9,-201.1L-44.3,-208.4L-33.9,-214.2L-23.0,-218.5L-11.6,-221.1L-0.0,-222.0L11.6,-221.1L23.0,-218.5L33.9,-214.2L44.3,-208.4L53.9,-201.1L62.6,-192.7L70.4,-183.3L77.1,-173.1L82.8,-162.5L87.5,-151.6L99.3,-152.9L111.4,-153.3L123.6,-152.6L135.6,-150.6L147.2,-147.2L158.3,-142.5L168.5,-136.5L177.7,-129.1L185.7,-120.6L192.3,-111.0L197.3,-100.5L200.7,-89.4L202.5,-77.7L202.6,-65.8L201.1,-53.9L198.2,-42.1L193.9,-30.7L188.5,-19.8L182.1,-9.5L175.0,-0.0Z" fill="none" stroke="#fae9dd" stroke-width="2.1" stroke-linecap="round" opacity="0.95"/><path d="M254.2,0.0L257.2,13.5L258.4,27.2L257.7,40.8L255.3,54.3L250.9,67.2L244.9,79.6L237.3,91.1L228.2,101.6L218.0,111.1L206.7,119.3L194.6,126.4L182.1,132.3L169.3,137.1L161.8,145.7L159.1,159.1L155.3,172.5L150.2,185.5L143.8,197.9L136.1,209.5L127.1,220.1L116.9,229.5L105.7,237.3L93.5,243.6L80.6,248.2L67.2,250.9L53.5,251.9L39.8,251.0L26.1,248.5L12.8,244.3L0.0,238.7L-12.1,231.8L-23.5,223.8L-34.1,215.1L-45.3,213.0L-58.3,217.4L-71.7,220.7L-85.5,222.8L-99.5,223.5L-113.4,222.6L-127.1,220.1L-140.3,216.0L-152.7,210.2L-164.2,202.8L-174.6,193.9L-183.7,183.7L-191.4,172.3L-197.5,160.0L-202.1,146.9L-205.2,133.2L-206.7,119.3L-206.8,105.4L-205.6,91.5L-203.3,78.0L-207.1,67.3L-217.4,58.3L-227.0,48.3L-235.7,37.3L-243.3,25.6L-249.5,13.1L-254.2,0.0L-257.2,-13.5L-258.4,-27.2L-257.7,-40.8L-255.3,-54.3L-250.9,-67.2L-244.9,-79.6L-237.3,-91.1L-228.2,-101.6L-218.0,-111.1L-206.7,-119.3L-194.6,-126.4L-182.1,-132.3L-169.3,-137.1L-161.8,-145.7L-159.1,-159.1L-155.3,-172.5L-150.2,-185.5L-143.8,-197.9L-136.1,-209.5L-127.1,-220.1L-116.9,-229.5L-105.7,-237.3L-93.5,-243.6L-80.6,-248.2L-67.2,-250.9L-53.5,-251.9L-39.8,-251.0L-26.1,-248.5L-12.8,-244.3L-0.0,-238.7L12.1,-231.8L23.5,-223.8L34.1,-215.1L45.3,-213.0L58.3,-217.4L71.7,-220.7L85.5,-222.8L99.5,-223.5L113.4,-222.6L127.1,-220.1L140.3,-216.0L152.7,-210.2L164.2,-202.8L174.6,-193.9L183.7,-183.7L191.4,-172.3L197.5,-160.0L202.1,-146.9L205.2,-133.2L206.7,-119.3L206.8,-105.4L205.6,-91.5L203.3,-78.0L207.1,-67.3L217.4,-58.3L227.0,-48.3L235.7,-37.3L243.3,-25.6L249.5,-13.1L254.2,-0.0Z" fill="none" stroke="#cefdf8" stroke-width="2.1" stroke-linecap="round" opacity="0.95"/><path d="M295.1,0.0L290.8,15.2L284.9,29.9L277.4,43.9L268.5,57.1L258.6,69.3L247.8,80.5L236.4,90.7L238.0,106.0L238.5,121.5L237.8,137.3L235.5,152.9L231.7,168.4L226.3,183.3L219.3,197.4L210.6,210.6L200.5,222.7L188.9,233.3L176.1,242.4L162.2,249.8L147.5,255.5L132.2,259.5L116.5,261.7L100.6,262.2L84.8,261.1L69.3,258.6L54.2,254.9L39.6,250.1L27.2,259.1L14.0,267.4L0.0,274.5L-14.7,280.4L-29.9,284.9L-45.6,287.6L-61.4,288.6L-77.1,287.7L-92.6,285.0L-107.6,280.3L-121.9,273.7L-135.2,265.4L-147.5,255.5L-158.6,244.2L-168.4,231.7L-176.7,218.2L-183.7,204.0L-189.3,189.3L-193.6,174.3L-196.8,159.3L-210.8,153.1L-224.5,145.8L-237.8,137.3L-250.2,127.5L-261.7,116.5L-271.9,104.4L-280.6,91.2L-287.7,77.1L-293.1,62.3L-296.5,47.0L-298.0,31.3L-297.5,15.6L-295.1,0.0L-290.8,-15.2L-284.9,-29.9L-277.4,-43.9L-268.5,-57.1L-258.6,-69.3L-247.8,-80.5L-236.4,-90.7L-238.0,-106.0L-238.5,-121.5L-237.8,-137.3L-235.5,-152.9L-231.7,-168.4L-226.3,-183.3L-219.3,-197.4L-210.6,-210.6L-200.5,-222.7L-188.9,-233.3L-176.1,-242.4L-162.2,-249.8L-147.5,-255.5L-132.2,-259.5L-116.5,-261.7L-100.6,-262.2L-84.8,-261.1L-69.3,-258.6L-54.2,-254.9L-39.6,-250.1L-27.2,-259.1L-14.0,-267.4L-0.0,-274.5L14.7,-280.4L29.9,-284.9L45.6,-287.6L61.4,-288.6L77.1,-287.7L92.6,-285.0L107.6,-280.3L121.9,-273.7L135.2,-265.4L147.5,-255.5L158.6,-244.2L168.4,-231.7L176.7,-218.2L183.7,-204.0L189.3,-189.3L193.6,-174.3L196.8,-159.3L210.8,-153.1L224.5,-145.8L237.8,-137.3L250.2,-127.5L261.7,-116.5L271.9,-104.4L280.6,-91.2L287.7,-77.1L293.1,-62.3L296.5,-47.0L298.0,-31.3L297.5,-15.6L295.1,-0.0Z" fill="none" stroke="#fae9dd" stroke-width="2.1" stroke-linecap="round" opacity="0.95"/><path d="M296.0,0.0L295.6,15.5L301.6,31.7L306.5,48.5L309.9,65.9L311.8,83.6L312.0,101.4L310.3,119.1L306.7,136.6L301.2,153.4L293.7,169.6L284.4,184.7L273.4,198.7L260.9,211.3L247.0,222.4L232.0,232.0L216.0,239.9L199.4,246.2L182.4,251.0L165.2,254.3L148.0,256.3L134.4,263.7L123.4,277.1L111.2,289.7L97.9,301.3L83.6,311.8L68.2,320.9L52.0,328.3L35.1,333.9L17.7,337.5L0.0,339.2L-17.8,338.7L-35.3,336.1L-52.5,331.6L-69.1,325.1L-84.9,316.9L-99.8,307.0L-113.6,295.8L-126.2,283.5L-137.7,270.2L-148.0,256.3L-161.2,248.2L-178.3,245.4L-195.3,241.1L-212.0,235.5L-228.3,228.3L-243.8,219.5L-258.3,209.2L-271.6,197.3L-283.5,184.1L-293.7,169.6L-302.2,154.0L-308.8,137.5L-313.4,120.3L-316.1,102.7L-316.9,84.9L-315.8,67.1L-313.0,49.6L-308.6,32.4L-302.9,15.9L-296.0,0.0L-295.6,-15.5L-301.6,-31.7L-306.5,-48.5L-309.9,-65.9L-311.8,-83.6L-312.0,-101.4L-310.3,-119.1L-306.7,-136.6L-301.2,-153.4L-293.7,-169.6L-284.4,-184.7L-273.4,-198.7L-260.9,-211.3L-247.0,-222.4L-232.0,-232.0L-216.0,-239.9L-199.4,-246.2L-182.4,-251.0L-165.2,-254.3L-148.0,-256.3L-134.4,-263.7L-123.4,-277.1L-111.2,-289.7L-97.9,-301.3L-83.6,-311.8L-68.2,-320.9L-52.0,-328.3L-35.1,-333.9L-17.7,-337.5L-0.0,-339.2L17.8,-338.7L35.3,-336.1L52.5,-331.6L69.1,-325.1L84.9,-316.9L99.8,-307.0L113.6,-295.8L126.2,-283.5L137.7,-270.2L148.0,-256.3L161.2,-248.2L178.3,-245.4L195.3,-241.1L212.0,-235.5L228.3,-228.3L243.8,-219.5L258.3,-209.2L271.6,-197.3L283.5,-184.1L293.7,-169.6L302.2,-154.0L308.8,-137.5L313.4,-120.3L316.1,-102.7L316.9,-84.9L315.8,-67.1L313.0,-49.6L308.6,-32.4L302.9,-15.9L296.0,-0.0Z" fill="none" stroke="#cefdf8" stroke-width="2.1" stroke-linecap="round" opacity="0.95"/><path d="M369.4,0.0L372.8,19.5L374.0,39.3L373.2,59.1L370.1,78.7L364.9,97.8L357.7,116.2L348.5,133.8L337.5,150.3L324.9,165.5L310.9,179.5L295.8,192.1L279.9,203.3L263.3,213.2L246.3,221.7L239.5,239.5L231.5,257.1L222.0,274.1L211.0,290.5L198.6,305.8L184.7,319.9L169.5,332.6L153.0,343.6L135.4,352.7L116.9,359.9L97.8,364.9L78.2,367.9L58.4,368.7L38.6,367.4L19.1,364.1L0.0,359.0L-18.5,352.3L-36.2,344.0L-53.0,334.6L-68.9,324.2L-87.7,327.2L-106.9,329.0L-126.4,329.3L-146.0,328.0L-165.5,324.9L-184.7,319.9L-203.3,313.1L-221.1,304.3L-237.8,293.6L-253.2,281.2L-267.2,267.2L-279.5,251.7L-290.1,234.9L-298.9,217.1L-305.8,198.6L-310.9,179.5L-314.3,160.1L-316.0,140.7L-316.3,121.4L-315.2,102.4L-327.2,87.7L-338.4,71.9L-348.4,55.2L-357.1,37.5L-364.1,19.1L-369.4,0.0L-372.8,-19.5L-374.0,-39.3L-373.2,-59.1L-370.1,-78.7L-364.9,-97.8L-357.7,-116.2L-348.5,-133.8L-337.5,-150.3L-324.9,-165.5L-310.9,-179.5L-295.8,-192.1L-279.9,-203.3L-263.3,-213.2L-246.3,-221.7L-239.5,-239.5L-231.5,-257.1L-222.0,-274.1L-211.0,-290.5L-198.6,-305.8L-184.7,-319.9L-169.5,-332.6L-153.0,-343.6L-135.4,-352.7L-116.9,-359.9L-97.8,-364.9L-78.2,-367.9L-58.4,-368.7L-38.6,-367.4L-19.1,-364.1L-0.0,-359.0L18.5,-352.3L36.2,-344.0L53.0,-334.6L68.9,-324.2L87.7,-327.2L106.9,-329.0L126.4,-329.3L146.0,-328.0L165.5,-324.9L184.7,-319.9L203.3,-313.1L221.1,-304.3L237.8,-293.6L253.2,-281.2L267.2,-267.2L279.5,-251.7L290.1,-234.9L298.9,-217.1L305.8,-198.6L310.9,-179.5L314.3,-160.1L316.0,-140.7L316.3,-121.4L315.2,-102.4L327.2,-87.7L338.4,-71.9L348.4,-55.2L357.1,-37.5L364.1,-19.1L369.4,-0.0Z" fill="none" stroke="#fae9dd" stroke-width="2.1" stroke-linecap="round" opacity="0.95"/><path d="M413.9,0.0L410.0,21.5L404.0,42.5L396.1,62.7L386.4,82.1L375.2,100.5L362.8,117.9L349.3,134.1L341.8,152.2L339.9,173.2L336.4,194.2L331.3,215.2L324.4,235.7L315.7,255.7L305.1,274.7L292.7,292.7L278.5,309.3L262.7,324.3L245.3,337.6L226.7,349.1L207.0,358.5L186.4,365.8L165.2,371.1L143.7,374.4L122.1,375.7L100.5,375.2L79.3,373.1L58.5,369.6L39.1,372.1L20.0,380.9L0.0,388.5L-20.7,394.5L-41.9,398.8L-63.5,401.2L-85.4,401.6L-107.1,399.8L-128.6,395.8L-149.6,389.6L-169.8,381.3L-189.0,370.8L-207.0,358.5L-223.6,344.3L-238.8,328.7L-252.4,311.7L-264.3,293.6L-274.7,274.7L-283.5,255.3L-290.8,235.5L-302.7,219.9L-319.9,207.8L-336.4,194.2L-352.0,179.4L-366.4,163.1L-379.3,145.6L-390.5,126.9L-399.8,107.1L-407.1,86.5L-412.2,65.3L-415.1,43.6L-415.6,21.8L-413.9,0.0L-410.0,-21.5L-404.0,-42.5L-396.1,-62.7L-386.4,-82.1L-375.2,-100.5L-362.8,-117.9L-349.3,-134.1L-341.8,-152.2L-339.9,-173.2L-336.4,-194.2L-331.3,-215.2L-324.4,-235.7L-315.7,-255.7L-305.1,-274.7L-292.7,-292.7L-278.5,-309.3L-262.7,-324.3L-245.3,-337.6L-226.7,-349.1L-207.0,-358.5L-186.4,-365.8L-165.2,-371.1L-143.7,-374.4L-122.1,-375.7L-100.5,-375.2L-79.3,-373.1L-58.5,-369.6L-39.1,-372.1L-20.0,-380.9L-0.0,-388.5L20.7,-394.5L41.9,-398.8L63.5,-401.2L85.4,-401.6L107.1,-399.8L128.6,-395.8L149.6,-389.6L169.8,-381.3L189.0,-370.8L207.0,-358.5L223.6,-344.3L238.8,-328.7L252.4,-311.7L264.3,-293.6L274.7,-274.7L283.5,-255.3L290.8,-235.5L302.7,-219.9L319.9,-207.8L336.4,-194.2L352.0,-179.4L366.4,-163.1L379.3,-145.6L390.5,-126.9L399.8,-107.1L407.1,-86.5L412.2,-65.3L415.1,-43.6L415.6,-21.8L413.9,-0.0Z" fill="none" stroke="#cefdf8" stroke-width="2.1" stroke-linecap="round" opacity="0.95"/><path d="M417.0,0.0L409.0,21.4L414.7,43.6L418.9,66.3L421.5,89.6L422.3,113.2L421.2,136.8L417.9,160.4L412.4,183.6L404.8,206.2L394.9,228.0L382.9,248.7L368.9,268.0L353.1,285.9L335.5,302.1L316.5,316.5L296.3,329.1L275.2,339.8L253.3,348.6L231.0,355.7L208.5,361.1L186.0,365.0L169.6,380.9L152.0,396.0L133.2,409.8L113.2,422.3L92.1,433.2L70.0,442.1L47.2,449.0L23.8,453.7L0.0,456.0L-23.9,456.0L-47.7,453.5L-71.1,448.7L-93.9,441.6L-115.9,432.4L-136.8,421.2L-156.7,408.2L-175.3,393.7L-192.5,377.9L-208.5,361.1L-223.1,343.5L-245.1,337.3L-266.9,329.6L-288.4,320.2L-309.2,309.2L-329.1,296.3L-347.9,281.7L-365.3,265.4L-381.0,247.4L-394.9,228.0L-406.8,207.3L-416.6,185.5L-424.1,162.8L-429.4,139.5L-432.4,115.9L-433.2,92.1L-431.8,68.4L-428.6,45.0L-423.5,22.2L-417.0,0.0L-409.0,-21.4L-414.7,-43.6L-418.9,-66.3L-421.5,-89.6L-422.3,-113.2L-421.2,-136.8L-417.9,-160.4L-412.4,-183.6L-404.8,-206.2L-394.9,-228.0L-382.9,-248.7L-368.9,-268.0L-353.1,-285.9L-335.5,-302.1L-316.5,-316.5L-296.3,-329.1L-275.2,-339.8L-253.3,-348.6L-231.0,-355.7L-208.5,-361.1L-186.0,-365.0L-169.6,-380.9L-152.0,-396.0L-133.2,-409.8L-113.2,-422.3L-92.1,-433.2L-70.0,-442.1L-47.2,-449.0L-23.8,-453.7L-0.0,-456.0L23.9,-456.0L47.7,-453.5L71.1,-448.7L93.9,-441.6L115.9,-432.4L136.8,-421.2L156.7,-408.2L175.3,-393.7L192.5,-377.9L208.5,-361.1L223.1,-343.5L245.1,-337.3L266.9,-329.6L288.4,-320.2L309.2,-309.2L329.1,-296.3L347.9,-281.7L365.3,-265.4L381.0,-247.4L394.9,-228.0L406.8,-207.3L416.6,-185.5L424.1,-162.8L429.4,-139.5L432.4,-115.9L433.2,-92.1L431.8,-68.4L428.6,-45.0L423.5,-22.2L417.0,-0.0Z" fill="none" stroke="#fae9dd" stroke-width="2.1" stroke-linecap="round" opacity="0.95"/><path d="M484.4,0.0L488.1,25.6L489.4,51.4L488.3,77.3L484.7,103.0L478.7,128.3L470.2,152.8L459.4,176.4L446.5,198.8L431.6,219.9L415.0,239.6L396.9,257.8L377.6,274.3L357.2,289.3L336.2,302.7L319.9,319.9L307.6,341.6L293.7,362.7L278.2,382.9L261.0,401.9L242.2,419.5L221.9,435.5L200.2,449.6L177.2,461.6L153.1,471.3L128.3,478.7L102.8,483.6L77.0,486.1L51.1,486.1L25.4,483.8L0.0,479.2L-24.8,472.6L-48.8,464.1L-71.9,454.0L-94.1,442.5L-117.1,437.0L-142.0,437.2L-167.2,435.7L-192.5,432.3L-217.6,427.0L-242.2,419.5L-266.2,409.9L-289.3,398.1L-311.1,384.2L-331.6,368.3L-350.4,350.4L-367.4,330.8L-382.5,309.7L-395.4,287.3L-406.3,263.8L-415.0,239.6L-421.7,214.9L-426.3,189.8L-429.1,164.7L-430.2,139.8L-437.0,117.1L-449.6,95.6L-460.9,73.0L-470.7,49.5L-478.6,25.1L-484.4,0.0L-488.1,-25.6L-489.4,-51.4L-488.3,-77.3L-484.7,-103.0L-478.7,-128.3L-470.2,-152.8L-459.4,-176.4L-446.5,-198.8L-431.6,-219.9L-415.0,-239.6L-396.9,-257.8L-377.6,-274.3L-357.2,-289.3L-336.2,-302.7L-319.9,-319.9L-307.6,-341.6L-293.7,-362.7L-278.2,-382.9L-261.0,-401.9L-242.2,-419.5L-221.9,-435.5L-200.2,-449.6L-177.2,-461.6L-153.1,-471.3L-128.3,-478.7L-102.8,-483.6L-77.0,-486.1L-51.1,-486.1L-25.4,-483.8L-0.0,-479.2L24.8,-472.6L48.8,-464.1L71.9,-454.0L94.1,-442.5L117.1,-437.0L142.0,-437.2L167.2,-435.7L192.5,-432.3L217.6,-427.0L242.2,-419.5L266.2,-409.9L289.3,-398.1L311.1,-384.2L331.6,-368.3L350.4,-350.4L367.4,-330.8L382.5,-309.7L395.4,-287.3L406.3,-263.8L415.0,-239.6L421.7,-214.9L426.3,-189.8L429.1,-164.7L430.2,-139.8L437.0,-117.1L449.6,-95.6L460.9,-73.0L470.7,-49.5L478.6,-25.1L484.4,-0.0Z" fill="none" stroke="#cefdf8" stroke-width="2.1" stroke-linecap="round" opacity="0.95"/><path d="M532.5,0.0L529.0,27.7L522.9,55.0L514.6,81.5L504.2,107.2L491.8,131.8L477.7,155.2L462.3,177.4L445.6,198.4L441.2,224.8L435.0,251.2L427.0,277.3L417.0,303.0L404.9,327.9L390.8,351.8L374.5,374.5L356.3,395.7L336.2,415.2L314.3,432.7L291.0,448.0L266.2,461.2L240.5,471.9L213.9,480.4L186.7,486.4L159.3,490.2L131.8,491.8L104.4,491.3L77.5,489.1L51.0,485.1L25.9,494.5L0.0,502.3L-26.6,508.4L-53.9,512.6L-81.5,514.6L-109.3,514.3L-137.1,511.6L-164.6,506.4L-191.4,498.7L-217.5,488.6L-242.5,476.0L-266.2,461.2L-288.5,444.2L-309.1,425.4L-327.9,404.9L-344.9,383.0L-360.0,360.0L-373.3,336.1L-384.8,311.6L-394.6,286.7L-415.3,269.7L-435.0,251.2L-453.6,231.1L-470.9,209.6L-486.4,186.7L-500.1,162.5L-511.6,137.1L-520.9,110.7L-527.6,83.6L-531.9,55.9L-533.5,28.0L-532.5,0.0L-529.0,-27.7L-522.9,-55.0L-514.6,-81.5L-504.2,-107.2L-491.8,-131.8L-477.7,-155.2L-462.3,-177.4L-445.6,-198.4L-441.2,-224.8L-435.0,-251.2L-427.0,-277.3L-417.0,-303.0L-404.9,-327.9L-390.8,-351.8L-374.5,-374.5L-356.3,-395.7L-336.2,-415.2L-314.3,-432.7L-291.0,-448.0L-266.2,-461.2L-240.5,-471.9L-213.9,-480.4L-186.7,-486.4L-159.3,-490.2L-131.8,-491.8L-104.4,-491.3L-77.5,-489.1L-51.0,-485.1L-25.9,-494.5L-0.0,-502.3L26.6,-508.4L53.9,-512.6L81.5,-514.6L109.3,-514.3L137.1,-511.6L164.6,-506.4L191.4,-498.7L217.5,-488.6L242.5,-476.0L266.2,-461.2L288.5,-444.2L309.1,-425.4L327.9,-404.9L344.9,-383.0L360.0,-360.0L373.3,-336.1L384.8,-311.6L394.6,-286.7L415.3,-269.7L435.0,-251.2L453.6,-231.1L470.9,-209.6L486.4,-186.7L500.1,-162.5L511.6,-137.1L520.9,-110.7L527.6,-83.6L531.9,-55.9L533.5,-28.0L532.5,-0.0Z" fill="none" stroke="#fae9dd" stroke-width="2.1" stroke-linecap="round" opacity="0.95"/><path d="M537.9,0.0L529.9,27.8L527.7,55.5L531.2,84.1L533.0,113.3L532.7,142.7L530.1,172.3L525.3,201.6L518.0,230.6L508.2,258.9L495.9,286.3L481.2,312.5L464.2,337.2L445.0,360.3L423.8,381.6L400.9,400.9L376.5,418.1L350.8,433.2L324.1,446.1L296.8,457.0L268.9,465.8L240.9,472.8L215.8,484.7L192.8,502.1L168.4,518.2L142.7,532.7L115.9,545.2L88.0,555.7L59.3,563.9L29.8,569.5L0.0,572.6L-30.0,573.0L-60.0,570.6L-89.6,565.6L-118.6,557.9L-146.7,547.7L-173.9,535.1L-199.8,520.4L-224.3,503.8L-247.4,485.5L-268.9,465.8L-289.0,445.0L-311.9,429.3L-338.5,418.0L-364.6,404.9L-389.9,389.9L-414.2,373.0L-437.3,354.1L-458.7,333.3L-478.3,310.6L-495.9,286.3L-511.2,260.5L-524.2,233.4L-534.6,205.2L-542.4,176.2L-547.7,146.7L-550.3,117.0L-550.6,87.2L-548.4,57.6L-544.1,28.5L-537.9,0.0L-529.9,-27.8L-527.7,-55.5L-531.2,-84.1L-533.0,-113.3L-532.7,-142.7L-530.1,-172.3L-525.3,-201.6L-518.0,-230.6L-508.2,-258.9L-495.9,-286.3L-481.2,-312.5L-464.2,-337.2L-445.0,-360.3L-423.8,-381.6L-400.9,-400.9L-376.5,-418.1L-350.8,-433.2L-324.1,-446.1L-296.8,-457.0L-268.9,-465.8L-240.9,-472.8L-215.8,-484.7L-192.8,-502.1L-168.4,-518.2L-142.7,-532.7L-115.9,-545.2L-88.0,-555.7L-59.3,-563.9L-29.8,-569.5L-0.0,-572.6L30.0,-573.0L60.0,-570.6L89.6,-565.6L118.6,-557.9L146.7,-547.7L173.9,-535.1L199.8,-520.4L224.3,-503.8L247.4,-485.5L268.9,-465.8L289.0,-445.0L311.9,-429.3L338.5,-418.0L364.6,-404.9L389.9,-389.9L414.2,-373.0L437.3,-354.1L458.7,-333.3L478.3,-310.6L495.9,-286.3L511.2,-260.5L524.2,-233.4L534.6,-205.2L542.4,-176.2L547.7,-146.7L550.3,-117.0L550.6,-87.2L548.4,-57.6L544.1,-28.5L537.9,-0.0Z" fill="none" stroke="#cefdf8" stroke-width="2.1" stroke-linecap="round" opacity="0.95"/><path d="M599.2,0.0L603.2,31.6L604.5,63.5L603.2,95.5L599.0,127.3L592.1,158.7L582.4,189.2L570.1,218.9L555.3,247.2L538.2,274.2L519.0,299.6L497.9,323.3L475.2,345.2L451.2,365.3L426.1,383.6L400.2,400.2L383.6,426.1L365.3,451.2L345.2,475.2L323.3,497.9L299.6,519.0L274.2,538.2L247.2,555.3L218.9,570.1L189.2,582.4L158.7,592.1L127.3,599.0L95.5,603.2L63.5,604.5L31.6,603.2L0.0,599.2L-31.1,592.8L-61.4,584.1L-90.8,573.4L-119.2,560.8L-146.5,546.7L-177.2,545.3L-208.0,542.0L-238.9,536.6L-269.5,528.9L-299.6,519.0L-329.0,506.6L-357.3,491.8L-384.3,474.6L-409.8,455.1L-433.5,433.5L-455.1,409.8L-474.6,384.3L-491.8,357.3L-506.6,329.0L-519.0,299.6L-528.9,269.5L-536.6,238.9L-542.0,208.0L-545.3,177.2L-546.7,146.5L-560.8,119.2L-573.4,90.8L-584.1,61.4L-592.8,31.1L-599.2,0.0L-603.2,-31.6L-604.5,-63.5L-603.2,-95.5L-599.0,-127.3L-592.1,-158.7L-582.4,-189.2L-570.1,-218.9L-555.3,-247.2L-538.2,-274.2L-519.0,-299.6L-497.9,-323.3L-475.2,-345.2L-451.2,-365.3L-426.1,-383.6L-400.2,-400.2L-383.6,-426.1L-365.3,-451.2L-345.2,-475.2L-323.3,-497.9L-299.6,-519.0L-274.2,-538.2L-247.2,-555.3L-218.9,-570.1L-189.2,-582.4L-158.7,-592.1L-127.3,-599.0L-95.5,-603.2L-63.5,-604.5L-31.6,-603.2L-0.0,-599.2L31.1,-592.8L61.4,-584.1L90.8,-573.4L119.2,-560.8L146.5,-546.7L177.2,-545.3L208.0,-542.0L238.9,-536.6L269.5,-528.9L299.6,-519.0L329.0,-506.6L357.3,-491.8L384.3,-474.6L409.8,-455.1L433.5,-433.5L455.1,-409.8L474.6,-384.3L491.8,-357.3L506.6,-329.0L519.0,-299.6L528.9,-269.5L536.6,-238.9L542.0,-208.0L545.3,-177.2L546.7,-146.5L560.8,-119.2L573.4,-90.8L584.1,-61.4L592.8,-31.1L599.2,-0.0Z" fill="none" stroke="#fae9dd" stroke-width="2.1" stroke-linecap="round" opacity="0.95"/><path d="M650.8,0.0L647.6,33.9L641.6,67.4L632.9,100.2L621.7,132.2L608.2,163.0L592.6,192.5L575.2,220.8L556.2,247.6L542.4,276.4L533.5,308.0L522.6,339.4L509.4,370.1L494.0,400.0L476.2,428.8L456.2,456.2L433.9,481.9L409.6,505.8L383.2,527.4L355.1,546.8L325.4,563.6L294.4,577.8L262.4,589.4L229.7,598.3L196.4,604.5L163.0,608.2L129.5,609.5L96.4,608.5L63.6,605.5L31.9,608.0L0.0,616.1L-32.6,622.2L-65.8,626.2L-99.4,627.8L-133.2,626.8L-167.0,623.2L-200.4,616.8L-233.2,607.6L-265.2,595.6L-296.0,580.9L-325.4,563.6L-353.2,543.9L-379.2,522.0L-403.3,498.0L-425.3,472.4L-445.2,445.2L-463.0,416.9L-478.8,387.7L-492.5,357.8L-510.6,331.6L-533.5,308.0L-555.2,282.9L-575.2,256.1L-593.4,227.8L-609.5,198.0L-623.2,167.0L-634.4,134.8L-642.8,101.8L-648.4,68.1L-651.1,34.1L-650.8,0.0L-647.6,-33.9L-641.6,-67.4L-632.9,-100.2L-621.7,-132.2L-608.2,-163.0L-592.6,-192.5L-575.2,-220.8L-556.2,-247.6L-542.4,-276.4L-533.5,-308.0L-522.6,-339.4L-509.4,-370.1L-494.0,-400.0L-476.2,-428.8L-456.2,-456.2L-433.9,-481.9L-409.6,-505.8L-383.2,-527.4L-355.1,-546.8L-325.4,-563.6L-294.4,-577.8L-262.4,-589.4L-229.7,-598.3L-196.4,-604.5L-163.0,-608.2L-129.5,-609.5L-96.4,-608.5L-63.6,-605.5L-31.9,-608.0L-0.0,-616.1L32.6,-622.2L65.8,-626.2L99.4,-627.8L133.2,-626.8L167.0,-623.2L200.4,-616.8L233.2,-607.6L265.2,-595.6L296.0,-580.9L325.4,-563.6L353.2,-543.9L379.2,-522.0L403.3,-498.0L425.3,-472.4L445.2,-445.2L463.0,-416.9L478.8,-387.7L492.5,-357.8L510.6,-331.6L533.5,-308.0L555.2,-282.9L575.2,-256.1L593.4,-227.8L609.5,-198.0L623.2,-167.0L634.4,-134.8L642.8,-101.8L648.4,-68.1L651.1,-34.1L650.8,-0.0Z" fill="none" stroke="#cefdf8" stroke-width="2.1" stroke-linecap="round" opacity="0.95"/><path d="M658.7,0.0L650.7,34.1L640.7,67.3L643.5,101.9L644.3,137.0L642.9,172.3L638.9,207.6L632.4,242.8L623.2,277.5L611.3,311.5L596.6,344.4L579.2,376.1L559.2,406.3L536.7,434.6L512.0,461.0L485.1,485.1L456.5,507.0L426.3,526.5L394.9,543.5L362.5,558.2L329.4,570.5L295.8,580.5L262.0,588.5L233.5,608.3L203.6,626.5L172.3,642.9L139.7,657.1L106.0,669.1L71.3,678.5L35.9,685.1L0.0,688.9L-36.1,689.7L-72.3,687.4L-108.0,682.1L-143.2,673.8L-177.6,662.7L-210.8,648.8L-242.8,632.4L-273.3,613.7L-302.1,593.0L-329.4,570.5L-354.9,546.4L-378.7,521.2L-410.0,506.4L-440.8,489.5L-470.6,470.6L-499.3,449.5L-526.5,426.3L-551.9,401.0L-575.4,373.7L-596.6,344.4L-615.3,313.5L-631.4,281.1L-644.8,247.5L-655.2,212.9L-662.7,177.6L-667.3,141.8L-669.1,106.0L-668.1,70.2L-664.6,34.8L-658.7,0.0L-650.7,-34.1L-640.7,-67.3L-643.5,-101.9L-644.3,-137.0L-642.9,-172.3L-638.9,-207.6L-632.4,-242.8L-623.2,-277.5L-611.3,-311.5L-596.6,-344.4L-579.2,-376.1L-559.2,-406.3L-536.7,-434.6L-512.0,-461.0L-485.1,-485.1L-456.5,-507.0L-426.3,-526.5L-394.9,-543.5L-362.5,-558.2L-329.4,-570.5L-295.8,-580.5L-262.0,-588.5L-233.5,-608.3L-203.6,-626.5L-172.3,-642.9L-139.7,-657.1L-106.0,-669.1L-71.3,-678.5L-35.9,-685.1L-0.0,-688.9L36.1,-689.7L72.3,-687.4L108.0,-682.1L143.2,-673.8L177.6,-662.7L210.8,-648.8L242.8,-632.4L273.3,-613.7L302.1,-593.0L329.4,-570.5L354.9,-546.4L378.7,-521.2L410.0,-506.4L440.8,-489.5L470.6,-470.6L499.3,-449.5L526.5,-426.3L551.9,-401.0L575.4,-373.7L596.6,-344.4L615.3,-313.5L631.4,-281.1L644.8,-247.5L655.2,-212.9L662.7,-177.6L667.3,-141.8L669.1,-106.0L668.1,-70.2L664.6,-34.8L658.7,-0.0Z" fill="none" stroke="#fae9dd" stroke-width="2.1" stroke-linecap="round" opacity="0.95"/><path d="M713.8,0.0L718.1,37.6L719.4,75.6L717.8,113.7L713.1,151.6L705.3,189.0L694.4,225.6L680.6,261.3L663.9,295.6L644.5,328.4L622.7,359.5L598.7,388.8L572.7,416.1L545.0,441.3L515.9,464.6L485.8,485.8L459.7,510.5L436.9,539.6L412.2,567.4L385.5,593.7L356.9,618.2L326.4,640.7L294.2,660.8L260.4,678.5L225.3,693.3L189.0,705.3L151.8,714.2L114.0,720.0L76.0,722.7L37.9,722.4L0.0,719.0L-37.4,712.8L-74.0,704.0L-109.7,692.7L-144.3,679.1L-177.8,663.6L-212.3,653.4L-248.8,648.2L-285.2,640.7L-321.4,630.7L-356.9,618.2L-391.6,603.0L-425.2,585.2L-457.3,564.8L-487.8,541.8L-516.3,516.3L-542.6,488.6L-566.5,458.8L-587.9,427.2L-606.7,394.0L-622.7,359.5L-636.0,324.1L-646.7,287.9L-654.7,251.3L-660.3,214.5L-663.6,177.8L-672.0,142.8L-685.7,108.6L-697.4,73.3L-706.9,37.0L-713.8,0.0L-718.1,-37.6L-719.4,-75.6L-717.8,-113.7L-713.1,-151.6L-705.3,-189.0L-694.4,-225.6L-680.6,-261.3L-663.9,-295.6L-644.5,-328.4L-622.7,-359.5L-598.7,-388.8L-572.7,-416.1L-545.0,-441.3L-515.9,-464.6L-485.8,-485.8L-459.7,-510.5L-436.9,-539.6L-412.2,-567.4L-385.5,-593.7L-356.9,-618.2L-326.4,-640.7L-294.2,-660.8L-260.4,-678.5L-225.3,-693.3L-189.0,-705.3L-151.8,-714.2L-114.0,-720.0L-76.0,-722.7L-37.9,-722.4L-0.0,-719.0L37.4,-712.8L74.0,-704.0L109.7,-692.7L144.3,-679.1L177.8,-663.6L212.3,-653.4L248.8,-648.2L285.2,-640.7L321.4,-630.7L356.9,-618.2L391.6,-603.0L425.2,-585.2L457.3,-564.8L487.8,-541.8L516.3,-516.3L542.6,-488.6L566.5,-458.8L587.9,-427.2L606.7,-394.0L622.7,-359.5L636.0,-324.1L646.7,-287.9L654.7,-251.3L660.3,-214.5L663.6,-177.8L672.0,-142.8L685.7,-108.6L697.4,-73.3L706.9,-37.0L713.8,-0.0Z" fill="none" stroke="#cefdf8" stroke-width="2.1" stroke-linecap="round" opacity="0.95"/><path d="M768.8,0.0L766.0,40.1L760.1,79.9L751.1,119.0L739.1,157.1L724.5,194.1L707.3,229.8L688.0,264.1L666.7,296.8L643.7,328.0L632.0,364.9L618.0,401.4L601.7,437.2L582.9,472.0L561.5,505.6L537.7,537.7L511.4,568.0L482.8,596.1L451.9,622.0L419.0,645.3L384.4,665.8L348.3,683.5L310.9,698.2L272.5,709.9L233.5,718.7L194.1,724.5L154.6,727.5L115.3,727.9L76.3,725.8L37.8,721.4L0.0,729.8L-38.6,735.9L-77.7,739.7L-117.3,740.8L-157.1,739.1L-196.8,734.5L-236.2,726.9L-274.9,716.1L-312.7,702.4L-349.3,685.5L-384.4,665.8L-417.8,643.3L-449.2,618.3L-478.6,591.0L-505.6,561.5L-530.3,530.3L-552.7,497.7L-572.7,463.8L-590.4,428.9L-605.9,393.4L-632.0,364.9L-656.6,334.6L-679.4,302.5L-700.2,268.8L-718.7,233.5L-734.5,196.8L-747.6,158.9L-757.7,120.0L-764.6,80.4L-768.3,40.3L-768.8,0.0L-766.0,-40.1L-760.1,-79.9L-751.1,-119.0L-739.1,-157.1L-724.5,-194.1L-707.3,-229.8L-688.0,-264.1L-666.7,-296.8L-643.7,-328.0L-632.0,-364.9L-618.0,-401.4L-601.7,-437.2L-582.9,-472.0L-561.5,-505.6L-537.7,-537.7L-511.4,-568.0L-482.8,-596.1L-451.9,-622.0L-419.0,-645.3L-384.4,-665.8L-348.3,-683.5L-310.9,-698.2L-272.5,-709.9L-233.5,-718.7L-194.1,-724.5L-154.6,-727.5L-115.3,-727.9L-76.3,-725.8L-37.8,-721.4L-0.0,-729.8L38.6,-735.9L77.7,-739.7L117.3,-740.8L157.1,-739.1L196.8,-734.5L236.2,-726.9L274.9,-716.1L312.7,-702.4L349.3,-685.5L384.4,-665.8L417.8,-643.3L449.2,-618.3L478.6,-591.0L505.6,-561.5L530.3,-530.3L552.7,-497.7L572.7,-463.8L590.4,-428.9L605.9,-393.4L632.0,-364.9L656.6,-334.6L679.4,-302.5L700.2,-268.8L718.7,-233.5L734.5,-196.8L747.6,-158.9L757.7,-120.0L764.6,-80.4L768.3,-40.3L768.8,-0.0Z" fill="none" stroke="#fae9dd" stroke-width="2.1" stroke-linecap="round" opacity="0.95"/>
</svg>