<svg xmlns="http://www.w3.org/2000/svg" viewBox="-250 -250 500 500">
<rect x="-250" y="-250" width="500" height="500" fill="#120a28"/>
<path d="M188.0,0.0L186.4,9.8L181.7,19.1L174.3,27.6L165.0,35.1L154.5,41.4L143.9,46.8L134.0,51.4L125.5,55.9L118.8,60.5L114.3,66.0L111.9,72.6L111.1,80.7L111.6,90.3L112.5,101.3L113.1,113.1L112.9,125.3L111.0,137.1L107.4,147.8L101.6,156.5L94.0,162.8L84.7,166.3L74.3,166.9L63.2,164.7L52.1,160.4L41.4,154.5L31.5,148.0L22.5,141.8L14.4,136.6L7.0,133.2L0.0,132.0L-7.0,133.2L-14.4,136.6L-22.5,141.8L-31.5,148.0L-41.4,154.5L-52.1,160.4L-63.2,164.7L-74.3,166.9L-84.7,166.3L-94.0,162.8L-101.6,156.5L-107.4,147.8L-111.0,137.1L-112.9,125.3L-113.1,113.1L-112.5,101.3L-111.6,90.3L-111.1,80.7L-111.9,72.6L-114.3,66.0L-118.8,60.5L-125.5,55.9L-134.0,51.4L-143.9,46.8L-154.5,41.4L-165.0,35.1L-174.3,27.6L-181.7,19.1L-186.4,9.8L-188.0,0.0L-186.4,-9.8L-181.7,-19.1L-174.3,-27.6L-165.0,-35.1L-154.5,-41.4L-143.9,-46.8L-134.0,-51.4L-125.5,-55.9L-118.8,-60.5L-114.3,-66.0L-111.9,-72.6L-111.1,-80.7L-111.6,-90.3L-112.5,-101.3L-113.1,-113.1L-112.9,-125.3L-111.0,-137.1L-107.4,-147.8L-101.6,-156.5L-94.0,-162.8L-84.7,-166.3L-74.3,-166.9L-63.2,-164.7L-52.1,-160.4L-41.4,-154.5L-31.5,-148.0L-22.5,-141.8L-14.4,-136.6L-7.0,-133.2L-0.0,-132.0L7.0,-133.2L14.4,-136.6L22.5,-141.8L31.5,-148.0L41.4,-154.5L52.1,-160.4L63.2,-164.7L74.3,-166.9L84.7,-166.3L94.0,-162.8L101.6,-156.5L107.4,-147.8L111.0,-137.1L112.9,-125.3L113.1,-113.1L112.5,-101.3L111.6,-90.3L111.1,-80.7L111.9,-72.6L114.3,-66.0L118.8,-60.5L125.5,-55.9L134.0,-51.4L143.9,-46.8L154.5,-41.4L165.0,-35.1L174.3,-27.6L181.7,-19.1L186.4,-9.8L188.0,-0.0Z" fill="none" stroke="#ebe1ff" stroke-width="1.8" stroke-linecap="round" opacity="0.95"/>
<path d="M185.6,0.0L187.6,9.8L186.4,19.6L182.0,28.8L174.8,37.2L165.5,44.4L155.0,50.3L143.9,55.3L133.4,59.4L124.0,63.2L116.4,67.2L110.8,72.0L107.3,77.9L105.5,85.4L105.0,94.5L105.1,105.1L105.1,116.7L104.4,128.9L102.3,140.8L98.5,151.6L92.8,160.7L85.3,167.4L76.2,171.2L66.0,172.0L55.2,170.0L44.4,165.5L33.9,159.4L24.1,152.3L15.3,145.2L7.3,139.0L0.0,134.4L-6.9,132.0L-13.9,131.9L-21.2,134.1L-29.4,138.2L-38.5,143.5L-48.5,149.4L-59.4,154.8L-70.8,159.0L-82.1,161.1L-92.8,160.7L-102.3,157.5L-110.1,151.6L-116.0,143.2L-119.6,132.8L-121.2,121.2L-121.1,109.0L-119.8,97.0L-118.1,85.8L-116.7,75.8L-116.4,67.2L-117.7,60.0L-121.1,53.9L-126.7,48.6L-134.4,43.7L-143.5,38.5L-153.6,32.7L-163.8,25.9L-173.0,18.2L-180.6,9.5L-185.6,0.0L-187.6,-9.8L-186.4,-19.6L-182.0,-28.8L-174.8,-37.2L-165.5,-44.4L-155.0,-50.3L-143.9,-55.3L-133.4,-59.4L-124.0,-63.2L-116.4,-67.2L-110.8,-72.0L-107.3,-77.9L-105.5,-85.4L-105.0,-94.5L-105.1,-105.1L-105.1,-116.7L-104.4,-128.9L-102.3,-140.8L-98.5,-151.6L-92.8,-160.7L-85.3,-167.4L-76.2,-171.2L-66.0,-172.0L-55.2,-170.0L-44.4,-165.5L-33.9,-159.4L-24.1,-152.3L-15.3,-145.2L-7.3,-139.0L-0.0,-134.4L6.9,-132.0L13.9,-131.9L21.2,-134.1L29.4,-138.2L38.5,-143.5L48.5,-149.4L59.4,-154.8L70.8,-159.0L82.1,-161.1L92.8,-160.7L102.3,-157.5L110.1,-151.6L116.0,-143.2L119.6,-132.8L121.2,-121.2L121.1,-109.0L119.8,-97.0L118.1,-85.8L116.7,-75.8L116.4,-67.2L117.7,-60.0L121.1,-53.9L126.7,-48.6L134.4,-43.7L143.5,-38.5L153.6,-32.7L163.8,-25.9L173.0,-18.2L180.6,-9.5L185.6,-0.0Z" fill="none" stroke="#ffe1f4" stroke-width="1.8" stroke-linecap="round" opacity="0.95"/>
<path d="M178.7,0.0L184.0,9.6L186.4,19.6L185.5,29.4L181.5,38.6L174.6,46.8L165.5,53.8L154.8,59.4L143.5,63.9L132.4,67.5L122.3,70.6L113.9,73.9L107.3,77.9L102.7,83.2L99.9,89.9L98.4,98.4L97.7,108.5L97.0,119.8L95.8,131.8L93.3,143.7L89.4,154.8L83.6,164.2L76.2,171.2L67.3,175.4L57.3,176.5L46.8,174.6L36.2,170.2L25.9,163.8L16.4,156.2L7.8,148.4L0.0,141.3L-7.1,135.6L-13.9,131.9L-20.7,130.5L-27.9,131.5L-36.0,134.4L-45.1,138.9L-55.3,143.9L-66.3,148.8L-77.8,152.7L-89.4,154.8L-100.3,154.5L-110.1,151.6L-118.2,146.0L-124.2,137.9L-127.9,127.9L-129.3,116.4L-128.9,104.4L-127.1,92.3L-124.6,80.9L-122.3,70.6L-121.0,61.6L-121.1,53.9L-123.4,47.4L-127.8,41.5L-134.4,36.0L-142.8,30.4L-152.3,24.1L-162.0,17.0L-171.2,9.0L-178.7,0.0L-184.0,-9.6L-186.4,-19.6L-185.5,-29.4L-181.5,-38.6L-174.6,-46.8L-165.5,-53.8L-154.8,-59.4L-143.5,-63.9L-132.4,-67.5L-122.3,-70.6L-113.9,-73.9L-107.3,-77.9L-102.7,-83.2L-99.9,-89.9L-98.4,-98.4L-97.7,-108.5L-97.0,-119.8L-95.8,-131.8L-93.3,-143.7L-89.4,-154.8L-83.6,-164.2L-76.2,-171.2L-67.3,-175.4L-57.3,-176.5L-46.8,-174.6L-36.2,-170.2L-25.9,-163.8L-16.4,-156.2L-7.8,-148.4L-0.0,-141.3L7.1,-135.6L13.9,-131.9L20.7,-130.5L27.9,-131.5L36.0,-134.4L45.1,-138.9L55.3,-143.9L66.3,-148.8L77.8,-152.7L89.4,-154.8L100.3,-154.5L110.1,-151.6L118.2,-146.0L124.2,-137.9L127.9,-127.9L129.3,-116.4L128.9,-104.4L127.1,-92.3L124.6,-80.9L122.3,-70.6L121.0,-61.6L121.1,-53.9L123.4,-47.4L127.8,-41.5L134.4,-36.0L142.8,-30.4L152.3,-24.1L162.0,-17.0L171.2,-9.0L178.7,-0.0Z" fill="none" stroke="#ebe1ff" stroke-width="1.8" stroke-linecap="round" opacity="0.95"/>
<path d="M168.7,0.0L176.2,9.2L181.7,19.1L184.3,29.2L183.9,39.1L180.3,48.3L173.7,56.4L164.7,63.2L154.1,68.6L142.6,72.6L131.1,75.7L120.4,78.2L111.1,80.7L103.6,83.9L98.1,88.3L94.3,94.3L91.9,102.1L90.3,111.6L89.0,122.4L87.1,134.2L84.3,146.1L80.1,157.2L74.3,166.9L66.9,174.2L58.1,178.8L48.3,180.3L38.0,178.7L27.6,174.3L17.6,167.7L8.4,159.8L0.0,151.3L-7.5,143.3L-14.4,136.6L-20.9,131.7L-27.4,129.1L-34.5,128.8L-42.4,130.6L-51.4,134.0L-61.6,138.3L-72.6,142.6L-84.3,146.1L-96.1,148.0L-107.4,147.8L-117.4,145.0L-125.8,139.7L-132.0,132.0L-135.7,122.2L-137.1,111.0L-136.4,99.1L-134.2,87.1L-131.1,75.7L-127.9,65.2L-125.5,55.9L-124.5,47.8L-125.5,40.8L-128.8,34.5L-134.3,28.6L-141.8,22.5L-150.5,15.8L-159.8,8.4L-168.7,0.0L-176.2,-9.2L-181.7,-19.1L-184.3,-29.2L-183.9,-39.1L-180.3,-48.3L-173.7,-56.4L-164.7,-63.2L-154.1,-68.6L-142.6,-72.6L-131.1,-75.7L-120.4,-78.2L-111.1,-80.7L-103.6,-83.9L-98.1,-88.3L-94.3,-94.3L-91.9,-102.1L-90.3,-111.6L-89.0,-122.4L-87.1,-134.2L-84.3,-146.1L-80.1,-157.2L-74.3,-166.9L-66.9,-174.2L-58.1,-178.8L-48.3,-180.3L-38.0,-178.7L-27.6,-174.3L-17.6,-167.7L-8.4,-159.8L-0.0,-151.3L7.5,-143.3L14.4,-136.6L20.9,-131.7L27.4,-129.1L34.5,-128.8L42.4,-130.6L51.4,-134.0L61.6,-138.3L72.6,-142.6L84.3,-146.1L96.1,-148.0L107.4,-147.8L117.4,-145.0L125.8,-139.7L132.0,-132.0L135.7,-122.2L137.1,-111.0L136.4,-99.1L134.2,-87.1L131.1,-75.7L127.9,-65.2L125.5,-55.9L124.5,-47.8L125.5,-40.8L128.8,-34.5L134.3,-28.6L141.8,-22.5L150.5,-15.8L159.8,-8.4L168.7,-0.0Z" fill="none" stroke="#ffe1f4" stroke-width="1.8" stroke-linecap="round" opacity="0.95"/>
<path d="M157.1,0.0L165.6,8.7L173.0,18.2L178.6,28.3L181.5,38.6L181.4,48.6L178.2,57.9L172.0,66.0L163.3,72.7L152.7,77.8L141.1,81.5L129.3,84.0L118.1,85.8L108.2,87.6L99.9,89.9L93.4,93.4L88.7,98.5L85.4,105.5L83.0,114.3L80.9,124.6L78.5,136.0L75.3,147.7L70.8,159.0L64.8,168.8L57.3,176.5L48.6,181.4L39.0,183.3L28.8,182.0L18.7,177.8L9.0,171.2L0.0,162.9L-8.1,154.0L-15.3,145.2L-21.8,137.5L-27.9,131.5L-34.2,127.7L-41.0,126.1L-48.6,126.7L-57.5,129.1L-67.5,132.4L-78.5,136.0L-90.3,139.1L-102.3,140.8L-113.8,140.5L-124.2,137.9L-132.8,132.8L-139.3,125.4L-143.2,116.0L-144.6,105.1L-143.7,93.3L-141.1,81.5L-137.4,70.0L-133.4,59.4L-129.9,49.9L-127.8,41.5L-127.7,34.2L-129.7,27.6L-134.1,21.2L-140.5,14.8L-148.4,7.8L-157.1,0.0L-165.6,-8.7L-173.0,-18.2L-178.6,-28.3L-181.5,-38.6L-181.4,-48.6L-178.2,-57.9L-172.0,-66.0L-163.3,-72.7L-152.7,-77.8L-141.1,-81.5L-129.3,-84.0L-118.1,-85.8L-108.2,-87.6L-99.9,-89.9L-93.4,-93.4L-88.7,-98.5L-85.4,-105.5L-83.0,-114.3L-80.9,-124.6L-78.5,-136.0L-75.3,-147.7L-70.8,-159.0L-64.8,-168.8L-57.3,-176.5L-48.6,-181.4L-39.0,-183.3L-28.8,-182.0L-18.7,-177.8L-9.0,-171.2L-0.0,-162.9L8.1,-154.0L15.3,-145.2L21.8,-137.5L27.9,-131.5L34.2,-127.7L41.0,-126.1L48.6,-126.7L57.5,-129.1L67.5,-132.4L78.5,-136.0L90.3,-139.1L102.3,-140.8L113.8,-140.5L124.2,-137.9L132.8,-132.8L139.3,-125.4L143.2,-116.0L144.6,-105.1L143.7,-93.3L141.1,-81.5L137.4,-70.0L133.4,-59.4L129.9,-49.9L127.8,-41.5L127.7,-34.2L129.7,-27.6L134.1,-21.2L140.5,-14.8L148.4,-7.8L157.1,-0.0Z" fill="none" stroke="#ebe1ff" stroke-width="1.8" stroke-linecap="round" opacity="0.95"/>
<path d="M146.0,0.0L154.0,8.1L162.0,17.0L169.3,26.8L174.8,37.2L178.0,47.7L178.2,57.9L175.4,67.3L169.5,75.5L161.1,82.1L150.7,87.0L139.1,90.3L127.1,92.3L115.5,93.5L105.0,94.5L96.0,96.0L88.7,98.5L83.2,102.7L79.0,108.7L75.8,116.7L73.0,126.4L70.0,137.4L66.3,148.8L61.4,160.0L55.2,170.0L47.7,178.0L39.0,183.3L29.4,185.5L19.4,184.6L9.5,180.6L0.0,174.0L-8.7,165.6L-16.4,156.2L-23.2,146.8L-29.4,138.2L-35.1,131.1L-41.0,126.1L-47.4,123.4L-54.7,122.8L-63.2,124.0L-73.0,126.4L-84.0,129.3L-95.8,131.8L-107.9,133.2L-119.6,132.8L-130.3,130.3L-139.3,125.4L-146.0,118.2L-150.1,109.1L-151.6,98.5L-150.7,87.0L-147.7,75.3L-143.5,63.9L-138.7,53.3L-134.4,43.7L-131.1,35.1L-129.7,27.6L-130.5,20.7L-133.7,14.1L-139.0,7.3L-146.0,0.0L-154.0,-8.1L-162.0,-17.0L-169.3,-26.8L-174.8,-37.2L-178.0,-47.7L-178.2,-57.9L-175.4,-67.3L-169.5,-75.5L-161.1,-82.1L-150.7,-87.0L-139.1,-90.3L-127.1,-92.3L-115.5,-93.5L-105.0,-94.5L-96.0,-96.0L-88.7,-98.5L-83.2,-102.7L-79.0,-108.7L-75.8,-116.7L-73.0,-126.4L-70.0,-137.4L-66.3,-148.8L-61.4,-160.0L-55.2,-170.0L-47.7,-178.0L-39.0,-183.3L-29.4,-185.5L-19.4,-184.6L-9.5,-180.6L-0.0,-174.0L8.7,-165.6L16.4,-156.2L23.2,-146.8L29.4,-138.2L35.1,-131.1L41.0,-126.1L47.4,-123.4L54.7,-122.8L63.2,-124.0L73.0,-126.4L84.0,-129.3L95.8,-131.8L107.9,-133.2L119.6,-132.8L130.3,-130.3L139.3,-125.4L146.0,-118.2L150.1,-109.1L151.6,-98.5L150.7,-87.0L147.7,-75.3L143.5,-63.9L138.7,-53.3L134.4,-43.7L131.1,-35.1L129.7,-27.6L130.5,-20.7L133.7,-14.1L139.0,-7.3L146.0,-0.0Z" fill="none" stroke="#ffe1f4" stroke-width="1.8" stroke-linecap="round" opacity="0.95"/>
<path d="M137.3,0.0L143.3,7.5L150.5,15.8L158.0,25.0L165.0,35.1L170.4,45.7L173.7,56.4L174.2,66.9L171.7,76.5L166.3,84.7L158.2,91.3L148.0,96.1L136.4,99.1L124.3,100.7L112.5,101.3L101.5,101.5L91.9,102.1L83.9,103.6L77.6,106.8L72.6,111.9L68.7,118.9L65.2,127.9L61.6,138.3L57.3,149.4L52.1,160.4L45.7,170.4L38.0,178.7L29.2,184.3L19.7,187.0L9.8,186.4L0.0,182.7L-9.2,176.2L-17.6,167.7L-25.0,158.0L-31.5,148.0L-37.2,138.7L-42.4,130.6L-47.8,124.5L-53.7,120.6L-60.5,118.8L-68.7,118.9L-78.2,120.4L-89.0,122.4L-100.7,124.3L-112.9,125.3L-124.8,124.8L-135.7,122.2L-145.0,117.4L-152.1,110.5L-156.5,101.6L-158.2,91.3L-157.2,80.1L-154.1,68.6L-149.4,57.3L-143.9,46.8L-138.7,37.2L-134.3,28.6L-131.7,20.9L-131.3,13.8L-133.2,7.0L-137.3,0.0L-143.3,-7.5L-150.5,-15.8L-158.0,-25.0L-165.0,-35.1L-170.4,-45.7L-173.7,-56.4L-174.2,-66.9L-171.7,-76.5L-166.3,-84.7L-158.2,-91.3L-148.0,-96.1L-136.4,-99.1L-124.3,-100.7L-112.5,-101.3L-101.5,-101.5L-91.9,-102.1L-83.9,-103.6L-77.6,-106.8L-72.6,-111.9L-68.7,-118.9L-65.2,-127.9L-61.6,-138.3L-57.3,-149.4L-52.1,-160.4L-45.7,-170.4L-38.0,-178.7L-29.2,-184.3L-19.7,-187.0L-9.8,-186.4L-0.0,-182.7L9.2,-176.2L17.6,-167.7L25.0,-158.0L31.5,-148.0L37.2,-138.7L42.4,-130.6L47.8,-124.5L53.7,-120.6L60.5,-118.8L68.7,-118.9L78.2,-120.4L89.0,-122.4L100.7,-124.3L112.9,-125.3L124.8,-124.8L135.7,-122.2L145.0,-117.4L152.1,-110.5L156.5,-101.6L158.2,-91.3L157.2,-80.1L154.1,-68.6L149.4,-57.3L143.9,-46.8L138.7,-37.2L134.3,-28.6L131.7,-20.9L131.3,-13.8L133.2,-7.0L137.3,-0.0Z" fill="none" stroke="#ebe1ff" stroke-width="1.8" stroke-linecap="round" opacity="0.95"/>
<path d="M132.6,0.0L135.6,7.1L140.5,14.8L146.8,23.2L153.6,32.7L160.2,42.9L165.5,53.8L168.8,64.8L169.5,75.5L167.4,85.3L162.3,93.7L154.5,100.3L144.6,105.1L133.2,107.9L121.1,109.0L109.0,109.0L97.7,108.5L87.6,108.2L79.0,108.7L72.0,110.8L66.3,114.8L61.6,121.0L57.5,129.1L53.3,138.7L48.5,149.4L42.9,160.2L36.2,170.2L28.3,178.6L19.4,184.6L9.8,187.6L0.0,187.4L-9.6,184.0L-18.7,177.8L-26.8,169.3L-33.9,159.4L-39.9,148.9L-45.1,138.9L-49.9,129.9L-54.7,122.8L-60.0,117.7L-66.3,114.8L-73.9,113.9L-83.0,114.3L-93.5,115.5L-105.1,116.7L-117.3,117.3L-129.3,116.4L-140.5,113.8L-150.1,109.1L-157.5,102.3L-162.3,93.7L-164.2,83.6L-163.3,72.7L-160.0,61.4L-155.0,50.3L-148.9,39.9L-142.8,30.4L-137.5,21.8L-133.7,14.1L-132.0,6.9L-132.6,0.0L-135.6,-7.1L-140.5,-14.8L-146.8,-23.2L-153.6,-32.7L-160.2,-42.9L-165.5,-53.8L-168.8,-64.8L-169.5,-75.5L-167.4,-85.3L-162.3,-93.7L-154.5,-100.3L-144.6,-105.1L-133.2,-107.9L-121.1,-109.0L-109.0,-109.0L-97.7,-108.5L-87.6,-108.2L-79.0,-108.7L-72.0,-110.8L-66.3,-114.8L-61.6,-121.0L-57.5,-129.1L-53.3,-138.7L-48.5,-149.4L-42.9,-160.2L-36.2,-170.2L-28.3,-178.6L-19.4,-184.6L-9.8,-187.6L-0.0,-187.4L9.6,-184.0L18.7,-177.8L26.8,-169.3L33.9,-159.4L39.9,-148.9L45.1,-138.9L49.9,-129.9L54.7,-122.8L60.0,-117.7L66.3,-114.8L73.9,-113.9L83.0,-114.3L93.5,-115.5L105.1,-116.7L117.3,-117.3L129.3,-116.4L140.5,-113.8L150.1,-109.1L157.5,-102.3L162.3,-93.7L164.2,-83.6L163.3,-72.7L160.0,-61.4L155.0,-50.3L148.9,-39.9L142.8,-30.4L137.5,-21.8L133.7,-14.1L132.0,-6.9L132.6,-0.0Z" fill="none" stroke="#ffe1f4" stroke-width="1.8" stroke-linecap="round" opacity="0.95"/>
</svg>