<svg xmlns="http://www.w3.org/2000/svg" viewBox="-250 -250 500 500">
<defs><filter id="tg"><feGaussianBlur stdDeviation="20.0"/></filter></defs>
<rect x="-250" y="-250" width="500" height="500" fill="#0c1218"/>
<path d="M55.0,0.0L104.2,5.5L146.3,15.4L175.5,27.8L187.7,39.9L181.5,48.6L158.2,51.4L121.3,46.6L76.4,34.0L68.2,34.8L107.2,61.9L135.8,88.2L150.4,109.3L149.6,121.1L134.3,120.9L107.7,107.7L74.3,82.5L39.2,48.4L57.3,78.9L77.1,118.8L87.1,150.9L86.7,170.1L77.1,173.2L61.1,159.1L42.0,129.3L23.5,87.6L14.4,67.9L18.4,116.1L16.4,156.4L9.6,183.2L0.0,192.6L-9.6,183.2L-16.4,156.4L-18.4,116.1L-14.4,67.9L-23.5,87.6L-42.0,129.3L-61.1,159.1L-77.1,173.2L-86.7,170.1L-87.1,150.9L-77.1,118.8L-57.3,78.9L-39.2,48.4L-74.3,82.5L-107.7,107.7L-134.3,120.9L-149.6,121.1L-150.4,109.3L-135.8,88.2L-107.2,61.9L-68.2,34.8L-76.4,34.0L-121.3,46.6L-158.2,51.4L-181.5,48.6L-187.7,39.9L-175.5,27.8L-146.3,15.4L-104.2,5.5L-55.0,0.0L-104.2,-5.5L-146.3,-15.4L-175.5,-27.8L-187.7,-39.9L-181.5,-48.6L-158.2,-51.4L-121.3,-46.6L-76.4,-34.0L-68.2,-34.8L-107.2,-61.9L-135.8,-88.2L-150.4,-109.3L-149.6,-121.1L-134.3,-120.9L-107.7,-107.7L-74.3,-82.5L-39.2,-48.4L-57.3,-78.9L-77.1,-118.8L-87.1,-150.9L-86.7,-170.1L-77.1,-173.2L-61.1,-159.1L-42.0,-129.3L-23.5,-87.6L-14.4,-67.9L-18.4,-116.1L-16.4,-156.4L-9.6,-183.2L-0.0,-192.6L9.6,-183.2L16.4,-156.4L18.4,-116.1L14.4,-67.9L23.5,-87.6L42.0,-129.3L61.1,-159.1L77.1,-173.2L86.7,-170.1L87.1,-150.9L77.1,-118.8L57.3,-78.9L39.2,-48.4L74.3,-82.5L107.7,-107.7L134.3,-120.9L149.6,-121.1L150.4,-109.3L135.8,-88.2L107.2,-61.9L68.2,-34.8L76.4,-34.0L121.3,-46.6L158.2,-51.4L181.5,-48.6L187.7,-39.9L175.5,-27.8L146.3,-15.4L104.2,-5.5L55.0,-0.0Z" fill="none" stroke="#cfddf2" stroke-width="1.5" stroke-linecap="round" opacity="0.50" filter="url(#tg)"/><path d="M55.0,0.0L104.2,5.5L146.3,15.4L175.5,27.8L187.7,39.9L181.5,48.6L158.2,51.4L121.3,46.6L76.4,34.0L68.2,34.8L107.2,61.9L135.8,88.2L150.4,109.3L149.6,121.1L134.3,120.9L107.7,107.7L74.3,82.5L39.2,48.4L57.3,78.9L77.1,118.8L87.1,150.9L86.7,170.1L77.1,173.2L61.1,159.1L42.0,129.3L23.5,87.6L14.4,67.9L18.4,116.1L16.4,156.4L9.6,183.2L0.0,192.6L-9.6,183.2L-16.4,156.4L-18.4,116.1L-14.4,67.9L-23.5,87.6L-42.0,129.3L-61.1,159.1L-77.1,173.2L-86.7,170.1L-87.1,150.9L-77.1,118.8L-57.3,78.9L-39.2,48.4L-74.3,82.5L-107.7,107.7L-134.3,120.9L-149.6,121.1L-150.4,109.3L-135.8,88.2L-107.2,61.9L-68.2,34.8L-76.4,34.0L-121.3,46.6L-158.2,51.4L-181.5,48.6L-187.7,39.9L-175.5,27.8L-146.3,15.4L-104.2,5.5L-55.0,0.0L-104.2,-5.5L-146.3,-15.4L-175.5,-27.8L-187.7,-39.9L-181.5,-48.6L-158.2,-51.4L-121.3,-46.6L-76.4,-34.0L-68.2,-34.8L-107.2,-61.9L-135.8,-88.2L-150.4,-109.3L-149.6,-121.1L-134.3,-120.9L-107.7,-107.7L-74.3,-82.5L-39.2,-48.4L-57.3,-78.9L-77.1,-118.8L-87.1,-150.9L-86.7,-170.1L-77.1,-173.2L-61.1,-159.1L-42.0,-129.3L-23.5,-87.6L-14.4,-67.9L-18.4,-116.1L-16.4,-156.4L-9.6,-183.2L-0.0,-192.6L9.6,-183.2L16.4,-156.4L18.4,-116.1L14.4,-67.9L23.5,-87.6L42.0,-129.3L61.1,-159.1L77.1,-173.2L86.7,-170.1L87.1,-150.9L77.1,-118.8L57.3,-78.9L39.2,-48.4L74.3,-82.5L107.7,-107.7L134.3,-120.9L149.6,-121.1L150.4,-109.3L135.8,-88.2L107.2,-61.9L68.2,-34.8L76.4,-34.0L121.3,-46.6L158.2,-51.4L181.5,-48.6L187.7,-39.9L175.5,-27.8L146.3,-15.4L104.2,-5.5L55.0,-0.0Z" fill="none" stroke="#cfddf2" stroke-width="0.5" stroke-linecap="round" opacity="0.95"/><path d="M184.5,0.0L170.0,8.9L139.0,14.6L95.8,15.2L46.6,9.9L93.7,25.1L132.9,43.2L158.9,61.0L168.5,75.0L160.9,82.0L137.7,79.5L102.8,66.8L61.7,44.8L53.8,43.5L86.5,77.9L109.3,109.3L119.4,132.7L116.5,143.8L101.9,140.2L78.9,121.6L51.8,89.7L24.9,48.9L36.7,82.4L48.1,125.3L51.5,158.6L47.5,177.3L37.9,178.3L25.5,161.0L13.4,127.8L4.4,83.1L0.0,62.0L-5.8,110.0L-15.7,149.1L-27.5,173.9L-38.5,181.2L-45.6,170.1L-46.3,142.6L-39.5,102.8L-25.2,56.7L-37.8,74.2L-64.3,111.3L-88.8,136.7L-107.1,147.4L-115.5,142.6L-111.6,124.0L-94.9,94.9L-67.0,60.3L-42.6,34.5L-83.8,60.9L-121.6,78.9L-150.1,86.7L-164.9,84.0L-163.1,72.6L-144.3,55.4L-110.7,36.0L-66.8,17.9L-74.6,15.9L-121.1,19.2L-158.1,16.6L-180.3,9.4L-184.5,0.0L-170.0,-8.9L-139.0,-14.6L-95.8,-15.2L-46.6,-9.9L-93.7,-25.1L-132.9,-43.2L-158.9,-61.0L-168.5,-75.0L-160.9,-82.0L-137.7,-79.5L-102.8,-66.8L-61.7,-44.8L-53.8,-43.5L-86.5,-77.9L-109.3,-109.3L-119.4,-132.7L-116.5,-143.8L-101.9,-140.2L-78.9,-121.6L-51.8,-89.7L-24.9,-48.9L-36.7,-82.4L-48.1,-125.3L-51.5,-158.6L-47.5,-177.3L-37.9,-178.3L-25.5,-161.0L-13.4,-127.8L-4.4,-83.1L-0.0,-62.0L5.8,-110.0L15.7,-149.1L27.5,-173.9L38.5,-181.2L45.6,-170.1L46.3,-142.6L39.5,-102.8L25.2,-56.7L37.8,-74.2L64.3,-111.3L88.8,-136.7L107.1,-147.4L115.5,-142.6L111.6,-124.0L94.9,-94.9L67.0,-60.3L42.6,-34.5L83.8,-60.9L121.6,-78.9L150.1,-86.7L164.9,-84.0L163.1,-72.6L144.3,-55.4L110.7,-36.0L66.8,-17.9L74.6,-15.9L121.1,-19.2L158.1,-16.6L180.3,-9.4L184.5,-0.0Z" fill="none" stroke="#cfdef1" stroke-width="1.5" stroke-linecap="round" opacity="0.50" filter="url(#tg)"/><path d="M184.5,0.0L170.0,8.9L139.0,14.6L95.8,15.2L46.6,9.9L93.7,25.1L132.9,43.2L158.9,61.0L168.5,75.0L160.9,82.0L137.7,79.5L102.8,66.8L61.7,44.8L53.8,43.5L86.5,77.9L109.3,109.3L119.4,132.7L116.5,143.8L101.9,140.2L78.9,121.6L51.8,89.7L24.9,48.9L36.7,82.4L48.1,125.3L51.5,158.6L47.5,177.3L37.9,178.3L25.5,161.0L13.4,127.8L4.4,83.1L0.0,62.0L-5.8,110.0L-15.7,149.1L-27.5,173.9L-38.5,181.2L-45.6,170.1L-46.3,142.6L-39.5,102.8L-25.2,56.7L-37.8,74.2L-64.3,111.3L-88.8,136.7L-107.1,147.4L-115.5,142.6L-111.6,124.0L-94.9,94.9L-67.0,60.3L-42.6,34.5L-83.8,60.9L-121.6,78.9L-150.1,86.7L-164.9,84.0L-163.1,72.6L-144.3,55.4L-110.7,36.0L-66.8,17.9L-74.6,15.9L-121.1,19.2L-158.1,16.6L-180.3,9.4L-184.5,0.0L-170.0,-8.9L-139.0,-14.6L-95.8,-15.2L-46.6,-9.9L-93.7,-25.1L-132.9,-43.2L-158.9,-61.0L-168.5,-75.0L-160.9,-82.0L-137.7,-79.5L-102.8,-66.8L-61.7,-44.8L-53.8,-43.5L-86.5,-77.9L-109.3,-109.3L-119.4,-132.7L-116.5,-143.8L-101.9,-140.2L-78.9,-121.6L-51.8,-89.7L-24.9,-48.9L-36.7,-82.4L-48.1,-125.3L-51.5,-158.6L-47.5,-177.3L-37.9,-178.3L-25.5,-161.0L-13.4,-127.8L-4.4,-83.1L-0.0,-62.0L5.8,-110.0L15.7,-149.1L27.5,-173.9L38.5,-181.2L45.6,-170.1L46.3,-142.6L39.5,-102.8L25.2,-56.7L37.8,-74.2L64.3,-111.3L88.8,-136.7L107.1,-147.4L115.5,-142.6L111.6,-124.0L94.9,-94.9L67.0,-60.3L42.6,-34.5L83.8,-60.9L121.6,-78.9L150.1,-86.7L164.9,-84.0L163.1,-72.6L144.3,-55.4L110.7,-36.0L66.8,-17.9L74.6,-15.9L121.1,-19.2L158.1,-16.6L180.3,-9.4L184.5,-0.0Z" fill="none" stroke="#cfdef1" stroke-width="0.5" stroke-linecap="round" opacity="0.95"/><path d="M68.9,0.0L115.0,6.0L150.7,15.8L171.0,27.1L173.2,36.8L157.3,42.1L125.8,40.9L83.6,32.1L36.8,16.4L79.8,40.7L114.6,66.2L136.6,88.7L143.3,104.1L134.6,109.0L112.6,101.4L81.5,81.5L46.1,51.2L38.9,48.0L64.1,88.2L80.2,123.4L85.6,148.2L80.7,158.3L67.5,151.6L49.3,128.4L29.7,91.5L12.3,45.8L17.2,81.0L19.8,125.3L16.7,158.5L9.2,175.9L0.0,174.8L-8.1,155.4L-12.7,120.5L-11.9,74.9L-11.4,53.4L-26.6,99.2L-44.0,135.5L-60.5,157.5L-72.3,162.5L-76.6,150.3L-71.3,123.4L-55.9,86.1L-32.1,44.2L-47.7,59.0L-81.0,90.0L-110.1,110.1L-129.9,117.0L-136.9,110.9L-129.0,93.7L-106.4,69.1L-71.7,41.4L-42.3,21.5L-87.9,39.1L-128.4,49.3L-157.8,51.3L-171.6,46.0L-167.4,35.6L-145.4,23.0L-108.5,11.4L-61.7,3.2L-68.9,0.0L-115.0,-6.0L-150.7,-15.8L-171.0,-27.1L-173.2,-36.8L-157.3,-42.1L-125.8,-40.9L-83.6,-32.1L-36.8,-16.4L-79.8,-40.7L-114.6,-66.2L-136.6,-88.7L-143.3,-104.1L-134.6,-109.0L-112.6,-101.4L-81.5,-81.5L-46.1,-51.2L-38.9,-48.0L-64.1,-88.2L-80.2,-123.4L-85.6,-148.2L-80.7,-158.3L-67.5,-151.6L-49.3,-128.4L-29.7,-91.5L-12.3,-45.8L-17.2,-81.0L-19.8,-125.3L-16.7,-158.5L-9.2,-175.9L-0.0,-174.8L8.1,-155.4L12.7,-120.5L11.9,-74.9L11.4,-53.4L26.6,-99.2L44.0,-135.5L60.5,-157.5L72.3,-162.5L76.6,-150.3L71.3,-123.4L55.9,-86.1L32.1,-44.2L47.7,-59.0L81.0,-90.0L110.1,-110.1L129.9,-117.0L136.9,-110.9L129.0,-93.7L106.4,-69.1L71.7,-41.4L42.3,-21.5L87.9,-39.1L128.4,-49.3L157.8,-51.3L171.6,-46.0L167.4,-35.6L145.4,-23.0L108.5,-11.4L61.7,-3.2L68.9,-0.0Z" fill="none" stroke="#d0e0ef" stroke-width="1.5" stroke-linecap="round" opacity="0.50" filter="url(#tg)"/><path d="M68.9,0.0L115.0,6.0L150.7,15.8L171.0,27.1L173.2,36.8L157.3,42.1L125.8,40.9L83.6,32.1L36.8,16.4L79.8,40.7L114.6,66.2L136.6,88.7L143.3,104.1L134.6,109.0L112.6,101.4L81.5,81.5L46.1,51.2L38.9,48.0L64.1,88.2L80.2,123.4L85.6,148.2L80.7,158.3L67.5,151.6L49.3,128.4L29.7,91.5L12.3,45.8L17.2,81.0L19.8,125.3L16.7,158.5L9.2,175.9L0.0,174.8L-8.1,155.4L-12.7,120.5L-11.9,74.9L-11.4,53.4L-26.6,99.2L-44.0,135.5L-60.5,157.5L-72.3,162.5L-76.6,150.3L-71.3,123.4L-55.9,86.1L-32.1,44.2L-47.7,59.0L-81.0,90.0L-110.1,110.1L-129.9,117.0L-136.9,110.9L-129.0,93.7L-106.4,69.1L-71.7,41.4L-42.3,21.5L-87.9,39.1L-128.4,49.3L-157.8,51.3L-171.6,46.0L-167.4,35.6L-145.4,23.0L-108.5,11.4L-61.7,3.2L-68.9,0.0L-115.0,-6.0L-150.7,-15.8L-171.0,-27.1L-173.2,-36.8L-157.3,-42.1L-125.8,-40.9L-83.6,-32.1L-36.8,-16.4L-79.8,-40.7L-114.6,-66.2L-136.6,-88.7L-143.3,-104.1L-134.6,-109.0L-112.6,-101.4L-81.5,-81.5L-46.1,-51.2L-38.9,-48.0L-64.1,-88.2L-80.2,-123.4L-85.6,-148.2L-80.7,-158.3L-67.5,-151.6L-49.3,-128.4L-29.7,-91.5L-12.3,-45.8L-17.2,-81.0L-19.8,-125.3L-16.7,-158.5L-9.2,-175.9L-0.0,-174.8L8.1,-155.4L12.7,-120.5L11.9,-74.9L11.4,-53.4L26.6,-99.2L44.0,-135.5L60.5,-157.5L72.3,-162.5L76.6,-150.3L71.3,-123.4L55.9,-86.1L32.1,-44.2L47.7,-59.0L81.0,-90.0L110.1,-110.1L129.9,-117.0L136.9,-110.9L129.0,-93.7L106.4,-69.1L71.7,-41.4L42.3,-21.5L87.9,-39.1L128.4,-49.3L157.8,-51.3L171.6,-46.0L167.4,-35.6L145.4,-23.0L108.5,-11.4L61.7,-3.2L68.9,-0.0Z" fill="none" stroke="#d0e0ef" stroke-width="0.5" stroke-linecap="round" opacity="0.95"/><path d="M163.7,0.0L139.6,7.3L101.1,10.6L53.7,8.5L60.1,12.8L104.1,27.9L137.1,44.6L154.8,59.4L155.0,69.0L138.5,70.6L108.2,62.5L68.9,44.7L26.6,19.3L63.9,51.7L92.8,83.6L109.9,109.9L113.6,126.1L104.3,128.8L84.7,116.6L58.7,90.4L30.7,53.2L24.7,48.5L41.3,92.9L50.1,130.5L50.6,155.7L44.1,164.5L33.0,155.1L20.4,128.5L9.3,88.3L2.1,40.0L0.0,75.4L-6.3,119.3L-15.9,151.2L-26.4,166.7L-34.8,163.8L-38.4,143.2L-35.1,108.2L-24.5,63.9L-19.2,43.2L-43.3,84.9L-67.6,117.0L-87.9,135.3L-100.2,137.9L-101.5,125.4L-90.4,100.4L-67.4,67.4L-35.1,31.6L-53.2,43.1L-92.0,66.8L-124.3,80.7L-145.0,83.7L-150.4,76.6L-138.9,61.8L-111.5,42.8L-71.7,23.3L-38.7,10.4L-86.9,18.5L-128.5,20.4L-157.7,16.6L-170.0,8.9L-163.7,0.0L-139.6,-7.3L-101.1,-10.6L-53.7,-8.5L-60.1,-12.8L-104.1,-27.9L-137.1,-44.6L-154.8,-59.4L-155.0,-69.0L-138.5,-70.6L-108.2,-62.5L-68.9,-44.7L-26.6,-19.3L-63.9,-51.7L-92.8,-83.6L-109.9,-109.9L-113.6,-126.1L-104.3,-128.8L-84.7,-116.6L-58.7,-90.4L-30.7,-53.2L-24.7,-48.5L-41.3,-92.9L-50.1,-130.5L-50.6,-155.7L-44.1,-164.5L-33.0,-155.1L-20.4,-128.5L-9.3,-88.3L-2.1,-40.0L-0.0,-75.4L6.3,-119.3L15.9,-151.2L26.4,-166.7L34.8,-163.8L38.4,-143.2L35.1,-108.2L24.5,-63.9L19.2,-43.2L43.3,-84.9L67.6,-117.0L87.9,-135.3L100.2,-137.9L101.5,-125.4L90.4,-100.4L67.4,-67.4L35.1,-31.6L53.2,-43.1L92.0,-66.8L124.3,-80.7L145.0,-83.7L150.4,-76.6L138.9,-61.8L111.5,-42.8L71.7,-23.3L38.7,-10.4L86.9,-18.5L128.5,-20.4L157.7,-16.6L170.0,-8.9L163.7,-0.0Z" fill="none" stroke="#d1e1ee" stroke-width="1.5" stroke-linecap="round" opacity="0.50" filter="url(#tg)"/><path d="M163.7,0.0L139.6,7.3L101.1,10.6L53.7,8.5L60.1,12.8L104.1,27.9L137.1,44.6L154.8,59.4L155.0,69.0L138.5,70.6L108.2,62.5L68.9,44.7L26.6,19.3L63.9,51.7L92.8,83.6L109.9,109.9L113.6,126.1L104.3,128.8L84.7,116.6L58.7,90.4L30.7,53.2L24.7,48.5L41.3,92.9L50.1,130.5L50.6,155.7L44.1,164.5L33.0,155.1L20.4,128.5L9.3,88.3L2.1,40.0L0.0,75.4L-6.3,119.3L-15.9,151.2L-26.4,166.7L-34.8,163.8L-38.4,143.2L-35.1,108.2L-24.5,63.9L-19.2,43.2L-43.3,84.9L-67.6,117.0L-87.9,135.3L-100.2,137.9L-101.5,125.4L-90.4,100.4L-67.4,67.4L-35.1,31.6L-53.2,43.1L-92.0,66.8L-124.3,80.7L-145.0,83.7L-150.4,76.6L-138.9,61.8L-111.5,42.8L-71.7,23.3L-38.7,10.4L-86.9,18.5L-128.5,20.4L-157.7,16.6L-170.0,8.9L-163.7,0.0L-139.6,-7.3L-101.1,-10.6L-53.7,-8.5L-60.1,-12.8L-104.1,-27.9L-137.1,-44.6L-154.8,-59.4L-155.0,-69.0L-138.5,-70.6L-108.2,-62.5L-68.9,-44.7L-26.6,-19.3L-63.9,-51.7L-92.8,-83.6L-109.9,-109.9L-113.6,-126.1L-104.3,-128.8L-84.7,-116.6L-58.7,-90.4L-30.7,-53.2L-24.7,-48.5L-41.3,-92.9L-50.1,-130.5L-50.6,-155.7L-44.1,-164.5L-33.0,-155.1L-20.4,-128.5L-9.3,-88.3L-2.1,-40.0L-0.0,-75.4L6.3,-119.3L15.9,-151.2L26.4,-166.7L34.8,-163.8L38.4,-143.2L35.1,-108.2L24.5,-63.9L19.2,-43.2L43.3,-84.9L67.6,-117.0L87.9,-135.3L100.2,-137.9L101.5,-125.4L90.4,-100.4L67.4,-67.4L35.1,-31.6L53.2,-43.1L92.0,-66.8L124.3,-80.7L145.0,-83.7L150.4,-76.6L138.9,-61.8L111.5,-42.8L71.7,-23.3L38.7,-10.4L86.9,-18.5L128.5,-20.4L157.7,-16.6L170.0,-8.9L163.7,-0.0Z" fill="none" stroke="#d1e1ee" stroke-width="0.5" stroke-linecap="round" opacity="0.95"/><path d="M81.4,0.0L122.6,6.4L150.3,15.8L160.9,25.5L152.9,32.5L127.9,34.3L89.6,29.1L43.9,16.8L49.4,22.0L89.5,45.6L118.5,68.4L132.8,86.3L131.3,95.4L115.1,93.2L87.3,78.6L52.9,52.9L17.0,18.9L47.1,58.1L69.1,95.1L80.6,124.2L81.2,140.6L71.9,141.1L55.6,125.0L36.0,93.7L16.7,51.4L12.2,45.4L19.6,92.2L20.7,130.8L16.3,155.5L8.5,162.6L0.0,151.2L-6.4,122.6L-8.5,81.0L-5.1,32.3L-14.1,66.5L-29.0,108.2L-44.7,137.5L-57.8,150.6L-65.1,146.2L-63.9,125.5L-53.2,92.1L-33.3,51.2L-23.4,32.2L-55.3,68.3L-85.5,94.9L-108.8,108.8L-121.2,109.1L-119.6,96.9L-103.3,75.1L-73.7,47.9L-34.5,19.9L-54.4,27.7L-97.1,43.3L-131.5,50.5L-152.2,49.5L-155.9,41.8L-141.5,30.1L-110.7,17.5L-67.6,7.1L-32.6,1.7L-81.4,0.0L-122.6,-6.4L-150.3,-15.8L-160.9,-25.5L-152.9,-32.5L-127.9,-34.3L-89.6,-29.1L-43.9,-16.8L-49.4,-22.0L-89.5,-45.6L-118.5,-68.4L-132.8,-86.3L-131.3,-95.4L-115.1,-93.2L-87.3,-78.6L-52.9,-52.9L-17.0,-18.9L-47.1,-58.1L-69.1,-95.1L-80.6,-124.2L-81.2,-140.6L-71.9,-141.1L-55.6,-125.0L-36.0,-93.7L-16.7,-51.4L-12.2,-45.4L-19.6,-92.2L-20.7,-130.8L-16.3,-155.5L-8.5,-162.6L-0.0,-151.2L6.4,-122.6L8.5,-81.0L5.1,-32.3L14.1,-66.5L29.0,-108.2L44.7,-137.5L57.8,-150.6L65.1,-146.2L63.9,-125.5L53.2,-92.1L33.3,-51.2L23.4,-32.2L55.3,-68.3L85.5,-94.9L108.8,-108.8L121.2,-109.1L119.6,-96.9L103.3,-75.1L73.7,-47.9L34.5,-19.9L54.4,-27.7L97.1,-43.3L131.5,-50.5L152.2,-49.5L155.9,-41.8L141.5,-30.1L110.7,-17.5L67.6,-7.1L32.6,-1.7L81.4,-0.0Z" fill="none" stroke="#d2e2ec" stroke-width="1.5" stroke-linecap="round" opacity="0.50" filter="url(#tg)"/><path d="M81.4,0.0L122.6,6.4L150.3,15.8L160.9,25.5L152.9,32.5L127.9,34.3L89.6,29.1L43.9,16.8L49.4,22.0L89.5,45.6L118.5,68.4L132.8,86.3L131.3,95.4L115.1,93.2L87.3,78.6L52.9,52.9L17.0,18.9L47.1,58.1L69.1,95.1L80.6,124.2L81.2,140.6L71.9,141.1L55.6,125.0L36.0,93.7L16.7,51.4L12.2,45.4L19.6,92.2L20.7,130.8L16.3,155.5L8.5,162.6L0.0,151.2L-6.4,122.6L-8.5,81.0L-5.1,32.3L-14.1,66.5L-29.0,108.2L-44.7,137.5L-57.8,150.6L-65.1,146.2L-63.9,125.5L-53.2,92.1L-33.3,51.2L-23.4,32.2L-55.3,68.3L-85.5,94.9L-108.8,108.8L-121.2,109.1L-119.6,96.9L-103.3,75.1L-73.7,47.9L-34.5,19.9L-54.4,27.7L-97.1,43.3L-131.5,50.5L-152.2,49.5L-155.9,41.8L-141.5,30.1L-110.7,17.5L-67.6,7.1L-32.6,1.7L-81.4,0.0L-122.6,-6.4L-150.3,-15.8L-160.9,-25.5L-152.9,-32.5L-127.9,-34.3L-89.6,-29.1L-43.9,-16.8L-49.4,-22.0L-89.5,-45.6L-118.5,-68.4L-132.8,-86.3L-131.3,-95.4L-115.1,-93.2L-87.3,-78.6L-52.9,-52.9L-17.0,-18.9L-47.1,-58.1L-69.1,-95.1L-80.6,-124.2L-81.2,-140.6L-71.9,-141.1L-55.6,-125.0L-36.0,-93.7L-16.7,-51.4L-12.2,-45.4L-19.6,-92.2L-20.7,-130.8L-16.3,-155.5L-8.5,-162.6L-0.0,-151.2L6.4,-122.6L8.5,-81.0L5.1,-32.3L14.1,-66.5L29.0,-108.2L44.7,-137.5L57.8,-150.6L65.1,-146.2L63.9,-125.5L53.2,-92.1L33.3,-51.2L23.4,-32.2L55.3,-68.3L85.5,-94.9L108.8,-108.8L121.2,-109.1L119.6,-96.9L103.3,-75.1L73.7,-47.9L34.5,-19.9L54.4,-27.7L97.1,-43.3L131.5,-50.5L152.2,-49.5L155.9,-41.8L141.5,-30.1L110.7,-17.5L67.6,-7.1L32.6,-1.7L81.4,-0.0Z" fill="none" stroke="#d2e2ec" stroke-width="0.5" stroke-linecap="round" opacity="0.95"/><path d="M137.2,0.0L104.5,5.5L60.2,6.3L25.0,4.0L72.4,15.4L111.4,29.9L136.7,44.4L145.1,55.7L136.1,60.6L111.4,56.7L75.2,43.4L33.2,21.6L37.8,27.4L72.3,58.5L96.1,86.6L106.8,106.8L103.7,115.1L88.5,109.3L64.7,89.1L36.7,56.5L9.0,15.6L30.6,60.0L44.8,100.6L50.4,131.3L47.9,147.3L39.1,145.8L26.9,126.6L14.5,91.9L4.9,46.4L2.1,39.5L0.0,86.9L-6.5,124.8L-15.6,148.1L-24.3,153.6L-29.9,140.6L-29.9,111.4L-22.9,70.4L-9.1,23.6L-24.6,55.3L-47.5,93.2L-68.6,118.8L-83.9,129.1L-89.7,123.5L-84.0,103.7L-66.2,73.5L-38.0,38.0L-24.1,21.7L-62.6,50.7L-97.3,70.7L-122.9,79.8L-134.8,77.8L-130.6,66.5L-109.9,48.9L-75.2,28.9L-30.9,10.0L-51.8,13.9L-96.8,20.6L-131.8,20.9L-151.8,16.0L-153.8,8.1L-137.2,0.0L-104.5,-5.5L-60.2,-6.3L-25.0,-4.0L-72.4,-15.4L-111.4,-29.9L-136.7,-44.4L-145.1,-55.7L-136.1,-60.6L-111.4,-56.7L-75.2,-43.4L-33.2,-21.6L-37.8,-27.4L-72.3,-58.5L-96.1,-86.6L-106.8,-106.8L-103.7,-115.1L-88.5,-109.3L-64.7,-89.1L-36.7,-56.5L-9.0,-15.6L-30.6,-60.0L-44.8,-100.6L-50.4,-131.3L-47.9,-147.3L-39.1,-145.8L-26.9,-126.6L-14.5,-91.9L-4.9,-46.4L-2.1,-39.5L-0.0,-86.9L6.5,-124.8L15.6,-148.1L24.3,-153.6L29.9,-140.6L29.9,-111.4L22.9,-70.4L9.1,-23.6L24.6,-55.3L47.5,-93.2L68.6,-118.8L83.9,-129.1L89.7,-123.5L84.0,-103.7L66.2,-73.5L38.0,-38.0L24.1,-21.7L62.6,-50.7L97.3,-70.7L122.9,-79.8L134.8,-77.8L130.6,-66.5L109.9,-48.9L75.2,-28.9L30.9,-10.0L51.8,-13.9L96.8,-20.6L131.8,-20.9L151.8,-16.0L153.8,-8.1L137.2,-0.0Z" fill="none" stroke="#d3e3eb" stroke-width="1.5" stroke-linecap="round" opacity="0.50" filter="url(#tg)"/><path d="M137.2,0.0L104.5,5.5L60.2,6.3L25.0,4.0L72.4,15.4L111.4,29.9L136.7,44.4L145.1,55.7L136.1,60.6L111.4,56.7L75.2,43.4L33.2,21.6L37.8,27.4L72.3,58.5L96.1,86.6L106.8,106.8L103.7,115.1L88.5,109.3L64.7,89.1L36.7,56.5L9.0,15.6L30.6,60.0L44.8,100.6L50.4,131.3L47.9,147.3L39.1,145.8L26.9,126.6L14.5,91.9L4.9,46.4L2.1,39.5L0.0,86.9L-6.5,124.8L-15.6,148.1L-24.3,153.6L-29.9,140.6L-29.9,111.4L-22.9,70.4L-9.1,23.6L-24.6,55.3L-47.5,93.2L-68.6,118.8L-83.9,129.1L-89.7,123.5L-84.0,103.7L-66.2,73.5L-38.0,38.0L-24.1,21.7L-62.6,50.7L-97.3,70.7L-122.9,79.8L-134.8,77.8L-130.6,66.5L-109.9,48.9L-75.2,28.9L-30.9,10.0L-51.8,13.9L-96.8,20.6L-131.8,20.9L-151.8,16.0L-153.8,8.1L-137.2,0.0L-104.5,-5.5L-60.2,-6.3L-25.0,-4.0L-72.4,-15.4L-111.4,-29.9L-136.7,-44.4L-145.1,-55.7L-136.1,-60.6L-111.4,-56.7L-75.2,-43.4L-33.2,-21.6L-37.8,-27.4L-72.3,-58.5L-96.1,-86.6L-106.8,-106.8L-103.7,-115.1L-88.5,-109.3L-64.7,-89.1L-36.7,-56.5L-9.0,-15.6L-30.6,-60.0L-44.8,-100.6L-50.4,-131.3L-47.9,-147.3L-39.1,-145.8L-26.9,-126.6L-14.5,-91.9L-4.9,-46.4L-2.1,-39.5L-0.0,-86.9L6.5,-124.8L15.6,-148.1L24.3,-153.6L29.9,-140.6L29.9,-111.4L22.9,-70.4L9.1,-23.6L24.6,-55.3L47.5,-93.2L68.6,-118.8L83.9,-129.1L89.7,-123.5L84.0,-103.7L66.2,-73.5L38.0,-38.0L24.1,-21.7L62.6,-50.7L97.3,-70.7L122.9,-79.8L134.8,-77.8L130.6,-66.5L109.9,-48.9L75.2,-28.9L30.9,-10.0L51.8,-13.9L96.8,-20.6L131.8,-20.9L151.8,-16.0L153.8,-8.1L137.2,-0.0Z" fill="none" stroke="#d3e3eb" stroke-width="0.5" stroke-linecap="round" opacity="0.95"/><path d="M91.5,0.0L125.9,6.6L144.5,15.2L144.8,22.9L127.0,27.0L93.9,25.2L50.6,16.4L16.7,6.4L60.9,27.1L96.2,49.0L118.1,68.2L124.2,80.6L114.5,83.2L91.4,74.0L59.1,53.2L22.8,22.8L26.3,29.2L53.9,66.5L71.7,98.7L78.2,120.4L73.8,127.7L60.5,118.7L41.8,93.9L21.5,56.0L3.3,10.1L15.5,57.9L21.4,100.5L20.8,131.6L15.4,146.7L7.5,143.4L0.0,122.0L-4.5,85.5L-4.1,39.1L-5.0,31.8L-16.5,77.7L-30.4,113.6L-43.7,134.6L-53.1,138.2L-55.5,124.6L-49.0,96.2L-33.3,57.7L-9.7,15.0L-31.3,43.0L-61.2,75.6L-86.9,96.5L-103.6,103.6L-107.9,97.2L-98.0,79.3L-74.1,53.8L-38.8,25.2L-21.7,12.5L-65.2,33.2L-103.2,45.9L-129.9,49.9L-141.0,45.8L-134.4,36.0L-110.5,23.5L-72.2,11.4L-24.9,2.6L-46.2,2.4L-91.5,0.0L-125.9,-6.6L-144.5,-15.2L-144.8,-22.9L-127.0,-27.0L-93.9,-25.2L-50.6,-16.4L-16.7,-6.4L-60.9,-27.1L-96.2,-49.0L-118.1,-68.2L-124.2,-80.6L-114.5,-83.2L-91.4,-74.0L-59.1,-53.2L-22.8,-22.8L-26.3,-29.2L-53.9,-66.5L-71.7,-98.7L-78.2,-120.4L-73.8,-127.7L-60.5,-118.7L-41.8,-93.9L-21.5,-56.0L-3.3,-10.1L-15.5,-57.9L-21.4,-100.5L-20.8,-131.6L-15.4,-146.7L-7.5,-143.4L-0.0,-122.0L4.5,-85.5L4.1,-39.1L5.0,-31.8L16.5,-77.7L30.4,-113.6L43.7,-134.6L53.1,-138.2L55.5,-124.6L49.0,-96.2L33.3,-57.7L9.7,-15.0L31.3,-43.0L61.2,-75.6L86.9,-96.5L103.6,-103.6L107.9,-97.2L98.0,-79.3L74.1,-53.8L38.8,-25.2L21.7,-12.5L65.2,-33.2L103.2,-45.9L129.9,-49.9L141.0,-45.8L134.4,-36.0L110.5,-23.5L72.2,-11.4L24.9,-2.6L46.2,-2.4L91.5,-0.0Z" fill="none" stroke="#d3e5e9" stroke-width="1.5" stroke-linecap="round" opacity="0.50" filter="url(#tg)"/><path d="M91.5,0.0L125.9,6.6L144.5,15.2L144.8,22.9L127.0,27.0L93.9,25.2L50.6,16.4L16.7,6.4L60.9,27.1L96.2,49.0L118.1,68.2L124.2,80.6L114.5,83.2L91.4,74.0L59.1,53.2L22.8,22.8L26.3,29.2L53.9,66.5L71.7,98.7L78.2,120.4L73.8,127.7L60.5,118.7L41.8,93.9L21.5,56.0L3.3,10.1L15.5,57.9L21.4,100.5L20.8,131.6L15.4,146.7L7.5,143.4L0.0,122.0L-4.5,85.5L-4.1,39.1L-5.0,31.8L-16.5,77.7L-30.4,113.6L-43.7,134.6L-53.1,138.2L-55.5,124.6L-49.0,96.2L-33.3,57.7L-9.7,15.0L-31.3,43.0L-61.2,75.6L-86.9,96.5L-103.6,103.6L-107.9,97.2L-98.0,79.3L-74.1,53.8L-38.8,25.2L-21.7,12.5L-65.2,33.2L-103.2,45.9L-129.9,49.9L-141.0,45.8L-134.4,36.0L-110.5,23.5L-72.2,11.4L-24.9,2.6L-46.2,2.4L-91.5,0.0L-125.9,-6.6L-144.5,-15.2L-144.8,-22.9L-127.0,-27.0L-93.9,-25.2L-50.6,-16.4L-16.7,-6.4L-60.9,-27.1L-96.2,-49.0L-118.1,-68.2L-124.2,-80.6L-114.5,-83.2L-91.4,-74.0L-59.1,-53.2L-22.8,-22.8L-26.3,-29.2L-53.9,-66.5L-71.7,-98.7L-78.2,-120.4L-73.8,-127.7L-60.5,-118.7L-41.8,-93.9L-21.5,-56.0L-3.3,-10.1L-15.5,-57.9L-21.4,-100.5L-20.8,-131.6L-15.4,-146.7L-7.5,-143.4L-0.0,-122.0L4.5,-85.5L4.1,-39.1L5.0,-31.8L16.5,-77.7L30.4,-113.6L43.7,-134.6L53.1,-138.2L55.5,-124.6L49.0,-96.2L33.3,-57.7L9.7,-15.0L31.3,-43.0L61.2,-75.6L86.9,-96.5L103.6,-103.6L107.9,-97.2L98.0,-79.3L74.1,-53.8L38.8,-25.2L21.7,-12.5L65.2,-33.2L103.2,-45.9L129.9,-49.9L141.0,-45.8L134.4,-36.0L110.5,-23.5L72.2,-11.4L24.9,-2.6L46.2,-2.4L91.5,-0.0Z" fill="none" stroke="#d3e5e9" stroke-width="0.5" stroke-linecap="round" opacity="0.95"/><path d="M105.5,0.0L65.6,3.4L17.6,1.8L38.4,6.1L82.3,17.5L114.6,30.7L131.1,42.6L129.9,49.9L111.8,49.8L80.1,40.8L39.7,22.9L8.8,5.7L47.9,34.8L78.2,63.3L95.8,86.3L99.5,99.5L89.8,99.7L69.4,85.6L42.4,58.3L13.5,20.8L15.9,27.6L35.5,69.7L46.6,104.7L48.8,127.1L43.3,133.3L32.6,121.6L19.8,93.3L8.2,51.9L0.3,3.3L2.8,52.5L0.0,95.3L-6.6,125.7L-14.6,139.3L-21.3,134.5L-23.8,112.1L-20.2,75.5L-9.9,30.3L-8.9,23.1L-29.3,65.8L-50.0,98.2L-67.1,116.2L-76.6,118.0L-75.8,104.3L-63.3,78.2L-39.6,44.0L-7.4,7.4L-34.0,30.6L-69.8,56.6L-99.1,72.0L-116.7,75.8L-119.4,68.9L-105.7,53.9L-76.9,34.2L-36.3,13.9L-16.8,5.5L-63.5,17.0L-103.2,21.9L-130.1,20.6L-140.1,14.7L-131.5,6.9L-105.5,0.0L-65.6,-3.4L-17.6,-1.8L-38.4,-6.1L-82.3,-17.5L-114.6,-30.7L-131.1,-42.6L-129.9,-49.9L-111.8,-49.8L-80.1,-40.8L-39.7,-22.9L-8.8,-5.7L-47.9,-34.8L-78.2,-63.3L-95.8,-86.3L-99.5,-99.5L-89.8,-99.7L-69.4,-85.6L-42.4,-58.3L-13.5,-20.8L-15.9,-27.6L-35.5,-69.7L-46.6,-104.7L-48.8,-127.1L-43.3,-133.3L-32.6,-121.6L-19.8,-93.3L-8.2,-51.9L-0.3,-3.3L-2.8,-52.5L-0.0,-95.3L6.6,-125.7L14.6,-139.3L21.3,-134.5L23.8,-112.1L20.2,-75.5L9.9,-30.3L8.9,-23.1L29.3,-65.8L50.0,-98.2L67.1,-116.2L76.6,-118.0L75.8,-104.3L63.3,-78.2L39.6,-44.0L7.4,-7.4L34.0,-30.6L69.8,-56.6L99.1,-72.0L116.7,-75.8L119.4,-68.9L105.7,-53.9L76.9,-34.2L36.3,-13.9L16.8,-5.5L63.5,-17.0L103.2,-21.9L130.1,-20.6L140.1,-14.7L131.5,-6.9L105.5,-0.0Z" fill="none" stroke="#d4e6e8" stroke-width="1.5" stroke-linecap="round" opacity="0.50" filter="url(#tg)"/><path d="M105.5,0.0L65.6,3.4L17.6,1.8L38.4,6.1L82.3,17.5L114.6,30.7L131.1,42.6L129.9,49.9L111.8,49.8L80.1,40.8L39.7,22.9L8.8,5.7L47.9,34.8L78.2,63.3L95.8,86.3L99.5,99.5L89.8,99.7L69.4,85.6L42.4,58.3L13.5,20.8L15.9,27.6L35.5,69.7L46.6,104.7L48.8,127.1L43.3,133.3L32.6,121.6L19.8,93.3L8.2,51.9L0.3,3.3L2.8,52.5L0.0,95.3L-6.6,125.7L-14.6,139.3L-21.3,134.5L-23.8,112.1L-20.2,75.5L-9.9,30.3L-8.9,23.1L-29.3,65.8L-50.0,98.2L-67.1,116.2L-76.6,118.0L-75.8,104.3L-63.3,78.2L-39.6,44.0L-7.4,7.4L-34.0,30.6L-69.8,56.6L-99.1,72.0L-116.7,75.8L-119.4,68.9L-105.7,53.9L-76.9,34.2L-36.3,13.9L-16.8,5.5L-63.5,17.0L-103.2,21.9L-130.1,20.6L-140.1,14.7L-131.5,6.9L-105.5,0.0L-65.6,-3.4L-17.6,-1.8L-38.4,-6.1L-82.3,-17.5L-114.6,-30.7L-131.1,-42.6L-129.9,-49.9L-111.8,-49.8L-80.1,-40.8L-39.7,-22.9L-8.8,-5.7L-47.9,-34.8L-78.2,-63.3L-95.8,-86.3L-99.5,-99.5L-89.8,-99.7L-69.4,-85.6L-42.4,-58.3L-13.5,-20.8L-15.9,-27.6L-35.5,-69.7L-46.6,-104.7L-48.8,-127.1L-43.3,-133.3L-32.6,-121.6L-19.8,-93.3L-8.2,-51.9L-0.3,-3.3L-2.8,-52.5L-0.0,-95.3L6.6,-125.7L14.6,-139.3L21.3,-134.5L23.8,-112.1L20.2,-75.5L9.9,-30.3L8.9,-23.1L29.3,-65.8L50.0,-98.2L67.1,-116.2L76.6,-118.0L75.8,-104.3L63.3,-78.2L39.6,-44.0L7.4,-7.4L34.0,-30.6L69.8,-56.6L99.1,-72.0L116.7,-75.8L119.4,-68.9L105.7,-53.9L76.9,-34.2L36.3,-13.9L16.8,-5.5L63.5,-17.0L103.2,-21.9L130.1,-20.6L140.1,-14.7L131.5,-6.9L105.5,-0.0Z" fill="none" stroke="#d4e6e8" stroke-width="0.5" stroke-linecap="round" opacity="0.95"/><path d="M98.1,0.0L124.2,6.5L132.7,14.0L122.8,19.4L96.0,20.4L56.4,15.1L9.8,3.2L29.4,11.3L70.1,31.2L99.1,50.5L113.0,65.2L110.5,71.8L93.1,67.6L64.1,51.9L28.5,25.7L2.2,2.2L34.7,38.5L58.6,72.4L71.5,98.4L72.6,111.8L63.4,109.8L46.7,91.6L26.3,59.1L6.2,16.2L7.6,23.3L18.3,68.4L22.3,104.9L20.1,127.2L13.9,132.0L6.2,118.3L0.0,87.9L-2.4,45.1L0.4,-4.1L-7.1,44.6L-18.3,86.0L-30.7,114.4L-41.0,126.2L-46.2,120.2L-43.6,97.9L-32.1,63.1L-12.2,21.2L-9.5,14.6L-38.0,52.3L-64.7,79.9L-84.8,94.2L-94.2,94.2L-90.3,81.4L-72.4,58.6L-41.9,30.5L-2.6,1.7L-33.2,19.2L-73.5,37.4L-105.1,46.8L-123.0,47.2L-124.1,40.3L-107.5,28.8L-75.1,16.0L-31.1,4.9L-10.2,1.1L-58.3,3.1L-98.1,0.0L-124.2,-6.5L-132.7,-14.0L-122.8,-19.4L-96.0,-20.4L-56.4,-15.1L-9.8,-3.2L-29.4,-11.3L-70.1,-31.2L-99.1,-50.5L-113.0,-65.2L-110.5,-71.8L-93.1,-67.6L-64.1,-51.9L-28.5,-25.7L-2.2,-2.2L-34.7,-38.5L-58.6,-72.4L-71.5,-98.4L-72.6,-111.8L-63.4,-109.8L-46.7,-91.6L-26.3,-59.1L-6.2,-16.2L-7.6,-23.3L-18.3,-68.4L-22.3,-104.9L-20.1,-127.2L-13.9,-132.0L-6.2,-118.3L-0.0,-87.9L2.4,-45.1L-0.4,4.1L7.1,-44.6L18.3,-86.0L30.7,-114.4L41.0,-126.2L46.2,-120.2L43.6,-97.9L32.1,-63.1L12.2,-21.2L9.5,-14.6L38.0,-52.3L64.7,-79.9L84.8,-94.2L94.2,-94.2L90.3,-81.4L72.4,-58.6L41.9,-30.5L2.6,-1.7L33.2,-19.2L73.5,-37.4L105.1,-46.8L123.0,-47.2L124.1,-40.3L107.5,-28.8L75.1,-16.0L31.1,-4.9L10.2,-1.1L58.3,-3.1L98.1,-0.0Z" fill="none" stroke="#d5e7e6" stroke-width="1.5" stroke-linecap="round" opacity="0.50" filter="url(#tg)"/><path d="M98.1,0.0L124.2,6.5L132.7,14.0L122.8,19.4L96.0,20.4L56.4,15.1L9.8,3.2L29.4,11.3L70.1,31.2L99.1,50.5L113.0,65.2L110.5,71.8L93.1,67.6L64.1,51.9L28.5,25.7L2.2,2.2L34.7,38.5L58.6,72.4L71.5,98.4L72.6,111.8L63.4,109.8L46.7,91.6L26.3,59.1L6.2,16.2L7.6,23.3L18.3,68.4L22.3,104.9L20.1,127.2L13.9,132.0L6.2,118.3L0.0,87.9L-2.4,45.1L0.4,-4.1L-7.1,44.6L-18.3,86.0L-30.7,114.4L-41.0,126.2L-46.2,120.2L-43.6,97.9L-32.1,63.1L-12.2,21.2L-9.5,14.6L-38.0,52.3L-64.7,79.9L-84.8,94.2L-94.2,94.2L-90.3,81.4L-72.4,58.6L-41.9,30.5L-2.6,1.7L-33.2,19.2L-73.5,37.4L-105.1,46.8L-123.0,47.2L-124.1,40.3L-107.5,28.8L-75.1,16.0L-31.1,4.9L-10.2,1.1L-58.3,3.1L-98.1,0.0L-124.2,-6.5L-132.7,-14.0L-122.8,-19.4L-96.0,-20.4L-56.4,-15.1L-9.8,-3.2L-29.4,-11.3L-70.1,-31.2L-99.1,-50.5L-113.0,-65.2L-110.5,-71.8L-93.1,-67.6L-64.1,-51.9L-28.5,-25.7L-2.2,-2.2L-34.7,-38.5L-58.6,-72.4L-71.5,-98.4L-72.6,-111.8L-63.4,-109.8L-46.7,-91.6L-26.3,-59.1L-6.2,-16.2L-7.6,-23.3L-18.3,-68.4L-22.3,-104.9L-20.1,-127.2L-13.9,-132.0L-6.2,-118.3L-0.0,-87.9L2.4,-45.1L-0.4,4.1L7.1,-44.6L18.3,-86.0L30.7,-114.4L41.0,-126.2L46.2,-120.2L43.6,-97.9L32.1,-63.1L12.2,-21.2L9.5,-14.6L38.0,-52.3L64.7,-79.9L84.8,-94.2L94.2,-94.2L90.3,-81.4L72.4,-58.6L41.9,-30.5L2.6,-1.7L33.2,-19.2L73.5,-37.4L105.1,-46.8L123.0,-47.2L124.1,-40.3L107.5,-28.8L75.1,-16.0L31.1,-4.9L10.2,-1.1L58.3,-3.1L98.1,-0.0Z" fill="none" stroke="#d5e7e6" stroke-width="0.5" stroke-linecap="round" opacity="0.95"/><path d="M69.4,0.0L24.1,1.3L2.8,0.3L50.3,8.0L88.8,18.9L113.0,30.3L119.9,39.0L109.2,41.9L82.9,36.9L45.4,23.1L2.5,1.4L20.2,13.1L56.1,40.8L80.7,65.4L91.5,82.3L88.0,88.0L72.0,80.0L47.2,58.3L18.2,25.1L-2.4,-3.6L22.2,38.5L38.9,76.4L46.4,104.3L45.1,117.5L36.9,113.5L24.7,92.2L11.9,56.0L1.6,9.9L1.8,17.0L3.3,63.3L0.0,99.8L-6.4,121.2L-13.1,124.6L-17.4,109.7L-16.7,78.8L-9.8,36.5L3.6,-11.0L-13.5,35.3L-32.8,73.6L-50.4,99.0L-62.7,108.5L-66.1,101.8L-58.7,80.7L-39.9,49.3L-11.4,12.7L-7.1,7.1L-42.6,38.3L-74.1,60.0L-96.5,70.1L-105.6,68.6L-98.9,57.1L-76.4,38.9L-40.6,18.1L4.0,-1.5L-29.5,9.6L-72.5,19.4L-105.3,22.4L-122.9,19.5L-122.4,12.9L-103.7,5.4L-69.4,0.0L-24.1,-1.3L-2.8,-0.3L-50.3,-8.0L-88.8,-18.9L-113.0,-30.3L-119.9,-39.0L-109.2,-41.9L-82.9,-36.9L-45.4,-23.1L-2.5,-1.4L-20.2,-13.1L-56.1,-40.8L-80.7,-65.4L-91.5,-82.3L-88.0,-88.0L-72.0,-80.0L-47.2,-58.3L-18.2,-25.1L2.4,3.6L-22.2,-38.5L-38.9,-76.4L-46.4,-104.3L-45.1,-117.5L-36.9,-113.5L-24.7,-92.2L-11.9,-56.0L-1.6,-9.9L-1.8,-17.0L-3.3,-63.3L-0.0,-99.8L6.4,-121.2L13.1,-124.6L17.4,-109.7L16.7,-78.8L9.8,-36.5L-3.6,11.0L13.5,-35.3L32.8,-73.6L50.4,-99.0L62.7,-108.5L66.1,-101.8L58.7,-80.7L39.9,-49.3L11.4,-12.7L7.1,-7.1L42.6,-38.3L74.1,-60.0L96.5,-70.1L105.6,-68.6L98.9,-57.1L76.4,-38.9L40.6,-18.1L-4.0,1.5L29.5,-9.6L72.5,-19.4L105.3,-22.4L122.9,-19.5L122.4,-12.9L103.7,-5.4L69.4,-0.0Z" fill="none" stroke="#d6e8e5" stroke-width="1.5" stroke-linecap="round" opacity="0.50" filter="url(#tg)"/><path d="M69.4,0.0L24.1,1.3L2.8,0.3L50.3,8.0L88.8,18.9L113.0,30.3L119.9,39.0L109.2,41.9L82.9,36.9L45.4,23.1L2.5,1.4L20.2,13.1L56.1,40.8L80.7,65.4L91.5,82.3L88.0,88.0L72.0,80.0L47.2,58.3L18.2,25.1L-2.4,-3.6L22.2,38.5L38.9,76.4L46.4,104.3L45.1,117.5L36.9,113.5L24.7,92.2L11.9,56.0L1.6,9.9L1.8,17.0L3.3,63.3L0.0,99.8L-6.4,121.2L-13.1,124.6L-17.4,109.7L-16.7,78.8L-9.8,36.5L3.6,-11.0L-13.5,35.3L-32.8,73.6L-50.4,99.0L-62.7,108.5L-66.1,101.8L-58.7,80.7L-39.9,49.3L-11.4,12.7L-7.1,7.1L-42.6,38.3L-74.1,60.0L-96.5,70.1L-105.6,68.6L-98.9,57.1L-76.4,38.9L-40.6,18.1L4.0,-1.5L-29.5,9.6L-72.5,19.4L-105.3,22.4L-122.9,19.5L-122.4,12.9L-103.7,5.4L-69.4,0.0L-24.1,-1.3L-2.8,-0.3L-50.3,-8.0L-88.8,-18.9L-113.0,-30.3L-119.9,-39.0L-109.2,-41.9L-82.9,-36.9L-45.4,-23.1L-2.5,-1.4L-20.2,-13.1L-56.1,-40.8L-80.7,-65.4L-91.5,-82.3L-88.0,-88.0L-72.0,-80.0L-47.2,-58.3L-18.2,-25.1L2.4,3.6L-22.2,-38.5L-38.9,-76.4L-46.4,-104.3L-45.1,-117.5L-36.9,-113.5L-24.7,-92.2L-11.9,-56.0L-1.6,-9.9L-1.8,-17.0L-3.3,-63.3L-0.0,-99.8L6.4,-121.2L13.1,-124.6L17.4,-109.7L16.7,-78.8L9.8,-36.5L-3.6,11.0L13.5,-35.3L32.8,-73.6L50.4,-99.0L62.7,-108.5L66.1,-101.8L58.7,-80.7L39.9,-49.3L11.4,-12.7L7.1,-7.1L42.6,-38.3L74.1,-60.0L96.5,-70.1L105.6,-68.6L98.9,-57.1L76.4,-38.9L40.6,-18.1L-4.0,1.5L29.5,-9.6L72.5,-19.4L105.3,-22.4L122.9,-19.5L122.4,-12.9L103.7,-5.4L69.4,-0.0Z" fill="none" stroke="#d6e8e5" stroke-width="0.5" stroke-linecap="round" opacity="0.95"/><path d="M100.2,0.0L116.8,6.1L115.0,12.1L95.3,15.1L60.6,12.9L16.1,4.3L-4.3,-1.4L40.7,15.6L76.1,33.9L97.6,49.7L102.8,59.3L91.9,59.7L67.4,49.0L33.8,27.4L-3.4,-3.0L11.8,11.8L41.5,46.0L60.7,75.0L68.0,93.6L63.7,98.1L50.1,86.8L30.7,60.3L9.6,21.6L-4.2,-10.9L11.4,35.2L20.3,75.7L22.2,104.5L18.5,117.0L11.7,111.3L4.6,87.9L0.0,49.9L-0.1,2.6L-1.0,9.6L-8.8,55.3L-19.2,90.4L-29.5,110.1L-36.4,112.2L-37.2,96.8L-29.8,66.8L-13.8,27.1L9.5,-16.4L-16.6,25.5L-43.0,59.2L-65.2,80.6L-78.9,87.6L-80.6,80.6L-68.7,61.8L-43.5,35.3L-7.8,5.7L-2.2,1.4L-43.2,24.9L-78.4,40.0L-102.3,45.5L-110.6,42.5L-101.6,33.0L-75.7,20.3L-36.2,7.7L11.6,-1.8L-23.5,2.5L-67.6,3.5L-100.2,0.0L-116.8,-6.1L-115.0,-12.1L-95.3,-15.1L-60.6,-12.9L-16.1,-4.3L4.3,1.4L-40.7,-15.6L-76.1,-33.9L-97.6,-49.7L-102.8,-59.3L-91.9,-59.7L-67.4,-49.0L-33.8,-27.4L3.4,3.0L-11.8,-11.8L-41.5,-46.0L-60.7,-75.0L-68.0,-93.6L-63.7,-98.1L-50.1,-86.8L-30.7,-60.3L-9.6,-21.6L4.2,10.9L-11.4,-35.2L-20.3,-75.7L-22.2,-104.5L-18.5,-117.0L-11.7,-111.3L-4.6,-87.9L-0.0,-49.9L0.1,-2.6L1.0,-9.6L8.8,-55.3L19.2,-90.4L29.5,-110.1L36.4,-112.2L37.2,-96.8L29.8,-66.8L13.8,-27.1L-9.5,16.4L16.6,-25.5L43.0,-59.2L65.2,-80.6L78.9,-87.6L80.6,-80.6L68.7,-61.8L43.5,-35.3L7.8,-5.7L2.2,-1.4L43.2,-24.9L78.4,-40.0L102.3,-45.5L110.6,-42.5L101.6,-33.0L75.7,-20.3L36.2,-7.7L-11.6,1.8L23.5,-2.5L67.6,-3.5L100.2,-0.0Z" fill="none" stroke="#d7e9e4" stroke-width="1.5" stroke-linecap="round" opacity="0.50" filter="url(#tg)"/><path d="M100.2,0.0L116.8,6.1L115.0,12.1L95.3,15.1L60.6,12.9L16.1,4.3L-4.3,-1.4L40.7,15.6L76.1,33.9L97.6,49.7L102.8,59.3L91.9,59.7L67.4,49.0L33.8,27.4L-3.4,-3.0L11.8,11.8L41.5,46.0L60.7,75.0L68.0,93.6L63.7,98.1L50.1,86.8L30.7,60.3L9.6,21.6L-4.2,-10.9L11.4,35.2L20.3,75.7L22.2,104.5L18.5,117.0L11.7,111.3L4.6,87.9L0.0,49.9L-0.1,2.6L-1.0,9.6L-8.8,55.3L-19.2,90.4L-29.5,110.1L-36.4,112.2L-37.2,96.8L-29.8,66.8L-13.8,27.1L9.5,-16.4L-16.6,25.5L-43.0,59.2L-65.2,80.6L-78.9,87.6L-80.6,80.6L-68.7,61.8L-43.5,35.3L-7.8,5.7L-2.2,1.4L-43.2,24.9L-78.4,40.0L-102.3,45.5L-110.6,42.5L-101.6,33.0L-75.7,20.3L-36.2,7.7L11.6,-1.8L-23.5,2.5L-67.6,3.5L-100.2,0.0L-116.8,-6.1L-115.0,-12.1L-95.3,-15.1L-60.6,-12.9L-16.1,-4.3L4.3,1.4L-40.7,-15.6L-76.1,-33.9L-97.6,-49.7L-102.8,-59.3L-91.9,-59.7L-67.4,-49.0L-33.8,-27.4L3.4,3.0L-11.8,-11.8L-41.5,-46.0L-60.7,-75.0L-68.0,-93.6L-63.7,-98.1L-50.1,-86.8L-30.7,-60.3L-9.6,-21.6L4.2,10.9L-11.4,-35.2L-20.3,-75.7L-22.2,-104.5L-18.5,-117.0L-11.7,-111.3L-4.6,-87.9L-0.0,-49.9L0.1,-2.6L1.0,-9.6L8.8,-55.3L19.2,-90.4L29.5,-110.1L36.4,-112.2L37.2,-96.8L29.8,-66.8L13.8,-27.1L-9.5,16.4L16.6,-25.5L43.0,-59.2L65.2,-80.6L78.9,-87.6L80.6,-80.6L68.7,-61.8L43.5,-35.3L7.8,-5.7L2.2,-1.4L43.2,-24.9L78.4,-40.0L102.3,-45.5L110.6,-42.5L101.6,-33.0L75.7,-20.3L36.2,-7.7L-11.6,1.8L23.5,-2.5L67.6,-3.5L100.2,-0.0Z" fill="none" stroke="#d7e9e4" stroke-width="0.5" stroke-linecap="round" opacity="0.95"/><path d="M29.7,0.0L-19.1,-1.0L16.1,1.7L59.5,9.4L90.8,19.3L105.9,28.4L103.0,33.5L83.2,31.9L49.8,22.2L8.3,4.2L-10.3,-6.0L30.3,19.7L61.4,44.6L79.4,64.3L82.7,74.5L72.2,72.2L50.8,56.4L22.8,28.1L-7.0,-9.7L5.1,7.8L27.3,47.3L40.4,79.4L44.0,98.9L39.3,102.3L28.7,88.3L15.6,58.2L3.4,15.9L-3.0,-18.9L3.1,29.5L3.7,70.9L0.0,99.4L-5.8,110.9L-10.9,104.0L-12.6,79.6L-8.8,41.6L1.2,-4.6L-0.7,2.2L-17.4,45.4L-34.6,77.7L-48.4,95.0L-55.3,95.7L-52.4,80.8L-38.7,53.2L-14.5,17.9L17.6,-19.6L-16.3,16.3L-48.9,44.0L-74.8,60.6L-89.4,65.0L-89.4,58.1L-73.6,42.5L-43.3,22.1L-2.1,0.9L4.5,-1.7L-40.4,13.1L-77.9,20.9L-102.3,21.7L-109.7,17.4L-98.8,10.4L-70.9,3.7L-29.7,0.0L19.1,1.0L-16.1,-1.7L-59.5,-9.4L-90.8,-19.3L-105.9,-28.4L-103.0,-33.5L-83.2,-31.9L-49.8,-22.2L-8.3,-4.2L10.3,6.0L-30.3,-19.7L-61.4,-44.6L-79.4,-64.3L-82.7,-74.5L-72.2,-72.2L-50.8,-56.4L-22.8,-28.1L7.0,9.7L-5.1,-7.8L-27.3,-47.3L-40.4,-79.4L-44.0,-98.9L-39.3,-102.3L-28.7,-88.3L-15.6,-58.2L-3.4,-15.9L3.0,18.9L-3.1,-29.5L-3.7,-70.9L-0.0,-99.4L5.8,-110.9L10.9,-104.0L12.6,-79.6L8.8,-41.6L-1.2,4.6L0.7,-2.2L17.4,-45.4L34.6,-77.7L48.4,-95.0L55.3,-95.7L52.4,-80.8L38.7,-53.2L14.5,-17.9L-17.6,19.6L16.3,-16.3L48.9,-44.0L74.8,-60.6L89.4,-65.0L89.4,-58.1L73.6,-42.5L43.3,-22.1L2.1,-0.9L-4.5,1.7L40.4,-13.1L77.9,-20.9L102.3,-21.7L109.7,-17.4L98.8,-10.4L70.9,-3.7L29.7,-0.0Z" fill="none" stroke="#d7ebe2" stroke-width="1.5" stroke-linecap="round" opacity="0.50" filter="url(#tg)"/><path d="M29.7,0.0L-19.1,-1.0L16.1,1.7L59.5,9.4L90.8,19.3L105.9,28.4L103.0,33.5L83.2,31.9L49.8,22.2L8.3,4.2L-10.3,-6.0L30.3,19.7L61.4,44.6L79.4,64.3L82.7,74.5L72.2,72.2L50.8,56.4L22.8,28.1L-7.0,-9.7L5.1,7.8L27.3,47.3L40.4,79.4L44.0,98.9L39.3,102.3L28.7,88.3L15.6,58.2L3.4,15.9L-3.0,-18.9L3.1,29.5L3.7,70.9L0.0,99.4L-5.8,110.9L-10.9,104.0L-12.6,79.6L-8.8,41.6L1.2,-4.6L-0.7,2.2L-17.4,45.4L-34.6,77.7L-48.4,95.0L-55.3,95.7L-52.4,80.8L-38.7,53.2L-14.5,17.9L17.6,-19.6L-16.3,16.3L-48.9,44.0L-74.8,60.6L-89.4,65.0L-89.4,58.1L-73.6,42.5L-43.3,22.1L-2.1,0.9L4.5,-1.7L-40.4,13.1L-77.9,20.9L-102.3,21.7L-109.7,17.4L-98.8,10.4L-70.9,3.7L-29.7,0.0L19.1,1.0L-16.1,-1.7L-59.5,-9.4L-90.8,-19.3L-105.9,-28.4L-103.0,-33.5L-83.2,-31.9L-49.8,-22.2L-8.3,-4.2L10.3,6.0L-30.3,-19.7L-61.4,-44.6L-79.4,-64.3L-82.7,-74.5L-72.2,-72.2L-50.8,-56.4L-22.8,-28.1L7.0,9.7L-5.1,-7.8L-27.3,-47.3L-40.4,-79.4L-44.0,-98.9L-39.3,-102.3L-28.7,-88.3L-15.6,-58.2L-3.4,-15.9L3.0,18.9L-3.1,-29.5L-3.7,-70.9L-0.0,-99.4L5.8,-110.9L10.9,-104.0L12.6,-79.6L8.8,-41.6L-1.2,4.6L0.7,-2.2L17.4,-45.4L34.6,-77.7L48.4,-95.0L55.3,-95.7L52.4,-80.8L38.7,-53.2L14.5,-17.9L-17.6,19.6L16.3,-16.3L48.9,-44.0L74.8,-60.6L89.4,-65.0L89.4,-58.1L73.6,-42.5L43.3,-22.1L2.1,-0.9L-4.5,1.7L40.4,-13.1L77.9,-20.9L102.3,-21.7L109.7,-17.4L98.8,-10.4L70.9,-3.7L29.7,-0.0Z" fill="none" stroke="#d7ebe2" stroke-width="0.5" stroke-linecap="round" opacity="0.95"/><path d="M97.2,0.0L103.6,5.4L91.5,9.6L62.8,9.9L21.8,4.6L-25.6,-6.9L8.4,2.7L49.4,19.0L78.1,34.8L91.1,46.4L87.4,50.4L68.5,44.5L38.2,27.7L1.5,1.2L-14.4,-12.9L20.3,20.3L45.9,50.9L59.6,73.6L61.1,84.0L51.6,79.5L34.3,59.4L13.1,25.6L-7.9,-17.7L0.7,1.8L14.6,44.9L21.1,78.9L21.0,98.7L16.0,100.9L8.9,85.0L2.8,52.8L0.0,8.8L1.4,-26.5L-2.3,22.1L-9.9,62.8L-19.1,90.0L-26.8,100.2L-30.0,92.4L-26.2,68.4L-14.3,32.1L5.5,-10.9L2.6,-4.4L-22.5,34.6L-45.6,62.8L-62.4,77.1L-69.0,76.6L-62.9,62.9L-43.4,39.1L-12.1,9.8L27.3,-19.8L-13.1,8.5L-50.5,29.2L-79.2,40.4L-94.2,41.9L-92.6,35.5L-73.8,24.0L-39.8,10.7L5.0,-1.1L12.0,-1.9L-34.9,3.7L-73.1,3.8L-97.2,0.0L-103.6,-5.4L-91.5,-9.6L-62.8,-9.9L-21.8,-4.6L25.6,6.9L-8.4,-2.7L-49.4,-19.0L-78.1,-34.8L-91.1,-46.4L-87.4,-50.4L-68.5,-44.5L-38.2,-27.7L-1.5,-1.2L14.4,12.9L-20.3,-20.3L-45.9,-50.9L-59.6,-73.6L-61.1,-84.0L-51.6,-79.5L-34.3,-59.4L-13.1,-25.6L7.9,17.7L-0.7,-1.8L-14.6,-44.9L-21.1,-78.9L-21.0,-98.7L-16.0,-100.9L-8.9,-85.0L-2.8,-52.8L-0.0,-8.8L-1.4,26.5L2.3,-22.1L9.9,-62.8L19.1,-90.0L26.8,-100.2L30.0,-92.4L26.2,-68.4L14.3,-32.1L-5.5,10.9L-2.6,4.4L22.5,-34.6L45.6,-62.8L62.4,-77.1L69.0,-76.6L62.9,-62.9L43.4,-39.1L12.1,-9.8L-27.3,19.8L13.1,-8.5L50.5,-29.2L79.2,-40.4L94.2,-41.9L92.6,-35.5L73.8,-24.0L39.8,-10.7L-5.0,1.1L-12.0,1.9L34.9,-3.7L73.1,-3.8L97.2,-0.0Z" fill="none" stroke="#d8ece1" stroke-width="1.5" stroke-linecap="round" opacity="0.50" filter="url(#tg)"/><path d="M97.2,0.0L103.6,5.4L91.5,9.6L62.8,9.9L21.8,4.6L-25.6,-6.9L8.4,2.7L49.4,19.0L78.1,34.8L91.1,46.4L87.4,50.4L68.5,44.5L38.2,27.7L1.5,1.2L-14.4,-12.9L20.3,20.3L45.9,50.9L59.6,73.6L61.1,84.0L51.6,79.5L34.3,59.4L13.1,25.6L-7.9,-17.7L0.7,1.8L14.6,44.9L21.1,78.9L21.0,98.7L16.0,100.9L8.9,85.0L2.8,52.8L0.0,8.8L1.4,-26.5L-2.3,22.1L-9.9,62.8L-19.1,90.0L-26.8,100.2L-30.0,92.4L-26.2,68.4L-14.3,32.1L5.5,-10.9L2.6,-4.4L-22.5,34.6L-45.6,62.8L-62.4,77.1L-69.0,76.6L-62.9,62.9L-43.4,39.1L-12.1,9.8L27.3,-19.8L-13.1,8.5L-50.5,29.2L-79.2,40.4L-94.2,41.9L-92.6,35.5L-73.8,24.0L-39.8,10.7L5.0,-1.1L12.0,-1.9L-34.9,3.7L-73.1,3.8L-97.2,0.0L-103.6,-5.4L-91.5,-9.6L-62.8,-9.9L-21.8,-4.6L25.6,6.9L-8.4,-2.7L-49.4,-19.0L-78.1,-34.8L-91.1,-46.4L-87.4,-50.4L-68.5,-44.5L-38.2,-27.7L-1.5,-1.2L14.4,12.9L-20.3,-20.3L-45.9,-50.9L-59.6,-73.6L-61.1,-84.0L-51.6,-79.5L-34.3,-59.4L-13.1,-25.6L7.9,17.7L-0.7,-1.8L-14.6,-44.9L-21.1,-78.9L-21.0,-98.7L-16.0,-100.9L-8.9,-85.0L-2.8,-52.8L-0.0,-8.8L-1.4,26.5L2.3,-22.1L9.9,-62.8L19.1,-90.0L26.8,-100.2L30.0,-92.4L26.2,-68.4L14.3,-32.1L-5.5,10.9L-2.6,4.4L22.5,-34.6L45.6,-62.8L62.4,-77.1L69.0,-76.6L62.9,-62.9L43.4,-39.1L12.1,-9.8L-27.3,19.8L13.1,-8.5L50.5,-29.2L79.2,-40.4L94.2,-41.9L92.6,-35.5L73.8,-24.0L39.8,-10.7L-5.0,1.1L-12.0,1.9L34.9,-3.7L73.1,-3.8L97.2,-0.0Z" fill="none" stroke="#d8ece1" stroke-width="0.5" stroke-linecap="round" opacity="0.95"/><path d="M-12.5,0.0L-19.6,-1.0L27.5,2.9L65.0,10.3L87.8,18.7L93.0,24.9L80.5,26.1L52.5,20.1L13.6,6.0L-30.2,-15.4L1.2,0.7L38.1,24.8L63.1,45.9L73.7,59.7L69.5,62.6L52.5,52.5L26.6,29.6L-3.5,-4.3L-15.7,-21.6L11.6,17.9L30.6,53.0L39.7,77.8L39.2,88.1L31.3,81.6L18.9,58.2L5.5,20.6L-5.6,-26.1L-0.9,-5.4L4.2,39.6L3.9,74.2L0.0,93.5L-5.0,94.7L-8.2,77.6L-7.1,44.9L-0.3,1.4L8.8,-32.8L-4.6,14.1L-20.1,52.5L-34.4,77.3L-43.7,85.8L-44.9,77.7L-35.9,55.2L-16.3,22.4L12.3,-15.2L8.4,-9.3L-23.9,23.9L-52.2,47.0L-71.3,57.8L-77.5,56.3L-68.3,44.4L-44.1,25.5L-7.3,3.7L37.6,-16.7L-7.7,2.9L-48.5,15.7L-78.7,21.1L-93.6,19.9L-90.7,14.4L-69.8,7.3L-33.8,1.8L12.5,-0.0L19.6,1.0L-27.5,-2.9L-65.0,-10.3L-87.8,-18.7L-93.0,-24.9L-80.5,-26.1L-52.5,-20.1L-13.6,-6.0L30.2,15.4L-1.2,-0.7L-38.1,-24.8L-63.1,-45.9L-73.7,-59.7L-69.5,-62.6L-52.5,-52.5L-26.6,-29.6L3.5,4.3L15.7,21.6L-11.6,-17.9L-30.6,-53.0L-39.7,-77.8L-39.2,-88.1L-31.3,-81.6L-18.9,-58.2L-5.5,-20.6L5.6,26.1L0.9,5.4L-4.2,-39.6L-3.9,-74.2L-0.0,-93.5L5.0,-94.7L8.2,-77.6L7.1,-44.9L0.3,-1.4L-8.8,32.8L4.6,-14.1L20.1,-52.5L34.4,-77.3L43.7,-85.8L44.9,-77.7L35.9,-55.2L16.3,-22.4L-12.3,15.2L-8.4,9.3L23.9,-23.9L52.2,-47.0L71.3,-57.8L77.5,-56.3L68.3,-44.4L44.1,-25.5L7.3,-3.7L-37.6,16.7L7.7,-2.9L48.5,-15.7L78.7,-21.1L93.6,-19.9L90.7,-14.4L69.8,-7.3L33.8,-1.8L-12.5,0.0Z" fill="none" stroke="#d9eddf" stroke-width="1.5" stroke-linecap="round" opacity="0.50" filter="url(#tg)"/><path d="M-12.5,0.0L-19.6,-1.0L27.5,2.9L65.0,10.3L87.8,18.7L93.0,24.9L80.5,26.1L52.5,20.1L13.6,6.0L-30.2,-15.4L1.2,0.7L38.1,24.8L63.1,45.9L73.7,59.7L69.5,62.6L52.5,52.5L26.6,29.6L-3.5,-4.3L-15.7,-21.6L11.6,17.9L30.6,53.0L39.7,77.8L39.2,88.1L31.3,81.6L18.9,58.2L5.5,20.6L-5.6,-26.1L-0.9,-5.4L4.2,39.6L3.9,74.2L0.0,93.5L-5.0,94.7L-8.2,77.6L-7.1,44.9L-0.3,1.4L8.8,-32.8L-4.6,14.1L-20.1,52.5L-34.4,77.3L-43.7,85.8L-44.9,77.7L-35.9,55.2L-16.3,22.4L12.3,-15.2L8.4,-9.3L-23.9,23.9L-52.2,47.0L-71.3,57.8L-77.5,56.3L-68.3,44.4L-44.1,25.5L-7.3,3.7L37.6,-16.7L-7.7,2.9L-48.5,15.7L-78.7,21.1L-93.6,19.9L-90.7,14.4L-69.8,7.3L-33.8,1.8L12.5,-0.0L19.6,1.0L-27.5,-2.9L-65.0,-10.3L-87.8,-18.7L-93.0,-24.9L-80.5,-26.1L-52.5,-20.1L-13.6,-6.0L30.2,15.4L-1.2,-0.7L-38.1,-24.8L-63.1,-45.9L-73.7,-59.7L-69.5,-62.6L-52.5,-52.5L-26.6,-29.6L3.5,4.3L15.7,21.6L-11.6,-17.9L-30.6,-53.0L-39.7,-77.8L-39.2,-88.1L-31.3,-81.6L-18.9,-58.2L-5.5,-20.6L5.6,26.1L0.9,5.4L-4.2,-39.6L-3.9,-74.2L-0.0,-93.5L5.0,-94.7L8.2,-77.6L7.1,-44.9L0.3,-1.4L-8.8,32.8L4.6,-14.1L20.1,-52.5L34.4,-77.3L43.7,-85.8L44.9,-77.7L35.9,-55.2L16.3,-22.4L-12.3,15.2L-8.4,9.3L23.9,-23.9L52.2,-47.0L71.3,-57.8L77.5,-56.3L68.3,-44.4L44.1,-25.5L7.3,-3.7L-37.6,16.7L7.7,-2.9L48.5,-15.7L78.7,-21.1L93.6,-19.9L90.7,-14.4L69.8,-7.3L33.8,-1.8L-12.5,0.0Z" fill="none" stroke="#d9eddf" stroke-width="0.5" stroke-linecap="round" opacity="0.95"/><path d="M88.3,0.0L84.3,4.4L62.5,6.6L26.1,4.1L-19.5,-4.1L-26.1,-7.0L19.3,6.3L54.6,20.9L75.2,33.5L79.2,40.4L66.9,38.6L40.9,26.6L6.0,4.4L-32.1,-26.0L-4.4,-4.0L26.9,26.9L47.3,52.5L55.0,67.9L50.6,69.6L36.4,56.1L16.2,28.0L-5.9,-11.5L-13.9,-31.2L5.0,13.0L16.6,51.1L20.7,77.2L18.5,87.1L12.5,79.0L5.6,53.5L0.7,13.9L-0.0,-34.1L0.7,-12.9L-3.4,32.2L-10.5,66.1L-17.9,84.2L-22.6,84.4L-21.8,67.2L-13.7,35.6L2.4,-5.5L18.8,-36.8L-3.7,6.5L-26.6,40.9L-45.4,62.5L-56.0,69.1L-55.1,61.2L-41.3,41.3L-15.1,13.6L21.0,-17.0L16.1,-11.7L-22.2,14.4L-54.4,31.4L-75.2,38.3L-80.7,35.9L-69.2,26.6L-41.4,13.5L-0.8,0.2L47.4,-10.1L-0.8,0.1L-43.3,4.6L-74.0,3.9L-88.3,0.0L-84.3,-4.4L-62.5,-6.6L-26.1,-4.1L19.5,4.1L26.1,7.0L-19.3,-6.3L-54.6,-20.9L-75.2,-33.5L-79.2,-40.4L-66.9,-38.6L-40.9,-26.6L-6.0,-4.4L32.1,26.0L4.4,4.0L-26.9,-26.9L-47.3,-52.5L-55.0,-67.9L-50.6,-69.6L-36.4,-56.1L-16.2,-28.0L5.9,11.5L13.9,31.2L-5.0,-13.0L-16.6,-51.1L-20.7,-77.2L-18.5,-87.1L-12.5,-79.0L-5.6,-53.5L-0.7,-13.9L0.0,34.1L-0.7,12.9L3.4,-32.2L10.5,-66.1L17.9,-84.2L22.6,-84.4L21.8,-67.2L13.7,-35.6L-2.4,5.5L-18.8,36.8L3.7,-6.5L26.6,-40.9L45.4,-62.5L56.0,-69.1L55.1,-61.2L41.3,-41.3L15.1,-13.6L-21.0,17.0L-16.1,11.7L22.2,-14.4L54.4,-31.4L75.2,-38.3L80.7,-35.9L69.2,-26.6L41.4,-13.5L0.8,-0.2L-47.4,10.1L0.8,-0.1L43.3,-4.6L74.0,-3.9L88.3,-0.0Z" fill="none" stroke="#daeede" stroke-width="1.5" stroke-linecap="round" opacity="0.50" filter="url(#tg)"/><path d="M88.3,0.0L84.3,4.4L62.5,6.6L26.1,4.1L-19.5,-4.1L-26.1,-7.0L19.3,6.3L54.6,20.9L75.2,33.5L79.2,40.4L66.9,38.6L40.9,26.6L6.0,4.4L-32.1,-26.0L-4.4,-4.0L26.9,26.9L47.3,52.5L55.0,67.9L50.6,69.6L36.4,56.1L16.2,28.0L-5.9,-11.5L-13.9,-31.2L5.0,13.0L16.6,51.1L20.7,77.2L18.5,87.1L12.5,79.0L5.6,53.5L0.7,13.9L-0.0,-34.1L0.7,-12.9L-3.4,32.2L-10.5,66.1L-17.9,84.2L-22.6,84.4L-21.8,67.2L-13.7,35.6L2.4,-5.5L18.8,-36.8L-3.7,6.5L-26.6,40.9L-45.4,62.5L-56.0,69.1L-55.1,61.2L-41.3,41.3L-15.1,13.6L21.0,-17.0L16.1,-11.7L-22.2,14.4L-54.4,31.4L-75.2,38.3L-80.7,35.9L-69.2,26.6L-41.4,13.5L-0.8,0.2L47.4,-10.1L-0.8,0.1L-43.3,4.6L-74.0,3.9L-88.3,0.0L-84.3,-4.4L-62.5,-6.6L-26.1,-4.1L19.5,4.1L26.1,7.0L-19.3,-6.3L-54.6,-20.9L-75.2,-33.5L-79.2,-40.4L-66.9,-38.6L-40.9,-26.6L-6.0,-4.4L32.1,26.0L4.4,4.0L-26.9,-26.9L-47.3,-52.5L-55.0,-67.9L-50.6,-69.6L-36.4,-56.1L-16.2,-28.0L5.9,11.5L13.9,31.2L-5.0,-13.0L-16.6,-51.1L-20.7,-77.2L-18.5,-87.1L-12.5,-79.0L-5.6,-53.5L-0.7,-13.9L0.0,34.1L-0.7,12.9L3.4,-32.2L10.5,-66.1L17.9,-84.2L22.6,-84.4L21.8,-67.2L13.7,-35.6L-2.4,5.5L-18.8,36.8L3.7,-6.5L26.6,-40.9L45.4,-62.5L56.0,-69.1L55.1,-61.2L41.3,-41.3L15.1,-13.6L-21.0,17.0L-16.1,11.7L22.2,-14.4L54.4,-31.4L75.2,-38.3L80.7,-35.9L69.2,-26.6L41.4,-13.5L0.8,-0.2L-47.4,10.1L0.8,-0.1L43.3,-4.6L74.0,-3.9L88.3,-0.0Z" fill="none" stroke="#daeede" stroke-width="0.5" stroke-linecap="round" opacity="0.95"/><path d="M-55.9,0.0L-6.6,-0.3L36.0,3.8L65.9,10.4L79.2,16.8L74.4,19.9L52.7,17.1L17.8,6.8L-24.9,-11.1L-30.6,-15.6L11.2,6.5L42.8,27.8L60.6,44.1L63.3,51.3L51.9,46.7L29.3,29.3L0.0,0.0L-30.6,-37.8L-7.9,-10.8L16.7,25.7L31.6,54.8L36.3,71.3L32.0,71.9L21.3,55.5L7.7,23.8L-5.3,-19.6L-8.6,-40.6L1.0,6.5L4.8,46.1L3.8,72.5L0.0,81.7L-3.8,72.5L-4.8,46.1L-1.0,6.5L8.6,-40.6L5.3,-19.6L-7.7,23.8L-21.3,55.5L-32.0,71.9L-36.3,71.3L-31.6,54.8L-16.7,25.7L7.9,-10.8L30.6,-37.8L-0.0,0.0L-29.3,29.3L-51.9,46.7L-63.3,51.3L-60.6,44.1L-42.8,27.8L-11.2,6.4L30.6,-15.6L24.9,-11.1L-17.8,6.8L-52.7,17.1L-74.4,19.9L-79.2,16.8L-65.9,10.4L-36.0,3.8L6.6,-0.3L55.9,-0.0L6.6,0.3L-36.0,-3.8L-65.9,-10.4L-79.2,-16.8L-74.4,-19.9L-52.7,-17.1L-17.8,-6.8L24.9,11.1L30.6,15.6L-11.2,-6.5L-42.8,-27.8L-60.6,-44.1L-63.3,-51.3L-51.9,-46.7L-29.3,-29.3L-0.0,-0.0L30.6,37.8L7.9,10.8L-16.7,-25.7L-31.6,-54.8L-36.3,-71.3L-32.0,-71.9L-21.3,-55.5L-7.7,-23.8L5.3,19.6L8.6,40.6L-1.0,-6.5L-4.8,-46.1L-3.8,-72.5L-0.0,-81.7L3.8,-72.5L4.8,-46.1L1.0,-6.5L-8.6,40.6L-5.3,19.6L7.7,-23.8L21.3,-55.5L32.0,-71.9L36.3,-71.3L31.6,-54.8L16.7,-25.7L-7.9,10.8L-30.6,37.8L0.0,-0.0L29.3,-29.3L51.9,-46.7L63.3,-51.3L60.6,-44.1L42.8,-27.8L11.2,-6.5L-30.6,15.6L-24.9,11.1L17.8,-6.8L52.7,-17.1L74.4,-19.9L79.2,-16.8L65.9,-10.4L36.0,-3.8L-6.6,0.3L-55.9,0.0Z" fill="none" stroke="#dbefdc" stroke-width="1.5" stroke-linecap="round" opacity="0.50" filter="url(#tg)"/><path d="M-55.9,0.0L-6.6,-0.3L36.0,3.8L65.9,10.4L79.2,16.8L74.4,19.9L52.7,17.1L17.8,6.8L-24.9,-11.1L-30.6,-15.6L11.2,6.5L42.8,27.8L60.6,44.1L63.3,51.3L51.9,46.7L29.3,29.3L0.0,0.0L-30.6,-37.8L-7.9,-10.8L16.7,25.7L31.6,54.8L36.3,71.3L32.0,71.9L21.3,55.5L7.7,23.8L-5.3,-19.6L-8.6,-40.6L1.0,6.5L4.8,46.1L3.8,72.5L0.0,81.7L-3.8,72.5L-4.8,46.1L-1.0,6.5L8.6,-40.6L5.3,-19.6L-7.7,23.8L-21.3,55.5L-32.0,71.9L-36.3,71.3L-31.6,54.8L-16.7,25.7L7.9,-10.8L30.6,-37.8L-0.0,0.0L-29.3,29.3L-51.9,46.7L-63.3,51.3L-60.6,44.1L-42.8,27.8L-11.2,6.4L30.6,-15.6L24.9,-11.1L-17.8,6.8L-52.7,17.1L-74.4,19.9L-79.2,16.8L-65.9,10.4L-36.0,3.8L6.6,-0.3L55.9,-0.0L6.6,0.3L-36.0,-3.8L-65.9,-10.4L-79.2,-16.8L-74.4,-19.9L-52.7,-17.1L-17.8,-6.8L24.9,11.1L30.6,15.6L-11.2,-6.5L-42.8,-27.8L-60.6,-44.1L-63.3,-51.3L-51.9,-46.7L-29.3,-29.3L-0.0,-0.0L30.6,37.8L7.9,10.8L-16.7,-25.7L-31.6,-54.8L-36.3,-71.3L-32.0,-71.9L-21.3,-55.5L-7.7,-23.8L5.3,19.6L8.6,40.6L-1.0,-6.5L-4.8,-46.1L-3.8,-72.5L-0.0,-81.7L3.8,-72.5L4.8,-46.1L1.0,-6.5L-8.6,40.6L-5.3,19.6L7.7,-23.8L21.3,-55.5L32.0,-71.9L36.3,-71.3L31.6,-54.8L16.7,-25.7L-7.9,10.8L-30.6,37.8L0.0,-0.0L29.3,-29.3L51.9,-46.7L63.3,-51.3L60.6,-44.1L42.8,-27.8L11.2,-6.5L-30.6,15.6L-24.9,11.1L17.8,-6.8L52.7,-17.1L74.4,-19.9L79.2,-16.8L65.9,-10.4L36.0,-3.8L-6.6,0.3L-55.9,0.0Z" fill="none" stroke="#dbefdc" stroke-width="0.5" stroke-linecap="round" opacity="0.95"/><path d="M73.6,0.0L59.2,3.1L28.6,3.0L-13.8,-2.2L-61.9,-13.2L-13.5,-3.6L27.4,8.9L55.4,21.3L67.2,29.9L62.0,31.6L41.6,24.0L9.8,6.3L-28.1,-20.4L-32.5,-26.3L4.1,3.7L30.9,30.9L45.2,50.2L46.6,57.6L36.7,50.5L18.5,28.5L-3.7,-6.3L-25.5,-50.0L-8.5,-19.0L8.3,21.8L17.3,53.1L18.8,70.1L14.8,69.7L8.2,51.5L1.8,17.5L-1.4,-27.6L-0.0,-48.9L0.0,-0.8L-4.1,38.7L-10.2,64.4L-15.4,72.7L-16.9,62.9L-12.0,37.1L0.3,-0.8L19.9,-44.7L12.6,-24.7L-8.8,15.2L-28.4,43.7L-41.9,57.7L-45.7,56.4L-37.4,41.5L-16.5,16.5L15.4,-13.9L43.6,-35.3L5.9,-4.3L-28.5,18.5L-54.0,31.2L-66.0,33.6L-61.7,27.5L-40.7,15.6L-5.2,1.7L40.3,-10.8L33.9,-7.2L-11.5,1.8L-47.8,5.0L-69.5,3.6L-73.6,0.0L-59.2,-3.1L-28.6,-3.0L13.8,2.2L61.9,13.2L13.5,3.6L-27.4,-8.9L-55.4,-21.3L-67.2,-29.9L-62.0,-31.6L-41.6,-24.0L-9.8,-6.3L28.1,20.4L32.5,26.3L-4.1,-3.7L-30.9,-30.9L-45.2,-50.2L-46.6,-57.6L-36.7,-50.5L-18.5,-28.5L3.7,6.3L25.5,50.0L8.5,19.0L-8.3,-21.8L-17.3,-53.1L-18.8,-70.1L-14.8,-69.7L-8.2,-51.5L-1.8,-17.5L1.4,27.6L0.0,48.9L-0.0,0.8L4.1,-38.7L10.2,-64.4L15.4,-72.7L16.9,-62.9L12.0,-37.1L-0.3,0.8L-19.9,44.7L-12.6,24.7L8.8,-15.2L28.4,-43.7L41.9,-57.7L45.7,-56.4L37.4,-41.5L16.5,-16.5L-15.4,13.9L-43.6,35.3L-5.9,4.3L28.5,-18.5L54.0,-31.2L66.0,-33.6L61.7,-27.5L40.7,-15.6L5.2,-1.7L-40.3,10.8L-33.9,7.2L11.5,-1.8L47.8,-5.0L69.5,-3.6L73.6,-0.0Z" fill="none" stroke="#dbf1db" stroke-width="1.5" stroke-linecap="round" opacity="0.50" filter="url(#tg)"/><path d="M73.6,0.0L59.2,3.1L28.6,3.0L-13.8,-2.2L-61.9,-13.2L-13.5,-3.6L27.4,8.9L55.4,21.3L67.2,29.9L62.0,31.6L41.6,24.0L9.8,6.3L-28.1,-20.4L-32.5,-26.3L4.1,3.7L30.9,30.9L45.2,50.2L46.6,57.6L36.7,50.5L18.5,28.5L-3.7,-6.3L-25.5,-50.0L-8.5,-19.0L8.3,21.8L17.3,53.1L18.8,70.1L14.8,69.7L8.2,51.5L1.8,17.5L-1.4,-27.6L-0.0,-48.9L0.0,-0.8L-4.1,38.7L-10.2,64.4L-15.4,72.7L-16.9,62.9L-12.0,37.1L0.3,-0.8L19.9,-44.7L12.6,-24.7L-8.8,15.2L-28.4,43.7L-41.9,57.7L-45.7,56.4L-37.4,41.5L-16.5,16.5L15.4,-13.9L43.6,-35.3L5.9,-4.3L-28.5,18.5L-54.0,31.2L-66.0,33.6L-61.7,27.5L-40.7,15.6L-5.2,1.7L40.3,-10.8L33.9,-7.2L-11.5,1.8L-47.8,5.0L-69.5,3.6L-73.6,0.0L-59.2,-3.1L-28.6,-3.0L13.8,2.2L61.9,13.2L13.5,3.6L-27.4,-8.9L-55.4,-21.3L-67.2,-29.9L-62.0,-31.6L-41.6,-24.0L-9.8,-6.3L28.1,20.4L32.5,26.3L-4.1,-3.7L-30.9,-30.9L-45.2,-50.2L-46.6,-57.6L-36.7,-50.5L-18.5,-28.5L3.7,6.3L25.5,50.0L8.5,19.0L-8.3,-21.8L-17.3,-53.1L-18.8,-70.1L-14.8,-69.7L-8.2,-51.5L-1.8,-17.5L1.4,27.6L0.0,48.9L-0.0,0.8L4.1,-38.7L10.2,-64.4L15.4,-72.7L16.9,-62.9L12.0,-37.1L-0.3,0.8L-19.9,44.7L-12.6,24.7L8.8,-15.2L28.4,-43.7L41.9,-57.7L45.7,-56.4L37.4,-41.5L16.5,-16.5L-15.4,13.9L-43.6,35.3L-5.9,4.3L28.5,-18.5L54.0,-31.2L66.0,-33.6L61.7,-27.5L40.7,-15.6L5.2,-1.7L-40.3,10.8L-33.9,7.2L11.5,-1.8L47.8,-5.0L69.5,-3.6L73.6,-0.0Z" fill="none" stroke="#dbf1db" stroke-width="0.5" stroke-linecap="round" opacity="0.95"/><path d="M-42.1,0.0L4.2,0.2L40.4,4.2L61.5,9.7L64.7,13.8L50.1,13.4L20.3,6.6L-20.0,-7.7L-64.6,-28.8L-19.1,-9.7L18.5,10.7L43.5,28.3L53.5,38.9L48.4,39.2L30.2,27.2L3.0,3.0L-28.2,-31.3L-30.9,-38.2L-1.1,-1.5L19.7,30.4L30.1,52.1L30.3,59.4L22.4,50.3L9.5,24.8L-4.6,-14.0L-16.4,-61.3L-5.9,-27.6L2.5,15.7L5.1,48.2L3.4,65.1L0.0,63.9L-2.3,44.6L-1.1,10.1L5.5,-34.6L11.7,-55.1L2.1,-7.9L-9.8,30.0L-20.7,53.9L-27.2,61.1L-26.2,51.5L-15.8,27.3L4.5,-6.9L33.1,-45.6L22.1,-27.3L-6.8,7.6L-31.6,31.6L-47.5,42.8L-50.7,41.0L-39.2,28.5L-13.3,8.7L24.4,-14.1L56.6,-28.8L13.5,-6.0L-24.8,9.5L-52.3,17.0L-64.4,17.3L-58.9,12.5L-35.8,5.7L1.9,-0.2L49.1,-2.6L42.1,-0.0L-4.2,-0.2L-40.4,-4.2L-61.5,-9.7L-64.7,-13.8L-50.1,-13.4L-20.3,-6.6L20.0,7.7L64.6,28.8L19.1,9.7L-18.5,-10.7L-43.5,-28.3L-53.5,-38.9L-48.4,-39.2L-30.2,-27.2L-3.0,-3.0L28.2,31.3L30.9,38.2L1.1,1.5L-19.7,-30.4L-30.1,-52.1L-30.3,-59.4L-22.4,-50.3L-9.5,-24.8L4.6,14.0L16.4,61.3L5.9,27.6L-2.5,-15.7L-5.1,-48.2L-3.4,-65.1L-0.0,-63.9L2.3,-44.6L1.1,-10.1L-5.5,34.6L-11.7,55.1L-2.1,7.9L9.8,-30.0L20.7,-53.9L27.2,-61.1L26.2,-51.5L15.8,-27.3L-4.5,6.9L-33.1,45.6L-22.1,27.3L6.8,-7.6L31.6,-31.6L47.5,-42.8L50.7,-41.0L39.2,-28.5L13.3,-8.7L-24.4,14.1L-56.6,28.8L-13.5,6.0L24.8,-9.5L52.3,-17.0L64.4,-17.3L58.9,-12.5L35.8,-5.7L-1.9,0.2L-49.1,2.6L-42.1,0.0Z" fill="none" stroke="#dcf2d9" stroke-width="1.5" stroke-linecap="round" opacity="0.50" filter="url(#tg)"/><path d="M-42.1,0.0L4.2,0.2L40.4,4.2L61.5,9.7L64.7,13.8L50.1,13.4L20.3,6.6L-20.0,-7.7L-64.6,-28.8L-19.1,-9.7L18.5,10.7L43.5,28.3L53.5,38.9L48.4,39.2L30.2,27.2L3.0,3.0L-28.2,-31.3L-30.9,-38.2L-1.1,-1.5L19.7,30.4L30.1,52.1L30.3,59.4L22.4,50.3L9.5,24.8L-4.6,-14.0L-16.4,-61.3L-5.9,-27.6L2.5,15.7L5.1,48.2L3.4,65.1L0.0,63.9L-2.3,44.6L-1.1,10.1L5.5,-34.6L11.7,-55.1L2.1,-7.9L-9.8,30.0L-20.7,53.9L-27.2,61.1L-26.2,51.5L-15.8,27.3L4.5,-6.9L33.1,-45.6L22.1,-27.3L-6.8,7.6L-31.6,31.6L-47.5,42.8L-50.7,41.0L-39.2,28.5L-13.3,8.7L24.4,-14.1L56.6,-28.8L13.5,-6.0L-24.8,9.5L-52.3,17.0L-64.4,17.3L-58.9,12.5L-35.8,5.7L1.9,-0.2L49.1,-2.6L42.1,-0.0L-4.2,-0.2L-40.4,-4.2L-61.5,-9.7L-64.7,-13.8L-50.1,-13.4L-20.3,-6.6L20.0,7.7L64.6,28.8L19.1,9.7L-18.5,-10.7L-43.5,-28.3L-53.5,-38.9L-48.4,-39.2L-30.2,-27.2L-3.0,-3.0L28.2,31.3L30.9,38.2L1.1,1.5L-19.7,-30.4L-30.1,-52.1L-30.3,-59.4L-22.4,-50.3L-9.5,-24.8L4.6,14.0L16.4,61.3L5.9,27.6L-2.5,-15.7L-5.1,-48.2L-3.4,-65.1L-0.0,-63.9L2.3,-44.6L1.1,-10.1L-5.5,34.6L-11.7,55.1L-2.1,7.9L9.8,-30.0L20.7,-53.9L27.2,-61.1L26.2,-51.5L15.8,-27.3L-4.5,6.9L-33.1,45.6L-22.1,27.3L6.8,-7.6L31.6,-31.6L47.5,-42.8L50.7,-41.0L39.2,-28.5L13.3,-8.7L-24.4,14.1L-56.6,28.8L-13.5,6.0L24.8,-9.5L52.3,-17.0L64.4,-17.3L58.9,-12.5L35.8,-5.7L-1.9,0.2L-49.1,2.6L-42.1,0.0Z" fill="none" stroke="#dcf2d9" stroke-width="0.5" stroke-linecap="round" opacity="0.95"/><path d="M52.8,0.0L28.8,1.5L-9.2,-1.0L-55.9,-8.8L-48.4,-10.3L-3.0,-0.8L31.6,10.3L51.2,19.6L53.7,23.9L39.7,20.2L12.1,7.0L-24.1,-15.7L-63.2,-45.9L-22.4,-18.1L10.4,9.4L31.5,31.5L39.3,43.7L34.5,42.6L19.5,26.9L-1.7,-2.6L-24.7,-42.9L-25.7,-50.4L-3.8,-8.5L10.3,26.9L16.3,50.2L15.4,57.3L9.9,46.6L3.0,19.0L-2.3,-22.0L-3.7,-70.8L-0.0,-35.6L-0.4,8.5L-4.3,40.9L-9.0,57.1L-11.7,55.3L-9.7,36.0L-0.9,2.7L15.2,-39.7L25.9,-58.2L7.1,-13.9L-12.1,20.9L-27.4,42.2L-35.0,48.1L-31.7,39.1L-16.2,18.0L11.0,-11.0L47.3,-42.6L33.0,-26.7L-2.3,1.6L-31.3,20.3L-48.9,28.3L-51.5,26.2L-37.5,16.7L-7.9,3.0L33.8,-11.0L68.5,-18.3L21.6,-4.6L-19.0,3.0L-47.4,5.0L-59.2,3.1L-52.8,0.0L-28.8,-1.5L9.2,1.0L55.9,8.8L48.4,10.3L3.0,0.8L-31.6,-10.3L-51.2,-19.6L-53.7,-23.9L-39.7,-20.2L-12.1,-7.0L24.1,15.7L63.2,45.9L22.4,18.1L-10.4,-9.4L-31.5,-31.5L-39.3,-43.7L-34.5,-42.6L-19.5,-26.9L1.7,2.6L24.7,42.9L25.7,50.4L3.8,8.5L-10.3,-26.9L-16.3,-50.2L-15.4,-57.3L-9.9,-46.6L-3.0,-19.0L2.3,22.0L3.7,70.8L0.0,35.6L0.4,-8.5L4.3,-40.9L9.0,-57.1L11.7,-55.3L9.7,-36.0L0.9,-2.7L-15.2,39.7L-25.9,58.2L-7.1,13.9L12.1,-20.9L27.4,-42.2L35.0,-48.1L31.7,-39.1L16.2,-18.0L-11.0,11.0L-47.3,42.6L-33.0,26.7L2.3,-1.6L31.3,-20.3L48.9,-28.3L51.5,-26.2L37.5,-16.7L7.9,-3.0L-33.8,11.0L-68.5,18.3L-21.6,4.6L19.0,-3.0L47.4,-5.0L59.2,-3.1L52.8,-0.0Z" fill="none" stroke="#ddf3d8" stroke-width="1.5" stroke-linecap="round" opacity="0.50" filter="url(#tg)"/><path d="M52.8,0.0L28.8,1.5L-9.2,-1.0L-55.9,-8.8L-48.4,-10.3L-3.0,-0.8L31.6,10.3L51.2,19.6L53.7,23.9L39.7,20.2L12.1,7.0L-24.1,-15.7L-63.2,-45.9L-22.4,-18.1L10.4,9.4L31.5,31.5L39.3,43.7L34.5,42.6L19.5,26.9L-1.7,-2.6L-24.7,-42.9L-25.7,-50.4L-3.8,-8.5L10.3,26.9L16.3,50.2L15.4,57.3L9.9,46.6L3.0,19.0L-2.3,-22.0L-3.7,-70.8L-0.0,-35.6L-0.4,8.5L-4.3,40.9L-9.0,57.1L-11.7,55.3L-9.7,36.0L-0.9,2.7L15.2,-39.7L25.9,-58.2L7.1,-13.9L-12.1,20.9L-27.4,42.2L-35.0,48.1L-31.7,39.1L-16.2,18.0L11.0,-11.0L47.3,-42.6L33.0,-26.7L-2.3,1.6L-31.3,20.3L-48.9,28.3L-51.5,26.2L-37.5,16.7L-7.9,3.0L33.8,-11.0L68.5,-18.3L21.6,-4.6L-19.0,3.0L-47.4,5.0L-59.2,3.1L-52.8,0.0L-28.8,-1.5L9.2,1.0L55.9,8.8L48.4,10.3L3.0,0.8L-31.6,-10.3L-51.2,-19.6L-53.7,-23.9L-39.7,-20.2L-12.1,-7.0L24.1,15.7L63.2,45.9L22.4,18.1L-10.4,-9.4L-31.5,-31.5L-39.3,-43.7L-34.5,-42.6L-19.5,-26.9L1.7,2.6L24.7,42.9L25.7,50.4L3.8,8.5L-10.3,-26.9L-16.3,-50.2L-15.4,-57.3L-9.9,-46.6L-3.0,-19.0L2.3,22.0L3.7,70.8L0.0,35.6L0.4,-8.5L4.3,-40.9L9.0,-57.1L11.7,-55.3L9.7,-36.0L0.9,-2.7L-15.2,39.7L-25.9,58.2L-7.1,13.9L12.1,-20.9L27.4,-42.2L35.0,-48.1L31.7,-39.1L16.2,-18.0L-11.0,11.0L-47.3,42.6L-33.0,26.7L2.3,-1.6L31.3,-20.3L48.9,-28.3L51.5,-26.2L37.5,-16.7L7.9,-3.0L-33.8,11.0L-68.5,18.3L-21.6,4.6L19.0,-3.0L47.4,-5.0L59.2,-3.1L52.8,-0.0Z" fill="none" stroke="#ddf3d8" stroke-width="0.5" stroke-linecap="round" opacity="0.95"/><path d="M-29.5,0.0L11.8,0.6L40.0,4.2L51.3,8.1L44.4,9.4L20.7,5.6L-15.9,-5.2L-59.7,-22.9L-52.0,-23.1L-9.4,-4.8L22.4,12.9L39.8,25.8L41.6,30.2L28.8,23.4L4.9,4.4L-25.6,-25.6L-57.2,-63.5L-22.8,-28.1L3.9,5.3L20.2,31.1L25.7,44.5L21.5,42.3L10.5,23.6L-3.8,-9.8L-17.6,-54.1L-16.6,-61.8L-3.5,-16.3L3.4,21.2L4.7,45.1L2.7,51.9L0.0,40.2L-0.6,11.8L3.1,-29.4L12.2,-77.3L8.9,-42.0L-0.3,1.1L-10.4,32.0L-18.1,47.1L-20.0,44.9L-13.6,26.7L2.3,-4.0L27.2,-41.8L41.8,-57.5L14.5,-17.9L-11.2,12.5L-30.4,30.4L-38.7,34.9L-33.4,27.0L-13.6,9.9L19.3,-12.5L61.6,-35.6L44.4,-22.6L4.2,-1.9L-27.9,10.7L-46.7,15.2L-48.7,13.1L-32.9,7.0L-1.1,0.2L42.7,-4.5L78.2,-4.1L29.5,-0.0L-11.8,-0.6L-40.0,-4.2L-51.3,-8.1L-44.4,-9.4L-20.7,-5.6L15.9,5.2L59.7,22.9L52.0,23.1L9.4,4.8L-22.4,-12.9L-39.8,-25.8L-41.6,-30.2L-28.8,-23.4L-4.9,-4.4L25.6,25.6L57.2,63.5L22.8,28.1L-3.9,-5.3L-20.2,-31.1L-25.7,-44.5L-21.5,-42.3L-10.5,-23.6L3.8,9.8L17.6,54.1L16.6,61.8L3.5,16.3L-3.4,-21.2L-4.7,-45.1L-2.7,-51.9L-0.0,-40.2L0.6,-11.8L-3.1,29.4L-12.2,77.3L-8.9,42.0L0.3,-1.1L10.4,-32.0L18.1,-47.1L20.0,-44.9L13.6,-26.7L-2.3,4.0L-27.2,41.8L-41.8,57.5L-14.5,17.9L11.2,-12.5L30.4,-30.4L38.7,-34.9L33.4,-27.0L13.6,-9.9L-19.3,12.5L-61.6,35.6L-44.4,22.6L-4.2,1.9L27.9,-10.7L46.7,-15.2L48.7,-13.1L32.9,-7.0L1.1,-0.2L-42.7,4.5L-78.2,4.1L-29.5,0.0Z" fill="none" stroke="#def4d7" stroke-width="1.5" stroke-linecap="round" opacity="0.50" filter="url(#tg)"/><path d="M-29.5,0.0L11.8,0.6L40.0,4.2L51.3,8.1L44.4,9.4L20.7,5.6L-15.9,-5.2L-59.7,-22.9L-52.0,-23.1L-9.4,-4.8L22.4,12.9L39.8,25.8L41.6,30.2L28.8,23.4L4.9,4.4L-25.6,-25.6L-57.2,-63.5L-22.8,-28.1L3.9,5.3L20.2,31.1L25.7,44.5L21.5,42.3L10.5,23.6L-3.8,-9.8L-17.6,-54.1L-16.6,-61.8L-3.5,-16.3L3.4,21.2L4.7,45.1L2.7,51.9L0.0,40.2L-0.6,11.8L3.1,-29.4L12.2,-77.3L8.9,-42.0L-0.3,1.1L-10.4,32.0L-18.1,47.1L-20.0,44.9L-13.6,26.7L2.3,-4.0L27.2,-41.8L41.8,-57.5L14.5,-17.9L-11.2,12.5L-30.4,30.4L-38.7,34.9L-33.4,27.0L-13.6,9.9L19.3,-12.5L61.6,-35.6L44.4,-22.6L4.2,-1.9L-27.9,10.7L-46.7,15.2L-48.7,13.1L-32.9,7.0L-1.1,0.2L42.7,-4.5L78.2,-4.1L29.5,-0.0L-11.8,-0.6L-40.0,-4.2L-51.3,-8.1L-44.4,-9.4L-20.7,-5.6L15.9,5.2L59.7,22.9L52.0,23.1L9.4,4.8L-22.4,-12.9L-39.8,-25.8L-41.6,-30.2L-28.8,-23.4L-4.9,-4.4L25.6,25.6L57.2,63.5L22.8,28.1L-3.9,-5.3L-20.2,-31.1L-25.7,-44.5L-21.5,-42.3L-10.5,-23.6L3.8,9.8L17.6,54.1L16.6,61.8L3.5,16.3L-3.4,-21.2L-4.7,-45.1L-2.7,-51.9L-0.0,-40.2L0.6,-11.8L-3.1,29.4L-12.2,77.3L-8.9,42.0L0.3,-1.1L10.4,-32.0L18.1,-47.1L20.0,-44.9L13.6,-26.7L-2.3,4.0L-27.2,41.8L-41.8,57.5L-14.5,17.9L11.2,-12.5L30.4,-30.4L38.7,-34.9L33.4,-27.0L13.6,-9.9L-19.3,12.5L-61.6,35.6L-44.4,22.6L-4.2,1.9L27.9,-10.7L46.7,-15.2L48.7,-13.1L32.9,-7.0L1.1,-0.2L-42.7,4.5L-78.2,4.1L-29.5,0.0Z" fill="none" stroke="#def4d7" stroke-width="0.5" stroke-linecap="round" opacity="0.95"/>
</svg>