<svg xmlns="http://www.w3.org/2000/svg" viewBox="-250 -250 500 500">
<defs><filter id="tg"><feGaussianBlur stdDeviation="11.4"/></filter></defs>
<rect x="-250" y="-250" width="500" height="500" fill="#9a06ae"/>
<path d="M378.3,0.0L378.2,6.6L378.1,13.2L377.8,19.8L377.4,26.4L376.9,33.0L376.2,39.5L375.5,46.1L374.6,52.6L308.5,48.9L307.6,54.2L306.6,59.6L305.5,64.9L304.3,70.3L303.1,75.6L301.7,80.8L300.2,86.1L298.7,91.3L297.1,96.5L295.3,101.7L293.5,106.8L291.6,111.9L289.6,117.0L287.5,122.0L285.3,127.0L283.1,132.0L280.7,136.9L278.3,141.8L275.8,146.6L273.2,151.4L270.5,156.2L267.7,160.9L264.9,165.5L262.0,170.1L258.9,174.7L255.9,179.2L252.7,183.6L249.4,188.0L246.1,192.3L242.7,196.6L239.3,200.8L235.7,204.9L232.1,209.0L228.4,213.0L224.7,217.0L220.9,220.9L217.0,224.7L213.0,228.4L209.0,232.1L204.9,235.7L200.8,239.3L196.6,242.7L232.9,298.1L227.7,302.1L222.4,306.1L217.0,309.9L211.5,313.6L206.0,317.3L200.5,320.8L194.8,324.3L189.2,327.6L151.4,273.2L146.6,275.8L141.8,278.3L136.9,280.7L132.0,283.1L127.0,285.3L122.0,287.5L117.0,289.6L111.9,291.6L106.8,293.5L101.7,295.3L96.5,297.1L91.3,298.7L86.1,300.2L80.8,301.7L75.6,303.1L70.3,304.3L64.9,305.5L59.6,306.6L54.2,307.6L48.9,308.5L43.5,309.3L38.1,310.0L32.6,310.6L27.2,311.2L21.8,311.6L16.3,311.9L10.9,312.1L5.5,312.3L0.0,312.3L-5.5,312.3L-10.9,312.1L-16.3,311.9L-21.8,311.6L-27.2,311.2L-32.6,310.6L-38.1,310.0L-43.5,309.3L-48.9,308.5L-54.2,307.6L-59.6,306.6L-64.9,305.5L-85.1,368.6L-91.5,367.1L-97.9,365.4L-104.3,363.6L-110.6,361.8L-116.9,359.8L-123.2,357.7L-129.4,355.5L-135.6,353.2L-117.0,289.6L-122.0,287.5L-127.0,285.3L-132.0,283.1L-136.9,280.7L-141.8,278.3L-146.6,275.8L-151.4,273.2L-156.2,270.5L-160.9,267.7L-165.5,264.9L-170.1,262.0L-174.7,258.9L-179.2,255.9L-183.6,252.7L-188.0,249.4L-192.3,246.1L-196.6,242.7L-200.8,239.3L-204.9,235.7L-209.0,232.1L-213.0,228.4L-217.0,224.7L-220.9,220.9L-224.7,217.0L-228.4,213.0L-232.1,209.0L-235.7,204.9L-239.3,200.8L-242.7,196.6L-246.1,192.3L-249.4,188.0L-252.7,183.6L-255.9,179.2L-258.9,174.7L-262.0,170.1L-264.9,165.5L-267.7,160.9L-270.5,156.2L-273.2,151.4L-275.8,146.6L-278.3,141.8L-280.7,136.9L-342.9,159.9L-345.6,153.9L-348.2,147.8L-350.8,141.7L-353.2,135.6L-355.5,129.4L-357.7,123.2L-359.8,116.9L-361.8,110.6L-300.2,86.1L-301.7,80.8L-303.1,75.6L-304.3,70.3L-305.5,64.9L-306.6,59.6L-307.6,54.2L-308.5,48.9L-309.3,43.5L-310.0,38.1L-310.6,32.6L-311.2,27.2L-311.6,21.8L-311.9,16.3L-312.1,10.9L-312.3,5.5L-312.3,0.0L-312.3,-5.5L-312.1,-10.9L-311.9,-16.3L-311.6,-21.8L-311.2,-27.2L-310.6,-32.6L-310.0,-38.1L-309.3,-43.5L-308.5,-48.9L-307.6,-54.2L-306.6,-59.6L-305.5,-64.9L-304.3,-70.3L-303.1,-75.6L-301.7,-80.8L-300.2,-86.1L-298.7,-91.3L-297.1,-96.5L-295.3,-101.7L-293.5,-106.8L-291.6,-111.9L-289.6,-117.0L-287.5,-122.0L-285.3,-127.0L-283.1,-132.0L-340.0,-165.8L-337.1,-171.7L-334.0,-177.6L-330.9,-183.4L-327.6,-189.2L-324.3,-194.8L-320.8,-200.5L-317.3,-206.0L-313.6,-211.5L-255.9,-179.2L-252.7,-183.6L-249.4,-188.0L-246.1,-192.3L-242.7,-196.6L-239.3,-200.8L-235.7,-204.9L-232.1,-209.0L-228.4,-213.0L-224.7,-217.0L-220.9,-220.9L-217.0,-224.7L-213.0,-228.4L-209.0,-232.1L-204.9,-235.7L-200.8,-239.3L-196.6,-242.7L-192.3,-246.1L-188.0,-249.4L-183.6,-252.7L-179.2,-255.9L-174.7,-258.9L-170.1,-262.0L-165.5,-264.9L-160.9,-267.7L-156.2,-270.5L-151.4,-273.2L-146.6,-275.8L-141.8,-278.3L-136.9,-280.7L-132.0,-283.1L-127.0,-285.3L-122.0,-287.5L-117.0,-289.6L-111.9,-291.6L-106.8,-293.5L-101.7,-295.3L-96.5,-297.1L-91.3,-298.7L-86.1,-300.2L-80.8,-301.7L-75.6,-303.1L-70.3,-304.3L-78.7,-370.0L-72.2,-371.3L-65.7,-372.6L-59.2,-373.6L-52.6,-374.6L-46.1,-375.5L-39.5,-376.2L-33.0,-376.9L-26.4,-377.4L-16.3,-311.9L-10.9,-312.1L-5.5,-312.3L-0.0,-312.3L5.5,-312.3L10.9,-312.1L16.3,-311.9L21.8,-311.6L27.2,-311.2L32.6,-310.6L38.1,-310.0L43.5,-309.3L48.9,-308.5L54.2,-307.6L59.6,-306.6L64.9,-305.5L70.3,-304.3L75.6,-303.1L80.8,-301.7L86.1,-300.2L91.3,-298.7L96.5,-297.1L101.7,-295.3L106.8,-293.5L111.9,-291.6L117.0,-289.6L122.0,-287.5L127.0,-285.3L132.0,-283.1L136.9,-280.7L141.8,-278.3L146.6,-275.8L151.4,-273.2L156.2,-270.5L160.9,-267.7L165.5,-264.9L170.1,-262.0L174.7,-258.9L179.2,-255.9L183.6,-252.7L188.0,-249.4L192.3,-246.1L238.1,-294.0L243.2,-289.8L248.2,-285.5L253.1,-281.1L258.0,-276.7L262.8,-272.1L267.5,-267.5L272.1,-262.8L276.7,-258.0L232.1,-209.0L235.7,-204.9L239.3,-200.8L242.7,-196.6L246.1,-192.3L249.4,-188.0L252.7,-183.6L255.9,-179.2L258.9,-174.7L262.0,-170.1L264.9,-165.5L267.7,-160.9L270.5,-156.2L273.2,-151.4L275.8,-146.6L278.3,-141.8L280.7,-136.9L283.1,-132.0L285.3,-127.0L287.5,-122.0L289.6,-117.0L291.6,-111.9L293.5,-106.8L295.3,-101.7L297.1,-96.5L298.7,-91.3L300.2,-86.1L301.7,-80.8L303.1,-75.6L304.3,-70.3L305.5,-64.9L306.6,-59.6L307.6,-54.2L308.5,-48.9L309.3,-43.5L310.0,-38.1L310.6,-32.6L311.2,-27.2L311.6,-21.8L311.9,-16.3L312.1,-10.9L312.3,-5.5L378.3,-0.0Z" fill="none" stroke="#f7e5d8" stroke-width="8.100000000000001" stroke-linecap="round" opacity="0.28" filter="url(#tg)"/><path d="M378.3,0.0L378.2,6.6L378.1,13.2L377.8,19.8L377.4,26.4L376.9,33.0L376.2,39.5L375.5,46.1L374.6,52.6L308.5,48.9L307.6,54.2L306.6,59.6L305.5,64.9L304.3,70.3L303.1,75.6L301.7,80.8L300.2,86.1L298.7,91.3L297.1,96.5L295.3,101.7L293.5,106.8L291.6,111.9L289.6,117.0L287.5,122.0L285.3,127.0L283.1,132.0L280.7,136.9L278.3,141.8L275.8,146.6L273.2,151.4L270.5,156.2L267.7,160.9L264.9,165.5L262.0,170.1L258.9,174.7L255.9,179.2L252.7,183.6L249.4,188.0L246.1,192.3L242.7,196.6L239.3,200.8L235.7,204.9L232.1,209.0L228.4,213.0L224.7,217.0L220.9,220.9L217.0,224.7L213.0,228.4L209.0,232.1L204.9,235.7L200.8,239.3L196.6,242.7L232.9,298.1L227.7,302.1L222.4,306.1L217.0,309.9L211.5,313.6L206.0,317.3L200.5,320.8L194.8,324.3L189.2,327.6L151.4,273.2L146.6,275.8L141.8,278.3L136.9,280.7L132.0,283.1L127.0,285.3L122.0,287.5L117.0,289.6L111.9,291.6L106.8,293.5L101.7,295.3L96.5,297.1L91.3,298.7L86.1,300.2L80.8,301.7L75.6,303.1L70.3,304.3L64.9,305.5L59.6,306.6L54.2,307.6L48.9,308.5L43.5,309.3L38.1,310.0L32.6,310.6L27.2,311.2L21.8,311.6L16.3,311.9L10.9,312.1L5.5,312.3L0.0,312.3L-5.5,312.3L-10.9,312.1L-16.3,311.9L-21.8,311.6L-27.2,311.2L-32.6,310.6L-38.1,310.0L-43.5,309.3L-48.9,308.5L-54.2,307.6L-59.6,306.6L-64.9,305.5L-85.1,368.6L-91.5,367.1L-97.9,365.4L-104.3,363.6L-110.6,361.8L-116.9,359.8L-123.2,357.7L-129.4,355.5L-135.6,353.2L-117.0,289.6L-122.0,287.5L-127.0,285.3L-132.0,283.1L-136.9,280.7L-141.8,278.3L-146.6,275.8L-151.4,273.2L-156.2,270.5L-160.9,267.7L-165.5,264.9L-170.1,262.0L-174.7,258.9L-179.2,255.9L-183.6,252.7L-188.0,249.4L-192.3,246.1L-196.6,242.7L-200.8,239.3L-204.9,235.7L-209.0,232.1L-213.0,228.4L-217.0,224.7L-220.9,220.9L-224.7,217.0L-228.4,213.0L-232.1,209.0L-235.7,204.9L-239.3,200.8L-242.7,196.6L-246.1,192.3L-249.4,188.0L-252.7,183.6L-255.9,179.2L-258.9,174.7L-262.0,170.1L-264.9,165.5L-267.7,160.9L-270.5,156.2L-273.2,151.4L-275.8,146.6L-278.3,141.8L-280.7,136.9L-342.9,159.9L-345.6,153.9L-348.2,147.8L-350.8,141.7L-353.2,135.6L-355.5,129.4L-357.7,123.2L-359.8,116.9L-361.8,110.6L-300.2,86.1L-301.7,80.8L-303.1,75.6L-304.3,70.3L-305.5,64.9L-306.6,59.6L-307.6,54.2L-308.5,48.9L-309.3,43.5L-310.0,38.1L-310.6,32.6L-311.2,27.2L-311.6,21.8L-311.9,16.3L-312.1,10.9L-312.3,5.5L-312.3,0.0L-312.3,-5.5L-312.1,-10.9L-311.9,-16.3L-311.6,-21.8L-311.2,-27.2L-310.6,-32.6L-310.0,-38.1L-309.3,-43.5L-308.5,-48.9L-307.6,-54.2L-306.6,-59.6L-305.5,-64.9L-304.3,-70.3L-303.1,-75.6L-301.7,-80.8L-300.2,-86.1L-298.7,-91.3L-297.1,-96.5L-295.3,-101.7L-293.5,-106.8L-291.6,-111.9L-289.6,-117.0L-287.5,-122.0L-285.3,-127.0L-283.1,-132.0L-340.0,-165.8L-337.1,-171.7L-334.0,-177.6L-330.9,-183.4L-327.6,-189.2L-324.3,-194.8L-320.8,-200.5L-317.3,-206.0L-313.6,-211.5L-255.9,-179.2L-252.7,-183.6L-249.4,-188.0L-246.1,-192.3L-242.7,-196.6L-239.3,-200.8L-235.7,-204.9L-232.1,-209.0L-228.4,-213.0L-224.7,-217.0L-220.9,-220.9L-217.0,-224.7L-213.0,-228.4L-209.0,-232.1L-204.9,-235.7L-200.8,-239.3L-196.6,-242.7L-192.3,-246.1L-188.0,-249.4L-183.6,-252.7L-179.2,-255.9L-174.7,-258.9L-170.1,-262.0L-165.5,-264.9L-160.9,-267.7L-156.2,-270.5L-151.4,-273.2L-146.6,-275.8L-141.8,-278.3L-136.9,-280.7L-132.0,-283.1L-127.0,-285.3L-122.0,-287.5L-117.0,-289.6L-111.9,-291.6L-106.8,-293.5L-101.7,-295.3L-96.5,-297.1L-91.3,-298.7L-86.1,-300.2L-80.8,-301.7L-75.6,-303.1L-70.3,-304.3L-78.7,-370.0L-72.2,-371.3L-65.7,-372.6L-59.2,-373.6L-52.6,-374.6L-46.1,-375.5L-39.5,-376.2L-33.0,-376.9L-26.4,-377.4L-16.3,-311.9L-10.9,-312.1L-5.5,-312.3L-0.0,-312.3L5.5,-312.3L10.9,-312.1L16.3,-311.9L21.8,-311.6L27.2,-311.2L32.6,-310.6L38.1,-310.0L43.5,-309.3L48.9,-308.5L54.2,-307.6L59.6,-306.6L64.9,-305.5L70.3,-304.3L75.6,-303.1L80.8,-301.7L86.1,-300.2L91.3,-298.7L96.5,-297.1L101.7,-295.3L106.8,-293.5L111.9,-291.6L117.0,-289.6L122.0,-287.5L127.0,-285.3L132.0,-283.1L136.9,-280.7L141.8,-278.3L146.6,-275.8L151.4,-273.2L156.2,-270.5L160.9,-267.7L165.5,-264.9L170.1,-262.0L174.7,-258.9L179.2,-255.9L183.6,-252.7L188.0,-249.4L192.3,-246.1L238.1,-294.0L243.2,-289.8L248.2,-285.5L253.1,-281.1L258.0,-276.7L262.8,-272.1L267.5,-267.5L272.1,-262.8L276.7,-258.0L232.1,-209.0L235.7,-204.9L239.3,-200.8L242.7,-196.6L246.1,-192.3L249.4,-188.0L252.7,-183.6L255.9,-179.2L258.9,-174.7L262.0,-170.1L264.9,-165.5L267.7,-160.9L270.5,-156.2L273.2,-151.4L275.8,-146.6L278.3,-141.8L280.7,-136.9L283.1,-132.0L285.3,-127.0L287.5,-122.0L289.6,-117.0L291.6,-111.9L293.5,-106.8L295.3,-101.7L297.1,-96.5L298.7,-91.3L300.2,-86.1L301.7,-80.8L303.1,-75.6L304.3,-70.3L305.5,-64.9L306.6,-59.6L307.6,-54.2L308.5,-48.9L309.3,-43.5L310.0,-38.1L310.6,-32.6L311.2,-27.2L311.6,-21.8L311.9,-16.3L312.1,-10.9L312.3,-5.5L378.3,-0.0Z" fill="none" stroke="#f7e5d8" stroke-width="2.7" stroke-linecap="round" opacity="0.95"/><path d="M276.1,0.0L276.0,4.8L275.9,9.6L275.7,14.4L275.4,19.3L275.0,24.1L274.5,28.9L274.0,33.6L273.4,38.4L272.7,43.2L271.9,47.9L271.0,52.7L270.0,57.4L269.0,62.1L267.9,66.8L266.7,71.5L265.4,76.1L264.0,80.7L262.6,85.3L261.0,89.9L259.4,94.4L257.7,98.9L256.0,103.4L254.1,107.9L252.2,112.3L250.2,116.7L248.1,121.0L246.0,125.3L243.7,129.6L241.4,133.8L239.1,138.0L236.6,142.2L234.1,146.3L231.5,150.4L228.9,154.4L226.1,158.3L223.3,162.3L273.2,205.8L269.5,210.6L265.8,215.2L262.0,219.8L258.1,224.4L254.2,228.9L250.1,233.3L246.0,237.6L241.8,241.8L191.8,198.6L188.3,201.9L184.7,205.2L181.1,208.3L177.4,211.5L173.7,214.5L170.0,217.5L166.1,220.5L162.3,223.3L158.3,226.1L154.4,228.9L150.4,231.5L146.3,234.1L142.2,236.6L138.0,239.1L133.8,241.4L129.6,243.7L125.3,246.0L121.0,248.1L116.7,250.2L112.3,252.2L107.9,254.1L103.4,256.0L98.9,257.7L94.4,259.4L89.9,261.0L85.3,262.6L80.7,264.0L76.1,265.4L71.5,266.7L66.8,267.9L62.1,269.0L57.4,270.0L52.7,271.0L47.9,271.9L43.2,272.7L38.4,273.4L33.6,274.0L28.9,274.5L24.1,275.0L19.3,275.4L14.4,275.7L11.9,341.8L6.0,342.0L0.0,342.0L-6.0,342.0L-11.9,341.8L-17.9,341.6L-23.9,341.2L-29.8,340.7L-35.8,340.1L-33.6,274.0L-38.4,273.4L-43.2,272.7L-47.9,271.9L-52.7,271.0L-57.4,270.0L-62.1,269.0L-66.8,267.9L-71.5,266.7L-76.1,265.4L-80.7,264.0L-85.3,262.6L-89.9,261.0L-94.4,259.4L-98.9,257.7L-103.4,256.0L-107.9,254.1L-112.3,252.2L-116.7,250.2L-121.0,248.1L-125.3,246.0L-129.6,243.7L-133.8,241.4L-138.0,239.1L-142.2,236.6L-146.3,234.1L-150.4,231.5L-154.4,228.9L-158.3,226.1L-162.3,223.3L-166.1,220.5L-170.0,217.5L-173.7,214.5L-177.4,211.5L-181.1,208.3L-184.7,205.2L-188.3,201.9L-191.8,198.6L-195.2,195.2L-198.6,191.8L-201.9,188.3L-205.2,184.7L-208.3,181.1L-262.0,219.8L-265.8,215.2L-269.5,210.6L-273.2,205.8L-276.7,201.0L-280.2,196.2L-283.5,191.3L-286.8,186.3L-290.1,181.2L-236.6,142.2L-239.1,138.0L-241.4,133.8L-243.7,129.6L-246.0,125.3L-248.1,121.0L-250.2,116.7L-252.2,112.3L-254.1,107.9L-256.0,103.4L-257.7,98.9L-259.4,94.4L-261.0,89.9L-262.6,85.3L-264.0,80.7L-265.4,76.1L-266.7,71.5L-267.9,66.8L-269.0,62.1L-270.0,57.4L-271.0,52.7L-271.9,47.9L-272.7,43.2L-273.4,38.4L-274.0,33.6L-274.5,28.9L-275.0,24.1L-275.4,19.3L-275.7,14.4L-275.9,9.6L-276.0,4.8L-276.1,0.0L-276.0,-4.8L-275.9,-9.6L-275.7,-14.4L-275.4,-19.3L-275.0,-24.1L-274.5,-28.9L-274.0,-33.6L-273.4,-38.4L-272.7,-43.2L-271.9,-47.9L-335.7,-65.3L-334.5,-71.1L-333.3,-76.9L-331.9,-82.7L-330.4,-88.5L-328.8,-94.3L-327.1,-100.0L-325.3,-105.7L-323.4,-111.4L-259.4,-94.4L-257.7,-98.9L-256.0,-103.4L-254.1,-107.9L-252.2,-112.3L-250.2,-116.7L-248.1,-121.0L-246.0,-125.3L-243.7,-129.6L-241.4,-133.8L-239.1,-138.0L-236.6,-142.2L-234.1,-146.3L-231.5,-150.4L-228.9,-154.4L-226.1,-158.3L-223.3,-162.3L-220.5,-166.1L-217.5,-170.0L-214.5,-173.7L-211.5,-177.4L-208.3,-181.1L-205.2,-184.7L-201.9,-188.3L-198.6,-191.8L-195.2,-195.2L-191.8,-198.6L-188.3,-201.9L-184.7,-205.2L-181.1,-208.3L-177.4,-211.5L-173.7,-214.5L-170.0,-217.5L-166.1,-220.5L-162.3,-223.3L-158.3,-226.1L-154.4,-228.9L-150.4,-231.5L-146.3,-234.1L-142.2,-236.6L-138.0,-239.1L-133.8,-241.4L-129.6,-243.7L-155.3,-304.7L-149.9,-307.4L-144.5,-310.0L-139.1,-312.5L-133.6,-314.8L-128.1,-317.1L-122.6,-319.3L-117.0,-321.4L-111.4,-323.4L-85.3,-262.6L-80.7,-264.0L-76.1,-265.4L-71.5,-266.7L-66.8,-267.9L-62.1,-269.0L-57.4,-270.0L-52.7,-271.0L-47.9,-271.9L-43.2,-272.7L-38.4,-273.4L-33.6,-274.0L-28.9,-274.5L-24.1,-275.0L-19.3,-275.4L-14.4,-275.7L-9.6,-275.9L-4.8,-276.0L-0.0,-276.1L4.8,-276.0L9.6,-275.9L14.4,-275.7L19.3,-275.4L24.1,-275.0L28.9,-274.5L33.6,-274.0L38.4,-273.4L43.2,-272.7L47.9,-271.9L52.7,-271.0L57.4,-270.0L62.1,-269.0L66.8,-267.9L71.5,-266.7L76.1,-265.4L80.7,-264.0L85.3,-262.6L89.9,-261.0L94.4,-259.4L98.9,-257.7L103.4,-256.0L107.9,-254.1L139.1,-312.5L144.5,-310.0L149.9,-307.4L155.3,-304.7L160.6,-302.0L165.8,-299.1L171.0,-296.2L176.2,-293.2L181.2,-290.1L150.4,-231.5L154.4,-228.9L158.3,-226.1L162.3,-223.3L166.1,-220.5L170.0,-217.5L173.7,-214.5L177.4,-211.5L181.1,-208.3L184.7,-205.2L188.3,-201.9L191.8,-198.6L195.2,-195.2L198.6,-191.8L201.9,-188.3L205.2,-184.7L208.3,-181.1L211.5,-177.4L214.5,-173.7L217.5,-170.0L220.5,-166.1L223.3,-162.3L226.1,-158.3L228.9,-154.4L231.5,-150.4L234.1,-146.3L236.6,-142.2L239.1,-138.0L241.4,-133.8L243.7,-129.6L246.0,-125.3L248.1,-121.0L250.2,-116.7L252.2,-112.3L254.1,-107.9L256.0,-103.4L257.7,-98.9L259.4,-94.4L261.0,-89.9L262.6,-85.3L264.0,-80.7L265.4,-76.1L330.4,-88.5L331.9,-82.7L333.3,-76.9L334.5,-71.1L335.7,-65.3L336.8,-59.4L337.8,-53.5L338.7,-47.6L339.5,-41.7L340.1,-35.8L275.0,-24.1L275.4,-19.3L275.7,-14.4L275.9,-9.6L276.0,-4.8L276.1,-0.0Z" fill="none" stroke="#f6e0de" stroke-width="8.100000000000001" stroke-linecap="round" opacity="0.28" filter="url(#tg)"/><path d="M276.1,0.0L276.0,4.8L275.9,9.6L275.7,14.4L275.4,19.3L275.0,24.1L274.5,28.9L274.0,33.6L273.4,38.4L272.7,43.2L271.9,47.9L271.0,52.7L270.0,57.4L269.0,62.1L267.9,66.8L266.7,71.5L265.4,76.1L264.0,80.7L262.6,85.3L261.0,89.9L259.4,94.4L257.7,98.9L256.0,103.4L254.1,107.9L252.2,112.3L250.2,116.7L248.1,121.0L246.0,125.3L243.7,129.6L241.4,133.8L239.1,138.0L236.6,142.2L234.1,146.3L231.5,150.4L228.9,154.4L226.1,158.3L223.3,162.3L273.2,205.8L269.5,210.6L265.8,215.2L262.0,219.8L258.1,224.4L254.2,228.9L250.1,233.3L246.0,237.6L241.8,241.8L191.8,198.6L188.3,201.9L184.7,205.2L181.1,208.3L177.4,211.5L173.7,214.5L170.0,217.5L166.1,220.5L162.3,223.3L158.3,226.1L154.4,228.9L150.4,231.5L146.3,234.1L142.2,236.6L138.0,239.1L133.8,241.4L129.6,243.7L125.3,246.0L121.0,248.1L116.7,250.2L112.3,252.2L107.9,254.1L103.4,256.0L98.9,257.7L94.4,259.4L89.9,261.0L85.3,262.6L80.7,264.0L76.1,265.4L71.5,266.7L66.8,267.9L62.1,269.0L57.4,270.0L52.7,271.0L47.9,271.9L43.2,272.7L38.4,273.4L33.6,274.0L28.9,274.5L24.1,275.0L19.3,275.4L14.4,275.7L11.9,341.8L6.0,342.0L0.0,342.0L-6.0,342.0L-11.9,341.8L-17.9,341.6L-23.9,341.2L-29.8,340.7L-35.8,340.1L-33.6,274.0L-38.4,273.4L-43.2,272.7L-47.9,271.9L-52.7,271.0L-57.4,270.0L-62.1,269.0L-66.8,267.9L-71.5,266.7L-76.1,265.4L-80.7,264.0L-85.3,262.6L-89.9,261.0L-94.4,259.4L-98.9,257.7L-103.4,256.0L-107.9,254.1L-112.3,252.2L-116.7,250.2L-121.0,248.1L-125.3,246.0L-129.6,243.7L-133.8,241.4L-138.0,239.1L-142.2,236.6L-146.3,234.1L-150.4,231.5L-154.4,228.9L-158.3,226.1L-162.3,223.3L-166.1,220.5L-170.0,217.5L-173.7,214.5L-177.4,211.5L-181.1,208.3L-184.7,205.2L-188.3,201.9L-191.8,198.6L-195.2,195.2L-198.6,191.8L-201.9,188.3L-205.2,184.7L-208.3,181.1L-262.0,219.8L-265.8,215.2L-269.5,210.6L-273.2,205.8L-276.7,201.0L-280.2,196.2L-283.5,191.3L-286.8,186.3L-290.1,181.2L-236.6,142.2L-239.1,138.0L-241.4,133.8L-243.7,129.6L-246.0,125.3L-248.1,121.0L-250.2,116.7L-252.2,112.3L-254.1,107.9L-256.0,103.4L-257.7,98.9L-259.4,94.4L-261.0,89.9L-262.6,85.3L-264.0,80.7L-265.4,76.1L-266.7,71.5L-267.9,66.8L-269.0,62.1L-270.0,57.4L-271.0,52.7L-271.9,47.9L-272.7,43.2L-273.4,38.4L-274.0,33.6L-274.5,28.9L-275.0,24.1L-275.4,19.3L-275.7,14.4L-275.9,9.6L-276.0,4.8L-276.1,0.0L-276.0,-4.8L-275.9,-9.6L-275.7,-14.4L-275.4,-19.3L-275.0,-24.1L-274.5,-28.9L-274.0,-33.6L-273.4,-38.4L-272.7,-43.2L-271.9,-47.9L-335.7,-65.3L-334.5,-71.1L-333.3,-76.9L-331.9,-82.7L-330.4,-88.5L-328.8,-94.3L-327.1,-100.0L-325.3,-105.7L-323.4,-111.4L-259.4,-94.4L-257.7,-98.9L-256.0,-103.4L-254.1,-107.9L-252.2,-112.3L-250.2,-116.7L-248.1,-121.0L-246.0,-125.3L-243.7,-129.6L-241.4,-133.8L-239.1,-138.0L-236.6,-142.2L-234.1,-146.3L-231.5,-150.4L-228.9,-154.4L-226.1,-158.3L-223.3,-162.3L-220.5,-166.1L-217.5,-170.0L-214.5,-173.7L-211.5,-177.4L-208.3,-181.1L-205.2,-184.7L-201.9,-188.3L-198.6,-191.8L-195.2,-195.2L-191.8,-198.6L-188.3,-201.9L-184.7,-205.2L-181.1,-208.3L-177.4,-211.5L-173.7,-214.5L-170.0,-217.5L-166.1,-220.5L-162.3,-223.3L-158.3,-226.1L-154.4,-228.9L-150.4,-231.5L-146.3,-234.1L-142.2,-236.6L-138.0,-239.1L-133.8,-241.4L-129.6,-243.7L-155.3,-304.7L-149.9,-307.4L-144.5,-310.0L-139.1,-312.5L-133.6,-314.8L-128.1,-317.1L-122.6,-319.3L-117.0,-321.4L-111.4,-323.4L-85.3,-262.6L-80.7,-264.0L-76.1,-265.4L-71.5,-266.7L-66.8,-267.9L-62.1,-269.0L-57.4,-270.0L-52.7,-271.0L-47.9,-271.9L-43.2,-272.7L-38.4,-273.4L-33.6,-274.0L-28.9,-274.5L-24.1,-275.0L-19.3,-275.4L-14.4,-275.7L-9.6,-275.9L-4.8,-276.0L-0.0,-276.1L4.8,-276.0L9.6,-275.9L14.4,-275.7L19.3,-275.4L24.1,-275.0L28.9,-274.5L33.6,-274.0L38.4,-273.4L43.2,-272.7L47.9,-271.9L52.7,-271.0L57.4,-270.0L62.1,-269.0L66.8,-267.9L71.5,-266.7L76.1,-265.4L80.7,-264.0L85.3,-262.6L89.9,-261.0L94.4,-259.4L98.9,-257.7L103.4,-256.0L107.9,-254.1L139.1,-312.5L144.5,-310.0L149.9,-307.4L155.3,-304.7L160.6,-302.0L165.8,-299.1L171.0,-296.2L176.2,-293.2L181.2,-290.1L150.4,-231.5L154.4,-228.9L158.3,-226.1L162.3,-223.3L166.1,-220.5L170.0,-217.5L173.7,-214.5L177.4,-211.5L181.1,-208.3L184.7,-205.2L188.3,-201.9L191.8,-198.6L195.2,-195.2L198.6,-191.8L201.9,-188.3L205.2,-184.7L208.3,-181.1L211.5,-177.4L214.5,-173.7L217.5,-170.0L220.5,-166.1L223.3,-162.3L226.1,-158.3L228.9,-154.4L231.5,-150.4L234.1,-146.3L236.6,-142.2L239.1,-138.0L241.4,-133.8L243.7,-129.6L246.0,-125.3L248.1,-121.0L250.2,-116.7L252.2,-112.3L254.1,-107.9L256.0,-103.4L257.7,-98.9L259.4,-94.4L261.0,-89.9L262.6,-85.3L264.0,-80.7L265.4,-76.1L330.4,-88.5L331.9,-82.7L333.3,-76.9L334.5,-71.1L335.7,-65.3L336.8,-59.4L337.8,-53.5L338.7,-47.6L339.5,-41.7L340.1,-35.8L275.0,-24.1L275.4,-19.3L275.7,-14.4L275.9,-9.6L276.0,-4.8L276.1,-0.0Z" fill="none" stroke="#f6e0de" stroke-width="2.7" stroke-linecap="round" opacity="0.95"/><path d="M239.8,0.0L239.7,4.2L239.6,8.4L239.5,12.5L239.2,16.7L238.9,20.9L238.5,25.1L238.0,29.2L237.5,33.4L236.8,37.5L236.1,41.6L235.4,45.8L234.5,49.9L233.6,53.9L232.7,58.0L231.6,62.1L230.5,66.1L229.3,70.1L228.0,74.1L226.7,78.1L225.3,82.0L223.9,85.9L283.5,114.5L281.4,119.5L279.3,124.4L277.1,129.2L274.8,134.0L272.4,138.8L270.0,143.5L267.4,148.2L264.8,152.9L205.5,123.5L203.3,127.1L201.1,130.6L198.8,134.1L196.4,137.5L194.0,140.9L191.5,144.3L189.0,147.6L186.3,150.9L183.7,154.1L181.0,157.3L178.2,160.4L175.4,163.5L172.5,166.6L169.6,169.6L166.6,172.5L163.5,175.4L160.4,178.2L157.3,181.0L154.1,183.7L150.9,186.3L147.6,189.0L144.3,191.5L140.9,194.0L137.5,196.4L134.1,198.8L130.6,201.1L127.1,203.3L123.5,205.5L119.9,207.7L116.2,209.7L112.6,211.7L108.9,213.6L105.1,215.5L101.3,217.3L97.5,219.1L93.7,220.7L89.8,222.3L85.9,223.9L82.0,225.3L78.1,226.7L74.1,228.0L89.4,292.4L84.3,293.9L79.1,295.3L74.0,296.7L68.8,297.9L63.6,299.1L58.3,300.1L53.1,301.1L47.8,302.0L33.4,237.5L29.2,238.0L25.1,238.5L20.9,238.9L16.7,239.2L12.5,239.5L8.4,239.6L4.2,239.7L0.0,239.8L-4.2,239.7L-8.4,239.6L-12.5,239.5L-16.7,239.2L-20.9,238.9L-25.1,238.5L-29.2,238.0L-33.4,237.5L-37.5,236.8L-41.6,236.1L-45.8,235.4L-49.9,234.5L-53.9,233.6L-58.0,232.7L-62.1,231.6L-66.1,230.5L-70.1,229.3L-74.1,228.0L-78.1,226.7L-82.0,225.3L-85.9,223.9L-89.8,222.3L-93.7,220.7L-97.5,219.1L-101.3,217.3L-105.1,215.5L-108.9,213.6L-112.6,211.7L-116.2,209.7L-119.9,207.7L-123.5,205.5L-127.1,203.3L-130.6,201.1L-134.1,198.8L-175.4,250.5L-179.7,247.4L-184.0,244.2L-188.2,240.9L-192.4,237.6L-196.5,234.2L-200.6,230.7L-204.6,227.2L-208.5,223.6L-166.6,172.5L-169.6,169.6L-172.5,166.6L-175.4,163.5L-178.2,160.4L-181.0,157.3L-183.7,154.1L-186.3,150.9L-189.0,147.6L-191.5,144.3L-194.0,140.9L-196.4,137.5L-198.8,134.1L-201.1,130.6L-203.3,127.1L-205.5,123.5L-207.7,119.9L-209.7,116.2L-211.7,112.6L-213.6,108.9L-215.5,105.1L-217.3,101.3L-219.1,97.5L-220.7,93.7L-222.3,89.8L-223.9,85.9L-225.3,82.0L-226.7,78.1L-228.0,74.1L-229.3,70.1L-230.5,66.1L-231.6,62.1L-232.7,58.0L-233.6,53.9L-234.5,49.9L-235.4,45.8L-236.1,41.6L-236.8,37.5L-237.5,33.4L-238.0,29.2L-238.5,25.1L-238.9,20.9L-305.0,21.3L-305.3,16.0L-305.6,10.7L-305.7,5.3L-305.7,0.0L-305.7,-5.3L-305.6,-10.7L-305.3,-16.0L-305.0,-21.3L-238.9,-20.9L-238.5,-25.1L-238.0,-29.2L-237.5,-33.4L-236.8,-37.5L-236.1,-41.6L-235.4,-45.8L-234.5,-49.9L-233.6,-53.9L-232.7,-58.0L-231.6,-62.1L-230.5,-66.1L-229.3,-70.1L-228.0,-74.1L-226.7,-78.1L-225.3,-82.0L-223.9,-85.9L-222.3,-89.8L-220.7,-93.7L-219.1,-97.5L-217.3,-101.3L-215.5,-105.1L-213.6,-108.9L-211.7,-112.6L-209.7,-116.2L-207.7,-119.9L-205.5,-123.5L-203.3,-127.1L-201.1,-130.6L-198.8,-134.1L-196.4,-137.5L-194.0,-140.9L-191.5,-144.3L-189.0,-147.6L-186.3,-150.9L-183.7,-154.1L-181.0,-157.3L-178.2,-160.4L-175.4,-163.5L-172.5,-166.6L-169.6,-169.6L-166.6,-172.5L-163.5,-175.4L-204.6,-227.2L-200.6,-230.7L-196.5,-234.2L-192.4,-237.6L-188.2,-240.9L-184.0,-244.2L-179.7,-247.4L-175.4,-250.5L-171.0,-253.5L-130.6,-201.1L-127.1,-203.3L-123.5,-205.5L-119.9,-207.7L-116.2,-209.7L-112.6,-211.7L-108.9,-213.6L-105.1,-215.5L-101.3,-217.3L-97.5,-219.1L-93.7,-220.7L-89.8,-222.3L-85.9,-223.9L-82.0,-225.3L-78.1,-226.7L-74.1,-228.0L-70.1,-229.3L-66.1,-230.5L-62.1,-231.6L-58.0,-232.7L-53.9,-233.6L-49.9,-234.5L-45.8,-235.4L-41.6,-236.1L-37.5,-236.8L-33.4,-237.5L-29.2,-238.0L-25.1,-238.5L-20.9,-238.9L-16.7,-239.2L-12.5,-239.5L-8.4,-239.6L-4.2,-239.7L-0.0,-239.8L4.2,-239.7L8.4,-239.6L12.5,-239.5L16.7,-239.2L20.9,-238.9L25.1,-238.5L29.2,-238.0L33.4,-237.5L47.8,-302.0L53.1,-301.1L58.3,-300.1L63.6,-299.1L68.8,-297.9L74.0,-296.7L79.1,-295.3L84.3,-293.9L89.4,-292.4L74.1,-228.0L78.1,-226.7L82.0,-225.3L85.9,-223.9L89.8,-222.3L93.7,-220.7L97.5,-219.1L101.3,-217.3L105.1,-215.5L108.9,-213.6L112.6,-211.7L116.2,-209.7L119.9,-207.7L123.5,-205.5L127.1,-203.3L130.6,-201.1L134.1,-198.8L137.5,-196.4L140.9,-194.0L144.3,-191.5L147.6,-189.0L150.9,-186.3L154.1,-183.7L157.3,-181.0L160.4,-178.2L163.5,-175.4L166.6,-172.5L169.6,-169.6L172.5,-166.6L175.4,-163.5L178.2,-160.4L181.0,-157.3L183.7,-154.1L186.3,-150.9L189.0,-147.6L191.5,-144.3L194.0,-140.9L196.4,-137.5L198.8,-134.1L201.1,-130.6L203.3,-127.1L205.5,-123.5L264.8,-152.9L267.4,-148.2L270.0,-143.5L272.4,-138.8L274.8,-134.0L277.1,-129.2L279.3,-124.4L281.4,-119.5L283.5,-114.5L285.4,-109.6L225.3,-82.0L226.7,-78.1L228.0,-74.1L229.3,-70.1L230.5,-66.1L231.6,-62.1L232.7,-58.0L233.6,-53.9L234.5,-49.9L235.4,-45.8L236.1,-41.6L236.8,-37.5L237.5,-33.4L238.0,-29.2L238.5,-25.1L238.9,-20.9L239.2,-16.7L239.5,-12.5L239.6,-8.4L239.7,-4.2L239.8,-0.0Z" fill="none" stroke="#f6dbe4" stroke-width="8.100000000000001" stroke-linecap="round" opacity="0.28" filter="url(#tg)"/><path d="M239.8,0.0L239.7,4.2L239.6,8.4L239.5,12.5L239.2,16.7L238.9,20.9L238.5,25.1L238.0,29.2L237.5,33.4L236.8,37.5L236.1,41.6L235.4,45.8L234.5,49.9L233.6,53.9L232.7,58.0L231.6,62.1L230.5,66.1L229.3,70.1L228.0,74.1L226.7,78.1L225.3,82.0L223.9,85.9L283.5,114.5L281.4,119.5L279.3,124.4L277.1,129.2L274.8,134.0L272.4,138.8L270.0,143.5L267.4,148.2L264.8,152.9L205.5,123.5L203.3,127.1L201.1,130.6L198.8,134.1L196.4,137.5L194.0,140.9L191.5,144.3L189.0,147.6L186.3,150.9L183.7,154.1L181.0,157.3L178.2,160.4L175.4,163.5L172.5,166.6L169.6,169.6L166.6,172.5L163.5,175.4L160.4,178.2L157.3,181.0L154.1,183.7L150.9,186.3L147.6,189.0L144.3,191.5L140.9,194.0L137.5,196.4L134.1,198.8L130.6,201.1L127.1,203.3L123.5,205.5L119.9,207.7L116.2,209.7L112.6,211.7L108.9,213.6L105.1,215.5L101.3,217.3L97.5,219.1L93.7,220.7L89.8,222.3L85.9,223.9L82.0,225.3L78.1,226.7L74.1,228.0L89.4,292.4L84.3,293.9L79.1,295.3L74.0,296.7L68.8,297.9L63.6,299.1L58.3,300.1L53.1,301.1L47.8,302.0L33.4,237.5L29.2,238.0L25.1,238.5L20.9,238.9L16.7,239.2L12.5,239.5L8.4,239.6L4.2,239.7L0.0,239.8L-4.2,239.7L-8.4,239.6L-12.5,239.5L-16.7,239.2L-20.9,238.9L-25.1,238.5L-29.2,238.0L-33.4,237.5L-37.5,236.8L-41.6,236.1L-45.8,235.4L-49.9,234.5L-53.9,233.6L-58.0,232.7L-62.1,231.6L-66.1,230.5L-70.1,229.3L-74.1,228.0L-78.1,226.7L-82.0,225.3L-85.9,223.9L-89.8,222.3L-93.7,220.7L-97.5,219.1L-101.3,217.3L-105.1,215.5L-108.9,213.6L-112.6,211.7L-116.2,209.7L-119.9,207.7L-123.5,205.5L-127.1,203.3L-130.6,201.1L-134.1,198.8L-175.4,250.5L-179.7,247.4L-184.0,244.2L-188.2,240.9L-192.4,237.6L-196.5,234.2L-200.6,230.7L-204.6,227.2L-208.5,223.6L-166.6,172.5L-169.6,169.6L-172.5,166.6L-175.4,163.5L-178.2,160.4L-181.0,157.3L-183.7,154.1L-186.3,150.9L-189.0,147.6L-191.5,144.3L-194.0,140.9L-196.4,137.5L-198.8,134.1L-201.1,130.6L-203.3,127.1L-205.5,123.5L-207.7,119.9L-209.7,116.2L-211.7,112.6L-213.6,108.9L-215.5,105.1L-217.3,101.3L-219.1,97.5L-220.7,93.7L-222.3,89.8L-223.9,85.9L-225.3,82.0L-226.7,78.1L-228.0,74.1L-229.3,70.1L-230.5,66.1L-231.6,62.1L-232.7,58.0L-233.6,53.9L-234.5,49.9L-235.4,45.8L-236.1,41.6L-236.8,37.5L-237.5,33.4L-238.0,29.2L-238.5,25.1L-238.9,20.9L-305.0,21.3L-305.3,16.0L-305.6,10.7L-305.7,5.3L-305.7,0.0L-305.7,-5.3L-305.6,-10.7L-305.3,-16.0L-305.0,-21.3L-238.9,-20.9L-238.5,-25.1L-238.0,-29.2L-237.5,-33.4L-236.8,-37.5L-236.1,-41.6L-235.4,-45.8L-234.5,-49.9L-233.6,-53.9L-232.7,-58.0L-231.6,-62.1L-230.5,-66.1L-229.3,-70.1L-228.0,-74.1L-226.7,-78.1L-225.3,-82.0L-223.9,-85.9L-222.3,-89.8L-220.7,-93.7L-219.1,-97.5L-217.3,-101.3L-215.5,-105.1L-213.6,-108.9L-211.7,-112.6L-209.7,-116.2L-207.7,-119.9L-205.5,-123.5L-203.3,-127.1L-201.1,-130.6L-198.8,-134.1L-196.4,-137.5L-194.0,-140.9L-191.5,-144.3L-189.0,-147.6L-186.3,-150.9L-183.7,-154.1L-181.0,-157.3L-178.2,-160.4L-175.4,-163.5L-172.5,-166.6L-169.6,-169.6L-166.6,-172.5L-163.5,-175.4L-204.6,-227.2L-200.6,-230.7L-196.5,-234.2L-192.4,-237.6L-188.2,-240.9L-184.0,-244.2L-179.7,-247.4L-175.4,-250.5L-171.0,-253.5L-130.6,-201.1L-127.1,-203.3L-123.5,-205.5L-119.9,-207.7L-116.2,-209.7L-112.6,-211.7L-108.9,-213.6L-105.1,-215.5L-101.3,-217.3L-97.5,-219.1L-93.7,-220.7L-89.8,-222.3L-85.9,-223.9L-82.0,-225.3L-78.1,-226.7L-74.1,-228.0L-70.1,-229.3L-66.1,-230.5L-62.1,-231.6L-58.0,-232.7L-53.9,-233.6L-49.9,-234.5L-45.8,-235.4L-41.6,-236.1L-37.5,-236.8L-33.4,-237.5L-29.2,-238.0L-25.1,-238.5L-20.9,-238.9L-16.7,-239.2L-12.5,-239.5L-8.4,-239.6L-4.2,-239.7L-0.0,-239.8L4.2,-239.7L8.4,-239.6L12.5,-239.5L16.7,-239.2L20.9,-238.9L25.1,-238.5L29.2,-238.0L33.4,-237.5L47.8,-302.0L53.1,-301.1L58.3,-300.1L63.6,-299.1L68.8,-297.9L74.0,-296.7L79.1,-295.3L84.3,-293.9L89.4,-292.4L74.1,-228.0L78.1,-226.7L82.0,-225.3L85.9,-223.9L89.8,-222.3L93.7,-220.7L97.5,-219.1L101.3,-217.3L105.1,-215.5L108.9,-213.6L112.6,-211.7L116.2,-209.7L119.9,-207.7L123.5,-205.5L127.1,-203.3L130.6,-201.1L134.1,-198.8L137.5,-196.4L140.9,-194.0L144.3,-191.5L147.6,-189.0L150.9,-186.3L154.1,-183.7L157.3,-181.0L160.4,-178.2L163.5,-175.4L166.6,-172.5L169.6,-169.6L172.5,-166.6L175.4,-163.5L178.2,-160.4L181.0,-157.3L183.7,-154.1L186.3,-150.9L189.0,-147.6L191.5,-144.3L194.0,-140.9L196.4,-137.5L198.8,-134.1L201.1,-130.6L203.3,-127.1L205.5,-123.5L264.8,-152.9L267.4,-148.2L270.0,-143.5L272.4,-138.8L274.8,-134.0L277.1,-129.2L279.3,-124.4L281.4,-119.5L283.5,-114.5L285.4,-109.6L225.3,-82.0L226.7,-78.1L228.0,-74.1L229.3,-70.1L230.5,-66.1L231.6,-62.1L232.7,-58.0L233.6,-53.9L234.5,-49.9L235.4,-45.8L236.1,-41.6L236.8,-37.5L237.5,-33.4L238.0,-29.2L238.5,-25.1L238.9,-20.9L239.2,-16.7L239.5,-12.5L239.6,-8.4L239.7,-4.2L239.8,-0.0Z" fill="none" stroke="#f6dbe4" stroke-width="2.7" stroke-linecap="round" opacity="0.95"/><path d="M203.5,0.0L203.5,3.6L203.4,7.1L203.2,10.7L203.0,14.2L202.7,17.7L202.4,21.3L267.5,32.8L266.8,37.5L266.1,42.2L265.4,46.8L264.5,51.4L263.6,56.0L262.6,60.6L261.5,65.2L260.3,69.7L195.6,56.1L194.6,59.5L193.5,62.9L192.4,66.3L191.2,69.6L190.0,72.9L188.7,76.2L187.3,79.5L185.9,82.8L184.4,86.0L182.9,89.2L181.3,92.4L179.7,95.5L178.0,98.7L176.2,101.8L174.4,104.8L172.6,107.8L170.7,110.8L168.7,113.8L166.7,116.7L164.6,119.6L162.5,122.5L160.4,125.3L158.2,128.1L155.9,130.8L153.6,133.5L151.2,136.2L148.8,138.8L146.4,141.4L143.9,143.9L141.4,146.4L138.8,148.8L136.2,151.2L133.5,153.6L130.8,155.9L128.1,158.2L125.3,160.4L122.5,162.5L119.6,164.6L116.7,166.7L113.8,168.7L110.8,170.7L142.8,228.5L138.8,231.0L134.7,233.4L130.6,235.7L126.5,237.9L122.3,240.1L118.1,242.2L113.9,244.2L109.6,246.2L79.5,187.3L76.2,188.7L72.9,190.0L69.6,191.2L66.3,192.4L62.9,193.5L59.5,194.6L56.1,195.6L52.7,196.6L49.2,197.5L45.8,198.3L42.3,199.1L38.8,199.8L35.3,200.4L31.8,201.0L28.3,201.5L24.8,202.0L21.3,202.4L17.7,202.7L14.2,203.0L10.7,203.2L7.1,203.4L3.6,203.5L0.0,203.5L-3.6,203.5L-7.1,203.4L-10.7,203.2L-14.2,203.0L-17.7,202.7L-21.3,202.4L-24.8,202.0L-28.3,201.5L-31.8,201.0L-35.3,200.4L-38.8,199.8L-42.3,199.1L-45.8,198.3L-49.2,197.5L-52.7,196.6L-56.1,195.6L-59.5,194.6L-62.9,193.5L-66.3,192.4L-92.2,253.2L-96.6,251.6L-100.9,249.8L-105.3,248.0L-109.6,246.2L-113.9,244.2L-118.1,242.2L-122.3,240.1L-126.5,237.9L-98.7,178.0L-101.8,176.2L-104.8,174.4L-107.8,172.6L-110.8,170.7L-113.8,168.7L-116.7,166.7L-119.6,164.6L-122.5,162.5L-125.3,160.4L-128.1,158.2L-130.8,155.9L-133.5,153.6L-136.2,151.2L-138.8,148.8L-141.4,146.4L-143.9,143.9L-146.4,141.4L-148.8,138.8L-151.2,136.2L-153.6,133.5L-155.9,130.8L-158.2,128.1L-160.4,125.3L-162.5,122.5L-164.6,119.6L-166.7,116.7L-168.7,113.8L-170.7,110.8L-172.6,107.8L-174.4,104.8L-176.2,101.8L-178.0,98.7L-179.7,95.5L-181.3,92.4L-182.9,89.2L-184.4,86.0L-185.9,82.8L-187.3,79.5L-188.7,76.2L-190.0,72.9L-191.2,69.6L-254.8,87.7L-256.3,83.3L-257.7,78.8L-259.0,74.3L-260.3,69.7L-261.5,65.2L-262.6,60.6L-263.6,56.0L-264.5,51.4L-200.4,35.3L-201.0,31.8L-201.5,28.3L-202.0,24.8L-202.4,21.3L-202.7,17.7L-203.0,14.2L-203.2,10.7L-203.4,7.1L-203.5,3.6L-203.5,0.0L-203.5,-3.6L-203.4,-7.1L-203.2,-10.7L-203.0,-14.2L-202.7,-17.7L-202.4,-21.3L-202.0,-24.8L-201.5,-28.3L-201.0,-31.8L-200.4,-35.3L-199.8,-38.8L-199.1,-42.3L-198.3,-45.8L-197.5,-49.2L-196.6,-52.7L-195.6,-56.1L-194.6,-59.5L-193.5,-62.9L-192.4,-66.3L-191.2,-69.6L-190.0,-72.9L-188.7,-76.2L-187.3,-79.5L-185.9,-82.8L-184.4,-86.0L-182.9,-89.2L-181.3,-92.4L-179.7,-95.5L-178.0,-98.7L-176.2,-101.8L-174.4,-104.8L-172.6,-107.8L-226.0,-146.8L-223.4,-150.7L-220.7,-154.6L-218.0,-158.4L-215.2,-162.2L-212.3,-165.9L-209.4,-169.6L-206.4,-173.2L-203.4,-176.8L-151.2,-136.2L-148.8,-138.8L-146.4,-141.4L-143.9,-143.9L-141.4,-146.4L-138.8,-148.8L-136.2,-151.2L-133.5,-153.6L-130.8,-155.9L-128.1,-158.2L-125.3,-160.4L-122.5,-162.5L-119.6,-164.6L-116.7,-166.7L-113.8,-168.7L-110.8,-170.7L-107.8,-172.6L-104.8,-174.4L-101.8,-176.2L-98.7,-178.0L-95.5,-179.7L-92.4,-181.3L-89.2,-182.9L-86.0,-184.4L-82.8,-185.9L-79.5,-187.3L-76.2,-188.7L-72.9,-190.0L-69.6,-191.2L-66.3,-192.4L-62.9,-193.5L-59.5,-194.6L-56.1,-195.6L-52.7,-196.6L-49.2,-197.5L-45.8,-198.3L-42.3,-199.1L-38.8,-199.8L-35.3,-200.4L-31.8,-201.0L-28.3,-201.5L-24.8,-202.0L-28.2,-268.0L-23.5,-268.4L-18.8,-268.8L-14.1,-269.1L-9.4,-269.3L-4.7,-269.4L-0.0,-269.5L4.7,-269.4L9.4,-269.3L10.7,-203.2L14.2,-203.0L17.7,-202.7L21.3,-202.4L24.8,-202.0L28.3,-201.5L31.8,-201.0L35.3,-200.4L38.8,-199.8L42.3,-199.1L45.8,-198.3L49.2,-197.5L52.7,-196.6L56.1,-195.6L59.5,-194.6L62.9,-193.5L66.3,-192.4L69.6,-191.2L72.9,-190.0L76.2,-188.7L79.5,-187.3L82.8,-185.9L86.0,-184.4L89.2,-182.9L92.4,-181.3L95.5,-179.7L98.7,-178.0L101.8,-176.2L104.8,-174.4L107.8,-172.6L110.8,-170.7L113.8,-168.7L116.7,-166.7L119.6,-164.6L122.5,-162.5L125.3,-160.4L128.1,-158.2L130.8,-155.9L133.5,-153.6L136.2,-151.2L138.8,-148.8L141.4,-146.4L190.5,-190.5L193.8,-187.2L197.1,-183.8L200.3,-180.3L203.4,-176.8L206.4,-173.2L209.4,-169.6L212.3,-165.9L215.2,-162.2L218.0,-158.4L166.7,-116.7L168.7,-113.8L170.7,-110.8L172.6,-107.8L174.4,-104.8L176.2,-101.8L178.0,-98.7L179.7,-95.5L181.3,-92.4L182.9,-89.2L184.4,-86.0L185.9,-82.8L187.3,-79.5L188.7,-76.2L190.0,-72.9L191.2,-69.6L192.4,-66.3L193.5,-62.9L194.6,-59.5L195.6,-56.1L196.6,-52.7L197.5,-49.2L198.3,-45.8L199.1,-42.3L199.8,-38.8L200.4,-35.3L201.0,-31.8L201.5,-28.3L202.0,-24.8L202.4,-21.3L202.7,-17.7L203.0,-14.2L203.2,-10.7L203.4,-7.1L203.5,-3.6L203.5,-0.0Z" fill="none" stroke="#f5d6ea" stroke-width="8.100000000000001" stroke-linecap="round" opacity="0.28" filter="url(#tg)"/><path d="M203.5,0.0L203.5,3.6L203.4,7.1L203.2,10.7L203.0,14.2L202.7,17.7L202.4,21.3L267.5,32.8L266.8,37.5L266.1,42.2L265.4,46.8L264.5,51.4L263.6,56.0L262.6,60.6L261.5,65.2L260.3,69.7L195.6,56.1L194.6,59.5L193.5,62.9L192.4,66.3L191.2,69.6L190.0,72.9L188.7,76.2L187.3,79.5L185.9,82.8L184.4,86.0L182.9,89.2L181.3,92.4L179.7,95.5L178.0,98.7L176.2,101.8L174.4,104.8L172.6,107.8L170.7,110.8L168.7,113.8L166.7,116.7L164.6,119.6L162.5,122.5L160.4,125.3L158.2,128.1L155.9,130.8L153.6,133.5L151.2,136.2L148.8,138.8L146.4,141.4L143.9,143.9L141.4,146.4L138.8,148.8L136.2,151.2L133.5,153.6L130.8,155.9L128.1,158.2L125.3,160.4L122.5,162.5L119.6,164.6L116.7,166.7L113.8,168.7L110.8,170.7L142.8,228.5L138.8,231.0L134.7,233.4L130.6,235.7L126.5,237.9L122.3,240.1L118.1,242.2L113.9,244.2L109.6,246.2L79.5,187.3L76.2,188.7L72.9,190.0L69.6,191.2L66.3,192.4L62.9,193.5L59.5,194.6L56.1,195.6L52.7,196.6L49.2,197.5L45.8,198.3L42.3,199.1L38.8,199.8L35.3,200.4L31.8,201.0L28.3,201.5L24.8,202.0L21.3,202.4L17.7,202.7L14.2,203.0L10.7,203.2L7.1,203.4L3.6,203.5L0.0,203.5L-3.6,203.5L-7.1,203.4L-10.7,203.2L-14.2,203.0L-17.7,202.7L-21.3,202.4L-24.8,202.0L-28.3,201.5L-31.8,201.0L-35.3,200.4L-38.8,199.8L-42.3,199.1L-45.8,198.3L-49.2,197.5L-52.7,196.6L-56.1,195.6L-59.5,194.6L-62.9,193.5L-66.3,192.4L-92.2,253.2L-96.6,251.6L-100.9,249.8L-105.3,248.0L-109.6,246.2L-113.9,244.2L-118.1,242.2L-122.3,240.1L-126.5,237.9L-98.7,178.0L-101.8,176.2L-104.8,174.4L-107.8,172.6L-110.8,170.7L-113.8,168.7L-116.7,166.7L-119.6,164.6L-122.5,162.5L-125.3,160.4L-128.1,158.2L-130.8,155.9L-133.5,153.6L-136.2,151.2L-138.8,148.8L-141.4,146.4L-143.9,143.9L-146.4,141.4L-148.8,138.8L-151.2,136.2L-153.6,133.5L-155.9,130.8L-158.2,128.1L-160.4,125.3L-162.5,122.5L-164.6,119.6L-166.7,116.7L-168.7,113.8L-170.7,110.8L-172.6,107.8L-174.4,104.8L-176.2,101.8L-178.0,98.7L-179.7,95.5L-181.3,92.4L-182.9,89.2L-184.4,86.0L-185.9,82.8L-187.3,79.5L-188.7,76.2L-190.0,72.9L-191.2,69.6L-254.8,87.7L-256.3,83.3L-257.7,78.8L-259.0,74.3L-260.3,69.7L-261.5,65.2L-262.6,60.6L-263.6,56.0L-264.5,51.4L-200.4,35.3L-201.0,31.8L-201.5,28.3L-202.0,24.8L-202.4,21.3L-202.7,17.7L-203.0,14.2L-203.2,10.7L-203.4,7.1L-203.5,3.6L-203.5,0.0L-203.5,-3.6L-203.4,-7.1L-203.2,-10.7L-203.0,-14.2L-202.7,-17.7L-202.4,-21.3L-202.0,-24.8L-201.5,-28.3L-201.0,-31.8L-200.4,-35.3L-199.8,-38.8L-199.1,-42.3L-198.3,-45.8L-197.5,-49.2L-196.6,-52.7L-195.6,-56.1L-194.6,-59.5L-193.5,-62.9L-192.4,-66.3L-191.2,-69.6L-190.0,-72.9L-188.7,-76.2L-187.3,-79.5L-185.9,-82.8L-184.4,-86.0L-182.9,-89.2L-181.3,-92.4L-179.7,-95.5L-178.0,-98.7L-176.2,-101.8L-174.4,-104.8L-172.6,-107.8L-226.0,-146.8L-223.4,-150.7L-220.7,-154.6L-218.0,-158.4L-215.2,-162.2L-212.3,-165.9L-209.4,-169.6L-206.4,-173.2L-203.4,-176.8L-151.2,-136.2L-148.8,-138.8L-146.4,-141.4L-143.9,-143.9L-141.4,-146.4L-138.8,-148.8L-136.2,-151.2L-133.5,-153.6L-130.8,-155.9L-128.1,-158.2L-125.3,-160.4L-122.5,-162.5L-119.6,-164.6L-116.7,-166.7L-113.8,-168.7L-110.8,-170.7L-107.8,-172.6L-104.8,-174.4L-101.8,-176.2L-98.7,-178.0L-95.5,-179.7L-92.4,-181.3L-89.2,-182.9L-86.0,-184.4L-82.8,-185.9L-79.5,-187.3L-76.2,-188.7L-72.9,-190.0L-69.6,-191.2L-66.3,-192.4L-62.9,-193.5L-59.5,-194.6L-56.1,-195.6L-52.7,-196.6L-49.2,-197.5L-45.8,-198.3L-42.3,-199.1L-38.8,-199.8L-35.3,-200.4L-31.8,-201.0L-28.3,-201.5L-24.8,-202.0L-28.2,-268.0L-23.5,-268.4L-18.8,-268.8L-14.1,-269.1L-9.4,-269.3L-4.7,-269.4L-0.0,-269.5L4.7,-269.4L9.4,-269.3L10.7,-203.2L14.2,-203.0L17.7,-202.7L21.3,-202.4L24.8,-202.0L28.3,-201.5L31.8,-201.0L35.3,-200.4L38.8,-199.8L42.3,-199.1L45.8,-198.3L49.2,-197.5L52.7,-196.6L56.1,-195.6L59.5,-194.6L62.9,-193.5L66.3,-192.4L69.6,-191.2L72.9,-190.0L76.2,-188.7L79.5,-187.3L82.8,-185.9L86.0,-184.4L89.2,-182.9L92.4,-181.3L95.5,-179.7L98.7,-178.0L101.8,-176.2L104.8,-174.4L107.8,-172.6L110.8,-170.7L113.8,-168.7L116.7,-166.7L119.6,-164.6L122.5,-162.5L125.3,-160.4L128.1,-158.2L130.8,-155.9L133.5,-153.6L136.2,-151.2L138.8,-148.8L141.4,-146.4L190.5,-190.5L193.8,-187.2L197.1,-183.8L200.3,-180.3L203.4,-176.8L206.4,-173.2L209.4,-169.6L212.3,-165.9L215.2,-162.2L218.0,-158.4L166.7,-116.7L168.7,-113.8L170.7,-110.8L172.6,-107.8L174.4,-104.8L176.2,-101.8L178.0,-98.7L179.7,-95.5L181.3,-92.4L182.9,-89.2L184.4,-86.0L185.9,-82.8L187.3,-79.5L188.7,-76.2L190.0,-72.9L191.2,-69.6L192.4,-66.3L193.5,-62.9L194.6,-59.5L195.6,-56.1L196.6,-52.7L197.5,-49.2L198.3,-45.8L199.1,-42.3L199.8,-38.8L200.4,-35.3L201.0,-31.8L201.5,-28.3L202.0,-24.8L202.4,-21.3L202.7,-17.7L203.0,-14.2L203.2,-10.7L203.4,-7.1L203.5,-3.6L203.5,-0.0Z" fill="none" stroke="#f5d6ea" stroke-width="2.7" stroke-linecap="round" opacity="0.95"/><path d="M233.2,0.0L167.2,2.9L167.1,5.8L167.0,8.8L166.8,11.7L166.6,14.6L166.3,17.5L166.0,20.4L165.6,23.3L165.2,26.2L164.7,29.0L164.2,31.9L163.6,34.8L162.9,37.6L162.3,40.5L161.5,43.3L160.7,46.1L159.9,48.9L159.0,51.7L158.1,54.4L157.1,57.2L156.1,59.9L155.1,62.6L153.9,65.3L152.8,68.0L151.6,70.7L150.3,73.3L149.0,75.9L147.7,78.5L146.3,81.1L144.8,83.6L143.3,86.1L141.8,88.6L140.2,91.1L138.6,93.5L137.0,95.9L135.3,98.3L133.6,100.6L131.8,103.0L130.0,105.2L128.1,107.5L126.2,109.7L124.3,111.9L170.5,159.0L167.7,162.0L164.9,164.9L162.0,167.7L159.0,170.5L156.0,173.3L153.0,176.0L149.9,178.6L146.7,181.2L103.0,131.8L100.6,133.6L98.3,135.3L95.9,137.0L93.5,138.6L91.1,140.2L88.6,141.8L86.1,143.3L83.6,144.8L81.1,146.3L78.5,147.7L75.9,149.0L73.3,150.3L70.7,151.6L68.0,152.8L65.3,153.9L62.6,155.1L59.9,156.1L57.2,157.1L54.4,158.1L51.7,159.0L48.9,159.9L46.1,160.7L43.3,161.5L40.5,162.3L37.6,162.9L34.8,163.6L31.9,164.2L29.0,164.7L26.2,165.2L23.3,165.6L20.4,166.0L17.5,166.3L14.6,166.6L11.7,166.8L8.8,167.0L5.8,167.1L2.9,167.2L0.0,167.2L-2.9,167.2L-5.8,167.1L-8.8,167.0L-11.7,166.8L-20.3,232.3L-24.4,231.9L-28.4,231.4L-32.5,230.9L-36.5,230.3L-40.5,229.6L-44.5,228.9L-48.5,228.1L-52.5,227.2L-40.5,162.3L-43.3,161.5L-46.1,160.7L-48.9,159.9L-51.7,159.0L-54.4,158.1L-57.2,157.1L-59.9,156.1L-62.6,155.1L-65.3,153.9L-68.0,152.8L-70.7,151.6L-73.3,150.3L-75.9,149.0L-78.5,147.7L-81.1,146.3L-83.6,144.8L-86.1,143.3L-88.6,141.8L-91.1,140.2L-93.5,138.6L-95.9,137.0L-98.3,135.3L-100.6,133.6L-103.0,131.8L-105.2,130.0L-107.5,128.1L-109.7,126.2L-111.9,124.3L-114.0,122.3L-116.2,120.3L-118.2,118.2L-120.3,116.2L-122.3,114.0L-124.3,111.9L-126.2,109.7L-128.1,107.5L-130.0,105.2L-131.8,103.0L-133.6,100.6L-135.3,98.3L-137.0,95.9L-193.3,130.4L-195.6,127.0L-197.8,123.6L-199.9,120.1L-201.9,116.6L-204.0,113.1L-205.9,109.5L-207.8,105.9L-209.6,102.2L-151.6,70.7L-152.8,68.0L-153.9,65.3L-155.1,62.6L-156.1,59.9L-157.1,57.2L-158.1,54.4L-159.0,51.7L-159.9,48.9L-160.7,46.1L-161.5,43.3L-162.3,40.5L-162.9,37.6L-163.6,34.8L-164.2,31.9L-164.7,29.0L-165.2,26.2L-165.6,23.3L-166.0,20.4L-166.3,17.5L-166.6,14.6L-166.8,11.7L-167.0,8.8L-167.1,5.8L-167.2,2.9L-167.2,0.0L-167.2,-2.9L-167.1,-5.8L-167.0,-8.8L-166.8,-11.7L-166.6,-14.6L-166.3,-17.5L-166.0,-20.4L-165.6,-23.3L-165.2,-26.2L-164.7,-29.0L-164.2,-31.9L-163.6,-34.8L-162.9,-37.6L-162.3,-40.5L-161.5,-43.3L-160.7,-46.1L-159.9,-48.9L-221.8,-72.1L-220.5,-75.9L-219.1,-79.8L-217.7,-83.6L-216.2,-87.4L-214.7,-91.1L-213.0,-94.8L-211.3,-98.5L-209.6,-102.2L-149.0,-75.9L-147.7,-78.5L-146.3,-81.1L-144.8,-83.6L-143.3,-86.1L-141.8,-88.6L-140.2,-91.1L-138.6,-93.5L-137.0,-95.9L-135.3,-98.3L-133.6,-100.6L-131.8,-103.0L-130.0,-105.2L-128.1,-107.5L-126.2,-109.7L-124.3,-111.9L-122.3,-114.0L-120.3,-116.2L-118.2,-118.2L-116.2,-120.3L-114.0,-122.3L-111.9,-124.3L-109.7,-126.2L-107.5,-128.1L-105.2,-130.0L-103.0,-131.8L-100.6,-133.6L-98.3,-135.3L-95.9,-137.0L-93.5,-138.6L-91.1,-140.2L-88.6,-141.8L-86.1,-143.3L-83.6,-144.8L-81.1,-146.3L-78.5,-147.7L-75.9,-149.0L-73.3,-150.3L-70.7,-151.6L-68.0,-152.8L-65.3,-153.9L-62.6,-155.1L-83.6,-217.7L-79.8,-219.1L-75.9,-220.5L-72.1,-221.8L-68.2,-223.0L-64.3,-224.2L-60.4,-225.2L-56.4,-226.3L-52.5,-227.2L-34.8,-163.6L-31.9,-164.2L-29.0,-164.7L-26.2,-165.2L-23.3,-165.6L-20.4,-166.0L-17.5,-166.3L-14.6,-166.6L-11.7,-166.8L-8.8,-167.0L-5.8,-167.1L-2.9,-167.2L-0.0,-167.2L2.9,-167.2L5.8,-167.1L8.8,-167.0L11.7,-166.8L14.6,-166.6L17.5,-166.3L20.4,-166.0L23.3,-165.6L26.2,-165.2L29.0,-164.7L31.9,-164.2L34.8,-163.6L37.6,-162.9L40.5,-162.3L43.3,-161.5L46.1,-160.7L48.9,-159.9L51.7,-159.0L54.4,-158.1L57.2,-157.1L59.9,-156.1L62.6,-155.1L65.3,-153.9L68.0,-152.8L70.7,-151.6L73.3,-150.3L75.9,-149.0L78.5,-147.7L81.1,-146.3L116.6,-201.9L120.1,-199.9L123.6,-197.8L127.0,-195.6L130.4,-193.3L133.8,-191.0L137.1,-188.7L140.3,-186.2L143.6,-183.8L146.7,-181.2L107.5,-128.1L109.7,-126.2L111.9,-124.3L114.0,-122.3L116.2,-120.3L118.2,-118.2L120.3,-116.2L122.3,-114.0L124.3,-111.9L126.2,-109.7L128.1,-107.5L130.0,-105.2L131.8,-103.0L133.6,-100.6L135.3,-98.3L137.0,-95.9L138.6,-93.5L140.2,-91.1L141.8,-88.6L143.3,-86.1L144.8,-83.6L146.3,-81.1L147.7,-78.5L149.0,-75.9L150.3,-73.3L151.6,-70.7L152.8,-68.0L153.9,-65.3L155.1,-62.6L156.1,-59.9L157.1,-57.2L158.1,-54.4L159.0,-51.7L159.9,-48.9L160.7,-46.1L161.5,-43.3L162.3,-40.5L162.9,-37.6L163.6,-34.8L164.2,-31.9L164.7,-29.0L165.2,-26.2L230.9,-32.5L231.4,-28.4L231.9,-24.4L232.3,-20.3L232.6,-16.3L232.9,-12.2L233.0,-8.1L233.2,-4.1L233.2,-0.0Z" fill="none" stroke="#f4d2f0" stroke-width="8.100000000000001" stroke-linecap="round" opacity="0.28" filter="url(#tg)"/><path d="M233.2,0.0L167.2,2.9L167.1,5.8L167.0,8.8L166.8,11.7L166.6,14.6L166.3,17.5L166.0,20.4L165.6,23.3L165.2,26.2L164.7,29.0L164.2,31.9L163.6,34.8L162.9,37.6L162.3,40.5L161.5,43.3L160.7,46.1L159.9,48.9L159.0,51.7L158.1,54.4L157.1,57.2L156.1,59.9L155.1,62.6L153.9,65.3L152.8,68.0L151.6,70.7L150.3,73.3L149.0,75.9L147.7,78.5L146.3,81.1L144.8,83.6L143.3,86.1L141.8,88.6L140.2,91.1L138.6,93.5L137.0,95.9L135.3,98.3L133.6,100.6L131.8,103.0L130.0,105.2L128.1,107.5L126.2,109.7L124.3,111.9L170.5,159.0L167.7,162.0L164.9,164.9L162.0,167.7L159.0,170.5L156.0,173.3L153.0,176.0L149.9,178.6L146.7,181.2L103.0,131.8L100.6,133.6L98.3,135.3L95.9,137.0L93.5,138.6L91.1,140.2L88.6,141.8L86.1,143.3L83.6,144.8L81.1,146.3L78.5,147.7L75.9,149.0L73.3,150.3L70.7,151.6L68.0,152.8L65.3,153.9L62.6,155.1L59.9,156.1L57.2,157.1L54.4,158.1L51.7,159.0L48.9,159.9L46.1,160.7L43.3,161.5L40.5,162.3L37.6,162.9L34.8,163.6L31.9,164.2L29.0,164.7L26.2,165.2L23.3,165.6L20.4,166.0L17.5,166.3L14.6,166.6L11.7,166.8L8.8,167.0L5.8,167.1L2.9,167.2L0.0,167.2L-2.9,167.2L-5.8,167.1L-8.8,167.0L-11.7,166.8L-20.3,232.3L-24.4,231.9L-28.4,231.4L-32.5,230.9L-36.5,230.3L-40.5,229.6L-44.5,228.9L-48.5,228.1L-52.5,227.2L-40.5,162.3L-43.3,161.5L-46.1,160.7L-48.9,159.9L-51.7,159.0L-54.4,158.1L-57.2,157.1L-59.9,156.1L-62.6,155.1L-65.3,153.9L-68.0,152.8L-70.7,151.6L-73.3,150.3L-75.9,149.0L-78.5,147.7L-81.1,146.3L-83.6,144.8L-86.1,143.3L-88.6,141.8L-91.1,140.2L-93.5,138.6L-95.9,137.0L-98.3,135.3L-100.6,133.6L-103.0,131.8L-105.2,130.0L-107.5,128.1L-109.7,126.2L-111.9,124.3L-114.0,122.3L-116.2,120.3L-118.2,118.2L-120.3,116.2L-122.3,114.0L-124.3,111.9L-126.2,109.7L-128.1,107.5L-130.0,105.2L-131.8,103.0L-133.6,100.6L-135.3,98.3L-137.0,95.9L-193.3,130.4L-195.6,127.0L-197.8,123.6L-199.9,120.1L-201.9,116.6L-204.0,113.1L-205.9,109.5L-207.8,105.9L-209.6,102.2L-151.6,70.7L-152.8,68.0L-153.9,65.3L-155.1,62.6L-156.1,59.9L-157.1,57.2L-158.1,54.4L-159.0,51.7L-159.9,48.9L-160.7,46.1L-161.5,43.3L-162.3,40.5L-162.9,37.6L-163.6,34.8L-164.2,31.9L-164.7,29.0L-165.2,26.2L-165.6,23.3L-166.0,20.4L-166.3,17.5L-166.6,14.6L-166.8,11.7L-167.0,8.8L-167.1,5.8L-167.2,2.9L-167.2,0.0L-167.2,-2.9L-167.1,-5.8L-167.0,-8.8L-166.8,-11.7L-166.6,-14.6L-166.3,-17.5L-166.0,-20.4L-165.6,-23.3L-165.2,-26.2L-164.7,-29.0L-164.2,-31.9L-163.6,-34.8L-162.9,-37.6L-162.3,-40.5L-161.5,-43.3L-160.7,-46.1L-159.9,-48.9L-221.8,-72.1L-220.5,-75.9L-219.1,-79.8L-217.7,-83.6L-216.2,-87.4L-214.7,-91.1L-213.0,-94.8L-211.3,-98.5L-209.6,-102.2L-149.0,-75.9L-147.7,-78.5L-146.3,-81.1L-144.8,-83.6L-143.3,-86.1L-141.8,-88.6L-140.2,-91.1L-138.6,-93.5L-137.0,-95.9L-135.3,-98.3L-133.6,-100.6L-131.8,-103.0L-130.0,-105.2L-128.1,-107.5L-126.2,-109.7L-124.3,-111.9L-122.3,-114.0L-120.3,-116.2L-118.2,-118.2L-116.2,-120.3L-114.0,-122.3L-111.9,-124.3L-109.7,-126.2L-107.5,-128.1L-105.2,-130.0L-103.0,-131.8L-100.6,-133.6L-98.3,-135.3L-95.9,-137.0L-93.5,-138.6L-91.1,-140.2L-88.6,-141.8L-86.1,-143.3L-83.6,-144.8L-81.1,-146.3L-78.5,-147.7L-75.9,-149.0L-73.3,-150.3L-70.7,-151.6L-68.0,-152.8L-65.3,-153.9L-62.6,-155.1L-83.6,-217.7L-79.8,-219.1L-75.9,-220.5L-72.1,-221.8L-68.2,-223.0L-64.3,-224.2L-60.4,-225.2L-56.4,-226.3L-52.5,-227.2L-34.8,-163.6L-31.9,-164.2L-29.0,-164.7L-26.2,-165.2L-23.3,-165.6L-20.4,-166.0L-17.5,-166.3L-14.6,-166.6L-11.7,-166.8L-8.8,-167.0L-5.8,-167.1L-2.9,-167.2L-0.0,-167.2L2.9,-167.2L5.8,-167.1L8.8,-167.0L11.7,-166.8L14.6,-166.6L17.5,-166.3L20.4,-166.0L23.3,-165.6L26.2,-165.2L29.0,-164.7L31.9,-164.2L34.8,-163.6L37.6,-162.9L40.5,-162.3L43.3,-161.5L46.1,-160.7L48.9,-159.9L51.7,-159.0L54.4,-158.1L57.2,-157.1L59.9,-156.1L62.6,-155.1L65.3,-153.9L68.0,-152.8L70.7,-151.6L73.3,-150.3L75.9,-149.0L78.5,-147.7L81.1,-146.3L116.6,-201.9L120.1,-199.9L123.6,-197.8L127.0,-195.6L130.4,-193.3L133.8,-191.0L137.1,-188.7L140.3,-186.2L143.6,-183.8L146.7,-181.2L107.5,-128.1L109.7,-126.2L111.9,-124.3L114.0,-122.3L116.2,-120.3L118.2,-118.2L120.3,-116.2L122.3,-114.0L124.3,-111.9L126.2,-109.7L128.1,-107.5L130.0,-105.2L131.8,-103.0L133.6,-100.6L135.3,-98.3L137.0,-95.9L138.6,-93.5L140.2,-91.1L141.8,-88.6L143.3,-86.1L144.8,-83.6L146.3,-81.1L147.7,-78.5L149.0,-75.9L150.3,-73.3L151.6,-70.7L152.8,-68.0L153.9,-65.3L155.1,-62.6L156.1,-59.9L157.1,-57.2L158.1,-54.4L159.0,-51.7L159.9,-48.9L160.7,-46.1L161.5,-43.3L162.3,-40.5L162.9,-37.6L163.6,-34.8L164.2,-31.9L164.7,-29.0L165.2,-26.2L230.9,-32.5L231.4,-28.4L231.9,-24.4L232.3,-20.3L232.6,-16.3L232.9,-12.2L233.0,-8.1L233.2,-4.1L233.2,-0.0Z" fill="none" stroke="#f4d2f0" stroke-width="2.7" stroke-linecap="round" opacity="0.95"/><path d="M130.9,0.0L130.9,2.3L130.9,4.6L130.8,6.9L130.6,9.1L130.5,11.4L130.2,13.7L130.0,16.0L129.7,18.2L129.3,20.5L129.0,22.7L128.5,25.0L128.1,27.2L127.6,29.5L127.1,31.7L126.5,33.9L125.9,36.1L125.2,38.3L124.5,40.5L123.8,42.6L123.1,44.8L122.3,46.9L121.4,49.1L120.5,51.2L119.6,53.3L118.7,55.3L117.7,57.4L116.7,59.5L173.9,92.4L172.2,95.5L170.5,98.5L168.8,101.4L167.0,104.3L165.1,107.2L163.2,110.1L161.3,112.9L159.3,115.7L104.6,78.8L103.2,80.6L101.8,82.4L100.3,84.2L98.8,85.9L97.3,87.6L95.8,89.3L94.2,91.0L92.6,92.6L91.0,94.2L89.3,95.8L87.6,97.3L85.9,98.8L84.2,100.3L82.4,101.8L80.6,103.2L78.8,104.6L77.0,105.9L75.1,107.3L73.2,108.6L71.3,109.8L69.4,111.1L67.4,112.2L65.5,113.4L63.5,114.5L61.5,115.6L59.5,116.7L57.4,117.7L55.3,118.7L53.3,119.6L51.2,120.5L49.1,121.4L46.9,122.3L44.8,123.1L42.6,123.8L40.5,124.5L38.3,125.2L36.1,125.9L33.9,126.5L31.7,127.1L29.5,127.6L27.2,128.1L25.0,128.5L34.2,193.9L30.8,194.5L27.4,195.0L24.0,195.4L20.6,195.8L17.2,196.2L13.7,196.4L10.3,196.6L6.9,196.8L2.3,130.9L0.0,130.9L-2.3,130.9L-4.6,130.9L-6.9,130.8L-9.1,130.6L-11.4,130.5L-13.7,130.2L-16.0,130.0L-18.2,129.7L-20.5,129.3L-22.7,129.0L-25.0,128.5L-27.2,128.1L-29.5,127.6L-31.7,127.1L-33.9,126.5L-36.1,125.9L-38.3,125.2L-40.5,124.5L-42.6,123.8L-44.8,123.1L-46.9,122.3L-49.1,121.4L-51.2,120.5L-53.3,119.6L-55.3,118.7L-57.4,117.7L-59.5,116.7L-61.5,115.6L-63.5,114.5L-65.5,113.4L-67.4,112.2L-69.4,111.1L-71.3,109.8L-73.2,108.6L-75.1,107.3L-77.0,105.9L-78.8,104.6L-80.6,103.2L-82.4,101.8L-84.2,100.3L-129.2,148.6L-131.8,146.3L-134.3,144.0L-136.8,141.6L-139.2,139.2L-141.6,136.8L-144.0,134.3L-146.3,131.8L-148.6,129.2L-100.3,84.2L-101.8,82.4L-103.2,80.6L-104.6,78.8L-105.9,77.0L-107.3,75.1L-108.6,73.2L-109.8,71.3L-111.1,69.4L-112.2,67.4L-113.4,65.5L-114.5,63.5L-115.6,61.5L-116.7,59.5L-117.7,57.4L-118.7,55.3L-119.6,53.3L-120.5,51.2L-121.4,49.1L-122.3,46.9L-123.1,44.8L-123.8,42.6L-124.5,40.5L-125.2,38.3L-125.9,36.1L-126.5,33.9L-127.1,31.7L-127.6,29.5L-128.1,27.2L-128.5,25.0L-129.0,22.7L-129.3,20.5L-129.7,18.2L-130.0,16.0L-130.2,13.7L-130.5,11.4L-130.6,9.1L-130.8,6.9L-130.9,4.6L-130.9,2.3L-130.9,0.0L-130.9,-2.3L-130.9,-4.6L-196.6,-10.3L-196.4,-13.7L-196.2,-17.2L-195.8,-20.6L-195.4,-24.0L-195.0,-27.4L-194.5,-30.8L-193.9,-34.2L-193.3,-37.6L-128.1,-27.2L-127.6,-29.5L-127.1,-31.7L-126.5,-33.9L-125.9,-36.1L-125.2,-38.3L-124.5,-40.5L-123.8,-42.6L-123.1,-44.8L-122.3,-46.9L-121.4,-49.1L-120.5,-51.2L-119.6,-53.3L-118.7,-55.3L-117.7,-57.4L-116.7,-59.5L-115.6,-61.5L-114.5,-63.5L-113.4,-65.5L-112.2,-67.4L-111.1,-69.4L-109.8,-71.3L-108.6,-73.2L-107.3,-75.1L-105.9,-77.0L-104.6,-78.8L-103.2,-80.6L-101.8,-82.4L-100.3,-84.2L-98.8,-85.9L-97.3,-87.6L-95.8,-89.3L-94.2,-91.0L-92.6,-92.6L-91.0,-94.2L-89.3,-95.8L-87.6,-97.3L-85.9,-98.8L-84.2,-100.3L-82.4,-101.8L-80.6,-103.2L-78.8,-104.6L-115.7,-159.3L-112.9,-161.3L-110.1,-163.2L-107.2,-165.1L-104.3,-167.0L-101.4,-168.8L-98.5,-170.5L-95.5,-172.2L-92.4,-173.9L-59.5,-116.7L-57.4,-117.7L-55.3,-118.7L-53.3,-119.6L-51.2,-120.5L-49.1,-121.4L-46.9,-122.3L-44.8,-123.1L-42.6,-123.8L-40.5,-124.5L-38.3,-125.2L-36.1,-125.9L-33.9,-126.5L-31.7,-127.1L-29.5,-127.6L-27.2,-128.1L-25.0,-128.5L-22.7,-129.0L-20.5,-129.3L-18.2,-129.7L-16.0,-130.0L-13.7,-130.2L-11.4,-130.5L-9.1,-130.6L-6.9,-130.8L-4.6,-130.9L-2.3,-130.9L-0.0,-130.9L2.3,-130.9L4.6,-130.9L6.9,-130.8L9.1,-130.6L11.4,-130.5L13.7,-130.2L16.0,-130.0L18.2,-129.7L20.5,-129.3L22.7,-129.0L25.0,-128.5L27.2,-128.1L29.5,-127.6L31.7,-127.1L51.0,-190.2L54.3,-189.3L57.6,-188.3L60.8,-187.3L64.1,-186.2L67.3,-185.0L70.6,-183.8L73.8,-182.6L76.9,-181.3L80.1,-179.9L55.3,-118.7L57.4,-117.7L59.5,-116.7L61.5,-115.6L63.5,-114.5L65.5,-113.4L67.4,-112.2L69.4,-111.1L71.3,-109.8L73.2,-108.6L75.1,-107.3L77.0,-105.9L78.8,-104.6L80.6,-103.2L82.4,-101.8L84.2,-100.3L85.9,-98.8L87.6,-97.3L89.3,-95.8L91.0,-94.2L92.6,-92.6L94.2,-91.0L95.8,-89.3L97.3,-87.6L98.8,-85.9L100.3,-84.2L101.8,-82.4L103.2,-80.6L104.6,-78.8L105.9,-77.0L107.3,-75.1L108.6,-73.2L109.8,-71.3L111.1,-69.4L112.2,-67.4L113.4,-65.5L114.5,-63.5L115.6,-61.5L116.7,-59.5L117.7,-57.4L118.7,-55.3L119.6,-53.3L181.3,-76.9L182.6,-73.8L183.8,-70.6L185.0,-67.3L186.2,-64.1L187.3,-60.8L188.3,-57.6L189.3,-54.3L190.2,-51.0L127.1,-31.7L127.6,-29.5L128.1,-27.2L128.5,-25.0L129.0,-22.7L129.3,-20.5L129.7,-18.2L130.0,-16.0L130.2,-13.7L130.5,-11.4L130.6,-9.1L130.8,-6.9L130.9,-4.6L130.9,-2.3L130.9,-0.0Z" fill="none" stroke="#f4cdf6" stroke-width="8.100000000000001" stroke-linecap="round" opacity="0.28" filter="url(#tg)"/><path d="M130.9,0.0L130.9,2.3L130.9,4.6L130.8,6.9L130.6,9.1L130.5,11.4L130.2,13.7L130.0,16.0L129.7,18.2L129.3,20.5L129.0,22.7L128.5,25.0L128.1,27.2L127.6,29.5L127.1,31.7L126.5,33.9L125.9,36.1L125.2,38.3L124.5,40.5L123.8,42.6L123.1,44.8L122.3,46.9L121.4,49.1L120.5,51.2L119.6,53.3L118.7,55.3L117.7,57.4L116.7,59.5L173.9,92.4L172.2,95.5L170.5,98.5L168.8,101.4L167.0,104.3L165.1,107.2L163.2,110.1L161.3,112.9L159.3,115.7L104.6,78.8L103.2,80.6L101.8,82.4L100.3,84.2L98.8,85.9L97.3,87.6L95.8,89.3L94.2,91.0L92.6,92.6L91.0,94.2L89.3,95.8L87.6,97.3L85.9,98.8L84.2,100.3L82.4,101.8L80.6,103.2L78.8,104.6L77.0,105.9L75.1,107.3L73.2,108.6L71.3,109.8L69.4,111.1L67.4,112.2L65.5,113.4L63.5,114.5L61.5,115.6L59.5,116.7L57.4,117.7L55.3,118.7L53.3,119.6L51.2,120.5L49.1,121.4L46.9,122.3L44.8,123.1L42.6,123.8L40.5,124.5L38.3,125.2L36.1,125.9L33.9,126.5L31.7,127.1L29.5,127.6L27.2,128.1L25.0,128.5L34.2,193.9L30.8,194.5L27.4,195.0L24.0,195.4L20.6,195.8L17.2,196.2L13.7,196.4L10.3,196.6L6.9,196.8L2.3,130.9L0.0,130.9L-2.3,130.9L-4.6,130.9L-6.9,130.8L-9.1,130.6L-11.4,130.5L-13.7,130.2L-16.0,130.0L-18.2,129.7L-20.5,129.3L-22.7,129.0L-25.0,128.5L-27.2,128.1L-29.5,127.6L-31.7,127.1L-33.9,126.5L-36.1,125.9L-38.3,125.2L-40.5,124.5L-42.6,123.8L-44.8,123.1L-46.9,122.3L-49.1,121.4L-51.2,120.5L-53.3,119.6L-55.3,118.7L-57.4,117.7L-59.5,116.7L-61.5,115.6L-63.5,114.5L-65.5,113.4L-67.4,112.2L-69.4,111.1L-71.3,109.8L-73.2,108.6L-75.1,107.3L-77.0,105.9L-78.8,104.6L-80.6,103.2L-82.4,101.8L-84.2,100.3L-129.2,148.6L-131.8,146.3L-134.3,144.0L-136.8,141.6L-139.2,139.2L-141.6,136.8L-144.0,134.3L-146.3,131.8L-148.6,129.2L-100.3,84.2L-101.8,82.4L-103.2,80.6L-104.6,78.8L-105.9,77.0L-107.3,75.1L-108.6,73.2L-109.8,71.3L-111.1,69.4L-112.2,67.4L-113.4,65.5L-114.5,63.5L-115.6,61.5L-116.7,59.5L-117.7,57.4L-118.7,55.3L-119.6,53.3L-120.5,51.2L-121.4,49.1L-122.3,46.9L-123.1,44.8L-123.8,42.6L-124.5,40.5L-125.2,38.3L-125.9,36.1L-126.5,33.9L-127.1,31.7L-127.6,29.5L-128.1,27.2L-128.5,25.0L-129.0,22.7L-129.3,20.5L-129.7,18.2L-130.0,16.0L-130.2,13.7L-130.5,11.4L-130.6,9.1L-130.8,6.9L-130.9,4.6L-130.9,2.3L-130.9,0.0L-130.9,-2.3L-130.9,-4.6L-196.6,-10.3L-196.4,-13.7L-196.2,-17.2L-195.8,-20.6L-195.4,-24.0L-195.0,-27.4L-194.5,-30.8L-193.9,-34.2L-193.3,-37.6L-128.1,-27.2L-127.6,-29.5L-127.1,-31.7L-126.5,-33.9L-125.9,-36.1L-125.2,-38.3L-124.5,-40.5L-123.8,-42.6L-123.1,-44.8L-122.3,-46.9L-121.4,-49.1L-120.5,-51.2L-119.6,-53.3L-118.7,-55.3L-117.7,-57.4L-116.7,-59.5L-115.6,-61.5L-114.5,-63.5L-113.4,-65.5L-112.2,-67.4L-111.1,-69.4L-109.8,-71.3L-108.6,-73.2L-107.3,-75.1L-105.9,-77.0L-104.6,-78.8L-103.2,-80.6L-101.8,-82.4L-100.3,-84.2L-98.8,-85.9L-97.3,-87.6L-95.8,-89.3L-94.2,-91.0L-92.6,-92.6L-91.0,-94.2L-89.3,-95.8L-87.6,-97.3L-85.9,-98.8L-84.2,-100.3L-82.4,-101.8L-80.6,-103.2L-78.8,-104.6L-115.7,-159.3L-112.9,-161.3L-110.1,-163.2L-107.2,-165.1L-104.3,-167.0L-101.4,-168.8L-98.5,-170.5L-95.5,-172.2L-92.4,-173.9L-59.5,-116.7L-57.4,-117.7L-55.3,-118.7L-53.3,-119.6L-51.2,-120.5L-49.1,-121.4L-46.9,-122.3L-44.8,-123.1L-42.6,-123.8L-40.5,-124.5L-38.3,-125.2L-36.1,-125.9L-33.9,-126.5L-31.7,-127.1L-29.5,-127.6L-27.2,-128.1L-25.0,-128.5L-22.7,-129.0L-20.5,-129.3L-18.2,-129.7L-16.0,-130.0L-13.7,-130.2L-11.4,-130.5L-9.1,-130.6L-6.9,-130.8L-4.6,-130.9L-2.3,-130.9L-0.0,-130.9L2.3,-130.9L4.6,-130.9L6.9,-130.8L9.1,-130.6L11.4,-130.5L13.7,-130.2L16.0,-130.0L18.2,-129.7L20.5,-129.3L22.7,-129.0L25.0,-128.5L27.2,-128.1L29.5,-127.6L31.7,-127.1L51.0,-190.2L54.3,-189.3L57.6,-188.3L60.8,-187.3L64.1,-186.2L67.3,-185.0L70.6,-183.8L73.8,-182.6L76.9,-181.3L80.1,-179.9L55.3,-118.7L57.4,-117.7L59.5,-116.7L61.5,-115.6L63.5,-114.5L65.5,-113.4L67.4,-112.2L69.4,-111.1L71.3,-109.8L73.2,-108.6L75.1,-107.3L77.0,-105.9L78.8,-104.6L80.6,-103.2L82.4,-101.8L84.2,-100.3L85.9,-98.8L87.6,-97.3L89.3,-95.8L91.0,-94.2L92.6,-92.6L94.2,-91.0L95.8,-89.3L97.3,-87.6L98.8,-85.9L100.3,-84.2L101.8,-82.4L103.2,-80.6L104.6,-78.8L105.9,-77.0L107.3,-75.1L108.6,-73.2L109.8,-71.3L111.1,-69.4L112.2,-67.4L113.4,-65.5L114.5,-63.5L115.6,-61.5L116.7,-59.5L117.7,-57.4L118.7,-55.3L119.6,-53.3L181.3,-76.9L182.6,-73.8L183.8,-70.6L185.0,-67.3L186.2,-64.1L187.3,-60.8L188.3,-57.6L189.3,-54.3L190.2,-51.0L127.1,-31.7L127.6,-29.5L128.1,-27.2L128.5,-25.0L129.0,-22.7L129.3,-20.5L129.7,-18.2L130.0,-16.0L130.2,-13.7L130.5,-11.4L130.6,-9.1L130.8,-6.9L130.9,-4.6L130.9,-2.3L130.9,-0.0Z" fill="none" stroke="#f4cdf6" stroke-width="2.7" stroke-linecap="round" opacity="0.95"/><path d="M94.7,0.0L94.7,1.7L94.6,3.3L94.5,5.0L94.4,6.6L94.3,8.3L94.2,9.9L94.0,11.5L93.8,13.2L93.5,14.8L93.2,16.4L92.9,18.1L92.6,19.7L156.5,36.1L155.9,38.9L155.2,41.6L154.4,44.3L153.6,47.0L152.8,49.6L151.9,52.3L150.9,54.9L150.0,57.6L87.8,35.5L87.1,37.0L86.5,38.5L85.8,40.0L85.1,41.5L84.4,43.0L83.6,44.4L82.8,45.9L82.0,47.3L81.1,48.8L80.3,50.2L79.4,51.6L78.5,52.9L77.6,54.3L76.6,55.6L75.6,57.0L74.6,58.3L73.6,59.6L72.5,60.9L71.4,62.1L70.4,63.3L69.2,64.6L68.1,65.8L66.9,66.9L65.8,68.1L64.6,69.2L63.3,70.4L62.1,71.4L60.9,72.5L59.6,73.6L58.3,74.6L57.0,75.6L55.6,76.6L54.3,77.6L52.9,78.5L51.6,79.4L50.2,80.3L48.8,81.1L47.3,82.0L45.9,82.8L44.4,83.6L43.0,84.4L41.5,85.1L67.9,145.6L65.3,146.7L62.8,147.9L60.2,148.9L57.6,150.0L54.9,150.9L52.3,151.9L49.6,152.8L47.0,153.6L26.1,91.0L24.5,91.4L22.9,91.9L21.3,92.2L19.7,92.6L18.1,92.9L16.4,93.2L14.8,93.5L13.2,93.8L11.5,94.0L9.9,94.2L8.3,94.3L6.6,94.4L5.0,94.5L3.3,94.6L1.7,94.7L0.0,94.7L-1.7,94.7L-3.3,94.6L-5.0,94.5L-6.6,94.4L-8.3,94.3L-9.9,94.2L-11.5,94.0L-13.2,93.8L-14.8,93.5L-16.4,93.2L-18.1,92.9L-19.7,92.6L-21.3,92.2L-22.9,91.9L-24.5,91.4L-26.1,91.0L-27.7,90.5L-29.3,90.0L-30.8,89.5L-32.4,89.0L-33.9,88.4L-35.5,87.8L-37.0,87.1L-38.5,86.5L-40.0,85.8L-70.4,144.4L-72.9,143.1L-75.4,141.8L-77.9,140.5L-80.3,139.1L-82.7,137.7L-85.1,136.2L-87.5,134.7L-89.8,133.2L-54.3,77.6L-55.6,76.6L-57.0,75.6L-58.3,74.6L-59.6,73.6L-60.9,72.5L-62.1,71.4L-63.3,70.4L-64.6,69.2L-65.8,68.1L-66.9,66.9L-68.1,65.8L-69.2,64.6L-70.4,63.3L-71.4,62.1L-72.5,60.9L-73.6,59.6L-74.6,58.3L-75.6,57.0L-76.6,55.6L-77.6,54.3L-78.5,52.9L-79.4,51.6L-80.3,50.2L-81.1,48.8L-82.0,47.3L-82.8,45.9L-83.6,44.4L-84.4,43.0L-85.1,41.5L-85.8,40.0L-86.5,38.5L-87.1,37.0L-87.8,35.5L-88.4,33.9L-89.0,32.4L-89.5,30.8L-90.0,29.3L-90.5,27.7L-91.0,26.1L-91.4,24.5L-91.9,22.9L-92.2,21.3L-157.1,33.4L-157.7,30.7L-158.2,27.9L-158.7,25.1L-159.1,22.4L-159.4,19.6L-159.8,16.8L-160.0,14.0L-160.2,11.2L-94.5,5.0L-94.6,3.3L-94.7,1.7L-94.7,0.0L-94.7,-1.7L-94.6,-3.3L-94.5,-5.0L-94.4,-6.6L-94.3,-8.3L-94.2,-9.9L-94.0,-11.5L-93.8,-13.2L-93.5,-14.8L-93.2,-16.4L-92.9,-18.1L-92.6,-19.7L-92.2,-21.3L-91.9,-22.9L-91.4,-24.5L-91.0,-26.1L-90.5,-27.7L-90.0,-29.3L-89.5,-30.8L-89.0,-32.4L-88.4,-33.9L-87.8,-35.5L-87.1,-37.0L-86.5,-38.5L-85.8,-40.0L-85.1,-41.5L-84.4,-43.0L-83.6,-44.4L-82.8,-45.9L-82.0,-47.3L-81.1,-48.8L-80.3,-50.2L-79.4,-51.6L-78.5,-52.9L-77.6,-54.3L-76.6,-55.6L-75.6,-57.0L-74.6,-58.3L-124.8,-101.1L-123.1,-103.3L-121.2,-105.4L-119.4,-107.5L-117.5,-109.6L-115.5,-111.6L-113.6,-113.6L-111.6,-115.5L-109.6,-117.5L-63.3,-70.4L-62.1,-71.4L-60.9,-72.5L-59.6,-73.6L-58.3,-74.6L-57.0,-75.6L-55.6,-76.6L-54.3,-77.6L-52.9,-78.5L-51.6,-79.4L-50.2,-80.3L-48.8,-81.1L-47.3,-82.0L-45.9,-82.8L-44.4,-83.6L-43.0,-84.4L-41.5,-85.1L-40.0,-85.8L-38.5,-86.5L-37.0,-87.1L-35.5,-87.8L-33.9,-88.4L-32.4,-89.0L-30.8,-89.5L-29.3,-90.0L-27.7,-90.5L-26.1,-91.0L-24.5,-91.4L-22.9,-91.9L-21.3,-92.2L-19.7,-92.6L-18.1,-92.9L-16.4,-93.2L-14.8,-93.5L-13.2,-93.8L-11.5,-94.0L-9.9,-94.2L-8.3,-94.3L-6.6,-94.4L-5.0,-94.5L-3.3,-94.6L-1.7,-94.7L-0.0,-160.6L2.8,-160.6L5.6,-160.5L8.4,-160.4L11.2,-160.2L14.0,-160.0L16.8,-159.8L19.6,-159.4L22.4,-159.1L25.1,-158.7L16.4,-93.2L18.1,-92.9L19.7,-92.6L21.3,-92.2L22.9,-91.9L24.5,-91.4L26.1,-91.0L27.7,-90.5L29.3,-90.0L30.8,-89.5L32.4,-89.0L33.9,-88.4L35.5,-87.8L37.0,-87.1L38.5,-86.5L40.0,-85.8L41.5,-85.1L43.0,-84.4L44.4,-83.6L45.9,-82.8L47.3,-82.0L48.8,-81.1L50.2,-80.3L51.6,-79.4L52.9,-78.5L54.3,-77.6L55.6,-76.6L57.0,-75.6L58.3,-74.6L59.6,-73.6L60.9,-72.5L62.1,-71.4L63.3,-70.4L64.6,-69.2L65.8,-68.1L66.9,-66.9L68.1,-65.8L69.2,-64.6L70.4,-63.3L71.4,-62.1L72.5,-60.9L73.6,-59.6L126.6,-98.9L128.3,-96.7L130.0,-94.4L131.6,-92.1L133.2,-89.8L134.7,-87.5L136.2,-85.1L137.7,-82.7L139.1,-80.3L82.8,-45.9L83.6,-44.4L84.4,-43.0L85.1,-41.5L85.8,-40.0L86.5,-38.5L87.1,-37.0L87.8,-35.5L88.4,-33.9L89.0,-32.4L89.5,-30.8L90.0,-29.3L90.5,-27.7L91.0,-26.1L91.4,-24.5L91.9,-22.9L92.2,-21.3L92.6,-19.7L92.9,-18.1L93.2,-16.4L93.5,-14.8L93.8,-13.2L94.0,-11.5L94.2,-9.9L94.3,-8.3L94.4,-6.6L94.5,-5.0L94.6,-3.3L94.7,-1.7L94.7,-0.0Z" fill="none" stroke="#f3c8fc" stroke-width="8.100000000000001" stroke-linecap="round" opacity="0.28" filter="url(#tg)"/><path d="M94.7,0.0L94.7,1.7L94.6,3.3L94.5,5.0L94.4,6.6L94.3,8.3L94.2,9.9L94.0,11.5L93.8,13.2L93.5,14.8L93.2,16.4L92.9,18.1L92.6,19.7L156.5,36.1L155.9,38.9L155.2,41.6L154.4,44.3L153.6,47.0L152.8,49.6L151.9,52.3L150.9,54.9L150.0,57.6L87.8,35.5L87.1,37.0L86.5,38.5L85.8,40.0L85.1,41.5L84.4,43.0L83.6,44.4L82.8,45.9L82.0,47.3L81.1,48.8L80.3,50.2L79.4,51.6L78.5,52.9L77.6,54.3L76.6,55.6L75.6,57.0L74.6,58.3L73.6,59.6L72.5,60.9L71.4,62.1L70.4,63.3L69.2,64.6L68.1,65.8L66.9,66.9L65.8,68.1L64.6,69.2L63.3,70.4L62.1,71.4L60.9,72.5L59.6,73.6L58.3,74.6L57.0,75.6L55.6,76.6L54.3,77.6L52.9,78.5L51.6,79.4L50.2,80.3L48.8,81.1L47.3,82.0L45.9,82.8L44.4,83.6L43.0,84.4L41.5,85.1L67.9,145.6L65.3,146.7L62.8,147.9L60.2,148.9L57.6,150.0L54.9,150.9L52.3,151.9L49.6,152.8L47.0,153.6L26.1,91.0L24.5,91.4L22.9,91.9L21.3,92.2L19.7,92.6L18.1,92.9L16.4,93.2L14.8,93.5L13.2,93.8L11.5,94.0L9.9,94.2L8.3,94.3L6.6,94.4L5.0,94.5L3.3,94.6L1.7,94.7L0.0,94.7L-1.7,94.7L-3.3,94.6L-5.0,94.5L-6.6,94.4L-8.3,94.3L-9.9,94.2L-11.5,94.0L-13.2,93.8L-14.8,93.5L-16.4,93.2L-18.1,92.9L-19.7,92.6L-21.3,92.2L-22.9,91.9L-24.5,91.4L-26.1,91.0L-27.7,90.5L-29.3,90.0L-30.8,89.5L-32.4,89.0L-33.9,88.4L-35.5,87.8L-37.0,87.1L-38.5,86.5L-40.0,85.8L-70.4,144.4L-72.9,143.1L-75.4,141.8L-77.9,140.5L-80.3,139.1L-82.7,137.7L-85.1,136.2L-87.5,134.7L-89.8,133.2L-54.3,77.6L-55.6,76.6L-57.0,75.6L-58.3,74.6L-59.6,73.6L-60.9,72.5L-62.1,71.4L-63.3,70.4L-64.6,69.2L-65.8,68.1L-66.9,66.9L-68.1,65.8L-69.2,64.6L-70.4,63.3L-71.4,62.1L-72.5,60.9L-73.6,59.6L-74.6,58.3L-75.6,57.0L-76.6,55.6L-77.6,54.3L-78.5,52.9L-79.4,51.6L-80.3,50.2L-81.1,48.8L-82.0,47.3L-82.8,45.9L-83.6,44.4L-84.4,43.0L-85.1,41.5L-85.8,40.0L-86.5,38.5L-87.1,37.0L-87.8,35.5L-88.4,33.9L-89.0,32.4L-89.5,30.8L-90.0,29.3L-90.5,27.7L-91.0,26.1L-91.4,24.5L-91.9,22.9L-92.2,21.3L-157.1,33.4L-157.7,30.7L-158.2,27.9L-158.7,25.1L-159.1,22.4L-159.4,19.6L-159.8,16.8L-160.0,14.0L-160.2,11.2L-94.5,5.0L-94.6,3.3L-94.7,1.7L-94.7,0.0L-94.7,-1.7L-94.6,-3.3L-94.5,-5.0L-94.4,-6.6L-94.3,-8.3L-94.2,-9.9L-94.0,-11.5L-93.8,-13.2L-93.5,-14.8L-93.2,-16.4L-92.9,-18.1L-92.6,-19.7L-92.2,-21.3L-91.9,-22.9L-91.4,-24.5L-91.0,-26.1L-90.5,-27.7L-90.0,-29.3L-89.5,-30.8L-89.0,-32.4L-88.4,-33.9L-87.8,-35.5L-87.1,-37.0L-86.5,-38.5L-85.8,-40.0L-85.1,-41.5L-84.4,-43.0L-83.6,-44.4L-82.8,-45.9L-82.0,-47.3L-81.1,-48.8L-80.3,-50.2L-79.4,-51.6L-78.5,-52.9L-77.6,-54.3L-76.6,-55.6L-75.6,-57.0L-74.6,-58.3L-124.8,-101.1L-123.1,-103.3L-121.2,-105.4L-119.4,-107.5L-117.5,-109.6L-115.5,-111.6L-113.6,-113.6L-111.6,-115.5L-109.6,-117.5L-63.3,-70.4L-62.1,-71.4L-60.9,-72.5L-59.6,-73.6L-58.3,-74.6L-57.0,-75.6L-55.6,-76.6L-54.3,-77.6L-52.9,-78.5L-51.6,-79.4L-50.2,-80.3L-48.8,-81.1L-47.3,-82.0L-45.9,-82.8L-44.4,-83.6L-43.0,-84.4L-41.5,-85.1L-40.0,-85.8L-38.5,-86.5L-37.0,-87.1L-35.5,-87.8L-33.9,-88.4L-32.4,-89.0L-30.8,-89.5L-29.3,-90.0L-27.7,-90.5L-26.1,-91.0L-24.5,-91.4L-22.9,-91.9L-21.3,-92.2L-19.7,-92.6L-18.1,-92.9L-16.4,-93.2L-14.8,-93.5L-13.2,-93.8L-11.5,-94.0L-9.9,-94.2L-8.3,-94.3L-6.6,-94.4L-5.0,-94.5L-3.3,-94.6L-1.7,-94.7L-0.0,-160.6L2.8,-160.6L5.6,-160.5L8.4,-160.4L11.2,-160.2L14.0,-160.0L16.8,-159.8L19.6,-159.4L22.4,-159.1L25.1,-158.7L16.4,-93.2L18.1,-92.9L19.7,-92.6L21.3,-92.2L22.9,-91.9L24.5,-91.4L26.1,-91.0L27.7,-90.5L29.3,-90.0L30.8,-89.5L32.4,-89.0L33.9,-88.4L35.5,-87.8L37.0,-87.1L38.5,-86.5L40.0,-85.8L41.5,-85.1L43.0,-84.4L44.4,-83.6L45.9,-82.8L47.3,-82.0L48.8,-81.1L50.2,-80.3L51.6,-79.4L52.9,-78.5L54.3,-77.6L55.6,-76.6L57.0,-75.6L58.3,-74.6L59.6,-73.6L60.9,-72.5L62.1,-71.4L63.3,-70.4L64.6,-69.2L65.8,-68.1L66.9,-66.9L68.1,-65.8L69.2,-64.6L70.4,-63.3L71.4,-62.1L72.5,-60.9L73.6,-59.6L126.6,-98.9L128.3,-96.7L130.0,-94.4L131.6,-92.1L133.2,-89.8L134.7,-87.5L136.2,-85.1L137.7,-82.7L139.1,-80.3L82.8,-45.9L83.6,-44.4L84.4,-43.0L85.1,-41.5L85.8,-40.0L86.5,-38.5L87.1,-37.0L87.8,-35.5L88.4,-33.9L89.0,-32.4L89.5,-30.8L90.0,-29.3L90.5,-27.7L91.0,-26.1L91.4,-24.5L91.9,-22.9L92.2,-21.3L92.6,-19.7L92.9,-18.1L93.2,-16.4L93.5,-14.8L93.8,-13.2L94.0,-11.5L94.2,-9.9L94.3,-8.3L94.4,-6.6L94.5,-5.0L94.6,-3.3L94.7,-1.7L94.7,-0.0Z" fill="none" stroke="#f3c8fc" stroke-width="2.7" stroke-linecap="round" opacity="0.95"/>
</svg>