<svg xmlns="http://www.w3.org/2000/svg" viewBox="-250 -250 500 500">
<rect x="-250" y="-250" width="500" height="500" fill="#ebebeb"/>
<path d="M220.0,0.0L218.2,11.4L212.8,22.4L204.3,32.4L193.2,41.1L180.3,48.3L166.4,54.1L152.5,58.5L139.3,62.0L127.6,65.0L117.8,68.0L110.3,71.6L105.2,76.4L102.2,82.8L101.1,91.0L101.2,101.2L102.0,113.3L102.8,126.9L102.9,141.6L101.7,156.5L98.8,171.0L93.9,184.3L87.0,195.5L78.3,204.0L68.0,209.2L56.5,211.0L44.5,209.3L32.4,204.3L20.6,196.4L9.8,186.4L0.0,175.0L-8.5,163.1L-15.9,151.7L-22.4,141.4L-28.3,133.1L-34.0,127.1L-40.2,123.6L-47.1,122.8L-55.3,124.3L-65.0,127.6L-76.2,132.1L-89.0,137.0L-102.9,141.6L-117.5,145.1L-132.2,146.8L-146.2,146.2L-159.0,143.2L-169.8,137.5L-178.0,129.3L-183.2,119.0L-185.3,107.0L-184.3,93.9L-180.4,80.3L-174.2,66.9L-166.4,54.1L-157.8,42.3L-149.2,31.7L-141.4,22.4L-135.3,14.2L-131.4,6.9L-130.0,0.0L-131.4,-6.9L-135.3,-14.2L-141.4,-22.4L-149.2,-31.7L-157.8,-42.3L-166.4,-54.1L-174.2,-66.9L-180.4,-80.3L-184.3,-93.9L-185.3,-107.0L-183.2,-119.0L-178.0,-129.3L-169.8,-137.5L-159.0,-143.2L-146.2,-146.2L-132.2,-146.8L-117.5,-145.1L-102.9,-141.6L-89.0,-137.0L-76.3,-132.1L-65.0,-127.6L-55.3,-124.3L-47.1,-122.8L-40.2,-123.6L-34.0,-127.1L-28.3,-133.1L-22.4,-141.4L-15.9,-151.7L-8.5,-163.1L-0.0,-175.0L9.8,-186.4L20.6,-196.4L32.4,-204.3L44.5,-209.3L56.5,-211.0L68.0,-209.2L78.3,-204.0L87.0,-195.5L93.9,-184.3L98.8,-171.0L101.7,-156.5L102.9,-141.6L102.8,-126.9L102.0,-113.3L101.2,-101.2L101.1,-91.0L102.2,-82.8L105.2,-76.4L110.3,-71.6L117.8,-68.0L127.6,-65.0L139.3,-62.0L152.5,-58.5L166.4,-54.1L180.3,-48.3L193.2,-41.1L204.3,-32.4L212.8,-22.4L218.2,-11.4L220.0,-0.0Z" fill="none" stroke="#ddecff" stroke-width="2.4" stroke-linecap="round" opacity="0.95"/><path d="M210.6,0.0L214.8,11.3L215.4,22.6L212.4,33.6L206.0,43.8L196.5,52.6L184.6,60.0L171.1,65.7L156.8,69.8L142.5,72.6L129.1,74.5L117.2,76.1L107.3,78.0L99.6,80.6L94.1,84.7L90.6,90.6L88.7,98.6L88.0,108.6L87.6,120.6L87.1,134.1L85.8,148.6L83.2,163.3L78.9,177.3L72.9,189.9L65.1,200.3L55.7,207.7L45.0,211.9L33.6,212.4L22.0,209.4L10.6,203.1L0.0,194.1L-9.6,183.0L-17.9,170.7L-25.0,158.0L-31.0,145.8L-36.2,135.0L-41.0,126.1L-45.9,119.6L-51.5,115.7L-58.2,114.2L-66.3,114.9L-76.1,117.2L-87.6,120.6L-100.7,124.3L-114.8,127.5L-129.6,129.6L-144.2,129.9L-158.1,128.0L-170.4,123.8L-180.4,117.1L-187.6,108.3L-191.6,97.6L-192.4,85.6L-189.9,72.9L-184.6,60.0L-177.0,47.4L-167.9,35.7L-158.0,25.0L-148.3,15.6L-139.6,7.3L-132.6,0.0L-128.0,-6.7L-125.9,-13.2L-126.6,-20.0L-129.7,-27.6L-135.0,-36.2L-141.8,-46.1L-149.3,-57.3L-156.8,-69.8L-163.3,-83.2L-168.1,-97.1L-170.6,-110.8L-170.4,-123.8L-167.1,-135.3L-161.0,-144.9L-152.1,-152.1L-140.9,-156.5L-128.0,-158.1L-114.1,-157.0L-99.8,-153.7L-85.8,-148.6L-72.6,-142.5L-60.6,-136.2L-50.1,-130.5L-41.0,-126.1L-33.2,-123.8L-26.3,-123.8L-20.0,-126.6L-13.9,-131.9L-7.3,-139.6L-0.0,-149.1L8.4,-159.7L17.9,-170.7L28.7,-181.0L40.4,-189.9L52.6,-196.5L65.1,-200.3L77.1,-200.8L88.1,-197.9L97.6,-191.6L105.3,-182.4L110.8,-170.6L114.1,-157.0L115.3,-142.4L114.8,-127.5L113.1,-113.1L110.8,-99.8L108.6,-88.0L107.3,-78.0L107.5,-69.8L109.6,-63.3L114.2,-58.2L121.2,-53.9L130.5,-50.1L141.8,-46.1L154.5,-41.4L167.9,-35.7L181.0,-28.7L193.0,-20.3L203.1,-10.6L210.6,-0.0Z" fill="none" stroke="#f4d5ff" stroke-width="2.4" stroke-linecap="round" opacity="0.95"/>
</svg>