<svg xmlns="http://www.w3.org/2000/svg" viewBox="-250 -250 500 500">
<rect x="-250" y="-250" width="500" height="500" fill="#000000"/>
<path d="M235.0,0.0L234.0,12.3L231.2,24.3L227.2,36.0L222.5,47.3L218.0,58.4L214.0,69.5L210.7,80.9L207.8,92.5L204.9,104.4L201.4,116.2L196.5,127.6L190.1,138.1L182.1,147.5L172.8,155.6L162.6,162.6L152.2,169.1L142.0,175.4L132.3,182.0L122.9,189.3L113.8,197.0L104.4,204.9L94.6,212.4L84.0,218.8L72.6,223.5L60.6,226.3L48.3,227.4L36.0,227.2L23.8,226.3L11.8,225.4L0.0,225.0L-11.8,225.4L-23.8,226.3L-36.0,227.2L-48.3,227.4L-60.6,226.3L-72.6,223.5L-84.0,218.8L-94.6,212.4L-104.4,204.9L-113.7,197.0L-122.9,189.3L-132.3,182.0L-142.0,175.4L-152.2,169.1L-162.6,162.6L-172.8,155.6L-182.1,147.5L-190.1,138.1L-196.5,127.6L-201.4,116.2L-204.9,104.4L-207.8,92.5L-210.7,80.9L-214.0,69.5L-218.0,58.4L-222.5,47.3L-227.2,36.0L-231.2,24.3L-234.0,12.3L-235.0,0.0L-234.0,-12.3L-231.2,-24.3L-227.2,-36.0L-222.5,-47.3L-218.0,-58.4L-214.0,-69.5L-210.7,-80.9L-207.8,-92.5L-204.9,-104.4L-201.4,-116.3L-196.5,-127.6L-190.1,-138.1L-182.1,-147.5L-172.8,-155.6L-162.6,-162.6L-152.2,-169.1L-142.0,-175.4L-132.3,-182.0L-122.9,-189.3L-113.8,-197.0L-104.4,-204.9L-94.6,-212.4L-84.0,-218.8L-72.6,-223.5L-60.6,-226.3L-48.3,-227.4L-36.0,-227.2L-23.8,-226.3L-11.8,-225.4L-0.0,-225.0L11.8,-225.4L23.8,-226.3L36.0,-227.2L48.3,-227.4L60.6,-226.3L72.6,-223.5L84.0,-218.8L94.6,-212.4L104.4,-204.9L113.8,-197.0L122.9,-189.3L132.3,-182.0L142.0,-175.4L152.2,-169.1L162.6,-162.6L172.8,-155.6L182.1,-147.5L190.1,-138.1L196.5,-127.6L201.4,-116.3L204.9,-104.4L207.8,-92.5L210.7,-80.9L214.0,-69.5L218.0,-58.4L222.5,-47.3L227.2,-36.0L231.2,-24.3L234.0,-12.3L235.0,-0.0Z" fill="none" stroke="#c4cefd" stroke-width="0.8" stroke-linecap="round" opacity="0.95"/>
<path d="M219.5,0.0L221.7,11.6L223.3,23.5L223.5,35.4L222.0,47.2L218.6,58.6L213.5,69.4L207.3,79.6L200.5,89.3L193.9,98.8L187.9,108.5L182.6,118.6L177.6,129.0L172.5,139.7L166.8,150.2L160.0,160.0L151.9,168.7L142.4,175.9L132.0,181.6L120.9,186.2L109.8,190.1L98.8,193.9L88.3,198.2L78.0,203.2L67.8,208.8L57.5,214.4L46.7,219.6L35.4,223.5L23.7,225.8L11.8,226.0L0.0,224.5L-11.6,221.7L-22.9,218.3L-34.1,215.0L-45.1,212.3L-56.3,210.3L-67.8,208.8L-79.6,207.3L-91.3,205.1L-102.8,201.7L-113.5,196.6L-123.3,189.8L-132.0,181.6L-139.7,172.5L-146.9,163.1L-153.9,153.9L-161.3,145.2L-169.2,137.0L-177.6,129.0L-186.2,120.9L-194.4,112.2L-201.7,102.8L-207.4,92.3L-211.3,81.1L-213.5,69.4L-214.4,57.5L-214.7,45.6L-215.0,34.1L-215.8,22.7L-217.4,11.4L-219.5,0.0L-221.7,-11.6L-223.3,-23.5L-223.5,-35.4L-222.0,-47.2L-218.6,-58.6L-213.5,-69.4L-207.3,-79.6L-200.5,-89.3L-193.9,-98.8L-187.9,-108.5L-182.6,-118.6L-177.6,-129.0L-172.5,-139.7L-166.8,-150.2L-160.0,-160.0L-151.9,-168.7L-142.4,-175.9L-132.0,-181.6L-120.9,-186.2L-109.8,-190.1L-98.8,-193.9L-88.3,-198.2L-78.0,-203.2L-67.8,-208.8L-57.5,-214.4L-46.7,-219.6L-35.4,-223.5L-23.7,-225.8L-11.8,-226.0L-0.0,-224.5L11.6,-221.7L22.9,-218.3L34.1,-215.0L45.1,-212.3L56.3,-210.3L67.8,-208.8L79.6,-207.3L91.3,-205.1L102.8,-201.7L113.5,-196.6L123.3,-189.8L132.0,-181.6L139.7,-172.5L146.9,-163.1L153.9,-153.9L161.3,-145.2L169.2,-137.0L177.6,-129.0L186.2,-120.9L194.4,-112.3L201.7,-102.8L207.4,-92.3L211.3,-81.1L213.5,-69.4L214.4,-57.5L214.7,-45.6L215.0,-34.1L215.8,-22.7L217.4,-11.4L219.5,-0.0Z" fill="none" stroke="#fdbffe" stroke-width="0.8" stroke-linecap="round" opacity="0.95"/>
<path d="M211.5,0.0L209.4,11.0L207.9,21.8L207.1,32.8L206.9,44.0L206.7,55.4L205.9,66.9L203.8,78.2L200.1,89.1L194.5,99.1L187.5,108.2L179.5,116.6L171.1,124.3L162.9,131.9L155.3,139.8L148.3,148.3L141.5,157.2L134.7,166.3L127.3,175.2L118.9,183.1L109.5,189.7L99.1,194.5L88.1,197.8L76.7,199.8L65.4,201.1L54.3,202.5L43.5,204.4L32.8,207.1L22.1,210.3L11.2,213.7L0.0,216.5L-11.4,218.0L-22.9,217.8L-34.2,215.6L-45.0,211.8L-55.4,206.7L-65.4,201.1L-75.1,195.7L-85.0,190.9L-95.2,186.8L-105.7,183.2L-116.6,179.5L-127.3,175.2L-137.4,169.7L-146.5,162.7L-154.4,154.4L-160.9,144.9L-166.3,134.7L-171.1,124.3L-175.8,114.2L-181.0,104.5L-186.8,95.2L-193.2,86.0L-199.8,76.7L-205.9,66.9L-210.9,56.5L-214.2,45.5L-215.6,34.2L-215.3,22.6L-213.7,11.2L-211.5,0.0L-209.4,-11.0L-207.9,-21.8L-207.1,-32.8L-206.9,-44.0L-206.7,-55.4L-205.9,-66.9L-203.8,-78.2L-200.1,-89.1L-194.5,-99.1L-187.5,-108.3L-179.5,-116.6L-171.1,-124.3L-162.9,-131.9L-155.3,-139.8L-148.3,-148.3L-141.5,-157.2L-134.7,-166.3L-127.3,-175.2L-118.9,-183.1L-109.5,-189.7L-99.1,-194.5L-88.1,-197.8L-76.7,-199.8L-65.4,-201.1L-54.3,-202.5L-43.5,-204.4L-32.8,-207.1L-22.1,-210.3L-11.2,-213.7L-0.0,-216.5L11.4,-218.0L22.9,-217.8L34.2,-215.6L45.0,-211.8L55.4,-206.7L65.4,-201.1L75.1,-195.7L85.0,-190.9L95.2,-186.8L105.8,-183.2L116.6,-179.5L127.3,-175.2L137.4,-169.7L146.5,-162.7L154.4,-154.4L160.9,-144.9L166.3,-134.7L171.1,-124.3L175.8,-114.2L181.0,-104.5L186.8,-95.2L193.2,-86.0L199.8,-76.7L205.9,-66.9L210.9,-56.5L214.2,-45.5L215.6,-34.2L215.3,-22.6L213.7,-11.2L211.5,-0.0Z" fill="none" stroke="#c4cefd" stroke-width="0.8" stroke-linecap="round" opacity="0.95"/>
<path d="M211.0,0.0L210.0,11.0L207.4,21.8L203.5,32.2L199.1,42.3L194.8,52.2L191.2,62.1L188.3,72.3L185.9,82.8L183.5,93.5L180.6,104.2L176.4,114.6L170.7,124.0L163.5,132.4L154.9,139.5L145.7,145.7L136.2,151.2L126.9,156.7L118.1,162.6L109.8,169.1L101.8,176.2L93.5,183.5L84.8,190.5L75.4,196.4L65.2,200.7L54.4,203.2L43.3,203.9L32.2,203.5L21.3,202.4L10.6,201.4L0.0,201.0L-10.6,201.4L-21.3,202.4L-32.2,203.5L-43.3,203.9L-54.4,203.2L-65.2,200.7L-75.4,196.4L-84.8,190.5L-93.5,183.5L-101.7,176.2L-109.8,169.1L-118.1,162.6L-126.9,156.7L-136.2,151.2L-145.7,145.7L-154.9,139.5L-163.5,132.4L-170.7,124.0L-176.4,114.6L-180.6,104.2L-183.5,93.5L-185.9,82.8L-188.3,72.3L-191.2,62.1L-194.8,52.2L-199.1,42.3L-203.5,32.2L-207.4,21.8L-210.0,11.0L-211.0,0.0L-210.0,-11.0L-207.4,-21.8L-203.5,-32.2L-199.1,-42.3L-194.8,-52.2L-191.2,-62.1L-188.3,-72.3L-185.9,-82.8L-183.5,-93.5L-180.6,-104.3L-176.4,-114.6L-170.7,-124.0L-163.5,-132.4L-154.9,-139.5L-145.7,-145.7L-136.2,-151.2L-126.9,-156.7L-118.1,-162.6L-109.8,-169.1L-101.8,-176.2L-93.5,-183.5L-84.8,-190.5L-75.4,-196.4L-65.2,-200.7L-54.4,-203.2L-43.3,-203.9L-32.2,-203.5L-21.3,-202.4L-10.6,-201.4L-0.0,-201.0L10.6,-201.4L21.3,-202.4L32.2,-203.5L43.3,-203.9L54.4,-203.2L65.2,-200.7L75.4,-196.4L84.8,-190.5L93.5,-183.5L101.8,-176.2L109.8,-169.1L118.1,-162.6L126.9,-156.7L136.2,-151.2L145.7,-145.7L154.9,-139.5L163.5,-132.4L170.7,-124.0L176.4,-114.6L180.6,-104.3L183.5,-93.5L185.9,-82.8L188.3,-72.3L191.2,-62.1L194.8,-52.2L199.1,-42.3L203.5,-32.2L207.4,-21.8L210.0,-11.0L211.0,-0.0Z" fill="none" stroke="#fdbffe" stroke-width="0.8" stroke-linecap="round" opacity="0.95"/>
<path d="M195.5,0.0L197.7,10.4L199.4,21.0L199.8,31.7L198.6,42.2L195.4,52.4L190.7,62.0L184.8,71.0L178.6,79.5L172.6,87.9L167.1,96.5L162.4,105.5L158.2,114.9L153.9,124.6L149.0,134.2L143.1,143.1L135.8,150.9L127.3,157.2L117.9,162.2L107.8,166.1L97.8,169.3L87.9,172.6L78.5,176.3L69.4,180.8L60.4,185.9L51.2,191.3L41.7,196.1L31.7,199.8L21.2,201.9L10.6,202.1L0.0,200.5L-10.4,197.7L-20.4,194.4L-30.3,191.3L-40.1,188.8L-50.1,187.1L-60.4,185.9L-71.0,184.8L-81.6,183.2L-91.9,180.3L-101.5,175.8L-110.2,169.7L-117.9,162.2L-124.6,153.9L-130.8,145.3L-136.9,136.9L-143.4,129.1L-150.5,121.9L-158.2,114.9L-166.1,107.8L-173.6,100.2L-180.3,91.9L-185.4,82.6L-188.9,72.5L-190.7,62.0L-191.3,51.2L-191.2,40.6L-191.3,30.3L-191.9,20.2L-193.4,10.1L-195.5,0.0L-197.7,-10.4L-199.4,-21.0L-199.8,-31.7L-198.6,-42.2L-195.4,-52.4L-190.7,-62.0L-184.8,-71.0L-178.6,-79.5L-172.6,-87.9L-167.1,-96.5L-162.4,-105.5L-158.2,-114.9L-153.9,-124.6L-149.0,-134.2L-143.1,-143.1L-135.8,-150.9L-127.3,-157.2L-117.9,-162.2L-107.8,-166.1L-97.8,-169.3L-87.9,-172.6L-78.5,-176.3L-69.4,-180.8L-60.4,-185.9L-51.2,-191.3L-41.7,-196.1L-31.7,-199.8L-21.2,-201.9L-10.6,-202.1L-0.0,-200.5L10.4,-197.7L20.4,-194.4L30.3,-191.3L40.1,-188.8L50.1,-187.1L60.4,-185.9L71.0,-184.8L81.6,-183.2L91.9,-180.3L101.5,-175.8L110.2,-169.7L117.9,-162.2L124.6,-153.9L130.8,-145.3L136.9,-136.9L143.4,-129.1L150.5,-121.9L158.2,-114.9L166.1,-107.8L173.6,-100.3L180.3,-91.9L185.4,-82.6L188.9,-72.5L190.7,-62.0L191.3,-51.2L191.2,-40.6L191.3,-30.3L191.9,-20.2L193.4,-10.1L195.5,-0.0Z" fill="none" stroke="#c4cefd" stroke-width="0.8" stroke-linecap="round" opacity="0.95"/>
<path d="M187.5,0.0L185.4,9.7L184.0,19.3L183.4,29.0L183.4,39.0L183.5,49.2L183.1,59.5L181.4,69.6L178.1,79.3L173.1,88.2L166.7,96.3L159.3,103.5L151.7,110.2L144.3,116.8L137.5,123.8L131.3,131.3L125.5,139.3L119.6,147.7L113.1,155.7L105.8,163.0L97.5,168.9L88.2,173.1L78.3,175.9L68.1,177.4L57.9,178.3L48.1,179.3L38.5,181.0L29.0,183.4L19.6,186.5L9.9,189.7L0.0,192.5L-10.2,194.1L-20.4,193.9L-30.4,191.9L-40.0,188.3L-49.2,183.5L-57.9,178.3L-66.5,173.3L-75.2,169.0L-84.3,165.4L-93.7,162.4L-103.5,159.3L-113.1,155.7L-122.3,151.0L-130.5,144.9L-137.4,137.4L-143.1,128.8L-147.7,119.6L-151.7,110.2L-155.7,101.1L-160.2,92.5L-165.4,84.3L-171.3,76.3L-177.4,68.1L-183.1,59.5L-187.7,50.3L-190.7,40.5L-191.9,30.4L-191.4,20.1L-189.7,9.9L-187.5,0.0L-185.4,-9.7L-184.0,-19.3L-183.4,-29.0L-183.4,-39.0L-183.5,-49.2L-183.1,-59.5L-181.4,-69.6L-178.1,-79.3L-173.1,-88.2L-166.7,-96.3L-159.3,-103.5L-151.7,-110.2L-144.3,-116.8L-137.5,-123.8L-131.3,-131.3L-125.5,-139.3L-119.6,-147.7L-113.1,-155.7L-105.8,-163.0L-97.5,-168.9L-88.2,-173.1L-78.3,-175.9L-68.1,-177.4L-57.9,-178.3L-48.1,-179.3L-38.5,-181.0L-29.0,-183.4L-19.6,-186.5L-9.9,-189.7L-0.0,-192.5L10.2,-194.1L20.4,-193.9L30.4,-191.9L40.0,-188.3L49.2,-183.5L57.9,-178.3L66.5,-173.3L75.2,-169.0L84.3,-165.4L93.8,-162.4L103.5,-159.3L113.1,-155.7L122.3,-151.0L130.5,-144.9L137.4,-137.4L143.1,-128.8L147.7,-119.6L151.7,-110.2L155.7,-101.1L160.2,-92.5L165.4,-84.3L171.3,-76.3L177.4,-68.1L183.1,-59.5L187.7,-50.3L190.7,-40.5L191.9,-30.4L191.4,-20.1L189.7,-9.9L187.5,-0.0Z" fill="none" stroke="#fdbffe" stroke-width="0.8" stroke-linecap="round" opacity="0.95"/>
<path d="M187.0,0.0L186.1,9.8L183.5,19.3L179.8,28.5L175.6,37.3L171.6,46.0L168.3,54.7L165.9,63.7L164.0,73.0L162.2,82.6L159.8,92.2L156.3,101.5L151.3,109.9L144.8,117.3L137.1,123.5L128.7,128.7L120.1,133.4L111.8,138.1L104.0,143.2L96.8,149.0L89.8,155.5L82.6,162.2L75.0,168.5L66.8,174.0L57.8,177.8L48.2,180.0L38.4,180.5L28.5,179.8L18.8,178.5L9.3,177.4L0.0,177.0L-9.3,177.4L-18.8,178.5L-28.5,179.8L-38.4,180.5L-48.2,180.0L-57.8,177.8L-66.8,174.0L-75.0,168.5L-82.6,162.2L-89.7,155.5L-96.8,149.0L-104.0,143.2L-111.8,138.1L-120.1,133.4L-128.7,128.7L-137.1,123.5L-144.8,117.3L-151.3,109.9L-156.3,101.5L-159.8,92.2L-162.2,82.6L-164.0,73.0L-165.9,63.7L-168.3,54.7L-171.6,46.0L-175.6,37.3L-179.8,28.5L-183.5,19.3L-186.1,9.8L-187.0,0.0L-186.1,-9.8L-183.5,-19.3L-179.8,-28.5L-175.6,-37.3L-171.6,-46.0L-168.3,-54.7L-165.9,-63.7L-164.0,-73.0L-162.2,-82.6L-159.8,-92.2L-156.3,-101.5L-151.3,-109.9L-144.8,-117.3L-137.1,-123.5L-128.7,-128.7L-120.1,-133.4L-111.8,-138.1L-104.0,-143.2L-96.8,-149.0L-89.8,-155.5L-82.6,-162.2L-75.0,-168.5L-66.8,-174.0L-57.8,-177.8L-48.2,-180.0L-38.4,-180.5L-28.5,-179.8L-18.8,-178.5L-9.3,-177.4L-0.0,-177.0L9.3,-177.4L18.8,-178.5L28.5,-179.8L38.4,-180.5L48.2,-180.0L57.8,-177.8L66.8,-174.0L75.0,-168.5L82.6,-162.2L89.8,-155.5L96.8,-149.0L104.0,-143.2L111.8,-138.1L120.1,-133.4L128.7,-128.7L137.1,-123.5L144.8,-117.3L151.3,-109.9L156.3,-101.5L159.8,-92.3L162.2,-82.6L164.0,-73.0L165.9,-63.7L168.3,-54.7L171.6,-46.0L175.6,-37.3L179.8,-28.5L183.5,-19.3L186.1,-9.8L187.0,-0.0Z" fill="none" stroke="#c4cefd" stroke-width="0.8" stroke-linecap="round" opacity="0.95"/>
<path d="M171.5,0.0L173.8,9.1L175.5,18.4L176.1,27.9L175.1,37.2L172.3,46.2L167.9,54.5L162.4,62.4L156.7,69.8L151.2,77.0L146.4,84.5L142.3,92.4L138.7,100.8L135.2,109.5L131.2,118.1L126.1,126.1L119.8,133.0L112.2,138.6L103.7,142.8L94.8,145.9L85.8,148.5L77.0,151.2L68.7,154.4L60.8,158.4L53.0,163.1L45.0,168.1L36.7,172.6L27.9,176.1L18.7,178.0L9.3,178.1L0.0,176.5L-9.1,173.8L-17.9,170.6L-26.5,167.6L-35.1,165.3L-43.9,163.9L-53.0,163.1L-62.4,162.4L-71.8,161.2L-81.0,158.9L-89.5,155.0L-97.1,149.6L-103.7,142.8L-109.5,135.2L-114.8,127.4L-120.0,120.0L-125.6,113.1L-131.9,106.8L-138.7,100.8L-145.9,94.8L-152.9,88.2L-158.9,81.0L-163.5,72.8L-166.5,63.9L-167.9,54.5L-168.1,45.0L-167.8,35.7L-167.6,26.5L-168.1,17.7L-169.4,8.9L-171.5,0.0L-173.8,-9.1L-175.5,-18.4L-176.1,-27.9L-175.1,-37.2L-172.3,-46.2L-167.9,-54.5L-162.4,-62.4L-156.7,-69.8L-151.2,-77.0L-146.4,-84.5L-142.3,-92.4L-138.7,-100.8L-135.2,-109.5L-131.2,-118.1L-126.1,-126.1L-119.8,-133.0L-112.2,-138.6L-103.7,-142.8L-94.8,-145.9L-85.8,-148.5L-77.0,-151.2L-68.7,-154.4L-60.8,-158.4L-53.0,-163.1L-45.0,-168.1L-36.7,-172.6L-27.9,-176.1L-18.7,-178.0L-9.3,-178.1L-0.0,-176.5L9.1,-173.8L17.9,-170.6L26.5,-167.6L35.1,-165.3L43.9,-163.9L53.0,-163.1L62.4,-162.4L71.8,-161.2L81.0,-158.9L89.5,-155.0L97.1,-149.6L103.7,-142.8L109.5,-135.2L114.8,-127.4L120.0,-120.0L125.6,-113.1L131.9,-106.8L138.7,-100.8L145.9,-94.8L152.9,-88.3L158.9,-81.0L163.5,-72.8L166.5,-63.9L167.9,-54.5L168.1,-45.0L167.8,-35.7L167.6,-26.5L168.1,-17.7L169.4,-8.9L171.5,-0.0Z" fill="none" stroke="#fdbffe" stroke-width="0.8" stroke-linecap="round" opacity="0.95"/>
<path d="M163.5,0.0L161.4,8.5L160.1,16.8L159.7,25.3L159.9,34.0L160.3,43.0L160.3,52.1L159.0,61.0L156.2,69.6L151.8,77.3L145.9,84.3L139.2,90.4L132.3,96.1L125.6,101.7L119.6,107.7L114.3,114.3L109.4,121.5L104.5,129.0L99.0,136.3L92.8,142.9L85.5,148.1L77.3,151.8L68.5,153.9L59.5,155.0L50.5,155.5L41.8,156.2L33.5,157.5L25.3,159.7L17.1,162.6L8.7,165.8L0.0,168.5L-8.9,170.1L-17.9,170.1L-26.6,168.2L-35.0,164.8L-43.0,160.3L-50.5,155.5L-57.9,150.9L-65.5,147.1L-73.4,144.0L-81.7,141.6L-90.4,139.2L-99.0,136.3L-107.2,132.4L-114.4,127.1L-120.4,120.4L-125.2,112.7L-129.0,104.5L-132.3,96.1L-135.6,88.1L-139.4,80.5L-144.0,73.4L-149.4,66.5L-155.0,59.5L-160.3,52.1L-164.5,44.1L-167.3,35.6L-168.2,26.6L-167.6,17.6L-165.8,8.7L-163.5,0.0L-161.4,-8.5L-160.1,-16.8L-159.7,-25.3L-159.9,-34.0L-160.3,-43.0L-160.3,-52.1L-159.0,-61.0L-156.2,-69.6L-151.8,-77.3L-145.9,-84.3L-139.2,-90.4L-132.3,-96.1L-125.6,-101.7L-119.6,-107.7L-114.3,-114.3L-109.4,-121.5L-104.5,-129.0L-99.0,-136.3L-92.8,-142.9L-85.5,-148.1L-77.3,-151.8L-68.5,-153.9L-59.5,-155.0L-50.5,-155.5L-41.8,-156.2L-33.5,-157.5L-25.3,-159.7L-17.1,-162.6L-8.7,-165.8L-0.0,-168.5L8.9,-170.1L17.9,-170.1L26.6,-168.2L35.0,-164.8L43.0,-160.3L50.5,-155.5L57.9,-150.9L65.5,-147.1L73.4,-144.0L81.7,-141.6L90.4,-139.2L99.0,-136.3L107.2,-132.4L114.4,-127.1L120.4,-120.4L125.2,-112.7L129.0,-104.5L132.3,-96.1L135.6,-88.1L139.4,-80.5L144.0,-73.4L149.4,-66.5L155.0,-59.5L160.3,-52.1L164.5,-44.1L167.3,-35.6L168.2,-26.6L167.6,-17.6L165.8,-8.7L163.5,-0.0Z" fill="none" stroke="#c4cefd" stroke-width="0.8" stroke-linecap="round" opacity="0.95"/>
<path d="M163.0,0.0L162.1,8.5L159.6,16.8L156.1,24.7L152.1,32.3L148.4,39.8L145.5,47.3L143.5,55.1L142.1,63.2L140.8,71.7L139.0,80.2L136.1,88.4L131.9,95.8L126.2,102.2L119.3,107.4L111.7,111.7L104.0,115.6L96.7,119.4L89.9,123.8L83.7,128.9L77.8,134.7L71.7,140.8L65.3,146.6L58.2,151.5L50.4,155.0L42.0,156.8L33.4,157.0L24.7,156.1L16.3,154.6L8.0,153.5L0.0,153.0L-8.0,153.5L-16.3,154.6L-24.7,156.1L-33.4,157.0L-42.0,156.8L-50.4,155.0L-58.2,151.5L-65.3,146.6L-71.7,140.8L-77.7,134.7L-83.7,128.9L-89.9,123.8L-96.7,119.4L-104.0,115.6L-111.7,111.7L-119.3,107.4L-126.2,102.2L-131.9,95.8L-136.1,88.4L-139.0,80.3L-140.8,71.7L-142.1,63.2L-143.5,55.1L-145.5,47.3L-148.4,39.8L-152.1,32.3L-156.1,24.7L-159.6,16.8L-162.1,8.5L-163.0,0.0L-162.1,-8.5L-159.6,-16.8L-156.1,-24.7L-152.1,-32.3L-148.4,-39.8L-145.5,-47.3L-143.5,-55.1L-142.1,-63.2L-140.8,-71.7L-139.0,-80.3L-136.1,-88.4L-131.9,-95.8L-126.2,-102.2L-119.3,-107.4L-111.7,-111.7L-104.0,-115.6L-96.7,-119.4L-89.9,-123.8L-83.7,-128.9L-77.8,-134.7L-71.7,-140.8L-65.3,-146.6L-58.2,-151.5L-50.4,-155.0L-42.0,-156.8L-33.4,-157.0L-24.7,-156.1L-16.3,-154.6L-8.0,-153.5L-0.0,-153.0L8.0,-153.5L16.3,-154.6L24.7,-156.1L33.4,-157.0L42.0,-156.8L50.4,-155.0L58.2,-151.5L65.3,-146.6L71.7,-140.8L77.8,-134.7L83.7,-128.9L89.9,-123.8L96.7,-119.4L104.0,-115.6L111.7,-111.7L119.3,-107.4L126.2,-102.2L131.9,-95.8L136.1,-88.4L139.0,-80.3L140.8,-71.7L142.1,-63.2L143.5,-55.1L145.5,-47.3L148.4,-39.8L152.1,-32.3L156.1,-24.7L159.6,-16.8L162.1,-8.5L163.0,-0.0Z" fill="none" stroke="#fdbffe" stroke-width="0.8" stroke-linecap="round" opacity="0.95"/>
<path d="M147.5,0.0L149.8,7.9L151.7,15.9L152.4,24.1L151.6,32.2L149.1,39.9L145.0,47.1L140.0,53.8L134.7,60.0L129.8,66.1L125.6,72.5L122.2,79.3L119.3,86.7L116.6,94.4L113.3,102.0L109.1,109.1L103.7,115.2L97.1,119.9L89.6,123.4L81.7,125.8L73.8,127.7L66.1,129.8L59.0,132.5L52.2,136.0L45.6,140.3L38.8,144.9L31.7,149.2L24.1,152.4L16.2,154.2L8.1,154.1L0.0,152.5L-7.9,149.8L-15.4,146.7L-22.8,143.9L-30.1,141.8L-37.7,140.7L-45.6,140.3L-53.8,140.0L-62.0,139.3L-70.1,137.5L-77.5,134.2L-84.1,129.4L-89.6,123.4L-94.4,116.6L-98.7,109.6L-103.0,103.0L-107.8,97.0L-113.2,91.7L-119.3,86.7L-125.8,81.7L-132.1,76.2L-137.5,70.1L-141.6,63.0L-144.1,55.3L-145.0,47.1L-144.9,38.8L-144.3,30.7L-143.9,22.8L-144.2,15.2L-145.5,7.6L-147.5,0.0L-149.8,-7.9L-151.7,-15.9L-152.4,-24.1L-151.6,-32.2L-149.1,-39.9L-145.0,-47.1L-140.0,-53.8L-134.7,-60.0L-129.8,-66.1L-125.6,-72.5L-122.2,-79.3L-119.3,-86.7L-116.6,-94.4L-113.3,-102.0L-109.1,-109.1L-103.7,-115.2L-97.1,-119.9L-89.6,-123.4L-81.7,-125.8L-73.8,-127.7L-66.1,-129.8L-59.0,-132.5L-52.2,-136.0L-45.6,-140.3L-38.8,-144.9L-31.7,-149.2L-24.1,-152.4L-16.2,-154.2L-8.1,-154.1L-0.0,-152.5L7.9,-149.8L15.4,-146.7L22.8,-143.9L30.1,-141.8L37.7,-140.7L45.6,-140.3L53.8,-140.0L62.0,-139.3L70.1,-137.5L77.5,-134.2L84.1,-129.4L89.6,-123.4L94.4,-116.6L98.7,-109.6L103.0,-103.0L107.8,-97.0L113.2,-91.7L119.3,-86.7L125.8,-81.7L132.1,-76.3L137.5,-70.1L141.6,-63.0L144.1,-55.3L145.0,-47.1L144.9,-38.8L144.3,-30.7L143.9,-22.8L144.2,-15.2L145.5,-7.6L147.5,-0.0Z" fill="none" stroke="#c4cefd" stroke-width="0.8" stroke-linecap="round" opacity="0.95"/>
<path d="M139.5,0.0L137.5,7.2L136.2,14.3L136.0,21.5L136.5,29.0L137.2,36.8L137.4,44.7L136.6,52.4L134.3,59.8L130.4,66.4L125.1,72.3L119.1,77.3L112.9,82.0L107.0,86.6L101.8,91.7L97.3,97.3L93.3,103.7L89.4,110.4L84.9,116.9L79.7,122.7L73.5,127.3L66.4,130.4L58.8,132.0L50.9,132.6L43.1,132.7L35.6,133.0L28.5,134.0L21.5,136.0L14.6,138.7L7.4,141.8L0.0,144.5L-7.7,146.1L-15.4,146.2L-22.9,144.5L-30.0,141.3L-36.8,137.2L-43.1,132.7L-49.3,128.5L-55.7,125.2L-62.5,122.7L-69.7,120.8L-77.3,119.1L-84.9,116.9L-92.1,113.7L-98.4,109.2L-103.5,103.5L-107.4,96.7L-110.4,89.4L-112.9,82.0L-115.5,75.0L-118.6,68.5L-122.7,62.5L-127.4,56.7L-132.6,50.9L-137.4,44.7L-141.3,37.9L-143.8,30.6L-144.5,22.9L-143.7,15.1L-141.8,7.4L-139.5,0.0L-137.5,-7.2L-136.2,-14.3L-136.0,-21.5L-136.5,-29.0L-137.2,-36.8L-137.4,-44.7L-136.6,-52.4L-134.3,-59.8L-130.4,-66.4L-125.1,-72.3L-119.1,-77.3L-112.9,-82.0L-107.0,-86.6L-101.8,-91.7L-97.3,-97.3L-93.3,-103.7L-89.4,-110.4L-84.9,-116.9L-79.7,-122.7L-73.5,-127.3L-66.4,-130.4L-58.8,-132.0L-50.9,-132.6L-43.1,-132.7L-35.6,-133.0L-28.5,-134.0L-21.5,-136.0L-14.6,-138.7L-7.4,-141.8L-0.0,-144.5L7.7,-146.1L15.4,-146.2L22.9,-144.5L30.0,-141.3L36.8,-137.2L43.1,-132.7L49.3,-128.5L55.7,-125.2L62.5,-122.7L69.7,-120.8L77.3,-119.1L84.9,-116.9L92.1,-113.7L98.4,-109.2L103.5,-103.5L107.4,-96.7L110.4,-89.4L112.9,-82.0L115.5,-75.0L118.6,-68.5L122.7,-62.5L127.4,-56.7L132.6,-50.9L137.4,-44.7L141.3,-37.9L143.8,-30.6L144.5,-22.9L143.7,-15.1L141.8,-7.4L139.5,-0.0Z" fill="none" stroke="#fdbffe" stroke-width="0.8" stroke-linecap="round" opacity="0.95"/>
<path d="M139.0,0.0L138.1,7.2L135.8,14.3L132.4,21.0L128.6,27.3L125.3,33.6L122.7,39.9L121.1,46.5L120.1,53.5L119.4,60.8L118.2,68.2L116.0,75.3L112.5,81.7L107.5,87.1L101.4,91.3L94.8,94.8L88.0,97.7L81.6,100.8L75.8,104.4L70.6,108.8L65.8,113.9L60.8,119.4L55.5,124.7L49.6,129.1L43.0,132.2L35.8,133.6L28.4,133.5L21.0,132.4L13.7,130.8L6.8,129.5L0.0,129.0L-6.8,129.5L-13.7,130.8L-21.0,132.4L-28.4,133.5L-35.8,133.6L-43.0,132.2L-49.6,129.1L-55.5,124.7L-60.8,119.4L-65.7,113.9L-70.6,108.8L-75.8,104.4L-81.6,100.8L-88.0,97.7L-94.8,94.8L-101.4,91.3L-107.5,87.1L-112.5,81.7L-116.0,75.3L-118.2,68.2L-119.4,60.8L-120.1,53.5L-121.1,46.5L-122.7,39.9L-125.3,33.6L-128.6,27.3L-132.4,21.0L-135.8,14.3L-138.1,7.2L-139.0,0.0L-138.1,-7.2L-135.8,-14.3L-132.4,-21.0L-128.6,-27.3L-125.3,-33.6L-122.7,-39.9L-121.1,-46.5L-120.1,-53.5L-119.4,-60.8L-118.2,-68.2L-116.0,-75.3L-112.5,-81.7L-107.5,-87.1L-101.4,-91.3L-94.8,-94.8L-88.0,-97.7L-81.6,-100.8L-75.8,-104.4L-70.6,-108.8L-65.8,-113.9L-60.8,-119.4L-55.5,-124.7L-49.6,-129.1L-43.0,-132.2L-35.8,-133.6L-28.4,-133.5L-21.0,-132.4L-13.7,-130.8L-6.8,-129.5L-0.0,-129.0L6.8,-129.5L13.7,-130.8L21.0,-132.4L28.4,-133.5L35.8,-133.6L43.0,-132.2L49.6,-129.1L55.5,-124.7L60.8,-119.4L65.8,-113.9L70.6,-108.8L75.8,-104.4L81.6,-100.8L88.0,-97.7L94.8,-94.8L101.4,-91.3L107.5,-87.1L112.5,-81.7L116.0,-75.3L118.2,-68.3L119.4,-60.8L120.1,-53.5L121.1,-46.5L122.7,-39.9L125.3,-33.6L128.6,-27.3L132.4,-21.0L135.8,-14.3L138.1,-7.2L139.0,-0.0Z" fill="none" stroke="#c4cefd" stroke-width="0.8" stroke-linecap="round" opacity="0.95"/>
<path d="M123.5,0.0L125.8,6.6L127.8,13.4L128.7,20.4L128.1,27.2L125.9,33.7L122.2,39.7L117.6,45.2L112.8,50.2L108.4,55.2L104.8,60.5L102.0,66.3L99.9,72.6L97.9,79.3L95.5,86.0L92.2,92.2L87.7,97.4L82.0,101.3L75.5,104.0L68.6,105.7L61.8,107.0L55.2,108.4L49.2,110.5L43.6,113.6L38.2,117.5L32.6,121.7L26.7,125.7L20.4,128.7L13.7,130.3L6.8,130.2L0.0,128.5L-6.6,125.8L-12.9,122.8L-19.0,120.2L-25.2,118.4L-31.5,117.5L-38.2,117.5L-45.2,117.6L-52.3,117.4L-59.2,116.1L-65.5,113.4L-71.0,109.3L-75.5,104.0L-79.3,97.9L-82.6,91.8L-86.0,86.0L-89.9,81.0L-94.6,76.6L-99.9,72.6L-105.7,68.6L-111.3,64.2L-116.1,59.2L-119.7,53.3L-121.7,46.7L-122.2,39.7L-121.7,32.6L-120.8,25.7L-120.2,19.0L-120.3,12.6L-121.5,6.4L-123.5,0.0L-125.8,-6.6L-127.8,-13.4L-128.7,-20.4L-128.1,-27.2L-125.9,-33.7L-122.2,-39.7L-117.6,-45.2L-112.8,-50.2L-108.4,-55.2L-104.8,-60.5L-102.0,-66.3L-99.9,-72.6L-97.9,-79.3L-95.5,-86.0L-92.2,-92.2L-87.7,-97.4L-82.0,-101.3L-75.5,-104.0L-68.6,-105.7L-61.8,-107.0L-55.2,-108.4L-49.2,-110.5L-43.6,-113.6L-38.2,-117.5L-32.6,-121.7L-26.7,-125.7L-20.4,-128.7L-13.7,-130.3L-6.8,-130.2L-0.0,-128.5L6.6,-125.8L12.9,-122.8L19.0,-120.2L25.2,-118.4L31.5,-117.5L38.2,-117.5L45.2,-117.6L52.3,-117.4L59.2,-116.1L65.5,-113.4L71.0,-109.3L75.5,-104.0L79.3,-97.9L82.6,-91.8L86.0,-86.0L89.9,-81.0L94.6,-76.6L99.9,-72.6L105.7,-68.6L111.3,-64.3L116.1,-59.2L119.7,-53.3L121.7,-46.7L122.2,-39.7L121.7,-32.6L120.8,-25.7L120.2,-19.0L120.3,-12.6L121.5,-6.4L123.5,-0.0Z" fill="none" stroke="#fdbffe" stroke-width="0.8" stroke-linecap="round" opacity="0.95"/>
<path d="M115.5,0.0L113.5,5.9L112.4,11.8L112.3,17.8L113.0,24.0L114.0,30.5L114.6,37.2L114.2,43.8L112.4,50.0L109.0,55.5L104.4,60.3L99.0,64.3L93.4,67.9L88.3,71.5L84.0,75.6L80.4,80.4L77.3,85.8L74.3,91.7L70.8,97.5L66.6,102.6L61.5,106.5L55.5,109.0L49.0,110.1L42.3,110.2L35.7,109.8L29.4,109.8L23.5,110.5L17.8,112.3L12.1,114.9L6.2,117.8L0.0,120.5L-6.4,122.2L-12.9,122.3L-19.1,120.8L-25.1,117.9L-30.5,114.0L-35.7,109.8L-40.7,106.1L-46.0,103.2L-51.6,101.3L-57.7,100.0L-64.3,99.0L-70.8,97.5L-77.0,95.1L-82.3,91.4L-86.5,86.5L-89.5,80.6L-91.7,74.3L-93.4,67.9L-95.3,61.9L-97.9,56.5L-101.3,51.6L-105.5,47.0L-110.2,42.3L-114.6,37.2L-118.2,31.7L-120.3,25.6L-120.8,19.1L-119.8,12.6L-117.8,6.2L-115.5,0.0L-113.5,-5.9L-112.4,-11.8L-112.3,-17.8L-113.0,-24.0L-114.0,-30.5L-114.6,-37.2L-114.2,-43.8L-112.4,-50.0L-109.0,-55.5L-104.4,-60.3L-99.0,-64.3L-93.4,-67.9L-88.3,-71.5L-84.0,-75.6L-80.4,-80.4L-77.3,-85.8L-74.3,-91.7L-70.8,-97.5L-66.6,-102.6L-61.5,-106.5L-55.5,-109.0L-49.0,-110.1L-42.3,-110.2L-35.7,-109.8L-29.4,-109.8L-23.5,-110.5L-17.8,-112.3L-12.1,-114.9L-6.2,-117.8L-0.0,-120.5L6.4,-122.2L12.9,-122.3L19.1,-120.8L25.1,-117.9L30.5,-114.0L35.7,-109.8L40.7,-106.1L46.0,-103.2L51.6,-101.3L57.7,-100.0L64.3,-99.0L70.8,-97.5L77.0,-95.1L82.3,-91.4L86.5,-86.5L89.5,-80.6L91.7,-74.3L93.4,-67.9L95.3,-61.9L97.9,-56.5L101.3,-51.6L105.5,-47.0L110.2,-42.3L114.6,-37.2L118.2,-31.7L120.3,-25.6L120.8,-19.1L119.8,-12.6L117.8,-6.2L115.5,-0.0Z" fill="none" stroke="#c4cefd" stroke-width="0.8" stroke-linecap="round" opacity="0.95"/>
<path d="M115.0,0.0L114.2,6.0L111.9,11.8L108.6,17.2L105.2,22.4L102.1,27.3L99.9,32.4L98.7,37.9L98.2,43.7L98.0,49.9L97.4,56.2L95.9,62.3L93.0,67.6L88.9,72.0L83.6,75.3L77.8,77.8L71.9,79.9L66.5,82.1L61.7,84.9L57.6,88.6L53.7,93.1L49.9,98.0L45.8,102.8L41.0,106.7L35.5,109.4L29.6,110.4L23.4,110.0L17.2,108.6L11.2,106.9L5.5,105.5L0.0,105.0L-5.5,105.5L-11.2,106.9L-17.2,108.6L-23.4,110.0L-29.6,110.4L-35.5,109.4L-41.0,106.7L-45.8,102.8L-49.9,98.0L-53.8,93.1L-57.6,88.6L-61.7,84.9L-66.5,82.1L-71.9,79.9L-77.8,77.8L-83.6,75.3L-88.9,72.0L-93.0,67.6L-95.9,62.3L-97.4,56.3L-98.0,49.9L-98.2,43.7L-98.7,37.9L-99.9,32.4L-102.1,27.3L-105.2,22.4L-108.6,17.2L-111.9,11.8L-114.2,6.0L-115.0,0.0L-114.2,-6.0L-111.9,-11.8L-108.6,-17.2L-105.2,-22.4L-102.1,-27.3L-99.9,-32.4L-98.7,-37.9L-98.2,-43.7L-98.0,-49.9L-97.4,-56.2L-95.9,-62.3L-93.0,-67.6L-88.9,-72.0L-83.6,-75.3L-77.8,-77.8L-71.9,-79.9L-66.5,-82.1L-61.7,-84.9L-57.6,-88.6L-53.8,-93.1L-49.9,-98.0L-45.8,-102.8L-41.0,-106.7L-35.5,-109.4L-29.6,-110.4L-23.4,-110.0L-17.2,-108.6L-11.2,-106.9L-5.5,-105.5L-0.0,-105.0L5.5,-105.5L11.2,-106.9L17.2,-108.6L23.4,-110.0L29.6,-110.4L35.5,-109.4L41.0,-106.7L45.8,-102.8L49.9,-98.0L53.8,-93.1L57.6,-88.6L61.7,-84.9L66.5,-82.1L71.9,-79.9L77.8,-77.8L83.6,-75.3L88.9,-72.0L93.0,-67.6L95.9,-62.3L97.4,-56.3L98.0,-49.9L98.2,-43.7L98.7,-37.9L99.9,-32.4L102.1,-27.3L105.2,-22.4L108.6,-17.2L111.9,-11.8L114.2,-6.0L115.0,-0.0Z" fill="none" stroke="#fdbffe" stroke-width="0.8" stroke-linecap="round" opacity="0.95"/>
<path d="M99.5,0.0L101.9,5.3L103.9,10.9L105.0,16.6L104.7,22.2L102.7,27.5L99.4,32.3L95.2,36.6L90.9,40.5L87.0,44.3L84.0,48.5L81.9,53.2L80.5,58.5L79.3,64.2L77.7,69.9L75.2,75.2L71.6,79.5L66.9,82.6L61.4,84.5L55.6,85.5L49.8,86.2L44.3,87.0L39.5,88.6L35.0,91.2L30.7,94.6L26.4,98.5L21.7,102.2L16.6,105.0L11.2,106.4L5.6,106.2L0.0,104.5L-5.3,101.9L-10.4,99.0L-15.3,96.5L-20.2,94.9L-25.3,94.3L-30.7,94.6L-36.6,95.2L-42.5,95.5L-48.3,94.7L-53.5,92.7L-57.9,89.2L-61.4,84.5L-64.2,79.3L-66.6,73.9L-69.1,69.1L-72.1,64.9L-75.9,61.5L-80.5,58.5L-85.5,55.6L-90.5,52.2L-94.7,48.3L-97.7,43.5L-99.3,38.1L-99.4,32.3L-98.5,26.4L-97.3,20.7L-96.5,15.3L-96.5,10.1L-97.5,5.1L-99.5,0.0L-101.9,-5.3L-103.9,-10.9L-105.0,-16.6L-104.7,-22.2L-102.7,-27.5L-99.4,-32.3L-95.2,-36.6L-90.9,-40.5L-87.0,-44.3L-84.0,-48.5L-81.9,-53.2L-80.5,-58.5L-79.3,-64.2L-77.7,-69.9L-75.2,-75.2L-71.6,-79.5L-66.9,-82.6L-61.4,-84.5L-55.6,-85.5L-49.8,-86.2L-44.3,-87.0L-39.5,-88.6L-35.0,-91.2L-30.7,-94.6L-26.4,-98.5L-21.7,-102.2L-16.6,-105.0L-11.2,-106.4L-5.6,-106.2L-0.0,-104.5L5.3,-101.9L10.4,-99.0L15.3,-96.5L20.2,-94.9L25.3,-94.3L30.7,-94.6L36.6,-95.2L42.5,-95.5L48.3,-94.7L53.5,-92.7L57.9,-89.2L61.4,-84.5L64.2,-79.3L66.6,-73.9L69.1,-69.1L72.1,-64.9L75.9,-61.5L80.5,-58.5L85.5,-55.6L90.5,-52.3L94.7,-48.3L97.7,-43.5L99.3,-38.1L99.4,-32.3L98.5,-26.4L97.3,-20.7L96.5,-15.3L96.5,-10.1L97.5,-5.1L99.5,-0.0Z" fill="none" stroke="#c4cefd" stroke-width="0.8" stroke-linecap="round" opacity="0.95"/>
<path d="M91.5,0.0L89.5,4.7L88.5,9.3L88.6,14.0L89.5,19.0L90.8,24.3L91.8,29.8L91.8,35.2L90.4,40.3L87.6,44.6L83.6,48.3L78.8,51.2L74.0,53.8L69.7,56.4L66.1,59.6L63.4,63.4L61.2,68.0L59.2,73.1L56.7,78.1L53.6,82.5L49.5,85.7L44.6,87.6L39.3,88.2L33.7,87.8L28.3,87.0L23.2,86.6L18.5,87.1L14.0,88.6L9.6,91.0L4.9,93.9L0.0,96.5L-5.1,98.2L-10.3,98.5L-15.4,97.1L-20.1,94.4L-24.3,90.8L-28.3,87.0L-32.1,83.7L-36.2,81.3L-40.7,79.9L-45.7,79.2L-51.2,78.8L-56.7,78.1L-61.9,76.4L-66.2,73.6L-69.5,69.5L-71.7,64.6L-73.1,59.2L-74.0,53.8L-75.2,48.8L-77.1,44.5L-79.9,40.7L-83.6,37.2L-87.8,33.7L-91.8,29.8L-95.0,25.4L-96.8,20.6L-97.1,15.4L-96.0,10.1L-93.9,4.9L-91.5,0.0L-89.5,-4.7L-88.5,-9.3L-88.6,-14.0L-89.5,-19.0L-90.8,-24.3L-91.8,-29.8L-91.8,-35.2L-90.4,-40.3L-87.6,-44.6L-83.6,-48.3L-78.8,-51.2L-74.0,-53.8L-69.7,-56.4L-66.1,-59.6L-63.4,-63.4L-61.2,-68.0L-59.2,-73.1L-56.7,-78.1L-53.6,-82.5L-49.5,-85.7L-44.6,-87.6L-39.3,-88.2L-33.7,-87.8L-28.3,-87.0L-23.2,-86.6L-18.5,-87.1L-14.0,-88.6L-9.6,-91.0L-4.9,-93.9L-0.0,-96.5L5.1,-98.2L10.3,-98.5L15.4,-97.1L20.1,-94.4L24.3,-90.8L28.3,-87.0L32.1,-83.7L36.2,-81.3L40.7,-79.9L45.7,-79.2L51.2,-78.8L56.7,-78.1L61.9,-76.4L66.2,-73.6L69.5,-69.5L71.7,-64.6L73.1,-59.2L74.0,-53.8L75.2,-48.8L77.1,-44.5L79.9,-40.7L83.6,-37.2L87.8,-33.7L91.8,-29.8L95.0,-25.4L96.8,-20.6L97.1,-15.4L96.0,-10.1L93.9,-4.9L91.5,-0.0Z" fill="none" stroke="#fdbffe" stroke-width="0.8" stroke-linecap="round" opacity="0.95"/>
<path d="M91.0,0.0L90.2,4.7L88.0,9.3L84.9,13.5L81.7,17.4L78.9,21.1L77.0,25.0L76.2,29.3L76.3,34.0L76.6,39.0L76.6,44.2L75.8,49.2L73.6,53.5L70.2,56.8L65.8,59.2L60.8,60.8L55.9,62.1L51.4,63.5L47.6,65.5L44.5,68.5L41.7,72.3L39.0,76.6L36.0,80.8L32.4,84.3L28.1,86.5L23.4,87.3L18.4,86.6L13.5,84.9L8.7,83.0L4.3,81.6L0.0,81.0L-4.3,81.6L-8.7,83.0L-13.5,84.9L-18.4,86.6L-23.4,87.3L-28.1,86.5L-32.4,84.3L-36.0,80.8L-39.0,76.6L-41.7,72.3L-44.5,68.5L-47.6,65.5L-51.4,63.5L-55.9,62.1L-60.8,60.8L-65.8,59.2L-70.2,56.8L-73.6,53.5L-75.8,49.2L-76.6,44.3L-76.6,39.0L-76.3,34.0L-76.2,29.3L-77.0,25.0L-78.9,21.1L-81.7,17.4L-84.9,13.5L-88.0,9.3L-90.2,4.7L-91.0,0.0L-90.2,-4.7L-88.0,-9.3L-84.9,-13.5L-81.7,-17.4L-78.9,-21.1L-77.0,-25.0L-76.2,-29.3L-76.3,-34.0L-76.6,-39.0L-76.6,-44.2L-75.8,-49.2L-73.6,-53.5L-70.2,-56.8L-65.8,-59.2L-60.8,-60.8L-55.9,-62.1L-51.4,-63.5L-47.6,-65.5L-44.5,-68.5L-41.8,-72.3L-39.0,-76.6L-36.0,-80.8L-32.4,-84.3L-28.1,-86.5L-23.4,-87.3L-18.4,-86.6L-13.5,-84.9L-8.7,-83.0L-4.3,-81.6L-0.0,-81.0L4.3,-81.6L8.7,-83.0L13.5,-84.9L18.4,-86.6L23.4,-87.3L28.1,-86.5L32.4,-84.3L36.0,-80.8L39.0,-76.6L41.8,-72.3L44.5,-68.5L47.6,-65.5L51.4,-63.5L55.9,-62.1L60.8,-60.8L65.8,-59.2L70.2,-56.8L73.6,-53.5L75.8,-49.2L76.6,-44.3L76.6,-39.0L76.3,-34.0L76.2,-29.3L77.0,-25.0L78.9,-21.1L81.7,-17.4L84.9,-13.5L88.0,-9.3L90.2,-4.7L91.0,-0.0Z" fill="none" stroke="#c4cefd" stroke-width="0.8" stroke-linecap="round" opacity="0.95"/>
<path d="M75.5,0.0L77.9,4.1L80.1,8.4L81.3,12.9L81.2,17.3L79.5,21.3L76.6,24.9L72.8,28.0L69.0,30.7L65.6,33.4L63.2,36.5L61.8,40.1L61.1,44.4L60.6,49.1L59.8,53.9L58.2,58.2L55.5,61.7L51.8,64.0L47.3,65.1L42.5,65.4L37.8,65.4L33.4,65.6L29.7,66.7L26.4,68.8L23.3,71.8L20.2,75.3L16.7,78.7L12.9,81.3L8.7,82.5L4.3,82.2L0.0,80.5L-4.1,77.9L-7.9,75.1L-11.5,72.8L-15.2,71.4L-19.1,71.2L-23.3,71.8L-28.0,72.8L-32.7,73.5L-37.4,73.4L-41.5,71.9L-44.8,69.0L-47.3,65.1L-49.1,60.6L-50.5,56.1L-52.1,52.1L-54.2,48.8L-57.3,46.4L-61.1,44.4L-65.4,42.5L-69.7,40.2L-73.4,37.4L-75.8,33.8L-76.9,29.5L-76.6,24.9L-75.3,20.2L-73.9,15.7L-72.8,11.5L-72.6,7.6L-73.6,3.9L-75.5,0.0L-77.9,-4.1L-80.1,-8.4L-81.3,-12.9L-81.2,-17.3L-79.5,-21.3L-76.6,-24.9L-72.8,-28.0L-69.0,-30.7L-65.6,-33.4L-63.2,-36.5L-61.8,-40.1L-61.1,-44.4L-60.6,-49.1L-59.8,-53.9L-58.2,-58.2L-55.5,-61.7L-51.8,-64.0L-47.3,-65.1L-42.5,-65.4L-37.8,-65.4L-33.4,-65.6L-29.7,-66.7L-26.4,-68.8L-23.3,-71.8L-20.2,-75.3L-16.7,-78.7L-12.9,-81.3L-8.7,-82.5L-4.3,-82.2L-0.0,-80.5L4.1,-77.9L7.9,-75.1L11.5,-72.8L15.2,-71.4L19.1,-71.2L23.3,-71.8L28.0,-72.8L32.7,-73.5L37.4,-73.4L41.5,-71.9L44.8,-69.0L47.3,-65.1L49.1,-60.6L50.5,-56.1L52.1,-52.1L54.2,-48.8L57.3,-46.4L61.1,-44.4L65.4,-42.5L69.7,-40.3L73.4,-37.4L75.8,-33.8L76.9,-29.5L76.6,-24.9L75.3,-20.2L73.9,-15.7L72.8,-11.5L72.6,-7.6L73.6,-3.9L75.5,-0.0Z" fill="none" stroke="#fdbffe" stroke-width="0.8" stroke-linecap="round" opacity="0.95"/>
</svg>