<svg xmlns="http://www.w3.org/2000/svg" viewBox="-250 -250 500 500">
<rect x="-250" y="-250" width="500" height="500" fill="#0a1a28"/>
<path d="M199.0,0.0L198.2,10.4L195.8,20.6L192.0,30.4L186.9,39.7L180.6,48.4L173.5,56.4L165.7,63.6L157.6,70.2L149.3,76.1L141.2,81.5L133.3,86.6L125.9,91.4L119.0,96.3L112.6,101.4L106.8,106.8L101.4,112.6L96.3,119.0L91.4,125.9L86.6,133.3L81.5,141.2L76.1,149.3L70.2,157.6L63.6,165.7L56.4,173.5L48.4,180.6L39.7,186.9L30.4,192.0L20.6,195.8L10.4,198.2L0.0,199.0L-10.4,198.2L-20.6,195.8L-30.4,192.0L-39.7,186.9L-48.4,180.6L-56.4,173.5L-63.6,165.7L-70.2,157.6L-76.1,149.3L-81.5,141.2L-86.6,133.3L-91.4,125.9L-96.3,119.0L-101.4,112.6L-106.8,106.8L-112.6,101.4L-119.0,96.3L-125.9,91.4L-133.3,86.6L-141.2,81.5L-149.3,76.1L-157.6,70.2L-165.7,63.6L-173.5,56.4L-180.6,48.4L-186.9,39.7L-192.0,30.4L-195.8,20.6L-198.2,10.4L-199.0,0.0L-198.2,-10.4L-195.8,-20.6L-192.0,-30.4L-186.9,-39.7L-180.6,-48.4L-173.5,-56.4L-165.7,-63.6L-157.6,-70.2L-149.3,-76.1L-141.2,-81.5L-133.3,-86.6L-125.9,-91.4L-119.0,-96.3L-112.6,-101.4L-106.8,-106.8L-101.4,-112.6L-96.3,-119.0L-91.4,-125.9L-86.6,-133.3L-81.5,-141.2L-76.1,-149.3L-70.2,-157.6L-63.6,-165.7L-56.4,-173.5L-48.4,-180.6L-39.7,-186.9L-30.4,-192.0L-20.6,-195.8L-10.4,-198.2L-0.0,-199.0L10.4,-198.2L20.6,-195.8L30.4,-192.0L39.7,-186.9L48.4,-180.6L56.4,-173.5L63.6,-165.7L70.2,-157.6L76.1,-149.3L81.5,-141.2L86.6,-133.3L91.4,-125.9L96.3,-119.0L101.4,-112.6L106.8,-106.8L112.6,-101.4L119.0,-96.3L125.9,-91.4L133.3,-86.6L141.2,-81.5L149.3,-76.1L157.6,-70.2L165.7,-63.6L173.5,-56.4L180.6,-48.4L186.9,-39.7L192.0,-30.4L195.8,-20.6L198.2,-10.4L199.0,-0.0Z" fill="none" stroke="#ddecff" stroke-width="2.4" stroke-linecap="round" opacity="0.95"/><path d="M177.9,0.0L182.4,9.6L186.0,19.5L188.4,29.8L189.5,40.3L189.1,50.7L187.1,60.8L183.7,70.5L178.8,79.6L172.6,87.9L165.2,95.4L156.8,101.9L147.8,107.4L138.2,111.9L128.5,115.7L118.7,118.7L109.2,121.2L99.9,123.4L91.1,125.4L82.8,127.6L75.0,130.0L67.7,132.8L60.6,136.1L53.8,140.1L47.0,144.7L40.1,149.8L33.0,155.3L25.5,161.1L17.6,167.0L9.0,172.7L0.0,177.9L-9.6,182.4L-19.5,186.0L-29.8,188.4L-40.3,189.5L-50.7,189.1L-60.8,187.1L-70.5,183.7L-79.6,178.8L-87.9,172.6L-95.4,165.2L-101.9,156.8L-107.4,147.8L-111.9,138.2L-115.7,128.5L-118.7,118.7L-121.2,109.2L-123.4,99.9L-125.4,91.1L-127.6,82.8L-130.0,75.0L-132.8,67.7L-136.1,60.6L-140.1,53.8L-144.7,47.0L-149.8,40.1L-155.3,33.0L-161.1,25.5L-167.0,17.6L-172.7,9.0L-177.9,0.0L-182.4,-9.6L-186.0,-19.5L-188.4,-29.8L-189.5,-40.3L-189.1,-50.7L-187.1,-60.8L-183.7,-70.5L-178.8,-79.6L-172.6,-87.9L-165.2,-95.4L-156.8,-101.9L-147.8,-107.4L-138.2,-111.9L-128.5,-115.7L-118.7,-118.7L-109.2,-121.2L-99.9,-123.4L-91.1,-125.4L-82.8,-127.6L-75.0,-130.0L-67.7,-132.8L-60.6,-136.1L-53.8,-140.1L-47.0,-144.7L-40.1,-149.8L-33.0,-155.3L-25.5,-161.1L-17.6,-167.0L-9.0,-172.7L-0.0,-177.9L9.6,-182.4L19.5,-186.0L29.8,-188.4L40.3,-189.5L50.7,-189.1L60.8,-187.1L70.5,-183.7L79.6,-178.8L87.9,-172.6L95.4,-165.2L101.9,-156.8L107.4,-147.8L111.9,-138.2L115.7,-128.5L118.7,-118.7L121.2,-109.2L123.4,-99.9L125.4,-91.1L127.6,-82.8L130.0,-75.0L132.8,-67.7L136.1,-60.6L140.1,-53.8L144.7,-47.0L149.8,-40.1L155.3,-33.0L161.1,-25.5L167.0,-17.6L172.7,-9.0L177.9,-0.0Z" fill="none" stroke="#ddfbf1" stroke-width="2.4" stroke-linecap="round" opacity="0.95"/><path d="M148.9,0.0L151.2,7.9L153.9,16.2L156.8,24.8L159.8,34.0L162.6,43.6L164.8,53.6L166.4,63.9L167.0,74.4L166.5,84.8L164.7,95.1L161.6,105.0L157.2,114.2L151.4,122.6L144.4,130.0L136.3,136.3L127.3,141.4L117.6,145.2L107.4,147.9L97.1,149.5L86.7,150.1L76.4,149.9L66.5,149.3L56.9,148.3L47.8,147.2L39.2,146.2L31.0,145.6L23.0,145.5L15.3,146.0L7.7,147.1L0.0,148.9L-7.9,151.2L-16.2,153.9L-24.8,156.8L-34.0,159.8L-43.6,162.6L-53.6,164.8L-63.9,166.4L-74.4,167.0L-84.8,166.5L-95.1,164.7L-105.0,161.6L-114.2,157.2L-122.6,151.4L-130.0,144.4L-136.3,136.3L-141.4,127.3L-145.2,117.6L-147.9,107.4L-149.5,97.1L-150.1,86.7L-149.9,76.4L-149.3,66.5L-148.3,56.9L-147.2,47.8L-146.2,39.2L-145.6,31.0L-145.5,23.0L-146.0,15.3L-147.1,7.7L-148.9,0.0L-151.2,-7.9L-153.9,-16.2L-156.8,-24.8L-159.8,-34.0L-162.6,-43.6L-164.8,-53.6L-166.4,-63.9L-167.0,-74.4L-166.5,-84.8L-164.7,-95.1L-161.6,-105.0L-157.2,-114.2L-151.4,-122.6L-144.4,-130.0L-136.3,-136.3L-127.3,-141.4L-117.6,-145.2L-107.4,-147.9L-97.1,-149.5L-86.7,-150.1L-76.4,-149.9L-66.5,-149.3L-56.9,-148.3L-47.8,-147.2L-39.2,-146.2L-31.0,-145.6L-23.0,-145.5L-15.3,-146.0L-7.7,-147.1L-0.0,-148.9L7.9,-151.2L16.2,-153.9L24.8,-156.8L34.0,-159.8L43.6,-162.6L53.6,-164.8L63.9,-166.4L74.4,-167.0L84.8,-166.5L95.1,-164.7L105.0,-161.6L114.2,-157.2L122.6,-151.4L130.0,-144.4L136.3,-136.3L141.4,-127.3L145.2,-117.6L147.9,-107.4L149.5,-97.1L150.1,-86.7L149.9,-76.4L149.3,-66.5L148.3,-56.9L147.2,-47.8L146.2,-39.2L145.6,-31.0L145.5,-23.0L146.0,-15.3L147.1,-7.7L148.9,-0.0Z" fill="none" stroke="#ddecff" stroke-width="2.4" stroke-linecap="round" opacity="0.95"/><path d="M154.6,0.0L150.7,7.9L147.1,15.5L144.1,22.8L141.7,30.1L139.9,37.5L138.7,45.1L138.1,53.0L137.8,61.4L137.7,70.2L137.6,79.5L137.3,89.2L136.5,99.2L135.0,109.3L132.6,119.4L129.3,129.3L124.8,138.6L119.2,147.3L112.6,154.9L104.9,161.5L96.3,166.8L87.0,170.7L77.1,173.1L66.8,174.1L56.5,173.9L46.2,172.4L36.1,169.9L26.4,166.6L17.1,162.8L8.3,158.7L0.0,154.6L-7.9,150.7L-15.5,147.1L-22.8,144.1L-30.1,141.7L-37.5,139.9L-45.1,138.7L-53.0,138.1L-61.4,137.8L-70.2,137.7L-79.5,137.6L-89.2,137.3L-99.2,136.5L-109.3,135.0L-119.4,132.6L-129.3,129.3L-138.6,124.8L-147.3,119.2L-154.9,112.6L-161.5,104.9L-166.8,96.3L-170.7,87.0L-173.1,77.1L-174.1,66.8L-173.9,56.5L-172.4,46.2L-169.9,36.1L-166.6,26.4L-162.8,17.1L-158.7,8.3L-154.6,0.0L-150.7,-7.9L-147.1,-15.5L-144.1,-22.8L-141.7,-30.1L-139.9,-37.5L-138.7,-45.1L-138.1,-53.0L-137.8,-61.4L-137.7,-70.2L-137.6,-79.5L-137.3,-89.2L-136.5,-99.2L-135.0,-109.3L-132.6,-119.4L-129.3,-129.3L-124.8,-138.6L-119.2,-147.3L-112.6,-154.9L-104.9,-161.5L-96.3,-166.8L-87.0,-170.7L-77.1,-173.1L-66.8,-174.1L-56.5,-173.9L-46.2,-172.4L-36.1,-169.9L-26.4,-166.6L-17.1,-162.8L-8.3,-158.7L-0.0,-154.6L7.9,-150.7L15.5,-147.1L22.8,-144.1L30.1,-141.7L37.5,-139.9L45.1,-138.7L53.0,-138.1L61.4,-137.8L70.2,-137.7L79.5,-137.6L89.2,-137.3L99.2,-136.5L109.3,-135.0L119.4,-132.6L129.3,-129.3L138.6,-124.8L147.3,-119.2L154.9,-112.6L161.5,-104.9L166.8,-96.3L170.7,-87.0L173.1,-77.1L174.1,-66.8L173.9,-56.5L172.4,-46.2L169.9,-36.1L166.6,-26.4L162.8,-17.1L158.7,-8.3L154.6,-0.0Z" fill="none" stroke="#ddfbf1" stroke-width="2.4" stroke-linecap="round" opacity="0.95"/><path d="M182.7,0.0L178.4,9.3L173.1,18.2L167.0,26.5L160.5,34.1L153.8,41.2L147.0,47.8L140.5,53.9L134.5,59.9L128.9,65.7L123.9,71.6L119.6,77.7L115.8,84.1L112.4,91.0L109.4,98.5L106.4,106.4L103.4,114.9L100.2,123.7L96.5,132.8L92.1,141.8L87.0,150.7L81.1,159.1L74.3,166.9L66.7,173.7L58.3,179.3L49.2,183.6L39.6,186.4L29.7,187.7L19.7,187.5L9.7,185.8L0.0,182.7L-9.3,178.4L-18.2,173.1L-26.5,167.0L-34.1,160.5L-41.2,153.8L-47.8,147.0L-53.9,140.5L-59.9,134.5L-65.7,128.9L-71.6,123.9L-77.7,119.6L-84.1,115.8L-91.0,112.4L-98.5,109.4L-106.4,106.4L-114.9,103.4L-123.7,100.2L-132.8,96.5L-141.8,92.1L-150.7,87.0L-159.1,81.1L-166.9,74.3L-173.7,66.7L-179.3,58.3L-183.6,49.2L-186.4,39.6L-187.7,29.7L-187.5,19.7L-185.8,9.7L-182.7,0.0L-178.4,-9.3L-173.1,-18.2L-167.0,-26.5L-160.5,-34.1L-153.8,-41.2L-147.0,-47.8L-140.5,-53.9L-134.5,-59.9L-128.9,-65.7L-123.9,-71.6L-119.6,-77.7L-115.8,-84.1L-112.4,-91.0L-109.4,-98.5L-106.4,-106.4L-103.4,-114.9L-100.2,-123.7L-96.5,-132.8L-92.1,-141.8L-87.0,-150.7L-81.1,-159.1L-74.3,-166.9L-66.7,-173.7L-58.3,-179.3L-49.2,-183.6L-39.6,-186.4L-29.7,-187.7L-19.7,-187.5L-9.7,-185.8L-0.0,-182.7L9.3,-178.4L18.2,-173.1L26.5,-167.0L34.1,-160.5L41.2,-153.8L47.8,-147.0L53.9,-140.5L59.9,-134.5L65.7,-128.9L71.6,-123.9L77.7,-119.6L84.1,-115.8L91.0,-112.4L98.5,-109.4L106.4,-106.4L114.9,-103.4L123.7,-100.2L132.8,-96.5L141.8,-92.1L150.7,-87.0L159.1,-81.1L166.9,-74.3L173.7,-66.7L179.3,-58.3L183.6,-49.2L186.4,-39.6L187.7,-29.7L187.5,-19.7L185.8,-9.7L182.7,-0.0Z" fill="none" stroke="#ddecff" stroke-width="2.4" stroke-linecap="round" opacity="0.95"/><path d="M185.3,0.0L187.1,9.8L187.3,19.7L186.0,29.5L183.2,38.9L179.0,48.0L173.4,56.3L166.7,64.0L159.2,70.9L151.0,76.9L142.5,82.2L133.8,86.9L125.2,91.0L116.9,94.6L109.0,98.1L101.6,101.6L94.8,105.3L88.5,109.3L82.7,113.8L77.2,118.8L71.9,124.5L66.6,130.7L61.2,137.4L55.5,144.5L49.3,151.7L42.6,158.9L35.2,165.8L27.3,172.1L18.7,177.6L9.5,182.1L0.0,185.3L-9.8,187.1L-19.7,187.3L-29.5,186.0L-38.9,183.2L-48.0,179.0L-56.3,173.4L-64.0,166.7L-70.9,159.2L-76.9,151.0L-82.2,142.5L-86.9,133.8L-91.0,125.2L-94.6,116.9L-98.1,109.0L-101.6,101.6L-105.3,94.8L-109.3,88.5L-113.8,82.7L-118.8,77.2L-124.5,71.9L-130.7,66.6L-137.4,61.2L-144.5,55.5L-151.7,49.3L-158.9,42.6L-165.8,35.2L-172.1,27.3L-177.6,18.7L-182.1,9.5L-185.3,0.0L-187.1,-9.8L-187.3,-19.7L-186.0,-29.5L-183.2,-38.9L-179.0,-48.0L-173.4,-56.3L-166.7,-64.0L-159.2,-70.9L-151.0,-76.9L-142.5,-82.3L-133.8,-86.9L-125.2,-91.0L-116.9,-94.6L-109.0,-98.1L-101.6,-101.6L-94.8,-105.3L-88.5,-109.3L-82.7,-113.8L-77.2,-118.8L-71.9,-124.5L-66.6,-130.7L-61.2,-137.4L-55.5,-144.5L-49.3,-151.7L-42.6,-158.9L-35.2,-165.8L-27.3,-172.1L-18.7,-177.6L-9.5,-182.1L-0.0,-185.3L9.8,-187.1L19.7,-187.3L29.5,-186.0L38.9,-183.2L48.0,-179.0L56.3,-173.4L64.0,-166.7L70.9,-159.2L76.9,-151.0L82.3,-142.5L86.9,-133.8L91.0,-125.2L94.6,-116.9L98.1,-109.0L101.6,-101.6L105.3,-94.8L109.3,-88.5L113.8,-82.7L118.8,-77.2L124.5,-71.9L130.7,-66.6L137.4,-61.2L144.5,-55.5L151.7,-49.3L158.9,-42.6L165.8,-35.2L172.1,-27.3L177.6,-18.7L182.1,-9.5L185.3,-0.0Z" fill="none" stroke="#ddfbf1" stroke-width="2.4" stroke-linecap="round" opacity="0.95"/><path d="M155.0,0.0L159.7,8.4L164.0,17.2L167.7,26.6L170.6,36.3L172.4,46.2L172.9,56.2L172.1,66.1L169.8,75.6L166.1,84.6L161.0,92.9L154.6,100.4L147.1,106.9L138.7,112.3L129.6,116.7L120.1,120.1L110.3,122.6L100.6,124.3L91.1,125.4L81.9,126.1L73.2,126.7L64.9,127.4L57.1,128.3L49.8,129.7L42.8,131.6L36.0,134.2L29.2,137.4L22.4,141.2L15.3,145.5L7.9,150.2L0.0,155.0L-8.4,159.7L-17.2,164.0L-26.6,167.7L-36.3,170.6L-46.2,172.4L-56.2,172.9L-66.1,172.1L-75.6,169.8L-84.6,166.1L-92.9,161.0L-100.4,154.6L-106.9,147.1L-112.3,138.7L-116.7,129.6L-120.1,120.1L-122.6,110.3L-124.3,100.6L-125.4,91.1L-126.1,81.9L-126.7,73.2L-127.4,64.9L-128.3,57.1L-129.7,49.8L-131.6,42.8L-134.2,36.0L-137.4,29.2L-141.2,22.4L-145.5,15.3L-150.2,7.9L-155.0,0.0L-159.7,-8.4L-164.0,-17.2L-167.7,-26.6L-170.6,-36.3L-172.4,-46.2L-172.9,-56.2L-172.1,-66.1L-169.8,-75.6L-166.1,-84.6L-161.0,-92.9L-154.6,-100.4L-147.1,-106.9L-138.7,-112.3L-129.6,-116.7L-120.1,-120.1L-110.3,-122.6L-100.6,-124.3L-91.1,-125.4L-81.9,-126.1L-73.2,-126.7L-64.9,-127.4L-57.1,-128.3L-49.8,-129.7L-42.8,-131.6L-36.0,-134.2L-29.2,-137.4L-22.4,-141.2L-15.3,-145.5L-7.9,-150.2L-0.0,-155.0L8.4,-159.7L17.2,-164.0L26.6,-167.7L36.3,-170.6L46.2,-172.4L56.2,-172.9L66.1,-172.1L75.6,-169.8L84.6,-166.1L92.9,-161.0L100.4,-154.6L106.9,-147.1L112.3,-138.7L116.7,-129.6L120.1,-120.1L122.6,-110.3L124.3,-100.6L125.4,-91.1L126.1,-81.9L126.7,-73.2L127.4,-64.9L128.3,-57.1L129.7,-49.8L131.6,-42.8L134.2,-36.0L137.4,-29.2L141.2,-22.4L145.5,-15.3L150.2,-7.9L155.0,-0.0Z" fill="none" stroke="#ddecff" stroke-width="2.4" stroke-linecap="round" opacity="0.95"/><path d="M136.4,0.0L136.2,7.1L136.7,14.4L137.8,21.8L139.4,29.6L141.2,37.8L143.2,46.5L145.0,55.7L146.4,65.2L147.3,75.0L147.3,85.0L146.3,95.0L144.1,104.7L140.7,114.0L136.1,122.5L130.2,130.2L123.2,136.9L115.2,142.3L106.4,146.5L97.0,149.4L87.2,151.0L77.2,151.5L67.2,151.0L57.4,149.7L48.0,147.7L39.0,145.4L30.4,143.0L22.3,140.7L14.6,138.8L7.2,137.3L0.0,136.4L-7.1,136.2L-14.4,136.7L-21.8,137.8L-29.6,139.4L-37.8,141.2L-46.5,143.2L-55.7,145.0L-65.2,146.4L-75.0,147.3L-85.0,147.3L-95.0,146.3L-104.7,144.1L-114.0,140.7L-122.5,136.1L-130.2,130.2L-136.9,123.2L-142.3,115.2L-146.5,106.4L-149.4,97.0L-151.0,87.2L-151.5,77.2L-151.0,67.2L-149.7,57.4L-147.7,48.0L-145.4,39.0L-143.0,30.4L-140.7,22.3L-138.8,14.6L-137.3,7.2L-136.4,0.0L-136.2,-7.1L-136.7,-14.4L-137.8,-21.8L-139.4,-29.6L-141.2,-37.8L-143.2,-46.5L-145.0,-55.7L-146.4,-65.2L-147.3,-75.0L-147.3,-85.0L-146.3,-95.0L-144.1,-104.7L-140.7,-114.0L-136.1,-122.5L-130.2,-130.2L-123.2,-136.9L-115.2,-142.3L-106.4,-146.5L-97.0,-149.4L-87.2,-151.0L-77.2,-151.5L-67.2,-151.0L-57.4,-149.7L-48.0,-147.7L-39.0,-145.4L-30.4,-143.0L-22.3,-140.7L-14.6,-138.8L-7.2,-137.3L-0.0,-136.4L7.1,-136.2L14.4,-136.7L21.8,-137.8L29.6,-139.4L37.8,-141.2L46.5,-143.2L55.7,-145.0L65.2,-146.4L75.0,-147.3L85.0,-147.3L95.0,-146.3L104.7,-144.1L114.0,-140.7L122.5,-136.1L130.2,-130.2L136.9,-123.2L142.3,-115.2L146.5,-106.4L149.4,-97.0L151.0,-87.2L151.5,-77.2L151.0,-67.2L149.7,-57.4L147.7,-48.0L145.4,-39.0L143.0,-30.4L140.7,-22.3L138.8,-14.6L137.3,-7.2L136.4,-0.0Z" fill="none" stroke="#ddfbf1" stroke-width="2.4" stroke-linecap="round" opacity="0.95"/><path d="M155.7,0.0L150.6,7.9L145.4,15.3L140.4,22.2L135.8,28.9L131.6,35.3L128.1,41.6L125.3,48.1L123.1,54.8L121.4,61.9L120.2,69.4L119.2,77.4L118.3,85.9L117.2,94.9L115.7,104.2L113.6,113.6L110.8,123.1L107.1,132.3L102.4,141.0L96.7,149.0L90.1,156.0L82.5,161.9L74.1,166.4L65.1,169.6L55.7,171.3L46.0,171.6L36.2,170.5L26.6,168.1L17.3,164.7L8.4,160.5L0.0,155.7L-7.9,150.6L-15.3,145.4L-22.2,140.4L-28.9,135.8L-35.3,131.6L-41.6,128.1L-48.1,125.3L-54.8,123.1L-61.9,121.4L-69.4,120.2L-77.4,119.2L-85.9,118.3L-94.9,117.2L-104.2,115.7L-113.6,113.6L-123.1,110.8L-132.3,107.1L-141.0,102.4L-149.0,96.7L-156.0,90.1L-161.9,82.5L-166.4,74.1L-169.6,65.1L-171.3,55.7L-171.6,46.0L-170.5,36.2L-168.1,26.6L-164.7,17.3L-160.5,8.4L-155.7,0.0L-150.6,-7.9L-145.4,-15.3L-140.4,-22.2L-135.8,-28.9L-131.6,-35.3L-128.1,-41.6L-125.3,-48.1L-123.1,-54.8L-121.4,-61.9L-120.2,-69.4L-119.2,-77.4L-118.3,-85.9L-117.2,-94.9L-115.7,-104.2L-113.6,-113.6L-110.8,-123.1L-107.1,-132.3L-102.4,-141.0L-96.7,-149.0L-90.1,-156.0L-82.5,-161.9L-74.1,-166.4L-65.1,-169.6L-55.7,-171.3L-46.0,-171.6L-36.2,-170.5L-26.6,-168.1L-17.3,-164.7L-8.4,-160.5L-0.0,-155.7L7.9,-150.6L15.3,-145.4L22.2,-140.4L28.9,-135.8L35.3,-131.6L41.6,-128.1L48.1,-125.3L54.8,-123.1L61.9,-121.4L69.4,-120.2L77.4,-119.2L85.9,-118.3L94.9,-117.2L104.2,-115.7L113.6,-113.6L123.1,-110.8L132.3,-107.1L141.0,-102.4L149.0,-96.7L156.0,-90.1L161.9,-82.5L166.4,-74.1L169.6,-65.1L171.3,-55.7L171.6,-46.0L170.5,-36.2L168.1,-26.6L164.7,-17.3L160.5,-8.4L155.7,-0.0Z" fill="none" stroke="#ddecff" stroke-width="2.4" stroke-linecap="round" opacity="0.95"/><path d="M178.9,0.0L176.6,9.3L173.0,18.2L168.1,26.6L162.2,34.5L155.6,41.7L148.5,48.2L141.1,54.2L133.7,59.5L126.5,64.5L119.7,69.1L113.5,73.7L107.8,78.3L102.8,83.2L98.3,88.5L94.2,94.2L90.5,100.6L87.0,107.5L83.5,114.9L79.7,122.7L75.6,130.9L70.9,139.1L65.5,147.2L59.4,154.8L52.6,161.9L45.0,168.0L36.8,173.0L28.0,176.7L18.8,179.0L9.4,179.7L0.0,178.9L-9.3,176.6L-18.2,173.0L-26.6,168.1L-34.5,162.2L-41.7,155.6L-48.2,148.5L-54.2,141.1L-59.5,133.7L-64.5,126.5L-69.1,119.7L-73.7,113.5L-78.3,107.8L-83.2,102.8L-88.5,98.3L-94.2,94.2L-100.6,90.5L-107.5,87.0L-114.9,83.5L-122.7,79.7L-130.9,75.6L-139.1,70.9L-147.2,65.5L-154.8,59.4L-161.9,52.6L-168.0,45.0L-173.0,36.8L-176.7,28.0L-179.0,18.8L-179.7,9.4L-178.9,0.0L-176.6,-9.3L-173.0,-18.2L-168.1,-26.6L-162.2,-34.5L-155.6,-41.7L-148.5,-48.2L-141.1,-54.2L-133.7,-59.5L-126.5,-64.5L-119.7,-69.1L-113.5,-73.7L-107.8,-78.3L-102.8,-83.2L-98.3,-88.5L-94.2,-94.2L-90.5,-100.6L-87.0,-107.5L-83.5,-114.9L-79.7,-122.7L-75.6,-130.9L-70.9,-139.1L-65.5,-147.2L-59.4,-154.8L-52.6,-161.9L-45.0,-168.0L-36.8,-173.0L-28.0,-176.7L-18.8,-179.0L-9.4,-179.7L-0.0,-178.9L9.3,-176.6L18.2,-173.0L26.6,-168.1L34.5,-162.2L41.7,-155.6L48.2,-148.5L54.2,-141.1L59.5,-133.7L64.5,-126.5L69.1,-119.7L73.7,-113.5L78.3,-107.8L83.2,-102.8L88.5,-98.3L94.2,-94.2L100.6,-90.5L107.5,-87.0L114.9,-83.5L122.7,-79.7L130.9,-75.6L139.1,-70.9L147.2,-65.5L154.8,-59.4L161.9,-52.6L168.0,-45.0L173.0,-36.8L176.7,-28.0L179.0,-18.8L179.7,-9.4L178.9,-0.0Z" fill="none" stroke="#ddfbf1" stroke-width="2.4" stroke-linecap="round" opacity="0.95"/><path d="M166.0,0.0L169.8,8.9L172.5,18.1L173.8,27.5L173.6,36.9L171.9,46.1L168.8,54.8L164.2,63.0L158.4,70.5L151.5,77.2L143.8,83.0L135.4,87.9L126.6,92.0L117.7,95.3L108.9,98.1L100.4,100.4L92.3,102.5L84.7,104.6L77.6,106.9L71.1,109.5L65.0,112.6L59.3,116.3L53.7,120.7L48.2,125.6L42.6,131.2L36.8,137.2L30.5,143.4L23.7,149.6L16.4,155.7L8.4,161.2L0.0,166.0L-8.9,169.8L-18.1,172.5L-27.5,173.8L-36.9,173.6L-46.1,171.9L-54.8,168.8L-63.0,164.2L-70.5,158.4L-77.2,151.5L-83.0,143.8L-87.9,135.4L-92.0,126.6L-95.3,117.7L-98.1,108.9L-100.4,100.4L-102.5,92.3L-104.6,84.7L-106.9,77.6L-109.5,71.1L-112.6,65.0L-116.3,59.3L-120.7,53.7L-125.6,48.2L-131.2,42.6L-137.2,36.8L-143.4,30.5L-149.6,23.7L-155.7,16.4L-161.2,8.4L-166.0,0.0L-169.8,-8.9L-172.5,-18.1L-173.8,-27.5L-173.6,-36.9L-171.9,-46.1L-168.8,-54.8L-164.2,-63.0L-158.4,-70.5L-151.5,-77.2L-143.8,-83.0L-135.4,-87.9L-126.6,-92.0L-117.7,-95.3L-108.9,-98.1L-100.4,-100.4L-92.3,-102.5L-84.7,-104.6L-77.6,-106.9L-71.1,-109.5L-65.0,-112.6L-59.3,-116.3L-53.7,-120.7L-48.2,-125.6L-42.6,-131.2L-36.8,-137.2L-30.5,-143.4L-23.7,-149.6L-16.4,-155.7L-8.4,-161.2L-0.0,-166.0L8.9,-169.8L18.1,-172.5L27.5,-173.8L36.9,-173.6L46.1,-171.9L54.8,-168.8L63.0,-164.2L70.5,-158.4L77.2,-151.5L83.0,-143.8L87.9,-135.4L92.0,-126.6L95.3,-117.7L98.1,-108.9L100.4,-100.4L102.5,-92.3L104.6,-84.7L106.9,-77.6L109.5,-71.1L112.6,-65.0L116.3,-59.3L120.7,-53.7L125.6,-48.2L131.2,-42.6L137.2,-36.8L143.4,-30.5L149.6,-23.7L155.7,-16.4L161.2,-8.4L166.0,-0.0Z" fill="none" stroke="#ddecff" stroke-width="2.4" stroke-linecap="round" opacity="0.95"/><path d="M134.1,0.0L137.6,7.2L141.4,14.9L145.1,23.0L148.6,31.6L151.5,40.6L153.7,50.0L155.0,59.5L155.1,69.0L153.9,78.4L151.3,87.4L147.4,95.7L142.2,103.3L135.8,110.0L128.3,115.5L120.0,120.0L111.1,123.4L101.7,125.6L92.2,126.9L82.7,127.4L73.5,127.2L64.5,126.6L56.0,125.9L48.0,125.2L40.5,124.7L33.4,124.7L26.6,125.2L20.0,126.5L13.5,128.4L6.9,130.9L0.0,134.1L-7.2,137.6L-14.9,141.4L-23.0,145.1L-31.6,148.6L-40.6,151.5L-50.0,153.7L-59.5,155.0L-69.0,155.1L-78.4,153.9L-87.4,151.3L-95.7,147.4L-103.3,142.2L-110.0,135.8L-115.5,128.3L-120.0,120.0L-123.4,111.1L-125.6,101.7L-126.9,92.2L-127.4,82.7L-127.2,73.5L-126.6,64.5L-125.9,56.0L-125.2,48.0L-124.7,40.5L-124.7,33.4L-125.2,26.6L-126.5,20.0L-128.4,13.5L-130.9,6.9L-134.1,0.0L-137.6,-7.2L-141.4,-14.9L-145.1,-23.0L-148.6,-31.6L-151.5,-40.6L-153.7,-50.0L-155.0,-59.5L-155.1,-69.0L-153.9,-78.4L-151.3,-87.4L-147.4,-95.7L-142.2,-103.3L-135.8,-110.0L-128.3,-115.5L-120.0,-120.0L-111.1,-123.4L-101.7,-125.6L-92.2,-126.9L-82.7,-127.4L-73.5,-127.2L-64.5,-126.6L-56.0,-125.9L-48.0,-125.2L-40.5,-124.7L-33.4,-124.7L-26.6,-125.2L-20.0,-126.5L-13.5,-128.4L-6.9,-130.9L-0.0,-134.1L7.2,-137.6L14.9,-141.4L23.0,-145.1L31.6,-148.6L40.6,-151.5L50.0,-153.7L59.5,-155.0L69.0,-155.1L78.4,-153.9L87.4,-151.3L95.7,-147.4L103.3,-142.2L110.0,-135.8L115.5,-128.3L120.0,-120.0L123.4,-111.1L125.6,-101.7L126.9,-92.2L127.4,-82.7L127.2,-73.5L126.6,-64.5L125.9,-56.0L125.2,-48.0L124.7,-40.5L124.7,-33.4L125.2,-26.6L126.5,-20.0L128.4,-13.5L130.9,-6.9L134.1,-0.0Z" fill="none" stroke="#ddfbf1" stroke-width="2.4" stroke-linecap="round" opacity="0.95"/><path d="M130.4,0.0L127.7,6.7L125.6,13.2L124.3,19.7L123.6,26.3L123.5,33.1L124.0,40.3L124.9,47.9L125.9,56.0L126.9,64.6L127.6,73.6L127.7,83.0L127.2,92.4L125.7,101.8L123.3,111.0L119.7,119.7L114.9,127.6L109.0,134.7L102.2,140.6L94.4,145.3L85.9,148.7L76.8,150.8L67.5,151.5L58.0,151.1L48.6,149.5L39.4,147.1L30.6,144.1L22.3,140.6L14.4,137.0L7.0,133.6L0.0,130.4L-6.7,127.7L-13.2,125.6L-19.7,124.3L-26.3,123.6L-33.1,123.5L-40.3,124.0L-47.9,124.9L-56.0,125.9L-64.6,126.9L-73.6,127.6L-83.0,127.7L-92.4,127.2L-101.8,125.7L-111.0,123.3L-119.7,119.7L-127.6,114.9L-134.7,109.0L-140.6,102.2L-145.3,94.4L-148.7,85.9L-150.8,76.8L-151.5,67.5L-151.1,58.0L-149.5,48.6L-147.1,39.4L-144.1,30.6L-140.6,22.3L-137.0,14.4L-133.6,7.0L-130.4,0.0L-127.7,-6.7L-125.6,-13.2L-124.3,-19.7L-123.6,-26.3L-123.5,-33.1L-124.0,-40.3L-124.9,-47.9L-125.9,-56.0L-126.9,-64.6L-127.6,-73.6L-127.7,-83.0L-127.2,-92.4L-125.7,-101.8L-123.3,-111.0L-119.7,-119.7L-114.9,-127.6L-109.0,-134.7L-102.2,-140.6L-94.4,-145.3L-85.9,-148.7L-76.8,-150.8L-67.5,-151.5L-58.0,-151.1L-48.6,-149.5L-39.4,-147.1L-30.6,-144.1L-22.3,-140.6L-14.4,-137.0L-7.0,-133.6L-0.0,-130.4L6.7,-127.7L13.2,-125.6L19.7,-124.3L26.3,-123.6L33.1,-123.5L40.3,-124.0L47.9,-124.9L56.0,-125.9L64.6,-126.9L73.6,-127.6L83.0,-127.7L92.4,-127.2L101.8,-125.7L111.0,-123.3L119.7,-119.7L127.6,-114.9L134.7,-109.0L140.6,-102.2L145.3,-94.4L148.7,-85.9L150.8,-76.8L151.5,-67.5L151.1,-58.0L149.5,-48.6L147.1,-39.4L144.1,-30.6L140.6,-22.3L137.0,-14.4L133.6,-7.0L130.4,-0.0Z" fill="none" stroke="#ddecff" stroke-width="2.4" stroke-linecap="round" opacity="0.95"/>
</svg>