<svg xmlns="http://www.w3.org/2000/svg" viewBox="-250 -250 500 500">
<rect x="-250" y="-250" width="500" height="500" fill="#0a1a28"/>
<path d="M204.0,0.0L203.4,10.7L201.5,21.2L198.4,31.4L194.1,41.3L188.8,50.6L182.6,59.3L175.7,67.4L168.1,74.8L160.0,81.5L151.6,87.5L143.0,92.8L134.3,97.6L125.8,101.8L117.4,105.7L109.2,109.2L101.4,112.6L93.9,115.9L86.7,119.3L79.7,122.7L73.0,126.4L66.4,130.4L60.0,134.7L53.5,139.3L46.8,144.1L40.0,149.2L32.8,154.5L25.3,159.8L17.4,165.1L8.9,170.2L0.0,175.0L-9.4,179.3L-19.2,183.0L-29.4,185.8L-39.9,187.8L-50.6,188.8L-61.3,188.7L-72.0,187.5L-82.4,185.1L-92.5,181.4L-102.0,176.7L-110.9,170.8L-119.1,163.9L-126.4,156.1L-132.8,147.5L-138.2,138.2L-142.7,128.5L-146.2,118.4L-148.8,108.1L-150.6,97.8L-151.6,87.5L-151.9,77.4L-151.7,67.5L-151.1,58.0L-150.2,48.8L-149.2,40.0L-148.2,31.5L-147.3,23.3L-146.6,15.4L-146.2,7.7L-146.0,0.0L-146.2,-7.7L-146.6,-15.4L-147.3,-23.3L-148.2,-31.5L-149.2,-40.0L-150.2,-48.8L-151.1,-58.0L-151.7,-67.5L-151.9,-77.4L-151.6,-87.5L-150.6,-97.8L-148.8,-108.1L-146.2,-118.4L-142.7,-128.5L-138.2,-138.2L-132.8,-147.5L-126.4,-156.1L-119.1,-163.9L-110.9,-170.8L-102.0,-176.7L-92.5,-181.4L-82.4,-185.1L-72.0,-187.5L-61.3,-188.7L-50.6,-188.8L-39.9,-187.8L-29.4,-185.8L-19.2,-183.0L-9.4,-179.3L-0.0,-175.0L8.9,-170.2L17.4,-165.1L25.3,-159.8L32.8,-154.5L40.0,-149.2L46.8,-144.1L53.5,-139.3L60.0,-134.7L66.4,-130.4L73.0,-126.4L79.7,-122.7L86.7,-119.3L93.9,-115.9L101.4,-112.6L109.2,-109.2L117.4,-105.7L125.8,-101.8L134.3,-97.6L143.0,-92.8L151.6,-87.5L160.0,-81.5L168.1,-74.8L175.7,-67.4L182.6,-59.3L188.8,-50.6L194.1,-41.3L198.4,-31.4L201.5,-21.2L203.4,-10.7L204.0,-0.0Z" fill="none" stroke="#ddecff" stroke-width="2.4" stroke-linecap="round" opacity="0.95"/><path d="M179.1,0.0L183.2,9.6L186.6,19.6L189.1,30.0L190.6,40.5L191.0,51.2L190.2,61.8L188.2,72.2L185.0,82.4L180.7,92.1L175.2,101.2L168.7,109.5L161.2,117.1L152.9,123.9L144.0,129.7L134.5,134.5L124.6,138.4L114.6,141.5L104.4,143.7L94.2,145.1L84.3,145.9L74.5,146.2L65.1,146.1L56.0,145.8L47.2,145.3L38.8,144.8L30.7,144.4L22.8,144.2L15.2,144.3L7.6,144.6L0.0,145.3L-7.7,146.3L-15.5,147.5L-23.6,148.9L-32.0,150.5L-40.7,152.0L-49.8,153.4L-59.3,154.6L-69.2,155.3L-79.2,155.5L-89.5,155.1L-99.9,153.9L-110.3,151.8L-120.5,148.8L-130.4,144.8L-139.8,139.8L-148.6,133.8L-156.7,126.9L-163.9,119.1L-170.1,110.4L-175.2,101.2L-179.2,91.3L-182.1,81.1L-183.7,70.5L-184.3,59.9L-183.7,49.2L-182.2,38.7L-179.8,28.5L-176.6,18.6L-172.8,9.1L-168.5,0.0L-163.9,-8.6L-159.1,-16.7L-154.2,-24.4L-149.4,-31.8L-144.8,-38.8L-140.4,-45.6L-136.3,-52.3L-132.5,-59.0L-129.0,-65.7L-125.8,-72.6L-122.8,-79.8L-120.0,-87.2L-117.2,-94.9L-114.3,-102.9L-111.3,-111.3L-107.9,-119.9L-104.2,-128.7L-99.9,-137.5L-95.1,-146.4L-89.5,-155.1L-83.3,-163.5L-76.3,-171.4L-68.6,-178.7L-60.2,-185.3L-51.2,-191.0L-41.6,-195.6L-31.5,-199.1L-21.2,-201.4L-10.6,-202.5L-0.0,-202.3L10.5,-200.9L20.8,-198.2L30.8,-194.4L40.3,-189.5L49.2,-183.7L57.6,-177.2L65.2,-169.9L72.2,-162.2L78.6,-154.2L84.3,-145.9L89.4,-137.6L94.0,-129.4L98.3,-121.3L102.2,-113.5L106.0,-106.0L109.7,-98.8L113.5,-91.9L117.3,-85.3L121.4,-78.9L125.8,-72.6L130.5,-66.5L135.5,-60.3L140.8,-54.0L146.3,-47.5L152.0,-40.7L157.8,-33.5L163.5,-25.9L169.1,-17.8L174.3,-9.1L179.1,-0.0Z" fill="none" stroke="#ddfbf1" stroke-width="2.4" stroke-linecap="round" opacity="0.95"/><path d="M145.5,0.0L147.3,7.7L149.2,15.7L151.3,24.0L153.4,32.6L155.3,41.6L157.0,51.0L158.3,60.8L159.1,70.8L159.2,81.1L158.5,91.5L156.9,101.9L154.4,112.2L150.9,122.2L146.3,131.8L140.8,140.8L134.2,149.1L126.8,156.5L118.5,163.1L109.5,168.5L99.8,172.9L89.8,176.2L79.4,178.3L68.8,179.3L58.2,179.2L47.7,178.1L37.4,176.2L27.5,173.5L17.9,170.1L8.7,166.3L0.0,162.2L-8.3,157.9L-16.1,153.5L-23.6,149.2L-30.8,145.0L-37.8,141.1L-44.7,137.5L-51.5,134.2L-58.4,131.2L-65.5,128.5L-72.8,126.0L-80.3,123.7L-88.2,121.4L-96.4,119.1L-104.9,116.5L-113.7,113.7L-122.7,110.5L-131.8,106.7L-140.9,102.3L-149.8,97.3L-158.5,91.5L-166.7,84.9L-174.4,77.6L-181.3,69.6L-187.3,60.9L-192.3,51.5L-196.2,41.7L-199.0,31.5L-200.5,21.1L-200.7,10.5L-199.7,0.0L-197.4,-10.3L-194.1,-20.4L-189.6,-30.0L-184.3,-39.2L-178.1,-47.7L-171.3,-55.7L-164.0,-62.9L-156.3,-69.6L-148.4,-75.6L-140.5,-81.1L-132.6,-86.1L-124.9,-90.7L-117.4,-95.1L-110.2,-99.2L-103.3,-103.3L-96.7,-107.4L-90.5,-111.7L-84.4,-116.2L-78.6,-121.0L-72.8,-126.0L-67.0,-131.4L-61.0,-137.1L-54.9,-143.0L-48.5,-149.1L-41.6,-155.3L-34.3,-161.5L-26.5,-167.5L-18.2,-173.2L-9.3,-178.4L-0.0,-183.0L9.8,-186.8L19.9,-189.8L30.4,-191.8L40.9,-192.6L51.5,-192.3L62.0,-190.8L72.2,-188.1L82.0,-184.1L91.2,-179.1L99.8,-172.9L107.7,-165.8L114.7,-157.9L120.8,-149.2L126.1,-140.0L130.4,-130.4L133.8,-120.5L136.5,-110.5L138.4,-100.6L139.7,-90.7L140.5,-81.1L140.9,-71.8L141.0,-62.8L141.0,-54.1L141.0,-45.8L141.1,-37.8L141.4,-30.1L142.0,-22.5L142.9,-15.0L144.0,-7.5L145.5,-0.0Z" fill="none" stroke="#ddecff" stroke-width="2.4" stroke-linecap="round" opacity="0.95"/><path d="M156.2,0.0L152.4,8.0L148.5,15.6L144.9,22.9L141.4,30.1L138.3,37.1L135.5,44.0L133.0,51.1L130.8,58.2L128.8,65.7L127.0,73.3L125.3,81.3L123.4,89.7L121.4,98.3L119.1,107.3L116.4,116.4L113.2,125.7L109.3,135.0L104.7,144.1L99.4,153.1L93.3,161.6L86.4,169.5L78.7,176.7L70.3,183.1L61.2,188.5L51.7,192.8L41.6,195.9L31.3,197.8L20.9,198.5L10.4,197.9L0.0,196.1L-10.1,193.2L-19.9,189.2L-29.2,184.3L-37.9,178.5L-46.1,172.1L-53.7,165.2L-60.6,157.9L-67.0,150.4L-72.8,142.8L-78.1,135.3L-83.1,128.0L-87.8,120.8L-92.3,114.0L-96.8,107.5L-101.3,101.3L-105.9,95.3L-110.7,89.7L-115.9,84.2L-121.3,78.8L-127.0,73.3L-133.1,67.8L-139.4,62.1L-145.9,56.0L-152.5,49.5L-159.0,42.6L-165.4,35.2L-171.5,27.2L-177.2,18.6L-182.2,9.6L-186.6,0.0L-190.0,-10.0L-192.4,-20.2L-193.7,-30.7L-193.9,-41.2L-192.8,-51.7L-190.5,-61.9L-187.0,-71.8L-182.3,-81.2L-176.6,-90.0L-169.9,-98.1L-162.2,-105.4L-153.9,-111.8L-145.0,-117.4L-135.6,-122.1L-126.0,-126.0L-116.2,-129.1L-106.4,-131.4L-96.8,-133.2L-87.3,-134.4L-78.1,-135.3L-69.3,-135.9L-60.7,-136.4L-52.6,-136.9L-44.7,-137.5L-37.1,-138.3L-29.6,-139.4L-22.3,-140.7L-15.0,-142.4L-7.6,-144.4L-0.0,-146.7L7.8,-149.1L15.9,-151.7L24.4,-154.3L33.3,-156.8L42.6,-159.0L52.3,-160.8L62.2,-162.1L72.5,-162.8L82.9,-162.6L93.3,-161.6L103.6,-159.5L113.7,-156.5L123.4,-152.4L132.6,-147.3L141.1,-141.1L148.9,-134.0L155.7,-126.1L161.5,-117.3L166.2,-107.9L169.9,-98.1L172.4,-87.8L173.8,-77.4L174.2,-66.9L173.6,-56.4L172.1,-46.1L169.9,-36.1L167.0,-26.5L163.7,-17.2L160.1,-8.4L156.2,-0.0Z" fill="none" stroke="#ddfbf1" stroke-width="2.4" stroke-linecap="round" opacity="0.95"/>
</svg>