<svg xmlns="http://www.w3.org/2000/svg" viewBox="-250 -250 500 500">
<rect x="-250" y="-250" width="500" height="500" fill="#0a1a28"/>
<path d="M199.0,0.0L198.2,10.4L195.8,20.6L192.0,30.4L186.9,39.7L180.6,48.4L173.5,56.4L165.7,63.6L157.6,70.2L149.3,76.1L141.2,81.5L133.3,86.6L125.9,91.4L119.0,96.3L112.6,101.4L106.8,106.8L101.4,112.6L96.3,119.0L91.4,125.9L86.6,133.3L81.5,141.2L76.1,149.3L70.2,157.6L63.6,165.7L56.4,173.5L48.4,180.6L39.7,186.9L30.4,192.0L20.6,195.8L10.4,198.2L0.0,199.0L-10.4,198.2L-20.6,195.8L-30.4,192.0L-39.7,186.9L-48.4,180.6L-56.4,173.5L-63.6,165.7L-70.2,157.6L-76.1,149.3L-81.5,141.2L-86.6,133.3L-91.4,125.9L-96.3,119.0L-101.4,112.6L-106.8,106.8L-112.6,101.4L-119.0,96.3L-125.9,91.4L-133.3,86.6L-141.2,81.5L-149.3,76.1L-157.6,70.2L-165.7,63.6L-173.5,56.4L-180.6,48.4L-186.9,39.7L-192.0,30.4L-195.8,20.6L-198.2,10.4L-199.0,0.0L-198.2,-10.4L-195.8,-20.6L-192.0,-30.4L-186.9,-39.7L-180.6,-48.4L-173.5,-56.4L-165.7,-63.6L-157.6,-70.2L-149.3,-76.1L-141.2,-81.5L-133.3,-86.6L-125.9,-91.4L-119.0,-96.3L-112.6,-101.4L-106.8,-106.8L-101.4,-112.6L-96.3,-119.0L-91.4,-125.9L-86.6,-133.3L-81.5,-141.2L-76.1,-149.3L-70.2,-157.6L-63.6,-165.7L-56.4,-173.5L-48.4,-180.6L-39.7,-186.9L-30.4,-192.0L-20.6,-195.8L-10.4,-198.2L-0.0,-199.0L10.4,-198.2L20.6,-195.8L30.4,-192.0L39.7,-186.9L48.4,-180.6L56.4,-173.5L63.6,-165.7L70.2,-157.6L76.1,-149.3L81.5,-141.2L86.6,-133.3L91.4,-125.9L96.3,-119.0L101.4,-112.6L106.8,-106.8L112.6,-101.4L119.0,-96.3L125.9,-91.4L133.3,-86.6L141.2,-81.5L149.3,-76.1L157.6,-70.2L165.7,-63.6L173.5,-56.4L180.6,-48.4L186.9,-39.7L192.0,-30.4L195.8,-20.6L198.2,-10.4L199.0,-0.0Z" fill="none" stroke="#ddecff" stroke-width="2.4" stroke-linecap="round" opacity="0.95"/><path d="M177.9,0.0L182.4,9.6L186.0,19.5L188.4,29.8L189.5,40.3L189.1,50.7L187.1,60.8L183.7,70.5L178.8,79.6L172.6,87.9L165.2,95.4L156.8,101.9L147.8,107.4L138.2,111.9L128.5,115.7L118.7,118.7L109.2,121.2L99.9,123.4L91.1,125.4L82.8,127.6L75.0,130.0L67.7,132.8L60.6,136.1L53.8,140.1L47.0,144.7L40.1,149.8L33.0,155.3L25.5,161.1L17.6,167.0L9.0,172.7L0.0,177.9L-9.6,182.4L-19.5,186.0L-29.8,188.4L-40.3,189.5L-50.7,189.1L-60.8,187.1L-70.5,183.7L-79.6,178.8L-87.9,172.6L-95.4,165.2L-101.9,156.8L-107.4,147.8L-111.9,138.2L-115.7,128.5L-118.7,118.7L-121.2,109.2L-123.4,99.9L-125.4,91.1L-127.6,82.8L-130.0,75.0L-132.8,67.7L-136.1,60.6L-140.1,53.8L-144.7,47.0L-149.8,40.1L-155.3,33.0L-161.1,25.5L-167.0,17.6L-172.7,9.0L-177.9,0.0L-182.4,-9.6L-186.0,-19.5L-188.4,-29.8L-189.5,-40.3L-189.1,-50.7L-187.1,-60.8L-183.7,-70.5L-178.8,-79.6L-172.6,-87.9L-165.2,-95.4L-156.8,-101.9L-147.8,-107.4L-138.2,-111.9L-128.5,-115.7L-118.7,-118.7L-109.2,-121.2L-99.9,-123.4L-91.1,-125.4L-82.8,-127.6L-75.0,-130.0L-67.7,-132.8L-60.6,-136.1L-53.8,-140.1L-47.0,-144.7L-40.1,-149.8L-33.0,-155.3L-25.5,-161.1L-17.6,-167.0L-9.0,-172.7L-0.0,-177.9L9.6,-182.4L19.5,-186.0L29.8,-188.4L40.3,-189.5L50.7,-189.1L60.8,-187.1L70.5,-183.7L79.6,-178.8L87.9,-172.6L95.4,-165.2L101.9,-156.8L107.4,-147.8L111.9,-138.2L115.7,-128.5L118.7,-118.7L121.2,-109.2L123.4,-99.9L125.4,-91.1L127.6,-82.8L130.0,-75.0L132.8,-67.7L136.1,-60.6L140.1,-53.8L144.7,-47.0L149.8,-40.1L155.3,-33.0L161.1,-25.5L167.0,-17.6L172.7,-9.0L177.9,-0.0Z" fill="none" stroke="#ddfbf1" stroke-width="2.4" stroke-linecap="round" opacity="0.95"/><path d="M148.9,0.0L151.2,7.9L153.9,16.2L156.8,24.8L159.8,34.0L162.6,43.6L164.8,53.6L166.4,63.9L167.0,74.4L166.5,84.8L164.7,95.1L161.6,105.0L157.2,114.2L151.4,122.6L144.4,130.0L136.3,136.3L127.3,141.4L117.6,145.2L107.4,147.9L97.1,149.5L86.7,150.1L76.4,149.9L66.5,149.3L56.9,148.3L47.8,147.2L39.2,146.2L31.0,145.6L23.0,145.5L15.3,146.0L7.7,147.1L0.0,148.9L-7.9,151.2L-16.2,153.9L-24.8,156.8L-34.0,159.8L-43.6,162.6L-53.6,164.8L-63.9,166.4L-74.4,167.0L-84.8,166.5L-95.1,164.7L-105.0,161.6L-114.2,157.2L-122.6,151.4L-130.0,144.4L-136.3,136.3L-141.4,127.3L-145.2,117.6L-147.9,107.4L-149.5,97.1L-150.1,86.7L-149.9,76.4L-149.3,66.5L-148.3,56.9L-147.2,47.8L-146.2,39.2L-145.6,31.0L-145.5,23.0L-146.0,15.3L-147.1,7.7L-148.9,0.0L-151.2,-7.9L-153.9,-16.2L-156.8,-24.8L-159.8,-34.0L-162.6,-43.6L-164.8,-53.6L-166.4,-63.9L-167.0,-74.4L-166.5,-84.8L-164.7,-95.1L-161.6,-105.0L-157.2,-114.2L-151.4,-122.6L-144.4,-130.0L-136.3,-136.3L-127.3,-141.4L-117.6,-145.2L-107.4,-147.9L-97.1,-149.5L-86.7,-150.1L-76.4,-149.9L-66.5,-149.3L-56.9,-148.3L-47.8,-147.2L-39.2,-146.2L-31.0,-145.6L-23.0,-145.5L-15.3,-146.0L-7.7,-147.1L-0.0,-148.9L7.9,-151.2L16.2,-153.9L24.8,-156.8L34.0,-159.8L43.6,-162.6L53.6,-164.8L63.9,-166.4L74.4,-167.0L84.8,-166.5L95.1,-164.7L105.0,-161.6L114.2,-157.2L122.6,-151.4L130.0,-144.4L136.3,-136.3L141.4,-127.3L145.2,-117.6L147.9,-107.4L149.5,-97.1L150.1,-86.7L149.9,-76.4L149.3,-66.5L148.3,-56.9L147.2,-47.8L146.2,-39.2L145.6,-31.0L145.5,-23.0L146.0,-15.3L147.1,-7.7L148.9,-0.0Z" fill="none" stroke="#ddecff" stroke-width="2.4" stroke-linecap="round" opacity="0.95"/><path d="M154.6,0.0L150.7,7.9L147.1,15.5L144.1,22.8L141.7,30.1L139.9,37.5L138.7,45.1L138.1,53.0L137.8,61.4L137.7,70.2L137.6,79.5L137.3,89.2L136.5,99.2L135.0,109.3L132.6,119.4L129.3,129.3L124.8,138.6L119.2,147.3L112.6,154.9L104.9,161.5L96.3,166.8L87.0,170.7L77.1,173.1L66.8,174.1L56.5,173.9L46.2,172.4L36.1,169.9L26.4,166.6L17.1,162.8L8.3,158.7L0.0,154.6L-7.9,150.7L-15.5,147.1L-22.8,144.1L-30.1,141.7L-37.5,139.9L-45.1,138.7L-53.0,138.1L-61.4,137.8L-70.2,137.7L-79.5,137.6L-89.2,137.3L-99.2,136.5L-109.3,135.0L-119.4,132.6L-129.3,129.3L-138.6,124.8L-147.3,119.2L-154.9,112.6L-161.5,104.9L-166.8,96.3L-170.7,87.0L-173.1,77.1L-174.1,66.8L-173.9,56.5L-172.4,46.2L-169.9,36.1L-166.6,26.4L-162.8,17.1L-158.7,8.3L-154.6,0.0L-150.7,-7.9L-147.1,-15.5L-144.1,-22.8L-141.7,-30.1L-139.9,-37.5L-138.7,-45.1L-138.1,-53.0L-137.8,-61.4L-137.7,-70.2L-137.6,-79.5L-137.3,-89.2L-136.5,-99.2L-135.0,-109.3L-132.6,-119.4L-129.3,-129.3L-124.8,-138.6L-119.2,-147.3L-112.6,-154.9L-104.9,-161.5L-96.3,-166.8L-87.0,-170.7L-77.1,-173.1L-66.8,-174.1L-56.5,-173.9L-46.2,-172.4L-36.1,-169.9L-26.4,-166.6L-17.1,-162.8L-8.3,-158.7L-0.0,-154.6L7.9,-150.7L15.5,-147.1L22.8,-144.1L30.1,-141.7L37.5,-139.9L45.1,-138.7L53.0,-138.1L61.4,-137.8L70.2,-137.7L79.5,-137.6L89.2,-137.3L99.2,-136.5L109.3,-135.0L119.4,-132.6L129.3,-129.3L138.6,-124.8L147.3,-119.2L154.9,-112.6L161.5,-104.9L166.8,-96.3L170.7,-87.0L173.1,-77.1L174.1,-66.8L173.9,-56.5L172.4,-46.2L169.9,-36.1L166.6,-26.4L162.8,-17.1L158.7,-8.3L154.6,-0.0Z" fill="none" stroke="#ddfbf1" stroke-width="2.4" stroke-linecap="round" opacity="0.95"/><path d="M182.7,0.0L178.4,9.3L173.1,18.2L167.0,26.5L160.5,34.1L153.8,41.2L147.0,47.8L140.5,53.9L134.5,59.9L128.9,65.7L123.9,71.6L119.6,77.7L115.8,84.1L112.4,91.0L109.4,98.5L106.4,106.4L103.4,114.9L100.2,123.7L96.5,132.8L92.1,141.8L87.0,150.7L81.1,159.1L74.3,166.9L66.7,173.7L58.3,179.3L49.2,183.6L39.6,186.4L29.7,187.7L19.7,187.5L9.7,185.8L0.0,182.7L-9.3,178.4L-18.2,173.1L-26.5,167.0L-34.1,160.5L-41.2,153.8L-47.8,147.0L-53.9,140.5L-59.9,134.5L-65.7,128.9L-71.6,123.9L-77.7,119.6L-84.1,115.8L-91.0,112.4L-98.5,109.4L-106.4,106.4L-114.9,103.4L-123.7,100.2L-132.8,96.5L-141.8,92.1L-150.7,87.0L-159.1,81.1L-166.9,74.3L-173.7,66.7L-179.3,58.3L-183.6,49.2L-186.4,39.6L-187.7,29.7L-187.5,19.7L-185.8,9.7L-182.7,0.0L-178.4,-9.3L-173.1,-18.2L-167.0,-26.5L-160.5,-34.1L-153.8,-41.2L-147.0,-47.8L-140.5,-53.9L-134.5,-59.9L-128.9,-65.7L-123.9,-71.6L-119.6,-77.7L-115.8,-84.1L-112.4,-91.0L-109.4,-98.5L-106.4,-106.4L-103.4,-114.9L-100.2,-123.7L-96.5,-132.8L-92.1,-141.8L-87.0,-150.7L-81.1,-159.1L-74.3,-166.9L-66.7,-173.7L-58.3,-179.3L-49.2,-183.6L-39.6,-186.4L-29.7,-187.7L-19.7,-187.5L-9.7,-185.8L-0.0,-182.7L9.3,-178.4L18.2,-173.1L26.5,-167.0L34.1,-160.5L41.2,-153.8L47.8,-147.0L53.9,-140.5L59.9,-134.5L65.7,-128.9L71.6,-123.9L77.7,-119.6L84.1,-115.8L91.0,-112.4L98.5,-109.4L106.4,-106.4L114.9,-103.4L123.7,-100.2L132.8,-96.5L141.8,-92.1L150.7,-87.0L159.1,-81.1L166.9,-74.3L173.7,-66.7L179.3,-58.3L183.6,-49.2L186.4,-39.6L187.7,-29.7L187.5,-19.7L185.8,-9.7L182.7,-0.0Z" fill="none" stroke="#ddecff" stroke-width="2.4" stroke-linecap="round" opacity="0.95"/><path d="M185.3,0.0L187.1,9.8L187.3,19.7L186.0,29.5L183.2,38.9L179.0,48.0L173.4,56.3L166.7,64.0L159.2,70.9L151.0,76.9L142.5,82.2L133.8,86.9L125.2,91.0L116.9,94.6L109.0,98.1L101.6,101.6L94.8,105.3L88.5,109.3L82.7,113.8L77.2,118.8L71.9,124.5L66.6,130.7L61.2,137.4L55.5,144.5L49.3,151.7L42.6,158.9L35.2,165.8L27.3,172.1L18.7,177.6L9.5,182.1L0.0,185.3L-9.8,187.1L-19.7,187.3L-29.5,186.0L-38.9,183.2L-48.0,179.0L-56.3,173.4L-64.0,166.7L-70.9,159.2L-76.9,151.0L-82.2,142.5L-86.9,133.8L-91.0,125.2L-94.6,116.9L-98.1,109.0L-101.6,101.6L-105.3,94.8L-109.3,88.5L-113.8,82.7L-118.8,77.2L-124.5,71.9L-130.7,66.6L-137.4,61.2L-144.5,55.5L-151.7,49.3L-158.9,42.6L-165.8,35.2L-172.1,27.3L-177.6,18.7L-182.1,9.5L-185.3,0.0L-187.1,-9.8L-187.3,-19.7L-186.0,-29.5L-183.2,-38.9L-179.0,-48.0L-173.4,-56.3L-166.7,-64.0L-159.2,-70.9L-151.0,-76.9L-142.5,-82.3L-133.8,-86.9L-125.2,-91.0L-116.9,-94.6L-109.0,-98.1L-101.6,-101.6L-94.8,-105.3L-88.5,-109.3L-82.7,-113.8L-77.2,-118.8L-71.9,-124.5L-66.6,-130.7L-61.2,-137.4L-55.5,-144.5L-49.3,-151.7L-42.6,-158.9L-35.2,-165.8L-27.3,-172.1L-18.7,-177.6L-9.5,-182.1L-0.0,-185.3L9.8,-187.1L19.7,-187.3L29.5,-186.0L38.9,-183.2L48.0,-179.0L56.3,-173.4L64.0,-166.7L70.9,-159.2L76.9,-151.0L82.3,-142.5L86.9,-133.8L91.0,-125.2L94.6,-116.9L98.1,-109.0L101.6,-101.6L105.3,-94.8L109.3,-88.5L113.8,-82.7L118.8,-77.2L124.5,-71.9L130.7,-66.6L137.4,-61.2L144.5,-55.5L151.7,-49.3L158.9,-42.6L165.8,-35.2L172.1,-27.3L177.6,-18.7L182.1,-9.5L185.3,-0.0Z" fill="none" stroke="#ddfbf1" stroke-width="2.4" stroke-linecap="round" opacity="0.95"/>
</svg>