<svg xmlns="http://www.w3.org/2000/svg" viewBox="-250 -250 500 500">
<defs><filter id="tg"><feGaussianBlur stdDeviation="10.0"/></filter></defs>
<rect x="-250" y="-250" width="500" height="500" fill="#0c1218"/>
<path d="M135.5,0.0L138.1,2.4L140.6,4.9L143.1,7.5L145.6,10.2L148.0,12.9L150.3,15.8L152.6,18.7L154.8,21.8L157.0,24.9L159.1,28.0L161.1,31.3L163.1,34.7L165.0,38.1L166.8,41.6L168.6,45.2L170.3,48.8L171.9,52.5L173.4,56.3L174.9,60.2L176.2,64.1L177.5,68.1L178.7,72.2L179.8,76.3L180.8,80.5L181.8,84.8L62.4,30.4L64.1,32.7L65.9,35.0L67.5,37.4L69.1,39.9L70.6,42.4L72.1,45.0L73.5,47.7L74.8,50.4L76.0,53.2L77.2,56.1L78.3,59.0L79.3,61.9L80.2,64.9L81.0,68.0L81.8,71.1L82.5,74.3L83.1,77.5L83.6,80.7L84.0,84.0L84.3,87.3L84.6,90.7L84.7,94.1L84.8,97.5L84.7,101.0L84.6,104.5L84.3,108.0L84.0,111.5L83.6,115.0L83.1,118.6L82.4,122.2L81.7,125.8L80.9,129.4L79.9,133.0L78.9,136.7L77.8,140.3L76.5,143.9L75.2,147.6L73.7,151.2L72.2,154.8L70.5,158.4L68.8,162.0L66.9,165.6L64.9,169.2L62.9,172.7L60.7,176.3L58.4,179.8L56.0,183.3L53.5,186.7L50.9,190.1L48.2,193.5L45.4,196.9L14.7,69.3L14.0,72.1L13.2,74.9L12.3,77.7L11.3,80.5L10.2,83.2L9.0,86.0L7.8,88.7L6.4,91.5L4.9,94.1L3.4,96.8L1.7,99.5L0.0,102.1L-1.8,104.7L-3.7,107.2L-5.8,109.7L-7.8,112.2L-10.0,114.6L-12.3,117.0L-14.7,119.4L-17.1,121.7L-19.6,123.9L-22.2,126.1L-24.9,128.3L-27.7,130.4L-30.6,132.4L-33.5,134.4L-36.5,136.3L-39.6,138.1L-42.8,139.9L-46.0,141.6L-49.3,143.2L-52.7,144.8L-56.2,146.3L-59.7,147.7L-63.3,149.0L-66.9,150.3L-70.6,151.4L-74.4,152.5L-78.2,153.5L-82.1,154.4L-86.1,155.3L-90.1,156.0L-94.1,156.6L-98.2,157.2L-102.3,157.6L-106.5,157.9L-110.8,158.2L-115.0,158.3L-119.3,158.4L-123.7,158.3L-43.9,54.2L-46.5,55.4L-49.2,56.6L-51.9,57.6L-54.7,58.6L-57.5,59.5L-60.4,60.4L-63.3,61.1L-66.2,61.8L-69.2,62.3L-72.3,62.8L-75.4,63.2L-78.5,63.5L-81.6,63.8L-84.8,63.9L-88.0,63.9L-91.2,63.9L-94.5,63.7L-97.8,63.5L-101.1,63.2L-104.4,62.7L-107.7,62.2L-111.1,61.6L-114.4,60.8L-117.8,60.0L-121.1,59.1L-124.5,58.1L-127.9,56.9L-131.2,55.7L-134.6,54.4L-138.0,53.0L-141.3,51.4L-144.6,49.8L-148.0,48.1L-151.3,46.2L-154.6,44.3L-157.8,42.3L-161.1,40.2L-164.3,37.9L-167.4,35.6L-170.6,33.2L-173.7,30.6L-176.8,28.0L-179.8,25.3L-182.8,22.4L-185.8,19.5L-188.7,16.5L-191.5,13.4L-194.3,10.2L-197.1,6.9L-199.8,3.5L-68.6,0.0L-71.2,-1.2L-73.8,-2.6L-76.3,-4.0L-78.9,-5.5L-81.3,-7.1L-83.8,-8.8L-86.2,-10.6L-88.6,-12.4L-90.9,-14.4L-93.2,-16.4L-95.5,-18.6L-97.7,-20.8L-99.8,-23.0L-101.9,-25.4L-104.0,-27.9L-106.0,-30.4L-107.9,-33.0L-109.8,-35.7L-111.6,-38.4L-113.4,-41.3L-115.1,-44.2L-116.7,-47.1L-118.2,-50.2L-119.7,-53.3L-121.1,-56.5L-122.5,-59.7L-123.7,-63.0L-124.9,-66.4L-126.0,-69.8L-127.0,-73.3L-127.9,-76.9L-128.8,-80.5L-129.5,-84.1L-130.2,-87.8L-130.8,-91.6L-131.3,-95.4L-131.7,-99.2L-132.0,-103.1L-132.2,-107.0L-132.3,-111.0L-132.3,-115.0L-132.2,-119.0L-132.0,-123.1L-131.7,-127.2L-131.3,-131.3L-130.8,-135.4L-130.2,-139.6L-129.5,-143.8L-128.6,-148.0L-127.7,-152.2L-126.7,-156.4L-43.2,-55.3L-43.8,-58.1L-44.3,-60.9L-44.7,-63.8L-45.0,-66.8L-45.3,-69.7L-45.4,-72.7L-45.5,-75.7L-45.5,-78.8L-45.3,-81.8L-45.1,-84.9L-44.8,-88.0L-44.4,-91.1L-43.9,-94.2L-43.3,-97.3L-42.6,-100.5L-41.9,-103.6L-41.0,-106.7L-40.0,-109.9L-38.9,-113.0L-37.7,-116.2L-36.5,-119.3L-35.1,-122.4L-33.6,-125.5L-32.1,-128.6L-30.4,-131.7L-28.6,-134.7L-26.8,-137.8L-24.8,-140.8L-22.8,-143.8L-20.6,-146.7L-18.4,-149.6L-16.0,-152.5L-13.6,-155.4L-11.1,-158.2L-8.4,-160.9L-5.7,-163.7L-2.9,-166.3L-0.0,-169.0L3.0,-171.5L6.1,-174.1L9.3,-176.5L12.5,-178.9L15.9,-181.3L19.3,-183.6L22.8,-185.8L26.4,-187.9L30.1,-190.0L33.9,-192.0L37.7,-193.9L41.6,-195.8L15.5,-67.2L17.3,-69.5L19.2,-71.7L21.2,-73.8L23.2,-75.9L25.3,-78.0L27.5,-80.0L29.8,-82.0L32.2,-83.9L34.6,-85.7L37.1,-87.5L39.7,-89.2L42.4,-90.8L45.1,-92.4L47.9,-93.9L50.7,-95.4L53.6,-96.8L56.6,-98.1L59.7,-99.3L62.8,-100.4L65.9,-101.5L69.1,-102.5L72.4,-103.4L75.7,-104.2L79.1,-105.0L82.5,-105.6L86.0,-106.2L89.5,-106.7L93.1,-107.0L96.6,-107.3L100.3,-107.5L103.9,-107.6L107.6,-107.6L111.4,-107.6L115.1,-107.4L118.9,-107.1L122.7,-106.7L126.6,-106.2L130.4,-105.6L134.3,-104.9L138.2,-104.1L142.1,-103.2L146.0,-102.2L149.9,-101.1L153.9,-99.9L157.8,-98.6L161.7,-97.2L165.6,-95.6L169.5,-94.0L173.5,-92.2L177.4,-90.4L181.2,-88.4L63.9,-29.8L66.8,-29.7L69.7,-29.6L72.6,-29.3L75.5,-29.0L78.5,-28.6L81.4,-28.0L84.4,-27.4L87.3,-26.7L90.3,-25.9L93.2,-25.0L96.2,-24.0L99.1,-22.9L102.0,-21.7L104.9,-20.4L107.8,-19.0L110.7,-17.5L113.6,-16.0L116.4,-14.3L119.3,-12.5L122.0,-10.7L124.8,-8.7L127.5,-6.7L130.2,-4.5L132.9,-2.3L135.5,-0.0Z" fill="none" stroke="#c6f3ee" stroke-width="1.5" stroke-linecap="round" opacity="0.25" filter="url(#tg)"/><path d="M135.5,0.0L138.1,2.4L140.6,4.9L143.1,7.5L145.6,10.2L148.0,12.9L150.3,15.8L152.6,18.7L154.8,21.8L157.0,24.9L159.1,28.0L161.1,31.3L163.1,34.7L165.0,38.1L166.8,41.6L168.6,45.2L170.3,48.8L171.9,52.5L173.4,56.3L174.9,60.2L176.2,64.1L177.5,68.1L178.7,72.2L179.8,76.3L180.8,80.5L181.8,84.8L62.4,30.4L64.1,32.7L65.9,35.0L67.5,37.4L69.1,39.9L70.6,42.4L72.1,45.0L73.5,47.7L74.8,50.4L76.0,53.2L77.2,56.1L78.3,59.0L79.3,61.9L80.2,64.9L81.0,68.0L81.8,71.1L82.5,74.3L83.1,77.5L83.6,80.7L84.0,84.0L84.3,87.3L84.6,90.7L84.7,94.1L84.8,97.5L84.7,101.0L84.6,104.5L84.3,108.0L84.0,111.5L83.6,115.0L83.1,118.6L82.4,122.2L81.7,125.8L80.9,129.4L79.9,133.0L78.9,136.7L77.8,140.3L76.5,143.9L75.2,147.6L73.7,151.2L72.2,154.8L70.5,158.4L68.8,162.0L66.9,165.6L64.9,169.2L62.9,172.7L60.7,176.3L58.4,179.8L56.0,183.3L53.5,186.7L50.9,190.1L48.2,193.5L45.4,196.9L14.7,69.3L14.0,72.1L13.2,74.9L12.3,77.7L11.3,80.5L10.2,83.2L9.0,86.0L7.8,88.7L6.4,91.5L4.9,94.1L3.4,96.8L1.7,99.5L0.0,102.1L-1.8,104.7L-3.7,107.2L-5.8,109.7L-7.8,112.2L-10.0,114.6L-12.3,117.0L-14.7,119.4L-17.1,121.7L-19.6,123.9L-22.2,126.1L-24.9,128.3L-27.7,130.4L-30.6,132.4L-33.5,134.4L-36.5,136.3L-39.6,138.1L-42.8,139.9L-46.0,141.6L-49.3,143.2L-52.7,144.8L-56.2,146.3L-59.7,147.7L-63.3,149.0L-66.9,150.3L-70.6,151.4L-74.4,152.5L-78.2,153.5L-82.1,154.4L-86.1,155.3L-90.1,156.0L-94.1,156.6L-98.2,157.2L-102.3,157.6L-106.5,157.9L-110.8,158.2L-115.0,158.3L-119.3,158.4L-123.7,158.3L-43.9,54.2L-46.5,55.4L-49.2,56.6L-51.9,57.6L-54.7,58.6L-57.5,59.5L-60.4,60.4L-63.3,61.1L-66.2,61.8L-69.2,62.3L-72.3,62.8L-75.4,63.2L-78.5,63.5L-81.6,63.8L-84.8,63.9L-88.0,63.9L-91.2,63.9L-94.5,63.7L-97.8,63.5L-101.1,63.2L-104.4,62.7L-107.7,62.2L-111.1,61.6L-114.4,60.8L-117.8,60.0L-121.1,59.1L-124.5,58.1L-127.9,56.9L-131.2,55.7L-134.6,54.4L-138.0,53.0L-141.3,51.4L-144.6,49.8L-148.0,48.1L-151.3,46.2L-154.6,44.3L-157.8,42.3L-161.1,40.2L-164.3,37.9L-167.4,35.6L-170.6,33.2L-173.7,30.6L-176.8,28.0L-179.8,25.3L-182.8,22.4L-185.8,19.5L-188.7,16.5L-191.5,13.4L-194.3,10.2L-197.1,6.9L-199.8,3.5L-68.6,0.0L-71.2,-1.2L-73.8,-2.6L-76.3,-4.0L-78.9,-5.5L-81.3,-7.1L-83.8,-8.8L-86.2,-10.6L-88.6,-12.4L-90.9,-14.4L-93.2,-16.4L-95.5,-18.6L-97.7,-20.8L-99.8,-23.0L-101.9,-25.4L-104.0,-27.9L-106.0,-30.4L-107.9,-33.0L-109.8,-35.7L-111.6,-38.4L-113.4,-41.3L-115.1,-44.2L-116.7,-47.1L-118.2,-50.2L-119.7,-53.3L-121.1,-56.5L-122.5,-59.7L-123.7,-63.0L-124.9,-66.4L-126.0,-69.8L-127.0,-73.3L-127.9,-76.9L-128.8,-80.5L-129.5,-84.1L-130.2,-87.8L-130.8,-91.6L-131.3,-95.4L-131.7,-99.2L-132.0,-103.1L-132.2,-107.0L-132.3,-111.0L-132.3,-115.0L-132.2,-119.0L-132.0,-123.1L-131.7,-127.2L-131.3,-131.3L-130.8,-135.4L-130.2,-139.6L-129.5,-143.8L-128.6,-148.0L-127.7,-152.2L-126.7,-156.4L-43.2,-55.3L-43.8,-58.1L-44.3,-60.9L-44.7,-63.8L-45.0,-66.8L-45.3,-69.7L-45.4,-72.7L-45.5,-75.7L-45.5,-78.8L-45.3,-81.8L-45.1,-84.9L-44.8,-88.0L-44.4,-91.1L-43.9,-94.2L-43.3,-97.3L-42.6,-100.5L-41.9,-103.6L-41.0,-106.7L-40.0,-109.9L-38.9,-113.0L-37.7,-116.2L-36.5,-119.3L-35.1,-122.4L-33.6,-125.5L-32.1,-128.6L-30.4,-131.7L-28.6,-134.7L-26.8,-137.8L-24.8,-140.8L-22.8,-143.8L-20.6,-146.7L-18.4,-149.6L-16.0,-152.5L-13.6,-155.4L-11.1,-158.2L-8.4,-160.9L-5.7,-163.7L-2.9,-166.3L-0.0,-169.0L3.0,-171.5L6.1,-174.1L9.3,-176.5L12.5,-178.9L15.9,-181.3L19.3,-183.6L22.8,-185.8L26.4,-187.9L30.1,-190.0L33.9,-192.0L37.7,-193.9L41.6,-195.8L15.5,-67.2L17.3,-69.5L19.2,-71.7L21.2,-73.8L23.2,-75.9L25.3,-78.0L27.5,-80.0L29.8,-82.0L32.2,-83.9L34.6,-85.7L37.1,-87.5L39.7,-89.2L42.4,-90.8L45.1,-92.4L47.9,-93.9L50.7,-95.4L53.6,-96.8L56.6,-98.1L59.7,-99.3L62.8,-100.4L65.9,-101.5L69.1,-102.5L72.4,-103.4L75.7,-104.2L79.1,-105.0L82.5,-105.6L86.0,-106.2L89.5,-106.7L93.1,-107.0L96.6,-107.3L100.3,-107.5L103.9,-107.6L107.6,-107.6L111.4,-107.6L115.1,-107.4L118.9,-107.1L122.7,-106.7L126.6,-106.2L130.4,-105.6L134.3,-104.9L138.2,-104.1L142.1,-103.2L146.0,-102.2L149.9,-101.1L153.9,-99.9L157.8,-98.6L161.7,-97.2L165.6,-95.6L169.5,-94.0L173.5,-92.2L177.4,-90.4L181.2,-88.4L63.9,-29.8L66.8,-29.7L69.7,-29.6L72.6,-29.3L75.5,-29.0L78.5,-28.6L81.4,-28.0L84.4,-27.4L87.3,-26.7L90.3,-25.9L93.2,-25.0L96.2,-24.0L99.1,-22.9L102.0,-21.7L104.9,-20.4L107.8,-19.0L110.7,-17.5L113.6,-16.0L116.4,-14.3L119.3,-12.5L122.0,-10.7L124.8,-8.7L127.5,-6.7L130.2,-4.5L132.9,-2.3L135.5,-0.0Z" fill="none" stroke="#c6f3ee" stroke-width="0.5" stroke-linecap="round" opacity="0.95"/><path d="M137.2,0.0L139.8,2.4L142.3,5.0L144.8,7.6L147.2,10.3L149.6,13.1L152.0,16.0L154.2,18.9L156.5,22.0L158.6,25.1L160.7,28.3L162.8,31.6L164.7,35.0L166.6,38.5L168.5,42.0L170.2,45.6L171.9,49.3L173.5,53.0L175.0,56.9L176.5,60.8L177.8,64.7L179.1,68.7L56.2,22.7L58.2,24.7L60.2,26.8L62.0,28.9L63.9,31.2L65.6,33.4L67.3,35.8L69.0,38.2L70.6,40.7L72.1,43.3L73.5,45.9L74.9,48.6L76.2,51.4L77.4,54.2L78.5,57.1L79.6,60.0L80.6,63.0L81.5,66.0L82.3,69.1L83.1,72.2L83.7,75.4L84.3,78.6L84.8,81.9L85.2,85.2L85.5,88.5L85.7,91.9L85.8,95.3L85.9,98.8L85.8,102.3L85.6,105.8L85.4,109.3L85.0,112.8L84.6,116.4L84.0,120.0L83.4,123.6L82.6,127.2L81.8,130.8L80.8,134.5L79.7,138.1L78.6,141.8L77.3,145.4L76.0,149.1L74.5,152.7L72.9,156.3L71.2,160.0L69.4,163.6L67.5,167.2L65.5,170.8L63.4,174.3L61.2,177.9L58.9,181.4L17.4,56.9L17.1,59.7L16.8,62.5L16.3,65.3L15.7,68.2L15.1,71.0L14.3,73.8L13.5,76.6L12.6,79.4L11.5,82.1L10.4,84.9L9.2,87.7L7.9,90.4L6.5,93.1L5.0,95.8L3.4,98.5L1.8,101.1L0.0,103.8L-1.9,106.3L-3.8,108.9L-5.8,111.4L-8.0,113.9L-10.2,116.3L-12.5,118.7L-14.9,121.1L-17.3,123.4L-19.9,125.6L-22.5,127.8L-25.3,129.9L-28.1,132.0L-30.9,134.0L-33.9,136.0L-37.0,137.9L-40.1,139.7L-43.3,141.5L-46.5,143.2L-49.9,144.8L-53.3,146.4L-56.8,147.9L-60.3,149.3L-63.9,150.6L-67.6,151.8L-71.3,153.0L-75.1,154.0L-79.0,155.0L-82.9,155.9L-86.9,156.7L-90.9,157.4L-95.0,158.1L-99.1,158.6L-103.3,159.0L-32.7,48.4L-35.0,50.0L-37.4,51.5L-39.9,52.9L-42.4,54.2L-45.0,55.5L-47.6,56.7L-50.3,57.8L-53.0,58.9L-55.8,59.9L-58.7,60.7L-61.5,61.5L-64.5,62.3L-67.5,62.9L-70.5,63.5L-73.5,63.9L-76.6,64.3L-79.8,64.6L-82.9,64.8L-86.1,64.9L-89.4,64.9L-92.6,64.8L-95.9,64.7L-99.2,64.4L-102.5,64.0L-105.8,63.6L-109.2,63.0L-112.5,62.4L-115.9,61.6L-119.3,60.8L-122.6,59.8L-126.0,58.8L-129.4,57.6L-132.8,56.4L-136.2,55.0L-139.5,53.6L-142.9,52.0L-146.2,50.4L-149.6,48.6L-152.9,46.7L-156.2,44.8L-159.4,42.7L-162.7,40.6L-165.9,38.3L-169.1,35.9L-172.2,33.5L-175.4,30.9L-178.4,28.3L-181.5,25.5L-184.5,22.7L-187.4,19.7L-190.4,16.7L-59.8,4.2L-62.4,3.3L-65.1,2.3L-67.7,1.2L-70.3,0.0L-72.9,-1.3L-75.5,-2.6L-78.0,-4.1L-80.5,-5.6L-83.0,-7.3L-85.5,-9.0L-87.9,-10.8L-90.2,-12.7L-92.6,-14.7L-94.9,-16.7L-97.1,-18.9L-99.3,-21.1L-101.5,-23.4L-103.6,-25.8L-105.6,-28.3L-107.6,-30.9L-109.5,-33.5L-111.4,-36.2L-113.2,-39.0L-115.0,-41.8L-116.6,-44.8L-118.3,-47.8L-119.8,-50.9L-121.3,-54.0L-122.7,-57.2L-124.0,-60.5L-125.2,-63.8L-126.4,-67.2L-127.5,-70.7L-128.5,-74.2L-129.4,-77.7L-130.2,-81.4L-131.0,-85.0L-131.6,-88.8L-132.2,-92.5L-132.6,-96.4L-133.0,-100.2L-133.3,-104.1L-133.5,-108.1L-133.6,-112.1L-133.6,-116.1L-133.4,-120.1L-133.2,-124.2L-132.9,-128.3L-132.5,-132.5L-132.0,-136.6L-40.1,-43.0L-41.1,-45.6L-42.0,-48.3L-42.8,-51.0L-43.6,-53.8L-44.2,-56.6L-44.8,-59.4L-45.3,-62.3L-45.7,-65.2L-46.0,-68.2L-46.2,-71.1L-46.3,-74.1L-46.4,-77.2L-46.3,-80.2L-46.2,-83.3L-45.9,-86.4L-45.6,-89.5L-45.2,-92.6L-44.6,-95.7L-44.0,-98.9L-43.3,-102.0L-42.5,-105.2L-41.6,-108.3L-40.6,-111.5L-39.5,-114.6L-38.3,-117.8L-37.0,-120.9L-35.6,-124.0L-34.1,-127.1L-32.5,-130.2L-30.8,-133.3L-29.0,-136.4L-27.1,-139.4L-25.1,-142.4L-23.0,-145.4L-20.9,-148.4L-18.6,-151.3L-16.2,-154.2L-13.7,-157.0L-11.2,-159.8L-8.5,-162.6L-5.8,-165.3L-2.9,-168.0L-0.0,-170.6L3.0,-173.2L6.1,-175.7L9.3,-178.2L12.6,-180.6L16.0,-182.9L19.5,-185.2L23.0,-187.4L26.6,-189.6L9.4,-59.5L10.9,-61.9L12.5,-64.3L14.2,-66.6L15.9,-68.9L17.7,-71.1L19.6,-73.3L21.6,-75.5L23.7,-77.6L25.9,-79.6L28.1,-81.6L30.4,-83.5L32.8,-85.4L35.3,-87.2L37.8,-89.0L40.4,-90.7L43.1,-92.4L45.8,-93.9L48.6,-95.4L51.5,-96.9L54.4,-98.2L57.5,-99.5L60.5,-100.7L63.6,-101.9L66.8,-102.9L70.1,-103.9L73.4,-104.8L76.7,-105.6L80.1,-106.3L83.6,-106.9L87.0,-107.5L90.6,-107.9L94.2,-108.3L97.8,-108.6L101.4,-108.8L105.1,-108.9L108.8,-108.8L112.6,-108.7L116.4,-108.5L120.2,-108.2L124.0,-107.8L127.9,-107.3L131.7,-106.7L135.6,-106.0L139.5,-105.2L143.5,-104.2L147.4,-103.2L151.3,-102.1L155.3,-100.8L159.2,-99.5L163.1,-98.0L51.2,-29.6L54.0,-29.9L56.8,-30.2L59.7,-30.4L62.5,-30.5L65.4,-30.5L68.3,-30.4L71.2,-30.2L74.2,-30.0L77.1,-29.6L80.0,-29.1L83.0,-28.6L86.0,-27.9L88.9,-27.2L91.9,-26.3L94.8,-25.4L97.8,-24.4L100.7,-23.3L103.7,-22.0L106.6,-20.7L109.5,-19.3L112.4,-17.8L115.3,-16.2L118.1,-14.5L120.9,-12.7L123.7,-10.8L126.5,-8.8L129.2,-6.8L131.9,-4.6L134.6,-2.3L137.2,-0.0Z" fill="none" stroke="#caf1ef" stroke-width="1.5" stroke-linecap="round" opacity="0.25" filter="url(#tg)"/><path d="M137.2,0.0L139.8,2.4L142.3,5.0L144.8,7.6L147.2,10.3L149.6,13.1L152.0,16.0L154.2,18.9L156.5,22.0L158.6,25.1L160.7,28.3L162.8,31.6L164.7,35.0L166.6,38.5L168.5,42.0L170.2,45.6L171.9,49.3L173.5,53.0L175.0,56.9L176.5,60.8L177.8,64.7L179.1,68.7L56.2,22.7L58.2,24.7L60.2,26.8L62.0,28.9L63.9,31.2L65.6,33.4L67.3,35.8L69.0,38.2L70.6,40.7L72.1,43.3L73.5,45.9L74.9,48.6L76.2,51.4L77.4,54.2L78.5,57.1L79.6,60.0L80.6,63.0L81.5,66.0L82.3,69.1L83.1,72.2L83.7,75.4L84.3,78.6L84.8,81.9L85.2,85.2L85.5,88.5L85.7,91.9L85.8,95.3L85.9,98.8L85.8,102.3L85.6,105.8L85.4,109.3L85.0,112.8L84.6,116.4L84.0,120.0L83.4,123.6L82.6,127.2L81.8,130.8L80.8,134.5L79.7,138.1L78.6,141.8L77.3,145.4L76.0,149.1L74.5,152.7L72.9,156.3L71.2,160.0L69.4,163.6L67.5,167.2L65.5,170.8L63.4,174.3L61.2,177.9L58.9,181.4L17.4,56.9L17.1,59.7L16.8,62.5L16.3,65.3L15.7,68.2L15.1,71.0L14.3,73.8L13.5,76.6L12.6,79.4L11.5,82.1L10.4,84.9L9.2,87.7L7.9,90.4L6.5,93.1L5.0,95.8L3.4,98.5L1.8,101.1L0.0,103.8L-1.9,106.3L-3.8,108.9L-5.8,111.4L-8.0,113.9L-10.2,116.3L-12.5,118.7L-14.9,121.1L-17.3,123.4L-19.9,125.6L-22.5,127.8L-25.3,129.9L-28.1,132.0L-30.9,134.0L-33.9,136.0L-37.0,137.9L-40.1,139.7L-43.3,141.5L-46.5,143.2L-49.9,144.8L-53.3,146.4L-56.8,147.9L-60.3,149.3L-63.9,150.6L-67.6,151.8L-71.3,153.0L-75.1,154.0L-79.0,155.0L-82.9,155.9L-86.9,156.7L-90.9,157.4L-95.0,158.1L-99.1,158.6L-103.3,159.0L-32.7,48.4L-35.0,50.0L-37.4,51.5L-39.9,52.9L-42.4,54.2L-45.0,55.5L-47.6,56.7L-50.3,57.8L-53.0,58.9L-55.8,59.9L-58.7,60.7L-61.5,61.5L-64.5,62.3L-67.5,62.9L-70.5,63.5L-73.5,63.9L-76.6,64.3L-79.8,64.6L-82.9,64.8L-86.1,64.9L-89.4,64.9L-92.6,64.8L-95.9,64.7L-99.2,64.4L-102.5,64.0L-105.8,63.6L-109.2,63.0L-112.5,62.4L-115.9,61.6L-119.3,60.8L-122.6,59.8L-126.0,58.8L-129.4,57.6L-132.8,56.4L-136.2,55.0L-139.5,53.6L-142.9,52.0L-146.2,50.4L-149.6,48.6L-152.9,46.7L-156.2,44.8L-159.4,42.7L-162.7,40.6L-165.9,38.3L-169.1,35.9L-172.2,33.5L-175.4,30.9L-178.4,28.3L-181.5,25.5L-184.5,22.7L-187.4,19.7L-190.4,16.7L-59.8,4.2L-62.4,3.3L-65.1,2.3L-67.7,1.2L-70.3,0.0L-72.9,-1.3L-75.5,-2.6L-78.0,-4.1L-80.5,-5.6L-83.0,-7.3L-85.5,-9.0L-87.9,-10.8L-90.2,-12.7L-92.6,-14.7L-94.9,-16.7L-97.1,-18.9L-99.3,-21.1L-101.5,-23.4L-103.6,-25.8L-105.6,-28.3L-107.6,-30.9L-109.5,-33.5L-111.4,-36.2L-113.2,-39.0L-115.0,-41.8L-116.6,-44.8L-118.3,-47.8L-119.8,-50.9L-121.3,-54.0L-122.7,-57.2L-124.0,-60.5L-125.2,-63.8L-126.4,-67.2L-127.5,-70.7L-128.5,-74.2L-129.4,-77.7L-130.2,-81.4L-131.0,-85.0L-131.6,-88.8L-132.2,-92.5L-132.6,-96.4L-133.0,-100.2L-133.3,-104.1L-133.5,-108.1L-133.6,-112.1L-133.6,-116.1L-133.4,-120.1L-133.2,-124.2L-132.9,-128.3L-132.5,-132.5L-132.0,-136.6L-40.1,-43.0L-41.1,-45.6L-42.0,-48.3L-42.8,-51.0L-43.6,-53.8L-44.2,-56.6L-44.8,-59.4L-45.3,-62.3L-45.7,-65.2L-46.0,-68.2L-46.2,-71.1L-46.3,-74.1L-46.4,-77.2L-46.3,-80.2L-46.2,-83.3L-45.9,-86.4L-45.6,-89.5L-45.2,-92.6L-44.6,-95.7L-44.0,-98.9L-43.3,-102.0L-42.5,-105.2L-41.6,-108.3L-40.6,-111.5L-39.5,-114.6L-38.3,-117.8L-37.0,-120.9L-35.6,-124.0L-34.1,-127.1L-32.5,-130.2L-30.8,-133.3L-29.0,-136.4L-27.1,-139.4L-25.1,-142.4L-23.0,-145.4L-20.9,-148.4L-18.6,-151.3L-16.2,-154.2L-13.7,-157.0L-11.2,-159.8L-8.5,-162.6L-5.8,-165.3L-2.9,-168.0L-0.0,-170.6L3.0,-173.2L6.1,-175.7L9.3,-178.2L12.6,-180.6L16.0,-182.9L19.5,-185.2L23.0,-187.4L26.6,-189.6L9.4,-59.5L10.9,-61.9L12.5,-64.3L14.2,-66.6L15.9,-68.9L17.7,-71.1L19.6,-73.3L21.6,-75.5L23.7,-77.6L25.9,-79.6L28.1,-81.6L30.4,-83.5L32.8,-85.4L35.3,-87.2L37.8,-89.0L40.4,-90.7L43.1,-92.4L45.8,-93.9L48.6,-95.4L51.5,-96.9L54.4,-98.2L57.5,-99.5L60.5,-100.7L63.6,-101.9L66.8,-102.9L70.1,-103.9L73.4,-104.8L76.7,-105.6L80.1,-106.3L83.6,-106.9L87.0,-107.5L90.6,-107.9L94.2,-108.3L97.8,-108.6L101.4,-108.8L105.1,-108.9L108.8,-108.8L112.6,-108.7L116.4,-108.5L120.2,-108.2L124.0,-107.8L127.9,-107.3L131.7,-106.7L135.6,-106.0L139.5,-105.2L143.5,-104.2L147.4,-103.2L151.3,-102.1L155.3,-100.8L159.2,-99.5L163.1,-98.0L51.2,-29.6L54.0,-29.9L56.8,-30.2L59.7,-30.4L62.5,-30.5L65.4,-30.5L68.3,-30.4L71.2,-30.2L74.2,-30.0L77.1,-29.6L80.0,-29.1L83.0,-28.6L86.0,-27.9L88.9,-27.2L91.9,-26.3L94.8,-25.4L97.8,-24.4L100.7,-23.3L103.7,-22.0L106.6,-20.7L109.5,-19.3L112.4,-17.8L115.3,-16.2L118.1,-14.5L120.9,-12.7L123.7,-10.8L126.5,-8.8L129.2,-6.8L131.9,-4.6L134.6,-2.3L137.2,-0.0Z" fill="none" stroke="#caf1ef" stroke-width="0.5" stroke-linecap="round" opacity="0.95"/><path d="M138.9,0.0L141.5,2.5L144.0,5.0L146.5,7.7L148.9,10.4L151.3,13.2L153.6,16.1L155.9,19.1L158.1,22.2L160.3,25.4L162.4,28.6L164.4,32.0L166.4,35.4L168.3,38.8L170.1,42.4L171.8,46.0L173.5,49.8L47.2,14.4L49.4,16.1L51.6,17.8L53.7,19.5L55.8,21.4L57.8,23.4L59.8,25.4L61.7,27.5L63.6,29.6L65.4,31.9L67.1,34.2L68.8,36.6L70.5,39.1L72.0,41.6L73.5,44.2L74.9,46.8L76.3,49.5L77.6,52.3L78.8,55.2L79.9,58.0L80.9,61.0L81.9,64.0L82.8,67.1L83.6,70.2L84.3,73.3L85.0,76.5L85.5,79.8L86.0,83.1L86.4,86.4L86.7,89.7L86.9,93.1L87.0,96.6L87.0,100.0L86.9,103.5L86.7,107.1L86.4,110.6L86.0,114.2L85.6,117.8L85.0,121.4L84.3,125.0L83.5,128.6L82.7,132.3L81.7,135.9L80.6,139.6L79.4,143.2L78.1,146.9L76.7,150.6L75.2,154.2L73.6,157.9L71.9,161.5L70.1,165.1L18.1,44.7L18.2,47.4L18.3,50.2L18.2,53.0L18.1,55.8L17.9,58.6L17.6,61.4L17.2,64.2L16.7,67.0L16.1,69.8L15.4,72.6L14.7,75.4L13.8,78.2L12.8,81.0L11.8,83.8L10.6,86.6L9.4,89.3L8.1,92.1L6.6,94.8L5.1,97.5L3.5,100.2L1.8,102.8L0.0,105.4L-1.9,108.0L-3.9,110.6L-5.9,113.1L-8.1,115.6L-10.3,118.0L-12.7,120.4L-15.1,122.7L-17.6,125.0L-20.2,127.3L-22.8,129.5L-25.6,131.6L-28.4,133.7L-31.3,135.7L-34.3,137.6L-37.4,139.5L-40.5,141.4L-43.8,143.1L-47.1,144.8L-50.4,146.4L-53.9,148.0L-57.4,149.4L-60.9,150.8L-64.6,152.1L-68.3,153.4L-72.0,154.5L-75.9,155.6L-79.8,156.5L-83.7,157.4L-87.7,158.2L-24.9,43.1L-26.9,44.8L-29.1,46.6L-31.3,48.2L-33.6,49.8L-36.0,51.4L-38.4,52.8L-40.9,54.2L-43.4,55.6L-46.0,56.8L-48.7,58.0L-51.4,59.1L-54.1,60.1L-57.0,61.1L-59.8,62.0L-62.7,62.7L-65.7,63.4L-68.7,64.1L-71.7,64.6L-74.8,65.0L-77.9,65.4L-81.1,65.7L-84.3,65.8L-87.5,65.9L-90.7,65.9L-94.0,65.8L-97.3,65.6L-100.6,65.3L-103.9,64.9L-107.3,64.4L-110.6,63.9L-114.0,63.2L-117.4,62.4L-120.8,61.5L-124.2,60.6L-127.6,59.5L-130.9,58.3L-134.3,57.0L-137.7,55.6L-141.1,54.2L-144.5,52.6L-147.8,50.9L-151.2,49.1L-154.5,47.2L-157.8,45.2L-161.1,43.2L-164.3,41.0L-167.5,38.7L-170.7,36.3L-173.9,33.8L-177.0,31.2L-48.0,7.6L-50.7,7.1L-53.4,6.6L-56.1,5.9L-58.8,5.1L-61.4,4.3L-64.1,3.4L-66.8,2.3L-69.4,1.2L-72.0,0.0L-74.6,-1.3L-77.2,-2.7L-79.7,-4.2L-82.2,-5.7L-84.7,-7.4L-87.1,-9.2L-89.5,-11.0L-91.9,-12.9L-94.2,-14.9L-96.5,-17.0L-98.8,-19.2L-101.0,-21.5L-103.1,-23.8L-105.2,-26.2L-107.2,-28.7L-109.2,-31.3L-111.1,-34.0L-113.0,-36.7L-114.8,-39.5L-116.5,-42.4L-118.2,-45.4L-119.8,-48.4L-121.3,-51.5L-122.8,-54.7L-124.2,-57.9L-125.5,-61.2L-126.7,-64.6L-127.9,-68.0L-128.9,-71.5L-129.9,-75.0L-130.8,-78.6L-131.6,-82.3L-132.4,-86.0L-133.0,-89.7L-133.6,-93.5L-134.0,-97.4L-134.4,-101.2L-134.6,-105.2L-134.8,-109.1L-134.9,-113.2L-134.8,-117.2L-134.7,-121.3L-36.6,-34.2L-37.9,-36.6L-39.1,-39.1L-40.2,-41.6L-41.3,-44.2L-42.2,-46.9L-43.1,-49.6L-43.9,-52.3L-44.6,-55.1L-45.2,-57.9L-45.8,-60.8L-46.3,-63.7L-46.6,-66.6L-46.9,-69.6L-47.1,-72.5L-47.2,-75.6L-47.2,-78.6L-47.1,-81.7L-47.0,-84.7L-46.7,-87.9L-46.4,-91.0L-45.9,-94.1L-45.3,-97.2L-44.7,-100.4L-44.0,-103.6L-43.1,-106.7L-42.2,-109.9L-41.1,-113.1L-40.0,-116.2L-38.8,-119.4L-37.5,-122.5L-36.0,-125.6L-34.5,-128.8L-32.9,-131.9L-31.2,-135.0L-29.3,-138.0L-27.4,-141.1L-25.4,-144.1L-23.3,-147.1L-21.1,-150.0L-18.8,-153.0L-16.4,-155.9L-13.9,-158.7L-11.3,-161.5L-8.6,-164.3L-5.8,-167.0L-3.0,-169.7L-0.0,-172.3L3.1,-174.9L6.2,-177.4L9.4,-179.9L3.4,-48.8L4.5,-51.4L5.7,-53.9L6.9,-56.3L8.3,-58.8L9.7,-61.2L11.2,-63.6L12.8,-65.9L14.5,-68.2L16.3,-70.5L18.1,-72.7L20.1,-74.9L22.1,-77.1L24.2,-79.2L26.4,-81.2L28.6,-83.2L31.0,-85.1L33.4,-87.0L35.9,-88.8L38.4,-90.6L41.1,-92.3L43.8,-93.9L46.5,-95.4L49.4,-96.9L52.3,-98.4L55.3,-99.7L58.3,-101.0L61.4,-102.2L64.5,-103.3L67.7,-104.3L71.0,-105.3L74.3,-106.2L77.7,-106.9L81.1,-107.7L84.6,-108.3L88.1,-108.8L91.7,-109.2L95.3,-109.6L98.9,-109.8L102.6,-110.0L106.3,-110.1L110.0,-110.0L113.8,-109.9L117.6,-109.7L121.4,-109.3L125.3,-108.9L129.2,-108.4L133.1,-107.7L137.0,-107.0L140.9,-106.2L144.8,-105.2L148.8,-104.2L41.8,-28.2L44.5,-28.9L47.2,-29.5L49.9,-30.0L52.7,-30.4L55.5,-30.8L58.3,-31.0L61.2,-31.2L64.0,-31.2L66.9,-31.2L69.9,-31.1L72.8,-30.9L75.7,-30.6L78.7,-30.2L81.6,-29.7L84.6,-29.1L87.6,-28.5L90.5,-27.7L93.5,-26.8L96.5,-25.8L99.4,-24.8L102.4,-23.6L105.3,-22.4L108.2,-21.0L111.2,-19.6L114.1,-18.1L116.9,-16.4L119.8,-14.7L122.6,-12.9L125.4,-11.0L128.2,-9.0L130.9,-6.9L133.6,-4.7L136.3,-2.4L138.9,-0.0Z" fill="none" stroke="#cdf0f0" stroke-width="1.5" stroke-linecap="round" opacity="0.25" filter="url(#tg)"/><path d="M138.9,0.0L141.5,2.5L144.0,5.0L146.5,7.7L148.9,10.4L151.3,13.2L153.6,16.1L155.9,19.1L158.1,22.2L160.3,25.4L162.4,28.6L164.4,32.0L166.4,35.4L168.3,38.8L170.1,42.4L171.8,46.0L173.5,49.8L47.2,14.4L49.4,16.1L51.6,17.8L53.7,19.5L55.8,21.4L57.8,23.4L59.8,25.4L61.7,27.5L63.6,29.6L65.4,31.9L67.1,34.2L68.8,36.6L70.5,39.1L72.0,41.6L73.5,44.2L74.9,46.8L76.3,49.5L77.6,52.3L78.8,55.2L79.9,58.0L80.9,61.0L81.9,64.0L82.8,67.1L83.6,70.2L84.3,73.3L85.0,76.5L85.5,79.8L86.0,83.1L86.4,86.4L86.7,89.7L86.9,93.1L87.0,96.6L87.0,100.0L86.9,103.5L86.7,107.1L86.4,110.6L86.0,114.2L85.6,117.8L85.0,121.4L84.3,125.0L83.5,128.6L82.7,132.3L81.7,135.9L80.6,139.6L79.4,143.2L78.1,146.9L76.7,150.6L75.2,154.2L73.6,157.9L71.9,161.5L70.1,165.1L18.1,44.7L18.2,47.4L18.3,50.2L18.2,53.0L18.1,55.8L17.9,58.6L17.6,61.4L17.2,64.2L16.7,67.0L16.1,69.8L15.4,72.6L14.7,75.4L13.8,78.2L12.8,81.0L11.8,83.8L10.6,86.6L9.4,89.3L8.1,92.1L6.6,94.8L5.1,97.5L3.5,100.2L1.8,102.8L0.0,105.4L-1.9,108.0L-3.9,110.6L-5.9,113.1L-8.1,115.6L-10.3,118.0L-12.7,120.4L-15.1,122.7L-17.6,125.0L-20.2,127.3L-22.8,129.5L-25.6,131.6L-28.4,133.7L-31.3,135.7L-34.3,137.6L-37.4,139.5L-40.5,141.4L-43.8,143.1L-47.1,144.8L-50.4,146.4L-53.9,148.0L-57.4,149.4L-60.9,150.8L-64.6,152.1L-68.3,153.4L-72.0,154.5L-75.9,155.6L-79.8,156.5L-83.7,157.4L-87.7,158.2L-24.9,43.1L-26.9,44.8L-29.1,46.6L-31.3,48.2L-33.6,49.8L-36.0,51.4L-38.4,52.8L-40.9,54.2L-43.4,55.6L-46.0,56.8L-48.7,58.0L-51.4,59.1L-54.1,60.1L-57.0,61.1L-59.8,62.0L-62.7,62.7L-65.7,63.4L-68.7,64.1L-71.7,64.6L-74.8,65.0L-77.9,65.4L-81.1,65.7L-84.3,65.8L-87.5,65.9L-90.7,65.9L-94.0,65.8L-97.3,65.6L-100.6,65.3L-103.9,64.9L-107.3,64.4L-110.6,63.9L-114.0,63.2L-117.4,62.4L-120.8,61.5L-124.2,60.6L-127.6,59.5L-130.9,58.3L-134.3,57.0L-137.7,55.6L-141.1,54.2L-144.5,52.6L-147.8,50.9L-151.2,49.1L-154.5,47.2L-157.8,45.2L-161.1,43.2L-164.3,41.0L-167.5,38.7L-170.7,36.3L-173.9,33.8L-177.0,31.2L-48.0,7.6L-50.7,7.1L-53.4,6.6L-56.1,5.9L-58.8,5.1L-61.4,4.3L-64.1,3.4L-66.8,2.3L-69.4,1.2L-72.0,0.0L-74.6,-1.3L-77.2,-2.7L-79.7,-4.2L-82.2,-5.7L-84.7,-7.4L-87.1,-9.2L-89.5,-11.0L-91.9,-12.9L-94.2,-14.9L-96.5,-17.0L-98.8,-19.2L-101.0,-21.5L-103.1,-23.8L-105.2,-26.2L-107.2,-28.7L-109.2,-31.3L-111.1,-34.0L-113.0,-36.7L-114.8,-39.5L-116.5,-42.4L-118.2,-45.4L-119.8,-48.4L-121.3,-51.5L-122.8,-54.7L-124.2,-57.9L-125.5,-61.2L-126.7,-64.6L-127.9,-68.0L-128.9,-71.5L-129.9,-75.0L-130.8,-78.6L-131.6,-82.3L-132.4,-86.0L-133.0,-89.7L-133.6,-93.5L-134.0,-97.4L-134.4,-101.2L-134.6,-105.2L-134.8,-109.1L-134.9,-113.2L-134.8,-117.2L-134.7,-121.3L-36.6,-34.2L-37.9,-36.6L-39.1,-39.1L-40.2,-41.6L-41.3,-44.2L-42.2,-46.9L-43.1,-49.6L-43.9,-52.3L-44.6,-55.1L-45.2,-57.9L-45.8,-60.8L-46.3,-63.7L-46.6,-66.6L-46.9,-69.6L-47.1,-72.5L-47.2,-75.6L-47.2,-78.6L-47.1,-81.7L-47.0,-84.7L-46.7,-87.9L-46.4,-91.0L-45.9,-94.1L-45.3,-97.2L-44.7,-100.4L-44.0,-103.6L-43.1,-106.7L-42.2,-109.9L-41.1,-113.1L-40.0,-116.2L-38.8,-119.4L-37.5,-122.5L-36.0,-125.6L-34.5,-128.8L-32.9,-131.9L-31.2,-135.0L-29.3,-138.0L-27.4,-141.1L-25.4,-144.1L-23.3,-147.1L-21.1,-150.0L-18.8,-153.0L-16.4,-155.9L-13.9,-158.7L-11.3,-161.5L-8.6,-164.3L-5.8,-167.0L-3.0,-169.7L-0.0,-172.3L3.1,-174.9L6.2,-177.4L9.4,-179.9L3.4,-48.8L4.5,-51.4L5.7,-53.9L6.9,-56.3L8.3,-58.8L9.7,-61.2L11.2,-63.6L12.8,-65.9L14.5,-68.2L16.3,-70.5L18.1,-72.7L20.1,-74.9L22.1,-77.1L24.2,-79.2L26.4,-81.2L28.6,-83.2L31.0,-85.1L33.4,-87.0L35.9,-88.8L38.4,-90.6L41.1,-92.3L43.8,-93.9L46.5,-95.4L49.4,-96.9L52.3,-98.4L55.3,-99.7L58.3,-101.0L61.4,-102.2L64.5,-103.3L67.7,-104.3L71.0,-105.3L74.3,-106.2L77.7,-106.9L81.1,-107.7L84.6,-108.3L88.1,-108.8L91.7,-109.2L95.3,-109.6L98.9,-109.8L102.6,-110.0L106.3,-110.1L110.0,-110.0L113.8,-109.9L117.6,-109.7L121.4,-109.3L125.3,-108.9L129.2,-108.4L133.1,-107.7L137.0,-107.0L140.9,-106.2L144.8,-105.2L148.8,-104.2L41.8,-28.2L44.5,-28.9L47.2,-29.5L49.9,-30.0L52.7,-30.4L55.5,-30.8L58.3,-31.0L61.2,-31.2L64.0,-31.2L66.9,-31.2L69.9,-31.1L72.8,-30.9L75.7,-30.6L78.7,-30.2L81.6,-29.7L84.6,-29.1L87.6,-28.5L90.5,-27.7L93.5,-26.8L96.5,-25.8L99.4,-24.8L102.4,-23.6L105.3,-22.4L108.2,-21.0L111.2,-19.6L114.1,-18.1L116.9,-16.4L119.8,-14.7L122.6,-12.9L125.4,-11.0L128.2,-9.0L130.9,-6.9L133.6,-4.7L136.3,-2.4L138.9,-0.0Z" fill="none" stroke="#cdf0f0" stroke-width="0.5" stroke-linecap="round" opacity="0.95"/><path d="M140.6,0.0L143.1,2.5L145.7,5.1L148.2,7.8L150.6,10.5L153.0,13.4L155.3,16.3L157.6,19.3L159.8,22.5L162.0,25.7L164.0,28.9L166.1,32.3L37.2,7.9L39.6,9.1L41.9,10.5L44.3,11.9L46.5,13.3L48.8,14.9L51.0,16.6L53.2,18.3L55.3,20.1L57.3,22.0L59.4,24.0L61.3,26.0L63.2,28.2L65.1,30.4L66.9,32.6L68.6,35.0L70.3,37.4L71.9,39.9L73.5,42.4L74.9,45.0L76.4,47.7L77.7,50.5L79.0,53.3L80.1,56.1L81.3,59.0L82.3,62.0L83.2,65.0L84.1,68.1L84.9,71.2L85.6,74.4L86.2,77.6L86.8,80.9L87.2,84.2L87.6,87.6L87.8,91.0L88.0,94.4L88.1,97.8L88.1,101.3L88.0,104.8L87.8,108.4L87.5,111.9L87.1,115.5L86.6,119.1L86.0,122.8L85.3,126.4L84.4,130.0L83.5,133.7L82.5,137.4L81.4,141.0L80.2,144.7L78.9,148.4L77.5,152.1L17.3,35.5L17.8,38.2L18.2,40.8L18.5,43.5L18.7,46.3L18.8,49.0L18.8,51.8L18.8,54.6L18.6,57.4L18.4,60.2L18.1,63.0L17.6,65.8L17.1,68.6L16.5,71.4L15.8,74.3L15.0,77.1L14.1,79.9L13.1,82.7L12.0,85.5L10.8,88.3L9.6,91.0L8.2,93.8L6.7,96.5L5.2,99.2L3.6,101.9L1.8,104.5L0.0,107.1L-1.9,109.7L-3.9,112.3L-6.0,114.8L-8.2,117.2L-10.5,119.7L-12.8,122.1L-15.3,124.4L-17.8,126.7L-20.4,128.9L-23.1,131.1L-25.9,133.2L-28.8,135.3L-31.7,137.3L-34.7,139.3L-37.8,141.2L-41.0,143.0L-44.2,144.7L-47.6,146.4L-51.0,148.0L-54.4,149.5L-58.0,151.0L-61.6,152.4L-65.2,153.7L-69.0,154.9L-16.2,34.8L-18.0,36.8L-19.8,38.8L-21.7,40.8L-23.7,42.7L-25.7,44.5L-27.8,46.3L-30.0,48.0L-32.2,49.6L-34.6,51.2L-36.9,52.8L-39.4,54.2L-41.9,55.6L-44.5,56.9L-47.1,58.1L-49.8,59.3L-52.5,60.4L-55.3,61.4L-58.1,62.3L-61.0,63.2L-63.9,63.9L-66.9,64.6L-69.9,65.2L-73.0,65.7L-76.1,66.1L-79.2,66.5L-82.4,66.7L-85.6,66.9L-88.8,66.9L-92.1,66.9L-95.4,66.8L-98.7,66.6L-102.0,66.2L-105.3,65.8L-108.7,65.3L-112.1,64.7L-115.5,64.0L-118.9,63.2L-122.3,62.3L-125.7,61.3L-129.1,60.2L-132.5,59.0L-135.9,57.7L-139.3,56.3L-142.7,54.8L-146.1,53.2L-149.4,51.4L-152.8,49.6L-156.1,47.7L-159.4,45.7L-162.7,43.6L-166.0,41.4L-38.9,9.0L-41.5,8.8L-44.2,8.6L-47.0,8.3L-49.7,7.9L-52.4,7.4L-55.1,6.8L-57.8,6.1L-60.4,5.3L-63.1,4.4L-65.8,3.4L-68.4,2.4L-71.1,1.2L-73.7,0.0L-76.3,-1.3L-78.8,-2.8L-81.4,-4.3L-83.9,-5.9L-86.4,-7.6L-88.8,-9.3L-91.2,-11.2L-93.6,-13.2L-95.9,-15.2L-98.2,-17.3L-100.4,-19.5L-102.6,-21.8L-104.7,-24.2L-106.8,-26.6L-108.9,-29.2L-110.8,-31.8L-112.7,-34.5L-114.6,-37.2L-116.4,-40.1L-118.1,-43.0L-119.8,-46.0L-121.4,-49.0L-122.9,-52.2L-124.3,-55.4L-125.7,-58.6L-127.0,-61.9L-128.2,-65.3L-129.4,-68.8L-130.4,-72.3L-131.4,-75.9L-132.3,-79.5L-133.1,-83.2L-133.8,-86.9L-134.4,-90.7L-134.9,-94.5L-135.4,-98.3L-135.7,-102.3L-30.5,-23.9L-32.1,-26.0L-33.7,-28.3L-35.1,-30.5L-36.5,-32.9L-37.9,-35.3L-39.1,-37.8L-40.3,-40.3L-41.4,-42.8L-42.4,-45.5L-43.3,-48.1L-44.2,-50.8L-45.0,-53.6L-45.7,-56.4L-46.3,-59.2L-46.8,-62.1L-47.2,-65.0L-47.6,-68.0L-47.9,-70.9L-48.0,-74.0L-48.1,-77.0L-48.1,-80.0L-48.0,-83.1L-47.8,-86.2L-47.5,-89.3L-47.1,-92.5L-46.6,-95.6L-46.1,-98.8L-45.4,-101.9L-44.6,-105.1L-43.7,-108.3L-42.8,-111.5L-41.7,-114.6L-40.6,-117.8L-39.3,-121.0L-37.9,-124.1L-36.5,-127.3L-34.9,-130.4L-33.3,-133.5L-31.5,-136.6L-29.7,-139.7L-27.7,-142.7L-25.7,-145.7L-23.6,-148.7L-21.3,-151.7L-19.0,-154.6L-16.6,-157.5L-14.0,-160.4L-11.4,-163.2L-8.7,-166.0L-5.9,-168.7L-3.0,-171.4L-0.0,-40.2L0.7,-42.8L1.6,-45.4L2.5,-48.0L3.5,-50.5L4.6,-53.0L5.8,-55.5L7.1,-58.0L8.5,-60.5L10.0,-62.9L11.5,-65.2L13.1,-67.6L14.9,-69.9L16.7,-72.2L18.5,-74.4L20.5,-76.6L22.6,-78.7L24.7,-80.8L26.9,-82.8L29.2,-84.8L31.6,-86.7L34.0,-88.6L36.5,-90.4L39.1,-92.1L41.8,-93.8L44.5,-95.4L47.3,-97.0L50.2,-98.4L53.1,-99.8L56.1,-101.2L59.1,-102.4L62.3,-103.6L65.4,-104.7L68.7,-105.7L72.0,-106.7L75.3,-107.5L78.7,-108.3L82.1,-109.0L85.6,-109.6L89.2,-110.1L92.7,-110.5L96.4,-110.9L100.0,-111.1L103.7,-111.2L107.5,-111.3L111.2,-111.2L115.0,-111.1L118.8,-110.8L122.7,-110.5L126.6,-110.0L130.4,-109.5L30.4,-24.6L32.9,-25.7L35.4,-26.7L38.0,-27.6L40.6,-28.4L43.2,-29.2L45.9,-29.8L48.6,-30.4L51.4,-30.9L54.2,-31.3L57.0,-31.6L59.8,-31.8L62.7,-31.9L65.6,-32.0L68.5,-31.9L71.4,-31.8L74.3,-31.5L77.3,-31.2L80.2,-30.8L83.2,-30.3L86.2,-29.7L89.2,-29.0L92.1,-28.2L95.1,-27.3L98.1,-26.3L101.1,-25.2L104.0,-24.0L107.0,-22.7L109.9,-21.4L112.8,-19.9L115.7,-18.3L118.6,-16.7L121.4,-14.9L124.3,-13.1L127.1,-11.1L129.8,-9.1L132.6,-6.9L135.3,-4.7L137.9,-2.4L140.6,-0.0Z" fill="none" stroke="#d1eef1" stroke-width="1.5" stroke-linecap="round" opacity="0.25" filter="url(#tg)"/><path d="M140.6,0.0L143.1,2.5L145.7,5.1L148.2,7.8L150.6,10.5L153.0,13.4L155.3,16.3L157.6,19.3L159.8,22.5L162.0,25.7L164.0,28.9L166.1,32.3L37.2,7.9L39.6,9.1L41.9,10.5L44.3,11.9L46.5,13.3L48.8,14.9L51.0,16.6L53.2,18.3L55.3,20.1L57.3,22.0L59.4,24.0L61.3,26.0L63.2,28.2L65.1,30.4L66.9,32.6L68.6,35.0L70.3,37.4L71.9,39.9L73.5,42.4L74.9,45.0L76.4,47.7L77.7,50.5L79.0,53.3L80.1,56.1L81.3,59.0L82.3,62.0L83.2,65.0L84.1,68.1L84.9,71.2L85.6,74.4L86.2,77.6L86.8,80.9L87.2,84.2L87.6,87.6L87.8,91.0L88.0,94.4L88.1,97.8L88.1,101.3L88.0,104.8L87.8,108.4L87.5,111.9L87.1,115.5L86.6,119.1L86.0,122.8L85.3,126.4L84.4,130.0L83.5,133.7L82.5,137.4L81.4,141.0L80.2,144.7L78.9,148.4L77.5,152.1L17.3,35.5L17.8,38.2L18.2,40.8L18.5,43.5L18.7,46.3L18.8,49.0L18.8,51.8L18.8,54.6L18.6,57.4L18.4,60.2L18.1,63.0L17.6,65.8L17.1,68.6L16.5,71.4L15.8,74.3L15.0,77.1L14.1,79.9L13.1,82.7L12.0,85.5L10.8,88.3L9.6,91.0L8.2,93.8L6.7,96.5L5.2,99.2L3.6,101.9L1.8,104.5L0.0,107.1L-1.9,109.7L-3.9,112.3L-6.0,114.8L-8.2,117.2L-10.5,119.7L-12.8,122.1L-15.3,124.4L-17.8,126.7L-20.4,128.9L-23.1,131.1L-25.9,133.2L-28.8,135.3L-31.7,137.3L-34.7,139.3L-37.8,141.2L-41.0,143.0L-44.2,144.7L-47.6,146.4L-51.0,148.0L-54.4,149.5L-58.0,151.0L-61.6,152.4L-65.2,153.7L-69.0,154.9L-16.2,34.8L-18.0,36.8L-19.8,38.8L-21.7,40.8L-23.7,42.7L-25.7,44.5L-27.8,46.3L-30.0,48.0L-32.2,49.6L-34.6,51.2L-36.9,52.8L-39.4,54.2L-41.9,55.6L-44.5,56.9L-47.1,58.1L-49.8,59.3L-52.5,60.4L-55.3,61.4L-58.1,62.3L-61.0,63.2L-63.9,63.9L-66.9,64.6L-69.9,65.2L-73.0,65.7L-76.1,66.1L-79.2,66.5L-82.4,66.7L-85.6,66.9L-88.8,66.9L-92.1,66.9L-95.4,66.8L-98.7,66.6L-102.0,66.2L-105.3,65.8L-108.7,65.3L-112.1,64.7L-115.5,64.0L-118.9,63.2L-122.3,62.3L-125.7,61.3L-129.1,60.2L-132.5,59.0L-135.9,57.7L-139.3,56.3L-142.7,54.8L-146.1,53.2L-149.4,51.4L-152.8,49.6L-156.1,47.7L-159.4,45.7L-162.7,43.6L-166.0,41.4L-38.9,9.0L-41.5,8.8L-44.2,8.6L-47.0,8.3L-49.7,7.9L-52.4,7.4L-55.1,6.8L-57.8,6.1L-60.4,5.3L-63.1,4.4L-65.8,3.4L-68.4,2.4L-71.1,1.2L-73.7,0.0L-76.3,-1.3L-78.8,-2.8L-81.4,-4.3L-83.9,-5.9L-86.4,-7.6L-88.8,-9.3L-91.2,-11.2L-93.6,-13.2L-95.9,-15.2L-98.2,-17.3L-100.4,-19.5L-102.6,-21.8L-104.7,-24.2L-106.8,-26.6L-108.9,-29.2L-110.8,-31.8L-112.7,-34.5L-114.6,-37.2L-116.4,-40.1L-118.1,-43.0L-119.8,-46.0L-121.4,-49.0L-122.9,-52.2L-124.3,-55.4L-125.7,-58.6L-127.0,-61.9L-128.2,-65.3L-129.4,-68.8L-130.4,-72.3L-131.4,-75.9L-132.3,-79.5L-133.1,-83.2L-133.8,-86.9L-134.4,-90.7L-134.9,-94.5L-135.4,-98.3L-135.7,-102.3L-30.5,-23.9L-32.1,-26.0L-33.7,-28.3L-35.1,-30.5L-36.5,-32.9L-37.9,-35.3L-39.1,-37.8L-40.3,-40.3L-41.4,-42.8L-42.4,-45.5L-43.3,-48.1L-44.2,-50.8L-45.0,-53.6L-45.7,-56.4L-46.3,-59.2L-46.8,-62.1L-47.2,-65.0L-47.6,-68.0L-47.9,-70.9L-48.0,-74.0L-48.1,-77.0L-48.1,-80.0L-48.0,-83.1L-47.8,-86.2L-47.5,-89.3L-47.1,-92.5L-46.6,-95.6L-46.1,-98.8L-45.4,-101.9L-44.6,-105.1L-43.7,-108.3L-42.8,-111.5L-41.7,-114.6L-40.6,-117.8L-39.3,-121.0L-37.9,-124.1L-36.5,-127.3L-34.9,-130.4L-33.3,-133.5L-31.5,-136.6L-29.7,-139.7L-27.7,-142.7L-25.7,-145.7L-23.6,-148.7L-21.3,-151.7L-19.0,-154.6L-16.6,-157.5L-14.0,-160.4L-11.4,-163.2L-8.7,-166.0L-5.9,-168.7L-3.0,-171.4L-0.0,-40.2L0.7,-42.8L1.6,-45.4L2.5,-48.0L3.5,-50.5L4.6,-53.0L5.8,-55.5L7.1,-58.0L8.5,-60.5L10.0,-62.9L11.5,-65.2L13.1,-67.6L14.9,-69.9L16.7,-72.2L18.5,-74.4L20.5,-76.6L22.6,-78.7L24.7,-80.8L26.9,-82.8L29.2,-84.8L31.6,-86.7L34.0,-88.6L36.5,-90.4L39.1,-92.1L41.8,-93.8L44.5,-95.4L47.3,-97.0L50.2,-98.4L53.1,-99.8L56.1,-101.2L59.1,-102.4L62.3,-103.6L65.4,-104.7L68.7,-105.7L72.0,-106.7L75.3,-107.5L78.7,-108.3L82.1,-109.0L85.6,-109.6L89.2,-110.1L92.7,-110.5L96.4,-110.9L100.0,-111.1L103.7,-111.2L107.5,-111.3L111.2,-111.2L115.0,-111.1L118.8,-110.8L122.7,-110.5L126.6,-110.0L130.4,-109.5L30.4,-24.6L32.9,-25.7L35.4,-26.7L38.0,-27.6L40.6,-28.4L43.2,-29.2L45.9,-29.8L48.6,-30.4L51.4,-30.9L54.2,-31.3L57.0,-31.6L59.8,-31.8L62.7,-31.9L65.6,-32.0L68.5,-31.9L71.4,-31.8L74.3,-31.5L77.3,-31.2L80.2,-30.8L83.2,-30.3L86.2,-29.7L89.2,-29.0L92.1,-28.2L95.1,-27.3L98.1,-26.3L101.1,-25.2L104.0,-24.0L107.0,-22.7L109.9,-21.4L112.8,-19.9L115.7,-18.3L118.6,-16.7L121.4,-14.9L124.3,-13.1L127.1,-11.1L129.8,-9.1L132.6,-6.9L135.3,-4.7L137.9,-2.4L140.6,-0.0Z" fill="none" stroke="#d1eef1" stroke-width="0.5" stroke-linecap="round" opacity="0.95"/><path d="M142.2,0.0L144.8,2.5L147.4,5.1L149.8,7.9L152.3,10.6L154.7,13.5L157.0,16.5L159.3,19.6L29.0,4.1L31.5,5.0L34.0,6.0L36.4,7.1L38.8,8.3L41.2,9.5L43.6,10.9L45.9,12.3L48.2,13.8L50.4,15.4L52.6,17.1L54.7,18.9L56.9,20.7L58.9,22.6L60.9,24.6L62.9,26.7L64.8,28.8L66.6,31.1L68.4,33.4L70.1,35.7L71.8,38.2L73.4,40.7L74.9,43.3L76.4,45.9L77.8,48.6L79.1,51.4L80.3,54.2L81.5,57.1L82.6,60.0L83.6,63.0L84.6,66.1L85.4,69.2L86.2,72.3L86.9,75.5L87.5,78.8L88.0,82.1L88.4,85.4L88.8,88.8L89.0,92.2L89.2,95.6L89.2,99.1L89.2,102.6L89.0,106.1L88.8,109.7L88.5,113.3L88.1,116.9L87.5,120.5L86.9,124.1L86.2,127.8L85.4,131.5L84.4,135.1L14.5,24.2L15.4,26.7L16.2,29.2L16.9,31.8L17.5,34.4L18.1,37.0L18.5,39.7L18.9,42.4L19.1,45.1L19.3,47.8L19.4,50.6L19.4,53.4L19.3,56.2L19.2,59.0L18.9,61.8L18.5,64.6L18.1,67.4L17.5,70.2L16.9,73.1L16.1,75.9L15.3,78.7L14.4,81.5L13.4,84.3L12.2,87.1L11.0,89.9L9.7,92.7L8.3,95.4L6.9,98.2L5.3,100.9L3.6,103.5L1.9,106.2L0.0,108.8L-1.9,111.4L-4.0,113.9L-6.1,116.4L-8.3,118.9L-10.6,121.3L-13.0,123.7L-15.5,126.1L-18.0,128.4L-20.7,130.6L-23.4,132.8L-26.2,134.9L-29.1,137.0L-32.1,139.0L-35.1,140.9L-38.3,142.8L-41.5,144.6L-44.7,146.3L-48.1,148.0L-51.5,149.6L-55.0,151.1L-10.6,27.7L-12.1,29.9L-13.6,32.1L-15.2,34.2L-16.9,36.3L-18.7,38.4L-20.6,40.3L-22.5,42.3L-24.5,44.1L-26.5,46.0L-28.7,47.7L-30.9,49.4L-33.2,51.1L-35.5,52.6L-37.9,54.1L-40.4,55.6L-42.9,56.9L-45.5,58.2L-48.1,59.4L-50.8,60.6L-53.6,61.6L-56.4,62.6L-59.3,63.5L-62.2,64.4L-65.1,65.1L-68.1,65.8L-71.2,66.4L-74.2,66.8L-77.4,67.2L-80.5,67.6L-83.7,67.8L-86.9,67.9L-90.2,67.9L-93.4,67.9L-96.7,67.7L-100.1,67.5L-103.4,67.2L-106.8,66.7L-110.1,66.2L-113.5,65.6L-116.9,64.8L-120.3,64.0L-123.8,63.1L-127.2,62.0L-130.6,60.9L-134.0,59.7L-137.4,58.3L-140.8,56.9L-144.2,55.4L-147.6,53.7L-151.0,52.0L-27.2,8.8L-29.8,9.1L-32.4,9.3L-35.1,9.4L-37.8,9.4L-40.5,9.3L-43.2,9.2L-45.9,8.9L-48.6,8.6L-51.3,8.1L-54.0,7.6L-56.7,7.0L-59.4,6.2L-62.1,5.4L-64.8,4.5L-67.5,3.5L-70.1,2.4L-72.8,1.3L-75.4,0.0L-78.0,-1.4L-80.5,-2.8L-83.1,-4.4L-85.6,-6.0L-88.0,-7.7L-90.5,-9.5L-92.9,-11.4L-95.2,-13.4L-97.6,-15.5L-99.8,-17.6L-102.1,-19.8L-104.2,-22.2L-106.4,-24.6L-108.5,-27.0L-110.5,-29.6L-112.4,-32.2L-114.4,-35.0L-116.2,-37.8L-118.0,-40.6L-119.7,-43.6L-121.4,-46.6L-122.9,-49.7L-124.4,-52.8L-125.9,-56.0L-127.2,-59.3L-128.5,-62.7L-129.7,-66.1L-130.8,-69.6L-131.9,-73.1L-132.8,-76.7L-133.7,-80.3L-134.5,-84.0L-135.2,-87.8L-24.9,-16.8L-26.7,-18.7L-28.5,-20.7L-30.2,-22.8L-31.9,-24.9L-33.4,-27.1L-35.0,-29.3L-36.4,-31.7L-37.8,-34.0L-39.1,-36.4L-40.3,-38.9L-41.5,-41.5L-42.5,-44.1L-43.5,-46.7L-44.5,-49.4L-45.3,-52.1L-46.1,-54.9L-46.7,-57.7L-47.3,-60.6L-47.8,-63.5L-48.2,-66.4L-48.6,-69.3L-48.8,-72.3L-48.9,-75.4L-49.0,-78.4L-49.0,-81.5L-48.8,-84.6L-48.6,-87.7L-48.3,-90.8L-47.9,-94.0L-47.4,-97.1L-46.8,-100.3L-46.1,-103.5L-45.3,-106.7L-44.4,-109.8L-43.4,-113.0L-42.3,-116.2L-41.1,-119.4L-39.8,-122.6L-38.4,-125.7L-37.0,-128.9L-35.4,-132.0L-33.7,-135.1L-31.9,-138.2L-30.0,-141.3L-28.1,-144.4L-26.0,-147.4L-23.8,-150.4L-21.6,-153.4L-19.2,-156.3L-16.7,-159.2L-2.5,-28.8L-2.2,-31.4L-1.8,-34.1L-1.3,-36.7L-0.7,-39.3L-0.0,-41.9L0.8,-44.5L1.6,-47.1L2.6,-49.7L3.7,-52.2L4.8,-54.7L6.0,-57.2L7.3,-59.7L8.7,-62.1L10.2,-64.5L11.8,-66.9L13.5,-69.2L15.2,-71.5L17.0,-73.8L19.0,-76.0L20.9,-78.2L23.0,-80.3L25.2,-82.4L27.4,-84.4L29.7,-86.4L32.1,-88.3L34.6,-90.1L37.1,-91.9L39.8,-93.7L42.4,-95.3L45.2,-96.9L48.0,-98.5L50.9,-99.9L53.9,-101.3L56.9,-102.6L60.0,-103.9L63.1,-105.0L66.3,-106.1L69.6,-107.1L72.9,-108.1L76.3,-108.9L79.7,-109.7L83.1,-110.3L86.7,-110.9L90.2,-111.4L93.8,-111.8L97.5,-112.1L101.1,-112.3L104.9,-112.5L108.6,-112.5L112.4,-112.4L20.0,-19.3L22.2,-20.7L24.5,-22.1L26.9,-23.4L29.3,-24.6L31.7,-25.7L34.2,-26.7L36.7,-27.7L39.3,-28.6L42.0,-29.4L44.6,-30.1L47.3,-30.7L50.1,-31.3L52.8,-31.7L55.6,-32.1L58.4,-32.4L61.3,-32.6L64.2,-32.7L67.1,-32.7L70.0,-32.6L72.9,-32.5L75.9,-32.2L78.8,-31.9L81.8,-31.4L84.8,-30.9L87.8,-30.2L90.8,-29.5L93.7,-28.7L96.7,-27.7L99.7,-26.7L102.7,-25.6L105.7,-24.4L108.6,-23.1L111.5,-21.7L114.5,-20.2L117.4,-18.6L120.3,-16.9L123.1,-15.1L125.9,-13.2L128.8,-11.3L131.5,-9.2L134.3,-7.0L137.0,-4.8L139.6,-2.4L142.2,-0.0Z" fill="none" stroke="#d4edf2" stroke-width="1.5" stroke-linecap="round" opacity="0.25" filter="url(#tg)"/><path d="M142.2,0.0L144.8,2.5L147.4,5.1L149.8,7.9L152.3,10.6L154.7,13.5L157.0,16.5L159.3,19.6L29.0,4.1L31.5,5.0L34.0,6.0L36.4,7.1L38.8,8.3L41.2,9.5L43.6,10.9L45.9,12.3L48.2,13.8L50.4,15.4L52.6,17.1L54.7,18.9L56.9,20.7L58.9,22.6L60.9,24.6L62.9,26.7L64.8,28.8L66.6,31.1L68.4,33.4L70.1,35.7L71.8,38.2L73.4,40.7L74.9,43.3L76.4,45.9L77.8,48.6L79.1,51.4L80.3,54.2L81.5,57.1L82.6,60.0L83.6,63.0L84.6,66.1L85.4,69.2L86.2,72.3L86.9,75.5L87.5,78.8L88.0,82.1L88.4,85.4L88.8,88.8L89.0,92.2L89.2,95.6L89.2,99.1L89.2,102.6L89.0,106.1L88.8,109.7L88.5,113.3L88.1,116.9L87.5,120.5L86.9,124.1L86.2,127.8L85.4,131.5L84.4,135.1L14.5,24.2L15.4,26.7L16.2,29.2L16.9,31.8L17.5,34.4L18.1,37.0L18.5,39.7L18.9,42.4L19.1,45.1L19.3,47.8L19.4,50.6L19.4,53.4L19.3,56.2L19.2,59.0L18.9,61.8L18.5,64.6L18.1,67.4L17.5,70.2L16.9,73.1L16.1,75.9L15.3,78.7L14.4,81.5L13.4,84.3L12.2,87.1L11.0,89.9L9.7,92.7L8.3,95.4L6.9,98.2L5.3,100.9L3.6,103.5L1.9,106.2L0.0,108.8L-1.9,111.4L-4.0,113.9L-6.1,116.4L-8.3,118.9L-10.6,121.3L-13.0,123.7L-15.5,126.1L-18.0,128.4L-20.7,130.6L-23.4,132.8L-26.2,134.9L-29.1,137.0L-32.1,139.0L-35.1,140.9L-38.3,142.8L-41.5,144.6L-44.7,146.3L-48.1,148.0L-51.5,149.6L-55.0,151.1L-10.6,27.7L-12.1,29.9L-13.6,32.1L-15.2,34.2L-16.9,36.3L-18.7,38.4L-20.6,40.3L-22.5,42.3L-24.5,44.1L-26.5,46.0L-28.7,47.7L-30.9,49.4L-33.2,51.1L-35.5,52.6L-37.9,54.1L-40.4,55.6L-42.9,56.9L-45.5,58.2L-48.1,59.4L-50.8,60.6L-53.6,61.6L-56.4,62.6L-59.3,63.5L-62.2,64.4L-65.1,65.1L-68.1,65.8L-71.2,66.4L-74.2,66.8L-77.4,67.2L-80.5,67.6L-83.7,67.8L-86.9,67.9L-90.2,67.9L-93.4,67.9L-96.7,67.7L-100.1,67.5L-103.4,67.2L-106.8,66.7L-110.1,66.2L-113.5,65.6L-116.9,64.8L-120.3,64.0L-123.8,63.1L-127.2,62.0L-130.6,60.9L-134.0,59.7L-137.4,58.3L-140.8,56.9L-144.2,55.4L-147.6,53.7L-151.0,52.0L-27.2,8.8L-29.8,9.1L-32.4,9.3L-35.1,9.4L-37.8,9.4L-40.5,9.3L-43.2,9.2L-45.9,8.9L-48.6,8.6L-51.3,8.1L-54.0,7.6L-56.7,7.0L-59.4,6.2L-62.1,5.4L-64.8,4.5L-67.5,3.5L-70.1,2.4L-72.8,1.3L-75.4,0.0L-78.0,-1.4L-80.5,-2.8L-83.1,-4.4L-85.6,-6.0L-88.0,-7.7L-90.5,-9.5L-92.9,-11.4L-95.2,-13.4L-97.6,-15.5L-99.8,-17.6L-102.1,-19.8L-104.2,-22.2L-106.4,-24.6L-108.5,-27.0L-110.5,-29.6L-112.4,-32.2L-114.4,-35.0L-116.2,-37.8L-118.0,-40.6L-119.7,-43.6L-121.4,-46.6L-122.9,-49.7L-124.4,-52.8L-125.9,-56.0L-127.2,-59.3L-128.5,-62.7L-129.7,-66.1L-130.8,-69.6L-131.9,-73.1L-132.8,-76.7L-133.7,-80.3L-134.5,-84.0L-135.2,-87.8L-24.9,-16.8L-26.7,-18.7L-28.5,-20.7L-30.2,-22.8L-31.9,-24.9L-33.4,-27.1L-35.0,-29.3L-36.4,-31.7L-37.8,-34.0L-39.1,-36.4L-40.3,-38.9L-41.5,-41.5L-42.5,-44.1L-43.5,-46.7L-44.5,-49.4L-45.3,-52.1L-46.1,-54.9L-46.7,-57.7L-47.3,-60.6L-47.8,-63.5L-48.2,-66.4L-48.6,-69.3L-48.8,-72.3L-48.9,-75.4L-49.0,-78.4L-49.0,-81.5L-48.8,-84.6L-48.6,-87.7L-48.3,-90.8L-47.9,-94.0L-47.4,-97.1L-46.8,-100.3L-46.1,-103.5L-45.3,-106.7L-44.4,-109.8L-43.4,-113.0L-42.3,-116.2L-41.1,-119.4L-39.8,-122.6L-38.4,-125.7L-37.0,-128.9L-35.4,-132.0L-33.7,-135.1L-31.9,-138.2L-30.0,-141.3L-28.1,-144.4L-26.0,-147.4L-23.8,-150.4L-21.6,-153.4L-19.2,-156.3L-16.7,-159.2L-2.5,-28.8L-2.2,-31.4L-1.8,-34.1L-1.3,-36.7L-0.7,-39.3L-0.0,-41.9L0.8,-44.5L1.6,-47.1L2.6,-49.7L3.7,-52.2L4.8,-54.7L6.0,-57.2L7.3,-59.7L8.7,-62.1L10.2,-64.5L11.8,-66.9L13.5,-69.2L15.2,-71.5L17.0,-73.8L19.0,-76.0L20.9,-78.2L23.0,-80.3L25.2,-82.4L27.4,-84.4L29.7,-86.4L32.1,-88.3L34.6,-90.1L37.1,-91.9L39.8,-93.7L42.4,-95.3L45.2,-96.9L48.0,-98.5L50.9,-99.9L53.9,-101.3L56.9,-102.6L60.0,-103.9L63.1,-105.0L66.3,-106.1L69.6,-107.1L72.9,-108.1L76.3,-108.9L79.7,-109.7L83.1,-110.3L86.7,-110.9L90.2,-111.4L93.8,-111.8L97.5,-112.1L101.1,-112.3L104.9,-112.5L108.6,-112.5L112.4,-112.4L20.0,-19.3L22.2,-20.7L24.5,-22.1L26.9,-23.4L29.3,-24.6L31.7,-25.7L34.2,-26.7L36.7,-27.7L39.3,-28.6L42.0,-29.4L44.6,-30.1L47.3,-30.7L50.1,-31.3L52.8,-31.7L55.6,-32.1L58.4,-32.4L61.3,-32.6L64.2,-32.7L67.1,-32.7L70.0,-32.6L72.9,-32.5L75.9,-32.2L78.8,-31.9L81.8,-31.4L84.8,-30.9L87.8,-30.2L90.8,-29.5L93.7,-28.7L96.7,-27.7L99.7,-26.7L102.7,-25.6L105.7,-24.4L108.6,-23.1L111.5,-21.7L114.5,-20.2L117.4,-18.6L120.3,-16.9L123.1,-15.1L125.9,-13.2L128.8,-11.3L131.5,-9.2L134.3,-7.0L137.0,-4.8L139.6,-2.4L142.2,-0.0Z" fill="none" stroke="#d4edf2" stroke-width="0.5" stroke-linecap="round" opacity="0.95"/><path d="M143.9,0.0L146.5,2.6L149.0,5.2L17.9,0.9L20.5,1.4L23.1,2.0L25.6,2.7L28.2,3.5L30.7,4.3L33.2,5.3L35.6,6.3L38.1,7.4L40.5,8.6L42.9,9.9L45.2,11.3L47.5,12.7L49.8,14.3L52.0,15.9L54.2,17.6L56.3,19.4L58.4,21.3L60.5,23.2L62.5,25.2L64.4,27.3L66.3,29.5L68.1,31.8L69.9,34.1L71.6,36.5L73.3,39.0L74.9,41.5L76.4,44.1L77.8,46.8L79.2,49.5L80.5,52.3L81.7,55.1L82.9,58.0L84.0,61.0L85.0,64.0L85.9,67.1L86.7,70.2L87.5,73.4L88.2,76.6L88.7,79.9L89.2,83.2L89.6,86.6L90.0,90.0L90.2,93.4L90.3,96.8L90.3,100.3L90.3,103.9L90.1,107.4L89.9,111.0L89.5,114.6L89.1,118.2L88.5,121.9L11.2,15.9L12.3,18.3L13.4,20.7L14.4,23.1L15.4,25.6L16.2,28.1L17.0,30.7L17.7,33.3L18.3,35.9L18.8,38.5L19.2,41.2L19.6,43.9L19.8,46.6L20.0,49.4L20.0,52.2L20.0,54.9L19.9,57.7L19.7,60.6L19.4,63.4L19.0,66.2L18.5,69.0L17.9,71.9L17.2,74.7L16.5,77.5L15.6,80.4L14.7,83.2L13.6,86.0L12.5,88.8L11.2,91.6L9.9,94.4L8.5,97.1L7.0,99.8L5.4,102.5L3.7,105.2L1.9,107.9L0.0,110.5L-2.0,113.1L-4.0,115.6L-6.2,118.1L-8.4,120.6L-10.8,123.0L-13.2,125.4L-15.7,127.7L-18.3,130.0L-20.9,132.2L-23.7,134.4L-26.5,136.5L-29.5,138.6L-32.5,140.6L-35.5,142.5L-38.7,144.4L-5.1,17.6L-6.1,20.0L-7.3,22.4L-8.5,24.7L-9.8,27.0L-11.2,29.3L-12.7,31.5L-14.3,33.6L-15.9,35.8L-17.6,37.8L-19.4,39.9L-21.3,41.8L-23.3,43.8L-25.3,45.6L-27.4,47.4L-29.5,49.2L-31.8,50.8L-34.1,52.5L-36.4,54.0L-38.9,55.5L-41.4,56.9L-43.9,58.3L-46.5,59.5L-49.2,60.7L-51.9,61.9L-54.7,62.9L-57.5,63.9L-60.4,64.8L-63.3,65.6L-66.3,66.3L-69.3,66.9L-72.4,67.5L-75.5,68.0L-78.6,68.3L-81.8,68.6L-85.0,68.8L-88.2,68.9L-91.5,69.0L-94.8,68.9L-98.1,68.7L-101.5,68.4L-104.8,68.1L-108.2,67.6L-111.6,67.0L-115.0,66.4L-118.4,65.6L-121.8,64.8L-125.3,63.8L-128.7,62.8L-132.1,61.6L-135.6,60.4L-139.0,59.0L-18.4,7.4L-20.9,8.0L-23.5,8.6L-26.1,9.0L-28.8,9.3L-31.4,9.6L-34.1,9.8L-36.7,9.8L-39.4,9.8L-42.1,9.7L-44.8,9.5L-47.5,9.2L-50.3,8.9L-53.0,8.4L-55.7,7.8L-58.4,7.2L-61.1,6.4L-63.8,5.6L-66.5,4.6L-69.2,3.6L-71.8,2.5L-74.4,1.3L-77.0,0.0L-79.6,-1.4L-82.2,-2.9L-84.7,-4.4L-87.2,-6.1L-89.7,-7.8L-92.1,-9.7L-94.5,-11.6L-96.9,-13.6L-99.2,-15.7L-101.5,-17.9L-103.7,-20.2L-105.9,-22.5L-108.0,-24.9L-110.1,-27.4L-112.1,-30.0L-114.1,-32.7L-116.0,-35.5L-117.8,-38.3L-119.6,-41.2L-121.3,-44.1L-122.9,-47.2L-124.5,-50.3L-126.0,-53.5L-127.4,-56.7L-128.8,-60.0L-130.0,-63.4L-131.2,-66.9L-132.3,-70.4L-16.4,-9.1L-18.5,-10.7L-20.5,-12.3L-22.5,-14.1L-24.4,-15.9L-26.3,-17.7L-28.1,-19.7L-29.9,-21.7L-31.6,-23.8L-33.2,-25.9L-34.8,-28.1L-36.3,-30.4L-37.7,-32.8L-39.0,-35.1L-40.3,-37.6L-41.5,-40.1L-42.7,-42.7L-43.7,-45.3L-44.7,-47.9L-45.6,-50.6L-46.4,-53.4L-47.1,-56.2L-47.8,-59.0L-48.4,-61.9L-48.8,-64.8L-49.2,-67.7L-49.5,-70.7L-49.7,-73.7L-49.9,-76.8L-49.9,-79.8L-49.8,-82.9L-49.7,-86.0L-49.4,-89.2L-49.1,-92.3L-48.6,-95.5L-48.1,-98.6L-47.5,-101.8L-46.8,-105.0L-45.9,-108.2L-45.0,-111.4L-44.0,-114.6L-42.9,-117.8L-41.7,-121.0L-40.3,-124.2L-38.9,-127.3L-37.4,-130.5L-35.8,-133.6L-34.1,-136.8L-32.3,-139.9L-30.4,-143.0L-28.4,-146.0L-3.1,-17.3L-3.2,-20.0L-3.2,-22.6L-3.1,-25.2L-2.9,-27.9L-2.7,-30.5L-2.3,-33.1L-1.9,-35.8L-1.3,-38.4L-0.7,-41.0L-0.0,-43.6L0.8,-46.2L1.7,-48.8L2.7,-51.3L3.8,-53.9L4.9,-56.4L6.2,-58.9L7.5,-61.4L9.0,-63.8L10.5,-66.2L12.1,-68.6L13.8,-70.9L15.6,-73.2L17.4,-75.4L19.4,-77.6L21.4,-79.8L23.5,-81.9L25.7,-84.0L27.9,-86.0L30.3,-88.0L32.7,-89.9L35.2,-91.7L37.8,-93.5L40.4,-95.2L43.1,-96.9L45.9,-98.5L48.8,-100.0L51.7,-101.4L54.7,-102.8L57.7,-104.1L60.8,-105.3L64.0,-106.5L67.2,-107.6L70.5,-108.6L73.8,-109.5L77.2,-110.3L80.7,-111.0L84.2,-111.7L87.7,-112.2L91.3,-112.7L94.9,-113.1L98.6,-113.4L12.8,-14.2L14.8,-15.9L16.9,-17.5L19.0,-19.0L21.2,-20.5L23.5,-21.9L25.8,-23.2L28.1,-24.5L30.6,-25.6L33.0,-26.7L35.5,-27.8L38.1,-28.7L40.7,-29.6L43.3,-30.3L46.0,-31.0L48.7,-31.6L51.5,-32.2L54.3,-32.6L57.1,-33.0L59.9,-33.2L62.8,-33.4L65.7,-33.5L68.6,-33.5L71.5,-33.3L74.5,-33.2L77.4,-32.9L80.4,-32.5L83.4,-32.0L86.4,-31.4L89.4,-30.8L92.4,-30.0L95.4,-29.2L98.4,-28.2L101.3,-27.2L104.3,-26.0L107.3,-24.8L110.3,-23.4L113.2,-22.0L116.1,-20.5L119.0,-18.9L121.9,-17.1L124.8,-15.3L127.6,-13.4L130.4,-11.4L133.2,-9.3L135.9,-7.1L138.6,-4.8L141.3,-2.5L143.9,-0.0Z" fill="none" stroke="#d8ebf3" stroke-width="1.5" stroke-linecap="round" opacity="0.25" filter="url(#tg)"/><path d="M143.9,0.0L146.5,2.6L149.0,5.2L17.9,0.9L20.5,1.4L23.1,2.0L25.6,2.7L28.2,3.5L30.7,4.3L33.2,5.3L35.6,6.3L38.1,7.4L40.5,8.6L42.9,9.9L45.2,11.3L47.5,12.7L49.8,14.3L52.0,15.9L54.2,17.6L56.3,19.4L58.4,21.3L60.5,23.2L62.5,25.2L64.4,27.3L66.3,29.5L68.1,31.8L69.9,34.1L71.6,36.5L73.3,39.0L74.9,41.5L76.4,44.1L77.8,46.8L79.2,49.5L80.5,52.3L81.7,55.1L82.9,58.0L84.0,61.0L85.0,64.0L85.9,67.1L86.7,70.2L87.5,73.4L88.2,76.6L88.7,79.9L89.2,83.2L89.6,86.6L90.0,90.0L90.2,93.4L90.3,96.8L90.3,100.3L90.3,103.9L90.1,107.4L89.9,111.0L89.5,114.6L89.1,118.2L88.5,121.9L11.2,15.9L12.3,18.3L13.4,20.7L14.4,23.1L15.4,25.6L16.2,28.1L17.0,30.7L17.7,33.3L18.3,35.9L18.8,38.5L19.2,41.2L19.6,43.9L19.8,46.6L20.0,49.4L20.0,52.2L20.0,54.9L19.9,57.7L19.7,60.6L19.4,63.4L19.0,66.2L18.5,69.0L17.9,71.9L17.2,74.7L16.5,77.5L15.6,80.4L14.7,83.2L13.6,86.0L12.5,88.8L11.2,91.6L9.9,94.4L8.5,97.1L7.0,99.8L5.4,102.5L3.7,105.2L1.9,107.9L0.0,110.5L-2.0,113.1L-4.0,115.6L-6.2,118.1L-8.4,120.6L-10.8,123.0L-13.2,125.4L-15.7,127.7L-18.3,130.0L-20.9,132.2L-23.7,134.4L-26.5,136.5L-29.5,138.6L-32.5,140.6L-35.5,142.5L-38.7,144.4L-5.1,17.6L-6.1,20.0L-7.3,22.4L-8.5,24.7L-9.8,27.0L-11.2,29.3L-12.7,31.5L-14.3,33.6L-15.9,35.8L-17.6,37.8L-19.4,39.9L-21.3,41.8L-23.3,43.8L-25.3,45.6L-27.4,47.4L-29.5,49.2L-31.8,50.8L-34.1,52.5L-36.4,54.0L-38.9,55.5L-41.4,56.9L-43.9,58.3L-46.5,59.5L-49.2,60.7L-51.9,61.9L-54.7,62.9L-57.5,63.9L-60.4,64.8L-63.3,65.6L-66.3,66.3L-69.3,66.9L-72.4,67.5L-75.5,68.0L-78.6,68.3L-81.8,68.6L-85.0,68.8L-88.2,68.9L-91.5,69.0L-94.8,68.9L-98.1,68.7L-101.5,68.4L-104.8,68.1L-108.2,67.6L-111.6,67.0L-115.0,66.4L-118.4,65.6L-121.8,64.8L-125.3,63.8L-128.7,62.8L-132.1,61.6L-135.6,60.4L-139.0,59.0L-18.4,7.4L-20.9,8.0L-23.5,8.6L-26.1,9.0L-28.8,9.3L-31.4,9.6L-34.1,9.8L-36.7,9.8L-39.4,9.8L-42.1,9.7L-44.8,9.5L-47.5,9.2L-50.3,8.9L-53.0,8.4L-55.7,7.8L-58.4,7.2L-61.1,6.4L-63.8,5.6L-66.5,4.6L-69.2,3.6L-71.8,2.5L-74.4,1.3L-77.0,0.0L-79.6,-1.4L-82.2,-2.9L-84.7,-4.4L-87.2,-6.1L-89.7,-7.8L-92.1,-9.7L-94.5,-11.6L-96.9,-13.6L-99.2,-15.7L-101.5,-17.9L-103.7,-20.2L-105.9,-22.5L-108.0,-24.9L-110.1,-27.4L-112.1,-30.0L-114.1,-32.7L-116.0,-35.5L-117.8,-38.3L-119.6,-41.2L-121.3,-44.1L-122.9,-47.2L-124.5,-50.3L-126.0,-53.5L-127.4,-56.7L-128.8,-60.0L-130.0,-63.4L-131.2,-66.9L-132.3,-70.4L-16.4,-9.1L-18.5,-10.7L-20.5,-12.3L-22.5,-14.1L-24.4,-15.9L-26.3,-17.7L-28.1,-19.7L-29.9,-21.7L-31.6,-23.8L-33.2,-25.9L-34.8,-28.1L-36.3,-30.4L-37.7,-32.8L-39.0,-35.1L-40.3,-37.6L-41.5,-40.1L-42.7,-42.7L-43.7,-45.3L-44.7,-47.9L-45.6,-50.6L-46.4,-53.4L-47.1,-56.2L-47.8,-59.0L-48.4,-61.9L-48.8,-64.8L-49.2,-67.7L-49.5,-70.7L-49.7,-73.7L-49.9,-76.8L-49.9,-79.8L-49.8,-82.9L-49.7,-86.0L-49.4,-89.2L-49.1,-92.3L-48.6,-95.5L-48.1,-98.6L-47.5,-101.8L-46.8,-105.0L-45.9,-108.2L-45.0,-111.4L-44.0,-114.6L-42.9,-117.8L-41.7,-121.0L-40.3,-124.2L-38.9,-127.3L-37.4,-130.5L-35.8,-133.6L-34.1,-136.8L-32.3,-139.9L-30.4,-143.0L-28.4,-146.0L-3.1,-17.3L-3.2,-20.0L-3.2,-22.6L-3.1,-25.2L-2.9,-27.9L-2.7,-30.5L-2.3,-33.1L-1.9,-35.8L-1.3,-38.4L-0.7,-41.0L-0.0,-43.6L0.8,-46.2L1.7,-48.8L2.7,-51.3L3.8,-53.9L4.9,-56.4L6.2,-58.9L7.5,-61.4L9.0,-63.8L10.5,-66.2L12.1,-68.6L13.8,-70.9L15.6,-73.2L17.4,-75.4L19.4,-77.6L21.4,-79.8L23.5,-81.9L25.7,-84.0L27.9,-86.0L30.3,-88.0L32.7,-89.9L35.2,-91.7L37.8,-93.5L40.4,-95.2L43.1,-96.9L45.9,-98.5L48.8,-100.0L51.7,-101.4L54.7,-102.8L57.7,-104.1L60.8,-105.3L64.0,-106.5L67.2,-107.6L70.5,-108.6L73.8,-109.5L77.2,-110.3L80.7,-111.0L84.2,-111.7L87.7,-112.2L91.3,-112.7L94.9,-113.1L98.6,-113.4L12.8,-14.2L14.8,-15.9L16.9,-17.5L19.0,-19.0L21.2,-20.5L23.5,-21.9L25.8,-23.2L28.1,-24.5L30.6,-25.6L33.0,-26.7L35.5,-27.8L38.1,-28.7L40.7,-29.6L43.3,-30.3L46.0,-31.0L48.7,-31.6L51.5,-32.2L54.3,-32.6L57.1,-33.0L59.9,-33.2L62.8,-33.4L65.7,-33.5L68.6,-33.5L71.5,-33.3L74.5,-33.2L77.4,-32.9L80.4,-32.5L83.4,-32.0L86.4,-31.4L89.4,-30.8L92.4,-30.0L95.4,-29.2L98.4,-28.2L101.3,-27.2L104.3,-26.0L107.3,-24.8L110.3,-23.4L113.2,-22.0L116.1,-20.5L119.0,-18.9L121.9,-17.1L124.8,-15.3L127.6,-13.4L130.4,-11.4L133.2,-9.3L135.9,-7.1L138.6,-4.8L141.3,-2.5L143.9,-0.0Z" fill="none" stroke="#d8ebf3" stroke-width="0.5" stroke-linecap="round" opacity="0.95"/><path d="M11.9,0.0L14.4,0.3L17.0,0.6L19.6,1.0L22.2,1.6L24.8,2.2L27.3,2.9L29.8,3.7L32.3,4.5L34.8,5.5L37.3,6.6L39.7,7.7L42.1,9.0L44.5,10.3L46.8,11.7L49.1,13.2L51.4,14.7L53.6,16.4L55.8,18.1L57.9,19.9L60.0,21.8L62.1,23.8L64.0,25.9L66.0,28.0L67.9,30.2L69.7,32.5L71.4,34.8L73.1,37.3L74.8,39.8L76.3,42.3L77.8,44.9L79.3,47.6L80.6,50.4L81.9,53.2L83.1,56.1L84.3,59.0L85.3,62.0L86.3,65.0L87.2,68.1L88.0,71.3L88.8,74.5L89.4,77.7L90.0,81.0L90.5,84.4L90.8,87.7L91.1,91.1L91.3,94.6L91.5,98.1L91.5,101.6L91.4,105.1L5.2,6.2L6.8,8.3L8.2,10.5L9.6,12.7L10.9,15.0L12.1,17.3L13.3,19.7L14.3,22.1L15.3,24.5L16.2,27.0L17.1,29.6L17.8,32.1L18.5,34.7L19.0,37.4L19.5,40.0L19.9,42.7L20.2,45.4L20.5,48.2L20.6,50.9L20.6,53.7L20.6,56.5L20.4,59.3L20.2,62.2L19.9,65.0L19.4,67.8L18.9,70.7L18.3,73.5L17.6,76.4L16.8,79.2L15.9,82.0L15.0,84.9L13.9,87.7L12.7,90.5L11.5,93.3L10.1,96.0L8.6,98.8L7.1,101.5L5.5,104.2L3.7,106.9L1.9,109.6L0.0,112.2L-2.0,114.8L-4.1,117.3L-6.3,119.8L-8.6,122.3L-10.9,124.7L-13.4,127.1L-15.9,129.4L-18.5,131.7L-21.2,133.9L-24.0,136.1L-26.9,138.2L-2.0,9.4L-2.7,11.9L-3.6,14.4L-4.5,16.8L-5.5,19.2L-6.6,21.6L-7.8,24.0L-9.1,26.3L-10.4,28.6L-11.8,30.8L-13.3,33.0L-14.9,35.2L-16.6,37.3L-18.4,39.4L-20.2,41.4L-22.1,43.3L-24.1,45.2L-26.1,47.1L-28.2,48.9L-30.4,50.6L-32.7,52.3L-35.0,53.9L-37.4,55.4L-39.8,56.9L-42.3,58.3L-44.9,59.6L-47.6,60.9L-50.2,62.1L-53.0,63.2L-55.8,64.2L-58.6,65.1L-61.5,66.0L-64.5,66.8L-67.5,67.5L-70.5,68.1L-73.6,68.6L-76.7,69.1L-79.9,69.4L-83.1,69.7L-86.3,69.9L-89.6,70.0L-92.8,70.0L-96.2,69.9L-99.5,69.7L-102.9,69.4L-106.2,69.0L-109.6,68.5L-113.0,67.9L-116.4,67.2L-119.9,66.5L-123.3,65.6L-7.6,3.9L-10.0,4.9L-12.4,5.8L-14.9,6.6L-17.4,7.4L-19.9,8.1L-22.5,8.6L-25.1,9.1L-27.7,9.5L-30.4,9.9L-33.0,10.1L-35.7,10.2L-38.4,10.3L-41.1,10.2L-43.8,10.1L-46.5,9.9L-49.2,9.6L-51.9,9.2L-54.6,8.7L-57.4,8.1L-60.1,7.4L-62.8,6.6L-65.5,5.7L-68.2,4.8L-70.8,3.7L-73.5,2.6L-76.1,1.3L-78.7,0.0L-81.3,-1.4L-83.9,-2.9L-86.4,-4.5L-88.9,-6.2L-91.4,-8.0L-93.8,-9.9L-96.2,-11.8L-98.6,-13.9L-100.9,-16.0L-103.1,-18.2L-105.4,-20.5L-107.5,-22.9L-109.7,-25.3L-111.7,-27.9L-113.7,-30.5L-115.7,-33.2L-117.6,-35.9L-119.4,-38.8L-121.2,-41.7L-122.9,-44.7L-124.5,-47.8L-126.1,-50.9L-127.5,-54.1L-6.8,-3.0L-9.1,-4.2L-11.3,-5.5L-13.5,-6.9L-15.7,-8.4L-17.8,-9.9L-19.9,-11.5L-21.9,-13.2L-23.9,-14.9L-25.8,-16.8L-27.7,-18.7L-29.5,-20.6L-31.2,-22.7L-32.9,-24.8L-34.5,-27.0L-36.1,-29.2L-37.5,-31.5L-38.9,-33.9L-40.3,-36.3L-41.5,-38.7L-42.7,-41.3L-43.8,-43.8L-44.9,-46.5L-45.8,-49.2L-46.7,-51.9L-47.5,-54.7L-48.2,-57.5L-48.8,-60.3L-49.4,-63.2L-49.8,-66.1L-50.2,-69.1L-50.5,-72.1L-50.7,-75.1L-50.8,-78.2L-50.8,-81.3L-50.7,-84.4L-50.5,-87.5L-50.2,-90.6L-49.9,-93.8L-49.4,-97.0L-48.8,-100.2L-48.2,-103.3L-47.4,-106.5L-46.6,-109.8L-45.6,-113.0L-44.6,-116.2L-43.4,-119.4L-42.2,-122.6L-40.9,-125.8L-39.4,-128.9L-37.9,-132.1L-36.2,-135.3L-2.1,-8.6L-2.6,-11.2L-2.9,-13.8L-3.2,-16.4L-3.3,-19.0L-3.4,-21.6L-3.4,-24.2L-3.3,-26.9L-3.1,-29.5L-2.8,-32.2L-2.4,-34.8L-2.0,-37.4L-1.4,-40.1L-0.7,-42.7L-0.0,-45.3L0.8,-47.9L1.8,-50.5L2.8,-53.0L3.9,-55.6L5.1,-58.1L6.4,-60.6L7.7,-63.0L9.2,-65.5L10.7,-67.9L12.4,-70.2L14.1,-72.5L15.9,-74.8L17.8,-77.1L19.8,-79.3L21.8,-81.4L24.0,-83.5L26.2,-85.6L28.5,-87.6L30.8,-89.5L33.3,-91.4L35.8,-93.3L38.4,-95.0L41.1,-96.8L43.8,-98.4L46.6,-100.0L49.5,-101.5L52.4,-102.9L55.5,-104.3L58.5,-105.6L61.7,-106.8L64.9,-107.9L68.1,-109.0L71.4,-110.0L74.8,-110.9L78.2,-111.7L81.7,-112.4L4.7,-6.2L6.4,-8.2L8.2,-10.1L10.0,-11.9L11.9,-13.7L13.9,-15.4L15.9,-17.1L18.0,-18.7L20.2,-20.2L22.4,-21.7L24.7,-23.0L27.0,-24.3L29.4,-25.6L31.8,-26.7L34.3,-27.8L36.9,-28.8L39.4,-29.7L42.1,-30.6L44.7,-31.3L47.4,-32.0L50.1,-32.6L52.9,-33.1L55.7,-33.5L58.5,-33.8L61.4,-34.0L64.3,-34.2L67.2,-34.2L70.1,-34.2L73.0,-34.1L76.0,-33.8L79.0,-33.5L82.0,-33.1L84.9,-32.6L87.9,-32.0L91.0,-31.3L94.0,-30.5L97.0,-29.6L100.0,-28.7L103.0,-27.6L106.0,-26.4L108.9,-25.1L111.9,-23.8L114.9,-22.3L117.8,-20.8L120.7,-19.1L123.6,-17.4L126.5,-15.5L129.3,-13.6L132.1,-11.6L134.9,-9.4L137.6,-7.2L140.3,-4.9L9.2,-0.2L11.9,-0.0Z" fill="none" stroke="#dbeaf4" stroke-width="1.5" stroke-linecap="round" opacity="0.25" filter="url(#tg)"/><path d="M11.9,0.0L14.4,0.3L17.0,0.6L19.6,1.0L22.2,1.6L24.8,2.2L27.3,2.9L29.8,3.7L32.3,4.5L34.8,5.5L37.3,6.6L39.7,7.7L42.1,9.0L44.5,10.3L46.8,11.7L49.1,13.2L51.4,14.7L53.6,16.4L55.8,18.1L57.9,19.9L60.0,21.8L62.1,23.8L64.0,25.9L66.0,28.0L67.9,30.2L69.7,32.5L71.4,34.8L73.1,37.3L74.8,39.8L76.3,42.3L77.8,44.9L79.3,47.6L80.6,50.4L81.9,53.2L83.1,56.1L84.3,59.0L85.3,62.0L86.3,65.0L87.2,68.1L88.0,71.3L88.8,74.5L89.4,77.7L90.0,81.0L90.5,84.4L90.8,87.7L91.1,91.1L91.3,94.6L91.5,98.1L91.5,101.6L91.4,105.1L5.2,6.2L6.8,8.3L8.2,10.5L9.6,12.7L10.9,15.0L12.1,17.3L13.3,19.7L14.3,22.1L15.3,24.5L16.2,27.0L17.1,29.6L17.8,32.1L18.5,34.7L19.0,37.4L19.5,40.0L19.9,42.7L20.2,45.4L20.5,48.2L20.6,50.9L20.6,53.7L20.6,56.5L20.4,59.3L20.2,62.2L19.9,65.0L19.4,67.8L18.9,70.7L18.3,73.5L17.6,76.4L16.8,79.2L15.9,82.0L15.0,84.9L13.9,87.7L12.7,90.5L11.5,93.3L10.1,96.0L8.6,98.8L7.1,101.5L5.5,104.2L3.7,106.9L1.9,109.6L0.0,112.2L-2.0,114.8L-4.1,117.3L-6.3,119.8L-8.6,122.3L-10.9,124.7L-13.4,127.1L-15.9,129.4L-18.5,131.7L-21.2,133.9L-24.0,136.1L-26.9,138.2L-2.0,9.4L-2.7,11.9L-3.6,14.4L-4.5,16.8L-5.5,19.2L-6.6,21.6L-7.8,24.0L-9.1,26.3L-10.4,28.6L-11.8,30.8L-13.3,33.0L-14.9,35.2L-16.6,37.3L-18.4,39.4L-20.2,41.4L-22.1,43.3L-24.1,45.2L-26.1,47.1L-28.2,48.9L-30.4,50.6L-32.7,52.3L-35.0,53.9L-37.4,55.4L-39.8,56.9L-42.3,58.3L-44.9,59.6L-47.6,60.9L-50.2,62.1L-53.0,63.2L-55.8,64.2L-58.6,65.1L-61.5,66.0L-64.5,66.8L-67.5,67.5L-70.5,68.1L-73.6,68.6L-76.7,69.1L-79.9,69.4L-83.1,69.7L-86.3,69.9L-89.6,70.0L-92.8,70.0L-96.2,69.9L-99.5,69.7L-102.9,69.4L-106.2,69.0L-109.6,68.5L-113.0,67.9L-116.4,67.2L-119.9,66.5L-123.3,65.6L-7.6,3.9L-10.0,4.9L-12.4,5.8L-14.9,6.6L-17.4,7.4L-19.9,8.1L-22.5,8.6L-25.1,9.1L-27.7,9.5L-30.4,9.9L-33.0,10.1L-35.7,10.2L-38.4,10.3L-41.1,10.2L-43.8,10.1L-46.5,9.9L-49.2,9.6L-51.9,9.2L-54.6,8.7L-57.4,8.1L-60.1,7.4L-62.8,6.6L-65.5,5.7L-68.2,4.8L-70.8,3.7L-73.5,2.6L-76.1,1.3L-78.7,0.0L-81.3,-1.4L-83.9,-2.9L-86.4,-4.5L-88.9,-6.2L-91.4,-8.0L-93.8,-9.9L-96.2,-11.8L-98.6,-13.9L-100.9,-16.0L-103.1,-18.2L-105.4,-20.5L-107.5,-22.9L-109.7,-25.3L-111.7,-27.9L-113.7,-30.5L-115.7,-33.2L-117.6,-35.9L-119.4,-38.8L-121.2,-41.7L-122.9,-44.7L-124.5,-47.8L-126.1,-50.9L-127.5,-54.1L-6.8,-3.0L-9.1,-4.2L-11.3,-5.5L-13.5,-6.9L-15.7,-8.4L-17.8,-9.9L-19.9,-11.5L-21.9,-13.2L-23.9,-14.9L-25.8,-16.8L-27.7,-18.7L-29.5,-20.6L-31.2,-22.7L-32.9,-24.8L-34.5,-27.0L-36.1,-29.2L-37.5,-31.5L-38.9,-33.9L-40.3,-36.3L-41.5,-38.7L-42.7,-41.3L-43.8,-43.8L-44.9,-46.5L-45.8,-49.2L-46.7,-51.9L-47.5,-54.7L-48.2,-57.5L-48.8,-60.3L-49.4,-63.2L-49.8,-66.1L-50.2,-69.1L-50.5,-72.1L-50.7,-75.1L-50.8,-78.2L-50.8,-81.3L-50.7,-84.4L-50.5,-87.5L-50.2,-90.6L-49.9,-93.8L-49.4,-97.0L-48.8,-100.2L-48.2,-103.3L-47.4,-106.5L-46.6,-109.8L-45.6,-113.0L-44.6,-116.2L-43.4,-119.4L-42.2,-122.6L-40.9,-125.8L-39.4,-128.9L-37.9,-132.1L-36.2,-135.3L-2.1,-8.6L-2.6,-11.2L-2.9,-13.8L-3.2,-16.4L-3.3,-19.0L-3.4,-21.6L-3.4,-24.2L-3.3,-26.9L-3.1,-29.5L-2.8,-32.2L-2.4,-34.8L-2.0,-37.4L-1.4,-40.1L-0.7,-42.7L-0.0,-45.3L0.8,-47.9L1.8,-50.5L2.8,-53.0L3.9,-55.6L5.1,-58.1L6.4,-60.6L7.7,-63.0L9.2,-65.5L10.7,-67.9L12.4,-70.2L14.1,-72.5L15.9,-74.8L17.8,-77.1L19.8,-79.3L21.8,-81.4L24.0,-83.5L26.2,-85.6L28.5,-87.6L30.8,-89.5L33.3,-91.4L35.8,-93.3L38.4,-95.0L41.1,-96.8L43.8,-98.4L46.6,-100.0L49.5,-101.5L52.4,-102.9L55.5,-104.3L58.5,-105.6L61.7,-106.8L64.9,-107.9L68.1,-109.0L71.4,-110.0L74.8,-110.9L78.2,-111.7L81.7,-112.4L4.7,-6.2L6.4,-8.2L8.2,-10.1L10.0,-11.9L11.9,-13.7L13.9,-15.4L15.9,-17.1L18.0,-18.7L20.2,-20.2L22.4,-21.7L24.7,-23.0L27.0,-24.3L29.4,-25.6L31.8,-26.7L34.3,-27.8L36.9,-28.8L39.4,-29.7L42.1,-30.6L44.7,-31.3L47.4,-32.0L50.1,-32.6L52.9,-33.1L55.7,-33.5L58.5,-33.8L61.4,-34.0L64.3,-34.2L67.2,-34.2L70.1,-34.2L73.0,-34.1L76.0,-33.8L79.0,-33.5L82.0,-33.1L84.9,-32.6L87.9,-32.0L91.0,-31.3L94.0,-30.5L97.0,-29.6L100.0,-28.7L103.0,-27.6L106.0,-26.4L108.9,-25.1L111.9,-23.8L114.9,-22.3L117.8,-20.8L120.7,-19.1L123.6,-17.4L126.5,-15.5L129.3,-13.6L132.1,-11.6L134.9,-9.4L137.6,-7.2L140.3,-4.9L9.2,-0.2L11.9,-0.0Z" fill="none" stroke="#dbeaf4" stroke-width="0.5" stroke-linecap="round" opacity="0.95"/><path d="M13.5,0.0L16.1,0.3L18.7,0.7L21.3,1.1L23.9,1.7L26.4,2.3L29.0,3.0L31.5,3.9L34.0,4.8L36.5,5.8L38.9,6.9L41.4,8.0L43.8,9.3L46.1,10.7L48.5,12.1L50.8,13.6L53.0,15.2L55.2,16.9L57.4,18.6L59.5,20.5L61.6,22.4L63.6,24.4L65.6,26.5L67.5,28.7L69.4,30.9L71.2,33.2L72.9,35.6L74.6,38.0L76.2,40.5L77.8,43.1L79.3,45.8L80.7,48.5L82.1,51.3L83.3,54.1L84.5,57.0L85.7,60.0L86.7,63.0L87.7,66.1L88.5,69.2L89.3,72.4L90.1,75.6L90.7,78.8L91.2,82.1L91.7,85.5L92.1,88.9L92.3,92.3L-0.4,-0.4L1.4,1.5L3.1,3.4L4.7,5.4L6.3,7.5L7.8,9.7L9.2,11.8L10.6,14.1L11.9,16.4L13.1,18.7L14.2,21.1L15.3,23.5L16.2,26.0L17.1,28.5L17.9,31.0L18.6,33.6L19.3,36.2L19.8,38.9L20.3,41.6L20.6,44.3L20.9,47.0L21.1,49.7L21.2,52.5L21.2,55.3L21.1,58.1L21.0,60.9L20.7,63.8L20.4,66.6L19.9,69.4L19.4,72.3L18.7,75.1L18.0,78.0L17.2,80.8L16.3,83.7L15.3,86.5L14.1,89.3L12.9,92.1L11.7,94.9L10.3,97.7L8.8,100.5L7.2,103.2L5.6,105.9L3.8,108.6L1.9,111.2L0.0,113.9L-2.0,116.4L-4.2,119.0L-6.4,121.5L-8.7,124.0L-11.1,126.4L-13.5,128.7L0.2,-1.7L-0.1,0.9L-0.5,3.5L-1.1,6.0L-1.7,8.5L-2.4,11.1L-3.1,13.5L-4.0,16.0L-4.9,18.5L-6.0,20.9L-7.1,23.2L-8.3,25.6L-9.6,27.9L-11.0,30.2L-12.4,32.4L-14.0,34.6L-15.6,36.7L-17.3,38.8L-19.1,40.9L-20.9,42.9L-22.8,44.8L-24.8,46.7L-26.9,48.6L-29.1,50.3L-31.3,52.0L-33.6,53.7L-35.9,55.3L-38.3,56.8L-40.8,58.3L-43.3,59.6L-45.9,61.0L-48.6,62.2L-51.3,63.4L-54.1,64.4L-56.9,65.5L-59.8,66.4L-62.7,67.2L-65.7,68.0L-68.7,68.7L-71.7,69.3L-74.8,69.8L-78.0,70.2L-81.2,70.5L-84.4,70.8L-87.6,70.9L-90.9,71.0L-94.2,71.0L-97.5,70.9L-100.9,70.6L-104.2,70.3L-107.6,69.9L2.4,-1.5L0.2,-0.1L-2.1,1.2L-4.4,2.4L-6.7,3.6L-9.1,4.6L-11.5,5.6L-13.9,6.5L-16.4,7.3L-19.0,8.0L-21.5,8.7L-24.1,9.2L-26.7,9.7L-29.3,10.1L-32.0,10.4L-34.6,10.6L-37.3,10.7L-40.0,10.7L-42.7,10.6L-45.4,10.5L-48.1,10.2L-50.9,9.9L-53.6,9.4L-56.3,8.9L-59.0,8.3L-61.7,7.6L-64.5,6.8L-67.2,5.9L-69.8,4.9L-72.5,3.8L-75.2,2.6L-77.8,1.4L-80.4,0.0L-83.0,-1.4L-85.6,-3.0L-88.1,-4.6L-90.6,-6.3L-93.1,-8.1L-95.5,-10.0L-97.9,-12.0L-100.2,-14.1L-102.5,-16.2L-104.8,-18.5L-107.0,-20.8L-109.2,-23.2L-111.3,-25.7L-113.4,-28.3L-115.4,-30.9L-117.3,-33.6L-119.2,-36.4L-121.0,-39.3L-122.8,-42.3L1.2,0.5L-1.2,-0.5L-3.6,-1.5L-6.0,-2.5L-8.3,-3.7L-10.6,-4.9L-12.8,-6.3L-15.0,-7.7L-17.2,-9.1L-19.3,-10.7L-21.4,-12.3L-23.4,-14.1L-25.3,-15.8L-27.2,-17.7L-29.1,-19.6L-30.9,-21.6L-32.6,-23.7L-34.2,-25.8L-35.8,-28.0L-37.4,-30.3L-38.8,-32.6L-40.2,-35.0L-41.5,-37.4L-42.8,-39.9L-43.9,-42.4L-45.0,-45.0L-46.1,-47.7L-47.0,-50.4L-47.8,-53.1L-48.6,-55.9L-49.3,-58.8L-49.9,-61.6L-50.4,-64.5L-50.9,-67.5L-51.2,-70.5L-51.5,-73.5L-51.6,-76.5L-51.7,-79.6L-51.7,-82.7L-51.6,-85.8L-51.4,-88.9L-51.1,-92.1L-50.7,-95.3L-50.2,-98.5L-49.6,-101.7L-48.9,-104.9L-48.1,-108.1L-47.2,-111.3L-46.3,-114.5L-45.2,-117.7L-44.0,-121.0L0.8,2.3L-0.0,-0.1L-0.8,-2.6L-1.5,-5.2L-2.1,-7.7L-2.6,-10.2L-3.0,-12.8L-3.3,-15.4L-3.5,-18.0L-3.6,-20.6L-3.7,-23.3L-3.6,-25.9L-3.5,-28.6L-3.3,-31.2L-3.0,-33.8L-2.6,-36.5L-2.0,-39.1L-1.5,-41.7L-0.8,-44.4L-0.0,-47.0L0.9,-49.6L1.8,-52.1L2.9,-54.7L4.0,-57.2L5.2,-59.7L6.5,-62.2L7.9,-64.7L9.4,-67.1L11.0,-69.5L12.7,-71.9L14.4,-74.2L16.3,-76.5L18.2,-78.7L20.2,-80.9L22.3,-83.1L24.4,-85.2L26.7,-87.2L29.0,-89.2L31.4,-91.1L33.9,-93.0L36.4,-94.8L39.0,-96.6L41.7,-98.3L44.5,-99.9L47.3,-101.5L50.2,-103.0L53.2,-104.4L56.2,-105.8L59.3,-107.1L62.5,-108.3L65.7,-109.4L69.0,-110.4L-0.5,0.8L0.9,-1.4L2.4,-3.5L4.0,-5.5L5.7,-7.5L7.4,-9.5L9.2,-11.4L11.1,-13.2L13.0,-15.0L15.0,-16.7L17.1,-18.3L19.2,-19.9L21.4,-21.4L23.6,-22.8L25.9,-24.2L28.3,-25.5L30.7,-26.7L33.1,-27.8L35.6,-28.9L38.2,-29.8L40.8,-30.7L43.4,-31.5L46.1,-32.3L48.8,-32.9L51.5,-33.5L54.3,-33.9L57.1,-34.3L60.0,-34.6L62.9,-34.8L65.8,-35.0L68.7,-35.0L71.6,-34.9L74.6,-34.8L77.5,-34.5L80.5,-34.2L83.5,-33.7L86.5,-33.2L89.5,-32.6L92.5,-31.9L95.6,-31.0L98.6,-30.1L101.6,-29.1L104.6,-28.0L107.6,-26.8L110.6,-25.5L113.5,-24.1L116.5,-22.6L119.4,-21.1L122.4,-19.4L125.3,-17.6L128.1,-15.7L-2.1,0.2L0.5,-0.0L3.1,-0.2L5.7,-0.3L8.3,-0.3L10.9,-0.2L13.5,-0.0Z" fill="none" stroke="#dee8f6" stroke-width="1.5" stroke-linecap="round" opacity="0.25" filter="url(#tg)"/><path d="M13.5,0.0L16.1,0.3L18.7,0.7L21.3,1.1L23.9,1.7L26.4,2.3L29.0,3.0L31.5,3.9L34.0,4.8L36.5,5.8L38.9,6.9L41.4,8.0L43.8,9.3L46.1,10.7L48.5,12.1L50.8,13.6L53.0,15.2L55.2,16.9L57.4,18.6L59.5,20.5L61.6,22.4L63.6,24.4L65.6,26.5L67.5,28.7L69.4,30.9L71.2,33.2L72.9,35.6L74.6,38.0L76.2,40.5L77.8,43.1L79.3,45.8L80.7,48.5L82.1,51.3L83.3,54.1L84.5,57.0L85.7,60.0L86.7,63.0L87.7,66.1L88.5,69.2L89.3,72.4L90.1,75.6L90.7,78.8L91.2,82.1L91.7,85.5L92.1,88.9L92.3,92.3L-0.4,-0.4L1.4,1.5L3.1,3.4L4.7,5.4L6.3,7.5L7.8,9.7L9.2,11.8L10.6,14.1L11.9,16.4L13.1,18.7L14.2,21.1L15.3,23.5L16.2,26.0L17.1,28.5L17.9,31.0L18.6,33.6L19.3,36.2L19.8,38.9L20.3,41.6L20.6,44.3L20.9,47.0L21.1,49.7L21.2,52.5L21.2,55.3L21.1,58.1L21.0,60.9L20.7,63.8L20.4,66.6L19.9,69.4L19.4,72.3L18.7,75.1L18.0,78.0L17.2,80.8L16.3,83.7L15.3,86.5L14.1,89.3L12.9,92.1L11.7,94.9L10.3,97.7L8.8,100.5L7.2,103.2L5.6,105.9L3.8,108.6L1.9,111.2L0.0,113.9L-2.0,116.4L-4.2,119.0L-6.4,121.5L-8.7,124.0L-11.1,126.4L-13.5,128.7L0.2,-1.7L-0.1,0.9L-0.5,3.5L-1.1,6.0L-1.7,8.5L-2.4,11.1L-3.1,13.5L-4.0,16.0L-4.9,18.5L-6.0,20.9L-7.1,23.2L-8.3,25.6L-9.6,27.9L-11.0,30.2L-12.4,32.4L-14.0,34.6L-15.6,36.7L-17.3,38.8L-19.1,40.9L-20.9,42.9L-22.8,44.8L-24.8,46.7L-26.9,48.6L-29.1,50.3L-31.3,52.0L-33.6,53.7L-35.9,55.3L-38.3,56.8L-40.8,58.3L-43.3,59.6L-45.9,61.0L-48.6,62.2L-51.3,63.4L-54.1,64.4L-56.9,65.5L-59.8,66.4L-62.7,67.2L-65.7,68.0L-68.7,68.7L-71.7,69.3L-74.8,69.8L-78.0,70.2L-81.2,70.5L-84.4,70.8L-87.6,70.9L-90.9,71.0L-94.2,71.0L-97.5,70.9L-100.9,70.6L-104.2,70.3L-107.6,69.9L2.4,-1.5L0.2,-0.1L-2.1,1.2L-4.4,2.4L-6.7,3.6L-9.1,4.6L-11.5,5.6L-13.9,6.5L-16.4,7.3L-19.0,8.0L-21.5,8.7L-24.1,9.2L-26.7,9.7L-29.3,10.1L-32.0,10.4L-34.6,10.6L-37.3,10.7L-40.0,10.7L-42.7,10.6L-45.4,10.5L-48.1,10.2L-50.9,9.9L-53.6,9.4L-56.3,8.9L-59.0,8.3L-61.7,7.6L-64.5,6.8L-67.2,5.9L-69.8,4.9L-72.5,3.8L-75.2,2.6L-77.8,1.4L-80.4,0.0L-83.0,-1.4L-85.6,-3.0L-88.1,-4.6L-90.6,-6.3L-93.1,-8.1L-95.5,-10.0L-97.9,-12.0L-100.2,-14.1L-102.5,-16.2L-104.8,-18.5L-107.0,-20.8L-109.2,-23.2L-111.3,-25.7L-113.4,-28.3L-115.4,-30.9L-117.3,-33.6L-119.2,-36.4L-121.0,-39.3L-122.8,-42.3L1.2,0.5L-1.2,-0.5L-3.6,-1.5L-6.0,-2.5L-8.3,-3.7L-10.6,-4.9L-12.8,-6.3L-15.0,-7.7L-17.2,-9.1L-19.3,-10.7L-21.4,-12.3L-23.4,-14.1L-25.3,-15.8L-27.2,-17.7L-29.1,-19.6L-30.9,-21.6L-32.6,-23.7L-34.2,-25.8L-35.8,-28.0L-37.4,-30.3L-38.8,-32.6L-40.2,-35.0L-41.5,-37.4L-42.8,-39.9L-43.9,-42.4L-45.0,-45.0L-46.1,-47.7L-47.0,-50.4L-47.8,-53.1L-48.6,-55.9L-49.3,-58.8L-49.9,-61.6L-50.4,-64.5L-50.9,-67.5L-51.2,-70.5L-51.5,-73.5L-51.6,-76.5L-51.7,-79.6L-51.7,-82.7L-51.6,-85.8L-51.4,-88.9L-51.1,-92.1L-50.7,-95.3L-50.2,-98.5L-49.6,-101.7L-48.9,-104.9L-48.1,-108.1L-47.2,-111.3L-46.3,-114.5L-45.2,-117.7L-44.0,-121.0L0.8,2.3L-0.0,-0.1L-0.8,-2.6L-1.5,-5.2L-2.1,-7.7L-2.6,-10.2L-3.0,-12.8L-3.3,-15.4L-3.5,-18.0L-3.6,-20.6L-3.7,-23.3L-3.6,-25.9L-3.5,-28.6L-3.3,-31.2L-3.0,-33.8L-2.6,-36.5L-2.0,-39.1L-1.5,-41.7L-0.8,-44.4L-0.0,-47.0L0.9,-49.6L1.8,-52.1L2.9,-54.7L4.0,-57.2L5.2,-59.7L6.5,-62.2L7.9,-64.7L9.4,-67.1L11.0,-69.5L12.7,-71.9L14.4,-74.2L16.3,-76.5L18.2,-78.7L20.2,-80.9L22.3,-83.1L24.4,-85.2L26.7,-87.2L29.0,-89.2L31.4,-91.1L33.9,-93.0L36.4,-94.8L39.0,-96.6L41.7,-98.3L44.5,-99.9L47.3,-101.5L50.2,-103.0L53.2,-104.4L56.2,-105.8L59.3,-107.1L62.5,-108.3L65.7,-109.4L69.0,-110.4L-0.5,0.8L0.9,-1.4L2.4,-3.5L4.0,-5.5L5.7,-7.5L7.4,-9.5L9.2,-11.4L11.1,-13.2L13.0,-15.0L15.0,-16.7L17.1,-18.3L19.2,-19.9L21.4,-21.4L23.6,-22.8L25.9,-24.2L28.3,-25.5L30.7,-26.7L33.1,-27.8L35.6,-28.9L38.2,-29.8L40.8,-30.7L43.4,-31.5L46.1,-32.3L48.8,-32.9L51.5,-33.5L54.3,-33.9L57.1,-34.3L60.0,-34.6L62.9,-34.8L65.8,-35.0L68.7,-35.0L71.6,-34.9L74.6,-34.8L77.5,-34.5L80.5,-34.2L83.5,-33.7L86.5,-33.2L89.5,-32.6L92.5,-31.9L95.6,-31.0L98.6,-30.1L101.6,-29.1L104.6,-28.0L107.6,-26.8L110.6,-25.5L113.5,-24.1L116.5,-22.6L119.4,-21.1L122.4,-19.4L125.3,-17.6L128.1,-15.7L-2.1,0.2L0.5,-0.0L3.1,-0.2L5.7,-0.3L8.3,-0.3L10.9,-0.2L13.5,-0.0Z" fill="none" stroke="#dee8f6" stroke-width="0.5" stroke-linecap="round" opacity="0.95"/><path d="M15.2,0.0L17.8,0.3L20.4,0.7L23.0,1.2L25.6,1.8L28.1,2.5L30.7,3.2L33.2,4.1L35.7,5.0L38.1,6.0L40.6,7.2L43.0,8.4L45.4,9.7L47.8,11.0L50.1,12.5L52.4,14.0L54.6,15.7L56.8,17.4L59.0,19.2L61.1,21.0L63.2,23.0L65.2,25.0L67.2,27.1L69.1,29.3L70.9,31.6L72.7,33.9L74.5,36.3L76.1,38.8L77.7,41.3L79.3,43.9L80.7,46.6L82.2,49.4L83.5,52.2L84.7,55.0L85.9,58.0L87.0,60.9L88.1,64.0L89.0,67.1L89.9,70.2L90.7,73.4L91.4,76.7L-9.0,-7.8L-6.9,-6.2L-4.9,-4.6L-3.0,-2.9L-1.1,-1.1L0.8,0.8L2.5,2.7L4.2,4.7L5.8,6.7L7.4,8.8L8.9,11.0L10.3,13.2L11.6,15.4L12.9,17.7L14.1,20.1L15.2,22.5L16.2,24.9L17.1,27.4L18.0,29.9L18.8,32.5L19.4,35.1L20.1,37.7L20.6,40.4L21.0,43.1L21.3,45.8L21.6,48.5L21.8,51.3L21.8,54.1L21.8,56.9L21.7,59.7L21.5,62.5L21.2,65.4L20.9,68.2L20.4,71.1L19.8,73.9L19.1,76.8L18.4,79.6L17.5,82.5L16.6,85.3L15.5,88.2L14.4,91.0L13.2,93.8L11.9,96.6L10.4,99.4L8.9,102.1L7.3,104.9L5.6,107.6L3.9,110.3L2.0,112.9L0.0,115.5L-2.1,118.1L0.5,-13.0L0.5,-10.4L0.5,-7.8L0.5,-5.2L0.3,-2.6L0.0,-0.0L-0.4,2.6L-0.8,5.1L-1.4,7.7L-2.0,10.2L-2.7,12.7L-3.5,15.2L-4.4,17.6L-5.4,20.1L-6.4,22.5L-7.6,24.9L-8.8,27.2L-10.2,29.5L-11.6,31.8L-13.0,34.0L-14.6,36.2L-16.3,38.3L-18.0,40.4L-19.8,42.4L-21.7,44.4L-23.6,46.3L-25.6,48.2L-27.7,50.0L-29.9,51.8L-32.1,53.5L-34.4,55.1L-36.8,56.7L-39.3,58.2L-41.8,59.6L-44.3,61.0L-46.9,62.3L-49.6,63.5L-52.4,64.7L-55.2,65.7L-58.0,66.7L-60.9,67.6L-63.8,68.5L-66.8,69.2L-69.9,69.9L-73.0,70.4L-76.1,70.9L-79.2,71.3L-82.4,71.7L-85.7,71.9L-88.9,72.0L-92.2,72.0L-95.5,72.0L9.3,-6.8L7.3,-5.1L5.3,-3.5L3.1,-2.0L1.0,-0.6L-1.3,0.8L-3.5,2.0L-5.8,3.2L-8.2,4.4L-10.6,5.4L-13.0,6.3L-15.5,7.2L-18.0,8.0L-20.5,8.7L-23.1,9.3L-25.7,9.8L-28.3,10.3L-30.9,10.6L-33.6,10.9L-36.2,11.1L-38.9,11.2L-41.6,11.2L-44.3,11.1L-47.0,10.9L-49.8,10.6L-52.5,10.2L-55.2,9.7L-58.0,9.2L-60.7,8.5L-63.4,7.8L-66.1,6.9L-68.8,6.0L-71.5,5.0L-74.2,3.9L-76.8,2.7L-79.5,1.4L-82.1,0.0L-84.7,-1.5L-87.2,-3.0L-89.8,-4.7L-92.3,-6.5L-94.7,-8.3L-97.2,-10.2L-99.6,-12.2L-101.9,-14.3L-104.2,-16.5L-106.5,-18.8L-108.7,-21.1L-110.8,-23.6L-112.9,-26.1L-115.0,-28.7L12.2,3.3L9.7,2.8L7.1,2.2L4.6,1.5L2.1,0.7L-0.3,-0.1L-2.8,-1.1L-5.1,-2.1L-7.5,-3.2L-9.8,-4.4L-12.1,-5.6L-14.3,-7.0L-16.5,-8.4L-18.7,-9.9L-20.8,-11.5L-22.8,-13.2L-24.8,-14.9L-26.8,-16.7L-28.7,-18.6L-30.5,-20.6L-32.2,-22.6L-34.0,-24.7L-35.6,-26.8L-37.2,-29.0L-38.7,-31.3L-40.1,-33.7L-41.5,-36.1L-42.8,-38.5L-44.0,-41.0L-45.2,-43.6L-46.2,-46.2L-47.2,-48.9L-48.1,-51.6L-49.0,-54.4L-49.7,-57.2L-50.4,-60.0L-51.0,-62.9L-51.5,-65.9L-51.9,-68.8L-52.2,-71.8L-52.4,-74.9L-52.6,-77.9L-52.6,-81.0L-52.6,-84.1L-52.4,-87.2L-52.2,-90.4L-51.9,-93.6L-51.4,-96.8L-50.9,-100.0L-50.3,-103.2L-49.6,-106.4L-48.8,-109.6L4.4,10.3L3.2,7.9L2.1,5.6L1.2,3.2L0.2,0.7L-0.6,-1.7L-1.3,-4.2L-1.9,-6.8L-2.5,-9.3L-3.0,-11.9L-3.3,-14.5L-3.6,-17.1L-3.8,-19.7L-3.9,-22.3L-3.9,-24.9L-3.9,-27.6L-3.7,-30.2L-3.5,-32.9L-3.1,-35.5L-2.7,-38.2L-2.1,-40.8L-1.5,-43.4L-0.8,-46.0L-0.0,-48.7L0.9,-51.2L1.9,-53.8L3.0,-56.4L4.1,-58.9L5.4,-61.4L6.7,-63.9L8.1,-66.4L9.7,-68.8L11.3,-71.2L13.0,-73.5L14.7,-75.8L16.6,-78.1L18.6,-80.4L20.6,-82.5L22.7,-84.7L24.9,-86.8L27.2,-88.8L29.5,-90.8L31.9,-92.7L34.4,-94.6L37.0,-96.4L39.7,-98.2L42.4,-99.9L45.2,-101.5L48.0,-103.0L51.0,-104.5L54.0,-105.9L-5.8,10.8L-4.7,8.5L-3.5,6.1L-2.3,3.8L-1.0,1.6L0.4,-0.6L1.9,-2.8L3.4,-4.9L5.0,-6.9L6.7,-8.9L8.5,-10.8L10.3,-12.7L12.2,-14.5L14.1,-16.2L16.1,-17.9L18.2,-19.6L20.4,-21.1L22.6,-22.6L24.8,-24.0L27.2,-25.3L29.5,-26.6L32.0,-27.8L34.4,-28.9L36.9,-29.9L39.5,-30.9L42.1,-31.7L44.8,-32.5L47.5,-33.2L50.2,-33.9L53.0,-34.4L55.8,-34.8L58.6,-35.2L61.4,-35.5L64.3,-35.7L67.2,-35.7L70.2,-35.8L73.1,-35.7L76.1,-35.5L79.1,-35.2L82.1,-34.8L85.1,-34.4L88.1,-33.8L91.1,-33.2L94.1,-32.4L97.2,-31.6L100.2,-30.6L103.2,-29.6L106.2,-28.5L109.2,-27.2L112.2,-25.9L115.2,-24.5L118.2,-23.0L-10.6,1.9L-8.1,1.3L-5.5,0.8L-3.0,0.4L-0.4,0.0L2.2,-0.2L4.8,-0.3L7.4,-0.4L10.0,-0.3L12.6,-0.2L15.2,-0.0Z" fill="none" stroke="#e2e7f7" stroke-width="1.5" stroke-linecap="round" opacity="0.25" filter="url(#tg)"/><path d="M15.2,0.0L17.8,0.3L20.4,0.7L23.0,1.2L25.6,1.8L28.1,2.5L30.7,3.2L33.2,4.1L35.7,5.0L38.1,6.0L40.6,7.2L43.0,8.4L45.4,9.7L47.8,11.0L50.1,12.5L52.4,14.0L54.6,15.7L56.8,17.4L59.0,19.2L61.1,21.0L63.2,23.0L65.2,25.0L67.2,27.1L69.1,29.3L70.9,31.6L72.7,33.9L74.5,36.3L76.1,38.8L77.7,41.3L79.3,43.9L80.7,46.6L82.2,49.4L83.5,52.2L84.7,55.0L85.9,58.0L87.0,60.9L88.1,64.0L89.0,67.1L89.9,70.2L90.7,73.4L91.4,76.7L-9.0,-7.8L-6.9,-6.2L-4.9,-4.6L-3.0,-2.9L-1.1,-1.1L0.8,0.8L2.5,2.7L4.2,4.7L5.8,6.7L7.4,8.8L8.9,11.0L10.3,13.2L11.6,15.4L12.9,17.7L14.1,20.1L15.2,22.5L16.2,24.9L17.1,27.4L18.0,29.9L18.8,32.5L19.4,35.1L20.1,37.7L20.6,40.4L21.0,43.1L21.3,45.8L21.6,48.5L21.8,51.3L21.8,54.1L21.8,56.9L21.7,59.7L21.5,62.5L21.2,65.4L20.9,68.2L20.4,71.1L19.8,73.9L19.1,76.8L18.4,79.6L17.5,82.5L16.6,85.3L15.5,88.2L14.4,91.0L13.2,93.8L11.9,96.6L10.4,99.4L8.9,102.1L7.3,104.9L5.6,107.6L3.9,110.3L2.0,112.9L0.0,115.5L-2.1,118.1L0.5,-13.0L0.5,-10.4L0.5,-7.8L0.5,-5.2L0.3,-2.6L0.0,-0.0L-0.4,2.6L-0.8,5.1L-1.4,7.7L-2.0,10.2L-2.7,12.7L-3.5,15.2L-4.4,17.6L-5.4,20.1L-6.4,22.5L-7.6,24.9L-8.8,27.2L-10.2,29.5L-11.6,31.8L-13.0,34.0L-14.6,36.2L-16.3,38.3L-18.0,40.4L-19.8,42.4L-21.7,44.4L-23.6,46.3L-25.6,48.2L-27.7,50.0L-29.9,51.8L-32.1,53.5L-34.4,55.1L-36.8,56.7L-39.3,58.2L-41.8,59.6L-44.3,61.0L-46.9,62.3L-49.6,63.5L-52.4,64.7L-55.2,65.7L-58.0,66.7L-60.9,67.6L-63.8,68.5L-66.8,69.2L-69.9,69.9L-73.0,70.4L-76.1,70.9L-79.2,71.3L-82.4,71.7L-85.7,71.9L-88.9,72.0L-92.2,72.0L-95.5,72.0L9.3,-6.8L7.3,-5.1L5.3,-3.5L3.1,-2.0L1.0,-0.6L-1.3,0.8L-3.5,2.0L-5.8,3.2L-8.2,4.4L-10.6,5.4L-13.0,6.3L-15.5,7.2L-18.0,8.0L-20.5,8.7L-23.1,9.3L-25.7,9.8L-28.3,10.3L-30.9,10.6L-33.6,10.9L-36.2,11.1L-38.9,11.2L-41.6,11.2L-44.3,11.1L-47.0,10.9L-49.8,10.6L-52.5,10.2L-55.2,9.7L-58.0,9.2L-60.7,8.5L-63.4,7.8L-66.1,6.9L-68.8,6.0L-71.5,5.0L-74.2,3.9L-76.8,2.7L-79.5,1.4L-82.1,0.0L-84.7,-1.5L-87.2,-3.0L-89.8,-4.7L-92.3,-6.5L-94.7,-8.3L-97.2,-10.2L-99.6,-12.2L-101.9,-14.3L-104.2,-16.5L-106.5,-18.8L-108.7,-21.1L-110.8,-23.6L-112.9,-26.1L-115.0,-28.7L12.2,3.3L9.7,2.8L7.1,2.2L4.6,1.5L2.1,0.7L-0.3,-0.1L-2.8,-1.1L-5.1,-2.1L-7.5,-3.2L-9.8,-4.4L-12.1,-5.6L-14.3,-7.0L-16.5,-8.4L-18.7,-9.9L-20.8,-11.5L-22.8,-13.2L-24.8,-14.9L-26.8,-16.7L-28.7,-18.6L-30.5,-20.6L-32.2,-22.6L-34.0,-24.7L-35.6,-26.8L-37.2,-29.0L-38.7,-31.3L-40.1,-33.7L-41.5,-36.1L-42.8,-38.5L-44.0,-41.0L-45.2,-43.6L-46.2,-46.2L-47.2,-48.9L-48.1,-51.6L-49.0,-54.4L-49.7,-57.2L-50.4,-60.0L-51.0,-62.9L-51.5,-65.9L-51.9,-68.8L-52.2,-71.8L-52.4,-74.9L-52.6,-77.9L-52.6,-81.0L-52.6,-84.1L-52.4,-87.2L-52.2,-90.4L-51.9,-93.6L-51.4,-96.8L-50.9,-100.0L-50.3,-103.2L-49.6,-106.4L-48.8,-109.6L4.4,10.3L3.2,7.9L2.1,5.6L1.2,3.2L0.2,0.7L-0.6,-1.7L-1.3,-4.2L-1.9,-6.8L-2.5,-9.3L-3.0,-11.9L-3.3,-14.5L-3.6,-17.1L-3.8,-19.7L-3.9,-22.3L-3.9,-24.9L-3.9,-27.6L-3.7,-30.2L-3.5,-32.9L-3.1,-35.5L-2.7,-38.2L-2.1,-40.8L-1.5,-43.4L-0.8,-46.0L-0.0,-48.7L0.9,-51.2L1.9,-53.8L3.0,-56.4L4.1,-58.9L5.4,-61.4L6.7,-63.9L8.1,-66.4L9.7,-68.8L11.3,-71.2L13.0,-73.5L14.7,-75.8L16.6,-78.1L18.6,-80.4L20.6,-82.5L22.7,-84.7L24.9,-86.8L27.2,-88.8L29.5,-90.8L31.9,-92.7L34.4,-94.6L37.0,-96.4L39.7,-98.2L42.4,-99.9L45.2,-101.5L48.0,-103.0L51.0,-104.5L54.0,-105.9L-5.8,10.8L-4.7,8.5L-3.5,6.1L-2.3,3.8L-1.0,1.6L0.4,-0.6L1.9,-2.8L3.4,-4.9L5.0,-6.9L6.7,-8.9L8.5,-10.8L10.3,-12.7L12.2,-14.5L14.1,-16.2L16.1,-17.9L18.2,-19.6L20.4,-21.1L22.6,-22.6L24.8,-24.0L27.2,-25.3L29.5,-26.6L32.0,-27.8L34.4,-28.9L36.9,-29.9L39.5,-30.9L42.1,-31.7L44.8,-32.5L47.5,-33.2L50.2,-33.9L53.0,-34.4L55.8,-34.8L58.6,-35.2L61.4,-35.5L64.3,-35.7L67.2,-35.7L70.2,-35.8L73.1,-35.7L76.1,-35.5L79.1,-35.2L82.1,-34.8L85.1,-34.4L88.1,-33.8L91.1,-33.2L94.1,-32.4L97.2,-31.6L100.2,-30.6L103.2,-29.6L106.2,-28.5L109.2,-27.2L112.2,-25.9L115.2,-24.5L118.2,-23.0L-10.6,1.9L-8.1,1.3L-5.5,0.8L-3.0,0.4L-0.4,0.0L2.2,-0.2L4.8,-0.3L7.4,-0.4L10.0,-0.3L12.6,-0.2L15.2,-0.0Z" fill="none" stroke="#e2e7f7" stroke-width="0.5" stroke-linecap="round" opacity="0.95"/><path d="M16.9,0.0L19.5,0.3L22.1,0.8L24.7,1.3L27.2,1.9L29.8,2.6L32.3,3.4L34.8,4.3L37.3,5.2L39.8,6.3L42.3,7.5L44.7,8.7L47.1,10.0L49.4,11.4L51.7,12.9L54.0,14.5L56.2,16.1L58.4,17.9L60.6,19.7L62.7,21.6L64.8,23.6L66.8,25.6L68.7,27.8L70.6,30.0L72.5,32.3L74.2,34.6L76.0,37.1L77.6,39.6L79.2,42.1L80.7,44.8L82.2,47.5L83.6,50.2L84.9,53.1L86.2,55.9L87.3,58.9L88.4,61.9L-18.8,-13.7L-16.5,-12.4L-14.2,-11.1L-12.0,-9.7L-9.8,-8.2L-7.7,-6.7L-5.7,-5.1L-3.7,-3.4L-1.7,-1.7L0.1,0.1L1.9,2.0L3.7,3.9L5.3,5.9L6.9,8.0L8.5,10.1L9.9,12.3L11.3,14.5L12.6,16.8L13.9,19.1L15.0,21.4L16.1,23.9L17.1,26.3L18.0,28.8L18.8,31.4L19.6,33.9L20.3,36.6L20.8,39.2L21.3,41.9L21.7,44.6L22.1,47.3L22.3,50.1L22.4,52.8L22.5,55.6L22.4,58.4L22.3,61.3L22.1,64.1L21.8,67.0L21.3,69.8L20.8,72.7L20.2,75.5L19.5,78.4L18.8,81.3L17.9,84.1L16.9,87.0L15.8,89.8L14.7,92.7L13.4,95.5L12.1,98.3L10.6,101.1L9.1,103.8L7.5,106.6L5.7,109.3L-0.8,-21.7L-0.3,-19.1L-0.0,-16.5L0.2,-13.9L0.4,-11.3L0.5,-8.7L0.4,-6.1L0.3,-3.5L0.1,-0.9L-0.2,1.6L-0.6,4.2L-1.1,6.8L-1.6,9.3L-2.3,11.8L-3.0,14.3L-3.9,16.8L-4.8,19.3L-5.8,21.7L-6.9,24.1L-8.1,26.5L-9.4,28.8L-10.7,31.1L-12.1,33.3L-13.6,35.5L-15.2,37.7L-16.9,39.8L-18.7,41.9L-20.5,43.9L-22.4,45.9L-24.4,47.8L-26.4,49.7L-28.5,51.5L-30.7,53.2L-33.0,54.9L-35.3,56.6L-37.7,58.1L-40.2,59.6L-42.7,61.0L-45.3,62.4L-48.0,63.6L-50.7,64.8L-53.4,66.0L-56.2,67.0L-59.1,68.0L-62.0,68.9L-65.0,69.7L-68.0,70.4L-71.1,71.1L-74.2,71.6L-77.3,72.1L-80.5,72.5L17.3,-15.0L15.5,-13.0L13.7,-11.1L11.9,-9.3L9.9,-7.5L8.0,-5.8L5.9,-4.2L3.9,-2.6L1.7,-1.1L-0.5,0.3L-2.7,1.6L-5.0,2.9L-7.3,4.0L-9.7,5.1L-12.1,6.2L-14.5,7.1L-17.0,7.9L-19.5,8.7L-22.1,9.4L-24.6,9.9L-27.2,10.4L-29.8,10.9L-32.5,11.2L-35.2,11.4L-37.8,11.6L-40.5,11.6L-43.2,11.6L-46.0,11.5L-48.7,11.2L-51.4,10.9L-54.2,10.5L-56.9,10.0L-59.6,9.4L-62.4,8.8L-65.1,8.0L-67.8,7.1L-70.5,6.2L-73.2,5.1L-75.9,4.0L-78.5,2.7L-81.2,1.4L-83.8,0.0L-86.4,-1.5L-88.9,-3.1L-91.5,-4.8L-94.0,-6.6L-96.4,-8.4L-98.8,-10.4L-101.2,-12.4L-103.6,-14.6L-105.9,-16.8L-108.1,-19.1L21.0,4.1L18.4,3.9L15.8,3.6L13.2,3.3L10.6,2.8L8.0,2.3L5.5,1.7L3.0,1.0L0.5,0.2L-1.9,-0.7L-4.3,-1.7L-6.7,-2.7L-9.1,-3.8L-11.4,-5.1L-13.6,-6.4L-15.9,-7.7L-18.0,-9.2L-20.2,-10.7L-22.3,-12.3L-24.3,-14.0L-26.3,-15.8L-28.2,-17.6L-30.1,-19.5L-31.9,-21.5L-33.6,-23.5L-35.3,-25.7L-36.9,-27.8L-38.5,-30.1L-40.0,-32.4L-41.4,-34.7L-42.8,-37.2L-44.0,-39.6L-45.2,-42.2L-46.4,-44.8L-47.4,-47.4L-48.4,-50.1L-49.3,-52.8L-50.1,-55.6L-50.8,-58.5L-51.5,-61.3L-52.0,-64.2L-52.5,-67.2L-52.9,-70.2L-53.2,-73.2L-53.4,-76.2L-53.5,-79.3L-53.5,-82.4L-53.5,-85.5L-53.3,-88.7L-53.0,-91.9L-52.7,-95.0L10.6,19.9L9.0,17.7L7.6,15.5L6.2,13.3L4.9,11.0L3.7,8.7L2.6,6.4L1.5,4.0L0.6,1.6L-0.3,-0.9L-1.1,-3.3L-1.8,-5.9L-2.4,-8.4L-2.9,-10.9L-3.4,-13.5L-3.7,-16.1L-4.0,-18.7L-4.1,-21.3L-4.2,-24.0L-4.2,-26.6L-4.1,-29.2L-3.9,-31.9L-3.6,-34.5L-3.3,-37.2L-2.8,-39.8L-2.2,-42.5L-1.6,-45.1L-0.8,-47.7L-0.0,-50.3L0.9,-52.9L1.9,-55.5L3.0,-58.1L4.2,-60.6L5.5,-63.1L6.9,-65.6L8.4,-68.0L9.9,-70.5L11.5,-72.8L13.3,-75.2L15.1,-77.5L17.0,-79.8L18.9,-82.0L21.0,-84.2L23.1,-86.3L25.3,-88.4L27.6,-90.4L30.0,-92.4L32.5,-94.3L35.0,-96.2L37.6,-98.0L40.3,-99.7L43.0,-101.4L-8.5,19.2L-7.8,16.7L-6.9,14.2L-6.0,11.8L-5.0,9.4L-3.9,7.0L-2.7,4.7L-1.4,2.4L-0.1,0.2L1.3,-2.0L2.8,-4.2L4.4,-6.2L6.0,-8.3L7.7,-10.2L9.5,-12.1L11.3,-14.0L13.2,-15.8L15.2,-17.5L17.3,-19.2L19.4,-20.8L21.5,-22.3L23.8,-23.8L26.1,-25.2L28.4,-26.5L30.8,-27.7L33.2,-28.9L35.7,-30.0L38.3,-31.0L40.8,-31.9L43.5,-32.8L46.1,-33.5L48.8,-34.2L51.6,-34.8L54.4,-35.3L57.2,-35.7L60.0,-36.1L62.9,-36.3L65.8,-36.5L68.7,-36.5L71.7,-36.5L74.6,-36.4L77.6,-36.2L80.6,-35.9L83.6,-35.5L86.6,-35.0L89.7,-34.4L92.7,-33.7L95.7,-33.0L98.8,-32.1L101.8,-31.1L104.8,-30.1L-21.4,5.7L-18.9,4.7L-16.5,3.8L-14.0,3.0L-11.5,2.2L-9.0,1.6L-6.4,1.0L-3.9,0.5L-1.3,0.2L1.3,-0.1L3.9,-0.3L6.5,-0.5L9.1,-0.5L11.7,-0.4L14.3,-0.2L16.9,-0.0Z" fill="none" stroke="#e5e6f8" stroke-width="1.5" stroke-linecap="round" opacity="0.25" filter="url(#tg)"/><path d="M16.9,0.0L19.5,0.3L22.1,0.8L24.7,1.3L27.2,1.9L29.8,2.6L32.3,3.4L34.8,4.3L37.3,5.2L39.8,6.3L42.3,7.5L44.7,8.7L47.1,10.0L49.4,11.4L51.7,12.9L54.0,14.5L56.2,16.1L58.4,17.9L60.6,19.7L62.7,21.6L64.8,23.6L66.8,25.6L68.7,27.8L70.6,30.0L72.5,32.3L74.2,34.6L76.0,37.1L77.6,39.6L79.2,42.1L80.7,44.8L82.2,47.5L83.6,50.2L84.9,53.1L86.2,55.9L87.3,58.9L88.4,61.9L-18.8,-13.7L-16.5,-12.4L-14.2,-11.1L-12.0,-9.7L-9.8,-8.2L-7.7,-6.7L-5.7,-5.1L-3.7,-3.4L-1.7,-1.7L0.1,0.1L1.9,2.0L3.7,3.9L5.3,5.9L6.9,8.0L8.5,10.1L9.9,12.3L11.3,14.5L12.6,16.8L13.9,19.1L15.0,21.4L16.1,23.9L17.1,26.3L18.0,28.8L18.8,31.4L19.6,33.9L20.3,36.6L20.8,39.2L21.3,41.9L21.7,44.6L22.1,47.3L22.3,50.1L22.4,52.8L22.5,55.6L22.4,58.4L22.3,61.3L22.1,64.1L21.8,67.0L21.3,69.8L20.8,72.7L20.2,75.5L19.5,78.4L18.8,81.3L17.9,84.1L16.9,87.0L15.8,89.8L14.7,92.7L13.4,95.5L12.1,98.3L10.6,101.1L9.1,103.8L7.5,106.6L5.7,109.3L-0.8,-21.7L-0.3,-19.1L-0.0,-16.5L0.2,-13.9L0.4,-11.3L0.5,-8.7L0.4,-6.1L0.3,-3.5L0.1,-0.9L-0.2,1.6L-0.6,4.2L-1.1,6.8L-1.6,9.3L-2.3,11.8L-3.0,14.3L-3.9,16.8L-4.8,19.3L-5.8,21.7L-6.9,24.1L-8.1,26.5L-9.4,28.8L-10.7,31.1L-12.1,33.3L-13.6,35.5L-15.2,37.7L-16.9,39.8L-18.7,41.9L-20.5,43.9L-22.4,45.9L-24.4,47.8L-26.4,49.7L-28.5,51.5L-30.7,53.2L-33.0,54.9L-35.3,56.6L-37.7,58.1L-40.2,59.6L-42.7,61.0L-45.3,62.4L-48.0,63.6L-50.7,64.8L-53.4,66.0L-56.2,67.0L-59.1,68.0L-62.0,68.9L-65.0,69.7L-68.0,70.4L-71.1,71.1L-74.2,71.6L-77.3,72.1L-80.5,72.5L17.3,-15.0L15.5,-13.0L13.7,-11.1L11.9,-9.3L9.9,-7.5L8.0,-5.8L5.9,-4.2L3.9,-2.6L1.7,-1.1L-0.5,0.3L-2.7,1.6L-5.0,2.9L-7.3,4.0L-9.7,5.1L-12.1,6.2L-14.5,7.1L-17.0,7.9L-19.5,8.7L-22.1,9.4L-24.6,9.9L-27.2,10.4L-29.8,10.9L-32.5,11.2L-35.2,11.4L-37.8,11.6L-40.5,11.6L-43.2,11.6L-46.0,11.5L-48.7,11.2L-51.4,10.9L-54.2,10.5L-56.9,10.0L-59.6,9.4L-62.4,8.8L-65.1,8.0L-67.8,7.1L-70.5,6.2L-73.2,5.1L-75.9,4.0L-78.5,2.7L-81.2,1.4L-83.8,0.0L-86.4,-1.5L-88.9,-3.1L-91.5,-4.8L-94.0,-6.6L-96.4,-8.4L-98.8,-10.4L-101.2,-12.4L-103.6,-14.6L-105.9,-16.8L-108.1,-19.1L21.0,4.1L18.4,3.9L15.8,3.6L13.2,3.3L10.6,2.8L8.0,2.3L5.5,1.7L3.0,1.0L0.5,0.2L-1.9,-0.7L-4.3,-1.7L-6.7,-2.7L-9.1,-3.8L-11.4,-5.1L-13.6,-6.4L-15.9,-7.7L-18.0,-9.2L-20.2,-10.7L-22.3,-12.3L-24.3,-14.0L-26.3,-15.8L-28.2,-17.6L-30.1,-19.5L-31.9,-21.5L-33.6,-23.5L-35.3,-25.7L-36.9,-27.8L-38.5,-30.1L-40.0,-32.4L-41.4,-34.7L-42.8,-37.2L-44.0,-39.6L-45.2,-42.2L-46.4,-44.8L-47.4,-47.4L-48.4,-50.1L-49.3,-52.8L-50.1,-55.6L-50.8,-58.5L-51.5,-61.3L-52.0,-64.2L-52.5,-67.2L-52.9,-70.2L-53.2,-73.2L-53.4,-76.2L-53.5,-79.3L-53.5,-82.4L-53.5,-85.5L-53.3,-88.7L-53.0,-91.9L-52.7,-95.0L10.6,19.9L9.0,17.7L7.6,15.5L6.2,13.3L4.9,11.0L3.7,8.7L2.6,6.4L1.5,4.0L0.6,1.6L-0.3,-0.9L-1.1,-3.3L-1.8,-5.9L-2.4,-8.4L-2.9,-10.9L-3.4,-13.5L-3.7,-16.1L-4.0,-18.7L-4.1,-21.3L-4.2,-24.0L-4.2,-26.6L-4.1,-29.2L-3.9,-31.9L-3.6,-34.5L-3.3,-37.2L-2.8,-39.8L-2.2,-42.5L-1.6,-45.1L-0.8,-47.7L-0.0,-50.3L0.9,-52.9L1.9,-55.5L3.0,-58.1L4.2,-60.6L5.5,-63.1L6.9,-65.6L8.4,-68.0L9.9,-70.5L11.5,-72.8L13.3,-75.2L15.1,-77.5L17.0,-79.8L18.9,-82.0L21.0,-84.2L23.1,-86.3L25.3,-88.4L27.6,-90.4L30.0,-92.4L32.5,-94.3L35.0,-96.2L37.6,-98.0L40.3,-99.7L43.0,-101.4L-8.5,19.2L-7.8,16.7L-6.9,14.2L-6.0,11.8L-5.0,9.4L-3.9,7.0L-2.7,4.7L-1.4,2.4L-0.1,0.2L1.3,-2.0L2.8,-4.2L4.4,-6.2L6.0,-8.3L7.7,-10.2L9.5,-12.1L11.3,-14.0L13.2,-15.8L15.2,-17.5L17.3,-19.2L19.4,-20.8L21.5,-22.3L23.8,-23.8L26.1,-25.2L28.4,-26.5L30.8,-27.7L33.2,-28.9L35.7,-30.0L38.3,-31.0L40.8,-31.9L43.5,-32.8L46.1,-33.5L48.8,-34.2L51.6,-34.8L54.4,-35.3L57.2,-35.7L60.0,-36.1L62.9,-36.3L65.8,-36.5L68.7,-36.5L71.7,-36.5L74.6,-36.4L77.6,-36.2L80.6,-35.9L83.6,-35.5L86.6,-35.0L89.7,-34.4L92.7,-33.7L95.7,-33.0L98.8,-32.1L101.8,-31.1L104.8,-30.1L-21.4,5.7L-18.9,4.7L-16.5,3.8L-14.0,3.0L-11.5,2.2L-9.0,1.6L-6.4,1.0L-3.9,0.5L-1.3,0.2L1.3,-0.1L3.9,-0.3L6.5,-0.5L9.1,-0.5L11.7,-0.4L14.3,-0.2L16.9,-0.0Z" fill="none" stroke="#e5e6f8" stroke-width="0.5" stroke-linecap="round" opacity="0.95"/><path d="M18.6,0.0L21.2,0.4L23.8,0.8L26.3,1.4L28.9,2.0L31.5,2.8L34.0,3.6L36.5,4.5L39.0,5.5L41.5,6.6L43.9,7.7L46.3,9.0L48.7,10.4L51.0,11.8L53.4,13.3L55.6,14.9L57.9,16.6L60.0,18.4L62.2,20.2L64.3,22.1L66.3,24.1L68.3,26.2L70.3,28.4L72.2,30.6L74.0,32.9L75.8,35.3L77.5,37.8L79.1,40.3L80.7,42.9L82.2,45.6L83.7,48.3L85.0,51.1L-27.1,-16.9L-24.6,-16.0L-22.2,-15.0L-19.8,-13.9L-17.4,-12.7L-15.1,-11.4L-12.9,-10.1L-10.7,-8.7L-8.5,-7.2L-6.4,-5.6L-4.4,-4.0L-2.4,-2.3L-0.5,-0.5L1.3,1.3L3.1,3.2L4.8,5.2L6.5,7.2L8.0,9.3L9.6,11.4L11.0,13.6L12.4,15.8L13.6,18.1L14.9,20.4L16.0,22.8L17.0,25.3L18.0,27.7L18.9,30.2L19.7,32.8L20.4,35.4L21.1,38.0L21.6,40.7L22.1,43.4L22.5,46.1L22.8,48.8L23.0,51.6L23.1,54.4L23.1,57.2L23.0,60.0L22.9,62.8L22.6,65.7L22.3,68.6L21.8,71.4L21.3,74.3L20.7,77.2L20.0,80.0L19.1,82.9L18.2,85.8L17.2,88.6L16.1,91.5L14.9,94.3L13.7,97.1L-4.0,-32.8L-3.2,-30.3L-2.4,-27.8L-1.8,-25.2L-1.2,-22.6L-0.7,-20.1L-0.3,-17.5L-0.0,-14.9L0.2,-12.3L0.3,-9.7L0.4,-7.0L0.3,-4.4L0.2,-1.9L-0.1,0.7L-0.4,3.3L-0.8,5.9L-1.3,8.4L-1.9,11.0L-2.6,13.5L-3.4,16.0L-4.3,18.5L-5.2,20.9L-6.3,23.3L-7.4,25.7L-8.6,28.1L-9.9,30.4L-11.2,32.7L-12.7,34.9L-14.2,37.1L-15.9,39.3L-17.6,41.4L-19.3,43.4L-21.2,45.5L-23.1,47.4L-25.1,49.3L-27.2,51.2L-29.4,53.0L-31.6,54.7L-33.9,56.4L-36.2,58.0L-38.7,59.5L-41.1,61.0L-43.7,62.4L-46.3,63.7L-49.0,65.0L-51.7,66.2L-54.5,67.3L-57.3,68.3L-60.2,69.3L-63.1,70.1L-66.1,70.9L-69.2,71.6L22.3,-22.3L20.8,-20.1L19.3,-18.0L17.7,-15.9L16.0,-13.9L14.2,-11.9L12.4,-10.1L10.5,-8.2L8.6,-6.5L6.6,-4.8L4.6,-3.2L2.5,-1.7L0.3,-0.2L-1.9,1.2L-4.1,2.5L-6.4,3.7L-8.8,4.9L-11.2,5.9L-13.6,6.9L-16.0,7.8L-18.5,8.6L-21.0,9.4L-23.6,10.0L-26.2,10.6L-28.8,11.1L-31.4,11.4L-34.1,11.7L-36.8,11.9L-39.4,12.1L-42.1,12.1L-44.9,12.0L-47.6,11.9L-50.3,11.6L-53.1,11.3L-55.8,10.8L-58.5,10.3L-61.3,9.7L-64.0,9.0L-66.8,8.2L-69.5,7.3L-72.2,6.3L-74.9,5.2L-77.5,4.1L-80.2,2.8L-82.8,1.4L-85.5,0.0L-88.0,-1.5L-90.6,-3.2L-93.1,-4.9L-95.6,-6.7L-98.1,-8.6L32.5,3.4L29.9,3.7L27.2,3.8L24.6,3.9L22.0,3.9L19.3,3.8L16.7,3.6L14.1,3.3L11.5,2.9L9.0,2.4L6.4,1.8L3.9,1.2L1.4,0.5L-1.1,-0.4L-3.5,-1.3L-5.9,-2.3L-8.3,-3.3L-10.6,-4.5L-12.9,-5.7L-15.2,-7.1L-17.4,-8.5L-19.5,-10.0L-21.7,-11.5L-23.7,-13.1L-25.7,-14.9L-27.7,-16.6L-29.6,-18.5L-31.5,-20.4L-33.3,-22.4L-35.0,-24.5L-36.7,-26.6L-38.3,-28.8L-39.8,-31.1L-41.3,-33.4L-42.7,-35.8L-44.0,-38.3L-45.3,-40.8L-46.5,-43.3L-47.6,-45.9L-48.6,-48.6L-49.6,-51.3L-50.4,-54.1L-51.2,-56.9L-51.9,-59.7L-52.5,-62.6L-53.1,-65.5L-53.5,-68.5L-53.9,-71.5L-54.2,-74.5L-54.3,-77.6L-54.4,-80.7L-54.4,-83.8L16.5,26.5L14.7,24.5L13.0,22.5L11.3,20.5L9.8,18.4L8.3,16.2L6.8,14.0L5.5,11.8L4.2,9.5L3.0,7.2L1.9,4.8L0.9,2.4L0.0,0.0L-0.8,-2.5L-1.6,-4.9L-2.3,-7.5L-2.9,-10.0L-3.4,-12.6L-3.8,-15.1L-4.1,-17.7L-4.3,-20.4L-4.5,-23.0L-4.5,-25.6L-4.5,-28.3L-4.3,-30.9L-4.1,-33.6L-3.8,-36.2L-3.4,-38.9L-2.9,-41.5L-2.3,-44.2L-1.6,-46.8L-0.9,-49.4L-0.0,-52.0L1.0,-54.6L2.0,-57.2L3.1,-59.7L4.4,-62.3L5.7,-64.8L7.1,-67.3L8.6,-69.7L10.1,-72.1L11.8,-74.5L13.5,-76.8L15.4,-79.1L17.3,-81.4L19.3,-83.6L21.4,-85.8L23.6,-87.9L25.8,-90.0L28.1,-92.0L30.5,-94.0L-10.5,30.6L-10.2,27.9L-9.7,25.3L-9.2,22.7L-8.6,20.2L-7.9,17.7L-7.1,15.2L-6.2,12.7L-5.2,10.3L-4.2,7.9L-3.1,5.5L-1.9,3.2L-0.6,1.0L0.8,-1.3L2.2,-3.4L3.7,-5.5L5.3,-7.6L7.0,-9.6L8.7,-11.6L10.5,-13.5L12.4,-15.3L14.3,-17.1L16.3,-18.8L18.4,-20.4L20.5,-22.0L22.7,-23.5L25.0,-25.0L27.3,-26.3L29.6,-27.6L32.0,-28.8L34.5,-30.0L37.0,-31.0L39.6,-32.0L42.2,-32.9L44.8,-33.8L47.5,-34.5L50.2,-35.2L53.0,-35.7L55.8,-36.2L58.6,-36.6L61.5,-36.9L64.4,-37.2L67.3,-37.3L70.2,-37.3L73.2,-37.3L76.1,-37.1L79.1,-36.9L82.1,-36.6L85.2,-36.1L88.2,-35.6L91.2,-35.0L-31.4,11.4L-29.2,10.0L-26.9,8.7L-24.5,7.5L-22.1,6.3L-19.7,5.3L-17.3,4.3L-14.8,3.4L-12.4,2.6L-9.8,1.9L-7.3,1.3L-4.8,0.8L-2.2,0.3L0.4,-0.0L3.0,-0.3L5.6,-0.5L8.2,-0.6L10.8,-0.6L13.4,-0.5L16.0,-0.3L18.6,-0.0Z" fill="none" stroke="#e9e4f9" stroke-width="1.5" stroke-linecap="round" opacity="0.25" filter="url(#tg)"/><path d="M18.6,0.0L21.2,0.4L23.8,0.8L26.3,1.4L28.9,2.0L31.5,2.8L34.0,3.6L36.5,4.5L39.0,5.5L41.5,6.6L43.9,7.7L46.3,9.0L48.7,10.4L51.0,11.8L53.4,13.3L55.6,14.9L57.9,16.6L60.0,18.4L62.2,20.2L64.3,22.1L66.3,24.1L68.3,26.2L70.3,28.4L72.2,30.6L74.0,32.9L75.8,35.3L77.5,37.8L79.1,40.3L80.7,42.9L82.2,45.6L83.7,48.3L85.0,51.1L-27.1,-16.9L-24.6,-16.0L-22.2,-15.0L-19.8,-13.9L-17.4,-12.7L-15.1,-11.4L-12.9,-10.1L-10.7,-8.7L-8.5,-7.2L-6.4,-5.6L-4.4,-4.0L-2.4,-2.3L-0.5,-0.5L1.3,1.3L3.1,3.2L4.8,5.2L6.5,7.2L8.0,9.3L9.6,11.4L11.0,13.6L12.4,15.8L13.6,18.1L14.9,20.4L16.0,22.8L17.0,25.3L18.0,27.7L18.9,30.2L19.7,32.8L20.4,35.4L21.1,38.0L21.6,40.7L22.1,43.4L22.5,46.1L22.8,48.8L23.0,51.6L23.1,54.4L23.1,57.2L23.0,60.0L22.9,62.8L22.6,65.7L22.3,68.6L21.8,71.4L21.3,74.3L20.7,77.2L20.0,80.0L19.1,82.9L18.2,85.8L17.2,88.6L16.1,91.5L14.9,94.3L13.7,97.1L-4.0,-32.8L-3.2,-30.3L-2.4,-27.8L-1.8,-25.2L-1.2,-22.6L-0.7,-20.1L-0.3,-17.5L-0.0,-14.9L0.2,-12.3L0.3,-9.7L0.4,-7.0L0.3,-4.4L0.2,-1.9L-0.1,0.7L-0.4,3.3L-0.8,5.9L-1.3,8.4L-1.9,11.0L-2.6,13.5L-3.4,16.0L-4.3,18.5L-5.2,20.9L-6.3,23.3L-7.4,25.7L-8.6,28.1L-9.9,30.4L-11.2,32.7L-12.7,34.9L-14.2,37.1L-15.9,39.3L-17.6,41.4L-19.3,43.4L-21.2,45.5L-23.1,47.4L-25.1,49.3L-27.2,51.2L-29.4,53.0L-31.6,54.7L-33.9,56.4L-36.2,58.0L-38.7,59.5L-41.1,61.0L-43.7,62.4L-46.3,63.7L-49.0,65.0L-51.7,66.2L-54.5,67.3L-57.3,68.3L-60.2,69.3L-63.1,70.1L-66.1,70.9L-69.2,71.6L22.3,-22.3L20.8,-20.1L19.3,-18.0L17.7,-15.9L16.0,-13.9L14.2,-11.9L12.4,-10.1L10.5,-8.2L8.6,-6.5L6.6,-4.8L4.6,-3.2L2.5,-1.7L0.3,-0.2L-1.9,1.2L-4.1,2.5L-6.4,3.7L-8.8,4.9L-11.2,5.9L-13.6,6.9L-16.0,7.8L-18.5,8.6L-21.0,9.4L-23.6,10.0L-26.2,10.6L-28.8,11.1L-31.4,11.4L-34.1,11.7L-36.8,11.9L-39.4,12.1L-42.1,12.1L-44.9,12.0L-47.6,11.9L-50.3,11.6L-53.1,11.3L-55.8,10.8L-58.5,10.3L-61.3,9.7L-64.0,9.0L-66.8,8.2L-69.5,7.3L-72.2,6.3L-74.9,5.2L-77.5,4.1L-80.2,2.8L-82.8,1.4L-85.5,0.0L-88.0,-1.5L-90.6,-3.2L-93.1,-4.9L-95.6,-6.7L-98.1,-8.6L32.5,3.4L29.9,3.7L27.2,3.8L24.6,3.9L22.0,3.9L19.3,3.8L16.7,3.6L14.1,3.3L11.5,2.9L9.0,2.4L6.4,1.8L3.9,1.2L1.4,0.5L-1.1,-0.4L-3.5,-1.3L-5.9,-2.3L-8.3,-3.3L-10.6,-4.5L-12.9,-5.7L-15.2,-7.1L-17.4,-8.5L-19.5,-10.0L-21.7,-11.5L-23.7,-13.1L-25.7,-14.9L-27.7,-16.6L-29.6,-18.5L-31.5,-20.4L-33.3,-22.4L-35.0,-24.5L-36.7,-26.6L-38.3,-28.8L-39.8,-31.1L-41.3,-33.4L-42.7,-35.8L-44.0,-38.3L-45.3,-40.8L-46.5,-43.3L-47.6,-45.9L-48.6,-48.6L-49.6,-51.3L-50.4,-54.1L-51.2,-56.9L-51.9,-59.7L-52.5,-62.6L-53.1,-65.5L-53.5,-68.5L-53.9,-71.5L-54.2,-74.5L-54.3,-77.6L-54.4,-80.7L-54.4,-83.8L16.5,26.5L14.7,24.5L13.0,22.5L11.3,20.5L9.8,18.4L8.3,16.2L6.8,14.0L5.5,11.8L4.2,9.5L3.0,7.2L1.9,4.8L0.9,2.4L0.0,0.0L-0.8,-2.5L-1.6,-4.9L-2.3,-7.5L-2.9,-10.0L-3.4,-12.6L-3.8,-15.1L-4.1,-17.7L-4.3,-20.4L-4.5,-23.0L-4.5,-25.6L-4.5,-28.3L-4.3,-30.9L-4.1,-33.6L-3.8,-36.2L-3.4,-38.9L-2.9,-41.5L-2.3,-44.2L-1.6,-46.8L-0.9,-49.4L-0.0,-52.0L1.0,-54.6L2.0,-57.2L3.1,-59.7L4.4,-62.3L5.7,-64.8L7.1,-67.3L8.6,-69.7L10.1,-72.1L11.8,-74.5L13.5,-76.8L15.4,-79.1L17.3,-81.4L19.3,-83.6L21.4,-85.8L23.6,-87.9L25.8,-90.0L28.1,-92.0L30.5,-94.0L-10.5,30.6L-10.2,27.9L-9.7,25.3L-9.2,22.7L-8.6,20.2L-7.9,17.7L-7.1,15.2L-6.2,12.7L-5.2,10.3L-4.2,7.9L-3.1,5.5L-1.9,3.2L-0.6,1.0L0.8,-1.3L2.2,-3.4L3.7,-5.5L5.3,-7.6L7.0,-9.6L8.7,-11.6L10.5,-13.5L12.4,-15.3L14.3,-17.1L16.3,-18.8L18.4,-20.4L20.5,-22.0L22.7,-23.5L25.0,-25.0L27.3,-26.3L29.6,-27.6L32.0,-28.8L34.5,-30.0L37.0,-31.0L39.6,-32.0L42.2,-32.9L44.8,-33.8L47.5,-34.5L50.2,-35.2L53.0,-35.7L55.8,-36.2L58.6,-36.6L61.5,-36.9L64.4,-37.2L67.3,-37.3L70.2,-37.3L73.2,-37.3L76.1,-37.1L79.1,-36.9L82.1,-36.6L85.2,-36.1L88.2,-35.6L91.2,-35.0L-31.4,11.4L-29.2,10.0L-26.9,8.7L-24.5,7.5L-22.1,6.3L-19.7,5.3L-17.3,4.3L-14.8,3.4L-12.4,2.6L-9.8,1.9L-7.3,1.3L-4.8,0.8L-2.2,0.3L0.4,-0.0L3.0,-0.3L5.6,-0.5L8.2,-0.6L10.8,-0.6L13.4,-0.5L16.0,-0.3L18.6,-0.0Z" fill="none" stroke="#e9e4f9" stroke-width="0.5" stroke-linecap="round" opacity="0.95"/><path d="M20.3,0.0L22.9,0.4L25.4,0.9L28.0,1.5L30.6,2.1L33.1,2.9L35.7,3.7L38.2,4.7L40.7,5.7L43.1,6.8L45.6,8.0L48.0,9.3L50.3,10.7L52.7,12.2L55.0,13.7L57.3,15.3L59.5,17.1L61.7,18.9L63.8,20.7L65.9,22.7L67.9,24.7L69.9,26.8L71.8,29.0L73.7,31.3L75.5,33.6L77.3,36.0L79.0,38.5L-38.6,-19.6L-35.9,-19.1L-33.3,-18.5L-30.7,-17.7L-28.2,-16.9L-25.7,-16.0L-23.2,-15.1L-20.8,-14.0L-18.4,-12.9L-16.1,-11.7L-13.8,-10.4L-11.6,-9.0L-9.4,-7.6L-7.3,-6.1L-5.2,-4.5L-3.2,-2.9L-1.2,-1.1L0.7,0.7L2.5,2.5L4.3,4.4L6.0,6.4L7.6,8.4L9.1,10.5L10.6,12.7L12.0,14.9L13.4,17.1L14.7,19.4L15.8,21.8L16.9,24.2L18.0,26.7L18.9,29.1L19.8,31.7L20.6,34.2L21.3,36.9L21.9,39.5L22.4,42.2L22.9,44.9L23.2,47.6L23.5,50.4L23.7,53.1L23.7,55.9L23.7,58.7L23.6,61.6L23.4,64.4L23.2,67.3L22.8,70.2L22.3,73.0L21.8,75.9L21.1,78.8L20.4,81.7L19.5,84.5L18.6,87.4L-8.0,-41.0L-6.8,-38.6L-5.7,-36.1L-4.7,-33.7L-3.8,-31.2L-3.0,-28.6L-2.3,-26.1L-1.6,-23.5L-1.1,-21.0L-0.6,-18.4L-0.3,-15.8L-0.0,-13.2L0.2,-10.6L0.3,-8.0L0.3,-5.4L0.2,-2.8L0.0,-0.2L-0.3,2.4L-0.6,5.0L-1.1,7.6L-1.6,10.1L-2.2,12.6L-2.9,15.1L-3.7,17.6L-4.6,20.1L-5.6,22.5L-6.7,25.0L-7.8,27.3L-9.1,29.7L-10.4,32.0L-11.8,34.3L-13.3,36.5L-14.9,38.7L-16.5,40.8L-18.2,42.9L-20.0,45.0L-21.9,47.0L-23.9,48.9L-25.9,50.8L-28.0,52.7L-30.2,54.4L-32.4,56.2L-34.7,57.8L-37.1,59.4L-39.6,60.9L-42.1,62.4L-44.7,63.8L-47.3,65.1L-50.0,66.3L-52.7,67.5L-55.5,68.6L27.6,-32.9L26.4,-30.4L25.2,-28.0L23.9,-25.7L22.6,-23.4L21.1,-21.1L19.6,-19.0L18.1,-16.8L16.4,-14.8L14.7,-12.8L12.9,-10.9L11.1,-9.0L9.2,-7.2L7.3,-5.5L5.3,-3.8L3.2,-2.2L1.1,-0.7L-1.1,0.7L-3.3,2.1L-5.6,3.4L-7.9,4.6L-10.2,5.7L-12.6,6.7L-15.1,7.7L-17.5,8.6L-20.0,9.3L-22.6,10.1L-25.1,10.7L-27.7,11.2L-30.4,11.7L-33.0,12.0L-35.7,12.3L-38.3,12.5L-41.0,12.5L-43.8,12.5L-46.5,12.5L-49.2,12.3L-52.0,12.0L-54.7,11.6L-57.5,11.2L-60.2,10.6L-62.9,10.0L-65.7,9.2L-68.4,8.4L-71.1,7.5L-73.9,6.5L-76.5,5.4L-79.2,4.2L-81.9,2.9L-84.5,1.5L-87.1,0.0L-89.7,-1.6L41.4,1.4L38.8,2.0L36.1,2.5L33.5,2.9L30.8,3.2L28.2,3.5L25.6,3.6L22.9,3.6L20.3,3.6L17.7,3.4L15.1,3.2L12.5,2.9L9.9,2.5L7.3,2.0L4.8,1.4L2.3,0.7L-0.2,-0.1L-2.6,-0.9L-5.1,-1.8L-7.5,-2.9L-9.8,-4.0L-12.2,-5.2L-14.4,-6.4L-16.7,-7.8L-18.9,-9.2L-21.0,-10.7L-23.1,-12.3L-25.2,-14.0L-27.2,-15.7L-29.1,-17.5L-31.0,-19.4L-32.9,-21.4L-34.7,-23.4L-36.4,-25.5L-38.0,-27.6L-39.6,-29.9L-41.1,-32.1L-42.6,-34.5L-44.0,-36.9L-45.3,-39.4L-46.5,-41.9L-47.7,-44.5L-48.8,-47.1L-49.8,-49.8L-50.7,-52.5L-51.6,-55.3L-52.3,-58.1L-53.0,-61.0L-53.6,-63.9L-54.1,-66.9L-54.6,-69.8L25.6,34.0L23.5,32.3L21.4,30.6L19.4,28.8L17.5,26.9L15.6,25.0L13.9,23.1L12.2,21.1L10.5,19.0L9.0,16.9L7.5,14.7L6.1,12.5L4.8,10.3L3.5,8.0L2.4,5.6L1.3,3.3L0.3,0.9L-0.6,-1.6L-1.4,-4.0L-2.1,-6.5L-2.8,-9.1L-3.3,-11.6L-3.8,-14.2L-4.2,-16.8L-4.5,-19.4L-4.7,-22.0L-4.8,-24.6L-4.8,-27.3L-4.7,-29.9L-4.6,-32.6L-4.3,-35.2L-4.0,-37.9L-3.5,-40.5L-3.0,-43.2L-2.4,-45.8L-1.7,-48.5L-0.9,-51.1L-0.0,-53.7L1.0,-56.3L2.1,-58.9L3.2,-61.4L4.5,-63.9L5.8,-66.5L7.2,-68.9L8.8,-71.4L10.4,-73.8L12.1,-76.2L13.8,-78.5L15.7,-80.8L17.7,-83.1L19.7,-85.3L-10.6,42.4L-10.6,39.6L-10.6,37.0L-10.5,34.3L-10.3,31.6L-10.0,29.0L-9.6,26.4L-9.1,23.8L-8.6,21.2L-7.9,18.6L-7.2,16.1L-6.4,13.6L-5.5,11.2L-4.5,8.8L-3.4,6.4L-2.2,4.1L-1.0,1.8L0.3,-0.5L1.7,-2.7L3.1,-4.8L4.7,-6.9L6.3,-9.0L8.0,-11.0L9.7,-12.9L11.6,-14.8L13.5,-16.6L15.4,-18.4L17.4,-20.1L19.5,-21.7L21.7,-23.2L23.9,-24.7L26.1,-26.1L28.5,-27.5L30.8,-28.8L33.3,-30.0L35.8,-31.1L38.3,-32.1L40.9,-33.1L43.5,-34.0L46.2,-34.8L48.9,-35.5L51.6,-36.1L54.4,-36.7L57.2,-37.1L60.0,-37.5L62.9,-37.8L65.8,-38.0L68.7,-38.1L71.7,-38.1L74.7,-38.0L77.7,-37.9L80.7,-37.6L-38.5,17.1L-36.4,15.5L-34.3,13.8L-32.1,12.3L-29.8,10.9L-27.6,9.5L-25.3,8.2L-22.9,7.0L-20.5,5.9L-18.1,4.9L-15.7,3.9L-13.2,3.0L-10.7,2.3L-8.2,1.6L-5.7,1.0L-3.1,0.5L-0.5,0.1L2.0,-0.3L4.6,-0.5L7.2,-0.6L9.8,-0.7L12.4,-0.7L15.0,-0.5L17.7,-0.3L20.3,-0.0Z" fill="none" stroke="#ece3fa" stroke-width="1.5" stroke-linecap="round" opacity="0.25" filter="url(#tg)"/><path d="M20.3,0.0L22.9,0.4L25.4,0.9L28.0,1.5L30.6,2.1L33.1,2.9L35.7,3.7L38.2,4.7L40.7,5.7L43.1,6.8L45.6,8.0L48.0,9.3L50.3,10.7L52.7,12.2L55.0,13.7L57.3,15.3L59.5,17.1L61.7,18.9L63.8,20.7L65.9,22.7L67.9,24.7L69.9,26.8L71.8,29.0L73.7,31.3L75.5,33.6L77.3,36.0L79.0,38.5L-38.6,-19.6L-35.9,-19.1L-33.3,-18.5L-30.7,-17.7L-28.2,-16.9L-25.7,-16.0L-23.2,-15.1L-20.8,-14.0L-18.4,-12.9L-16.1,-11.7L-13.8,-10.4L-11.6,-9.0L-9.4,-7.6L-7.3,-6.1L-5.2,-4.5L-3.2,-2.9L-1.2,-1.1L0.7,0.7L2.5,2.5L4.3,4.4L6.0,6.4L7.6,8.4L9.1,10.5L10.6,12.7L12.0,14.9L13.4,17.1L14.7,19.4L15.8,21.8L16.9,24.2L18.0,26.7L18.9,29.1L19.8,31.7L20.6,34.2L21.3,36.9L21.9,39.5L22.4,42.2L22.9,44.9L23.2,47.6L23.5,50.4L23.7,53.1L23.7,55.9L23.7,58.7L23.6,61.6L23.4,64.4L23.2,67.3L22.8,70.2L22.3,73.0L21.8,75.9L21.1,78.8L20.4,81.7L19.5,84.5L18.6,87.4L-8.0,-41.0L-6.8,-38.6L-5.7,-36.1L-4.7,-33.7L-3.8,-31.2L-3.0,-28.6L-2.3,-26.1L-1.6,-23.5L-1.1,-21.0L-0.6,-18.4L-0.3,-15.8L-0.0,-13.2L0.2,-10.6L0.3,-8.0L0.3,-5.4L0.2,-2.8L0.0,-0.2L-0.3,2.4L-0.6,5.0L-1.1,7.6L-1.6,10.1L-2.2,12.6L-2.9,15.1L-3.7,17.6L-4.6,20.1L-5.6,22.5L-6.7,25.0L-7.8,27.3L-9.1,29.7L-10.4,32.0L-11.8,34.3L-13.3,36.5L-14.9,38.7L-16.5,40.8L-18.2,42.9L-20.0,45.0L-21.9,47.0L-23.9,48.9L-25.9,50.8L-28.0,52.7L-30.2,54.4L-32.4,56.2L-34.7,57.8L-37.1,59.4L-39.6,60.9L-42.1,62.4L-44.7,63.8L-47.3,65.1L-50.0,66.3L-52.7,67.5L-55.5,68.6L27.6,-32.9L26.4,-30.4L25.2,-28.0L23.9,-25.7L22.6,-23.4L21.1,-21.1L19.6,-19.0L18.1,-16.8L16.4,-14.8L14.7,-12.8L12.9,-10.9L11.1,-9.0L9.2,-7.2L7.3,-5.5L5.3,-3.8L3.2,-2.2L1.1,-0.7L-1.1,0.7L-3.3,2.1L-5.6,3.4L-7.9,4.6L-10.2,5.7L-12.6,6.7L-15.1,7.7L-17.5,8.6L-20.0,9.3L-22.6,10.1L-25.1,10.7L-27.7,11.2L-30.4,11.7L-33.0,12.0L-35.7,12.3L-38.3,12.5L-41.0,12.5L-43.8,12.5L-46.5,12.5L-49.2,12.3L-52.0,12.0L-54.7,11.6L-57.5,11.2L-60.2,10.6L-62.9,10.0L-65.7,9.2L-68.4,8.4L-71.1,7.5L-73.9,6.5L-76.5,5.4L-79.2,4.2L-81.9,2.9L-84.5,1.5L-87.1,0.0L-89.7,-1.6L41.4,1.4L38.8,2.0L36.1,2.5L33.5,2.9L30.8,3.2L28.2,3.5L25.6,3.6L22.9,3.6L20.3,3.6L17.7,3.4L15.1,3.2L12.5,2.9L9.9,2.5L7.3,2.0L4.8,1.4L2.3,0.7L-0.2,-0.1L-2.6,-0.9L-5.1,-1.8L-7.5,-2.9L-9.8,-4.0L-12.2,-5.2L-14.4,-6.4L-16.7,-7.8L-18.9,-9.2L-21.0,-10.7L-23.1,-12.3L-25.2,-14.0L-27.2,-15.7L-29.1,-17.5L-31.0,-19.4L-32.9,-21.4L-34.7,-23.4L-36.4,-25.5L-38.0,-27.6L-39.6,-29.9L-41.1,-32.1L-42.6,-34.5L-44.0,-36.9L-45.3,-39.4L-46.5,-41.9L-47.7,-44.5L-48.8,-47.1L-49.8,-49.8L-50.7,-52.5L-51.6,-55.3L-52.3,-58.1L-53.0,-61.0L-53.6,-63.9L-54.1,-66.9L-54.6,-69.8L25.6,34.0L23.5,32.3L21.4,30.6L19.4,28.8L17.5,26.9L15.6,25.0L13.9,23.1L12.2,21.1L10.5,19.0L9.0,16.9L7.5,14.7L6.1,12.5L4.8,10.3L3.5,8.0L2.4,5.6L1.3,3.3L0.3,0.9L-0.6,-1.6L-1.4,-4.0L-2.1,-6.5L-2.8,-9.1L-3.3,-11.6L-3.8,-14.2L-4.2,-16.8L-4.5,-19.4L-4.7,-22.0L-4.8,-24.6L-4.8,-27.3L-4.7,-29.9L-4.6,-32.6L-4.3,-35.2L-4.0,-37.9L-3.5,-40.5L-3.0,-43.2L-2.4,-45.8L-1.7,-48.5L-0.9,-51.1L-0.0,-53.7L1.0,-56.3L2.1,-58.9L3.2,-61.4L4.5,-63.9L5.8,-66.5L7.2,-68.9L8.8,-71.4L10.4,-73.8L12.1,-76.2L13.8,-78.5L15.7,-80.8L17.7,-83.1L19.7,-85.3L-10.6,42.4L-10.6,39.6L-10.6,37.0L-10.5,34.3L-10.3,31.6L-10.0,29.0L-9.6,26.4L-9.1,23.8L-8.6,21.2L-7.9,18.6L-7.2,16.1L-6.4,13.6L-5.5,11.2L-4.5,8.8L-3.4,6.4L-2.2,4.1L-1.0,1.8L0.3,-0.5L1.7,-2.7L3.1,-4.8L4.7,-6.9L6.3,-9.0L8.0,-11.0L9.7,-12.9L11.6,-14.8L13.5,-16.6L15.4,-18.4L17.4,-20.1L19.5,-21.7L21.7,-23.2L23.9,-24.7L26.1,-26.1L28.5,-27.5L30.8,-28.8L33.3,-30.0L35.8,-31.1L38.3,-32.1L40.9,-33.1L43.5,-34.0L46.2,-34.8L48.9,-35.5L51.6,-36.1L54.4,-36.7L57.2,-37.1L60.0,-37.5L62.9,-37.8L65.8,-38.0L68.7,-38.1L71.7,-38.1L74.7,-38.0L77.7,-37.9L80.7,-37.6L-38.5,17.1L-36.4,15.5L-34.3,13.8L-32.1,12.3L-29.8,10.9L-27.6,9.5L-25.3,8.2L-22.9,7.0L-20.5,5.9L-18.1,4.9L-15.7,3.9L-13.2,3.0L-10.7,2.3L-8.2,1.6L-5.7,1.0L-3.1,0.5L-0.5,0.1L2.0,-0.3L4.6,-0.5L7.2,-0.6L9.8,-0.7L12.4,-0.7L15.0,-0.5L17.7,-0.3L20.3,-0.0Z" fill="none" stroke="#ece3fa" stroke-width="0.5" stroke-linecap="round" opacity="0.95"/>
</svg>