<svg xmlns="http://www.w3.org/2000/svg" viewBox="-250 -250 500 500">
<defs><filter id="tg"><feGaussianBlur stdDeviation="4.6"/></filter></defs>
<rect x="-250" y="-250" width="500" height="500" fill="#0b2341"/>
<path d="M75.1,0.0L74.8,3.9L73.9,7.8L72.4,11.5L70.5,15.0L68.2,18.3L65.6,21.3L65.9,25.3L65.8,29.3L65.4,33.3L64.4,37.2L62.8,40.8L60.8,44.2L58.2,47.2L55.2,49.7L51.9,51.9L48.2,53.6L44.4,54.9L40.6,55.8L38.5,59.2L36.0,62.4L33.3,65.4L30.2,67.9L26.9,70.0L23.2,71.5L19.4,72.4L15.5,72.7L11.5,72.4L7.5,71.7L3.7,70.5L0.0,69.0L-3.7,70.5L-7.5,71.7L-11.5,72.4L-15.5,72.7L-19.4,72.4L-23.2,71.5L-26.9,70.0L-30.2,67.9L-33.3,65.4L-36.0,62.4L-38.5,59.2L-40.6,55.8L-44.4,54.9L-48.2,53.6L-51.9,51.9L-55.2,49.7L-58.2,47.2L-60.8,44.2L-62.8,40.8L-64.4,37.2L-65.4,33.3L-65.8,29.3L-65.9,25.3L-65.6,21.3L-68.2,18.3L-70.5,15.0L-72.4,11.5L-73.9,7.8L-74.8,3.9L-75.1,0.0L-74.8,-3.9L-73.9,-7.8L-72.4,-11.5L-70.5,-15.0L-68.2,-18.3L-65.6,-21.3L-65.9,-25.3L-65.8,-29.3L-65.4,-33.3L-64.4,-37.2L-62.8,-40.8L-60.8,-44.2L-58.2,-47.2L-55.2,-49.7L-51.9,-51.9L-48.2,-53.6L-44.4,-54.9L-40.6,-55.8L-38.5,-59.2L-36.0,-62.4L-33.3,-65.4L-30.2,-67.9L-26.9,-70.0L-23.2,-71.5L-19.4,-72.4L-15.5,-72.7L-11.5,-72.4L-7.5,-71.7L-3.7,-70.5L-0.0,-69.0L3.7,-70.5L7.5,-71.7L11.5,-72.4L15.5,-72.7L19.4,-72.4L23.2,-71.5L26.9,-70.0L30.2,-67.9L33.3,-65.4L36.0,-62.4L38.5,-59.2L40.6,-55.8L44.4,-54.9L48.2,-53.6L51.9,-51.9L55.2,-49.7L58.2,-47.2L60.8,-44.2L62.8,-40.8L64.4,-37.2L65.4,-33.3L65.8,-29.3L65.9,-25.3L65.6,-21.3L68.2,-18.3L70.5,-15.0L72.4,-11.5L73.9,-7.8L74.8,-3.9L75.1,-0.0Z" fill="none" stroke="#c2c8d0" stroke-width="9" stroke-linecap="round" opacity="0.12" filter="url(#tg)"/><path d="M75.1,0.0L74.8,3.9L73.9,7.8L72.4,11.5L70.5,15.0L68.2,18.3L65.6,21.3L65.9,25.3L65.8,29.3L65.4,33.3L64.4,37.2L62.8,40.8L60.8,44.2L58.2,47.2L55.2,49.7L51.9,51.9L48.2,53.6L44.4,54.9L40.6,55.8L38.5,59.2L36.0,62.4L33.3,65.4L30.2,67.9L26.9,70.0L23.2,71.5L19.4,72.4L15.5,72.7L11.5,72.4L7.5,71.7L3.7,70.5L0.0,69.0L-3.7,70.5L-7.5,71.7L-11.5,72.4L-15.5,72.7L-19.4,72.4L-23.2,71.5L-26.9,70.0L-30.2,67.9L-33.3,65.4L-36.0,62.4L-38.5,59.2L-40.6,55.8L-44.4,54.9L-48.2,53.6L-51.9,51.9L-55.2,49.7L-58.2,47.2L-60.8,44.2L-62.8,40.8L-64.4,37.2L-65.4,33.3L-65.8,29.3L-65.9,25.3L-65.6,21.3L-68.2,18.3L-70.5,15.0L-72.4,11.5L-73.9,7.8L-74.8,3.9L-75.1,0.0L-74.8,-3.9L-73.9,-7.8L-72.4,-11.5L-70.5,-15.0L-68.2,-18.3L-65.6,-21.3L-65.9,-25.3L-65.8,-29.3L-65.4,-33.3L-64.4,-37.2L-62.8,-40.8L-60.8,-44.2L-58.2,-47.2L-55.2,-49.7L-51.9,-51.9L-48.2,-53.6L-44.4,-54.9L-40.6,-55.8L-38.5,-59.2L-36.0,-62.4L-33.3,-65.4L-30.2,-67.9L-26.9,-70.0L-23.2,-71.5L-19.4,-72.4L-15.5,-72.7L-11.5,-72.4L-7.5,-71.7L-3.7,-70.5L-0.0,-69.0L3.7,-70.5L7.5,-71.7L11.5,-72.4L15.5,-72.7L19.4,-72.4L23.2,-71.5L26.9,-70.0L30.2,-67.9L33.3,-65.4L36.0,-62.4L38.5,-59.2L40.6,-55.8L44.4,-54.9L48.2,-53.6L51.9,-51.9L55.2,-49.7L58.2,-47.2L60.8,-44.2L62.8,-40.8L64.4,-37.2L65.4,-33.3L65.8,-29.3L65.9,-25.3L65.6,-21.3L68.2,-18.3L70.5,-15.0L72.4,-11.5L73.9,-7.8L74.8,-3.9L75.1,-0.0Z" fill="none" stroke="#c2c8d0" stroke-width="3" stroke-linecap="round" opacity="0.95"/><path d="M77.2,0.0L75.7,4.0L73.8,7.8L74.8,11.9L75.6,16.1L75.8,20.3L75.6,24.6L74.8,28.7L73.4,32.7L71.4,36.4L68.8,39.7L65.8,42.8L62.5,45.4L58.9,47.7L55.1,49.6L53.6,53.6L51.7,57.4L49.4,61.0L46.7,64.3L43.6,67.2L40.2,69.5L36.4,71.4L32.3,72.6L28.1,73.3L23.9,73.5L19.6,73.2L15.4,72.6L11.9,74.8L8.1,76.8L4.1,78.4L0.0,79.5L-4.2,80.0L-8.4,79.9L-12.5,79.1L-16.5,77.8L-20.3,75.8L-23.9,73.5L-27.2,70.7L-30.2,67.8L-34.4,67.5L-38.6,66.9L-42.8,65.8L-46.7,64.3L-50.4,62.2L-53.7,59.7L-56.6,56.6L-59.1,53.2L-61.0,49.4L-62.5,45.4L-63.5,41.3L-64.2,37.1L-67.5,34.4L-70.6,31.4L-73.3,28.1L-75.6,24.6L-77.4,20.7L-78.6,16.7L-79.1,12.5L-79.1,8.3L-78.4,4.1L-77.2,0.0L-75.7,-4.0L-73.8,-7.8L-74.8,-11.9L-75.6,-16.1L-75.8,-20.3L-75.6,-24.6L-74.8,-28.7L-73.4,-32.7L-71.4,-36.4L-68.8,-39.7L-65.8,-42.8L-62.5,-45.4L-58.9,-47.7L-55.1,-49.6L-53.6,-53.6L-51.7,-57.4L-49.4,-61.0L-46.7,-64.3L-43.6,-67.2L-40.2,-69.5L-36.4,-71.4L-32.3,-72.6L-28.1,-73.3L-23.9,-73.5L-19.6,-73.2L-15.4,-72.6L-11.9,-74.8L-8.1,-76.8L-4.1,-78.4L-0.0,-79.5L4.2,-80.0L8.4,-79.9L12.5,-79.1L16.5,-77.8L20.3,-75.8L23.9,-73.5L27.2,-70.7L30.2,-67.8L34.4,-67.5L38.6,-66.9L42.8,-65.8L46.7,-64.3L50.4,-62.2L53.7,-59.7L56.6,-56.6L59.1,-53.2L61.0,-49.4L62.5,-45.4L63.5,-41.3L64.2,-37.1L67.5,-34.4L70.6,-31.4L73.3,-28.1L75.6,-24.6L77.4,-20.7L78.6,-16.7L79.1,-12.5L79.1,-8.3L78.4,-4.1L77.2,-0.0Z" fill="none" stroke="#c4cad2" stroke-width="9" stroke-linecap="round" opacity="0.12" filter="url(#tg)"/><path d="M77.2,0.0L75.7,4.0L73.8,7.8L74.8,11.9L75.6,16.1L75.8,20.3L75.6,24.6L74.8,28.7L73.4,32.7L71.4,36.4L68.8,39.7L65.8,42.8L62.5,45.4L58.9,47.7L55.1,49.6L53.6,53.6L51.7,57.4L49.4,61.0L46.7,64.3L43.6,67.2L40.2,69.5L36.4,71.4L32.3,72.6L28.1,73.3L23.9,73.5L19.6,73.2L15.4,72.6L11.9,74.8L8.1,76.8L4.1,78.4L0.0,79.5L-4.2,80.0L-8.4,79.9L-12.5,79.1L-16.5,77.8L-20.3,75.8L-23.9,73.5L-27.2,70.7L-30.2,67.8L-34.4,67.5L-38.6,66.9L-42.8,65.8L-46.7,64.3L-50.4,62.2L-53.7,59.7L-56.6,56.6L-59.1,53.2L-61.0,49.4L-62.5,45.4L-63.5,41.3L-64.2,37.1L-67.5,34.4L-70.6,31.4L-73.3,28.1L-75.6,24.6L-77.4,20.7L-78.6,16.7L-79.1,12.5L-79.1,8.3L-78.4,4.1L-77.2,0.0L-75.7,-4.0L-73.8,-7.8L-74.8,-11.9L-75.6,-16.1L-75.8,-20.3L-75.6,-24.6L-74.8,-28.7L-73.4,-32.7L-71.4,-36.4L-68.8,-39.7L-65.8,-42.8L-62.5,-45.4L-58.9,-47.7L-55.1,-49.6L-53.6,-53.6L-51.7,-57.4L-49.4,-61.0L-46.7,-64.3L-43.6,-67.2L-40.2,-69.5L-36.4,-71.4L-32.3,-72.6L-28.1,-73.3L-23.9,-73.5L-19.6,-73.2L-15.4,-72.6L-11.9,-74.8L-8.1,-76.8L-4.1,-78.4L-0.0,-79.5L4.2,-80.0L8.4,-79.9L12.5,-79.1L16.5,-77.8L20.3,-75.8L23.9,-73.5L27.2,-70.7L30.2,-67.8L34.4,-67.5L38.6,-66.9L42.8,-65.8L46.7,-64.3L50.4,-62.2L53.7,-59.7L56.6,-56.6L59.1,-53.2L61.0,-49.4L62.5,-45.4L63.5,-41.3L64.2,-37.1L67.5,-34.4L70.6,-31.4L73.3,-28.1L75.6,-24.6L77.4,-20.7L78.6,-16.7L79.1,-12.5L79.1,-8.3L78.4,-4.1L77.2,-0.0Z" fill="none" stroke="#c4cad2" stroke-width="3" stroke-linecap="round" opacity="0.95"/><path d="M82.4,0.0L83.6,4.4L84.2,8.8L84.2,13.3L83.6,17.8L82.4,22.1L80.5,26.2L78.1,30.0L75.3,33.5L72.1,36.7L68.7,39.7L67.9,44.1L66.7,48.4L65.0,52.7L62.9,56.6L60.3,60.3L57.2,63.5L53.7,66.3L49.8,68.5L45.6,70.2L41.2,71.4L36.7,72.1L32.3,72.5L29.0,75.6L25.5,78.4L21.7,80.8L17.6,82.8L13.3,84.2L8.9,85.0L4.5,85.2L0.0,84.7L-4.4,83.6L-8.6,82.0L-12.7,79.9L-16.5,77.6L-20.9,78.2L-25.5,78.4L-30.0,78.1L-34.4,77.3L-38.7,76.0L-42.7,74.0L-46.4,71.5L-49.8,68.5L-52.7,65.0L-55.1,61.2L-57.2,57.2L-59.0,53.1L-62.9,50.9L-66.7,48.4L-70.2,45.6L-73.3,42.3L-76.0,38.7L-78.1,34.8L-79.6,30.6L-80.5,26.2L-80.8,21.7L-80.6,17.1L-79.9,12.7L-78.9,8.3L-80.8,4.2L-82.4,0.0L-83.6,-4.4L-84.2,-8.8L-84.2,-13.3L-83.6,-17.8L-82.4,-22.1L-80.5,-26.2L-78.1,-30.0L-75.3,-33.5L-72.1,-36.7L-68.7,-39.7L-67.9,-44.1L-66.7,-48.4L-65.0,-52.7L-62.9,-56.6L-60.3,-60.3L-57.2,-63.5L-53.7,-66.3L-49.8,-68.5L-45.6,-70.2L-41.2,-71.4L-36.7,-72.1L-32.3,-72.5L-29.0,-75.6L-25.5,-78.4L-21.7,-80.8L-17.6,-82.8L-13.3,-84.2L-8.9,-85.0L-4.5,-85.2L-0.0,-84.7L4.4,-83.6L8.6,-82.0L12.7,-79.9L16.5,-77.6L20.9,-78.2L25.5,-78.4L30.0,-78.1L34.4,-77.3L38.7,-76.0L42.7,-74.0L46.4,-71.5L49.8,-68.5L52.7,-65.0L55.1,-61.2L57.2,-57.2L59.0,-53.1L62.9,-50.9L66.7,-48.4L70.2,-45.6L73.3,-42.3L76.0,-38.7L78.1,-34.8L79.6,-30.6L80.5,-26.2L80.8,-21.7L80.6,-17.1L79.9,-12.7L78.9,-8.3L80.8,-4.2L82.4,-0.0Z" fill="none" stroke="#c6cdd5" stroke-width="9" stroke-linecap="round" opacity="0.12" filter="url(#tg)"/><path d="M82.4,0.0L83.6,4.4L84.2,8.8L84.2,13.3L83.6,17.8L82.4,22.1L80.5,26.2L78.1,30.0L75.3,33.5L72.1,36.7L68.7,39.7L67.9,44.1L66.7,48.4L65.0,52.7L62.9,56.6L60.3,60.3L57.2,63.5L53.7,66.3L49.8,68.5L45.6,70.2L41.2,71.4L36.7,72.1L32.3,72.5L29.0,75.6L25.5,78.4L21.7,80.8L17.6,82.8L13.3,84.2L8.9,85.0L4.5,85.2L0.0,84.7L-4.4,83.6L-8.6,82.0L-12.7,79.9L-16.5,77.6L-20.9,78.2L-25.5,78.4L-30.0,78.1L-34.4,77.3L-38.7,76.0L-42.7,74.0L-46.4,71.5L-49.8,68.5L-52.7,65.0L-55.1,61.2L-57.2,57.2L-59.0,53.1L-62.9,50.9L-66.7,48.4L-70.2,45.6L-73.3,42.3L-76.0,38.7L-78.1,34.8L-79.6,30.6L-80.5,26.2L-80.8,21.7L-80.6,17.1L-79.9,12.7L-78.9,8.3L-80.8,4.2L-82.4,0.0L-83.6,-4.4L-84.2,-8.8L-84.2,-13.3L-83.6,-17.8L-82.4,-22.1L-80.5,-26.2L-78.1,-30.0L-75.3,-33.5L-72.1,-36.7L-68.7,-39.7L-67.9,-44.1L-66.7,-48.4L-65.0,-52.7L-62.9,-56.6L-60.3,-60.3L-57.2,-63.5L-53.7,-66.3L-49.8,-68.5L-45.6,-70.2L-41.2,-71.4L-36.7,-72.1L-32.3,-72.5L-29.0,-75.6L-25.5,-78.4L-21.7,-80.8L-17.6,-82.8L-13.3,-84.2L-8.9,-85.0L-4.5,-85.2L-0.0,-84.7L4.4,-83.6L8.6,-82.0L12.7,-79.9L16.5,-77.6L20.9,-78.2L25.5,-78.4L30.0,-78.1L34.4,-77.3L38.7,-76.0L42.7,-74.0L46.4,-71.5L49.8,-68.5L52.7,-65.0L55.1,-61.2L57.2,-57.2L59.0,-53.1L62.9,-50.9L66.7,-48.4L70.2,-45.6L73.3,-42.3L76.0,-38.7L78.1,-34.8L79.6,-30.6L80.5,-26.2L80.8,-21.7L80.6,-17.1L79.9,-12.7L78.9,-8.3L80.8,-4.2L82.4,-0.0Z" fill="none" stroke="#c6cdd5" stroke-width="3" stroke-linecap="round" opacity="0.95"/><path d="M90.6,0.0L90.3,4.7L89.3,9.4L87.8,13.9L85.7,18.2L83.2,22.3L80.4,26.1L80.4,30.9L80.0,35.6L79.2,40.3L77.8,44.9L75.8,49.3L73.3,53.3L70.3,56.9L66.8,60.1L62.8,62.8L58.6,65.1L54.2,66.9L49.7,68.4L46.9,72.2L43.8,75.8L40.3,79.2L36.5,82.1L32.4,84.4L28.0,86.2L23.4,87.4L18.7,87.9L13.9,87.8L9.2,87.1L4.5,86.0L0.0,84.5L-4.5,86.0L-9.2,87.1L-13.9,87.8L-18.7,87.9L-23.4,87.4L-28.0,86.2L-32.4,84.4L-36.5,82.1L-40.3,79.2L-43.8,75.8L-46.9,72.2L-49.7,68.4L-54.2,66.9L-58.6,65.1L-62.8,62.8L-66.8,60.1L-70.3,56.9L-73.3,53.3L-75.8,49.3L-77.8,44.9L-79.2,40.3L-80.0,35.6L-80.4,30.9L-80.4,26.1L-83.2,22.3L-85.7,18.2L-87.8,13.9L-89.3,9.4L-90.3,4.7L-90.6,0.0L-90.3,-4.7L-89.3,-9.4L-87.8,-13.9L-85.7,-18.2L-83.2,-22.3L-80.4,-26.1L-80.4,-30.9L-80.0,-35.6L-79.2,-40.3L-77.8,-44.9L-75.8,-49.3L-73.3,-53.3L-70.3,-56.9L-66.8,-60.1L-62.8,-62.8L-58.6,-65.1L-54.2,-66.9L-49.7,-68.4L-46.9,-72.2L-43.8,-75.8L-40.3,-79.2L-36.5,-82.1L-32.4,-84.4L-28.0,-86.2L-23.4,-87.4L-18.7,-87.9L-13.9,-87.8L-9.2,-87.1L-4.5,-86.0L-0.0,-84.5L4.5,-86.0L9.2,-87.1L13.9,-87.8L18.7,-87.9L23.4,-87.4L28.0,-86.2L32.4,-84.4L36.5,-82.1L40.3,-79.2L43.8,-75.8L46.9,-72.2L49.7,-68.4L54.2,-66.9L58.6,-65.1L62.8,-62.8L66.8,-60.1L70.3,-56.9L73.3,-53.3L75.8,-49.3L77.8,-44.9L79.2,-40.3L80.0,-35.6L80.4,-30.9L80.4,-26.1L83.2,-22.3L85.7,-18.2L87.8,-13.9L89.3,-9.4L90.3,-4.7L90.6,-0.0Z" fill="none" stroke="#c8cfd8" stroke-width="9" stroke-linecap="round" opacity="0.12" filter="url(#tg)"/><path d="M90.6,0.0L90.3,4.7L89.3,9.4L87.8,13.9L85.7,18.2L83.2,22.3L80.4,26.1L80.4,30.9L80.0,35.6L79.2,40.3L77.8,44.9L75.8,49.3L73.3,53.3L70.3,56.9L66.8,60.1L62.8,62.8L58.6,65.1L54.2,66.9L49.7,68.4L46.9,72.2L43.8,75.8L40.3,79.2L36.5,82.1L32.4,84.4L28.0,86.2L23.4,87.4L18.7,87.9L13.9,87.8L9.2,87.1L4.5,86.0L0.0,84.5L-4.5,86.0L-9.2,87.1L-13.9,87.8L-18.7,87.9L-23.4,87.4L-28.0,86.2L-32.4,84.4L-36.5,82.1L-40.3,79.2L-43.8,75.8L-46.9,72.2L-49.7,68.4L-54.2,66.9L-58.6,65.1L-62.8,62.8L-66.8,60.1L-70.3,56.9L-73.3,53.3L-75.8,49.3L-77.8,44.9L-79.2,40.3L-80.0,35.6L-80.4,30.9L-80.4,26.1L-83.2,22.3L-85.7,18.2L-87.8,13.9L-89.3,9.4L-90.3,4.7L-90.6,0.0L-90.3,-4.7L-89.3,-9.4L-87.8,-13.9L-85.7,-18.2L-83.2,-22.3L-80.4,-26.1L-80.4,-30.9L-80.0,-35.6L-79.2,-40.3L-77.8,-44.9L-75.8,-49.3L-73.3,-53.3L-70.3,-56.9L-66.8,-60.1L-62.8,-62.8L-58.6,-65.1L-54.2,-66.9L-49.7,-68.4L-46.9,-72.2L-43.8,-75.8L-40.3,-79.2L-36.5,-82.1L-32.4,-84.4L-28.0,-86.2L-23.4,-87.4L-18.7,-87.9L-13.9,-87.8L-9.2,-87.1L-4.5,-86.0L-0.0,-84.5L4.5,-86.0L9.2,-87.1L13.9,-87.8L18.7,-87.9L23.4,-87.4L28.0,-86.2L32.4,-84.4L36.5,-82.1L40.3,-79.2L43.8,-75.8L46.9,-72.2L49.7,-68.4L54.2,-66.9L58.6,-65.1L62.8,-62.8L66.8,-60.1L70.3,-56.9L73.3,-53.3L75.8,-49.3L77.8,-44.9L79.2,-40.3L80.0,-35.6L80.4,-30.9L80.4,-26.1L83.2,-22.3L85.7,-18.2L87.8,-13.9L89.3,-9.4L90.3,-4.7L90.6,-0.0Z" fill="none" stroke="#c8cfd8" stroke-width="3" stroke-linecap="round" opacity="0.95"/><path d="M92.8,0.0L91.2,4.8L89.2,9.4L90.2,14.3L90.7,19.3L90.8,24.3L90.3,29.4L89.3,34.3L87.5,39.0L85.2,43.4L82.3,47.5L78.9,51.2L75.0,54.5L70.9,57.4L66.7,60.0L64.5,64.5L62.1,68.9L59.2,73.1L55.8,76.9L52.1,80.2L47.9,83.0L43.4,85.2L38.6,86.8L33.7,87.8L28.7,88.2L23.6,88.2L18.6,87.7L14.3,90.2L9.7,92.2L4.9,93.9L0.0,95.0L-5.0,95.5L-10.0,95.3L-15.0,94.4L-19.7,92.9L-24.3,90.8L-28.7,88.2L-32.7,85.2L-36.5,81.9L-41.4,81.3L-46.4,80.3L-51.2,78.9L-55.8,76.9L-60.2,74.3L-64.1,71.2L-67.6,67.6L-70.6,63.6L-73.1,59.2L-75.0,54.5L-76.6,49.7L-77.7,44.8L-81.3,41.4L-84.7,37.7L-87.8,33.7L-90.3,29.4L-92.3,24.7L-93.7,19.9L-94.4,15.0L-94.5,9.9L-93.9,4.9L-92.8,0.0L-91.2,-4.8L-89.2,-9.4L-90.2,-14.3L-90.7,-19.3L-90.8,-24.3L-90.3,-29.4L-89.3,-34.3L-87.5,-39.0L-85.2,-43.4L-82.3,-47.5L-78.9,-51.2L-75.0,-54.5L-70.9,-57.4L-66.7,-60.0L-64.5,-64.5L-62.1,-68.9L-59.2,-73.1L-55.8,-76.9L-52.1,-80.2L-47.9,-83.0L-43.4,-85.2L-38.6,-86.8L-33.7,-87.8L-28.7,-88.2L-23.6,-88.2L-18.6,-87.7L-14.3,-90.2L-9.7,-92.2L-4.9,-93.9L-0.0,-95.0L5.0,-95.5L10.0,-95.3L15.0,-94.4L19.7,-92.9L24.3,-90.8L28.7,-88.2L32.7,-85.2L36.5,-81.9L41.4,-81.3L46.4,-80.3L51.2,-78.9L55.8,-76.9L60.2,-74.3L64.1,-71.2L67.6,-67.6L70.6,-63.6L73.1,-59.2L75.0,-54.5L76.6,-49.7L77.7,-44.8L81.3,-41.4L84.7,-37.7L87.8,-33.7L90.3,-29.4L92.3,-24.7L93.7,-19.9L94.4,-15.0L94.5,-9.9L93.9,-4.9L92.8,-0.0Z" fill="none" stroke="#cad1db" stroke-width="9" stroke-linecap="round" opacity="0.12" filter="url(#tg)"/><path d="M92.8,0.0L91.2,4.8L89.2,9.4L90.2,14.3L90.7,19.3L90.8,24.3L90.3,29.4L89.3,34.3L87.5,39.0L85.2,43.4L82.3,47.5L78.9,51.2L75.0,54.5L70.9,57.4L66.7,60.0L64.5,64.5L62.1,68.9L59.2,73.1L55.8,76.9L52.1,80.2L47.9,83.0L43.4,85.2L38.6,86.8L33.7,87.8L28.7,88.2L23.6,88.2L18.6,87.7L14.3,90.2L9.7,92.2L4.9,93.9L0.0,95.0L-5.0,95.5L-10.0,95.3L-15.0,94.4L-19.7,92.9L-24.3,90.8L-28.7,88.2L-32.7,85.2L-36.5,81.9L-41.4,81.3L-46.4,80.3L-51.2,78.9L-55.8,76.9L-60.2,74.3L-64.1,71.2L-67.6,67.6L-70.6,63.6L-73.1,59.2L-75.0,54.5L-76.6,49.7L-77.7,44.8L-81.3,41.4L-84.7,37.7L-87.8,33.7L-90.3,29.4L-92.3,24.7L-93.7,19.9L-94.4,15.0L-94.5,9.9L-93.9,4.9L-92.8,0.0L-91.2,-4.8L-89.2,-9.4L-90.2,-14.3L-90.7,-19.3L-90.8,-24.3L-90.3,-29.4L-89.3,-34.3L-87.5,-39.0L-85.2,-43.4L-82.3,-47.5L-78.9,-51.2L-75.0,-54.5L-70.9,-57.4L-66.7,-60.0L-64.5,-64.5L-62.1,-68.9L-59.2,-73.1L-55.8,-76.9L-52.1,-80.2L-47.9,-83.0L-43.4,-85.2L-38.6,-86.8L-33.7,-87.8L-28.7,-88.2L-23.6,-88.2L-18.6,-87.7L-14.3,-90.2L-9.7,-92.2L-4.9,-93.9L-0.0,-95.0L5.0,-95.5L10.0,-95.3L15.0,-94.4L19.7,-92.9L24.3,-90.8L28.7,-88.2L32.7,-85.2L36.5,-81.9L41.4,-81.3L46.4,-80.3L51.2,-78.9L55.8,-76.9L60.2,-74.3L64.1,-71.2L67.6,-67.6L70.6,-63.6L73.1,-59.2L75.0,-54.5L76.6,-49.7L77.7,-44.8L81.3,-41.4L84.7,-37.7L87.8,-33.7L90.3,-29.4L92.3,-24.7L93.7,-19.9L94.4,-15.0L94.5,-9.9L93.9,-4.9L92.8,-0.0Z" fill="none" stroke="#cad1db" stroke-width="3" stroke-linecap="round" opacity="0.95"/><path d="M97.9,0.0L99.1,5.2L99.6,10.5L99.5,15.8L98.8,21.0L97.3,26.1L95.3,31.0L92.6,35.5L89.5,39.8L85.9,43.8L82.2,47.4L80.9,52.5L79.2,57.6L77.1,62.4L74.4,67.0L71.3,71.3L67.6,75.0L63.4,78.3L58.9,81.0L54.0,83.2L49.0,84.8L43.8,85.9L38.6,86.7L34.6,90.0L30.3,93.1L25.7,95.8L20.8,98.0L15.8,99.5L10.6,100.4L5.3,100.6L0.0,100.2L-5.2,99.1L-10.2,97.4L-15.1,95.3L-19.7,92.8L-25.0,93.2L-30.3,93.1L-35.5,92.6L-40.7,91.5L-45.7,89.8L-50.5,87.5L-54.9,84.5L-58.9,81.0L-62.4,77.1L-65.5,72.8L-68.2,68.2L-70.5,63.5L-75.0,60.7L-79.2,57.6L-83.2,54.0L-86.7,50.1L-89.8,45.7L-92.2,41.1L-94.1,36.1L-95.3,31.0L-95.8,25.7L-95.8,20.4L-95.3,15.1L-94.3,9.9L-96.3,5.0L-97.9,0.0L-99.1,-5.2L-99.6,-10.5L-99.5,-15.8L-98.8,-21.0L-97.3,-26.1L-95.3,-31.0L-92.6,-35.5L-89.5,-39.8L-85.9,-43.8L-82.2,-47.4L-80.9,-52.5L-79.2,-57.6L-77.1,-62.4L-74.4,-67.0L-71.3,-71.3L-67.6,-75.0L-63.4,-78.3L-58.9,-81.0L-54.0,-83.2L-49.0,-84.8L-43.8,-85.9L-38.6,-86.7L-34.6,-90.0L-30.3,-93.1L-25.7,-95.8L-20.8,-98.0L-15.8,-99.5L-10.6,-100.4L-5.3,-100.6L-0.0,-100.2L5.2,-99.1L10.2,-97.4L15.1,-95.3L19.7,-92.8L25.0,-93.2L30.3,-93.1L35.5,-92.6L40.7,-91.5L45.7,-89.8L50.5,-87.5L54.9,-84.5L58.9,-81.0L62.4,-77.1L65.5,-72.8L68.2,-68.2L70.5,-63.5L75.0,-60.7L79.2,-57.6L83.2,-54.0L86.7,-50.1L89.8,-45.7L92.2,-41.1L94.1,-36.1L95.3,-31.0L95.8,-25.7L95.8,-20.4L95.3,-15.1L94.3,-9.9L96.3,-5.0L97.9,-0.0Z" fill="none" stroke="#ccd4de" stroke-width="9" stroke-linecap="round" opacity="0.12" filter="url(#tg)"/><path d="M97.9,0.0L99.1,5.2L99.6,10.5L99.5,15.8L98.8,21.0L97.3,26.1L95.3,31.0L92.6,35.5L89.5,39.8L85.9,43.8L82.2,47.4L80.9,52.5L79.2,57.6L77.1,62.4L74.4,67.0L71.3,71.3L67.6,75.0L63.4,78.3L58.9,81.0L54.0,83.2L49.0,84.8L43.8,85.9L38.6,86.7L34.6,90.0L30.3,93.1L25.7,95.8L20.8,98.0L15.8,99.5L10.6,100.4L5.3,100.6L0.0,100.2L-5.2,99.1L-10.2,97.4L-15.1,95.3L-19.7,92.8L-25.0,93.2L-30.3,93.1L-35.5,92.6L-40.7,91.5L-45.7,89.8L-50.5,87.5L-54.9,84.5L-58.9,81.0L-62.4,77.1L-65.5,72.8L-68.2,68.2L-70.5,63.5L-75.0,60.7L-79.2,57.6L-83.2,54.0L-86.7,50.1L-89.8,45.7L-92.2,41.1L-94.1,36.1L-95.3,31.0L-95.8,25.7L-95.8,20.4L-95.3,15.1L-94.3,9.9L-96.3,5.0L-97.9,0.0L-99.1,-5.2L-99.6,-10.5L-99.5,-15.8L-98.8,-21.0L-97.3,-26.1L-95.3,-31.0L-92.6,-35.5L-89.5,-39.8L-85.9,-43.8L-82.2,-47.4L-80.9,-52.5L-79.2,-57.6L-77.1,-62.4L-74.4,-67.0L-71.3,-71.3L-67.6,-75.0L-63.4,-78.3L-58.9,-81.0L-54.0,-83.2L-49.0,-84.8L-43.8,-85.9L-38.6,-86.7L-34.6,-90.0L-30.3,-93.1L-25.7,-95.8L-20.8,-98.0L-15.8,-99.5L-10.6,-100.4L-5.3,-100.6L-0.0,-100.2L5.2,-99.1L10.2,-97.4L15.1,-95.3L19.7,-92.8L25.0,-93.2L30.3,-93.1L35.5,-92.6L40.7,-91.5L45.7,-89.8L50.5,-87.5L54.9,-84.5L58.9,-81.0L62.4,-77.1L65.5,-72.8L68.2,-68.2L70.5,-63.5L75.0,-60.7L79.2,-57.6L83.2,-54.0L86.7,-50.1L89.8,-45.7L92.2,-41.1L94.1,-36.1L95.3,-31.0L95.8,-25.7L95.8,-20.4L95.3,-15.1L94.3,-9.9L96.3,-5.0L97.9,-0.0Z" fill="none" stroke="#ccd4de" stroke-width="3" stroke-linecap="round" opacity="0.95"/><path d="M106.1,0.0L105.8,5.5L104.8,11.0L103.1,16.3L100.8,21.4L98.1,26.3L95.1,30.9L94.9,36.4L94.2,41.9L93.0,47.4L91.2,52.7L88.8,57.7L85.9,62.4L82.3,66.7L78.3,70.5L73.8,73.8L69.0,76.6L63.9,79.0L58.8,80.9L55.3,85.2L51.5,89.3L47.4,93.0L42.8,96.2L38.0,98.9L32.8,101.0L27.4,102.3L21.9,103.0L16.3,103.1L10.8,102.5L5.3,101.5L0.0,100.0L-5.3,101.5L-10.8,102.5L-16.3,103.1L-21.9,103.0L-27.4,102.3L-32.8,101.0L-38.0,98.9L-42.8,96.2L-47.4,93.0L-51.5,89.3L-55.3,85.2L-58.8,80.9L-63.9,79.0L-69.0,76.6L-73.8,73.8L-78.3,70.5L-82.3,66.7L-85.9,62.4L-88.8,57.7L-91.2,52.7L-93.0,47.4L-94.2,41.9L-94.9,36.4L-95.1,30.9L-98.1,26.3L-100.8,21.4L-103.1,16.3L-104.8,11.0L-105.8,5.5L-106.1,0.0L-105.8,-5.5L-104.8,-11.0L-103.1,-16.3L-100.8,-21.4L-98.1,-26.3L-95.1,-30.9L-94.9,-36.4L-94.2,-41.9L-93.0,-47.4L-91.2,-52.7L-88.8,-57.7L-85.9,-62.4L-82.3,-66.7L-78.3,-70.5L-73.8,-73.8L-69.0,-76.6L-63.9,-79.0L-58.8,-80.9L-55.3,-85.2L-51.5,-89.3L-47.4,-93.0L-42.8,-96.2L-38.0,-98.9L-32.8,-101.0L-27.4,-102.3L-21.9,-103.0L-16.3,-103.1L-10.8,-102.5L-5.3,-101.5L-0.0,-100.0L5.3,-101.5L10.8,-102.5L16.3,-103.1L21.9,-103.0L27.4,-102.3L32.8,-101.0L38.0,-98.9L42.8,-96.2L47.4,-93.0L51.5,-89.3L55.3,-85.2L58.8,-80.9L63.9,-79.0L69.0,-76.6L73.8,-73.8L78.3,-70.5L82.3,-66.7L85.9,-62.4L88.8,-57.7L91.2,-52.7L93.0,-47.4L94.2,-41.9L94.9,-36.4L95.1,-30.9L98.1,-26.3L100.8,-21.4L103.1,-16.3L104.8,-11.0L105.8,-5.5L106.1,-0.0Z" fill="none" stroke="#ced6e1" stroke-width="9" stroke-linecap="round" opacity="0.12" filter="url(#tg)"/><path d="M106.1,0.0L105.8,5.5L104.8,11.0L103.1,16.3L100.8,21.4L98.1,26.3L95.1,30.9L94.9,36.4L94.2,41.9L93.0,47.4L91.2,52.7L88.8,57.7L85.9,62.4L82.3,66.7L78.3,70.5L73.8,73.8L69.0,76.6L63.9,79.0L58.8,80.9L55.3,85.2L51.5,89.3L47.4,93.0L42.8,96.2L38.0,98.9L32.8,101.0L27.4,102.3L21.9,103.0L16.3,103.1L10.8,102.5L5.3,101.5L0.0,100.0L-5.3,101.5L-10.8,102.5L-16.3,103.1L-21.9,103.0L-27.4,102.3L-32.8,101.0L-38.0,98.9L-42.8,96.2L-47.4,93.0L-51.5,89.3L-55.3,85.2L-58.8,80.9L-63.9,79.0L-69.0,76.6L-73.8,73.8L-78.3,70.5L-82.3,66.7L-85.9,62.4L-88.8,57.7L-91.2,52.7L-93.0,47.4L-94.2,41.9L-94.9,36.4L-95.1,30.9L-98.1,26.3L-100.8,21.4L-103.1,16.3L-104.8,11.0L-105.8,5.5L-106.1,0.0L-105.8,-5.5L-104.8,-11.0L-103.1,-16.3L-100.8,-21.4L-98.1,-26.3L-95.1,-30.9L-94.9,-36.4L-94.2,-41.9L-93.0,-47.4L-91.2,-52.7L-88.8,-57.7L-85.9,-62.4L-82.3,-66.7L-78.3,-70.5L-73.8,-73.8L-69.0,-76.6L-63.9,-79.0L-58.8,-80.9L-55.3,-85.2L-51.5,-89.3L-47.4,-93.0L-42.8,-96.2L-38.0,-98.9L-32.8,-101.0L-27.4,-102.3L-21.9,-103.0L-16.3,-103.1L-10.8,-102.5L-5.3,-101.5L-0.0,-100.0L5.3,-101.5L10.8,-102.5L16.3,-103.1L21.9,-103.0L27.4,-102.3L32.8,-101.0L38.0,-98.9L42.8,-96.2L47.4,-93.0L51.5,-89.3L55.3,-85.2L58.8,-80.9L63.9,-79.0L69.0,-76.6L73.8,-73.8L78.3,-70.5L82.3,-66.7L85.9,-62.4L88.8,-57.7L91.2,-52.7L93.0,-47.4L94.2,-41.9L94.9,-36.4L95.1,-30.9L98.1,-26.3L100.8,-21.4L103.1,-16.3L104.8,-11.0L105.8,-5.5L106.1,-0.0Z" fill="none" stroke="#ced6e1" stroke-width="3" stroke-linecap="round" opacity="0.95"/><path d="M108.3,0.0L106.6,5.6L104.6,11.0L105.5,16.7L105.9,22.5L105.8,28.3L105.1,34.1L103.7,39.8L101.7,45.3L99.0,50.4L95.7,55.2L91.9,59.7L87.6,63.6L83.0,67.2L78.2,70.4L75.5,75.5L72.4,80.4L68.9,85.1L64.9,89.4L60.5,93.2L55.7,96.4L50.4,99.0L44.9,100.9L39.2,102.2L33.5,103.0L27.6,103.1L21.9,102.9L16.7,105.5L11.3,107.7L5.7,109.4L0.0,110.5L-5.8,111.0L-11.6,110.7L-17.4,109.7L-23.0,108.1L-28.3,105.8L-33.5,103.0L-38.3,99.7L-42.8,96.1L-48.5,95.1L-54.1,93.8L-59.7,91.9L-64.9,89.4L-69.9,86.3L-74.5,82.7L-78.6,78.6L-82.1,73.9L-85.1,68.9L-87.6,63.6L-89.6,58.2L-91.1,52.6L-95.1,48.5L-98.9,44.0L-102.2,39.2L-105.1,34.1L-107.3,28.8L-108.9,23.1L-109.7,17.4L-109.9,11.5L-109.4,5.7L-108.3,0.0L-106.6,-5.6L-104.6,-11.0L-105.5,-16.7L-105.9,-22.5L-105.8,-28.3L-105.1,-34.1L-103.7,-39.8L-101.7,-45.3L-99.0,-50.4L-95.7,-55.2L-91.9,-59.7L-87.6,-63.6L-83.0,-67.2L-78.2,-70.4L-75.5,-75.5L-72.4,-80.4L-68.9,-85.1L-64.9,-89.4L-60.5,-93.2L-55.7,-96.4L-50.4,-99.0L-44.9,-100.9L-39.2,-102.2L-33.5,-103.0L-27.6,-103.1L-21.9,-102.9L-16.7,-105.5L-11.3,-107.7L-5.7,-109.4L-0.0,-110.5L5.8,-111.0L11.6,-110.7L17.4,-109.7L23.0,-108.1L28.3,-105.8L33.5,-103.0L38.3,-99.7L42.8,-96.1L48.5,-95.1L54.1,-93.8L59.7,-91.9L64.9,-89.4L69.9,-86.3L74.5,-82.7L78.6,-78.6L82.1,-73.9L85.1,-68.9L87.6,-63.6L89.6,-58.2L91.1,-52.6L95.1,-48.5L98.9,-44.0L102.2,-39.2L105.1,-34.1L107.3,-28.8L108.9,-23.1L109.7,-17.4L109.9,-11.5L109.4,-5.7L108.3,-0.0Z" fill="none" stroke="#d1d9e4" stroke-width="9" stroke-linecap="round" opacity="0.12" filter="url(#tg)"/><path d="M108.3,0.0L106.6,5.6L104.6,11.0L105.5,16.7L105.9,22.5L105.8,28.3L105.1,34.1L103.7,39.8L101.7,45.3L99.0,50.4L95.7,55.2L91.9,59.7L87.6,63.6L83.0,67.2L78.2,70.4L75.5,75.5L72.4,80.4L68.9,85.1L64.9,89.4L60.5,93.2L55.7,96.4L50.4,99.0L44.9,100.9L39.2,102.2L33.5,103.0L27.6,103.1L21.9,102.9L16.7,105.5L11.3,107.7L5.7,109.4L0.0,110.5L-5.8,111.0L-11.6,110.7L-17.4,109.7L-23.0,108.1L-28.3,105.8L-33.5,103.0L-38.3,99.7L-42.8,96.1L-48.5,95.1L-54.1,93.8L-59.7,91.9L-64.9,89.4L-69.9,86.3L-74.5,82.7L-78.6,78.6L-82.1,73.9L-85.1,68.9L-87.6,63.6L-89.6,58.2L-91.1,52.6L-95.1,48.5L-98.9,44.0L-102.2,39.2L-105.1,34.1L-107.3,28.8L-108.9,23.1L-109.7,17.4L-109.9,11.5L-109.4,5.7L-108.3,0.0L-106.6,-5.6L-104.6,-11.0L-105.5,-16.7L-105.9,-22.5L-105.8,-28.3L-105.1,-34.1L-103.7,-39.8L-101.7,-45.3L-99.0,-50.4L-95.7,-55.2L-91.9,-59.7L-87.6,-63.6L-83.0,-67.2L-78.2,-70.4L-75.5,-75.5L-72.4,-80.4L-68.9,-85.1L-64.9,-89.4L-60.5,-93.2L-55.7,-96.4L-50.4,-99.0L-44.9,-100.9L-39.2,-102.2L-33.5,-103.0L-27.6,-103.1L-21.9,-102.9L-16.7,-105.5L-11.3,-107.7L-5.7,-109.4L-0.0,-110.5L5.8,-111.0L11.6,-110.7L17.4,-109.7L23.0,-108.1L28.3,-105.8L33.5,-103.0L38.3,-99.7L42.8,-96.1L48.5,-95.1L54.1,-93.8L59.7,-91.9L64.9,-89.4L69.9,-86.3L74.5,-82.7L78.6,-78.6L82.1,-73.9L85.1,-68.9L87.6,-63.6L89.6,-58.2L91.1,-52.6L95.1,-48.5L98.9,-44.0L102.2,-39.2L105.1,-34.1L107.3,-28.8L108.9,-23.1L109.7,-17.4L109.9,-11.5L109.4,-5.7L108.3,-0.0Z" fill="none" stroke="#d1d9e4" stroke-width="3" stroke-linecap="round" opacity="0.95"/><path d="M113.4,0.0L114.5,6.0L115.0,12.1L114.8,18.2L113.9,24.2L112.3,30.1L110.0,35.7L107.1,41.1L103.6,46.1L99.7,50.8L95.6,55.2L93.9,61.0L91.8,66.7L89.1,72.2L86.0,77.4L82.2,82.2L77.9,86.6L73.2,90.4L68.0,93.6L62.5,96.2L56.7,98.2L50.8,99.7L44.9,100.8L40.1,104.5L35.0,107.9L29.7,110.8L24.0,113.1L18.2,114.8L12.2,115.8L6.1,116.1L0.0,115.7L-6.0,114.5L-11.9,112.8L-17.5,110.6L-22.9,108.0L-29.0,108.1L-35.0,107.9L-41.1,107.1L-47.0,105.7L-52.8,103.6L-58.2,100.9L-63.3,97.5L-68.0,93.6L-72.2,89.1L-75.9,84.3L-79.2,79.2L-82.0,73.8L-87.0,70.5L-91.8,66.7L-96.2,62.5L-100.2,57.8L-103.6,52.8L-106.4,47.4L-108.6,41.7L-110.0,35.7L-110.8,29.7L-110.9,23.6L-110.6,17.5L-109.8,11.5L-111.8,5.9L-113.4,0.0L-114.5,-6.0L-115.0,-12.1L-114.8,-18.2L-113.9,-24.2L-112.3,-30.1L-110.0,-35.7L-107.1,-41.1L-103.6,-46.1L-99.7,-50.8L-95.6,-55.2L-93.9,-61.0L-91.8,-66.7L-89.1,-72.2L-86.0,-77.4L-82.2,-82.2L-77.9,-86.6L-73.2,-90.4L-68.0,-93.6L-62.5,-96.2L-56.7,-98.2L-50.8,-99.7L-44.9,-100.8L-40.1,-104.5L-35.0,-107.9L-29.7,-110.8L-24.0,-113.1L-18.2,-114.8L-12.2,-115.8L-6.1,-116.1L-0.0,-115.7L6.0,-114.5L11.9,-112.8L17.5,-110.6L22.9,-108.0L29.0,-108.1L35.0,-107.9L41.1,-107.1L47.0,-105.7L52.8,-103.6L58.2,-100.9L63.3,-97.5L68.0,-93.6L72.2,-89.1L75.9,-84.3L79.2,-79.2L82.0,-73.8L87.0,-70.5L91.8,-66.7L96.2,-62.5L100.2,-57.8L103.6,-52.8L106.4,-47.4L108.6,-41.7L110.0,-35.7L110.8,-29.7L110.9,-23.6L110.6,-17.5L109.8,-11.5L111.8,-5.9L113.4,-0.0Z" fill="none" stroke="#d3dbe7" stroke-width="9" stroke-linecap="round" opacity="0.12" filter="url(#tg)"/><path d="M113.4,0.0L114.5,6.0L115.0,12.1L114.8,18.2L113.9,24.2L112.3,30.1L110.0,35.7L107.1,41.1L103.6,46.1L99.7,50.8L95.6,55.2L93.9,61.0L91.8,66.7L89.1,72.2L86.0,77.4L82.2,82.2L77.9,86.6L73.2,90.4L68.0,93.6L62.5,96.2L56.7,98.2L50.8,99.7L44.9,100.8L40.1,104.5L35.0,107.9L29.7,110.8L24.0,113.1L18.2,114.8L12.2,115.8L6.1,116.1L0.0,115.7L-6.0,114.5L-11.9,112.8L-17.5,110.6L-22.9,108.0L-29.0,108.1L-35.0,107.9L-41.1,107.1L-47.0,105.7L-52.8,103.6L-58.2,100.9L-63.3,97.5L-68.0,93.6L-72.2,89.1L-75.9,84.3L-79.2,79.2L-82.0,73.8L-87.0,70.5L-91.8,66.7L-96.2,62.5L-100.2,57.8L-103.6,52.8L-106.4,47.4L-108.6,41.7L-110.0,35.7L-110.8,29.7L-110.9,23.6L-110.6,17.5L-109.8,11.5L-111.8,5.9L-113.4,0.0L-114.5,-6.0L-115.0,-12.1L-114.8,-18.2L-113.9,-24.2L-112.3,-30.1L-110.0,-35.7L-107.1,-41.1L-103.6,-46.1L-99.7,-50.8L-95.6,-55.2L-93.9,-61.0L-91.8,-66.7L-89.1,-72.2L-86.0,-77.4L-82.2,-82.2L-77.9,-86.6L-73.2,-90.4L-68.0,-93.6L-62.5,-96.2L-56.7,-98.2L-50.8,-99.7L-44.9,-100.8L-40.1,-104.5L-35.0,-107.9L-29.7,-110.8L-24.0,-113.1L-18.2,-114.8L-12.2,-115.8L-6.1,-116.1L-0.0,-115.7L6.0,-114.5L11.9,-112.8L17.5,-110.6L22.9,-108.0L29.0,-108.1L35.0,-107.9L41.1,-107.1L47.0,-105.7L52.8,-103.6L58.2,-100.9L63.3,-97.5L68.0,-93.6L72.2,-89.1L75.9,-84.3L79.2,-79.2L82.0,-73.8L87.0,-70.5L91.8,-66.7L96.2,-62.5L100.2,-57.8L103.6,-52.8L106.4,-47.4L108.6,-41.7L110.0,-35.7L110.8,-29.7L110.9,-23.6L110.6,-17.5L109.8,-11.5L111.8,-5.9L113.4,-0.0Z" fill="none" stroke="#d3dbe7" stroke-width="3" stroke-linecap="round" opacity="0.95"/><path d="M121.7,0.0L121.3,6.4L120.2,12.6L118.4,18.8L116.0,24.7L113.1,30.3L109.9,35.7L109.3,42.0L108.3,48.2L106.8,54.4L104.6,60.4L101.9,66.1L98.4,71.5L94.4,76.4L89.8,80.9L84.8,84.8L79.4,88.1L73.7,91.0L67.9,93.5L63.8,98.2L59.3,102.7L54.4,106.8L49.1,110.4L43.5,113.4L37.6,115.7L31.4,117.3L25.1,118.2L18.8,118.4L12.4,117.9L6.1,117.0L0.0,115.5L-6.1,117.0L-12.4,117.9L-18.8,118.4L-25.1,118.2L-31.4,117.3L-37.6,115.7L-43.5,113.4L-49.1,110.4L-54.4,106.8L-59.3,102.7L-63.8,98.2L-67.9,93.5L-73.7,91.0L-79.4,88.1L-84.8,84.8L-89.8,80.9L-94.4,76.4L-98.4,71.5L-101.9,66.1L-104.6,60.4L-106.8,54.4L-108.3,48.2L-109.3,42.0L-109.9,35.7L-113.1,30.3L-116.0,24.7L-118.4,18.8L-120.2,12.6L-121.3,6.4L-121.7,0.0L-121.3,-6.4L-120.2,-12.6L-118.4,-18.8L-116.0,-24.7L-113.1,-30.3L-109.9,-35.7L-109.3,-42.0L-108.3,-48.2L-106.8,-54.4L-104.6,-60.4L-101.9,-66.1L-98.4,-71.5L-94.4,-76.4L-89.8,-80.9L-84.8,-84.8L-79.4,-88.1L-73.7,-91.0L-67.9,-93.5L-63.8,-98.2L-59.3,-102.7L-54.4,-106.8L-49.1,-110.4L-43.5,-113.4L-37.6,-115.7L-31.4,-117.3L-25.1,-118.2L-18.8,-118.4L-12.4,-117.9L-6.1,-117.0L-0.0,-115.5L6.1,-117.0L12.4,-117.9L18.8,-118.4L25.1,-118.2L31.4,-117.3L37.6,-115.7L43.5,-113.4L49.1,-110.4L54.4,-106.8L59.3,-102.7L63.8,-98.2L67.9,-93.5L73.7,-91.0L79.4,-88.1L84.8,-84.8L89.8,-80.9L94.4,-76.4L98.4,-71.5L101.9,-66.1L104.6,-60.4L106.8,-54.4L108.3,-48.2L109.3,-42.0L109.9,-35.7L113.1,-30.3L116.0,-24.7L118.4,-18.8L120.2,-12.6L121.3,-6.4L121.7,-0.0Z" fill="none" stroke="#d5ddea" stroke-width="9" stroke-linecap="round" opacity="0.12" filter="url(#tg)"/><path d="M121.7,0.0L121.3,6.4L120.2,12.6L118.4,18.8L116.0,24.7L113.1,30.3L109.9,35.7L109.3,42.0L108.3,48.2L106.8,54.4L104.6,60.4L101.9,66.1L98.4,71.5L94.4,76.4L89.8,80.9L84.8,84.8L79.4,88.1L73.7,91.0L67.9,93.5L63.8,98.2L59.3,102.7L54.4,106.8L49.1,110.4L43.5,113.4L37.6,115.7L31.4,117.3L25.1,118.2L18.8,118.4L12.4,117.9L6.1,117.0L0.0,115.5L-6.1,117.0L-12.4,117.9L-18.8,118.4L-25.1,118.2L-31.4,117.3L-37.6,115.7L-43.5,113.4L-49.1,110.4L-54.4,106.8L-59.3,102.7L-63.8,98.2L-67.9,93.5L-73.7,91.0L-79.4,88.1L-84.8,84.8L-89.8,80.9L-94.4,76.4L-98.4,71.5L-101.9,66.1L-104.6,60.4L-106.8,54.4L-108.3,48.2L-109.3,42.0L-109.9,35.7L-113.1,30.3L-116.0,24.7L-118.4,18.8L-120.2,12.6L-121.3,6.4L-121.7,0.0L-121.3,-6.4L-120.2,-12.6L-118.4,-18.8L-116.0,-24.7L-113.1,-30.3L-109.9,-35.7L-109.3,-42.0L-108.3,-48.2L-106.8,-54.4L-104.6,-60.4L-101.9,-66.1L-98.4,-71.5L-94.4,-76.4L-89.8,-80.9L-84.8,-84.8L-79.4,-88.1L-73.7,-91.0L-67.9,-93.5L-63.8,-98.2L-59.3,-102.7L-54.4,-106.8L-49.1,-110.4L-43.5,-113.4L-37.6,-115.7L-31.4,-117.3L-25.1,-118.2L-18.8,-118.4L-12.4,-117.9L-6.1,-117.0L-0.0,-115.5L6.1,-117.0L12.4,-117.9L18.8,-118.4L25.1,-118.2L31.4,-117.3L37.6,-115.7L43.5,-113.4L49.1,-110.4L54.4,-106.8L59.3,-102.7L63.8,-98.2L67.9,-93.5L73.7,-91.0L79.4,-88.1L84.8,-84.8L89.8,-80.9L94.4,-76.4L98.4,-71.5L101.9,-66.1L104.6,-60.4L106.8,-54.4L108.3,-48.2L109.3,-42.0L109.9,-35.7L113.1,-30.3L116.0,-24.7L118.4,-18.8L120.2,-12.6L121.3,-6.4L121.7,-0.0Z" fill="none" stroke="#d5ddea" stroke-width="3" stroke-linecap="round" opacity="0.95"/><path d="M123.8,0.0L122.1,6.4L120.0,12.6L120.8,19.1L121.1,25.7L120.8,32.4L119.8,38.9L118.2,45.4L115.9,51.6L112.8,57.5L109.1,63.0L104.9,68.1L100.1,72.7L95.0,77.0L89.7,80.8L86.5,86.5L82.8,92.0L78.7,97.2L74.1,101.9L69.0,106.2L63.4,109.8L57.5,112.8L51.2,115.1L44.8,116.7L38.2,117.7L31.6,118.1L25.1,118.1L19.1,120.8L12.9,123.1L6.5,124.9L0.0,126.0L-6.6,126.4L-13.3,126.1L-19.8,125.1L-26.2,123.2L-32.4,120.8L-38.2,117.7L-43.8,114.2L-49.1,110.3L-55.5,109.0L-61.9,107.2L-68.1,104.9L-74.1,101.9L-79.7,98.4L-84.9,94.2L-89.5,89.5L-93.6,84.3L-97.2,78.7L-100.1,72.7L-102.6,66.6L-104.5,60.4L-109.0,55.5L-113.1,50.3L-116.7,44.8L-119.8,38.9L-122.3,32.8L-124.0,26.4L-125.1,19.8L-125.3,13.2L-124.9,6.5L-123.8,0.0L-122.1,-6.4L-120.0,-12.6L-120.8,-19.1L-121.1,-25.7L-120.8,-32.4L-119.8,-38.9L-118.2,-45.4L-115.9,-51.6L-112.8,-57.5L-109.1,-63.0L-104.9,-68.1L-100.1,-72.7L-95.0,-77.0L-89.7,-80.8L-86.5,-86.5L-82.8,-92.0L-78.7,-97.2L-74.1,-101.9L-69.0,-106.2L-63.4,-109.8L-57.5,-112.8L-51.2,-115.1L-44.8,-116.7L-38.2,-117.7L-31.6,-118.1L-25.1,-118.1L-19.1,-120.8L-12.9,-123.1L-6.5,-124.9L-0.0,-126.0L6.6,-126.4L13.3,-126.1L19.8,-125.1L26.2,-123.2L32.4,-120.8L38.2,-117.7L43.8,-114.2L49.1,-110.3L55.5,-109.0L61.9,-107.2L68.1,-104.9L74.1,-101.9L79.7,-98.4L84.9,-94.2L89.5,-89.5L93.6,-84.3L97.2,-78.7L100.1,-72.7L102.6,-66.6L104.5,-60.4L109.0,-55.5L113.1,-50.3L116.7,-44.8L119.8,-38.9L122.3,-32.8L124.0,-26.4L125.1,-19.8L125.3,-13.2L124.9,-6.5L123.8,-0.0Z" fill="none" stroke="#d7e0ed" stroke-width="9" stroke-linecap="round" opacity="0.12" filter="url(#tg)"/><path d="M123.8,0.0L122.1,6.4L120.0,12.6L120.8,19.1L121.1,25.7L120.8,32.4L119.8,38.9L118.2,45.4L115.9,51.6L112.8,57.5L109.1,63.0L104.9,68.1L100.1,72.7L95.0,77.0L89.7,80.8L86.5,86.5L82.8,92.0L78.7,97.2L74.1,101.9L69.0,106.2L63.4,109.8L57.5,112.8L51.2,115.1L44.8,116.7L38.2,117.7L31.6,118.1L25.1,118.1L19.1,120.8L12.9,123.1L6.5,124.9L0.0,126.0L-6.6,126.4L-13.3,126.1L-19.8,125.1L-26.2,123.2L-32.4,120.8L-38.2,117.7L-43.8,114.2L-49.1,110.3L-55.5,109.0L-61.9,107.2L-68.1,104.9L-74.1,101.9L-79.7,98.4L-84.9,94.2L-89.5,89.5L-93.6,84.3L-97.2,78.7L-100.1,72.7L-102.6,66.6L-104.5,60.4L-109.0,55.5L-113.1,50.3L-116.7,44.8L-119.8,38.9L-122.3,32.8L-124.0,26.4L-125.1,19.8L-125.3,13.2L-124.9,6.5L-123.8,0.0L-122.1,-6.4L-120.0,-12.6L-120.8,-19.1L-121.1,-25.7L-120.8,-32.4L-119.8,-38.9L-118.2,-45.4L-115.9,-51.6L-112.8,-57.5L-109.1,-63.0L-104.9,-68.1L-100.1,-72.7L-95.0,-77.0L-89.7,-80.8L-86.5,-86.5L-82.8,-92.0L-78.7,-97.2L-74.1,-101.9L-69.0,-106.2L-63.4,-109.8L-57.5,-112.8L-51.2,-115.1L-44.8,-116.7L-38.2,-117.7L-31.6,-118.1L-25.1,-118.1L-19.1,-120.8L-12.9,-123.1L-6.5,-124.9L-0.0,-126.0L6.6,-126.4L13.3,-126.1L19.8,-125.1L26.2,-123.2L32.4,-120.8L38.2,-117.7L43.8,-114.2L49.1,-110.3L55.5,-109.0L61.9,-107.2L68.1,-104.9L74.1,-101.9L79.7,-98.4L84.9,-94.2L89.5,-89.5L93.6,-84.3L97.2,-78.7L100.1,-72.7L102.6,-66.6L104.5,-60.4L109.0,-55.5L113.1,-50.3L116.7,-44.8L119.8,-38.9L122.3,-32.8L124.0,-26.4L125.1,-19.8L125.3,-13.2L124.9,-6.5L123.8,-0.0Z" fill="none" stroke="#d7e0ed" stroke-width="3" stroke-linecap="round" opacity="0.95"/><path d="M128.9,0.0L130.0,6.8L130.4,13.7L130.2,20.6L129.1,27.4L127.3,34.1L124.7,40.5L121.5,46.7L117.8,52.4L113.6,57.9L109.0,62.9L106.9,69.4L104.3,75.8L101.2,81.9L97.5,87.8L93.2,93.2L88.3,98.1L82.9,102.4L77.1,106.1L70.9,109.2L64.5,111.7L57.9,113.6L51.2,115.0L45.7,119.0L39.8,122.6L33.7,125.8L27.3,128.3L20.6,130.2L13.8,131.3L6.9,131.6L0.0,131.2L-6.8,130.0L-13.5,128.2L-19.9,125.9L-26.2,123.1L-33.0,123.1L-39.8,122.6L-46.7,121.5L-53.4,119.8L-59.8,117.4L-66.0,114.3L-71.8,110.5L-77.1,106.1L-81.9,101.2L-86.3,95.8L-90.1,90.1L-93.5,84.2L-99.0,80.2L-104.3,75.8L-109.2,70.9L-113.6,65.6L-117.4,59.8L-120.6,53.7L-123.0,47.2L-124.7,40.5L-125.8,33.7L-126.1,26.8L-125.9,19.9L-125.2,13.2L-127.3,6.7L-128.9,0.0L-130.0,-6.8L-130.4,-13.7L-130.2,-20.6L-129.1,-27.4L-127.3,-34.1L-124.7,-40.5L-121.5,-46.7L-117.8,-52.4L-113.6,-57.9L-109.0,-62.9L-106.9,-69.4L-104.3,-75.8L-101.2,-81.9L-97.5,-87.8L-93.2,-93.2L-88.3,-98.1L-82.9,-102.4L-77.1,-106.1L-70.9,-109.2L-64.5,-111.7L-57.9,-113.6L-51.2,-115.0L-45.7,-119.0L-39.8,-122.6L-33.7,-125.8L-27.3,-128.3L-20.6,-130.2L-13.8,-131.3L-6.9,-131.6L-0.0,-131.2L6.8,-130.0L13.5,-128.2L19.9,-125.9L26.2,-123.1L33.0,-123.1L39.8,-122.6L46.7,-121.5L53.4,-119.8L59.8,-117.4L66.0,-114.3L71.8,-110.5L77.1,-106.1L81.9,-101.2L86.3,-95.8L90.1,-90.1L93.5,-84.2L99.0,-80.2L104.3,-75.8L109.2,-70.9L113.6,-65.6L117.4,-59.8L120.6,-53.7L123.0,-47.2L124.7,-40.5L125.8,-33.7L126.1,-26.8L125.9,-19.9L125.2,-13.2L127.3,-6.7L128.9,-0.0Z" fill="none" stroke="#d9e2f0" stroke-width="9" stroke-linecap="round" opacity="0.12" filter="url(#tg)"/><path d="M128.9,0.0L130.0,6.8L130.4,13.7L130.2,20.6L129.1,27.4L127.3,34.1L124.7,40.5L121.5,46.7L117.8,52.4L113.6,57.9L109.0,62.9L106.9,69.4L104.3,75.8L101.2,81.9L97.5,87.8L93.2,93.2L88.3,98.1L82.9,102.4L77.1,106.1L70.9,109.2L64.5,111.7L57.9,113.6L51.2,115.0L45.7,119.0L39.8,122.6L33.7,125.8L27.3,128.3L20.6,130.2L13.8,131.3L6.9,131.6L0.0,131.2L-6.8,130.0L-13.5,128.2L-19.9,125.9L-26.2,123.1L-33.0,123.1L-39.8,122.6L-46.7,121.5L-53.4,119.8L-59.8,117.4L-66.0,114.3L-71.8,110.5L-77.1,106.1L-81.9,101.2L-86.3,95.8L-90.1,90.1L-93.5,84.2L-99.0,80.2L-104.3,75.8L-109.2,70.9L-113.6,65.6L-117.4,59.8L-120.6,53.7L-123.0,47.2L-124.7,40.5L-125.8,33.7L-126.1,26.8L-125.9,19.9L-125.2,13.2L-127.3,6.7L-128.9,0.0L-130.0,-6.8L-130.4,-13.7L-130.2,-20.6L-129.1,-27.4L-127.3,-34.1L-124.7,-40.5L-121.5,-46.7L-117.8,-52.4L-113.6,-57.9L-109.0,-62.9L-106.9,-69.4L-104.3,-75.8L-101.2,-81.9L-97.5,-87.8L-93.2,-93.2L-88.3,-98.1L-82.9,-102.4L-77.1,-106.1L-70.9,-109.2L-64.5,-111.7L-57.9,-113.6L-51.2,-115.0L-45.7,-119.0L-39.8,-122.6L-33.7,-125.8L-27.3,-128.3L-20.6,-130.2L-13.8,-131.3L-6.9,-131.6L-0.0,-131.2L6.8,-130.0L13.5,-128.2L19.9,-125.9L26.2,-123.1L33.0,-123.1L39.8,-122.6L46.7,-121.5L53.4,-119.8L59.8,-117.4L66.0,-114.3L71.8,-110.5L77.1,-106.1L81.9,-101.2L86.3,-95.8L90.1,-90.1L93.5,-84.2L99.0,-80.2L104.3,-75.8L109.2,-70.9L113.6,-65.6L117.4,-59.8L120.6,-53.7L123.0,-47.2L124.7,-40.5L125.8,-33.7L126.1,-26.8L125.9,-19.9L125.2,-13.2L127.3,-6.7L128.9,-0.0Z" fill="none" stroke="#d9e2f0" stroke-width="3" stroke-linecap="round" opacity="0.95"/><path d="M137.2,0.0L136.8,7.2L135.6,14.3L133.7,21.2L131.2,27.9L128.1,34.3L124.6,40.5L123.8,47.5L122.5,54.5L120.6,61.5L118.1,68.2L114.9,74.6L111.0,80.6L106.4,86.2L101.3,91.2L95.7,95.7L89.7,99.7L83.5,103.1L77.0,106.0L72.2,111.2L67.0,116.1L61.5,120.6L55.5,124.5L49.1,127.9L42.4,130.4L35.4,132.3L28.3,133.4L21.2,133.7L14.0,133.4L6.9,132.4L0.0,131.0L-6.9,132.4L-14.0,133.4L-21.2,133.7L-28.3,133.4L-35.4,132.3L-42.4,130.4L-49.1,127.9L-55.5,124.5L-61.5,120.6L-67.0,116.1L-72.2,111.2L-77.0,106.0L-83.5,103.1L-89.7,99.7L-95.7,95.7L-101.3,91.2L-106.4,86.2L-111.0,80.6L-114.9,74.6L-118.1,68.2L-120.6,61.5L-122.5,54.5L-123.8,47.5L-124.6,40.5L-128.1,34.3L-131.2,27.9L-133.7,21.2L-135.6,14.3L-136.8,7.2L-137.2,0.0L-136.8,-7.2L-135.6,-14.3L-133.7,-21.2L-131.2,-27.9L-128.1,-34.3L-124.6,-40.5L-123.8,-47.5L-122.5,-54.5L-120.6,-61.5L-118.1,-68.2L-114.9,-74.6L-111.0,-80.6L-106.4,-86.2L-101.3,-91.2L-95.7,-95.7L-89.7,-99.7L-83.5,-103.1L-77.0,-106.0L-72.2,-111.2L-67.0,-116.1L-61.5,-120.6L-55.5,-124.5L-49.1,-127.9L-42.4,-130.4L-35.4,-132.3L-28.3,-133.4L-21.2,-133.7L-14.0,-133.4L-6.9,-132.4L-0.0,-131.0L6.9,-132.4L14.0,-133.4L21.2,-133.7L28.3,-133.4L35.4,-132.3L42.4,-130.4L49.1,-127.9L55.5,-124.5L61.5,-120.6L67.0,-116.1L72.2,-111.2L77.0,-106.0L83.5,-103.1L89.7,-99.7L95.7,-95.7L101.3,-91.2L106.4,-86.2L111.0,-80.6L114.9,-74.6L118.1,-68.2L120.6,-61.5L122.5,-54.5L123.8,-47.5L124.6,-40.5L128.1,-34.3L131.2,-27.9L133.7,-21.2L135.6,-14.3L136.8,-7.2L137.2,-0.0Z" fill="none" stroke="#dbe4f3" stroke-width="9" stroke-linecap="round" opacity="0.12" filter="url(#tg)"/><path d="M137.2,0.0L136.8,7.2L135.6,14.3L133.7,21.2L131.2,27.9L128.1,34.3L124.6,40.5L123.8,47.5L122.5,54.5L120.6,61.5L118.1,68.2L114.9,74.6L111.0,80.6L106.4,86.2L101.3,91.2L95.7,95.7L89.7,99.7L83.5,103.1L77.0,106.0L72.2,111.2L67.0,116.1L61.5,120.6L55.5,124.5L49.1,127.9L42.4,130.4L35.4,132.3L28.3,133.4L21.2,133.7L14.0,133.4L6.9,132.4L0.0,131.0L-6.9,132.4L-14.0,133.4L-21.2,133.7L-28.3,133.4L-35.4,132.3L-42.4,130.4L-49.1,127.9L-55.5,124.5L-61.5,120.6L-67.0,116.1L-72.2,111.2L-77.0,106.0L-83.5,103.1L-89.7,99.7L-95.7,95.7L-101.3,91.2L-106.4,86.2L-111.0,80.6L-114.9,74.6L-118.1,68.2L-120.6,61.5L-122.5,54.5L-123.8,47.5L-124.6,40.5L-128.1,34.3L-131.2,27.9L-133.7,21.2L-135.6,14.3L-136.8,7.2L-137.2,0.0L-136.8,-7.2L-135.6,-14.3L-133.7,-21.2L-131.2,-27.9L-128.1,-34.3L-124.6,-40.5L-123.8,-47.5L-122.5,-54.5L-120.6,-61.5L-118.1,-68.2L-114.9,-74.6L-111.0,-80.6L-106.4,-86.2L-101.3,-91.2L-95.7,-95.7L-89.7,-99.7L-83.5,-103.1L-77.0,-106.0L-72.2,-111.2L-67.0,-116.1L-61.5,-120.6L-55.5,-124.5L-49.1,-127.9L-42.4,-130.4L-35.4,-132.3L-28.3,-133.4L-21.2,-133.7L-14.0,-133.4L-6.9,-132.4L-0.0,-131.0L6.9,-132.4L14.0,-133.4L21.2,-133.7L28.3,-133.4L35.4,-132.3L42.4,-130.4L49.1,-127.9L55.5,-124.5L61.5,-120.6L67.0,-116.1L72.2,-111.2L77.0,-106.0L83.5,-103.1L89.7,-99.7L95.7,-95.7L101.3,-91.2L106.4,-86.2L111.0,-80.6L114.9,-74.6L118.1,-68.2L120.6,-61.5L122.5,-54.5L123.8,-47.5L124.6,-40.5L128.1,-34.3L131.2,-27.9L133.7,-21.2L135.6,-14.3L136.8,-7.2L137.2,-0.0Z" fill="none" stroke="#dbe4f3" stroke-width="3" stroke-linecap="round" opacity="0.95"/><path d="M139.3,0.0L137.6,7.2L135.5,14.2L136.1,21.6L136.2,29.0L135.7,36.4L134.6,43.7L132.7,50.9L130.0,57.9L126.6,64.5L122.5,70.8L117.9,76.5L112.7,81.9L107.1,86.7L101.2,91.1L97.4,97.4L93.2,103.5L88.4,109.2L83.2,114.5L77.4,119.2L71.2,123.3L64.5,126.6L57.6,129.3L50.4,131.2L43.0,132.4L35.7,133.1L28.3,133.2L21.6,136.1L14.6,138.5L7.4,140.3L0.0,141.5L-7.4,141.9L-14.9,141.5L-22.2,140.4L-29.4,138.4L-36.4,135.7L-43.0,132.4L-49.4,128.6L-55.4,124.4L-62.6,122.8L-69.6,120.6L-76.5,117.9L-83.2,114.5L-89.4,110.4L-95.2,105.8L-100.5,100.5L-105.2,94.7L-109.2,88.4L-112.7,81.9L-115.6,75.0L-118.0,68.1L-122.8,62.6L-127.2,56.6L-131.2,50.4L-134.6,43.7L-137.3,36.8L-139.2,29.6L-140.4,22.2L-140.7,14.8L-140.3,7.4L-139.3,0.0L-137.6,-7.2L-135.5,-14.2L-136.1,-21.6L-136.2,-29.0L-135.7,-36.4L-134.6,-43.7L-132.7,-50.9L-130.0,-57.9L-126.6,-64.5L-122.5,-70.8L-117.9,-76.5L-112.7,-81.9L-107.1,-86.7L-101.2,-91.1L-97.4,-97.4L-93.2,-103.5L-88.4,-109.2L-83.2,-114.5L-77.4,-119.2L-71.2,-123.3L-64.5,-126.6L-57.6,-129.3L-50.4,-131.2L-43.0,-132.4L-35.7,-133.1L-28.3,-133.2L-21.6,-136.1L-14.6,-138.5L-7.4,-140.3L-0.0,-141.5L7.4,-141.9L14.9,-141.5L22.2,-140.4L29.4,-138.4L36.4,-135.7L43.0,-132.4L49.4,-128.6L55.4,-124.4L62.6,-122.8L69.6,-120.6L76.5,-117.9L83.2,-114.5L89.4,-110.4L95.2,-105.8L100.5,-100.5L105.2,-94.7L109.2,-88.4L112.7,-81.9L115.6,-75.0L118.0,-68.1L122.8,-62.6L127.2,-56.6L131.2,-50.4L134.6,-43.7L137.3,-36.8L139.2,-29.6L140.4,-22.2L140.7,-14.8L140.3,-7.4L139.3,-0.0Z" fill="none" stroke="#dde7f6" stroke-width="9" stroke-linecap="round" opacity="0.12" filter="url(#tg)"/><path d="M139.3,0.0L137.6,7.2L135.5,14.2L136.1,21.6L136.2,29.0L135.7,36.4L134.6,43.7L132.7,50.9L130.0,57.9L126.6,64.5L122.5,70.8L117.9,76.5L112.7,81.9L107.1,86.7L101.2,91.1L97.4,97.4L93.2,103.5L88.4,109.2L83.2,114.5L77.4,119.2L71.2,123.3L64.5,126.6L57.6,129.3L50.4,131.2L43.0,132.4L35.7,133.1L28.3,133.2L21.6,136.1L14.6,138.5L7.4,140.3L0.0,141.5L-7.4,141.9L-14.9,141.5L-22.2,140.4L-29.4,138.4L-36.4,135.7L-43.0,132.4L-49.4,128.6L-55.4,124.4L-62.6,122.8L-69.6,120.6L-76.5,117.9L-83.2,114.5L-89.4,110.4L-95.2,105.8L-100.5,100.5L-105.2,94.7L-109.2,88.4L-112.7,81.9L-115.6,75.0L-118.0,68.1L-122.8,62.6L-127.2,56.6L-131.2,50.4L-134.6,43.7L-137.3,36.8L-139.2,29.6L-140.4,22.2L-140.7,14.8L-140.3,7.4L-139.3,0.0L-137.6,-7.2L-135.5,-14.2L-136.1,-21.6L-136.2,-29.0L-135.7,-36.4L-134.6,-43.7L-132.7,-50.9L-130.0,-57.9L-126.6,-64.5L-122.5,-70.8L-117.9,-76.5L-112.7,-81.9L-107.1,-86.7L-101.2,-91.1L-97.4,-97.4L-93.2,-103.5L-88.4,-109.2L-83.2,-114.5L-77.4,-119.2L-71.2,-123.3L-64.5,-126.6L-57.6,-129.3L-50.4,-131.2L-43.0,-132.4L-35.7,-133.1L-28.3,-133.2L-21.6,-136.1L-14.6,-138.5L-7.4,-140.3L-0.0,-141.5L7.4,-141.9L14.9,-141.5L22.2,-140.4L29.4,-138.4L36.4,-135.7L43.0,-132.4L49.4,-128.6L55.4,-124.4L62.6,-122.8L69.6,-120.6L76.5,-117.9L83.2,-114.5L89.4,-110.4L95.2,-105.8L100.5,-100.5L105.2,-94.7L109.2,-88.4L112.7,-81.9L115.6,-75.0L118.0,-68.1L122.8,-62.6L127.2,-56.6L131.2,-50.4L134.6,-43.7L137.3,-36.8L139.2,-29.6L140.4,-22.2L140.7,-14.8L140.3,-7.4L139.3,-0.0Z" fill="none" stroke="#dde7f6" stroke-width="3" stroke-linecap="round" opacity="0.95"/><path d="M144.4,0.0L145.5,7.6L145.9,15.3L145.5,23.0L144.3,30.7L142.3,38.1L139.5,45.3L136.0,52.2L131.9,58.7L127.4,64.9L122.4,70.7L119.9,77.9L116.8,84.9L113.2,91.7L109.0,98.1L104.1,104.1L98.7,109.6L92.7,114.5L86.2,118.7L79.4,122.2L72.2,125.1L64.9,127.4L57.5,129.1L51.2,133.5L44.6,137.4L37.7,140.7L30.5,143.5L23.0,145.5L15.4,146.7L7.7,147.1L0.0,146.7L-7.6,145.5L-15.1,143.6L-22.4,141.2L-29.4,138.3L-37.0,138.1L-44.6,137.4L-52.2,136.0L-59.7,134.0L-66.9,131.2L-73.7,127.7L-80.2,123.5L-86.2,118.7L-91.7,113.2L-96.6,107.3L-101.1,101.1L-105.1,94.6L-111.1,90.0L-116.8,84.9L-122.2,79.4L-127.0,73.3L-131.2,66.9L-134.7,60.0L-137.5,52.8L-139.5,45.3L-140.7,37.7L-141.3,30.0L-141.2,22.4L-140.6,14.8L-142.8,7.5L-144.4,0.0L-145.5,-7.6L-145.9,-15.3L-145.5,-23.0L-144.3,-30.7L-142.3,-38.1L-139.5,-45.3L-136.0,-52.2L-131.9,-58.7L-127.4,-64.9L-122.4,-70.7L-119.9,-77.9L-116.8,-84.9L-113.2,-91.7L-109.0,-98.1L-104.1,-104.1L-98.7,-109.6L-92.7,-114.5L-86.2,-118.7L-79.4,-122.2L-72.2,-125.1L-64.9,-127.4L-57.5,-129.1L-51.2,-133.5L-44.6,-137.4L-37.7,-140.7L-30.5,-143.5L-23.0,-145.5L-15.4,-146.7L-7.7,-147.1L-0.0,-146.7L7.6,-145.5L15.1,-143.6L22.4,-141.2L29.4,-138.3L37.0,-138.1L44.6,-137.4L52.2,-136.0L59.7,-134.0L66.9,-131.2L73.7,-127.7L80.2,-123.5L86.2,-118.7L91.7,-113.2L96.6,-107.3L101.1,-101.1L105.1,-94.6L111.1,-90.0L116.8,-84.9L122.2,-79.4L127.0,-73.3L131.2,-66.9L134.7,-60.0L137.5,-52.8L139.5,-45.3L140.7,-37.7L141.3,-30.0L141.2,-22.4L140.6,-14.8L142.8,-7.5L144.4,-0.0Z" fill="none" stroke="#dfe9f9" stroke-width="9" stroke-linecap="round" opacity="0.12" filter="url(#tg)"/><path d="M144.4,0.0L145.5,7.6L145.9,15.3L145.5,23.0L144.3,30.7L142.3,38.1L139.5,45.3L136.0,52.2L131.9,58.7L127.4,64.9L122.4,70.7L119.9,77.9L116.8,84.9L113.2,91.7L109.0,98.1L104.1,104.1L98.7,109.6L92.7,114.5L86.2,118.7L79.4,122.2L72.2,125.1L64.9,127.4L57.5,129.1L51.2,133.5L44.6,137.4L37.7,140.7L30.5,143.5L23.0,145.5L15.4,146.7L7.7,147.1L0.0,146.7L-7.6,145.5L-15.1,143.6L-22.4,141.2L-29.4,138.3L-37.0,138.1L-44.6,137.4L-52.2,136.0L-59.7,134.0L-66.9,131.2L-73.7,127.7L-80.2,123.5L-86.2,118.7L-91.7,113.2L-96.6,107.3L-101.1,101.1L-105.1,94.6L-111.1,90.0L-116.8,84.9L-122.2,79.4L-127.0,73.3L-131.2,66.9L-134.7,60.0L-137.5,52.8L-139.5,45.3L-140.7,37.7L-141.3,30.0L-141.2,22.4L-140.6,14.8L-142.8,7.5L-144.4,0.0L-145.5,-7.6L-145.9,-15.3L-145.5,-23.0L-144.3,-30.7L-142.3,-38.1L-139.5,-45.3L-136.0,-52.2L-131.9,-58.7L-127.4,-64.9L-122.4,-70.7L-119.9,-77.9L-116.8,-84.9L-113.2,-91.7L-109.0,-98.1L-104.1,-104.1L-98.7,-109.6L-92.7,-114.5L-86.2,-118.7L-79.4,-122.2L-72.2,-125.1L-64.9,-127.4L-57.5,-129.1L-51.2,-133.5L-44.6,-137.4L-37.7,-140.7L-30.5,-143.5L-23.0,-145.5L-15.4,-146.7L-7.7,-147.1L-0.0,-146.7L7.6,-145.5L15.1,-143.6L22.4,-141.2L29.4,-138.3L37.0,-138.1L44.6,-137.4L52.2,-136.0L59.7,-134.0L66.9,-131.2L73.7,-127.7L80.2,-123.5L86.2,-118.7L91.7,-113.2L96.6,-107.3L101.1,-101.1L105.1,-94.6L111.1,-90.0L116.8,-84.9L122.2,-79.4L127.0,-73.3L131.2,-66.9L134.7,-60.0L137.5,-52.8L139.5,-45.3L140.7,-37.7L141.3,-30.0L141.2,-22.4L140.6,-14.8L142.8,-7.5L144.4,-0.0Z" fill="none" stroke="#dfe9f9" stroke-width="3" stroke-linecap="round" opacity="0.95"/><path d="M152.7,0.0L152.2,8.0L151.0,15.9L149.0,23.6L146.3,31.1L143.1,38.3L139.4,45.3L138.3,53.1L136.7,60.8L134.4,68.5L131.5,75.9L127.9,83.0L123.5,89.7L118.5,95.9L112.8,101.6L106.7,106.7L100.1,111.2L93.2,115.1L86.1,118.6L80.7,124.2L74.8,129.6L68.5,134.4L61.8,138.7L54.6,142.3L47.2,145.2L39.5,147.3L31.6,148.5L23.6,149.0L15.6,148.8L7.8,147.9L0.0,146.5L-7.8,147.9L-15.6,148.8L-23.6,149.0L-31.6,148.5L-39.5,147.3L-47.2,145.2L-54.6,142.3L-61.8,138.7L-68.5,134.4L-74.8,129.6L-80.7,124.2L-86.1,118.6L-93.2,115.1L-100.1,111.2L-106.7,106.7L-112.8,101.6L-118.5,95.9L-123.5,89.7L-127.9,83.0L-131.5,75.9L-134.4,68.5L-136.7,60.8L-138.3,53.1L-139.4,45.3L-143.1,38.3L-146.3,31.1L-149.0,23.6L-151.0,15.9L-152.2,8.0L-152.7,0.0L-152.2,-8.0L-151.0,-15.9L-149.0,-23.6L-146.3,-31.1L-143.1,-38.3L-139.4,-45.3L-138.3,-53.1L-136.7,-60.8L-134.4,-68.5L-131.5,-75.9L-127.9,-83.0L-123.5,-89.7L-118.5,-95.9L-112.8,-101.6L-106.7,-106.7L-100.1,-111.2L-93.2,-115.1L-86.1,-118.6L-80.7,-124.2L-74.8,-129.6L-68.5,-134.4L-61.8,-138.7L-54.6,-142.3L-47.2,-145.2L-39.5,-147.3L-31.6,-148.5L-23.6,-149.0L-15.6,-148.8L-7.8,-147.9L-0.0,-146.5L7.8,-147.9L15.6,-148.8L23.6,-149.0L31.6,-148.5L39.5,-147.3L47.2,-145.2L54.6,-142.3L61.8,-138.7L68.5,-134.4L74.8,-129.6L80.7,-124.2L86.1,-118.6L93.2,-115.1L100.1,-111.2L106.7,-106.7L112.8,-101.6L118.5,-95.9L123.5,-89.7L127.9,-83.0L131.5,-75.9L134.4,-68.5L136.7,-60.8L138.3,-53.1L139.4,-45.3L143.1,-38.3L146.3,-31.1L149.0,-23.6L151.0,-15.9L152.2,-8.0L152.7,-0.0Z" fill="none" stroke="#e1ebfc" stroke-width="9" stroke-linecap="round" opacity="0.12" filter="url(#tg)"/><path d="M152.7,0.0L152.2,8.0L151.0,15.9L149.0,23.6L146.3,31.1L143.1,38.3L139.4,45.3L138.3,53.1L136.7,60.8L134.4,68.5L131.5,75.9L127.9,83.0L123.5,89.7L118.5,95.9L112.8,101.6L106.7,106.7L100.1,111.2L93.2,115.1L86.1,118.6L80.7,124.2L74.8,129.6L68.5,134.4L61.8,138.7L54.6,142.3L47.2,145.2L39.5,147.3L31.6,148.5L23.6,149.0L15.6,148.8L7.8,147.9L0.0,146.5L-7.8,147.9L-15.6,148.8L-23.6,149.0L-31.6,148.5L-39.5,147.3L-47.2,145.2L-54.6,142.3L-61.8,138.7L-68.5,134.4L-74.8,129.6L-80.7,124.2L-86.1,118.6L-93.2,115.1L-100.1,111.2L-106.7,106.7L-112.8,101.6L-118.5,95.9L-123.5,89.7L-127.9,83.0L-131.5,75.9L-134.4,68.5L-136.7,60.8L-138.3,53.1L-139.4,45.3L-143.1,38.3L-146.3,31.1L-149.0,23.6L-151.0,15.9L-152.2,8.0L-152.7,0.0L-152.2,-8.0L-151.0,-15.9L-149.0,-23.6L-146.3,-31.1L-143.1,-38.3L-139.4,-45.3L-138.3,-53.1L-136.7,-60.8L-134.4,-68.5L-131.5,-75.9L-127.9,-83.0L-123.5,-89.7L-118.5,-95.9L-112.8,-101.6L-106.7,-106.7L-100.1,-111.2L-93.2,-115.1L-86.1,-118.6L-80.7,-124.2L-74.8,-129.6L-68.5,-134.4L-61.8,-138.7L-54.6,-142.3L-47.2,-145.2L-39.5,-147.3L-31.6,-148.5L-23.6,-149.0L-15.6,-148.8L-7.8,-147.9L-0.0,-146.5L7.8,-147.9L15.6,-148.8L23.6,-149.0L31.6,-148.5L39.5,-147.3L47.2,-145.2L54.6,-142.3L61.8,-138.7L68.5,-134.4L74.8,-129.6L80.7,-124.2L86.1,-118.6L93.2,-115.1L100.1,-111.2L106.7,-106.7L112.8,-101.6L118.5,-95.9L123.5,-89.7L127.9,-83.0L131.5,-75.9L134.4,-68.5L136.7,-60.8L138.3,-53.1L139.4,-45.3L143.1,-38.3L146.3,-31.1L149.0,-23.6L151.0,-15.9L152.2,-8.0L152.7,-0.0Z" fill="none" stroke="#e1ebfc" stroke-width="3" stroke-linecap="round" opacity="0.95"/><path d="M154.8,0.0L153.1,8.0L150.9,15.9L151.4,24.0L151.4,32.2L150.7,40.4L149.3,48.5L147.2,56.5L144.2,64.2L140.4,71.6L136.0,78.5L130.9,85.0L125.2,91.0L119.1,96.5L112.7,101.5L108.4,108.4L103.6,115.0L98.2,121.3L92.3,127.0L85.8,132.2L78.9,136.7L71.6,140.4L63.9,143.4L55.9,145.7L47.8,147.2L39.7,148.1L31.5,148.4L24.0,151.4L16.2,153.9L8.2,155.8L0.0,157.0L-8.2,157.4L-16.5,157.0L-24.7,155.7L-32.6,153.6L-40.4,150.7L-47.8,147.2L-54.9,143.1L-61.7,138.6L-69.6,136.6L-77.4,134.0L-85.0,130.9L-92.3,127.0L-99.2,122.5L-105.6,117.3L-111.5,111.5L-116.7,105.1L-121.3,98.2L-125.2,91.0L-128.6,83.5L-131.4,75.9L-136.6,69.6L-141.4,62.9L-145.7,55.9L-149.3,48.5L-152.2,40.8L-154.4,32.8L-155.7,24.7L-156.1,16.4L-155.8,8.2L-154.8,0.0L-153.1,-8.0L-150.9,-15.9L-151.4,-24.0L-151.4,-32.2L-150.7,-40.4L-149.3,-48.5L-147.2,-56.5L-144.2,-64.2L-140.4,-71.6L-136.0,-78.5L-130.9,-85.0L-125.2,-91.0L-119.1,-96.5L-112.7,-101.5L-108.4,-108.4L-103.6,-115.0L-98.2,-121.3L-92.3,-127.0L-85.8,-132.2L-78.9,-136.7L-71.6,-140.4L-63.9,-143.4L-55.9,-145.7L-47.8,-147.2L-39.7,-148.1L-31.5,-148.4L-24.0,-151.4L-16.2,-153.9L-8.2,-155.8L-0.0,-157.0L8.2,-157.4L16.5,-157.0L24.7,-155.7L32.6,-153.6L40.4,-150.7L47.8,-147.2L54.9,-143.1L61.7,-138.6L69.6,-136.6L77.4,-134.0L85.0,-130.9L92.3,-127.0L99.2,-122.5L105.6,-117.3L111.5,-111.5L116.7,-105.1L121.3,-98.2L125.2,-91.0L128.6,-83.5L131.4,-75.9L136.6,-69.6L141.4,-62.9L145.7,-55.9L149.3,-48.5L152.2,-40.8L154.4,-32.8L155.7,-24.7L156.1,-16.4L155.8,-8.2L154.8,-0.0Z" fill="none" stroke="#e3eeff" stroke-width="9" stroke-linecap="round" opacity="0.12" filter="url(#tg)"/><path d="M154.8,0.0L153.1,8.0L150.9,15.9L151.4,24.0L151.4,32.2L150.7,40.4L149.3,48.5L147.2,56.5L144.2,64.2L140.4,71.6L136.0,78.5L130.9,85.0L125.2,91.0L119.1,96.5L112.7,101.5L108.4,108.4L103.6,115.0L98.2,121.3L92.3,127.0L85.8,132.2L78.9,136.7L71.6,140.4L63.9,143.4L55.9,145.7L47.8,147.2L39.7,148.1L31.5,148.4L24.0,151.4L16.2,153.9L8.2,155.8L0.0,157.0L-8.2,157.4L-16.5,157.0L-24.7,155.7L-32.6,153.6L-40.4,150.7L-47.8,147.2L-54.9,143.1L-61.7,138.6L-69.6,136.6L-77.4,134.0L-85.0,130.9L-92.3,127.0L-99.2,122.5L-105.6,117.3L-111.5,111.5L-116.7,105.1L-121.3,98.2L-125.2,91.0L-128.6,83.5L-131.4,75.9L-136.6,69.6L-141.4,62.9L-145.7,55.9L-149.3,48.5L-152.2,40.8L-154.4,32.8L-155.7,24.7L-156.1,16.4L-155.8,8.2L-154.8,0.0L-153.1,-8.0L-150.9,-15.9L-151.4,-24.0L-151.4,-32.2L-150.7,-40.4L-149.3,-48.5L-147.2,-56.5L-144.2,-64.2L-140.4,-71.6L-136.0,-78.5L-130.9,-85.0L-125.2,-91.0L-119.1,-96.5L-112.7,-101.5L-108.4,-108.4L-103.6,-115.0L-98.2,-121.3L-92.3,-127.0L-85.8,-132.2L-78.9,-136.7L-71.6,-140.4L-63.9,-143.4L-55.9,-145.7L-47.8,-147.2L-39.7,-148.1L-31.5,-148.4L-24.0,-151.4L-16.2,-153.9L-8.2,-155.8L-0.0,-157.0L8.2,-157.4L16.5,-157.0L24.7,-155.7L32.6,-153.6L40.4,-150.7L47.8,-147.2L54.9,-143.1L61.7,-138.6L69.6,-136.6L77.4,-134.0L85.0,-130.9L92.3,-127.0L99.2,-122.5L105.6,-117.3L111.5,-111.5L116.7,-105.1L121.3,-98.2L125.2,-91.0L128.6,-83.5L131.4,-75.9L136.6,-69.6L141.4,-62.9L145.7,-55.9L149.3,-48.5L152.2,-40.8L154.4,-32.8L155.7,-24.7L156.1,-16.4L155.8,-8.2L154.8,-0.0Z" fill="none" stroke="#e3eeff" stroke-width="3" stroke-linecap="round" opacity="0.95"/>
</svg>