<svg xmlns="http://www.w3.org/2000/svg" viewBox="-250 -250 500 500">
<defs><filter id="tg"><feGaussianBlur stdDeviation="5.9"/></filter></defs>
<rect x="-250" y="-250" width="500" height="500" fill="#000000"/>
<path d="M134.2,0.0L132.6,6.9L128.2,13.5L122.2,19.4L116.0,24.6L110.6,29.6L106.5,34.6L103.4,39.7L100.8,44.9L98.2,50.1L95.5,55.1L92.5,60.0L89.1,64.8L85.3,69.1L80.7,72.6L75.0,75.0L68.2,75.8L60.9,75.2L53.9,74.1L47.8,73.6L43.2,74.7L39.8,78.2L37.3,83.7L34.7,90.4L31.5,97.0L27.4,102.4L22.6,106.2L17.2,108.4L11.5,109.6L5.8,110.1L0.0,110.3L-5.8,110.1L-11.5,109.7L-17.3,109.3L-23.3,109.5L-29.6,110.6L-36.6,112.7L-44.3,115.5L-52.4,117.7L-60.3,118.3L-67.1,116.2L-72.3,111.3L-75.8,104.3L-77.8,96.1L-79.3,88.1L-81.0,81.0L-83.2,74.9L-86.0,69.7L-89.2,64.8L-92.5,60.0L-95.5,55.1L-98.2,50.1L-100.7,44.8L-102.5,39.3L-103.3,33.6L-102.4,27.4L-99.7,21.2L-95.6,15.1L-91.1,9.6L-87.6,4.6L-86.3,0.0L-87.6,-4.6L-91.1,-9.6L-95.6,-15.1L-99.7,-21.2L-102.4,-27.4L-103.3,-33.6L-102.5,-39.3L-100.7,-44.8L-98.2,-50.1L-95.5,-55.1L-92.5,-60.0L-89.2,-64.8L-86.0,-69.7L-83.2,-74.9L-81.0,-81.0L-79.3,-88.1L-77.8,-96.1L-75.8,-104.3L-72.3,-111.3L-67.1,-116.2L-60.3,-118.3L-52.4,-117.7L-44.3,-115.5L-36.6,-112.7L-29.6,-110.6L-23.3,-109.5L-17.3,-109.3L-11.5,-109.7L-5.8,-110.1L-0.0,-110.3L5.8,-110.1L11.5,-109.6L17.2,-108.4L22.6,-106.2L27.4,-102.4L31.5,-97.0L34.7,-90.4L37.3,-83.7L39.8,-78.2L43.2,-74.7L47.8,-73.6L53.9,-74.1L60.9,-75.2L68.2,-75.8L75.0,-75.0L80.7,-72.6L85.3,-69.1L89.1,-64.8L92.5,-60.0L95.5,-55.1L98.2,-50.1L100.8,-44.9L103.4,-39.7L106.5,-34.6L110.6,-29.6L116.0,-24.6L122.2,-19.4L128.2,-13.5L132.6,-6.9L134.2,-0.0Z" fill="none" stroke="#e1fcf6" stroke-width="5.1" stroke-linecap="round" opacity="0.15" filter="url(#tg)"/><path d="M134.2,0.0L132.6,6.9L128.2,13.5L122.2,19.4L116.0,24.6L110.6,29.6L106.5,34.6L103.4,39.7L100.8,44.9L98.2,50.1L95.5,55.1L92.5,60.0L89.1,64.8L85.3,69.1L80.7,72.6L75.0,75.0L68.2,75.8L60.9,75.2L53.9,74.1L47.8,73.6L43.2,74.7L39.8,78.2L37.3,83.7L34.7,90.4L31.5,97.0L27.4,102.4L22.6,106.2L17.2,108.4L11.5,109.6L5.8,110.1L0.0,110.3L-5.8,110.1L-11.5,109.7L-17.3,109.3L-23.3,109.5L-29.6,110.6L-36.6,112.7L-44.3,115.5L-52.4,117.7L-60.3,118.3L-67.1,116.2L-72.3,111.3L-75.8,104.3L-77.8,96.1L-79.3,88.1L-81.0,81.0L-83.2,74.9L-86.0,69.7L-89.2,64.8L-92.5,60.0L-95.5,55.1L-98.2,50.1L-100.7,44.8L-102.5,39.3L-103.3,33.6L-102.4,27.4L-99.7,21.2L-95.6,15.1L-91.1,9.6L-87.6,4.6L-86.3,0.0L-87.6,-4.6L-91.1,-9.6L-95.6,-15.1L-99.7,-21.2L-102.4,-27.4L-103.3,-33.6L-102.5,-39.3L-100.7,-44.8L-98.2,-50.1L-95.5,-55.1L-92.5,-60.0L-89.2,-64.8L-86.0,-69.7L-83.2,-74.9L-81.0,-81.0L-79.3,-88.1L-77.8,-96.1L-75.8,-104.3L-72.3,-111.3L-67.1,-116.2L-60.3,-118.3L-52.4,-117.7L-44.3,-115.5L-36.6,-112.7L-29.6,-110.6L-23.3,-109.5L-17.3,-109.3L-11.5,-109.7L-5.8,-110.1L-0.0,-110.3L5.8,-110.1L11.5,-109.6L17.2,-108.4L22.6,-106.2L27.4,-102.4L31.5,-97.0L34.7,-90.4L37.3,-83.7L39.8,-78.2L43.2,-74.7L47.8,-73.6L53.9,-74.1L60.9,-75.2L68.2,-75.8L75.0,-75.0L80.7,-72.6L85.3,-69.1L89.1,-64.8L92.5,-60.0L95.5,-55.1L98.2,-50.1L100.8,-44.9L103.4,-39.7L106.5,-34.6L110.6,-29.6L116.0,-24.6L122.2,-19.4L128.2,-13.5L132.6,-6.9L134.2,-0.0Z" fill="none" stroke="#e1fcf6" stroke-width="1.7" stroke-linecap="round" opacity="0.95"/><path d="M86.3,0.0L87.6,4.6L91.1,9.6L95.6,15.1L99.7,21.2L102.4,27.4L103.3,33.6L102.5,39.3L100.7,44.8L98.2,50.1L95.5,55.1L92.5,60.0L89.2,64.8L86.0,69.7L83.2,74.9L81.0,81.0L79.3,88.1L77.8,96.1L75.8,104.3L72.3,111.3L67.1,116.2L60.3,118.3L52.4,117.7L44.3,115.5L36.6,112.7L29.6,110.6L23.3,109.5L17.3,109.3L11.5,109.7L5.8,110.1L0.0,110.3L-5.8,110.1L-11.5,109.6L-17.2,108.4L-22.6,106.2L-27.4,102.4L-31.5,97.0L-34.7,90.4L-37.3,83.7L-39.8,78.2L-43.2,74.7L-47.8,73.6L-53.9,74.1L-60.9,75.2L-68.2,75.8L-75.0,75.0L-80.7,72.6L-85.3,69.1L-89.1,64.8L-92.5,60.0L-95.5,55.1L-98.2,50.1L-100.8,44.9L-103.4,39.7L-106.5,34.6L-110.6,29.6L-116.0,24.6L-122.2,19.4L-128.2,13.5L-132.6,6.9L-134.2,0.0L-132.6,-6.9L-128.2,-13.5L-122.2,-19.4L-116.0,-24.6L-110.6,-29.6L-106.5,-34.6L-103.4,-39.7L-100.8,-44.9L-98.2,-50.1L-95.5,-55.1L-92.5,-60.0L-89.1,-64.8L-85.3,-69.1L-80.7,-72.6L-75.0,-75.0L-68.2,-75.8L-60.9,-75.2L-53.9,-74.1L-47.8,-73.6L-43.2,-74.7L-39.8,-78.2L-37.3,-83.7L-34.7,-90.4L-31.5,-97.0L-27.4,-102.4L-22.6,-106.2L-17.2,-108.4L-11.5,-109.6L-5.8,-110.1L-0.0,-110.3L5.8,-110.1L11.5,-109.7L17.3,-109.3L23.3,-109.5L29.6,-110.6L36.6,-112.7L44.3,-115.5L52.4,-117.7L60.3,-118.3L67.1,-116.2L72.3,-111.3L75.8,-104.3L77.8,-96.1L79.3,-88.1L81.0,-81.0L83.2,-74.9L86.0,-69.7L89.2,-64.8L92.5,-60.0L95.5,-55.1L98.2,-50.1L100.7,-44.8L102.5,-39.3L103.3,-33.6L102.4,-27.4L99.7,-21.2L95.6,-15.1L91.1,-9.6L87.6,-4.6L86.3,-0.0Z" fill="none" stroke="#fac0da" stroke-width="5.1" stroke-linecap="round" opacity="0.15" filter="url(#tg)"/><path d="M86.3,0.0L87.6,4.6L91.1,9.6L95.6,15.1L99.7,21.2L102.4,27.4L103.3,33.6L102.5,39.3L100.7,44.8L98.2,50.1L95.5,55.1L92.5,60.0L89.2,64.8L86.0,69.7L83.2,74.9L81.0,81.0L79.3,88.1L77.8,96.1L75.8,104.3L72.3,111.3L67.1,116.2L60.3,118.3L52.4,117.7L44.3,115.5L36.6,112.7L29.6,110.6L23.3,109.5L17.3,109.3L11.5,109.7L5.8,110.1L0.0,110.3L-5.8,110.1L-11.5,109.6L-17.2,108.4L-22.6,106.2L-27.4,102.4L-31.5,97.0L-34.7,90.4L-37.3,83.7L-39.8,78.2L-43.2,74.7L-47.8,73.6L-53.9,74.1L-60.9,75.2L-68.2,75.8L-75.0,75.0L-80.7,72.6L-85.3,69.1L-89.1,64.8L-92.5,60.0L-95.5,55.1L-98.2,50.1L-100.8,44.9L-103.4,39.7L-106.5,34.6L-110.6,29.6L-116.0,24.6L-122.2,19.4L-128.2,13.5L-132.6,6.9L-134.2,0.0L-132.6,-6.9L-128.2,-13.5L-122.2,-19.4L-116.0,-24.6L-110.6,-29.6L-106.5,-34.6L-103.4,-39.7L-100.8,-44.9L-98.2,-50.1L-95.5,-55.1L-92.5,-60.0L-89.1,-64.8L-85.3,-69.1L-80.7,-72.6L-75.0,-75.0L-68.2,-75.8L-60.9,-75.2L-53.9,-74.1L-47.8,-73.6L-43.2,-74.7L-39.8,-78.2L-37.3,-83.7L-34.7,-90.4L-31.5,-97.0L-27.4,-102.4L-22.6,-106.2L-17.2,-108.4L-11.5,-109.6L-5.8,-110.1L-0.0,-110.3L5.8,-110.1L11.5,-109.7L17.3,-109.3L23.3,-109.5L29.6,-110.6L36.6,-112.7L44.3,-115.5L52.4,-117.7L60.3,-118.3L67.1,-116.2L72.3,-111.3L75.8,-104.3L77.8,-96.1L79.3,-88.1L81.0,-81.0L83.2,-74.9L86.0,-69.7L89.2,-64.8L92.5,-60.0L95.5,-55.1L98.2,-50.1L100.7,-44.8L102.5,-39.3L103.3,-33.6L102.4,-27.4L99.7,-21.2L95.6,-15.1L91.1,-9.6L87.6,-4.6L86.3,-0.0Z" fill="none" stroke="#fac0da" stroke-width="1.7" stroke-linecap="round" opacity="0.95"/><path d="M134.2,0.0L132.6,6.9L128.2,13.5L122.2,19.4L116.0,24.6L110.6,29.6L106.5,34.6L103.4,39.7L100.8,44.9L98.2,50.1L95.5,55.1L92.5,60.0L89.1,64.8L85.3,69.1L80.7,72.6L75.0,75.0L68.2,75.8L60.9,75.2L53.9,74.1L47.8,73.6L43.2,74.7L39.8,78.2L37.3,83.7L34.7,90.4L31.5,97.0L27.4,102.4L22.6,106.2L17.2,108.4L11.5,109.6L5.8,110.1L0.0,110.3L-5.8,110.1L-11.5,109.7L-17.3,109.3L-23.3,109.5L-29.6,110.6L-36.6,112.7L-44.3,115.5L-52.4,117.7L-60.3,118.3L-67.1,116.2L-72.3,111.3L-75.8,104.3L-77.8,96.1L-79.3,88.1L-81.0,81.0L-83.2,74.9L-86.0,69.7L-89.2,64.8L-92.5,60.0L-95.5,55.1L-98.2,50.1L-100.7,44.8L-102.5,39.3L-103.3,33.6L-102.4,27.4L-99.7,21.2L-95.6,15.1L-91.1,9.6L-87.6,4.6L-86.3,0.0L-87.6,-4.6L-91.1,-9.6L-95.6,-15.1L-99.7,-21.2L-102.4,-27.4L-103.3,-33.6L-102.5,-39.3L-100.7,-44.8L-98.2,-50.1L-95.5,-55.1L-92.5,-60.0L-89.2,-64.8L-86.0,-69.7L-83.2,-74.9L-81.0,-81.0L-79.3,-88.1L-77.8,-96.1L-75.8,-104.3L-72.3,-111.3L-67.1,-116.2L-60.3,-118.3L-52.4,-117.7L-44.3,-115.5L-36.6,-112.7L-29.6,-110.6L-23.3,-109.5L-17.3,-109.3L-11.5,-109.7L-5.8,-110.1L-0.0,-110.3L5.8,-110.1L11.5,-109.6L17.2,-108.4L22.6,-106.2L27.4,-102.4L31.5,-97.0L34.7,-90.4L37.3,-83.7L39.8,-78.2L43.2,-74.7L47.8,-73.6L53.9,-74.1L60.9,-75.2L68.2,-75.8L75.0,-75.0L80.7,-72.6L85.3,-69.1L89.1,-64.8L92.5,-60.0L95.5,-55.1L98.2,-50.1L100.8,-44.9L103.4,-39.7L106.5,-34.6L110.6,-29.6L116.0,-24.6L122.2,-19.4L128.2,-13.5L132.6,-6.9L134.2,-0.0Z" fill="none" stroke="#e1fcf6" stroke-width="5.1" stroke-linecap="round" opacity="0.15" filter="url(#tg)"/><path d="M134.2,0.0L132.6,6.9L128.2,13.5L122.2,19.4L116.0,24.6L110.6,29.6L106.5,34.6L103.4,39.7L100.8,44.9L98.2,50.1L95.5,55.1L92.5,60.0L89.1,64.8L85.3,69.1L80.7,72.6L75.0,75.0L68.2,75.8L60.9,75.2L53.9,74.1L47.8,73.6L43.2,74.7L39.8,78.2L37.3,83.7L34.7,90.4L31.5,97.0L27.4,102.4L22.6,106.2L17.2,108.4L11.5,109.6L5.8,110.1L0.0,110.3L-5.8,110.1L-11.5,109.7L-17.3,109.3L-23.3,109.5L-29.6,110.6L-36.6,112.7L-44.3,115.5L-52.4,117.7L-60.3,118.3L-67.1,116.2L-72.3,111.3L-75.8,104.3L-77.8,96.1L-79.3,88.1L-81.0,81.0L-83.2,74.9L-86.0,69.7L-89.2,64.8L-92.5,60.0L-95.5,55.1L-98.2,50.1L-100.7,44.8L-102.5,39.3L-103.3,33.6L-102.4,27.4L-99.7,21.2L-95.6,15.1L-91.1,9.6L-87.6,4.6L-86.3,0.0L-87.6,-4.6L-91.1,-9.6L-95.6,-15.1L-99.7,-21.2L-102.4,-27.4L-103.3,-33.6L-102.5,-39.3L-100.7,-44.8L-98.2,-50.1L-95.5,-55.1L-92.5,-60.0L-89.2,-64.8L-86.0,-69.7L-83.2,-74.9L-81.0,-81.0L-79.3,-88.1L-77.8,-96.1L-75.8,-104.3L-72.3,-111.3L-67.1,-116.2L-60.3,-118.3L-52.4,-117.7L-44.3,-115.5L-36.6,-112.7L-29.6,-110.6L-23.3,-109.5L-17.3,-109.3L-11.5,-109.7L-5.8,-110.1L-0.0,-110.3L5.8,-110.1L11.5,-109.6L17.2,-108.4L22.6,-106.2L27.4,-102.4L31.5,-97.0L34.7,-90.4L37.3,-83.7L39.8,-78.2L43.2,-74.7L47.8,-73.6L53.9,-74.1L60.9,-75.2L68.2,-75.8L75.0,-75.0L80.7,-72.6L85.3,-69.1L89.1,-64.8L92.5,-60.0L95.5,-55.1L98.2,-50.1L100.8,-44.9L103.4,-39.7L106.5,-34.6L110.6,-29.6L116.0,-24.6L122.2,-19.4L128.2,-13.5L132.6,-6.9L134.2,-0.0Z" fill="none" stroke="#e1fcf6" stroke-width="1.7" stroke-linecap="round" opacity="0.95"/><path d="M86.3,0.0L87.6,4.6L91.1,9.6L95.6,15.1L99.7,21.2L102.4,27.4L103.3,33.6L102.5,39.3L100.7,44.8L98.2,50.1L95.5,55.1L92.5,60.0L89.2,64.8L86.0,69.7L83.2,74.9L81.0,81.0L79.3,88.1L77.8,96.1L75.8,104.3L72.3,111.3L67.1,116.2L60.3,118.3L52.4,117.7L44.3,115.5L36.6,112.7L29.6,110.6L23.3,109.5L17.3,109.3L11.5,109.7L5.8,110.1L0.0,110.3L-5.8,110.1L-11.5,109.6L-17.2,108.4L-22.6,106.2L-27.4,102.4L-31.5,97.0L-34.7,90.4L-37.3,83.7L-39.8,78.2L-43.2,74.7L-47.8,73.6L-53.9,74.1L-60.9,75.2L-68.2,75.8L-75.0,75.0L-80.7,72.6L-85.3,69.1L-89.1,64.8L-92.5,60.0L-95.5,55.1L-98.2,50.1L-100.8,44.9L-103.4,39.7L-106.5,34.6L-110.6,29.6L-116.0,24.6L-122.2,19.4L-128.2,13.5L-132.6,6.9L-134.2,0.0L-132.6,-6.9L-128.2,-13.5L-122.2,-19.4L-116.0,-24.6L-110.6,-29.6L-106.5,-34.6L-103.4,-39.7L-100.8,-44.9L-98.2,-50.1L-95.5,-55.1L-92.5,-60.0L-89.1,-64.8L-85.3,-69.1L-80.7,-72.6L-75.0,-75.0L-68.2,-75.8L-60.9,-75.2L-53.9,-74.1L-47.8,-73.6L-43.2,-74.7L-39.8,-78.2L-37.3,-83.7L-34.7,-90.4L-31.5,-97.0L-27.4,-102.4L-22.6,-106.2L-17.2,-108.4L-11.5,-109.6L-5.8,-110.1L-0.0,-110.3L5.8,-110.1L11.5,-109.7L17.3,-109.3L23.3,-109.5L29.6,-110.6L36.6,-112.7L44.3,-115.5L52.4,-117.7L60.3,-118.3L67.1,-116.2L72.3,-111.3L75.8,-104.3L77.8,-96.1L79.3,-88.1L81.0,-81.0L83.2,-74.9L86.0,-69.7L89.2,-64.8L92.5,-60.0L95.5,-55.1L98.2,-50.1L100.7,-44.8L102.5,-39.3L103.3,-33.6L102.4,-27.4L99.7,-21.2L95.6,-15.1L91.1,-9.6L87.6,-4.6L86.3,-0.0Z" fill="none" stroke="#fac0da" stroke-width="5.1" stroke-linecap="round" opacity="0.15" filter="url(#tg)"/><path d="M86.3,0.0L87.6,4.6L91.1,9.6L95.6,15.1L99.7,21.2L102.4,27.4L103.3,33.6L102.5,39.3L100.7,44.8L98.2,50.1L95.5,55.1L92.5,60.0L89.2,64.8L86.0,69.7L83.2,74.9L81.0,81.0L79.3,88.1L77.8,96.1L75.8,104.3L72.3,111.3L67.1,116.2L60.3,118.3L52.4,117.7L44.3,115.5L36.6,112.7L29.6,110.6L23.3,109.5L17.3,109.3L11.5,109.7L5.8,110.1L0.0,110.3L-5.8,110.1L-11.5,109.6L-17.2,108.4L-22.6,106.2L-27.4,102.4L-31.5,97.0L-34.7,90.4L-37.3,83.7L-39.8,78.2L-43.2,74.7L-47.8,73.6L-53.9,74.1L-60.9,75.2L-68.2,75.8L-75.0,75.0L-80.7,72.6L-85.3,69.1L-89.1,64.8L-92.5,60.0L-95.5,55.1L-98.2,50.1L-100.8,44.9L-103.4,39.7L-106.5,34.6L-110.6,29.6L-116.0,24.6L-122.2,19.4L-128.2,13.5L-132.6,6.9L-134.2,0.0L-132.6,-6.9L-128.2,-13.5L-122.2,-19.4L-116.0,-24.6L-110.6,-29.6L-106.5,-34.6L-103.4,-39.7L-100.8,-44.9L-98.2,-50.1L-95.5,-55.1L-92.5,-60.0L-89.1,-64.8L-85.3,-69.1L-80.7,-72.6L-75.0,-75.0L-68.2,-75.8L-60.9,-75.2L-53.9,-74.1L-47.8,-73.6L-43.2,-74.7L-39.8,-78.2L-37.3,-83.7L-34.7,-90.4L-31.5,-97.0L-27.4,-102.4L-22.6,-106.2L-17.2,-108.4L-11.5,-109.6L-5.8,-110.1L-0.0,-110.3L5.8,-110.1L11.5,-109.7L17.3,-109.3L23.3,-109.5L29.6,-110.6L36.6,-112.7L44.3,-115.5L52.4,-117.7L60.3,-118.3L67.1,-116.2L72.3,-111.3L75.8,-104.3L77.8,-96.1L79.3,-88.1L81.0,-81.0L83.2,-74.9L86.0,-69.7L89.2,-64.8L92.5,-60.0L95.5,-55.1L98.2,-50.1L100.7,-44.8L102.5,-39.3L103.3,-33.6L102.4,-27.4L99.7,-21.2L95.6,-15.1L91.1,-9.6L87.6,-4.6L86.3,-0.0Z" fill="none" stroke="#fac0da" stroke-width="1.7" stroke-linecap="round" opacity="0.95"/><path d="M134.2,0.0L132.6,6.9L128.2,13.5L122.2,19.4L116.0,24.6L110.6,29.6L106.5,34.6L103.4,39.7L100.8,44.9L98.2,50.1L95.5,55.1L92.5,60.0L89.1,64.8L85.3,69.1L80.7,72.6L75.0,75.0L68.2,75.8L60.9,75.2L53.9,74.1L47.8,73.6L43.2,74.7L39.8,78.2L37.3,83.7L34.7,90.4L31.5,97.0L27.4,102.4L22.6,106.2L17.2,108.4L11.5,109.6L5.8,110.1L0.0,110.3L-5.8,110.1L-11.5,109.7L-17.3,109.3L-23.3,109.5L-29.6,110.6L-36.6,112.7L-44.3,115.5L-52.4,117.7L-60.3,118.3L-67.1,116.2L-72.3,111.3L-75.8,104.3L-77.8,96.1L-79.3,88.1L-81.0,81.0L-83.2,74.9L-86.0,69.7L-89.2,64.8L-92.5,60.0L-95.5,55.1L-98.2,50.1L-100.7,44.8L-102.5,39.3L-103.3,33.6L-102.4,27.4L-99.7,21.2L-95.6,15.1L-91.1,9.6L-87.6,4.6L-86.3,0.0L-87.6,-4.6L-91.1,-9.6L-95.6,-15.1L-99.7,-21.2L-102.4,-27.4L-103.3,-33.6L-102.5,-39.3L-100.7,-44.8L-98.2,-50.1L-95.5,-55.1L-92.5,-60.0L-89.2,-64.8L-86.0,-69.7L-83.2,-74.9L-81.0,-81.0L-79.3,-88.1L-77.8,-96.1L-75.8,-104.3L-72.3,-111.3L-67.1,-116.2L-60.3,-118.3L-52.4,-117.7L-44.3,-115.5L-36.6,-112.7L-29.6,-110.6L-23.3,-109.5L-17.3,-109.3L-11.5,-109.7L-5.8,-110.1L-0.0,-110.3L5.8,-110.1L11.5,-109.6L17.2,-108.4L22.6,-106.2L27.4,-102.4L31.5,-97.0L34.7,-90.4L37.3,-83.7L39.8,-78.2L43.2,-74.7L47.8,-73.6L53.9,-74.1L60.9,-75.2L68.2,-75.8L75.0,-75.0L80.7,-72.6L85.3,-69.1L89.1,-64.8L92.5,-60.0L95.5,-55.1L98.2,-50.1L100.8,-44.9L103.4,-39.7L106.5,-34.6L110.6,-29.6L116.0,-24.6L122.2,-19.4L128.2,-13.5L132.6,-6.9L134.2,-0.0Z" fill="none" stroke="#e1fcf6" stroke-width="5.1" stroke-linecap="round" opacity="0.15" filter="url(#tg)"/><path d="M134.2,0.0L132.6,6.9L128.2,13.5L122.2,19.4L116.0,24.6L110.6,29.6L106.5,34.6L103.4,39.7L100.8,44.9L98.2,50.1L95.5,55.1L92.5,60.0L89.1,64.8L85.3,69.1L80.7,72.6L75.0,75.0L68.2,75.8L60.9,75.2L53.9,74.1L47.8,73.6L43.2,74.7L39.8,78.2L37.3,83.7L34.7,90.4L31.5,97.0L27.4,102.4L22.6,106.2L17.2,108.4L11.5,109.6L5.8,110.1L0.0,110.3L-5.8,110.1L-11.5,109.7L-17.3,109.3L-23.3,109.5L-29.6,110.6L-36.6,112.7L-44.3,115.5L-52.4,117.7L-60.3,118.3L-67.1,116.2L-72.3,111.3L-75.8,104.3L-77.8,96.1L-79.3,88.1L-81.0,81.0L-83.2,74.9L-86.0,69.7L-89.2,64.8L-92.5,60.0L-95.5,55.1L-98.2,50.1L-100.7,44.8L-102.5,39.3L-103.3,33.6L-102.4,27.4L-99.7,21.2L-95.6,15.1L-91.1,9.6L-87.6,4.6L-86.3,0.0L-87.6,-4.6L-91.1,-9.6L-95.6,-15.1L-99.7,-21.2L-102.4,-27.4L-103.3,-33.6L-102.5,-39.3L-100.7,-44.8L-98.2,-50.1L-95.5,-55.1L-92.5,-60.0L-89.2,-64.8L-86.0,-69.7L-83.2,-74.9L-81.0,-81.0L-79.3,-88.1L-77.8,-96.1L-75.8,-104.3L-72.3,-111.3L-67.1,-116.2L-60.3,-118.3L-52.4,-117.7L-44.3,-115.5L-36.6,-112.7L-29.6,-110.6L-23.3,-109.5L-17.3,-109.3L-11.5,-109.7L-5.8,-110.1L-0.0,-110.3L5.8,-110.1L11.5,-109.6L17.2,-108.4L22.6,-106.2L27.4,-102.4L31.5,-97.0L34.7,-90.4L37.3,-83.7L39.8,-78.2L43.2,-74.7L47.8,-73.6L53.9,-74.1L60.9,-75.2L68.2,-75.8L75.0,-75.0L80.7,-72.6L85.3,-69.1L89.1,-64.8L92.5,-60.0L95.5,-55.1L98.2,-50.1L100.8,-44.9L103.4,-39.7L106.5,-34.6L110.6,-29.6L116.0,-24.6L122.2,-19.4L128.2,-13.5L132.6,-6.9L134.2,-0.0Z" fill="none" stroke="#e1fcf6" stroke-width="1.7" stroke-linecap="round" opacity="0.95"/><path d="M86.3,0.0L87.6,4.6L91.1,9.6L95.6,15.1L99.7,21.2L102.4,27.4L103.3,33.6L102.5,39.3L100.7,44.8L98.2,50.1L95.5,55.1L92.5,60.0L89.2,64.8L86.0,69.7L83.2,74.9L81.0,81.0L79.3,88.1L77.8,96.1L75.8,104.3L72.3,111.3L67.1,116.2L60.3,118.3L52.4,117.7L44.3,115.5L36.6,112.7L29.6,110.6L23.3,109.5L17.3,109.3L11.5,109.7L5.8,110.1L0.0,110.3L-5.8,110.1L-11.5,109.6L-17.2,108.4L-22.6,106.2L-27.4,102.4L-31.5,97.0L-34.7,90.4L-37.3,83.7L-39.8,78.2L-43.2,74.7L-47.8,73.6L-53.9,74.1L-60.9,75.2L-68.2,75.8L-75.0,75.0L-80.7,72.6L-85.3,69.1L-89.1,64.8L-92.5,60.0L-95.5,55.1L-98.2,50.1L-100.8,44.9L-103.4,39.7L-106.5,34.6L-110.6,29.6L-116.0,24.6L-122.2,19.4L-128.2,13.5L-132.6,6.9L-134.2,0.0L-132.6,-6.9L-128.2,-13.5L-122.2,-19.4L-116.0,-24.6L-110.6,-29.6L-106.5,-34.6L-103.4,-39.7L-100.8,-44.9L-98.2,-50.1L-95.5,-55.1L-92.5,-60.0L-89.1,-64.8L-85.3,-69.1L-80.7,-72.6L-75.0,-75.0L-68.2,-75.8L-60.9,-75.2L-53.9,-74.1L-47.8,-73.6L-43.2,-74.7L-39.8,-78.2L-37.3,-83.7L-34.7,-90.4L-31.5,-97.0L-27.4,-102.4L-22.6,-106.2L-17.2,-108.4L-11.5,-109.6L-5.8,-110.1L-0.0,-110.3L5.8,-110.1L11.5,-109.7L17.3,-109.3L23.3,-109.5L29.6,-110.6L36.6,-112.7L44.3,-115.5L52.4,-117.7L60.3,-118.3L67.1,-116.2L72.3,-111.3L75.8,-104.3L77.8,-96.1L79.3,-88.1L81.0,-81.0L83.2,-74.9L86.0,-69.7L89.2,-64.8L92.5,-60.0L95.5,-55.1L98.2,-50.1L100.7,-44.8L102.5,-39.3L103.3,-33.6L102.4,-27.4L99.7,-21.2L95.6,-15.1L91.1,-9.6L87.6,-4.6L86.3,-0.0Z" fill="none" stroke="#fac0da" stroke-width="5.1" stroke-linecap="round" opacity="0.15" filter="url(#tg)"/><path d="M86.3,0.0L87.6,4.6L91.1,9.6L95.6,15.1L99.7,21.2L102.4,27.4L103.3,33.6L102.5,39.3L100.7,44.8L98.2,50.1L95.5,55.1L92.5,60.0L89.2,64.8L86.0,69.7L83.2,74.9L81.0,81.0L79.3,88.1L77.8,96.1L75.8,104.3L72.3,111.3L67.1,116.2L60.3,118.3L52.4,117.7L44.3,115.5L36.6,112.7L29.6,110.6L23.3,109.5L17.3,109.3L11.5,109.7L5.8,110.1L0.0,110.3L-5.8,110.1L-11.5,109.6L-17.2,108.4L-22.6,106.2L-27.4,102.4L-31.5,97.0L-34.7,90.4L-37.3,83.7L-39.8,78.2L-43.2,74.7L-47.8,73.6L-53.9,74.1L-60.9,75.2L-68.2,75.8L-75.0,75.0L-80.7,72.6L-85.3,69.1L-89.1,64.8L-92.5,60.0L-95.5,55.1L-98.2,50.1L-100.8,44.9L-103.4,39.7L-106.5,34.6L-110.6,29.6L-116.0,24.6L-122.2,19.4L-128.2,13.5L-132.6,6.9L-134.2,0.0L-132.6,-6.9L-128.2,-13.5L-122.2,-19.4L-116.0,-24.6L-110.6,-29.6L-106.5,-34.6L-103.4,-39.7L-100.8,-44.9L-98.2,-50.1L-95.5,-55.1L-92.5,-60.0L-89.1,-64.8L-85.3,-69.1L-80.7,-72.6L-75.0,-75.0L-68.2,-75.8L-60.9,-75.2L-53.9,-74.1L-47.8,-73.6L-43.2,-74.7L-39.8,-78.2L-37.3,-83.7L-34.7,-90.4L-31.5,-97.0L-27.4,-102.4L-22.6,-106.2L-17.2,-108.4L-11.5,-109.6L-5.8,-110.1L-0.0,-110.3L5.8,-110.1L11.5,-109.7L17.3,-109.3L23.3,-109.5L29.6,-110.6L36.6,-112.7L44.3,-115.5L52.4,-117.7L60.3,-118.3L67.1,-116.2L72.3,-111.3L75.8,-104.3L77.8,-96.1L79.3,-88.1L81.0,-81.0L83.2,-74.9L86.0,-69.7L89.2,-64.8L92.5,-60.0L95.5,-55.1L98.2,-50.1L100.7,-44.8L102.5,-39.3L103.3,-33.6L102.4,-27.4L99.7,-21.2L95.6,-15.1L91.1,-9.6L87.6,-4.6L86.3,-0.0Z" fill="none" stroke="#fac0da" stroke-width="1.7" stroke-linecap="round" opacity="0.95"/><path d="M134.2,0.0L132.6,6.9L128.2,13.5L122.2,19.4L116.0,24.6L110.6,29.6L106.5,34.6L103.4,39.7L100.8,44.9L98.2,50.1L95.5,55.1L92.5,60.0L89.1,64.8L85.3,69.1L80.7,72.6L75.0,75.0L68.2,75.8L60.9,75.2L53.9,74.1L47.8,73.6L43.2,74.7L39.8,78.2L37.3,83.7L34.7,90.4L31.5,97.0L27.4,102.4L22.6,106.2L17.2,108.4L11.5,109.6L5.8,110.1L0.0,110.3L-5.8,110.1L-11.5,109.7L-17.3,109.3L-23.3,109.5L-29.6,110.6L-36.6,112.7L-44.3,115.5L-52.4,117.7L-60.3,118.3L-67.1,116.2L-72.3,111.3L-75.8,104.3L-77.8,96.1L-79.3,88.1L-81.0,81.0L-83.2,74.9L-86.0,69.7L-89.2,64.8L-92.5,60.0L-95.5,55.1L-98.2,50.1L-100.7,44.8L-102.5,39.3L-103.3,33.6L-102.4,27.4L-99.7,21.2L-95.6,15.1L-91.1,9.6L-87.6,4.6L-86.3,0.0L-87.6,-4.6L-91.1,-9.6L-95.6,-15.1L-99.7,-21.2L-102.4,-27.4L-103.3,-33.6L-102.5,-39.3L-100.7,-44.8L-98.2,-50.1L-95.5,-55.1L-92.5,-60.0L-89.2,-64.8L-86.0,-69.7L-83.2,-74.9L-81.0,-81.0L-79.3,-88.1L-77.8,-96.1L-75.8,-104.3L-72.3,-111.3L-67.1,-116.2L-60.3,-118.3L-52.4,-117.7L-44.3,-115.5L-36.6,-112.7L-29.6,-110.6L-23.3,-109.5L-17.3,-109.3L-11.5,-109.7L-5.8,-110.1L-0.0,-110.3L5.8,-110.1L11.5,-109.6L17.2,-108.4L22.6,-106.2L27.4,-102.4L31.5,-97.0L34.7,-90.4L37.3,-83.7L39.8,-78.2L43.2,-74.7L47.8,-73.6L53.9,-74.1L60.9,-75.2L68.2,-75.8L75.0,-75.0L80.7,-72.6L85.3,-69.1L89.1,-64.8L92.5,-60.0L95.5,-55.1L98.2,-50.1L100.8,-44.9L103.4,-39.7L106.5,-34.6L110.6,-29.6L116.0,-24.6L122.2,-19.4L128.2,-13.5L132.6,-6.9L134.2,-0.0Z" fill="none" stroke="#e1fcf6" stroke-width="5.1" stroke-linecap="round" opacity="0.15" filter="url(#tg)"/><path d="M134.2,0.0L132.6,6.9L128.2,13.5L122.2,19.4L116.0,24.6L110.6,29.6L106.5,34.6L103.4,39.7L100.8,44.9L98.2,50.1L95.5,55.1L92.5,60.0L89.1,64.8L85.3,69.1L80.7,72.6L75.0,75.0L68.2,75.8L60.9,75.2L53.9,74.1L47.8,73.6L43.2,74.7L39.8,78.2L37.3,83.7L34.7,90.4L31.5,97.0L27.4,102.4L22.6,106.2L17.2,108.4L11.5,109.6L5.8,110.1L0.0,110.3L-5.8,110.1L-11.5,109.7L-17.3,109.3L-23.3,109.5L-29.6,110.6L-36.6,112.7L-44.3,115.5L-52.4,117.7L-60.3,118.3L-67.1,116.2L-72.3,111.3L-75.8,104.3L-77.8,96.1L-79.3,88.1L-81.0,81.0L-83.2,74.9L-86.0,69.7L-89.2,64.8L-92.5,60.0L-95.5,55.1L-98.2,50.1L-100.7,44.8L-102.5,39.3L-103.3,33.6L-102.4,27.4L-99.7,21.2L-95.6,15.1L-91.1,9.6L-87.6,4.6L-86.3,0.0L-87.6,-4.6L-91.1,-9.6L-95.6,-15.1L-99.7,-21.2L-102.4,-27.4L-103.3,-33.6L-102.5,-39.3L-100.7,-44.8L-98.2,-50.1L-95.5,-55.1L-92.5,-60.0L-89.2,-64.8L-86.0,-69.7L-83.2,-74.9L-81.0,-81.0L-79.3,-88.1L-77.8,-96.1L-75.8,-104.3L-72.3,-111.3L-67.1,-116.2L-60.3,-118.3L-52.4,-117.7L-44.3,-115.5L-36.6,-112.7L-29.6,-110.6L-23.3,-109.5L-17.3,-109.3L-11.5,-109.7L-5.8,-110.1L-0.0,-110.3L5.8,-110.1L11.5,-109.6L17.2,-108.4L22.6,-106.2L27.4,-102.4L31.5,-97.0L34.7,-90.4L37.3,-83.7L39.8,-78.2L43.2,-74.7L47.8,-73.6L53.9,-74.1L60.9,-75.2L68.2,-75.8L75.0,-75.0L80.7,-72.6L85.3,-69.1L89.1,-64.8L92.5,-60.0L95.5,-55.1L98.2,-50.1L100.8,-44.9L103.4,-39.7L106.5,-34.6L110.6,-29.6L116.0,-24.6L122.2,-19.4L128.2,-13.5L132.6,-6.9L134.2,-0.0Z" fill="none" stroke="#e1fcf6" stroke-width="1.7" stroke-linecap="round" opacity="0.95"/><path d="M86.3,0.0L87.6,4.6L91.1,9.6L95.6,15.1L99.7,21.2L102.4,27.4L103.3,33.6L102.5,39.3L100.7,44.8L98.2,50.1L95.5,55.1L92.5,60.0L89.2,64.8L86.0,69.7L83.2,74.9L81.0,81.0L79.3,88.1L77.8,96.1L75.8,104.3L72.3,111.3L67.1,116.2L60.3,118.3L52.4,117.7L44.3,115.5L36.6,112.7L29.6,110.6L23.3,109.5L17.3,109.3L11.5,109.7L5.8,110.1L0.0,110.3L-5.8,110.1L-11.5,109.6L-17.2,108.4L-22.6,106.2L-27.4,102.4L-31.5,97.0L-34.7,90.4L-37.3,83.7L-39.8,78.2L-43.2,74.7L-47.8,73.6L-53.9,74.1L-60.9,75.2L-68.2,75.8L-75.0,75.0L-80.7,72.6L-85.3,69.1L-89.1,64.8L-92.5,60.0L-95.5,55.1L-98.2,50.1L-100.8,44.9L-103.4,39.7L-106.5,34.6L-110.6,29.6L-116.0,24.6L-122.2,19.4L-128.2,13.5L-132.6,6.9L-134.2,0.0L-132.6,-6.9L-128.2,-13.5L-122.2,-19.4L-116.0,-24.6L-110.6,-29.6L-106.5,-34.6L-103.4,-39.7L-100.8,-44.9L-98.2,-50.1L-95.5,-55.1L-92.5,-60.0L-89.1,-64.8L-85.3,-69.1L-80.7,-72.6L-75.0,-75.0L-68.2,-75.8L-60.9,-75.2L-53.9,-74.1L-47.8,-73.6L-43.2,-74.7L-39.8,-78.2L-37.3,-83.7L-34.7,-90.4L-31.5,-97.0L-27.4,-102.4L-22.6,-106.2L-17.2,-108.4L-11.5,-109.6L-5.8,-110.1L-0.0,-110.3L5.8,-110.1L11.5,-109.7L17.3,-109.3L23.3,-109.5L29.6,-110.6L36.6,-112.7L44.3,-115.5L52.4,-117.7L60.3,-118.3L67.1,-116.2L72.3,-111.3L75.8,-104.3L77.8,-96.1L79.3,-88.1L81.0,-81.0L83.2,-74.9L86.0,-69.7L89.2,-64.8L92.5,-60.0L95.5,-55.1L98.2,-50.1L100.7,-44.8L102.5,-39.3L103.3,-33.6L102.4,-27.4L99.7,-21.2L95.6,-15.1L91.1,-9.6L87.6,-4.6L86.3,-0.0Z" fill="none" stroke="#fac0da" stroke-width="5.1" stroke-linecap="round" opacity="0.15" filter="url(#tg)"/><path d="M86.3,0.0L87.6,4.6L91.1,9.6L95.6,15.1L99.7,21.2L102.4,27.4L103.3,33.6L102.5,39.3L100.7,44.8L98.2,50.1L95.5,55.1L92.5,60.0L89.2,64.8L86.0,69.7L83.2,74.9L81.0,81.0L79.3,88.1L77.8,96.1L75.8,104.3L72.3,111.3L67.1,116.2L60.3,118.3L52.4,117.7L44.3,115.5L36.6,112.7L29.6,110.6L23.3,109.5L17.3,109.3L11.5,109.7L5.8,110.1L0.0,110.3L-5.8,110.1L-11.5,109.6L-17.2,108.4L-22.6,106.2L-27.4,102.4L-31.5,97.0L-34.7,90.4L-37.3,83.7L-39.8,78.2L-43.2,74.7L-47.8,73.6L-53.9,74.1L-60.9,75.2L-68.2,75.8L-75.0,75.0L-80.7,72.6L-85.3,69.1L-89.1,64.8L-92.5,60.0L-95.5,55.1L-98.2,50.1L-100.8,44.9L-103.4,39.7L-106.5,34.6L-110.6,29.6L-116.0,24.6L-122.2,19.4L-128.2,13.5L-132.6,6.9L-134.2,0.0L-132.6,-6.9L-128.2,-13.5L-122.2,-19.4L-116.0,-24.6L-110.6,-29.6L-106.5,-34.6L-103.4,-39.7L-100.8,-44.9L-98.2,-50.1L-95.5,-55.1L-92.5,-60.0L-89.1,-64.8L-85.3,-69.1L-80.7,-72.6L-75.0,-75.0L-68.2,-75.8L-60.9,-75.2L-53.9,-74.1L-47.8,-73.6L-43.2,-74.7L-39.8,-78.2L-37.3,-83.7L-34.7,-90.4L-31.5,-97.0L-27.4,-102.4L-22.6,-106.2L-17.2,-108.4L-11.5,-109.6L-5.8,-110.1L-0.0,-110.3L5.8,-110.1L11.5,-109.7L17.3,-109.3L23.3,-109.5L29.6,-110.6L36.6,-112.7L44.3,-115.5L52.4,-117.7L60.3,-118.3L67.1,-116.2L72.3,-111.3L75.8,-104.3L77.8,-96.1L79.3,-88.1L81.0,-81.0L83.2,-74.9L86.0,-69.7L89.2,-64.8L92.5,-60.0L95.5,-55.1L98.2,-50.1L100.7,-44.8L102.5,-39.3L103.3,-33.6L102.4,-27.4L99.7,-21.2L95.6,-15.1L91.1,-9.6L87.6,-4.6L86.3,-0.0Z" fill="none" stroke="#fac0da" stroke-width="1.7" stroke-linecap="round" opacity="0.95"/><path d="M134.2,0.0L132.6,6.9L128.2,13.5L122.2,19.4L116.0,24.6L110.6,29.6L106.5,34.6L103.4,39.7L100.8,44.9L98.2,50.1L95.5,55.1L92.5,60.0L89.1,64.8L85.3,69.1L80.7,72.6L75.0,75.0L68.2,75.8L60.9,75.2L53.9,74.1L47.8,73.6L43.2,74.7L39.8,78.2L37.3,83.7L34.7,90.4L31.5,97.0L27.4,102.4L22.6,106.2L17.2,108.4L11.5,109.6L5.8,110.1L0.0,110.3L-5.8,110.1L-11.5,109.7L-17.3,109.3L-23.3,109.5L-29.6,110.6L-36.6,112.7L-44.3,115.5L-52.4,117.7L-60.3,118.3L-67.1,116.2L-72.3,111.3L-75.8,104.3L-77.8,96.1L-79.3,88.1L-81.0,81.0L-83.2,74.9L-86.0,69.7L-89.2,64.8L-92.5,60.0L-95.5,55.1L-98.2,50.1L-100.7,44.8L-102.5,39.3L-103.3,33.6L-102.4,27.4L-99.7,21.2L-95.6,15.1L-91.1,9.6L-87.6,4.6L-86.3,0.0L-87.6,-4.6L-91.1,-9.6L-95.6,-15.1L-99.7,-21.2L-102.4,-27.4L-103.3,-33.6L-102.5,-39.3L-100.7,-44.8L-98.2,-50.1L-95.5,-55.1L-92.5,-60.0L-89.2,-64.8L-86.0,-69.7L-83.2,-74.9L-81.0,-81.0L-79.3,-88.1L-77.8,-96.1L-75.8,-104.3L-72.3,-111.3L-67.1,-116.2L-60.3,-118.3L-52.4,-117.7L-44.3,-115.5L-36.6,-112.7L-29.6,-110.6L-23.3,-109.5L-17.3,-109.3L-11.5,-109.7L-5.8,-110.1L-0.0,-110.3L5.8,-110.1L11.5,-109.6L17.2,-108.4L22.6,-106.2L27.4,-102.4L31.5,-97.0L34.7,-90.4L37.3,-83.7L39.8,-78.2L43.2,-74.7L47.8,-73.6L53.9,-74.1L60.9,-75.2L68.2,-75.8L75.0,-75.0L80.7,-72.6L85.3,-69.1L89.1,-64.8L92.5,-60.0L95.5,-55.1L98.2,-50.1L100.8,-44.9L103.4,-39.7L106.5,-34.6L110.6,-29.6L116.0,-24.6L122.2,-19.4L128.2,-13.5L132.6,-6.9L134.2,-0.0Z" fill="none" stroke="#e1fcf6" stroke-width="5.1" stroke-linecap="round" opacity="0.15" filter="url(#tg)"/><path d="M134.2,0.0L132.6,6.9L128.2,13.5L122.2,19.4L116.0,24.6L110.6,29.6L106.5,34.6L103.4,39.7L100.8,44.9L98.2,50.1L95.5,55.1L92.5,60.0L89.1,64.8L85.3,69.1L80.7,72.6L75.0,75.0L68.2,75.8L60.9,75.2L53.9,74.1L47.8,73.6L43.2,74.7L39.8,78.2L37.3,83.7L34.7,90.4L31.5,97.0L27.4,102.4L22.6,106.2L17.2,108.4L11.5,109.6L5.8,110.1L0.0,110.3L-5.8,110.1L-11.5,109.7L-17.3,109.3L-23.3,109.5L-29.6,110.6L-36.6,112.7L-44.3,115.5L-52.4,117.7L-60.3,118.3L-67.1,116.2L-72.3,111.3L-75.8,104.3L-77.8,96.1L-79.3,88.1L-81.0,81.0L-83.2,74.9L-86.0,69.7L-89.2,64.8L-92.5,60.0L-95.5,55.1L-98.2,50.1L-100.7,44.8L-102.5,39.3L-103.3,33.6L-102.4,27.4L-99.7,21.2L-95.6,15.1L-91.1,9.6L-87.6,4.6L-86.3,0.0L-87.6,-4.6L-91.1,-9.6L-95.6,-15.1L-99.7,-21.2L-102.4,-27.4L-103.3,-33.6L-102.5,-39.3L-100.7,-44.8L-98.2,-50.1L-95.5,-55.1L-92.5,-60.0L-89.2,-64.8L-86.0,-69.7L-83.2,-74.9L-81.0,-81.0L-79.3,-88.1L-77.8,-96.1L-75.8,-104.3L-72.3,-111.3L-67.1,-116.2L-60.3,-118.3L-52.4,-117.7L-44.3,-115.5L-36.6,-112.7L-29.6,-110.6L-23.3,-109.5L-17.3,-109.3L-11.5,-109.7L-5.8,-110.1L-0.0,-110.3L5.8,-110.1L11.5,-109.6L17.2,-108.4L22.6,-106.2L27.4,-102.4L31.5,-97.0L34.7,-90.4L37.3,-83.7L39.8,-78.2L43.2,-74.7L47.8,-73.6L53.9,-74.1L60.9,-75.2L68.2,-75.8L75.0,-75.0L80.7,-72.6L85.3,-69.1L89.1,-64.8L92.5,-60.0L95.5,-55.1L98.2,-50.1L100.8,-44.9L103.4,-39.7L106.5,-34.6L110.6,-29.6L116.0,-24.6L122.2,-19.4L128.2,-13.5L132.6,-6.9L134.2,-0.0Z" fill="none" stroke="#e1fcf6" stroke-width="1.7" stroke-linecap="round" opacity="0.95"/><path d="M86.3,0.0L87.6,4.6L91.1,9.6L95.6,15.1L99.7,21.2L102.4,27.4L103.3,33.6L102.5,39.3L100.7,44.8L98.2,50.1L95.5,55.1L92.5,60.0L89.2,64.8L86.0,69.7L83.2,74.9L81.0,81.0L79.3,88.1L77.8,96.1L75.8,104.3L72.3,111.3L67.1,116.2L60.3,118.3L52.4,117.7L44.3,115.5L36.6,112.7L29.6,110.6L23.3,109.5L17.3,109.3L11.5,109.7L5.8,110.1L0.0,110.3L-5.8,110.1L-11.5,109.6L-17.2,108.4L-22.6,106.2L-27.4,102.4L-31.5,97.0L-34.7,90.4L-37.3,83.7L-39.8,78.2L-43.2,74.7L-47.8,73.6L-53.9,74.1L-60.9,75.2L-68.2,75.8L-75.0,75.0L-80.7,72.6L-85.3,69.1L-89.1,64.8L-92.5,60.0L-95.5,55.1L-98.2,50.1L-100.8,44.9L-103.4,39.7L-106.5,34.6L-110.6,29.6L-116.0,24.6L-122.2,19.4L-128.2,13.5L-132.6,6.9L-134.2,0.0L-132.6,-6.9L-128.2,-13.5L-122.2,-19.4L-116.0,-24.6L-110.6,-29.6L-106.5,-34.6L-103.4,-39.7L-100.8,-44.9L-98.2,-50.1L-95.5,-55.1L-92.5,-60.0L-89.1,-64.8L-85.3,-69.1L-80.7,-72.6L-75.0,-75.0L-68.2,-75.8L-60.9,-75.2L-53.9,-74.1L-47.8,-73.6L-43.2,-74.7L-39.8,-78.2L-37.3,-83.7L-34.7,-90.4L-31.5,-97.0L-27.4,-102.4L-22.6,-106.2L-17.2,-108.4L-11.5,-109.6L-5.8,-110.1L-0.0,-110.3L5.8,-110.1L11.5,-109.7L17.3,-109.3L23.3,-109.5L29.6,-110.6L36.6,-112.7L44.3,-115.5L52.4,-117.7L60.3,-118.3L67.1,-116.2L72.3,-111.3L75.8,-104.3L77.8,-96.1L79.3,-88.1L81.0,-81.0L83.2,-74.9L86.0,-69.7L89.2,-64.8L92.5,-60.0L95.5,-55.1L98.2,-50.1L100.7,-44.8L102.5,-39.3L103.3,-33.6L102.4,-27.4L99.7,-21.2L95.6,-15.1L91.1,-9.6L87.6,-4.6L86.3,-0.0Z" fill="none" stroke="#fac0da" stroke-width="5.1" stroke-linecap="round" opacity="0.15" filter="url(#tg)"/><path d="M86.3,0.0L87.6,4.6L91.1,9.6L95.6,15.1L99.7,21.2L102.4,27.4L103.3,33.6L102.5,39.3L100.7,44.8L98.2,50.1L95.5,55.1L92.5,60.0L89.2,64.8L86.0,69.7L83.2,74.9L81.0,81.0L79.3,88.1L77.8,96.1L75.8,104.3L72.3,111.3L67.1,116.2L60.3,118.3L52.4,117.7L44.3,115.5L36.6,112.7L29.6,110.6L23.3,109.5L17.3,109.3L11.5,109.7L5.8,110.1L0.0,110.3L-5.8,110.1L-11.5,109.6L-17.2,108.4L-22.6,106.2L-27.4,102.4L-31.5,97.0L-34.7,90.4L-37.3,83.7L-39.8,78.2L-43.2,74.7L-47.8,73.6L-53.9,74.1L-60.9,75.2L-68.2,75.8L-75.0,75.0L-80.7,72.6L-85.3,69.1L-89.1,64.8L-92.5,60.0L-95.5,55.1L-98.2,50.1L-100.8,44.9L-103.4,39.7L-106.5,34.6L-110.6,29.6L-116.0,24.6L-122.2,19.4L-128.2,13.5L-132.6,6.9L-134.2,0.0L-132.6,-6.9L-128.2,-13.5L-122.2,-19.4L-116.0,-24.6L-110.6,-29.6L-106.5,-34.6L-103.4,-39.7L-100.8,-44.9L-98.2,-50.1L-95.5,-55.1L-92.5,-60.0L-89.1,-64.8L-85.3,-69.1L-80.7,-72.6L-75.0,-75.0L-68.2,-75.8L-60.9,-75.2L-53.9,-74.1L-47.8,-73.6L-43.2,-74.7L-39.8,-78.2L-37.3,-83.7L-34.7,-90.4L-31.5,-97.0L-27.4,-102.4L-22.6,-106.2L-17.2,-108.4L-11.5,-109.6L-5.8,-110.1L-0.0,-110.3L5.8,-110.1L11.5,-109.7L17.3,-109.3L23.3,-109.5L29.6,-110.6L36.6,-112.7L44.3,-115.5L52.4,-117.7L60.3,-118.3L67.1,-116.2L72.3,-111.3L75.8,-104.3L77.8,-96.1L79.3,-88.1L81.0,-81.0L83.2,-74.9L86.0,-69.7L89.2,-64.8L92.5,-60.0L95.5,-55.1L98.2,-50.1L100.7,-44.8L102.5,-39.3L103.3,-33.6L102.4,-27.4L99.7,-21.2L95.6,-15.1L91.1,-9.6L87.6,-4.6L86.3,-0.0Z" fill="none" stroke="#fac0da" stroke-width="1.7" stroke-linecap="round" opacity="0.95"/><path d="M134.2,0.0L132.6,6.9L128.2,13.5L122.2,19.4L116.0,24.6L110.6,29.6L106.5,34.6L103.4,39.7L100.8,44.9L98.2,50.1L95.5,55.1L92.5,60.0L89.1,64.8L85.3,69.1L80.7,72.6L75.0,75.0L68.2,75.8L60.9,75.2L53.9,74.1L47.8,73.6L43.2,74.7L39.8,78.2L37.3,83.7L34.7,90.4L31.5,97.0L27.4,102.4L22.6,106.2L17.2,108.4L11.5,109.6L5.8,110.1L0.0,110.3L-5.8,110.1L-11.5,109.7L-17.3,109.3L-23.3,109.5L-29.6,110.6L-36.6,112.7L-44.3,115.5L-52.4,117.7L-60.3,118.3L-67.1,116.2L-72.3,111.3L-75.8,104.3L-77.8,96.1L-79.3,88.1L-81.0,81.0L-83.2,74.9L-86.0,69.7L-89.2,64.8L-92.5,60.0L-95.5,55.1L-98.2,50.1L-100.7,44.8L-102.5,39.3L-103.3,33.6L-102.4,27.4L-99.7,21.2L-95.6,15.1L-91.1,9.6L-87.6,4.6L-86.3,0.0L-87.6,-4.6L-91.1,-9.6L-95.6,-15.1L-99.7,-21.2L-102.4,-27.4L-103.3,-33.6L-102.5,-39.3L-100.7,-44.8L-98.2,-50.1L-95.5,-55.1L-92.5,-60.0L-89.2,-64.8L-86.0,-69.7L-83.2,-74.9L-81.0,-81.0L-79.3,-88.1L-77.8,-96.1L-75.8,-104.3L-72.3,-111.3L-67.1,-116.2L-60.3,-118.3L-52.4,-117.7L-44.3,-115.5L-36.6,-112.7L-29.6,-110.6L-23.3,-109.5L-17.3,-109.3L-11.5,-109.7L-5.8,-110.1L-0.0,-110.3L5.8,-110.1L11.5,-109.6L17.2,-108.4L22.6,-106.2L27.4,-102.4L31.5,-97.0L34.7,-90.4L37.3,-83.7L39.8,-78.2L43.2,-74.7L47.8,-73.6L53.9,-74.1L60.9,-75.2L68.2,-75.8L75.0,-75.0L80.7,-72.6L85.3,-69.1L89.1,-64.8L92.5,-60.0L95.5,-55.1L98.2,-50.1L100.8,-44.9L103.4,-39.7L106.5,-34.6L110.6,-29.6L116.0,-24.6L122.2,-19.4L128.2,-13.5L132.6,-6.9L134.2,-0.0Z" fill="none" stroke="#e1fcf6" stroke-width="5.1" stroke-linecap="round" opacity="0.15" filter="url(#tg)"/><path d="M134.2,0.0L132.6,6.9L128.2,13.5L122.2,19.4L116.0,24.6L110.6,29.6L106.5,34.6L103.4,39.7L100.8,44.9L98.2,50.1L95.5,55.1L92.5,60.0L89.1,64.8L85.3,69.1L80.7,72.6L75.0,75.0L68.2,75.8L60.9,75.2L53.9,74.1L47.8,73.6L43.2,74.7L39.8,78.2L37.3,83.7L34.7,90.4L31.5,97.0L27.4,102.4L22.6,106.2L17.2,108.4L11.5,109.6L5.8,110.1L0.0,110.3L-5.8,110.1L-11.5,109.7L-17.3,109.3L-23.3,109.5L-29.6,110.6L-36.6,112.7L-44.3,115.5L-52.4,117.7L-60.3,118.3L-67.1,116.2L-72.3,111.3L-75.8,104.3L-77.8,96.1L-79.3,88.1L-81.0,81.0L-83.2,74.9L-86.0,69.7L-89.2,64.8L-92.5,60.0L-95.5,55.1L-98.2,50.1L-100.7,44.8L-102.5,39.3L-103.3,33.6L-102.4,27.4L-99.7,21.2L-95.6,15.1L-91.1,9.6L-87.6,4.6L-86.3,0.0L-87.6,-4.6L-91.1,-9.6L-95.6,-15.1L-99.7,-21.2L-102.4,-27.4L-103.3,-33.6L-102.5,-39.3L-100.7,-44.8L-98.2,-50.1L-95.5,-55.1L-92.5,-60.0L-89.2,-64.8L-86.0,-69.7L-83.2,-74.9L-81.0,-81.0L-79.3,-88.1L-77.8,-96.1L-75.8,-104.3L-72.3,-111.3L-67.1,-116.2L-60.3,-118.3L-52.4,-117.7L-44.3,-115.5L-36.6,-112.7L-29.6,-110.6L-23.3,-109.5L-17.3,-109.3L-11.5,-109.7L-5.8,-110.1L-0.0,-110.3L5.8,-110.1L11.5,-109.6L17.2,-108.4L22.6,-106.2L27.4,-102.4L31.5,-97.0L34.7,-90.4L37.3,-83.7L39.8,-78.2L43.2,-74.7L47.8,-73.6L53.9,-74.1L60.9,-75.2L68.2,-75.8L75.0,-75.0L80.7,-72.6L85.3,-69.1L89.1,-64.8L92.5,-60.0L95.5,-55.1L98.2,-50.1L100.8,-44.9L103.4,-39.7L106.5,-34.6L110.6,-29.6L116.0,-24.6L122.2,-19.4L128.2,-13.5L132.6,-6.9L134.2,-0.0Z" fill="none" stroke="#e1fcf6" stroke-width="1.7" stroke-linecap="round" opacity="0.95"/>
</svg>