<svg xmlns="http://www.w3.org/2000/svg" viewBox="-250 -250 500 500">
<defs><filter id="tg"><feGaussianBlur stdDeviation="5.9"/></filter></defs>
<rect x="-250" y="-250" width="500" height="500" fill="#000000"/>
<path d="M160.9,0.0L159.5,8.4L155.7,16.4L150.5,23.8L144.9,30.8L139.9,37.5L135.7,44.1L132.3,50.8L129.2,57.5L126.0,64.2L122.4,70.7L118.6,77.0L114.3,83.1L109.6,88.7L104.0,93.7L97.5,97.5L90.1,100.0L82.1,101.3L74.2,102.1L67.0,103.2L60.9,105.5L55.8,109.6L51.3,115.3L46.7,121.7L41.6,128.0L35.7,133.2L29.1,136.9L22.1,139.2L14.8,140.5L7.4,141.2L0.0,141.4L-7.4,141.2L-14.8,140.6L-22.2,140.0L-29.7,139.6L-37.5,139.9L-45.8,140.9L-54.6,142.2L-63.7,143.0L-72.5,142.3L-80.4,139.3L-87.0,133.9L-92.0,126.7L-95.9,118.4L-99.1,110.1L-102.4,102.4L-106.1,95.5L-110.2,89.2L-114.4,83.1L-118.6,77.0L-122.4,70.7L-126.0,64.2L-129.1,57.5L-131.6,50.5L-133.1,43.3L-133.2,35.7L-131.7,28.0L-128.8,20.4L-125.5,13.2L-122.8,6.4L-121.8,0.0L-122.8,-6.4L-125.5,-13.2L-128.8,-20.4L-131.7,-28.0L-133.2,-35.7L-133.1,-43.3L-131.6,-50.5L-129.1,-57.5L-126.0,-64.2L-122.4,-70.7L-118.6,-77.0L-114.4,-83.1L-110.2,-89.2L-106.1,-95.5L-102.4,-102.4L-99.1,-110.1L-95.9,-118.4L-92.0,-126.7L-87.0,-133.9L-80.4,-139.3L-72.5,-142.3L-63.7,-143.0L-54.6,-142.2L-45.8,-140.9L-37.5,-139.9L-29.7,-139.6L-22.2,-140.0L-14.8,-140.6L-7.4,-141.2L-0.0,-141.4L7.4,-141.2L14.8,-140.5L22.1,-139.2L29.1,-136.9L35.7,-133.2L41.6,-128.0L46.7,-121.7L51.3,-115.3L55.8,-109.6L60.9,-105.5L67.0,-103.2L74.2,-102.1L82.1,-101.3L90.1,-100.0L97.5,-97.5L104.0,-93.7L109.6,-88.7L114.3,-83.1L118.6,-77.0L122.4,-70.7L126.0,-64.2L129.2,-57.5L132.3,-50.8L135.7,-44.1L139.9,-37.5L144.9,-30.8L150.5,-23.8L155.7,-16.4L159.5,-8.4L160.9,-0.0Z" fill="none" stroke="#c0e7ec" stroke-width="5.1" stroke-linecap="round" opacity="0.15" filter="url(#tg)"/><path d="M160.9,0.0L159.5,8.4L155.7,16.4L150.5,23.8L144.9,30.8L139.9,37.5L135.7,44.1L132.3,50.8L129.2,57.5L126.0,64.2L122.4,70.7L118.6,77.0L114.3,83.1L109.6,88.7L104.0,93.7L97.5,97.5L90.1,100.0L82.1,101.3L74.2,102.1L67.0,103.2L60.9,105.5L55.8,109.6L51.3,115.3L46.7,121.7L41.6,128.0L35.7,133.2L29.1,136.9L22.1,139.2L14.8,140.5L7.4,141.2L0.0,141.4L-7.4,141.2L-14.8,140.6L-22.2,140.0L-29.7,139.6L-37.5,139.9L-45.8,140.9L-54.6,142.2L-63.7,143.0L-72.5,142.3L-80.4,139.3L-87.0,133.9L-92.0,126.7L-95.9,118.4L-99.1,110.1L-102.4,102.4L-106.1,95.5L-110.2,89.2L-114.4,83.1L-118.6,77.0L-122.4,70.7L-126.0,64.2L-129.1,57.5L-131.6,50.5L-133.1,43.3L-133.2,35.7L-131.7,28.0L-128.8,20.4L-125.5,13.2L-122.8,6.4L-121.8,0.0L-122.8,-6.4L-125.5,-13.2L-128.8,-20.4L-131.7,-28.0L-133.2,-35.7L-133.1,-43.3L-131.6,-50.5L-129.1,-57.5L-126.0,-64.2L-122.4,-70.7L-118.6,-77.0L-114.4,-83.1L-110.2,-89.2L-106.1,-95.5L-102.4,-102.4L-99.1,-110.1L-95.9,-118.4L-92.0,-126.7L-87.0,-133.9L-80.4,-139.3L-72.5,-142.3L-63.7,-143.0L-54.6,-142.2L-45.8,-140.9L-37.5,-139.9L-29.7,-139.6L-22.2,-140.0L-14.8,-140.6L-7.4,-141.2L-0.0,-141.4L7.4,-141.2L14.8,-140.5L22.1,-139.2L29.1,-136.9L35.7,-133.2L41.6,-128.0L46.7,-121.7L51.3,-115.3L55.8,-109.6L60.9,-105.5L67.0,-103.2L74.2,-102.1L82.1,-101.3L90.1,-100.0L97.5,-97.5L104.0,-93.7L109.6,-88.7L114.3,-83.1L118.6,-77.0L122.4,-70.7L126.0,-64.2L129.2,-57.5L132.3,-50.8L135.7,-44.1L139.9,-37.5L144.9,-30.8L150.5,-23.8L155.7,-16.4L159.5,-8.4L160.9,-0.0Z" fill="none" stroke="#c0e7ec" stroke-width="1.7" stroke-linecap="round" opacity="0.95"/><path d="M106.7,0.0L107.7,5.6L110.4,11.6L113.8,18.0L116.8,24.8L118.6,31.8L118.7,38.6L117.5,45.1L115.2,51.3L112.4,57.3L109.3,63.1L105.8,68.7L102.1,74.2L98.4,79.7L94.8,85.4L91.7,91.7L89.0,98.8L86.3,106.6L83.1,114.4L78.7,121.2L72.9,126.2L65.6,128.8L57.5,129.2L49.2,128.1L41.1,126.5L33.6,125.2L26.5,124.8L19.8,125.0L13.2,125.6L6.6,126.0L0.0,126.2L-6.6,126.0L-13.2,125.5L-19.7,124.3L-26.0,122.1L-31.8,118.6L-36.9,113.6L-41.3,107.6L-45.1,101.4L-49.0,96.1L-53.3,92.4L-58.7,90.4L-65.2,89.8L-72.5,89.6L-79.9,88.8L-86.8,86.8L-92.8,83.5L-97.8,79.2L-102.1,74.1L-105.8,68.7L-109.3,63.1L-112.4,57.3L-115.3,51.4L-118.2,45.4L-121.3,39.4L-125.2,33.6L-130.1,27.6L-135.5,21.5L-140.6,14.8L-144.4,7.6L-145.7,0.0L-144.4,-7.6L-140.6,-14.8L-135.5,-21.5L-130.1,-27.6L-125.2,-33.6L-121.3,-39.4L-118.2,-45.4L-115.3,-51.4L-112.4,-57.3L-109.3,-63.1L-105.8,-68.7L-102.1,-74.1L-97.8,-79.2L-92.8,-83.5L-86.8,-86.8L-79.9,-88.8L-72.5,-89.6L-65.2,-89.8L-58.7,-90.4L-53.3,-92.4L-49.0,-96.1L-45.1,-101.4L-41.3,-107.6L-36.9,-113.6L-31.8,-118.6L-26.0,-122.1L-19.7,-124.3L-13.2,-125.5L-6.6,-126.0L-0.0,-126.2L6.6,-126.0L13.2,-125.6L19.8,-125.0L26.5,-124.8L33.6,-125.2L41.1,-126.5L49.2,-128.1L57.5,-129.2L65.6,-128.8L72.9,-126.2L78.7,-121.2L83.1,-114.4L86.3,-106.6L89.0,-98.8L91.7,-91.7L94.8,-85.4L98.4,-79.7L102.1,-74.2L105.8,-68.7L109.3,-63.1L112.4,-57.3L115.2,-51.3L117.5,-45.1L118.7,-38.6L118.6,-31.8L116.8,-24.8L113.8,-18.0L110.4,-11.6L107.7,-5.6L106.7,-0.0Z" fill="none" stroke="#fad4f3" stroke-width="5.1" stroke-linecap="round" opacity="0.15" filter="url(#tg)"/><path d="M106.7,0.0L107.7,5.6L110.4,11.6L113.8,18.0L116.8,24.8L118.6,31.8L118.7,38.6L117.5,45.1L115.2,51.3L112.4,57.3L109.3,63.1L105.8,68.7L102.1,74.2L98.4,79.7L94.8,85.4L91.7,91.7L89.0,98.8L86.3,106.6L83.1,114.4L78.7,121.2L72.9,126.2L65.6,128.8L57.5,129.2L49.2,128.1L41.1,126.5L33.6,125.2L26.5,124.8L19.8,125.0L13.2,125.6L6.6,126.0L0.0,126.2L-6.6,126.0L-13.2,125.5L-19.7,124.3L-26.0,122.1L-31.8,118.6L-36.9,113.6L-41.3,107.6L-45.1,101.4L-49.0,96.1L-53.3,92.4L-58.7,90.4L-65.2,89.8L-72.5,89.6L-79.9,88.8L-86.8,86.8L-92.8,83.5L-97.8,79.2L-102.1,74.1L-105.8,68.7L-109.3,63.1L-112.4,57.3L-115.3,51.4L-118.2,45.4L-121.3,39.4L-125.2,33.6L-130.1,27.6L-135.5,21.5L-140.6,14.8L-144.4,7.6L-145.7,0.0L-144.4,-7.6L-140.6,-14.8L-135.5,-21.5L-130.1,-27.6L-125.2,-33.6L-121.3,-39.4L-118.2,-45.4L-115.3,-51.4L-112.4,-57.3L-109.3,-63.1L-105.8,-68.7L-102.1,-74.1L-97.8,-79.2L-92.8,-83.5L-86.8,-86.8L-79.9,-88.8L-72.5,-89.6L-65.2,-89.8L-58.7,-90.4L-53.3,-92.4L-49.0,-96.1L-45.1,-101.4L-41.3,-107.6L-36.9,-113.6L-31.8,-118.6L-26.0,-122.1L-19.7,-124.3L-13.2,-125.5L-6.6,-126.0L-0.0,-126.2L6.6,-126.0L13.2,-125.6L19.8,-125.0L26.5,-124.8L33.6,-125.2L41.1,-126.5L49.2,-128.1L57.5,-129.2L65.6,-128.8L72.9,-126.2L78.7,-121.2L83.1,-114.4L86.3,-106.6L89.0,-98.8L91.7,-91.7L94.8,-85.4L98.4,-79.7L102.1,-74.2L105.8,-68.7L109.3,-63.1L112.4,-57.3L115.2,-51.3L117.5,-45.1L118.7,-38.6L118.6,-31.8L116.8,-24.8L113.8,-18.0L110.4,-11.6L107.7,-5.6L106.7,-0.0Z" fill="none" stroke="#fad4f3" stroke-width="1.7" stroke-linecap="round" opacity="0.95"/><path d="M130.6,0.0L129.2,6.8L125.5,13.2L120.5,19.1L115.2,24.5L110.6,29.6L106.9,34.7L104.0,39.9L101.5,45.2L98.9,50.4L96.2,55.5L93.1,60.5L89.8,65.2L86.0,69.6L81.5,73.4L76.1,76.1L69.8,77.5L63.0,77.8L56.3,77.5L50.5,77.7L45.8,79.3L42.1,82.6L39.0,87.6L35.9,93.4L32.2,99.2L27.8,103.9L22.8,107.3L17.3,109.3L11.6,110.4L5.8,110.9L0.0,111.0L-5.8,110.9L-11.6,110.5L-17.4,110.0L-23.4,110.0L-29.6,110.6L-36.4,112.0L-43.7,113.9L-51.3,115.3L-58.7,115.3L-65.3,113.1L-70.5,108.5L-74.2,102.1L-76.8,94.8L-78.8,87.6L-81.0,81.0L-83.5,75.2L-86.6,70.1L-89.9,65.3L-93.1,60.5L-96.2,55.5L-98.9,50.4L-101.4,45.1L-103.3,39.7L-104.3,33.9L-103.9,27.8L-102.0,21.7L-98.8,15.7L-95.3,10.0L-92.6,4.9L-91.5,0.0L-92.6,-4.9L-95.3,-10.0L-98.8,-15.7L-102.0,-21.7L-103.9,-27.8L-104.3,-33.9L-103.3,-39.7L-101.4,-45.1L-98.9,-50.4L-96.2,-55.5L-93.1,-60.5L-89.9,-65.3L-86.6,-70.1L-83.5,-75.2L-81.0,-81.0L-78.8,-87.6L-76.8,-94.8L-74.2,-102.1L-70.5,-108.5L-65.3,-113.1L-58.7,-115.3L-51.3,-115.3L-43.7,-113.9L-36.4,-112.0L-29.6,-110.6L-23.4,-110.0L-17.4,-110.0L-11.6,-110.5L-5.8,-110.9L-0.0,-111.0L5.8,-110.9L11.6,-110.4L17.3,-109.3L22.8,-107.3L27.8,-103.9L32.2,-99.2L35.9,-93.4L39.0,-87.6L42.1,-82.6L45.8,-79.3L50.5,-77.7L56.3,-77.5L63.0,-77.8L69.8,-77.5L76.1,-76.1L81.5,-73.4L86.0,-69.6L89.8,-65.2L93.1,-60.5L96.2,-55.5L98.9,-50.4L101.5,-45.2L104.0,-39.9L106.9,-34.7L110.6,-29.6L115.2,-24.5L120.5,-19.1L125.5,-13.2L129.2,-6.8L130.6,-0.0Z" fill="none" stroke="#c0e7ec" stroke-width="5.1" stroke-linecap="round" opacity="0.15" filter="url(#tg)"/><path d="M130.6,0.0L129.2,6.8L125.5,13.2L120.5,19.1L115.2,24.5L110.6,29.6L106.9,34.7L104.0,39.9L101.5,45.2L98.9,50.4L96.2,55.5L93.1,60.5L89.8,65.2L86.0,69.6L81.5,73.4L76.1,76.1L69.8,77.5L63.0,77.8L56.3,77.5L50.5,77.7L45.8,79.3L42.1,82.6L39.0,87.6L35.9,93.4L32.2,99.2L27.8,103.9L22.8,107.3L17.3,109.3L11.6,110.4L5.8,110.9L0.0,111.0L-5.8,110.9L-11.6,110.5L-17.4,110.0L-23.4,110.0L-29.6,110.6L-36.4,112.0L-43.7,113.9L-51.3,115.3L-58.7,115.3L-65.3,113.1L-70.5,108.5L-74.2,102.1L-76.8,94.8L-78.8,87.6L-81.0,81.0L-83.5,75.2L-86.6,70.1L-89.9,65.3L-93.1,60.5L-96.2,55.5L-98.9,50.4L-101.4,45.1L-103.3,39.7L-104.3,33.9L-103.9,27.8L-102.0,21.7L-98.8,15.7L-95.3,10.0L-92.6,4.9L-91.5,0.0L-92.6,-4.9L-95.3,-10.0L-98.8,-15.7L-102.0,-21.7L-103.9,-27.8L-104.3,-33.9L-103.3,-39.7L-101.4,-45.1L-98.9,-50.4L-96.2,-55.5L-93.1,-60.5L-89.9,-65.3L-86.6,-70.1L-83.5,-75.2L-81.0,-81.0L-78.8,-87.6L-76.8,-94.8L-74.2,-102.1L-70.5,-108.5L-65.3,-113.1L-58.7,-115.3L-51.3,-115.3L-43.7,-113.9L-36.4,-112.0L-29.6,-110.6L-23.4,-110.0L-17.4,-110.0L-11.6,-110.5L-5.8,-110.9L-0.0,-111.0L5.8,-110.9L11.6,-110.4L17.3,-109.3L22.8,-107.3L27.8,-103.9L32.2,-99.2L35.9,-93.4L39.0,-87.6L42.1,-82.6L45.8,-79.3L50.5,-77.7L56.3,-77.5L63.0,-77.8L69.8,-77.5L76.1,-76.1L81.5,-73.4L86.0,-69.6L89.8,-65.2L93.1,-60.5L96.2,-55.5L98.9,-50.4L101.5,-45.2L104.0,-39.9L106.9,-34.7L110.6,-29.6L115.2,-24.5L120.5,-19.1L125.5,-13.2L129.2,-6.8L130.6,-0.0Z" fill="none" stroke="#c0e7ec" stroke-width="1.7" stroke-linecap="round" opacity="0.95"/><path d="M76.4,0.0L77.4,4.1L80.2,8.4L83.9,13.3L87.2,18.5L89.3,23.9L89.9,29.2L89.2,34.2L87.5,39.0L85.4,43.5L83.0,47.9L80.4,52.2L77.6,56.4L74.8,60.6L72.3,65.1L70.2,70.2L68.7,76.3L67.2,83.0L65.3,89.9L62.2,95.8L57.7,100.0L51.9,101.8L45.2,101.5L38.3,99.8L31.7,97.6L25.7,96.0L20.2,95.1L15.1,95.1L10.0,95.4L5.0,95.8L0.0,95.9L-5.0,95.7L-10.0,95.3L-14.9,94.3L-19.7,92.4L-23.9,89.3L-27.5,84.8L-30.4,79.3L-32.8,73.7L-35.2,69.1L-38.2,66.1L-42.2,65.0L-47.4,65.3L-53.4,66.0L-59.6,66.2L-65.4,65.4L-70.2,63.2L-74.2,60.1L-77.5,56.3L-80.4,52.2L-83.0,47.9L-85.4,43.5L-87.6,39.0L-89.9,34.5L-92.5,30.1L-96.0,25.7L-100.4,21.3L-105.5,16.7L-110.5,11.6L-114.1,6.0L-115.4,0.0L-114.1,-6.0L-110.5,-11.6L-105.5,-16.7L-100.4,-21.3L-96.0,-25.7L-92.5,-30.1L-89.9,-34.5L-87.6,-39.0L-85.4,-43.5L-83.0,-47.9L-80.4,-52.2L-77.5,-56.3L-74.2,-60.1L-70.2,-63.2L-65.4,-65.4L-59.6,-66.2L-53.4,-66.0L-47.4,-65.3L-42.2,-65.0L-38.2,-66.1L-35.2,-69.1L-32.8,-73.7L-30.4,-79.3L-27.5,-84.8L-23.9,-89.3L-19.7,-92.4L-14.9,-94.3L-10.0,-95.3L-5.0,-95.7L-0.0,-95.9L5.0,-95.8L10.0,-95.4L15.1,-95.1L20.2,-95.1L25.7,-96.0L31.7,-97.6L38.3,-99.8L45.2,-101.5L51.9,-101.8L57.7,-100.0L62.2,-95.8L65.3,-89.9L67.2,-83.0L68.7,-76.3L70.2,-70.2L72.3,-65.1L74.8,-60.6L77.6,-56.4L80.4,-52.2L83.0,-47.9L85.4,-43.5L87.5,-39.0L89.2,-34.2L89.9,-29.2L89.3,-23.9L87.2,-18.5L83.9,-13.3L80.2,-8.4L77.4,-4.1L76.4,-0.0Z" fill="none" stroke="#fad4f3" stroke-width="5.1" stroke-linecap="round" opacity="0.15" filter="url(#tg)"/><path d="M76.4,0.0L77.4,4.1L80.2,8.4L83.9,13.3L87.2,18.5L89.3,23.9L89.9,29.2L89.2,34.2L87.5,39.0L85.4,43.5L83.0,47.9L80.4,52.2L77.6,56.4L74.8,60.6L72.3,65.1L70.2,70.2L68.7,76.3L67.2,83.0L65.3,89.9L62.2,95.8L57.7,100.0L51.9,101.8L45.2,101.5L38.3,99.8L31.7,97.6L25.7,96.0L20.2,95.1L15.1,95.1L10.0,95.4L5.0,95.8L0.0,95.9L-5.0,95.7L-10.0,95.3L-14.9,94.3L-19.7,92.4L-23.9,89.3L-27.5,84.8L-30.4,79.3L-32.8,73.7L-35.2,69.1L-38.2,66.1L-42.2,65.0L-47.4,65.3L-53.4,66.0L-59.6,66.2L-65.4,65.4L-70.2,63.2L-74.2,60.1L-77.5,56.3L-80.4,52.2L-83.0,47.9L-85.4,43.5L-87.6,39.0L-89.9,34.5L-92.5,30.1L-96.0,25.7L-100.4,21.3L-105.5,16.7L-110.5,11.6L-114.1,6.0L-115.4,0.0L-114.1,-6.0L-110.5,-11.6L-105.5,-16.7L-100.4,-21.3L-96.0,-25.7L-92.5,-30.1L-89.9,-34.5L-87.6,-39.0L-85.4,-43.5L-83.0,-47.9L-80.4,-52.2L-77.5,-56.3L-74.2,-60.1L-70.2,-63.2L-65.4,-65.4L-59.6,-66.2L-53.4,-66.0L-47.4,-65.3L-42.2,-65.0L-38.2,-66.1L-35.2,-69.1L-32.8,-73.7L-30.4,-79.3L-27.5,-84.8L-23.9,-89.3L-19.7,-92.4L-14.9,-94.3L-10.0,-95.3L-5.0,-95.7L-0.0,-95.9L5.0,-95.8L10.0,-95.4L15.1,-95.1L20.2,-95.1L25.7,-96.0L31.7,-97.6L38.3,-99.8L45.2,-101.5L51.9,-101.8L57.7,-100.0L62.2,-95.8L65.3,-89.9L67.2,-83.0L68.7,-76.3L70.2,-70.2L72.3,-65.1L74.8,-60.6L77.6,-56.4L80.4,-52.2L83.0,-47.9L85.4,-43.5L87.5,-39.0L89.2,-34.2L89.9,-29.2L89.3,-23.9L87.2,-18.5L83.9,-13.3L80.2,-8.4L77.4,-4.1L76.4,-0.0Z" fill="none" stroke="#fad4f3" stroke-width="1.7" stroke-linecap="round" opacity="0.95"/><path d="M100.3,0.0L98.9,5.2L95.4,10.0L90.6,14.3L85.6,18.2L81.3,21.8L78.1,25.4L75.7,29.1L73.8,32.9L71.9,36.6L69.9,40.4L67.7,44.0L65.3,47.4L62.4,50.6L59.0,53.1L54.6,54.6L49.5,55.0L43.9,54.2L38.5,53.0L34.0,52.3L30.6,53.0L28.3,55.6L26.7,59.9L25.0,65.1L22.9,70.3L20.0,74.6L16.5,77.6L12.6,79.4L8.4,80.2L4.2,80.6L0.0,80.7L-4.2,80.6L-8.4,80.3L-12.7,80.1L-17.1,80.3L-21.8,81.3L-27.0,83.2L-32.9,85.6L-39.0,87.6L-45.0,88.3L-50.1,86.8L-54.0,83.1L-56.4,77.6L-57.7,71.3L-58.5,65.0L-59.5,59.5L-61.0,54.9L-63.0,51.0L-65.4,47.5L-67.7,44.0L-69.9,40.4L-71.9,36.6L-73.7,32.8L-75.0,28.8L-75.5,24.5L-74.6,20.0L-72.3,15.4L-68.9,10.9L-65.2,6.8L-62.3,3.3L-61.2,0.0L-62.3,-3.3L-65.2,-6.8L-68.9,-10.9L-72.3,-15.4L-74.6,-20.0L-75.5,-24.5L-75.0,-28.8L-73.7,-32.8L-71.9,-36.6L-69.9,-40.4L-67.7,-44.0L-65.4,-47.5L-63.0,-51.0L-61.0,-54.9L-59.5,-59.5L-58.5,-65.0L-57.7,-71.3L-56.4,-77.6L-54.0,-83.1L-50.1,-86.8L-45.0,-88.3L-39.0,-87.6L-32.9,-85.6L-27.0,-83.2L-21.8,-81.3L-17.1,-80.3L-12.7,-80.1L-8.4,-80.3L-4.2,-80.6L-0.0,-80.7L4.2,-80.6L8.4,-80.2L12.6,-79.4L16.5,-77.6L20.0,-74.6L22.9,-70.3L25.0,-65.1L26.7,-59.9L28.3,-55.6L30.6,-53.0L34.0,-52.3L38.5,-53.0L43.9,-54.2L49.5,-55.0L54.6,-54.6L59.0,-53.1L62.4,-50.6L65.3,-47.4L67.7,-44.0L69.9,-40.4L71.9,-36.6L73.8,-32.9L75.7,-29.1L78.1,-25.4L81.3,-21.8L85.6,-18.2L90.6,-14.3L95.4,-10.0L98.9,-5.2L100.3,-0.0Z" fill="none" stroke="#c0e7ec" stroke-width="5.1" stroke-linecap="round" opacity="0.15" filter="url(#tg)"/><path d="M100.3,0.0L98.9,5.2L95.4,10.0L90.6,14.3L85.6,18.2L81.3,21.8L78.1,25.4L75.7,29.1L73.8,32.9L71.9,36.6L69.9,40.4L67.7,44.0L65.3,47.4L62.4,50.6L59.0,53.1L54.6,54.6L49.5,55.0L43.9,54.2L38.5,53.0L34.0,52.3L30.6,53.0L28.3,55.6L26.7,59.9L25.0,65.1L22.9,70.3L20.0,74.6L16.5,77.6L12.6,79.4L8.4,80.2L4.2,80.6L0.0,80.7L-4.2,80.6L-8.4,80.3L-12.7,80.1L-17.1,80.3L-21.8,81.3L-27.0,83.2L-32.9,85.6L-39.0,87.6L-45.0,88.3L-50.1,86.8L-54.0,83.1L-56.4,77.6L-57.7,71.3L-58.5,65.0L-59.5,59.5L-61.0,54.9L-63.0,51.0L-65.4,47.5L-67.7,44.0L-69.9,40.4L-71.9,36.6L-73.7,32.8L-75.0,28.8L-75.5,24.5L-74.6,20.0L-72.3,15.4L-68.9,10.9L-65.2,6.8L-62.3,3.3L-61.2,0.0L-62.3,-3.3L-65.2,-6.8L-68.9,-10.9L-72.3,-15.4L-74.6,-20.0L-75.5,-24.5L-75.0,-28.8L-73.7,-32.8L-71.9,-36.6L-69.9,-40.4L-67.7,-44.0L-65.4,-47.5L-63.0,-51.0L-61.0,-54.9L-59.5,-59.5L-58.5,-65.0L-57.7,-71.3L-56.4,-77.6L-54.0,-83.1L-50.1,-86.8L-45.0,-88.3L-39.0,-87.6L-32.9,-85.6L-27.0,-83.2L-21.8,-81.3L-17.1,-80.3L-12.7,-80.1L-8.4,-80.3L-4.2,-80.6L-0.0,-80.7L4.2,-80.6L8.4,-80.2L12.6,-79.4L16.5,-77.6L20.0,-74.6L22.9,-70.3L25.0,-65.1L26.7,-59.9L28.3,-55.6L30.6,-53.0L34.0,-52.3L38.5,-53.0L43.9,-54.2L49.5,-55.0L54.6,-54.6L59.0,-53.1L62.4,-50.6L65.3,-47.4L67.7,-44.0L69.9,-40.4L71.9,-36.6L73.8,-32.9L75.7,-29.1L78.1,-25.4L81.3,-21.8L85.6,-18.2L90.6,-14.3L95.4,-10.0L98.9,-5.2L100.3,-0.0Z" fill="none" stroke="#c0e7ec" stroke-width="1.7" stroke-linecap="round" opacity="0.95"/><path d="M46.0,0.0L47.1,2.5L50.1,5.3L53.9,8.5L57.5,12.2L60.0,16.1L61.1,19.8L60.9,23.4L59.8,26.6L58.4,29.8L56.8,32.8L55.0,35.7L53.1,38.6L51.2,41.5L49.7,44.8L48.8,48.8L48.4,53.8L48.2,59.5L47.5,65.3L45.7,70.4L42.5,73.7L38.1,74.8L32.8,73.8L27.4,71.4L22.4,68.8L17.9,66.7L13.9,65.5L10.3,65.1L6.9,65.3L3.4,65.5L0.0,65.6L-3.4,65.5L-6.8,65.2L-10.2,64.4L-13.3,62.8L-16.1,60.0L-18.2,55.9L-19.6,51.0L-20.5,46.0L-21.4,42.1L-23.0,39.9L-25.7,39.6L-29.6,40.7L-34.4,42.4L-39.3,43.7L-43.9,43.9L-47.7,43.0L-50.7,41.0L-53.0,38.5L-55.0,35.7L-56.8,32.8L-58.4,29.8L-59.9,26.7L-61.6,23.6L-63.7,20.7L-66.7,17.9L-70.8,15.0L-75.6,12.0L-80.3,8.4L-83.8,4.4L-85.1,0.0L-83.8,-4.4L-80.3,-8.4L-75.6,-12.0L-70.8,-15.0L-66.7,-17.9L-63.7,-20.7L-61.6,-23.6L-59.9,-26.7L-58.4,-29.8L-56.8,-32.8L-55.0,-35.7L-53.0,-38.5L-50.7,-41.0L-47.7,-43.0L-43.9,-43.9L-39.3,-43.7L-34.4,-42.4L-29.6,-40.7L-25.7,-39.6L-23.0,-39.9L-21.4,-42.1L-20.5,-46.0L-19.6,-51.0L-18.2,-55.9L-16.1,-60.0L-13.3,-62.8L-10.2,-64.4L-6.8,-65.2L-3.4,-65.5L-0.0,-65.6L3.4,-65.5L6.9,-65.3L10.3,-65.1L13.9,-65.5L17.9,-66.7L22.4,-68.8L27.4,-71.4L32.8,-73.8L38.1,-74.8L42.5,-73.7L45.7,-70.4L47.5,-65.3L48.2,-59.5L48.4,-53.8L48.8,-48.8L49.7,-44.8L51.2,-41.5L53.1,-38.6L55.0,-35.7L56.8,-32.8L58.4,-29.8L59.8,-26.6L60.9,-23.4L61.1,-19.8L60.0,-16.1L57.5,-12.2L53.9,-8.5L50.1,-5.3L47.1,-2.5L46.0,-0.0Z" fill="none" stroke="#fad4f3" stroke-width="5.1" stroke-linecap="round" opacity="0.15" filter="url(#tg)"/><path d="M46.0,0.0L47.1,2.5L50.1,5.3L53.9,8.5L57.5,12.2L60.0,16.1L61.1,19.8L60.9,23.4L59.8,26.6L58.4,29.8L56.8,32.8L55.0,35.7L53.1,38.6L51.2,41.5L49.7,44.8L48.8,48.8L48.4,53.8L48.2,59.5L47.5,65.3L45.7,70.4L42.5,73.7L38.1,74.8L32.8,73.8L27.4,71.4L22.4,68.8L17.9,66.7L13.9,65.5L10.3,65.1L6.9,65.3L3.4,65.5L0.0,65.6L-3.4,65.5L-6.8,65.2L-10.2,64.4L-13.3,62.8L-16.1,60.0L-18.2,55.9L-19.6,51.0L-20.5,46.0L-21.4,42.1L-23.0,39.9L-25.7,39.6L-29.6,40.7L-34.4,42.4L-39.3,43.7L-43.9,43.9L-47.7,43.0L-50.7,41.0L-53.0,38.5L-55.0,35.7L-56.8,32.8L-58.4,29.8L-59.9,26.7L-61.6,23.6L-63.7,20.7L-66.7,17.9L-70.8,15.0L-75.6,12.0L-80.3,8.4L-83.8,4.4L-85.1,0.0L-83.8,-4.4L-80.3,-8.4L-75.6,-12.0L-70.8,-15.0L-66.7,-17.9L-63.7,-20.7L-61.6,-23.6L-59.9,-26.7L-58.4,-29.8L-56.8,-32.8L-55.0,-35.7L-53.0,-38.5L-50.7,-41.0L-47.7,-43.0L-43.9,-43.9L-39.3,-43.7L-34.4,-42.4L-29.6,-40.7L-25.7,-39.6L-23.0,-39.9L-21.4,-42.1L-20.5,-46.0L-19.6,-51.0L-18.2,-55.9L-16.1,-60.0L-13.3,-62.8L-10.2,-64.4L-6.8,-65.2L-3.4,-65.5L-0.0,-65.6L3.4,-65.5L6.9,-65.3L10.3,-65.1L13.9,-65.5L17.9,-66.7L22.4,-68.8L27.4,-71.4L32.8,-73.8L38.1,-74.8L42.5,-73.7L45.7,-70.4L47.5,-65.3L48.2,-59.5L48.4,-53.8L48.8,-48.8L49.7,-44.8L51.2,-41.5L53.1,-38.6L55.0,-35.7L56.8,-32.8L58.4,-29.8L59.8,-26.6L60.9,-23.4L61.1,-19.8L60.0,-16.1L57.5,-12.2L53.9,-8.5L50.1,-5.3L47.1,-2.5L46.0,-0.0Z" fill="none" stroke="#fad4f3" stroke-width="1.7" stroke-linecap="round" opacity="0.95"/><path d="M69.9,0.0L68.7,3.6L65.2,6.9L60.6,9.6L55.9,11.9L52.0,13.9L49.2,16.0L47.4,18.2L46.1,20.5L44.9,22.9L43.7,25.2L42.3,27.5L40.7,29.6L38.9,31.5L36.4,32.8L33.2,33.2L29.2,32.4L24.8,30.6L20.7,28.5L17.5,26.9L15.4,26.7L14.5,28.6L14.3,32.2L14.1,36.8L13.5,41.5L12.2,45.4L10.2,48.0L7.8,49.4L5.3,50.1L2.6,50.3L0.0,50.4L-2.6,50.3L-5.3,50.2L-7.9,50.2L-10.8,50.6L-13.9,52.0L-17.7,54.4L-22.0,57.3L-26.7,59.9L-31.2,61.3L-35.0,60.6L-37.5,57.7L-38.6,53.1L-38.6,47.7L-38.3,42.5L-38.1,38.1L-38.5,34.6L-39.5,32.0L-40.8,29.7L-42.3,27.5L-43.7,25.2L-44.9,22.9L-46.0,20.5L-46.7,17.9L-46.6,15.2L-45.4,12.2L-42.7,9.1L-39.0,6.2L-35.0,3.7L-32.0,1.7L-30.9,0.0L-32.0,-1.7L-35.0,-3.7L-39.0,-6.2L-42.7,-9.1L-45.4,-12.2L-46.6,-15.2L-46.7,-17.9L-46.0,-20.5L-44.9,-22.9L-43.7,-25.2L-42.3,-27.5L-40.8,-29.7L-39.5,-32.0L-38.5,-34.6L-38.1,-38.1L-38.3,-42.5L-38.6,-47.7L-38.6,-53.1L-37.5,-57.7L-35.0,-60.6L-31.2,-61.3L-26.7,-59.9L-22.0,-57.3L-17.7,-54.4L-13.9,-52.0L-10.8,-50.6L-7.9,-50.2L-5.3,-50.2L-2.6,-50.3L-0.0,-50.4L2.6,-50.3L5.3,-50.1L7.8,-49.4L10.2,-48.0L12.2,-45.4L13.5,-41.5L14.1,-36.8L14.3,-32.2L14.5,-28.6L15.4,-26.7L17.5,-26.9L20.7,-28.5L24.8,-30.6L29.2,-32.4L33.2,-33.2L36.4,-32.8L38.9,-31.5L40.7,-29.6L42.3,-27.5L43.7,-25.2L44.9,-22.9L46.1,-20.5L47.4,-18.2L49.2,-16.0L52.0,-13.9L55.9,-11.9L60.6,-9.6L65.2,-6.9L68.7,-3.6L69.9,-0.0Z" fill="none" stroke="#c0e7ec" stroke-width="5.1" stroke-linecap="round" opacity="0.15" filter="url(#tg)"/><path d="M69.9,0.0L68.7,3.6L65.2,6.9L60.6,9.6L55.9,11.9L52.0,13.9L49.2,16.0L47.4,18.2L46.1,20.5L44.9,22.9L43.7,25.2L42.3,27.5L40.7,29.6L38.9,31.5L36.4,32.8L33.2,33.2L29.2,32.4L24.8,30.6L20.7,28.5L17.5,26.9L15.4,26.7L14.5,28.6L14.3,32.2L14.1,36.8L13.5,41.5L12.2,45.4L10.2,48.0L7.8,49.4L5.3,50.1L2.6,50.3L0.0,50.4L-2.6,50.3L-5.3,50.2L-7.9,50.2L-10.8,50.6L-13.9,52.0L-17.7,54.4L-22.0,57.3L-26.7,59.9L-31.2,61.3L-35.0,60.6L-37.5,57.7L-38.6,53.1L-38.6,47.7L-38.3,42.5L-38.1,38.1L-38.5,34.6L-39.5,32.0L-40.8,29.7L-42.3,27.5L-43.7,25.2L-44.9,22.9L-46.0,20.5L-46.7,17.9L-46.6,15.2L-45.4,12.2L-42.7,9.1L-39.0,6.2L-35.0,3.7L-32.0,1.7L-30.9,0.0L-32.0,-1.7L-35.0,-3.7L-39.0,-6.2L-42.7,-9.1L-45.4,-12.2L-46.6,-15.2L-46.7,-17.9L-46.0,-20.5L-44.9,-22.9L-43.7,-25.2L-42.3,-27.5L-40.8,-29.7L-39.5,-32.0L-38.5,-34.6L-38.1,-38.1L-38.3,-42.5L-38.6,-47.7L-38.6,-53.1L-37.5,-57.7L-35.0,-60.6L-31.2,-61.3L-26.7,-59.9L-22.0,-57.3L-17.7,-54.4L-13.9,-52.0L-10.8,-50.6L-7.9,-50.2L-5.3,-50.2L-2.6,-50.3L-0.0,-50.4L2.6,-50.3L5.3,-50.1L7.8,-49.4L10.2,-48.0L12.2,-45.4L13.5,-41.5L14.1,-36.8L14.3,-32.2L14.5,-28.6L15.4,-26.7L17.5,-26.9L20.7,-28.5L24.8,-30.6L29.2,-32.4L33.2,-33.2L36.4,-32.8L38.9,-31.5L40.7,-29.6L42.3,-27.5L43.7,-25.2L44.9,-22.9L46.1,-20.5L47.4,-18.2L49.2,-16.0L52.0,-13.9L55.9,-11.9L60.6,-9.6L65.2,-6.9L68.7,-3.6L69.9,-0.0Z" fill="none" stroke="#c0e7ec" stroke-width="1.7" stroke-linecap="round" opacity="0.95"/><path d="M15.7,0.0L16.9,0.9L19.9,2.1L24.0,3.8L27.9,5.9L30.7,8.2L32.2,10.5L32.6,12.5L32.1,14.3L31.4,16.0L30.5,17.6L29.6,19.2L28.6,20.8L27.7,22.4L27.2,24.5L27.4,27.4L28.1,31.2L29.1,35.9L29.6,40.8L29.2,45.0L27.4,47.4L24.3,47.8L20.5,46.1L16.6,43.1L13.0,40.0L10.0,37.4L7.6,35.8L5.6,35.2L3.7,35.1L1.8,35.2L0.0,35.2L-1.8,35.2L-3.7,35.0L-5.5,34.4L-7.0,33.1L-8.2,30.7L-8.8,27.1L-8.7,22.7L-8.2,18.3L-7.7,15.0L-7.9,13.6L-9.2,14.2L-11.8,16.2L-15.3,18.9L-19.1,21.2L-22.5,22.5L-25.2,22.7L-27.1,21.9L-28.5,20.7L-29.6,19.2L-30.5,17.6L-31.4,16.0L-32.3,14.4L-33.3,12.8L-34.8,11.3L-37.4,10.0L-41.1,8.7L-45.6,7.2L-50.2,5.3L-53.5,2.8L-54.8,0.0L-53.5,-2.8L-50.2,-5.3L-45.6,-7.2L-41.1,-8.7L-37.4,-10.0L-34.8,-11.3L-33.3,-12.8L-32.3,-14.4L-31.4,-16.0L-30.5,-17.6L-29.6,-19.2L-28.5,-20.7L-27.1,-21.9L-25.2,-22.7L-22.5,-22.5L-19.1,-21.2L-15.3,-18.9L-11.8,-16.2L-9.2,-14.2L-7.9,-13.6L-7.7,-15.0L-8.2,-18.3L-8.7,-22.7L-8.8,-27.1L-8.2,-30.7L-7.0,-33.1L-5.5,-34.4L-3.7,-35.0L-1.8,-35.2L-0.0,-35.2L1.8,-35.2L3.7,-35.1L5.6,-35.2L7.6,-35.8L10.0,-37.4L13.0,-40.0L16.6,-43.1L20.5,-46.1L24.3,-47.8L27.4,-47.4L29.2,-45.0L29.6,-40.8L29.1,-35.9L28.1,-31.2L27.4,-27.4L27.2,-24.5L27.7,-22.4L28.6,-20.8L29.6,-19.2L30.5,-17.6L31.4,-16.0L32.1,-14.3L32.6,-12.5L32.2,-10.5L30.7,-8.2L27.9,-5.9L24.0,-3.8L19.9,-2.1L16.9,-0.9L15.7,-0.0Z" fill="none" stroke="#fad4f3" stroke-width="5.1" stroke-linecap="round" opacity="0.15" filter="url(#tg)"/><path d="M15.7,0.0L16.9,0.9L19.9,2.1L24.0,3.8L27.9,5.9L30.7,8.2L32.2,10.5L32.6,12.5L32.1,14.3L31.4,16.0L30.5,17.6L29.6,19.2L28.6,20.8L27.7,22.4L27.2,24.5L27.4,27.4L28.1,31.2L29.1,35.9L29.6,40.8L29.2,45.0L27.4,47.4L24.3,47.8L20.5,46.1L16.6,43.1L13.0,40.0L10.0,37.4L7.6,35.8L5.6,35.2L3.7,35.1L1.8,35.2L0.0,35.2L-1.8,35.2L-3.7,35.0L-5.5,34.4L-7.0,33.1L-8.2,30.7L-8.8,27.1L-8.7,22.7L-8.2,18.3L-7.7,15.0L-7.9,13.6L-9.2,14.2L-11.8,16.2L-15.3,18.9L-19.1,21.2L-22.5,22.5L-25.2,22.7L-27.1,21.9L-28.5,20.7L-29.6,19.2L-30.5,17.6L-31.4,16.0L-32.3,14.4L-33.3,12.8L-34.8,11.3L-37.4,10.0L-41.1,8.7L-45.6,7.2L-50.2,5.3L-53.5,2.8L-54.8,0.0L-53.5,-2.8L-50.2,-5.3L-45.6,-7.2L-41.1,-8.7L-37.4,-10.0L-34.8,-11.3L-33.3,-12.8L-32.3,-14.4L-31.4,-16.0L-30.5,-17.6L-29.6,-19.2L-28.5,-20.7L-27.1,-21.9L-25.2,-22.7L-22.5,-22.5L-19.1,-21.2L-15.3,-18.9L-11.8,-16.2L-9.2,-14.2L-7.9,-13.6L-7.7,-15.0L-8.2,-18.3L-8.7,-22.7L-8.8,-27.1L-8.2,-30.7L-7.0,-33.1L-5.5,-34.4L-3.7,-35.0L-1.8,-35.2L-0.0,-35.2L1.8,-35.2L3.7,-35.1L5.6,-35.2L7.6,-35.8L10.0,-37.4L13.0,-40.0L16.6,-43.1L20.5,-46.1L24.3,-47.8L27.4,-47.4L29.2,-45.0L29.6,-40.8L29.1,-35.9L28.1,-31.2L27.4,-27.4L27.2,-24.5L27.7,-22.4L28.6,-20.8L29.6,-19.2L30.5,-17.6L31.4,-16.0L32.1,-14.3L32.6,-12.5L32.2,-10.5L30.7,-8.2L27.9,-5.9L24.0,-3.8L19.9,-2.1L16.9,-0.9L15.7,-0.0Z" fill="none" stroke="#fad4f3" stroke-width="1.7" stroke-linecap="round" opacity="0.95"/><path d="M39.6,0.0L38.4,2.0L35.1,3.7L30.7,4.9L26.3,5.6L22.7,6.1L20.4,6.6L19.1,7.3L18.4,8.2L17.9,9.1L17.4,10.0L16.8,10.9L16.2,11.8L15.3,12.4L13.9,12.5L11.8,11.8L8.9,9.9L5.7,7.1L2.9,4.0L0.9,1.5L0.3,0.5L0.8,1.5L2.0,4.5L3.3,8.5L4.1,12.7L4.3,16.1L3.9,18.3L3.1,19.5L2.1,19.9L1.1,20.1L0.0,20.1L-1.1,20.1L-2.1,20.0L-3.2,20.2L-4.5,21.0L-6.1,22.7L-8.3,25.5L-11.1,29.0L-14.4,32.2L-17.5,34.3L-19.8,34.3L-20.9,32.2L-20.7,28.5L-19.5,24.1L-18.0,20.0L-16.6,16.6L-15.9,14.4L-15.9,12.9L-16.3,11.8L-16.8,10.9L-17.4,10.0L-17.9,9.1L-18.3,8.1L-18.4,7.1L-17.8,5.8L-16.1,4.3L-13.0,2.8L-9.0,1.4L-4.9,0.5L-1.7,0.1L-0.6,0.0L-1.7,-0.1L-4.9,-0.5L-9.0,-1.4L-13.0,-2.8L-16.1,-4.3L-17.8,-5.8L-18.4,-7.1L-18.3,-8.1L-17.9,-9.1L-17.4,-10.0L-16.8,-10.9L-16.3,-11.8L-15.9,-12.9L-15.9,-14.4L-16.6,-16.6L-18.0,-20.0L-19.5,-24.1L-20.7,-28.5L-20.9,-32.2L-19.8,-34.3L-17.5,-34.3L-14.4,-32.2L-11.1,-29.0L-8.3,-25.5L-6.1,-22.7L-4.5,-21.0L-3.2,-20.2L-2.1,-20.0L-1.1,-20.1L-0.0,-20.1L1.1,-20.1L2.1,-19.9L3.1,-19.5L3.9,-18.3L4.3,-16.1L4.1,-12.7L3.3,-8.5L2.0,-4.5L0.8,-1.5L0.3,-0.5L0.9,-1.5L2.9,-4.0L5.7,-7.1L8.9,-9.9L11.8,-11.8L13.9,-12.5L15.3,-12.4L16.2,-11.8L16.8,-10.9L17.4,-10.0L17.9,-9.1L18.4,-8.2L19.1,-7.3L20.4,-6.6L22.7,-6.1L26.3,-5.6L30.7,-4.9L35.1,-3.7L38.4,-2.0L39.6,-0.0Z" fill="none" stroke="#c0e7ec" stroke-width="5.1" stroke-linecap="round" opacity="0.15" filter="url(#tg)"/><path d="M39.6,0.0L38.4,2.0L35.1,3.7L30.7,4.9L26.3,5.6L22.7,6.1L20.4,6.6L19.1,7.3L18.4,8.2L17.9,9.1L17.4,10.0L16.8,10.9L16.2,11.8L15.3,12.4L13.9,12.5L11.8,11.8L8.9,9.9L5.7,7.1L2.9,4.0L0.9,1.5L0.3,0.5L0.8,1.5L2.0,4.5L3.3,8.5L4.1,12.7L4.3,16.1L3.9,18.3L3.1,19.5L2.1,19.9L1.1,20.1L0.0,20.1L-1.1,20.1L-2.1,20.0L-3.2,20.2L-4.5,21.0L-6.1,22.7L-8.3,25.5L-11.1,29.0L-14.4,32.2L-17.5,34.3L-19.8,34.3L-20.9,32.2L-20.7,28.5L-19.5,24.1L-18.0,20.0L-16.6,16.6L-15.9,14.4L-15.9,12.9L-16.3,11.8L-16.8,10.9L-17.4,10.0L-17.9,9.1L-18.3,8.1L-18.4,7.1L-17.8,5.8L-16.1,4.3L-13.0,2.8L-9.0,1.4L-4.9,0.5L-1.7,0.1L-0.6,0.0L-1.7,-0.1L-4.9,-0.5L-9.0,-1.4L-13.0,-2.8L-16.1,-4.3L-17.8,-5.8L-18.4,-7.1L-18.3,-8.1L-17.9,-9.1L-17.4,-10.0L-16.8,-10.9L-16.3,-11.8L-15.9,-12.9L-15.9,-14.4L-16.6,-16.6L-18.0,-20.0L-19.5,-24.1L-20.7,-28.5L-20.9,-32.2L-19.8,-34.3L-17.5,-34.3L-14.4,-32.2L-11.1,-29.0L-8.3,-25.5L-6.1,-22.7L-4.5,-21.0L-3.2,-20.2L-2.1,-20.0L-1.1,-20.1L-0.0,-20.1L1.1,-20.1L2.1,-19.9L3.1,-19.5L3.9,-18.3L4.3,-16.1L4.1,-12.7L3.3,-8.5L2.0,-4.5L0.8,-1.5L0.3,-0.5L0.9,-1.5L2.9,-4.0L5.7,-7.1L8.9,-9.9L11.8,-11.8L13.9,-12.5L15.3,-12.4L16.2,-11.8L16.8,-10.9L17.4,-10.0L17.9,-9.1L18.4,-8.2L19.1,-7.3L20.4,-6.6L22.7,-6.1L26.3,-5.6L30.7,-4.9L35.1,-3.7L38.4,-2.0L39.6,-0.0Z" fill="none" stroke="#c0e7ec" stroke-width="1.7" stroke-linecap="round" opacity="0.95"/><path d="M-14.6,0.0L-13.4,-0.7L-10.2,-1.1L-6.0,-0.9L-1.8,-0.4L1.4,0.4L3.4,1.1L4.2,1.6L4.5,2.0L4.4,2.2L4.3,2.5L4.1,2.7L4.0,2.9L4.1,3.3L4.7,4.2L5.9,5.9L7.8,8.7L10.0,12.4L11.8,16.3L12.7,19.5L12.2,21.2L10.6,20.7L8.2,18.4L5.7,14.8L3.6,11.1L2.2,8.1L1.3,6.2L0.8,5.2L0.5,5.0L0.3,4.9L0.0,4.9L-0.3,4.9L-0.5,4.8L-0.7,4.5L-0.7,3.5L-0.4,1.4L0.6,-1.7L2.2,-5.6L4.2,-9.4L6.1,-12.0L7.3,-12.6L7.3,-11.3L6.0,-8.3L3.8,-4.7L1.2,-1.4L-1.0,1.0L-2.6,2.4L-3.5,2.9L-3.9,2.9L-4.1,2.7L-4.3,2.5L-4.4,2.2L-4.6,2.0L-5.0,1.9L-6.0,1.9L-8.1,2.2L-11.4,2.4L-15.7,2.5L-20.0,2.1L-23.3,1.2L-24.5,0.0L-23.3,-1.2L-20.0,-2.1L-15.7,-2.5L-11.4,-2.4L-8.1,-2.2L-6.0,-1.9L-5.0,-1.9L-4.6,-2.0L-4.4,-2.2L-4.3,-2.5L-4.1,-2.7L-3.9,-2.9L-3.5,-2.9L-2.6,-2.4L-1.0,-1.0L1.2,1.4L3.8,4.7L6.0,8.3L7.3,11.3L7.3,12.6L6.1,12.0L4.2,9.4L2.2,5.6L0.6,1.7L-0.4,-1.4L-0.7,-3.5L-0.7,-4.5L-0.5,-4.8L-0.3,-4.9L-0.0,-4.9L0.3,-4.9L0.5,-5.0L0.8,-5.2L1.3,-6.2L2.2,-8.1L3.6,-11.1L5.7,-14.8L8.2,-18.4L10.6,-20.7L12.2,-21.2L12.7,-19.5L11.8,-16.3L10.0,-12.4L7.8,-8.7L5.9,-5.9L4.7,-4.2L4.1,-3.3L4.0,-2.9L4.1,-2.7L4.3,-2.5L4.4,-2.2L4.5,-2.0L4.2,-1.6L3.4,-1.1L1.4,-0.4L-1.8,0.4L-6.0,0.9L-10.2,1.1L-13.4,0.7L-14.6,0.0Z" fill="none" stroke="#fad4f3" stroke-width="5.1" stroke-linecap="round" opacity="0.15" filter="url(#tg)"/><path d="M-14.6,0.0L-13.4,-0.7L-10.2,-1.1L-6.0,-0.9L-1.8,-0.4L1.4,0.4L3.4,1.1L4.2,1.6L4.5,2.0L4.4,2.2L4.3,2.5L4.1,2.7L4.0,2.9L4.1,3.3L4.7,4.2L5.9,5.9L7.8,8.7L10.0,12.4L11.8,16.3L12.7,19.5L12.2,21.2L10.6,20.7L8.2,18.4L5.7,14.8L3.6,11.1L2.2,8.1L1.3,6.2L0.8,5.2L0.5,5.0L0.3,4.9L0.0,4.9L-0.3,4.9L-0.5,4.8L-0.7,4.5L-0.7,3.5L-0.4,1.4L0.6,-1.7L2.2,-5.6L4.2,-9.4L6.1,-12.0L7.3,-12.6L7.3,-11.3L6.0,-8.3L3.8,-4.7L1.2,-1.4L-1.0,1.0L-2.6,2.4L-3.5,2.9L-3.9,2.9L-4.1,2.7L-4.3,2.5L-4.4,2.2L-4.6,2.0L-5.0,1.9L-6.0,1.9L-8.1,2.2L-11.4,2.4L-15.7,2.5L-20.0,2.1L-23.3,1.2L-24.5,0.0L-23.3,-1.2L-20.0,-2.1L-15.7,-2.5L-11.4,-2.4L-8.1,-2.2L-6.0,-1.9L-5.0,-1.9L-4.6,-2.0L-4.4,-2.2L-4.3,-2.5L-4.1,-2.7L-3.9,-2.9L-3.5,-2.9L-2.6,-2.4L-1.0,-1.0L1.2,1.4L3.8,4.7L6.0,8.3L7.3,11.3L7.3,12.6L6.1,12.0L4.2,9.4L2.2,5.6L0.6,1.7L-0.4,-1.4L-0.7,-3.5L-0.7,-4.5L-0.5,-4.8L-0.3,-4.9L-0.0,-4.9L0.3,-4.9L0.5,-5.0L0.8,-5.2L1.3,-6.2L2.2,-8.1L3.6,-11.1L5.7,-14.8L8.2,-18.4L10.6,-20.7L12.2,-21.2L12.7,-19.5L11.8,-16.3L10.0,-12.4L7.8,-8.7L5.9,-5.9L4.7,-4.2L4.1,-3.3L4.0,-2.9L4.1,-2.7L4.3,-2.5L4.4,-2.2L4.5,-2.0L4.2,-1.6L3.4,-1.1L1.4,-0.4L-1.8,0.4L-6.0,0.9L-10.2,1.1L-13.4,0.7L-14.6,0.0Z" fill="none" stroke="#fad4f3" stroke-width="1.7" stroke-linecap="round" opacity="0.95"/><path d="M9.3,0.0L8.1,0.4L4.9,0.5L0.7,0.1L-3.4,-0.7L-6.5,-1.8L-8.4,-2.7L-9.2,-3.5L-9.3,-4.1L-9.1,-4.6L-8.9,-5.1L-8.6,-5.6L-8.3,-6.0L-8.2,-6.7L-8.6,-7.8L-9.7,-9.7L-11.4,-12.6L-13.3,-16.5L-14.9,-20.6L-15.6,-24.0L-14.9,-25.8L-13.0,-25.5L-10.3,-23.2L-7.6,-19.8L-5.3,-16.2L-3.5,-13.2L-2.4,-11.3L-1.7,-10.5L-1.1,-10.2L-0.5,-10.2L-0.0,-10.2L0.5,-10.2L1.1,-10.1L1.5,-9.7L1.8,-8.7L1.8,-6.5L1.1,-3.3L-0.3,0.7L-2.0,4.5L-3.7,7.2L-4.6,8.1L-4.4,6.8L-2.9,4.0L-0.5,0.6L2.3,-2.6L4.8,-4.8L6.6,-5.9L7.7,-6.2L8.2,-6.0L8.6,-5.6L8.9,-5.1L9.1,-4.6L9.4,-4.2L9.9,-3.8L11.0,-3.6L13.2,-3.5L16.6,-3.5L20.9,-3.3L25.3,-2.7L28.5,-1.5L29.8,-0.0L28.5,1.5L25.3,2.7L20.9,3.3L16.6,3.5L13.2,3.5L11.0,3.6L9.9,3.8L9.4,4.2L9.1,4.6L8.9,5.1L8.6,5.6L8.2,6.0L7.7,6.2L6.6,5.9L4.8,4.8L2.3,2.6L-0.5,-0.6L-2.9,-4.0L-4.4,-6.8L-4.7,-8.1L-3.7,-7.2L-2.0,-4.5L-0.3,-0.7L1.1,3.3L1.8,6.5L1.8,8.7L1.5,9.7L1.1,10.1L0.5,10.2L0.0,10.2L-0.5,10.2L-1.1,10.2L-1.7,10.5L-2.4,11.3L-3.5,13.2L-5.3,16.2L-7.6,19.8L-10.3,23.2L-13.0,25.5L-14.9,25.8L-15.6,24.0L-14.9,20.6L-13.3,16.5L-11.4,12.6L-9.7,9.7L-8.6,7.8L-8.2,6.7L-8.3,6.0L-8.6,5.6L-8.9,5.1L-9.1,4.6L-9.3,4.1L-9.2,3.5L-8.4,2.7L-6.5,1.8L-3.4,0.7L0.7,-0.1L4.9,-0.5L8.1,-0.4L9.3,-0.0Z" fill="none" stroke="#c0e7ec" stroke-width="5.1" stroke-linecap="round" opacity="0.15" filter="url(#tg)"/><path d="M9.3,0.0L8.1,0.4L4.9,0.5L0.7,0.1L-3.4,-0.7L-6.5,-1.8L-8.4,-2.7L-9.2,-3.5L-9.3,-4.1L-9.1,-4.6L-8.9,-5.1L-8.6,-5.6L-8.3,-6.0L-8.2,-6.7L-8.6,-7.8L-9.7,-9.7L-11.4,-12.6L-13.3,-16.5L-14.9,-20.6L-15.6,-24.0L-14.9,-25.8L-13.0,-25.5L-10.3,-23.2L-7.6,-19.8L-5.3,-16.2L-3.5,-13.2L-2.4,-11.3L-1.7,-10.5L-1.1,-10.2L-0.5,-10.2L-0.0,-10.2L0.5,-10.2L1.1,-10.1L1.5,-9.7L1.8,-8.7L1.8,-6.5L1.1,-3.3L-0.3,0.7L-2.0,4.5L-3.7,7.2L-4.6,8.1L-4.4,6.8L-2.9,4.0L-0.5,0.6L2.3,-2.6L4.8,-4.8L6.6,-5.9L7.7,-6.2L8.2,-6.0L8.6,-5.6L8.9,-5.1L9.1,-4.6L9.4,-4.2L9.9,-3.8L11.0,-3.6L13.2,-3.5L16.6,-3.5L20.9,-3.3L25.3,-2.7L28.5,-1.5L29.8,-0.0L28.5,1.5L25.3,2.7L20.9,3.3L16.6,3.5L13.2,3.5L11.0,3.6L9.9,3.8L9.4,4.2L9.1,4.6L8.9,5.1L8.6,5.6L8.2,6.0L7.7,6.2L6.6,5.9L4.8,4.8L2.3,2.6L-0.5,-0.6L-2.9,-4.0L-4.4,-6.8L-4.7,-8.1L-3.7,-7.2L-2.0,-4.5L-0.3,-0.7L1.1,3.3L1.8,6.5L1.8,8.7L1.5,9.7L1.1,10.1L0.5,10.2L0.0,10.2L-0.5,10.2L-1.1,10.2L-1.7,10.5L-2.4,11.3L-3.5,13.2L-5.3,16.2L-7.6,19.8L-10.3,23.2L-13.0,25.5L-14.9,25.8L-15.6,24.0L-14.9,20.6L-13.3,16.5L-11.4,12.6L-9.7,9.7L-8.6,7.8L-8.2,6.7L-8.3,6.0L-8.6,5.6L-8.9,5.1L-9.1,4.6L-9.3,4.1L-9.2,3.5L-8.4,2.7L-6.5,1.8L-3.4,0.7L0.7,-0.1L4.9,-0.5L8.1,-0.4L9.3,-0.0Z" fill="none" stroke="#c0e7ec" stroke-width="1.7" stroke-linecap="round" opacity="0.95"/>
</svg>