<svg xmlns="http://www.w3.org/2000/svg" viewBox="-250 -250 500 500">
<defs><filter id="tg"><feGaussianBlur stdDeviation="5.9"/></filter></defs>
<rect x="-250" y="-250" width="500" height="500" fill="#000000"/>
<path d="M160.9,0.0L159.5,8.4L155.7,16.4L150.5,23.8L144.9,30.8L139.9,37.5L135.7,44.1L132.3,50.8L129.2,57.5L126.0,64.2L122.4,70.7L118.6,77.0L114.3,83.1L109.6,88.7L104.0,93.7L97.5,97.5L90.1,100.0L82.1,101.3L74.2,102.1L67.0,103.2L60.9,105.5L55.8,109.6L51.3,115.3L46.7,121.7L41.6,128.0L35.7,133.2L29.1,136.9L22.1,139.2L14.8,140.5L7.4,141.2L0.0,141.4L-7.4,141.2L-14.8,140.6L-22.2,140.0L-29.7,139.6L-37.5,139.9L-45.8,140.9L-54.6,142.2L-63.7,143.0L-72.5,142.3L-80.4,139.3L-87.0,133.9L-92.0,126.7L-95.9,118.4L-99.1,110.1L-102.4,102.4L-106.1,95.5L-110.2,89.2L-114.4,83.1L-118.6,77.0L-122.4,70.7L-126.0,64.2L-129.1,57.5L-131.6,50.5L-133.1,43.3L-133.2,35.7L-131.7,28.0L-128.8,20.4L-125.5,13.2L-122.8,6.4L-121.8,0.0L-122.8,-6.4L-125.5,-13.2L-128.8,-20.4L-131.7,-28.0L-133.2,-35.7L-133.1,-43.3L-131.6,-50.5L-129.1,-57.5L-126.0,-64.2L-122.4,-70.7L-118.6,-77.0L-114.4,-83.1L-110.2,-89.2L-106.1,-95.5L-102.4,-102.4L-99.1,-110.1L-95.9,-118.4L-92.0,-126.7L-87.0,-133.9L-80.4,-139.3L-72.5,-142.3L-63.7,-143.0L-54.6,-142.2L-45.8,-140.9L-37.5,-139.9L-29.7,-139.6L-22.2,-140.0L-14.8,-140.6L-7.4,-141.2L-0.0,-141.4L7.4,-141.2L14.8,-140.5L22.1,-139.2L29.1,-136.9L35.7,-133.2L41.6,-128.0L46.7,-121.7L51.3,-115.3L55.8,-109.6L60.9,-105.5L67.0,-103.2L74.2,-102.1L82.1,-101.3L90.1,-100.0L97.5,-97.5L104.0,-93.7L109.6,-88.7L114.3,-83.1L118.6,-77.0L122.4,-70.7L126.0,-64.2L129.2,-57.5L132.3,-50.8L135.7,-44.1L139.9,-37.5L144.9,-30.8L150.5,-23.8L155.7,-16.4L159.5,-8.4L160.9,-0.0Z" fill="none" stroke="#c9fac8" stroke-width="5.1" stroke-linecap="round" opacity="0.15" filter="url(#tg)"/><path d="M160.9,0.0L159.5,8.4L155.7,16.4L150.5,23.8L144.9,30.8L139.9,37.5L135.7,44.1L132.3,50.8L129.2,57.5L126.0,64.2L122.4,70.7L118.6,77.0L114.3,83.1L109.6,88.7L104.0,93.7L97.5,97.5L90.1,100.0L82.1,101.3L74.2,102.1L67.0,103.2L60.9,105.5L55.8,109.6L51.3,115.3L46.7,121.7L41.6,128.0L35.7,133.2L29.1,136.9L22.1,139.2L14.8,140.5L7.4,141.2L0.0,141.4L-7.4,141.2L-14.8,140.6L-22.2,140.0L-29.7,139.6L-37.5,139.9L-45.8,140.9L-54.6,142.2L-63.7,143.0L-72.5,142.3L-80.4,139.3L-87.0,133.9L-92.0,126.7L-95.9,118.4L-99.1,110.1L-102.4,102.4L-106.1,95.5L-110.2,89.2L-114.4,83.1L-118.6,77.0L-122.4,70.7L-126.0,64.2L-129.1,57.5L-131.6,50.5L-133.1,43.3L-133.2,35.7L-131.7,28.0L-128.8,20.4L-125.5,13.2L-122.8,6.4L-121.8,0.0L-122.8,-6.4L-125.5,-13.2L-128.8,-20.4L-131.7,-28.0L-133.2,-35.7L-133.1,-43.3L-131.6,-50.5L-129.1,-57.5L-126.0,-64.2L-122.4,-70.7L-118.6,-77.0L-114.4,-83.1L-110.2,-89.2L-106.1,-95.5L-102.4,-102.4L-99.1,-110.1L-95.9,-118.4L-92.0,-126.7L-87.0,-133.9L-80.4,-139.3L-72.5,-142.3L-63.7,-143.0L-54.6,-142.2L-45.8,-140.9L-37.5,-139.9L-29.7,-139.6L-22.2,-140.0L-14.8,-140.6L-7.4,-141.2L-0.0,-141.4L7.4,-141.2L14.8,-140.5L22.1,-139.2L29.1,-136.9L35.7,-133.2L41.6,-128.0L46.7,-121.7L51.3,-115.3L55.8,-109.6L60.9,-105.5L67.0,-103.2L74.2,-102.1L82.1,-101.3L90.1,-100.0L97.5,-97.5L104.0,-93.7L109.6,-88.7L114.3,-83.1L118.6,-77.0L122.4,-70.7L126.0,-64.2L129.2,-57.5L132.3,-50.8L135.7,-44.1L139.9,-37.5L144.9,-30.8L150.5,-23.8L155.7,-16.4L159.5,-8.4L160.9,-0.0Z" fill="none" stroke="#c9fac8" stroke-width="1.7" stroke-linecap="round" opacity="0.95"/><path d="M145.4,0.0L143.0,7.5L138.6,14.6L133.3,21.1L128.3,27.3L124.1,33.2L120.7,39.2L118.0,45.3L115.3,51.3L112.4,57.3L109.3,63.1L105.8,68.7L102.0,74.1L97.5,78.9L92.1,82.9L85.7,85.7L78.6,87.2L71.1,87.9L64.2,88.4L58.3,89.7L53.5,92.6L49.6,97.3L46.0,103.3L42.1,109.6L37.5,115.3L32.1,119.7L26.1,122.7L19.7,124.5L13.2,125.5L6.6,126.0L0.0,126.2L-6.6,126.0L-13.2,125.7L-19.9,125.4L-26.7,125.7L-33.9,126.7L-41.7,128.4L-49.9,130.1L-58.2,130.8L-66.0,129.6L-72.7,125.9L-78.0,120.1L-81.9,112.7L-85.0,104.9L-87.8,97.5L-90.8,90.8L-94.4,85.0L-98.2,79.5L-102.1,74.2L-105.8,68.7L-109.3,63.1L-112.4,57.3L-115.1,51.3L-117.1,45.0L-117.9,38.3L-117.1,31.4L-114.8,24.4L-111.7,17.7L-108.6,11.4L-106.8,5.6L-107.0,0.0L-109.1,-5.7L-112.4,-11.8L-116.0,-18.4L-118.6,-25.2L-119.7,-32.1L-119.3,-38.8L-117.7,-45.2L-115.3,-51.3L-112.4,-57.3L-109.3,-63.1L-105.9,-68.7L-102.2,-74.3L-98.7,-79.9L-95.5,-86.0L-92.7,-92.7L-90.3,-100.3L-87.7,-108.3L-84.2,-115.8L-79.2,-122.0L-72.7,-125.9L-65.0,-127.6L-56.7,-127.3L-48.4,-126.0L-40.5,-124.7L-33.2,-124.1L-26.4,-124.2L-19.8,-124.8L-13.2,-125.5L-6.6,-126.0L-0.0,-126.2L6.6,-126.0L13.2,-125.4L19.6,-123.9L25.8,-121.2L31.4,-117.1L36.3,-111.7L40.5,-105.5L44.4,-99.8L48.6,-95.3L53.5,-92.6L59.5,-91.6L66.5,-91.5L73.9,-91.2L81.1,-90.1L87.6,-87.6L93.2,-83.9L98.0,-79.3L102.1,-74.2L105.8,-68.7L109.3,-63.1L112.5,-57.3L115.4,-51.4L118.5,-45.5L122.2,-39.7L126.7,-33.9L132.1,-28.1L137.6,-21.8L142.4,-15.0L145.2,-7.6L145.4,-0.0Z" fill="none" stroke="#c3d0f8" stroke-width="5.1" stroke-linecap="round" opacity="0.15" filter="url(#tg)"/><path d="M145.4,0.0L143.0,7.5L138.6,14.6L133.3,21.1L128.3,27.3L124.1,33.2L120.7,39.2L118.0,45.3L115.3,51.3L112.4,57.3L109.3,63.1L105.8,68.7L102.0,74.1L97.5,78.9L92.1,82.9L85.7,85.7L78.6,87.2L71.1,87.9L64.2,88.4L58.3,89.7L53.5,92.6L49.6,97.3L46.0,103.3L42.1,109.6L37.5,115.3L32.1,119.7L26.1,122.7L19.7,124.5L13.2,125.5L6.6,126.0L0.0,126.2L-6.6,126.0L-13.2,125.7L-19.9,125.4L-26.7,125.7L-33.9,126.7L-41.7,128.4L-49.9,130.1L-58.2,130.8L-66.0,129.6L-72.7,125.9L-78.0,120.1L-81.9,112.7L-85.0,104.9L-87.8,97.5L-90.8,90.8L-94.4,85.0L-98.2,79.5L-102.1,74.2L-105.8,68.7L-109.3,63.1L-112.4,57.3L-115.1,51.3L-117.1,45.0L-117.9,38.3L-117.1,31.4L-114.8,24.4L-111.7,17.7L-108.6,11.4L-106.8,5.6L-107.0,0.0L-109.1,-5.7L-112.4,-11.8L-116.0,-18.4L-118.6,-25.2L-119.7,-32.1L-119.3,-38.8L-117.7,-45.2L-115.3,-51.3L-112.4,-57.3L-109.3,-63.1L-105.9,-68.7L-102.2,-74.3L-98.7,-79.9L-95.5,-86.0L-92.7,-92.7L-90.3,-100.3L-87.7,-108.3L-84.2,-115.8L-79.2,-122.0L-72.7,-125.9L-65.0,-127.6L-56.7,-127.3L-48.4,-126.0L-40.5,-124.7L-33.2,-124.1L-26.4,-124.2L-19.8,-124.8L-13.2,-125.5L-6.6,-126.0L-0.0,-126.2L6.6,-126.0L13.2,-125.4L19.6,-123.9L25.8,-121.2L31.4,-117.1L36.3,-111.7L40.5,-105.5L44.4,-99.8L48.6,-95.3L53.5,-92.6L59.5,-91.6L66.5,-91.5L73.9,-91.2L81.1,-90.1L87.6,-87.6L93.2,-83.9L98.0,-79.3L102.1,-74.2L105.8,-68.7L109.3,-63.1L112.5,-57.3L115.4,-51.4L118.5,-45.5L122.2,-39.7L126.7,-33.9L132.1,-28.1L137.6,-21.8L142.4,-15.0L145.2,-7.6L145.4,-0.0Z" fill="none" stroke="#c3d0f8" stroke-width="1.7" stroke-linecap="round" opacity="0.95"/><path d="M129.4,0.0L126.1,6.6L121.3,12.8L116.4,18.4L112.0,23.8L108.6,29.1L106.0,34.4L103.7,39.8L101.4,45.2L98.9,50.4L96.2,55.5L93.1,60.4L89.5,65.0L85.2,69.0L80.0,72.0L73.7,73.7L67.0,74.4L60.3,74.5L54.5,75.0L49.8,76.7L46.3,80.3L43.5,85.4L40.7,91.4L37.4,97.3L33.2,102.3L28.4,105.9L23.0,108.2L17.4,109.6L11.6,110.4L5.8,110.9L0.0,111.0L-5.8,110.9L-11.6,110.8L-17.6,111.0L-23.8,112.0L-30.5,113.8L-37.7,116.0L-45.2,117.9L-52.6,118.2L-59.3,116.3L-64.7,112.1L-68.8,105.9L-71.7,98.7L-74.1,91.6L-76.6,85.1L-79.5,79.5L-82.8,74.6L-86.3,69.9L-89.8,65.3L-93.1,60.5L-96.2,55.5L-98.9,50.4L-101.1,45.0L-102.4,39.3L-102.3,33.2L-100.7,27.0L-97.9,20.8L-94.7,15.0L-92.2,9.7L-91.4,4.8L-92.7,0.0L-95.7,-5.0L-99.5,-10.5L-103.0,-16.3L-105.2,-22.4L-105.9,-28.4L-105.2,-34.2L-103.6,-39.8L-101.4,-45.2L-98.9,-50.4L-96.2,-55.5L-93.2,-60.5L-90.1,-65.5L-87.4,-70.7L-85.1,-76.6L-83.3,-83.3L-81.6,-90.7L-79.4,-98.1L-76.1,-104.7L-71.1,-109.5L-64.7,-112.1L-57.3,-112.5L-49.6,-111.5L-42.2,-110.0L-35.4,-108.9L-29.1,-108.6L-23.2,-109.0L-17.4,-109.7L-11.6,-110.4L-5.8,-110.9L-0.0,-111.0L5.8,-110.8L11.6,-110.1L17.2,-108.3L22.4,-105.2L27.0,-100.7L30.9,-95.2L34.3,-89.5L37.7,-84.7L41.5,-81.5L46.3,-80.3L52.2,-80.4L58.8,-81.0L65.6,-81.0L72.0,-80.0L77.5,-77.5L82.2,-74.0L86.3,-69.8L89.8,-65.3L93.1,-60.5L96.2,-55.5L99.0,-50.4L101.8,-45.3L104.9,-40.3L108.9,-35.4L113.8,-30.5L119.3,-25.4L124.7,-19.7L128.7,-13.5L130.4,-6.8L129.4,-0.0Z" fill="none" stroke="#c9fac8" stroke-width="5.1" stroke-linecap="round" opacity="0.15" filter="url(#tg)"/><path d="M129.4,0.0L126.1,6.6L121.3,12.8L116.4,18.4L112.0,23.8L108.6,29.1L106.0,34.4L103.7,39.8L101.4,45.2L98.9,50.4L96.2,55.5L93.1,60.4L89.5,65.0L85.2,69.0L80.0,72.0L73.7,73.7L67.0,74.4L60.3,74.5L54.5,75.0L49.8,76.7L46.3,80.3L43.5,85.4L40.7,91.4L37.4,97.3L33.2,102.3L28.4,105.9L23.0,108.2L17.4,109.6L11.6,110.4L5.8,110.9L0.0,111.0L-5.8,110.9L-11.6,110.8L-17.6,111.0L-23.8,112.0L-30.5,113.8L-37.7,116.0L-45.2,117.9L-52.6,118.2L-59.3,116.3L-64.7,112.1L-68.8,105.9L-71.7,98.7L-74.1,91.6L-76.6,85.1L-79.5,79.5L-82.8,74.6L-86.3,69.9L-89.8,65.3L-93.1,60.5L-96.2,55.5L-98.9,50.4L-101.1,45.0L-102.4,39.3L-102.3,33.2L-100.7,27.0L-97.9,20.8L-94.7,15.0L-92.2,9.7L-91.4,4.8L-92.7,0.0L-95.7,-5.0L-99.5,-10.5L-103.0,-16.3L-105.2,-22.4L-105.9,-28.4L-105.2,-34.2L-103.6,-39.8L-101.4,-45.2L-98.9,-50.4L-96.2,-55.5L-93.2,-60.5L-90.1,-65.5L-87.4,-70.7L-85.1,-76.6L-83.3,-83.3L-81.6,-90.7L-79.4,-98.1L-76.1,-104.7L-71.1,-109.5L-64.7,-112.1L-57.3,-112.5L-49.6,-111.5L-42.2,-110.0L-35.4,-108.9L-29.1,-108.6L-23.2,-109.0L-17.4,-109.7L-11.6,-110.4L-5.8,-110.9L-0.0,-111.0L5.8,-110.8L11.6,-110.1L17.2,-108.3L22.4,-105.2L27.0,-100.7L30.9,-95.2L34.3,-89.5L37.7,-84.7L41.5,-81.5L46.3,-80.3L52.2,-80.4L58.8,-81.0L65.6,-81.0L72.0,-80.0L77.5,-77.5L82.2,-74.0L86.3,-69.8L89.8,-65.3L93.1,-60.5L96.2,-55.5L99.0,-50.4L101.8,-45.3L104.9,-40.3L108.9,-35.4L113.8,-30.5L119.3,-25.4L124.7,-19.7L128.7,-13.5L130.4,-6.8L129.4,-0.0Z" fill="none" stroke="#c9fac8" stroke-width="1.7" stroke-linecap="round" opacity="0.95"/><path d="M112.9,0.0L108.9,5.7L104.1,10.9L99.6,15.8L96.0,20.4L93.4,25.0L91.3,29.7L89.5,34.4L87.6,39.0L85.4,43.5L83.0,47.9L80.3,52.1L77.0,55.9L72.8,58.9L67.6,60.8L61.6,61.6L55.4,61.5L49.7,61.3L45.1,62.0L41.7,64.3L39.5,68.3L37.6,73.7L35.4,79.6L32.6,84.9L28.9,89.0L24.6,91.9L19.9,93.6L15.0,94.7L10.0,95.4L5.0,95.8L0.0,95.9L-5.0,95.9L-10.1,96.1L-15.4,96.9L-21.0,98.6L-27.1,101.1L-33.7,103.7L-40.4,105.4L-46.8,105.2L-52.3,102.6L-56.4,97.7L-59.4,91.4L-61.5,84.7L-63.5,78.4L-65.7,72.9L-68.3,68.3L-71.4,64.3L-74.5,60.3L-77.6,56.4L-80.4,52.2L-83.0,47.9L-85.3,43.5L-86.9,38.7L-87.4,33.6L-86.5,28.1L-84.1,22.5L-80.9,17.2L-77.9,12.3L-76.2,8.0L-76.5,4.0L-78.9,0.0L-82.6,-4.3L-86.6,-9.1L-89.8,-14.2L-91.6,-19.5L-91.9,-24.6L-91.0,-29.6L-89.5,-34.4L-87.6,-39.0L-85.4,-43.5L-83.0,-47.9L-80.5,-52.3L-78.2,-56.8L-76.3,-61.8L-74.9,-67.5L-74.0,-74.0L-73.0,-81.0L-71.0,-87.7L-67.7,-93.1L-62.7,-96.5L-56.4,-97.7L-49.5,-97.1L-42.6,-95.6L-36.1,-94.1L-30.3,-93.3L-25.0,-93.4L-20.0,-93.9L-15.0,-94.7L-10.0,-95.4L-5.0,-95.8L-0.0,-95.9L5.0,-95.6L9.9,-94.6L14.6,-92.5L18.9,-88.9L22.5,-84.1L25.6,-78.7L28.3,-73.7L31.2,-70.0L34.8,-68.3L39.5,-68.3L45.1,-69.4L51.2,-70.5L57.2,-70.7L62.6,-69.6L67.3,-67.3L71.1,-64.1L74.5,-60.3L77.6,-56.4L80.4,-52.2L83.0,-47.9L85.6,-43.6L88.3,-39.3L91.6,-35.2L95.9,-31.2L101.1,-27.1L106.6,-22.7L111.5,-17.7L114.5,-12.0L115.0,-6.0L112.9,-0.0Z" fill="none" stroke="#c3d0f8" stroke-width="5.1" stroke-linecap="round" opacity="0.15" filter="url(#tg)"/><path d="M112.9,0.0L108.9,5.7L104.1,10.9L99.6,15.8L96.0,20.4L93.4,25.0L91.3,29.7L89.5,34.4L87.6,39.0L85.4,43.5L83.0,47.9L80.3,52.1L77.0,55.9L72.8,58.9L67.6,60.8L61.6,61.6L55.4,61.5L49.7,61.3L45.1,62.0L41.7,64.3L39.5,68.3L37.6,73.7L35.4,79.6L32.6,84.9L28.9,89.0L24.6,91.9L19.9,93.6L15.0,94.7L10.0,95.4L5.0,95.8L0.0,95.9L-5.0,95.9L-10.1,96.1L-15.4,96.9L-21.0,98.6L-27.1,101.1L-33.7,103.7L-40.4,105.4L-46.8,105.2L-52.3,102.6L-56.4,97.7L-59.4,91.4L-61.5,84.7L-63.5,78.4L-65.7,72.9L-68.3,68.3L-71.4,64.3L-74.5,60.3L-77.6,56.4L-80.4,52.2L-83.0,47.9L-85.3,43.5L-86.9,38.7L-87.4,33.6L-86.5,28.1L-84.1,22.5L-80.9,17.2L-77.9,12.3L-76.2,8.0L-76.5,4.0L-78.9,0.0L-82.6,-4.3L-86.6,-9.1L-89.8,-14.2L-91.6,-19.5L-91.9,-24.6L-91.0,-29.6L-89.5,-34.4L-87.6,-39.0L-85.4,-43.5L-83.0,-47.9L-80.5,-52.3L-78.2,-56.8L-76.3,-61.8L-74.9,-67.5L-74.0,-74.0L-73.0,-81.0L-71.0,-87.7L-67.7,-93.1L-62.7,-96.5L-56.4,-97.7L-49.5,-97.1L-42.6,-95.6L-36.1,-94.1L-30.3,-93.3L-25.0,-93.4L-20.0,-93.9L-15.0,-94.7L-10.0,-95.4L-5.0,-95.8L-0.0,-95.9L5.0,-95.6L9.9,-94.6L14.6,-92.5L18.9,-88.9L22.5,-84.1L25.6,-78.7L28.3,-73.7L31.2,-70.0L34.8,-68.3L39.5,-68.3L45.1,-69.4L51.2,-70.5L57.2,-70.7L62.6,-69.6L67.3,-67.3L71.1,-64.1L74.5,-60.3L77.6,-56.4L80.4,-52.2L83.0,-47.9L85.6,-43.6L88.3,-39.3L91.6,-35.2L95.9,-31.2L101.1,-27.1L106.6,-22.7L111.5,-17.7L114.5,-12.0L115.0,-6.0L112.9,-0.0Z" fill="none" stroke="#c3d0f8" stroke-width="1.7" stroke-linecap="round" opacity="0.95"/><path d="M95.9,0.0L91.6,4.8L87.0,9.1L83.1,13.2L80.3,17.1L78.3,21.0L76.8,25.0L75.4,28.9L73.7,32.8L71.9,36.6L69.9,40.3L67.4,43.8L64.2,46.6L60.1,48.6L55.0,49.5L49.3,49.3L43.8,48.7L39.2,48.5L36.0,49.5L34.0,52.3L32.8,56.7L31.7,62.2L30.1,67.6L27.7,72.1L24.5,75.5L20.8,77.6L16.8,78.9L12.6,79.7L8.4,80.3L4.2,80.6L0.0,80.8L-4.2,81.0L-8.6,81.6L-13.2,83.1L-18.2,85.6L-23.7,88.6L-29.6,91.2L-35.5,92.5L-40.8,91.6L-45.0,88.3L-48.0,83.1L-49.9,76.9L-51.4,70.8L-53.0,65.4L-54.9,61.0L-57.3,57.3L-60.0,54.1L-62.7,50.8L-65.3,47.4L-67.7,44.0L-69.9,40.3L-71.6,36.5L-72.5,32.3L-72.1,27.7L-70.3,22.9L-67.4,18.1L-64.1,13.6L-61.6,9.8L-60.9,6.4L-62.3,3.3L-65.5,0.0L-69.7,-3.7L-73.6,-7.7L-76.3,-12.1L-77.6,-16.5L-77.6,-20.8L-76.7,-24.9L-75.4,-28.9L-73.7,-32.8L-71.9,-36.6L-70.0,-40.4L-68.0,-44.2L-66.4,-48.3L-65.4,-53.0L-65.0,-58.5L-64.8,-64.8L-64.2,-71.3L-62.4,-77.0L-58.9,-81.1L-54.0,-83.1L-48.0,-83.1L-41.6,-81.7L-35.6,-79.9L-30.2,-78.6L-25.4,-78.1L-21.0,-78.3L-16.8,-79.0L-12.6,-79.7L-8.4,-80.3L-4.2,-80.6L-0.0,-80.7L4.2,-80.2L8.3,-78.9L12.1,-76.3L15.4,-72.3L18.1,-67.4L20.2,-62.3L22.4,-58.2L24.9,-55.9L28.3,-55.6L32.8,-56.7L38.0,-58.5L43.5,-59.8L48.6,-60.1L53.1,-59.0L56.8,-56.8L59.9,-54.0L62.7,-50.8L65.3,-47.4L67.7,-44.0L70.0,-40.4L72.3,-36.8L75.0,-33.4L78.6,-30.2L83.2,-27.0L88.6,-23.7L93.8,-19.9L97.9,-15.5L99.7,-10.5L98.9,-5.2L95.9,-0.0Z" fill="none" stroke="#c9fac8" stroke-width="5.1" stroke-linecap="round" opacity="0.15" filter="url(#tg)"/><path d="M95.9,0.0L91.6,4.8L87.0,9.1L83.1,13.2L80.3,17.1L78.3,21.0L76.8,25.0L75.4,28.9L73.7,32.8L71.9,36.6L69.9,40.3L67.4,43.8L64.2,46.6L60.1,48.6L55.0,49.5L49.3,49.3L43.8,48.7L39.2,48.5L36.0,49.5L34.0,52.3L32.8,56.7L31.7,62.2L30.1,67.6L27.7,72.1L24.5,75.5L20.8,77.6L16.8,78.9L12.6,79.7L8.4,80.3L4.2,80.6L0.0,80.8L-4.2,81.0L-8.6,81.6L-13.2,83.1L-18.2,85.6L-23.7,88.6L-29.6,91.2L-35.5,92.5L-40.8,91.6L-45.0,88.3L-48.0,83.1L-49.9,76.9L-51.4,70.8L-53.0,65.4L-54.9,61.0L-57.3,57.3L-60.0,54.1L-62.7,50.8L-65.3,47.4L-67.7,44.0L-69.9,40.3L-71.6,36.5L-72.5,32.3L-72.1,27.7L-70.3,22.9L-67.4,18.1L-64.1,13.6L-61.6,9.8L-60.9,6.4L-62.3,3.3L-65.5,0.0L-69.7,-3.7L-73.6,-7.7L-76.3,-12.1L-77.6,-16.5L-77.6,-20.8L-76.7,-24.9L-75.4,-28.9L-73.7,-32.8L-71.9,-36.6L-70.0,-40.4L-68.0,-44.2L-66.4,-48.3L-65.4,-53.0L-65.0,-58.5L-64.8,-64.8L-64.2,-71.3L-62.4,-77.0L-58.9,-81.1L-54.0,-83.1L-48.0,-83.1L-41.6,-81.7L-35.6,-79.9L-30.2,-78.6L-25.4,-78.1L-21.0,-78.3L-16.8,-79.0L-12.6,-79.7L-8.4,-80.3L-4.2,-80.6L-0.0,-80.7L4.2,-80.2L8.3,-78.9L12.1,-76.3L15.4,-72.3L18.1,-67.4L20.2,-62.3L22.4,-58.2L24.9,-55.9L28.3,-55.6L32.8,-56.7L38.0,-58.5L43.5,-59.8L48.6,-60.1L53.1,-59.0L56.8,-56.8L59.9,-54.0L62.7,-50.8L65.3,-47.4L67.7,-44.0L70.0,-40.4L72.3,-36.8L75.0,-33.4L78.6,-30.2L83.2,-27.0L88.6,-23.7L93.8,-19.9L97.9,-15.5L99.7,-10.5L98.9,-5.2L95.9,-0.0Z" fill="none" stroke="#c9fac8" stroke-width="1.7" stroke-linecap="round" opacity="0.95"/><path d="M78.7,0.0L74.3,3.9L70.1,7.4L67.0,10.6L64.9,13.8L63.5,17.0L62.4,20.3L61.2,23.5L59.9,26.7L58.4,29.8L56.6,32.7L54.3,35.3L51.2,37.2L47.1,38.1L42.2,38.0L37.1,37.1L32.5,36.1L29.2,36.0L27.2,37.5L26.5,40.7L26.2,45.4L25.8,50.6L24.6,55.4L22.7,59.1L20.0,61.6L16.9,63.2L13.6,64.1L10.3,64.8L6.9,65.2L3.4,65.5L0.0,65.7L-3.5,66.2L-7.1,67.4L-11.0,69.7L-15.5,72.7L-20.4,76.0L-25.5,78.5L-30.4,79.2L-34.5,77.5L-37.5,73.5L-39.4,68.2L-40.5,62.4L-41.5,57.1L-42.7,52.7L-44.4,49.3L-46.5,46.5L-48.7,43.9L-51.0,41.3L-53.0,38.5L-55.0,35.7L-56.6,32.7L-57.7,29.4L-57.8,25.7L-56.6,21.7L-54.0,17.5L-50.6,13.6L-47.5,10.1L-45.8,7.2L-46.1,4.8L-48.5,2.5L-52.4,0.0L-56.7,-3.0L-60.3,-6.3L-62.5,-9.9L-63.4,-13.5L-63.2,-16.9L-62.3,-20.3L-61.2,-23.5L-59.9,-26.7L-58.4,-29.8L-56.9,-32.9L-55.6,-36.1L-54.9,-39.9L-54.8,-44.4L-55.3,-49.8L-55.7,-55.7L-55.2,-61.3L-53.4,-65.9L-49.8,-68.6L-45.0,-69.2L-39.4,-68.2L-33.8,-66.3L-28.7,-64.4L-24.3,-63.3L-20.5,-63.1L-17.0,-63.5L-13.6,-64.1L-10.3,-64.8L-6.9,-65.2L-3.4,-65.5L-0.0,-65.4L3.4,-64.7L6.6,-63.0L9.5,-59.9L11.8,-55.5L13.6,-50.6L15.0,-46.2L16.6,-43.3L18.8,-42.3L22.1,-43.3L26.2,-45.4L30.9,-47.6L35.6,-49.0L39.8,-49.2L43.4,-48.2L46.2,-46.2L48.7,-43.9L51.0,-41.3L53.0,-38.5L55.0,-35.7L56.9,-32.9L59.1,-30.1L62.0,-27.6L65.8,-25.3L70.7,-23.0L76.0,-20.4L80.7,-17.2L83.8,-13.3L84.3,-8.9L82.4,-4.3L78.7,-0.0Z" fill="none" stroke="#c3d0f8" stroke-width="5.1" stroke-linecap="round" opacity="0.15" filter="url(#tg)"/><path d="M78.7,0.0L74.3,3.9L70.1,7.4L67.0,10.6L64.9,13.8L63.5,17.0L62.4,20.3L61.2,23.5L59.9,26.7L58.4,29.8L56.6,32.7L54.3,35.3L51.2,37.2L47.1,38.1L42.2,38.0L37.1,37.1L32.5,36.1L29.2,36.0L27.2,37.5L26.5,40.7L26.2,45.4L25.8,50.6L24.6,55.4L22.7,59.1L20.0,61.6L16.9,63.2L13.6,64.1L10.3,64.8L6.9,65.2L3.4,65.5L0.0,65.7L-3.5,66.2L-7.1,67.4L-11.0,69.7L-15.5,72.7L-20.4,76.0L-25.5,78.5L-30.4,79.2L-34.5,77.5L-37.5,73.5L-39.4,68.2L-40.5,62.4L-41.5,57.1L-42.7,52.7L-44.4,49.3L-46.5,46.5L-48.7,43.9L-51.0,41.3L-53.0,38.5L-55.0,35.7L-56.6,32.7L-57.7,29.4L-57.8,25.7L-56.6,21.7L-54.0,17.5L-50.6,13.6L-47.5,10.1L-45.8,7.2L-46.1,4.8L-48.5,2.5L-52.4,0.0L-56.7,-3.0L-60.3,-6.3L-62.5,-9.9L-63.4,-13.5L-63.2,-16.9L-62.3,-20.3L-61.2,-23.5L-59.9,-26.7L-58.4,-29.8L-56.9,-32.9L-55.6,-36.1L-54.9,-39.9L-54.8,-44.4L-55.3,-49.8L-55.7,-55.7L-55.2,-61.3L-53.4,-65.9L-49.8,-68.6L-45.0,-69.2L-39.4,-68.2L-33.8,-66.3L-28.7,-64.4L-24.3,-63.3L-20.5,-63.1L-17.0,-63.5L-13.6,-64.1L-10.3,-64.8L-6.9,-65.2L-3.4,-65.5L-0.0,-65.4L3.4,-64.7L6.6,-63.0L9.5,-59.9L11.8,-55.5L13.6,-50.6L15.0,-46.2L16.6,-43.3L18.8,-42.3L22.1,-43.3L26.2,-45.4L30.9,-47.6L35.6,-49.0L39.8,-49.2L43.4,-48.2L46.2,-46.2L48.7,-43.9L51.0,-41.3L53.0,-38.5L55.0,-35.7L56.9,-32.9L59.1,-30.1L62.0,-27.6L65.8,-25.3L70.7,-23.0L76.0,-20.4L80.7,-17.2L83.8,-13.3L84.3,-8.9L82.4,-4.3L78.7,-0.0Z" fill="none" stroke="#c3d0f8" stroke-width="1.7" stroke-linecap="round" opacity="0.95"/><path d="M61.4,0.0L57.1,3.0L53.6,5.6L51.1,8.1L49.7,10.6L48.7,13.1L47.9,15.6L47.1,18.1L46.0,20.5L44.9,22.9L43.3,25.0L41.1,26.7L38.0,27.6L33.9,27.5L29.3,26.4L24.9,24.9L21.4,23.8L19.4,24.0L18.8,25.9L19.2,29.5L19.7,34.2L19.8,38.9L19.1,42.9L17.6,45.8L15.5,47.6L13.0,48.6L10.5,49.3L7.9,49.8L5.3,50.1L2.6,50.4L0.0,50.8L-2.7,51.7L-5.6,53.6L-8.9,56.5L-12.8,60.0L-17.0,63.4L-21.2,65.4L-25.1,65.3L-28.0,62.8L-29.8,58.5L-30.7,53.2L-31.1,48.0L-31.7,43.6L-32.6,40.2L-34.0,37.7L-35.7,35.7L-37.5,33.7L-39.2,31.7L-40.8,29.6L-42.2,27.4L-43.3,25.0L-43.7,22.3L-42.9,19.1L-40.7,15.6L-37.5,12.2L-34.0,9.1L-31.3,6.7L-30.5,4.8L-31.9,3.4L-35.2,1.8L-39.4,0.0L-43.6,-2.3L-46.7,-4.9L-48.4,-7.7L-48.9,-10.4L-48.6,-13.0L-47.9,-15.6L-47.1,-18.1L-46.0,-20.5L-45.0,-22.9L-44.0,-25.4L-43.4,-28.2L-43.6,-31.7L-44.4,-36.0L-45.6,-41.1L-46.4,-46.4L-46.0,-51.1L-44.0,-54.4L-40.4,-55.6L-35.7,-55.0L-30.7,-53.2L-26.0,-50.9L-21.9,-49.2L-18.6,-48.3L-15.7,-48.3L-13.1,-48.7L-10.5,-49.3L-7.9,-49.8L-5.3,-50.1L-2.6,-50.3L-0.0,-50.0L2.6,-49.0L4.9,-46.7L6.8,-43.1L8.2,-38.6L9.1,-34.0L9.9,-30.5L11.1,-28.8L13.0,-29.3L16.0,-31.4L19.7,-34.2L23.8,-36.6L27.6,-38.0L30.9,-38.1L33.5,-37.2L35.6,-35.6L37.5,-33.7L39.2,-31.7L40.8,-29.6L42.3,-27.5L44.0,-25.4L46.1,-23.5L49.2,-21.9L53.4,-20.5L58.4,-19.0L63.4,-17.0L67.3,-14.3L69.1,-10.9L68.4,-7.2L65.5,-3.4L61.4,-0.0Z" fill="none" stroke="#c9fac8" stroke-width="5.1" stroke-linecap="round" opacity="0.15" filter="url(#tg)"/><path d="M61.4,0.0L57.1,3.0L53.6,5.6L51.1,8.1L49.7,10.6L48.7,13.1L47.9,15.6L47.1,18.1L46.0,20.5L44.9,22.9L43.3,25.0L41.1,26.7L38.0,27.6L33.9,27.5L29.3,26.4L24.9,24.9L21.4,23.8L19.4,24.0L18.8,25.9L19.2,29.5L19.7,34.2L19.8,38.9L19.1,42.9L17.6,45.8L15.5,47.6L13.0,48.6L10.5,49.3L7.9,49.8L5.3,50.1L2.6,50.4L0.0,50.8L-2.7,51.7L-5.6,53.6L-8.9,56.5L-12.8,60.0L-17.0,63.4L-21.2,65.4L-25.1,65.3L-28.0,62.8L-29.8,58.5L-30.7,53.2L-31.1,48.0L-31.7,43.6L-32.6,40.2L-34.0,37.7L-35.7,35.7L-37.5,33.7L-39.2,31.7L-40.8,29.6L-42.2,27.4L-43.3,25.0L-43.7,22.3L-42.9,19.1L-40.7,15.6L-37.5,12.2L-34.0,9.1L-31.3,6.7L-30.5,4.8L-31.9,3.4L-35.2,1.8L-39.4,0.0L-43.6,-2.3L-46.7,-4.9L-48.4,-7.7L-48.9,-10.4L-48.6,-13.0L-47.9,-15.6L-47.1,-18.1L-46.0,-20.5L-45.0,-22.9L-44.0,-25.4L-43.4,-28.2L-43.6,-31.7L-44.4,-36.0L-45.6,-41.1L-46.4,-46.4L-46.0,-51.1L-44.0,-54.4L-40.4,-55.6L-35.7,-55.0L-30.7,-53.2L-26.0,-50.9L-21.9,-49.2L-18.6,-48.3L-15.7,-48.3L-13.1,-48.7L-10.5,-49.3L-7.9,-49.8L-5.3,-50.1L-2.6,-50.3L-0.0,-50.0L2.6,-49.0L4.9,-46.7L6.8,-43.1L8.2,-38.6L9.1,-34.0L9.9,-30.5L11.1,-28.8L13.0,-29.3L16.0,-31.4L19.7,-34.2L23.8,-36.6L27.6,-38.0L30.9,-38.1L33.5,-37.2L35.6,-35.6L37.5,-33.7L39.2,-31.7L40.8,-29.6L42.3,-27.5L44.0,-25.4L46.1,-23.5L49.2,-21.9L53.4,-20.5L58.4,-19.0L63.4,-17.0L67.3,-14.3L69.1,-10.9L68.4,-7.2L65.5,-3.4L61.4,-0.0Z" fill="none" stroke="#c9fac8" stroke-width="1.7" stroke-linecap="round" opacity="0.95"/><path d="M44.0,0.0L40.2,2.1L37.3,3.9L35.6,5.6L34.6,7.4L34.1,9.1L33.5,10.9L32.9,12.6L32.2,14.3L31.3,15.9L29.9,17.2L27.7,18.0L24.5,17.8L20.6,16.6L16.4,14.8L12.9,12.9L10.7,11.9L10.1,12.4L10.7,14.8L12.0,18.5L13.2,22.9L13.7,27.0L13.4,30.1L12.4,32.2L10.8,33.4L9.1,34.0L7.3,34.5L5.5,34.8L3.7,35.1L1.9,35.4L0.0,36.0L-2.0,37.5L-4.2,40.0L-6.9,43.5L-10.1,47.3L-13.5,50.4L-16.8,51.8L-19.5,50.9L-21.2,47.7L-22.0,43.1L-22.0,38.1L-21.9,33.7L-22.0,30.3L-22.7,28.0L-23.7,26.3L-24.9,24.9L-26.2,23.6L-27.4,22.2L-28.5,20.7L-29.4,19.1L-29.9,17.2L-29.4,15.0L-27.7,12.3L-24.7,9.5L-21.0,6.8L-17.6,4.7L-15.7,3.3L-15.8,2.5L-18.2,1.9L-22.1,1.2L-26.4,0.0L-30.2,-1.6L-32.8,-3.4L-34.1,-5.4L-34.3,-7.3L-34.0,-9.1L-33.5,-10.9L-32.9,-12.6L-32.2,-14.3L-31.5,-16.1L-31.2,-18.0L-31.5,-20.4L-32.5,-23.6L-34.2,-27.7L-36.0,-32.4L-36.9,-36.9L-36.5,-40.5L-34.3,-42.3L-30.7,-42.3L-26.4,-40.6L-22.0,-38.1L-18.3,-35.8L-15.3,-34.3L-12.9,-33.6L-10.9,-33.7L-9.1,-34.1L-7.3,-34.5L-5.5,-34.8L-3.7,-35.0L-1.8,-35.0L-0.0,-34.5L1.7,-32.9L3.2,-30.1L4.1,-26.1L4.6,-21.6L4.7,-17.6L4.9,-15.2L5.7,-15.0L7.4,-16.7L10.0,-19.7L13.2,-22.9L16.5,-25.4L19.4,-26.7L21.7,-26.8L23.5,-26.1L24.9,-24.9L26.2,-23.6L27.4,-22.2L28.5,-20.7L29.7,-19.3L31.2,-18.0L33.4,-17.0L36.7,-16.4L41.1,-15.8L46.0,-15.0L50.4,-13.5L53.3,-11.3L53.8,-8.5L51.9,-5.5L48.3,-2.5L44.0,-0.0Z" fill="none" stroke="#c3d0f8" stroke-width="5.1" stroke-linecap="round" opacity="0.15" filter="url(#tg)"/><path d="M44.0,0.0L40.2,2.1L37.3,3.9L35.6,5.6L34.6,7.4L34.1,9.1L33.5,10.9L32.9,12.6L32.2,14.3L31.3,15.9L29.9,17.2L27.7,18.0L24.5,17.8L20.6,16.6L16.4,14.8L12.9,12.9L10.7,11.9L10.1,12.4L10.7,14.8L12.0,18.5L13.2,22.9L13.7,27.0L13.4,30.1L12.4,32.2L10.8,33.4L9.1,34.0L7.3,34.5L5.5,34.8L3.7,35.1L1.9,35.4L0.0,36.0L-2.0,37.5L-4.2,40.0L-6.9,43.5L-10.1,47.3L-13.5,50.4L-16.8,51.8L-19.5,50.9L-21.2,47.7L-22.0,43.1L-22.0,38.1L-21.9,33.7L-22.0,30.3L-22.7,28.0L-23.7,26.3L-24.9,24.9L-26.2,23.6L-27.4,22.2L-28.5,20.7L-29.4,19.1L-29.9,17.2L-29.4,15.0L-27.7,12.3L-24.7,9.5L-21.0,6.8L-17.6,4.7L-15.7,3.3L-15.8,2.5L-18.2,1.9L-22.1,1.2L-26.4,0.0L-30.2,-1.6L-32.8,-3.4L-34.1,-5.4L-34.3,-7.3L-34.0,-9.1L-33.5,-10.9L-32.9,-12.6L-32.2,-14.3L-31.5,-16.1L-31.2,-18.0L-31.5,-20.4L-32.5,-23.6L-34.2,-27.7L-36.0,-32.4L-36.9,-36.9L-36.5,-40.5L-34.3,-42.3L-30.7,-42.3L-26.4,-40.6L-22.0,-38.1L-18.3,-35.8L-15.3,-34.3L-12.9,-33.6L-10.9,-33.7L-9.1,-34.1L-7.3,-34.5L-5.5,-34.8L-3.7,-35.0L-1.8,-35.0L-0.0,-34.5L1.7,-32.9L3.2,-30.1L4.1,-26.1L4.6,-21.6L4.7,-17.6L4.9,-15.2L5.7,-15.0L7.4,-16.7L10.0,-19.7L13.2,-22.9L16.5,-25.4L19.4,-26.7L21.7,-26.8L23.5,-26.1L24.9,-24.9L26.2,-23.6L27.4,-22.2L28.5,-20.7L29.7,-19.3L31.2,-18.0L33.4,-17.0L36.7,-16.4L41.1,-15.8L46.0,-15.0L50.4,-13.5L53.3,-11.3L53.8,-8.5L51.9,-5.5L48.3,-2.5L44.0,-0.0Z" fill="none" stroke="#c3d0f8" stroke-width="1.7" stroke-linecap="round" opacity="0.95"/><path d="M26.9,0.0L23.5,1.2L21.3,2.2L20.2,3.2L19.7,4.2L19.4,5.2L19.1,6.2L18.8,7.2L18.3,8.1L17.6,8.9L16.2,9.4L14.0,9.1L10.8,7.8L7.1,5.7L3.6,3.3L1.2,1.2L0.4,0.4L1.1,1.3L2.9,4.0L5.0,7.6L6.7,11.5L7.6,14.8L7.6,17.1L7.1,18.4L6.2,19.1L5.2,19.4L4.2,19.6L3.1,19.8L2.1,20.0L1.1,20.4L0.0,21.5L-1.2,23.5L-2.8,26.7L-4.9,30.7L-7.3,34.5L-10.0,37.1L-12.2,37.7L-13.8,35.9L-14.4,32.2L-14.1,27.7L-13.4,23.3L-12.8,19.7L-12.6,17.4L-12.9,15.9L-13.5,15.0L-14.2,14.2L-14.9,13.4L-15.6,12.6L-16.2,11.8L-16.5,10.7L-16.2,9.4L-14.8,7.6L-12.2,5.4L-8.5,3.3L-4.7,1.5L-1.7,0.4L-0.5,0.1L-1.7,0.3L-4.9,0.5L-9.1,0.5L-13.3,0.0L-16.6,-0.9L-18.6,-2.0L-19.5,-3.1L-19.6,-4.2L-19.4,-5.2L-19.1,-6.2L-18.8,-7.2L-18.4,-8.2L-18.2,-9.3L-18.6,-10.7L-19.7,-12.8L-21.7,-15.8L-24.1,-19.5L-26.2,-23.6L-27.2,-27.2L-26.5,-29.4L-24.2,-29.9L-20.7,-28.5L-16.9,-26.0L-13.4,-23.3L-10.7,-21.0L-8.7,-19.6L-7.3,-19.1L-6.2,-19.2L-5.2,-19.4L-4.2,-19.6L-3.1,-19.8L-2.1,-19.9L-1.0,-19.7L-0.0,-18.7L0.9,-16.6L1.4,-13.2L1.4,-9.0L1.0,-4.8L0.4,-1.7L0.2,-0.5L0.6,-1.6L2.0,-4.5L4.1,-8.1L6.7,-11.5L9.1,-14.0L11.0,-15.1L12.4,-15.3L13.4,-14.9L14.2,-14.2L14.9,-13.4L15.6,-12.6L16.3,-11.8L17.2,-11.1L18.6,-10.7L21.0,-10.7L24.5,-10.9L29.0,-11.1L33.6,-10.9L37.1,-10.0L38.8,-8.2L38.0,-6.0L35.1,-3.7L31.0,-1.6L26.9,-0.0Z" fill="none" stroke="#c9fac8" stroke-width="5.1" stroke-linecap="round" opacity="0.15" filter="url(#tg)"/><path d="M26.9,0.0L23.5,1.2L21.3,2.2L20.2,3.2L19.7,4.2L19.4,5.2L19.1,6.2L18.8,7.2L18.3,8.1L17.6,8.9L16.2,9.4L14.0,9.1L10.8,7.8L7.1,5.7L3.6,3.3L1.2,1.2L0.4,0.4L1.1,1.3L2.9,4.0L5.0,7.6L6.7,11.5L7.6,14.8L7.6,17.1L7.1,18.4L6.2,19.1L5.2,19.4L4.2,19.6L3.1,19.8L2.1,20.0L1.1,20.4L0.0,21.5L-1.2,23.5L-2.8,26.7L-4.9,30.7L-7.3,34.5L-10.0,37.1L-12.2,37.7L-13.8,35.9L-14.4,32.2L-14.1,27.7L-13.4,23.3L-12.8,19.7L-12.6,17.4L-12.9,15.9L-13.5,15.0L-14.2,14.2L-14.9,13.4L-15.6,12.6L-16.2,11.8L-16.5,10.7L-16.2,9.4L-14.8,7.6L-12.2,5.4L-8.5,3.3L-4.7,1.5L-1.7,0.4L-0.5,0.1L-1.7,0.3L-4.9,0.5L-9.1,0.5L-13.3,0.0L-16.6,-0.9L-18.6,-2.0L-19.5,-3.1L-19.6,-4.2L-19.4,-5.2L-19.1,-6.2L-18.8,-7.2L-18.4,-8.2L-18.2,-9.3L-18.6,-10.7L-19.7,-12.8L-21.7,-15.8L-24.1,-19.5L-26.2,-23.6L-27.2,-27.2L-26.5,-29.4L-24.2,-29.9L-20.7,-28.5L-16.9,-26.0L-13.4,-23.3L-10.7,-21.0L-8.7,-19.6L-7.3,-19.1L-6.2,-19.2L-5.2,-19.4L-4.2,-19.6L-3.1,-19.8L-2.1,-19.9L-1.0,-19.7L-0.0,-18.7L0.9,-16.6L1.4,-13.2L1.4,-9.0L1.0,-4.8L0.4,-1.7L0.2,-0.5L0.6,-1.6L2.0,-4.5L4.1,-8.1L6.7,-11.5L9.1,-14.0L11.0,-15.1L12.4,-15.3L13.4,-14.9L14.2,-14.2L14.9,-13.4L15.6,-12.6L16.3,-11.8L17.2,-11.1L18.6,-10.7L21.0,-10.7L24.5,-10.9L29.0,-11.1L33.6,-10.9L37.1,-10.0L38.8,-8.2L38.0,-6.0L35.1,-3.7L31.0,-1.6L26.9,-0.0Z" fill="none" stroke="#c9fac8" stroke-width="1.7" stroke-linecap="round" opacity="0.95"/><path d="M9.9,0.0L7.2,0.4L5.7,0.6L5.0,0.8L4.8,1.0L4.8,1.3L4.7,1.5L4.6,1.8L4.4,1.9L3.7,1.9L2.3,1.3L-0.0,-0.0L-3.1,-2.3L-6.4,-5.2L-9.0,-8.1L-10.1,-10.1L-9.6,-10.6L-7.6,-9.4L-4.8,-6.6L-2.1,-3.2L-0.0,-0.0L1.2,2.4L1.7,3.8L1.7,4.5L1.5,4.7L1.3,4.8L1.0,4.8L0.8,4.9L0.5,5.1L0.3,5.7L0.0,7.2L-0.5,9.9L-1.4,13.7L-2.8,17.9L-4.6,21.4L-6.3,23.3L-7.5,23.0L-7.9,20.5L-7.4,16.5L-6.2,12.2L-4.9,8.6L-3.9,6.0L-3.3,4.6L-3.2,4.0L-3.3,3.7L-3.5,3.5L-3.7,3.3L-3.8,3.1L-3.9,2.8L-3.5,2.3L-2.3,1.3L0.0,-0.0L3.5,-1.6L7.7,-2.9L11.5,-3.7L13.8,-3.7L14.0,-3.0L11.9,-1.9L8.2,-0.9L3.9,-0.2L0.0,-0.0L-2.7,-0.1L-4.1,-0.4L-4.7,-0.7L-4.8,-1.0L-4.8,-1.3L-4.7,-1.5L-4.6,-1.8L-4.6,-2.1L-5.1,-2.6L-6.2,-3.6L-8.3,-5.4L-11.1,-8.1L-14.0,-11.4L-16.3,-14.7L-17.1,-17.1L-16.2,-18.0L-13.8,-17.0L-10.6,-14.6L-7.5,-11.5L-4.9,-8.6L-3.3,-6.4L-2.3,-5.2L-1.8,-4.8L-1.5,-4.7L-1.3,-4.8L-1.0,-4.8L-0.8,-4.9L-0.5,-4.7L-0.2,-4.2L-0.0,-2.7L-0.0,0.0L-0.4,3.9L-1.3,8.1L-2.5,11.8L-3.7,13.8L-4.4,13.6L-4.3,11.2L-3.3,7.5L-1.8,3.4L-0.0,0.0L1.5,-2.2L2.5,-3.4L3.0,-3.7L3.3,-3.7L3.5,-3.5L3.7,-3.3L3.8,-3.1L4.1,-3.0L4.8,-3.1L6.2,-3.6L8.8,-4.5L12.5,-5.6L16.9,-6.5L20.8,-6.8L23.3,-6.3L23.6,-5.0L21.6,-3.4L18.0,-1.9L13.7,-0.7L9.9,-0.0Z" fill="none" stroke="#c3d0f8" stroke-width="5.1" stroke-linecap="round" opacity="0.15" filter="url(#tg)"/><path d="M9.9,0.0L7.2,0.4L5.7,0.6L5.0,0.8L4.8,1.0L4.8,1.3L4.7,1.5L4.6,1.8L4.4,1.9L3.7,1.9L2.3,1.3L-0.0,-0.0L-3.1,-2.3L-6.4,-5.2L-9.0,-8.1L-10.1,-10.1L-9.6,-10.6L-7.6,-9.4L-4.8,-6.6L-2.1,-3.2L-0.0,-0.0L1.2,2.4L1.7,3.8L1.7,4.5L1.5,4.7L1.3,4.8L1.0,4.8L0.8,4.9L0.5,5.1L0.3,5.7L0.0,7.2L-0.5,9.9L-1.4,13.7L-2.8,17.9L-4.6,21.4L-6.3,23.3L-7.5,23.0L-7.9,20.5L-7.4,16.5L-6.2,12.2L-4.9,8.6L-3.9,6.0L-3.3,4.6L-3.2,4.0L-3.3,3.7L-3.5,3.5L-3.7,3.3L-3.8,3.1L-3.9,2.8L-3.5,2.3L-2.3,1.3L0.0,-0.0L3.5,-1.6L7.7,-2.9L11.5,-3.7L13.8,-3.7L14.0,-3.0L11.9,-1.9L8.2,-0.9L3.9,-0.2L0.0,-0.0L-2.7,-0.1L-4.1,-0.4L-4.7,-0.7L-4.8,-1.0L-4.8,-1.3L-4.7,-1.5L-4.6,-1.8L-4.6,-2.1L-5.1,-2.6L-6.2,-3.6L-8.3,-5.4L-11.1,-8.1L-14.0,-11.4L-16.3,-14.7L-17.1,-17.1L-16.2,-18.0L-13.8,-17.0L-10.6,-14.6L-7.5,-11.5L-4.9,-8.6L-3.3,-6.4L-2.3,-5.2L-1.8,-4.8L-1.5,-4.7L-1.3,-4.8L-1.0,-4.8L-0.8,-4.9L-0.5,-4.7L-0.2,-4.2L-0.0,-2.7L-0.0,0.0L-0.4,3.9L-1.3,8.1L-2.5,11.8L-3.7,13.8L-4.4,13.6L-4.3,11.2L-3.3,7.5L-1.8,3.4L-0.0,0.0L1.5,-2.2L2.5,-3.4L3.0,-3.7L3.3,-3.7L3.5,-3.5L3.7,-3.3L3.8,-3.1L4.1,-3.0L4.8,-3.1L6.2,-3.6L8.8,-4.5L12.5,-5.6L16.9,-6.5L20.8,-6.8L23.3,-6.3L23.6,-5.0L21.6,-3.4L18.0,-1.9L13.7,-0.7L9.9,-0.0Z" fill="none" stroke="#c3d0f8" stroke-width="1.7" stroke-linecap="round" opacity="0.95"/><path d="M-6.8,0.0L-8.8,-0.5L-9.8,-1.0L-10.0,-1.6L-10.0,-2.1L-9.9,-2.6L-9.7,-3.2L-9.6,-3.7L-9.7,-4.3L-10.3,-5.3L-11.8,-6.8L-14.3,-9.3L-17.1,-12.5L-19.8,-16.0L-21.2,-19.1L-21.0,-21.0L-19.1,-21.2L-16.0,-19.8L-12.5,-17.1L-9.3,-14.3L-6.8,-11.8L-5.3,-10.3L-4.3,-9.7L-3.7,-9.6L-3.2,-9.7L-2.6,-9.9L-2.1,-10.0L-1.6,-10.0L-1.0,-9.8L-0.5,-8.8L-0.0,-6.8L0.2,-3.5L-0.1,0.7L-0.8,4.9L-1.7,7.9L-2.4,9.0L-2.5,7.7L-1.8,4.6L-0.3,0.7L1.6,-3.1L3.4,-5.9L4.8,-7.4L5.8,-8.0L6.4,-7.9L6.8,-7.6L7.2,-7.2L7.6,-6.8L8.0,-6.5L8.6,-6.2L9.7,-6.3L11.8,-6.8L15.1,-7.7L19.4,-8.6L23.7,-9.1L27.2,-8.8L28.7,-7.7L28.0,-5.9L25.1,-4.0L21.1,-2.2L17.0,-0.9L13.7,-0.0L11.6,0.6L10.5,1.1L10.2,1.6L10.0,2.1L9.9,2.6L9.7,3.2L9.5,3.6L9.0,4.0L7.9,4.0L5.9,3.4L2.9,1.9L-0.6,-0.4L-3.9,-3.1L-6.0,-5.4L-6.6,-6.6L-5.4,-6.0L-3.1,-3.9L-0.4,-0.6L1.9,2.9L3.4,5.9L4.0,7.9L4.0,9.0L3.6,9.5L3.2,9.7L2.6,9.9L2.1,10.0L1.6,10.2L1.1,10.5L0.6,11.6L0.0,13.7L-0.9,17.0L-2.2,21.1L-4.0,25.1L-5.9,28.0L-7.7,28.7L-8.8,27.2L-9.1,23.7L-8.6,19.4L-7.7,15.1L-6.8,11.8L-6.3,9.7L-6.2,8.6L-6.5,8.0L-6.8,7.6L-7.2,7.2L-7.6,6.8L-7.9,6.4L-8.0,5.8L-7.4,4.8L-5.9,3.4L-3.1,1.6L0.7,-0.3L4.6,-1.8L7.7,-2.5L9.0,-2.4L7.9,-1.7L4.9,-0.8L0.7,-0.1L-3.5,0.2L-6.8,0.0Z" fill="none" stroke="#c9fac8" stroke-width="5.1" stroke-linecap="round" opacity="0.15" filter="url(#tg)"/><path d="M-6.8,0.0L-8.8,-0.5L-9.8,-1.0L-10.0,-1.6L-10.0,-2.1L-9.9,-2.6L-9.7,-3.2L-9.6,-3.7L-9.7,-4.3L-10.3,-5.3L-11.8,-6.8L-14.3,-9.3L-17.1,-12.5L-19.8,-16.0L-21.2,-19.1L-21.0,-21.0L-19.1,-21.2L-16.0,-19.8L-12.5,-17.1L-9.3,-14.3L-6.8,-11.8L-5.3,-10.3L-4.3,-9.7L-3.7,-9.6L-3.2,-9.7L-2.6,-9.9L-2.1,-10.0L-1.6,-10.0L-1.0,-9.8L-0.5,-8.8L-0.0,-6.8L0.2,-3.5L-0.1,0.7L-0.8,4.9L-1.7,7.9L-2.4,9.0L-2.5,7.7L-1.8,4.6L-0.3,0.7L1.6,-3.1L3.4,-5.9L4.8,-7.4L5.8,-8.0L6.4,-7.9L6.8,-7.6L7.2,-7.2L7.6,-6.8L8.0,-6.5L8.6,-6.2L9.7,-6.3L11.8,-6.8L15.1,-7.7L19.4,-8.6L23.7,-9.1L27.2,-8.8L28.7,-7.7L28.0,-5.9L25.1,-4.0L21.1,-2.2L17.0,-0.9L13.7,-0.0L11.6,0.6L10.5,1.1L10.2,1.6L10.0,2.1L9.9,2.6L9.7,3.2L9.5,3.6L9.0,4.0L7.9,4.0L5.9,3.4L2.9,1.9L-0.6,-0.4L-3.9,-3.1L-6.0,-5.4L-6.6,-6.6L-5.4,-6.0L-3.1,-3.9L-0.4,-0.6L1.9,2.9L3.4,5.9L4.0,7.9L4.0,9.0L3.6,9.5L3.2,9.7L2.6,9.9L2.1,10.0L1.6,10.2L1.1,10.5L0.6,11.6L0.0,13.7L-0.9,17.0L-2.2,21.1L-4.0,25.1L-5.9,28.0L-7.7,28.7L-8.8,27.2L-9.1,23.7L-8.6,19.4L-7.7,15.1L-6.8,11.8L-6.3,9.7L-6.2,8.6L-6.5,8.0L-6.8,7.6L-7.2,7.2L-7.6,6.8L-7.9,6.4L-8.0,5.8L-7.4,4.8L-5.9,3.4L-3.1,1.6L0.7,-0.3L4.6,-1.8L7.7,-2.5L9.0,-2.4L7.9,-1.7L4.9,-0.8L0.7,-0.1L-3.5,0.2L-6.8,0.0Z" fill="none" stroke="#c9fac8" stroke-width="1.7" stroke-linecap="round" opacity="0.95"/>
</svg>