<svg xmlns="http://www.w3.org/2000/svg" viewBox="-250 -250 500 500">
<rect x="-250" y="-250" width="500" height="500" fill="#3c3825"/>
<path d="M78.0,0.0L75.6,4.0L71.2,7.5L69.2,11.0L68.2,14.5L64.9,17.4L60.0,19.5L58.2,22.3L60.1,26.7L61.7,31.4L60.6,35.0L59.3,38.5L60.1,43.6L60.4,48.9L57.1,51.4L51.5,51.5L47.0,52.2L44.0,54.4L40.2,55.3L35.0,54.0L31.0,53.7L29.2,57.3L27.8,62.5L25.1,65.3L21.7,66.8L18.8,70.3L16.0,75.2L12.2,76.8L7.8,73.8L3.7,70.7L0.0,70.0L-3.6,69.2L-6.9,65.4L-9.7,61.5L-13.1,61.7L-17.4,64.9L-21.6,66.3L-25.1,65.4L-29.1,65.4L-34.3,67.4L-39.0,67.5L-41.2,63.5L-42.1,57.9L-44.1,54.4L-46.7,51.8L-47.5,47.5L-46.9,42.2L-48.4,39.2L-53.2,38.7L-58.1,37.7L-60.6,35.0L-63.0,32.1L-67.8,30.2L-72.5,27.8L-73.1,23.8L-70.3,18.8L-68.7,14.6L-69.1,10.9L-68.0,7.1L-64.3,3.4L-62.0,0.0L-64.3,-3.4L-68.0,-7.1L-69.1,-10.9L-68.7,-14.6L-70.3,-18.8L-73.1,-23.8L-72.5,-27.8L-67.8,-30.2L-63.0,-32.1L-60.6,-35.0L-58.1,-37.7L-53.2,-38.7L-48.4,-39.2L-46.9,-42.2L-47.5,-47.5L-46.7,-51.8L-44.1,-54.4L-42.1,-57.9L-41.2,-63.5L-39.0,-67.5L-34.3,-67.4L-29.1,-65.4L-25.1,-65.4L-21.6,-66.3L-17.4,-64.9L-13.1,-61.7L-9.7,-61.5L-6.9,-65.4L-3.6,-69.2L-0.0,-70.0L3.7,-70.7L7.8,-73.8L12.2,-76.8L16.0,-75.2L18.8,-70.3L21.7,-66.8L25.1,-65.3L27.8,-62.5L29.2,-57.3L31.0,-53.7L35.0,-54.0L40.2,-55.3L44.0,-54.4L47.0,-52.2L51.5,-51.5L57.1,-51.4L60.4,-48.9L60.1,-43.6L59.3,-38.5L60.6,-35.0L61.7,-31.4L60.1,-26.7L58.2,-22.3L60.0,-19.5L64.9,-17.4L68.2,-14.5L69.2,-11.0L71.2,-7.5L75.6,-4.0L78.0,-0.0Z" fill="none" stroke="#bffff2" stroke-width="4.7" stroke-linecap="round" opacity="0.95"/><path d="M63.6,0.0L61.4,3.2L57.1,6.0L55.1,8.7L57.5,12.2L60.4,16.2L60.6,19.7L59.9,23.0L61.4,27.3L63.3,32.3L61.5,35.5L56.4,36.6L51.9,37.7L49.5,40.1L46.5,41.9L41.5,41.5L37.3,41.4L36.1,44.6L36.2,49.8L34.6,53.3L31.9,55.3L29.9,58.7L28.5,64.0L25.7,66.9L21.2,65.3L16.8,62.6L13.2,62.3L9.9,62.5L6.3,59.9L2.9,56.3L0.0,56.3L-3.1,60.1L-6.6,62.9L-10.0,62.9L-13.5,63.4L-17.8,66.3L-22.1,68.1L-25.1,65.4L-26.8,60.2L-29.0,56.8L-31.8,55.1L-33.5,51.6L-33.7,46.4L-35.1,43.3L-39.3,43.7L-44.2,44.2L-47.3,42.6L-49.9,40.4L-54.4,39.5L-59.6,38.7L-61.5,35.5L-59.9,30.5L-58.6,26.1L-59.5,22.8L-59.5,19.3L-56.7,15.2L-54.6,11.6L-56.7,9.0L-61.2,6.4L-63.5,3.3L-63.8,0.0L-65.8,-3.4L-69.6,-7.3L-70.7,-11.2L-67.2,-14.3L-62.6,-16.8L-60.6,-19.7L-59.1,-22.7L-55.0,-24.5L-50.2,-25.6L-48.8,-28.2L-50.5,-32.8L-51.2,-37.2L-49.5,-40.1L-48.2,-43.4L-48.5,-48.5L-47.9,-53.2L-44.1,-54.4L-38.7,-53.3L-34.7,-53.5L-31.8,-55.1L-27.9,-54.8L-23.3,-52.4L-20.0,-52.1L-18.2,-55.9L-16.2,-60.4L-13.2,-62.3L-10.0,-63.4L-7.0,-66.8L-3.7,-71.0L-0.0,-71.1L3.5,-67.1L6.7,-63.8L10.0,-62.9L13.0,-61.2L15.2,-56.7L17.2,-53.0L20.6,-53.6L25.0,-56.2L28.9,-56.7L31.9,-55.3L35.9,-55.3L41.2,-56.6L45.1,-55.7L45.9,-51.0L45.8,-45.8L47.3,-42.6L49.2,-39.8L48.7,-35.4L47.3,-30.7L48.8,-28.2L53.6,-27.3L57.8,-25.7L59.5,-22.8L61.7,-20.0L66.3,-17.8L70.1,-14.9L69.1,-11.0L65.5,-6.9L63.7,-3.3L63.6,-0.0Z" fill="none" stroke="#fdc0c0" stroke-width="4.7" stroke-linecap="round" opacity="0.95"/><path d="M51.7,0.0L55.7,2.9L57.1,6.0L56.9,9.0L58.9,12.5L62.1,16.6L61.9,20.1L57.5,22.1L53.1,23.7L51.1,26.1L49.1,28.3L44.6,29.0L40.2,29.2L39.3,31.8L40.6,36.5L40.4,40.4L38.4,42.7L37.1,45.9L37.1,51.0L35.6,54.8L31.5,54.6L26.8,52.6L23.4,52.5L20.5,53.4L16.9,51.9L13.1,48.8L10.3,48.6L8.3,52.5L5.9,56.3L3.0,57.3L0.0,58.1L-3.2,61.6L-6.8,64.8L-10.1,63.5L-12.5,58.9L-14.9,55.7L-17.7,54.6L-20.0,52.1L-21.0,47.3L-22.4,44.0L-25.9,44.8L-30.4,46.8L-33.7,46.4L-36.3,44.8L-40.3,44.8L-45.5,45.5L-48.4,43.6L-47.9,38.8L-47.0,34.2L-48.1,31.3L-49.1,28.3L-47.4,24.1L-45.4,20.2L-47.2,18.1L-51.9,16.9L-55.2,14.8L-56.2,11.9L-58.3,9.2L-62.7,6.6L-65.3,3.4L-63.1,0.0L-58.9,-3.1L-57.1,-6.0L-56.5,-8.9L-53.4,-11.3L-48.8,-13.1L-47.3,-15.4L-49.6,-19.1L-51.8,-23.0L-51.1,-26.1L-50.4,-29.1L-51.7,-33.6L-52.7,-38.3L-50.0,-40.5L-44.8,-40.3L-40.8,-40.8L-38.4,-42.6L-35.1,-43.3L-30.4,-41.9L-26.9,-41.4L-25.9,-44.8L-25.3,-49.7L-23.3,-52.4L-20.7,-53.8L-18.6,-57.3L-16.6,-62.1L-13.5,-63.7L-9.6,-60.9L-6.1,-57.8L-3.0,-57.3L-0.0,-56.7L2.8,-53.1L5.2,-49.4L7.9,-49.9L11.3,-53.4L14.8,-55.2L17.7,-54.6L21.2,-55.1L25.6,-57.6L29.7,-58.3L31.5,-54.6L32.1,-49.5L33.8,-46.5L36.0,-44.4L36.5,-40.6L35.7,-35.7L36.9,-33.3L41.3,-33.5L45.8,-33.3L48.1,-31.3L50.4,-29.1L54.9,-28.0L59.5,-26.5L60.0,-23.0L57.3,-18.6L55.7,-14.9L56.1,-11.9L55.1,-8.7L51.5,-5.4L49.3,-2.6L51.7,-0.0Z" fill="none" stroke="#bffff2" stroke-width="4.7" stroke-linecap="round" opacity="0.95"/><path d="M53.3,0.0L57.3,3.0L58.7,6.2L55.4,8.8L51.1,10.9L49.4,13.2L48.2,15.7L44.4,17.1L40.0,17.8L39.0,19.9L41.2,23.8L42.5,27.6L41.3,30.0L40.6,32.9L41.7,37.5L41.7,41.7L38.4,42.7L33.5,41.4L30.1,41.4L27.8,42.8L24.5,42.4L20.3,39.9L17.6,39.4L16.5,43.1L15.4,47.5L13.2,49.4L10.7,50.4L8.5,53.9L6.1,58.1L3.1,58.4L0.0,54.6L-2.7,51.5L-5.3,50.8L-7.8,49.3L-9.6,45.1L-11.2,41.7L-13.8,42.6L-17.5,45.7L-20.7,46.6L-23.2,45.6L-26.6,46.2L-31.3,48.1L-34.7,47.8L-35.3,43.6L-35.0,38.8L-36.1,36.1L-37.6,33.9L-37.0,29.9L-35.4,25.7L-36.7,23.8L-41.2,23.8L-45.1,23.0L-46.7,20.8L-48.8,18.7L-53.3,17.3L-57.0,15.3L-56.2,11.9L-52.6,8.3L-50.9,5.4L-50.9,2.7L-48.9,0.0L-44.7,-2.3L-42.9,-4.5L-45.6,-7.2L-48.9,-10.4L-49.4,-13.2L-49.0,-15.9L-51.0,-19.6L-53.4,-23.8L-52.1,-26.5L-47.3,-27.3L-43.2,-28.1L-41.3,-30.0L-38.8,-31.4L-34.3,-30.9L-30.5,-30.5L-30.0,-33.3L-30.8,-38.0L-30.0,-41.3L-27.9,-42.9L-26.6,-46.2L-26.1,-51.2L-24.0,-53.9L-20.1,-52.3L-16.1,-49.7L-13.2,-49.4L-10.5,-49.5L-7.4,-47.0L-4.6,-43.5L-2.3,-43.7L-0.0,-47.6L2.7,-50.6L5.3,-50.8L8.2,-51.6L11.7,-54.8L15.3,-57.0L17.7,-54.6L19.1,-49.8L20.8,-46.8L23.2,-45.4L24.5,-42.4L24.4,-37.6L25.4,-34.9L29.0,-35.9L33.4,-37.1L36.1,-36.1L38.3,-34.5L42.4,-34.4L47.3,-34.4L49.0,-31.8L47.3,-27.3L45.9,-23.4L46.7,-20.8L46.6,-17.9L43.9,-14.3L41.7,-11.2L43.8,-9.3L48.3,-7.7L50.7,-5.3L51.1,-2.7L53.3,-0.0Z" fill="none" stroke="#fdc0c0" stroke-width="4.7" stroke-linecap="round" opacity="0.95"/><path d="M46.4,0.0L44.8,2.3L44.3,4.7L41.5,6.6L37.1,7.9L35.8,9.6L38.6,12.5L41.1,15.8L40.9,18.2L40.6,20.7L42.5,24.5L44.0,28.6L41.8,30.4L37.0,30.0L33.5,30.1L31.7,31.7L28.9,32.1L24.6,30.4L21.6,29.8L21.3,32.8L21.6,37.4L20.3,39.9L18.3,41.1L17.1,44.5L16.0,49.2L13.6,50.7L10.2,48.0L7.1,45.0L4.7,44.6L2.3,44.0L0.0,40.6L-1.9,37.0L-4.0,37.7L-6.6,41.5L-9.3,43.6L-11.6,43.3L-14.3,44.2L-18.1,47.1L-21.5,48.2L-22.9,45.0L-23.2,40.2L-24.4,37.6L-26.2,36.1L-26.4,32.6L-25.4,28.2L-26.2,26.2L-30.1,27.1L-34.2,27.7L-36.2,26.3L-38.2,24.8L-42.5,24.5L-46.8,23.8L-47.2,21.0L-44.5,17.1L-42.8,13.9L-43.2,11.6L-42.2,9.0L-38.7,6.1L-36.6,3.8L-39.1,2.0L-43.2,0.0L-44.7,-2.3L-44.8,-4.7L-47.0,-7.5L-50.6,-10.7L-50.7,-13.6L-46.6,-15.2L-42.5,-16.3L-40.9,-18.2L-39.3,-20.0L-35.1,-20.3L-31.1,-20.2L-30.7,-22.3L-32.6,-26.4L-33.1,-29.8L-31.7,-31.7L-31.1,-34.5L-31.8,-39.2L-31.0,-42.7L-27.5,-42.3L-23.2,-40.2L-20.4,-39.9L-18.1,-40.7L-15.0,-39.2L-11.7,-36.1L-9.6,-35.8L-8.4,-39.7L-6.9,-43.5L-4.7,-44.6L-2.4,-45.5L-0.0,-49.0L2.7,-52.4L5.4,-51.4L7.5,-47.0L9.4,-44.1L11.6,-43.2L13.3,-41.1L14.0,-36.5L15.0,-33.6L17.8,-34.9L21.6,-37.4L24.4,-37.5L26.5,-36.4L30.0,-37.0L34.6,-38.4L37.1,-37.1L36.4,-32.8L35.4,-28.7L36.2,-26.3L36.9,-24.0L35.1,-20.3L33.0,-16.8L34.6,-15.4L39.2,-15.0L42.4,-13.8L43.3,-11.6L45.4,-9.7L49.8,-7.9L52.5,-5.5L50.4,-2.6L46.4,-0.0Z" fill="none" stroke="#bffff2" stroke-width="4.7" stroke-linecap="round" opacity="0.95"/><path d="M32.2,0.0L30.5,1.6L33.4,3.5L36.9,5.8L37.7,8.0L37.6,10.1L40.0,13.0L42.8,16.4L41.9,18.7L37.4,19.1L33.7,19.5L32.3,21.0L30.2,22.0L26.1,21.1L22.7,20.5L22.8,22.8L24.3,27.0L24.2,29.8L22.7,31.2L22.2,34.1L22.4,38.8L21.1,41.4L17.7,39.7L14.2,37.0L11.9,36.6L9.8,36.8L7.3,34.2L4.9,30.8L3.3,31.0L1.8,34.9L0.0,38.1L-2.0,38.5L-4.1,39.4L-6.8,42.9L-9.7,45.4L-11.6,43.3L-12.6,38.7L-13.8,36.0L-15.6,35.1L-16.5,32.4L-16.1,27.9L-16.7,25.6L-19.7,27.1L-23.5,29.0L-25.8,28.6L-27.5,27.5L-31.2,28.1L-35.6,28.9L-37.1,27.0L-35.2,22.9L-33.7,19.5L-34.3,17.5L-34.1,15.2L-31.3,12.0L-29.1,9.4L-31.1,8.3L-35.5,7.5L-37.9,6.0L-38.4,4.0L-40.6,2.1L-44.8,0.0L-46.4,-2.4L-43.2,-4.5L-39.2,-6.2L-37.7,-8.0L-36.8,-9.8L-33.3,-10.8L-29.1,-11.2L-28.5,-12.7L-31.2,-15.9L-33.0,-19.0L-32.3,-21.0L-32.1,-23.3L-33.8,-27.3L-34.5,-31.1L-31.7,-31.7L-27.2,-30.2L-24.3,-30.0L-22.6,-31.1L-19.8,-30.5L-16.1,-27.9L-13.9,-27.2L-13.6,-30.6L-13.4,-34.9L-11.9,-36.6L-10.1,-37.6L-8.7,-41.1L-7.2,-45.3L-4.8,-45.6L-2.2,-42.0L-0.0,-38.9L2.0,-38.4L3.9,-37.2L5.2,-33.1L6.4,-29.9L8.3,-31.1L11.2,-34.5L13.8,-35.8L15.7,-35.3L18.5,-36.3L22.4,-38.8L25.3,-38.9L25.5,-35.2L24.9,-30.8L25.8,-28.6L26.9,-26.9L26.0,-23.4L24.2,-19.6L25.2,-18.3L29.3,-19.1L33.0,-19.0L34.3,-17.5L36.2,-16.1L40.6,-15.6L44.2,-14.3L43.3,-11.6L39.8,-8.5L38.1,-6.0L38.2,-4.0L36.3,-1.9L32.2,-0.0Z" fill="none" stroke="#fdc0c0" stroke-width="4.7" stroke-linecap="round" opacity="0.95"/><path d="M32.2,0.0L32.4,1.7L34.8,3.7L38.6,6.1L39.0,8.3L35.2,9.4L31.3,10.2L30.1,11.5L28.7,12.8L24.9,12.7L21.2,12.2L21.2,13.8L23.8,17.3L24.8,20.1L24.0,21.6L23.9,23.9L25.3,28.1L25.3,31.2L22.3,30.6L18.4,28.4L16.1,27.9L14.5,28.5L11.9,26.8L9.1,23.6L7.6,23.3L7.2,27.0L6.5,30.8L5.0,31.8L3.4,32.8L1.9,36.4L0.0,39.9L-2.0,39.0L-3.7,34.8L-5.1,32.0L-6.7,31.5L-7.9,29.5L-8.2,25.2L-8.7,22.6L-10.8,24.2L-13.9,27.2L-16.1,27.9L-17.7,27.2L-20.6,28.3L-24.6,30.4L-26.7,29.7L-25.8,25.8L-24.5,22.0L-25.0,20.3L-25.4,18.5L-23.5,15.2L-21.2,12.2L-22.6,11.5L-26.8,11.9L-29.8,11.5L-30.7,10.0L-32.7,8.8L-37.0,7.9L-39.7,6.3L-37.7,4.0L-33.8,1.8L-32.2,0.0L-31.9,-1.7L-29.2,-3.1L-25.0,-4.0L-24.0,-5.1L-27.0,-7.2L-29.9,-9.7L-30.1,-11.5L-30.1,-13.4L-32.5,-16.5L-34.6,-20.0L-32.8,-21.3L-28.3,-20.6L-25.2,-20.4L-23.9,-21.5L-21.6,-21.6L-17.8,-19.7L-15.2,-18.8L-15.6,-21.5L-16.7,-25.6L-16.1,-27.9L-14.7,-28.9L-14.2,-32.0L-14.0,-36.5L-12.3,-38.0L-9.4,-35.2L-6.9,-32.2L-5.0,-31.8L-3.3,-31.3L-1.5,-27.9L-0.0,-24.5L1.3,-25.3L3.1,-29.2L5.0,-31.6L6.7,-31.5L8.8,-32.7L11.7,-36.0L14.4,-37.5L15.4,-34.6L15.4,-30.1L16.1,-27.9L17.4,-26.8L17.3,-23.8L15.9,-19.7L16.4,-18.2L19.8,-19.8L23.4,-21.0L25.0,-20.3L26.7,-19.4L30.6,-19.8L34.6,-20.0L34.8,-17.7L32.0,-14.2L30.3,-11.6L30.6,-9.9L29.5,-7.9L26.0,-5.5L23.9,-3.8L26.4,-2.8L30.5,-1.6L32.2,-0.0Z" fill="none" stroke="#bffff2" stroke-width="4.7" stroke-linecap="round" opacity="0.95"/><path d="M33.8,0.0L30.8,1.6L26.9,2.8L25.6,4.1L24.9,5.3L21.6,5.8L17.6,5.7L17.3,6.6L20.4,9.1L22.7,11.6L22.4,13.0L22.7,14.7L25.0,18.1L26.3,21.3L23.9,21.6L19.9,19.9L17.4,19.3L16.2,20.0L13.9,19.2L10.7,16.4L9.0,15.6L9.5,18.7L10.1,22.6L9.3,24.2L8.1,25.1L7.6,28.4L6.9,32.5L5.2,32.8L3.1,29.3L1.4,26.3L0.0,25.9L-1.3,24.7L-2.2,20.8L-2.8,17.8L-4.1,19.2L-6.1,22.9L-8.0,24.5L-9.3,24.3L-11.4,25.7L-14.6,28.7L-16.9,29.3L-16.8,25.9L-15.9,21.9L-16.3,20.1L-17.0,18.9L-15.8,15.8L-13.8,12.4L-14.4,11.7L-18.1,13.2L-21.3,13.9L-22.4,13.0L-24.1,12.3L-28.2,12.6L-31.6,12.1L-30.6,10.0L-27.1,7.3L-25.4,5.4L-25.5,4.0L-23.6,2.5L-19.6,1.0L-18.0,0.0L-20.9,-1.1L-24.6,-2.6L-25.6,-4.1L-25.8,-5.5L-28.4,-7.6L-31.6,-10.3L-31.0,-11.9L-26.9,-12.0L-23.5,-12.0L-22.4,-12.9L-20.8,-13.5L-16.9,-12.3L-14.0,-11.3L-14.6,-13.1L-16.8,-16.8L-17.3,-19.2L-16.4,-20.2L-16.5,-22.7L-17.5,-27.0L-16.9,-29.3L-14.0,-27.5L-11.0,-24.7L-9.3,-24.2L-7.9,-24.2L-5.8,-21.6L-3.9,-18.1L-2.9,-18.3L-2.3,-22.3L-1.3,-25.4L-0.0,-25.9L1.4,-27.0L3.2,-30.7L5.3,-33.4L6.7,-31.5L7.3,-27.1L8.0,-24.7L9.2,-24.1L9.6,-21.7L8.9,-17.5L9.0,-15.6L11.4,-17.6L14.6,-20.0L16.3,-20.1L17.6,-19.6L20.8,-20.8L24.7,-22.3L25.8,-20.9L23.8,-17.3L22.1,-14.4L22.4,-12.9L22.1,-11.2L19.1,-8.5L16.8,-6.4L18.6,-6.1L22.9,-6.1L25.2,-5.4L25.7,-4.1L27.9,-2.9L32.2,-1.7L33.8,-0.0Z" fill="none" stroke="#fdc0c0" stroke-width="4.7" stroke-linecap="round" opacity="0.95"/><path d="M19.4,0.0L16.7,0.9L12.6,1.3L11.7,1.9L15.0,3.2L18.2,4.9L18.6,6.1L19.0,7.3L21.8,9.7L24.3,12.4L22.9,13.2L18.8,12.2L16.0,11.7L15.2,12.3L13.4,12.0L9.9,9.9L7.8,8.6L8.8,10.8L10.6,14.5L10.7,16.4L9.9,17.2L10.2,20.0L10.8,24.2L9.8,25.5L7.4,22.7L5.3,19.7L4.1,19.2L2.9,18.6L1.6,15.3L0.6,11.9L0.0,12.7L-0.9,16.7L-2.0,19.3L-3.1,19.4L-4.4,20.8L-6.5,24.4L-8.5,26.2L-9.1,23.6L-8.6,19.4L-8.9,17.5L-9.7,16.8L-9.1,14.1L-7.5,10.3L-7.5,9.2L-10.3,11.4L-13.3,13.3L-14.6,13.1L-15.8,12.8L-19.3,14.0L-22.9,14.9L-22.9,13.2L-20.0,10.2L-18.1,8.1L-18.3,7.0L-17.1,5.6L-13.5,3.6L-11.3,2.4L-13.8,2.2L-17.9,1.9L-19.5,1.0L-19.8,0.0L-22.4,-1.2L-26.3,-2.8L-27.0,-4.3L-23.3,-5.0L-19.7,-5.3L-18.6,-6.1L-17.6,-6.8L-14.0,-6.2L-10.6,-5.4L-11.0,-6.4L-14.1,-9.1L-15.7,-11.4L-15.3,-12.4L-15.8,-14.2L-17.9,-17.9L-18.5,-20.5L-15.9,-19.6L-12.5,-17.2L-10.7,-16.5L-9.7,-16.8L-7.6,-14.9L-5.2,-11.6L-4.3,-11.1L-4.7,-14.6L-4.9,-18.2L-4.1,-19.2L-3.2,-20.1L-2.5,-23.7L-1.4,-27.3L-0.0,-26.5L1.2,-22.4L2.1,-19.7L3.1,-19.3L3.7,-17.6L3.6,-13.5L3.6,-11.0L5.0,-13.0L7.3,-16.4L8.9,-17.4L9.9,-17.2L12.2,-18.8L15.6,-21.4L17.2,-21.2L15.9,-17.7L14.4,-14.4L14.6,-13.1L14.7,-11.9L12.4,-9.0L10.0,-6.5L11.0,-6.4L14.9,-7.6L17.7,-7.9L18.3,-7.0L20.2,-6.6L24.4,-6.5L27.0,-5.7L24.9,-4.0L21.1,-2.2L19.6,-1.0L19.4,-0.0Z" fill="none" stroke="#bffff2" stroke-width="4.7" stroke-linecap="round" opacity="0.95"/><path d="M8.3,0.0L12.1,0.6L13.2,1.4L13.6,2.2L16.4,3.5L20.0,5.3L19.6,6.4L15.7,6.0L12.6,5.6L11.8,6.0L10.5,6.1L7.0,4.5L4.3,3.2L5.4,4.4L8.3,7.4L9.3,9.3L9.0,10.0L9.7,12.0L11.5,15.9L11.6,17.8L9.1,15.8L6.6,12.9L5.4,12.2L4.6,12.0L3.0,9.3L1.5,5.7L1.2,5.8L1.5,9.7L1.3,12.8L0.7,13.3L0.0,14.4L-1.0,18.2L-2.2,21.1L-3.1,19.4L-3.2,15.2L-3.5,12.9L-4.1,12.6L-4.0,10.4L-2.8,6.4L-2.4,4.8L-4.2,7.2L-6.6,10.2L-7.8,10.8L-8.7,10.7L-11.3,12.5L-14.6,14.6L-15.3,13.8L-13.1,10.6L-11.1,8.1L-11.2,7.2L-10.5,6.1L-7.4,3.8L-4.9,2.2L-6.5,2.5L-10.6,3.4L-12.7,3.4L-13.1,2.8L-15.3,2.4L-19.5,2.0L-21.2,1.1L-18.3,0.0L-14.4,-0.8L-13.2,-1.4L-12.7,-2.0L-9.6,-2.0L-5.7,-1.5L-5.7,-1.8L-9.1,-3.5L-11.7,-5.2L-11.9,-6.0L-12.5,-7.2L-15.3,-9.9L-17.2,-12.5L-15.2,-12.3L-11.5,-10.4L-9.5,-9.5L-8.8,-9.8L-7.0,-8.6L-4.1,-5.7L-2.9,-4.5L-4.2,-7.2L-5.5,-10.8L-5.4,-12.1L-4.9,-12.8L-5.2,-16.0L-5.3,-20.0L-4.3,-20.2L-2.6,-16.6L-1.4,-13.7L-0.7,-13.3L-0.0,-12.2L0.4,-8.3L0.6,-5.3L1.1,-6.9L2.3,-10.9L3.4,-12.7L4.1,-12.7L5.6,-14.5L8.0,-17.9L9.6,-18.9L9.1,-15.8L7.9,-12.1L7.8,-10.8L8.1,-10.0L6.5,-7.3L4.2,-4.2L4.4,-4.0L7.6,-6.2L10.4,-7.6L11.2,-7.2L12.5,-7.2L16.3,-8.3L19.4,-8.6L18.3,-7.0L14.7,-4.8L12.9,-3.5L12.9,-2.7L11.0,-1.7L7.0,-0.7L5.4,-0.3L8.3,-0.0Z" fill="none" stroke="#fdc0c0" stroke-width="4.7" stroke-linecap="round" opacity="0.95"/>
</svg>