<svg xmlns="http://www.w3.org/2000/svg" viewBox="-250 -250 500 500">
<rect x="-250" y="-250" width="500" height="500" fill="#120a28"/>
<path d="M166.0,0.0L165.0,8.6L162.1,17.0L157.4,24.9L151.0,32.1L143.4,38.4L134.9,43.8L125.7,48.3L116.3,51.8L107.1,54.6L98.3,56.7L90.2,58.6L83.1,60.4L77.0,62.3L71.9,64.7L67.9,67.9L64.7,71.9L62.3,77.0L60.4,83.1L58.6,90.2L56.8,98.3L54.6,107.1L51.8,116.3L48.3,125.7L43.8,134.9L38.4,143.4L32.1,151.0L24.9,157.4L17.0,162.1L8.6,165.0L0.0,166.0L-8.6,165.0L-17.0,162.1L-24.9,157.4L-32.1,151.0L-38.4,143.4L-43.8,134.9L-48.3,125.7L-51.8,116.3L-54.6,107.1L-56.7,98.3L-58.6,90.2L-60.4,83.1L-62.3,77.0L-64.7,71.9L-67.9,67.9L-71.9,64.7L-77.0,62.3L-83.1,60.4L-90.2,58.6L-98.3,56.7L-107.1,54.6L-116.3,51.8L-125.7,48.3L-134.9,43.8L-143.4,38.4L-151.0,32.1L-157.4,24.9L-162.1,17.0L-165.0,8.6L-166.0,0.0L-165.0,-8.6L-162.1,-17.0L-157.4,-24.9L-151.0,-32.1L-143.4,-38.4L-134.9,-43.8L-125.7,-48.3L-116.3,-51.8L-107.1,-54.6L-98.3,-56.8L-90.2,-58.6L-83.1,-60.4L-77.0,-62.3L-71.9,-64.7L-67.9,-67.9L-64.7,-71.9L-62.3,-77.0L-60.4,-83.1L-58.6,-90.2L-56.8,-98.3L-54.6,-107.1L-51.8,-116.3L-48.3,-125.7L-43.8,-134.9L-38.4,-143.4L-32.1,-151.0L-24.9,-157.4L-17.0,-162.1L-8.6,-165.0L-0.0,-166.0L8.6,-165.0L17.0,-162.1L24.9,-157.4L32.1,-151.0L38.4,-143.4L43.8,-134.9L48.3,-125.7L51.8,-116.3L54.6,-107.1L56.8,-98.3L58.6,-90.2L60.4,-83.1L62.3,-77.0L64.7,-71.9L67.9,-67.9L71.9,-64.7L77.0,-62.3L83.1,-60.4L90.2,-58.6L98.3,-56.8L107.1,-54.6L116.3,-51.8L125.7,-48.3L134.9,-43.8L143.4,-38.4L151.0,-32.1L157.4,-24.9L162.1,-17.0L165.0,-8.6L166.0,-0.0Z" fill="none" stroke="#ddd5f1" stroke-width="1.2" stroke-linecap="round" opacity="0.95"/><path d="M96.2,0.0L101.3,5.3L107.1,11.3L113.1,17.9L119.1,25.3L124.7,33.4L129.4,42.1L133.1,51.1L135.4,60.3L136.0,69.3L135.0,77.9L132.2,85.9L127.8,92.8L121.7,98.6L114.4,103.0L105.9,105.9L96.7,107.4L87.1,107.5L77.3,106.4L67.7,104.2L58.5,101.3L49.9,97.9L42.1,94.5L35.1,91.3L28.8,88.8L23.3,87.0L18.4,86.4L13.8,87.0L9.3,88.9L4.8,92.0L0.0,96.2L-5.3,101.3L-11.3,107.1L-17.9,113.1L-25.3,119.1L-33.4,124.7L-42.1,129.4L-51.1,133.1L-60.3,135.4L-69.3,136.0L-77.9,135.0L-85.9,132.2L-92.8,127.8L-98.6,121.7L-103.0,114.4L-105.9,105.9L-107.4,96.7L-107.5,87.1L-106.4,77.3L-104.2,67.7L-101.3,58.5L-97.9,49.9L-94.5,42.1L-91.3,35.1L-88.8,28.8L-87.0,23.3L-86.4,18.4L-87.0,13.8L-88.9,9.3L-92.0,4.8L-96.2,0.0L-101.3,-5.3L-107.1,-11.3L-113.1,-17.9L-119.1,-25.3L-124.7,-33.4L-129.4,-42.1L-133.1,-51.1L-135.4,-60.3L-136.0,-69.3L-135.0,-77.9L-132.2,-85.9L-127.8,-92.8L-121.7,-98.6L-114.4,-103.0L-105.9,-105.9L-96.7,-107.4L-87.1,-107.5L-77.3,-106.4L-67.7,-104.2L-58.5,-101.3L-49.9,-97.9L-42.1,-94.5L-35.1,-91.3L-28.8,-88.8L-23.3,-87.0L-18.4,-86.4L-13.8,-87.0L-9.3,-88.9L-4.8,-92.0L-0.0,-96.2L5.3,-101.3L11.3,-107.1L17.9,-113.1L25.3,-119.1L33.4,-124.7L42.1,-129.4L51.1,-133.1L60.3,-135.4L69.3,-136.0L77.9,-135.0L85.9,-132.2L92.8,-127.8L98.6,-121.7L103.0,-114.4L105.9,-105.9L107.4,-96.7L107.5,-87.1L106.4,-77.3L104.2,-67.7L101.3,-58.5L97.9,-49.9L94.5,-42.1L91.3,-35.1L88.8,-28.8L87.0,-23.3L86.4,-18.4L87.0,-13.8L88.9,-9.3L92.0,-4.8L96.2,-0.0Z" fill="none" stroke="#d5f9fa" stroke-width="1.2" stroke-linecap="round" opacity="0.95"/><path d="M121.1,0.0L113.6,6.0L105.9,11.1L98.4,15.6L91.4,19.4L85.2,22.8L80.0,26.0L76.0,29.2L73.2,32.6L71.6,36.5L71.1,41.1L71.6,46.5L72.7,52.8L74.2,60.1L75.7,68.2L77.0,77.0L77.8,86.4L77.7,96.0L76.6,105.4L74.4,114.5L70.9,122.8L66.2,130.0L60.5,135.8L53.7,140.0L46.2,142.3L38.3,142.9L30.1,141.5L21.9,138.5L14.1,133.8L6.7,127.9L0.0,121.1L-6.0,113.6L-11.1,105.9L-15.6,98.4L-19.4,91.4L-22.8,85.2L-26.0,80.0L-29.2,76.0L-32.6,73.2L-36.5,71.6L-41.1,71.1L-46.5,71.6L-52.8,72.7L-60.1,74.2L-68.2,75.7L-77.0,77.0L-86.4,77.8L-96.0,77.7L-105.4,76.6L-114.5,74.4L-122.8,70.9L-130.0,66.2L-135.8,60.5L-140.0,53.7L-142.3,46.2L-142.9,38.3L-141.5,30.1L-138.5,21.9L-133.8,14.1L-127.9,6.7L-121.1,0.0L-113.6,-6.0L-105.9,-11.1L-98.4,-15.6L-91.4,-19.4L-85.2,-22.8L-80.0,-26.0L-76.0,-29.2L-73.2,-32.6L-71.6,-36.5L-71.1,-41.1L-71.6,-46.5L-72.7,-52.8L-74.2,-60.1L-75.7,-68.2L-77.0,-77.0L-77.8,-86.4L-77.7,-96.0L-76.6,-105.4L-74.4,-114.5L-70.9,-122.8L-66.2,-130.0L-60.5,-135.8L-53.7,-140.0L-46.2,-142.3L-38.3,-142.9L-30.1,-141.5L-21.9,-138.5L-14.1,-133.8L-6.7,-127.9L-0.0,-121.1L6.0,-113.6L11.1,-105.9L15.6,-98.4L19.4,-91.4L22.8,-85.2L26.0,-80.0L29.2,-76.0L32.6,-73.2L36.5,-71.6L41.1,-71.1L46.5,-71.6L52.8,-72.7L60.1,-74.2L68.2,-75.7L77.0,-77.0L86.4,-77.8L96.0,-77.7L105.4,-76.6L114.5,-74.4L122.8,-70.9L130.0,-66.2L135.8,-60.5L140.0,-53.7L142.3,-46.2L142.9,-38.3L141.5,-30.1L138.5,-21.9L133.8,-14.1L127.9,-6.7L121.1,-0.0Z" fill="none" stroke="#ddd5f1" stroke-width="1.2" stroke-linecap="round" opacity="0.95"/><path d="M124.5,0.0L130.2,6.8L134.6,14.1L137.3,21.7L138.1,29.4L137.2,36.8L134.3,43.6L129.7,49.8L123.6,55.0L116.2,59.2L107.8,62.2L98.8,64.2L89.5,65.0L80.3,65.0L71.5,64.4L63.3,63.3L55.9,62.1L49.5,61.1L44.1,60.7L39.6,61.0L36.0,62.4L33.0,64.8L30.5,68.5L28.2,73.5L25.8,79.5L23.2,86.5L20.0,94.1L16.2,102.1L11.6,110.1L6.2,117.7L0.0,124.5L-6.8,130.2L-14.1,134.6L-21.7,137.3L-29.4,138.1L-36.8,137.2L-43.6,134.3L-49.8,129.7L-55.0,123.6L-59.2,116.2L-62.3,107.8L-64.2,98.8L-65.0,89.5L-65.0,80.3L-64.4,71.5L-63.3,63.3L-62.1,55.9L-61.1,49.5L-60.7,44.1L-61.0,39.6L-62.4,36.0L-64.8,33.0L-68.5,30.5L-73.5,28.2L-79.5,25.8L-86.5,23.2L-94.1,20.0L-102.1,16.2L-110.1,11.6L-117.7,6.2L-124.5,0.0L-130.2,-6.8L-134.6,-14.1L-137.3,-21.7L-138.1,-29.4L-137.2,-36.8L-134.3,-43.6L-129.7,-49.8L-123.6,-55.0L-116.2,-59.2L-107.8,-62.2L-98.8,-64.2L-89.5,-65.0L-80.3,-65.0L-71.5,-64.4L-63.3,-63.3L-55.9,-62.1L-49.5,-61.1L-44.1,-60.7L-39.6,-61.0L-36.0,-62.4L-33.0,-64.8L-30.5,-68.5L-28.2,-73.5L-25.8,-79.5L-23.2,-86.5L-20.0,-94.1L-16.2,-102.1L-11.6,-110.1L-6.2,-117.7L-0.0,-124.5L6.8,-130.2L14.1,-134.6L21.7,-137.3L29.4,-138.1L36.8,-137.2L43.6,-134.3L49.8,-129.7L55.0,-123.6L59.2,-116.2L62.3,-107.8L64.2,-98.8L65.0,-89.5L65.0,-80.3L64.4,-71.5L63.3,-63.3L62.1,-55.9L61.1,-49.5L60.7,-44.1L61.0,-39.6L62.4,-36.0L64.8,-33.0L68.5,-30.5L73.5,-28.2L79.5,-25.8L86.5,-23.2L94.1,-20.0L102.1,-16.2L110.1,-11.6L117.7,-6.2L124.5,-0.0Z" fill="none" stroke="#d5f9fa" stroke-width="1.2" stroke-linecap="round" opacity="0.95"/><path d="M66.1,0.0L64.3,3.4L63.7,6.7L64.6,10.2L66.6,14.2L69.7,18.7L73.7,23.9L78.1,30.0L82.7,36.8L87.1,44.4L91.0,52.5L94.0,61.1L95.9,69.7L96.5,78.1L95.6,86.1L93.3,93.3L89.4,99.3L84.3,104.1L78.0,107.3L70.8,108.9L62.9,109.0L54.7,107.4L46.5,104.5L38.5,100.3L31.0,95.3L24.1,89.8L17.9,84.0L12.4,78.5L7.7,73.4L3.6,69.2L0.0,66.1L-3.4,64.3L-6.7,63.7L-10.2,64.6L-14.2,66.6L-18.7,69.7L-23.9,73.7L-30.0,78.1L-36.8,82.7L-44.4,87.1L-52.5,91.0L-61.1,94.0L-69.7,95.9L-78.1,96.5L-86.1,95.6L-93.3,93.3L-99.3,89.4L-104.1,84.3L-107.3,78.0L-108.9,70.8L-109.0,62.9L-107.4,54.7L-104.5,46.5L-100.3,38.5L-95.3,31.0L-89.8,24.1L-84.0,17.9L-78.5,12.4L-73.4,7.7L-69.2,3.6L-66.1,0.0L-64.3,-3.4L-63.7,-6.7L-64.6,-10.2L-66.6,-14.2L-69.7,-18.7L-73.7,-23.9L-78.1,-30.0L-82.7,-36.8L-87.1,-44.4L-91.0,-52.5L-94.0,-61.1L-95.9,-69.7L-96.5,-78.1L-95.6,-86.1L-93.3,-93.3L-89.4,-99.3L-84.3,-104.1L-78.0,-107.3L-70.8,-108.9L-62.9,-109.0L-54.7,-107.4L-46.5,-104.5L-38.5,-100.3L-31.0,-95.3L-24.1,-89.8L-17.9,-84.0L-12.4,-78.5L-7.7,-73.4L-3.6,-69.2L-0.0,-66.1L3.4,-64.3L6.7,-63.7L10.2,-64.6L14.2,-66.6L18.7,-69.7L23.9,-73.7L30.0,-78.1L36.8,-82.7L44.4,-87.1L52.5,-91.0L61.1,-94.0L69.7,-95.9L78.1,-96.5L86.1,-95.6L93.3,-93.3L99.3,-89.4L104.1,-84.3L107.3,-78.0L108.9,-70.8L109.0,-62.9L107.4,-54.7L104.5,-46.5L100.3,-38.5L95.3,-31.0L89.8,-24.1L84.0,-17.9L78.5,-12.4L73.4,-7.7L69.2,-3.6L66.1,-0.0Z" fill="none" stroke="#ddd5f1" stroke-width="1.2" stroke-linecap="round" opacity="0.95"/>
</svg>