<svg xmlns="http://www.w3.org/2000/svg" viewBox="-250 -250 500 500">
<defs><filter id="tg"><feGaussianBlur stdDeviation="7.4"/></filter></defs>
<rect x="-250" y="-250" width="500" height="500" fill="#0c0d0e"/>
<path d="M169.3,0.0L169.3,3.0L169.2,5.9L169.1,8.9L168.9,11.8L168.7,14.8L168.4,17.7L168.1,20.6L167.7,23.6L167.2,26.5L166.7,29.4L166.2,32.3L157.8,33.5L157.2,36.3L156.5,39.0L155.8,41.7L155.0,44.5L154.2,47.2L153.4,49.8L152.5,52.5L144.0,52.4L143.1,54.9L142.1,57.4L141.1,59.9L140.0,62.3L138.9,64.8L137.8,67.2L129.4,65.9L128.2,68.2L127.0,70.4L125.8,72.6L124.5,74.8L123.2,77.0L121.8,79.1L113.8,76.7L112.4,78.7L111.0,80.7L109.6,82.6L108.1,84.5L106.6,86.4L99.0,83.1L97.5,84.8L96.0,86.5L94.5,88.1L92.9,89.8L91.4,91.4L89.8,92.9L88.1,94.5L86.5,96.0L79.5,91.5L77.9,92.8L76.3,94.2L74.6,95.5L72.9,96.8L71.2,98.0L69.5,99.3L67.8,100.5L66.0,101.6L64.2,102.8L62.4,103.9L60.6,104.9L58.7,106.0L56.9,107.0L55.0,108.0L53.1,108.9L51.2,109.8L49.3,110.7L47.3,111.5L45.4,112.4L43.4,113.1L41.4,113.9L39.5,114.6L39.9,122.9L37.8,123.6L35.6,124.2L33.4,124.8L31.3,125.4L29.1,125.9L26.9,126.4L24.7,126.8L23.8,135.1L21.5,135.5L19.1,135.9L16.7,136.2L14.3,136.5L12.0,136.7L9.6,136.9L7.6,145.1L5.1,145.2L2.5,145.2L0.0,145.3L-2.5,145.2L-5.1,145.2L-7.6,145.1L-10.7,152.9L-13.4,152.7L-16.0,152.4L-18.7,152.1L-21.3,151.8L-24.0,151.4L-26.6,150.9L-30.8,158.3L-33.5,157.8L-36.3,157.2L-39.0,156.5L-41.7,155.8L-44.5,155.0L-47.2,154.2L-49.8,153.4L-55.1,160.1L-57.9,159.1L-60.7,158.1L-63.4,157.0L-66.2,155.9L-68.9,154.7L-71.6,153.5L-74.2,152.2L-76.9,150.9L-79.5,149.5L-82.1,148.1L-84.7,146.6L-87.2,145.1L-89.7,143.6L-92.2,142.0L-94.7,140.4L-97.1,138.7L-99.5,137.0L-101.9,135.2L-104.2,133.4L-106.6,131.6L-108.8,129.7L-111.1,127.8L-107.9,119.9L-110.0,118.0L-112.0,116.0L-114.1,114.1L-116.0,112.0L-118.0,110.0L-119.9,107.9L-121.7,105.8L-123.6,103.7L-119.1,96.5L-120.8,94.4L-122.4,92.2L-124.0,90.1L-125.6,87.9L-127.1,85.7L-121.8,79.1L-123.2,77.0L-124.5,74.8L-125.8,72.6L-127.0,70.4L-128.2,68.2L-129.4,65.9L-123.3,60.2L-124.4,58.0L-125.4,55.8L-126.3,53.6L-127.2,51.4L-128.1,49.2L-121.4,44.2L-122.2,42.1L-122.9,39.9L-123.6,37.8L-124.2,35.6L-124.8,33.4L-125.4,31.3L-125.9,29.1L-126.4,26.9L-119.0,23.1L-119.3,21.0L-119.7,19.0L-120.0,16.9L-120.3,14.8L-120.5,12.7L-120.7,10.6L-120.9,8.5L-121.0,6.3L-121.1,4.2L-121.2,2.1L-121.2,0.0L-121.2,-2.1L-121.1,-4.2L-121.0,-6.3L-120.9,-8.5L-120.7,-10.6L-120.5,-12.7L-120.3,-14.8L-120.0,-16.9L-119.7,-19.0L-119.3,-21.0L-119.0,-23.1L-126.4,-26.9L-125.9,-29.1L-125.4,-31.3L-124.8,-33.4L-124.2,-35.6L-123.6,-37.8L-122.9,-39.9L-122.2,-42.1L-129.0,-46.9L-128.1,-49.2L-127.2,-51.4L-126.3,-53.6L-125.4,-55.8L-124.4,-58.0L-123.3,-60.2L-129.4,-65.9L-128.2,-68.2L-127.0,-70.4L-125.8,-72.6L-124.5,-74.8L-123.2,-77.0L-121.8,-79.1L-127.1,-85.7L-125.6,-87.9L-124.0,-90.1L-122.4,-92.2L-120.8,-94.4L-119.1,-96.5L-123.6,-103.7L-121.7,-105.8L-119.9,-107.9L-118.0,-110.0L-116.0,-112.0L-114.1,-114.1L-112.0,-116.0L-110.0,-118.0L-107.9,-119.9L-111.1,-127.8L-108.8,-129.7L-106.6,-131.6L-104.2,-133.4L-101.9,-135.2L-99.5,-137.0L-97.1,-138.7L-94.7,-140.4L-92.2,-142.0L-89.7,-143.6L-87.2,-145.1L-84.7,-146.6L-82.1,-148.1L-79.5,-149.5L-76.9,-150.9L-74.2,-152.2L-71.6,-153.5L-68.9,-154.7L-66.2,-155.9L-63.4,-157.0L-60.7,-158.1L-57.9,-159.1L-55.1,-160.1L-49.8,-153.4L-47.2,-154.2L-44.5,-155.0L-41.7,-155.8L-39.0,-156.5L-36.3,-157.2L-33.5,-157.8L-30.8,-158.3L-26.6,-150.9L-24.0,-151.4L-21.3,-151.8L-18.7,-152.1L-16.0,-152.4L-13.4,-152.7L-10.7,-152.9L-7.6,-145.1L-5.1,-145.2L-2.5,-145.2L-0.0,-145.3L2.5,-145.2L5.1,-145.2L7.6,-145.1L9.6,-136.9L12.0,-136.7L14.3,-136.5L16.7,-136.2L19.1,-135.9L21.5,-135.5L23.8,-135.1L24.7,-126.8L26.9,-126.4L29.1,-125.9L31.3,-125.4L33.4,-124.8L35.6,-124.2L37.8,-123.6L39.9,-122.9L39.5,-114.6L41.4,-113.9L43.4,-113.1L45.4,-112.4L47.3,-111.5L49.3,-110.7L51.2,-109.8L53.1,-108.9L55.0,-108.0L56.9,-107.0L58.7,-106.0L60.6,-104.9L62.4,-103.9L64.2,-102.8L66.0,-101.6L67.8,-100.5L69.5,-99.3L71.2,-98.0L72.9,-96.8L74.6,-95.5L76.3,-94.2L77.9,-92.8L79.5,-91.5L86.5,-96.0L88.1,-94.5L89.8,-92.9L91.4,-91.4L92.9,-89.8L94.5,-88.1L96.0,-86.5L97.5,-84.8L99.0,-83.1L106.6,-86.4L108.1,-84.5L109.6,-82.6L111.0,-80.7L112.4,-78.7L113.8,-76.7L121.8,-79.1L123.2,-77.0L124.5,-74.8L125.8,-72.6L127.0,-70.4L128.2,-68.2L129.4,-65.9L137.8,-67.2L138.9,-64.8L140.0,-62.3L141.1,-59.9L142.1,-57.4L143.1,-54.9L144.0,-52.4L152.5,-52.5L153.4,-49.8L154.2,-47.2L155.0,-44.5L155.8,-41.7L156.5,-39.0L157.2,-36.3L157.8,-33.5L166.2,-32.3L166.7,-29.4L167.2,-26.5L167.7,-23.6L168.1,-20.6L168.4,-17.7L168.7,-14.8L168.9,-11.8L169.1,-8.9L169.2,-5.9L169.3,-3.0L169.3,-0.0Z" fill="none" stroke="#ffffff" stroke-width="7.199999999999999" stroke-linecap="round" opacity="0.18" filter="url(#tg)"/><path d="M169.3,0.0L169.3,3.0L169.2,5.9L169.1,8.9L168.9,11.8L168.7,14.8L168.4,17.7L168.1,20.6L167.7,23.6L167.2,26.5L166.7,29.4L166.2,32.3L157.8,33.5L157.2,36.3L156.5,39.0L155.8,41.7L155.0,44.5L154.2,47.2L153.4,49.8L152.5,52.5L144.0,52.4L143.1,54.9L142.1,57.4L141.1,59.9L140.0,62.3L138.9,64.8L137.8,67.2L129.4,65.9L128.2,68.2L127.0,70.4L125.8,72.6L124.5,74.8L123.2,77.0L121.8,79.1L113.8,76.7L112.4,78.7L111.0,80.7L109.6,82.6L108.1,84.5L106.6,86.4L99.0,83.1L97.5,84.8L96.0,86.5L94.5,88.1L92.9,89.8L91.4,91.4L89.8,92.9L88.1,94.5L86.5,96.0L79.5,91.5L77.9,92.8L76.3,94.2L74.6,95.5L72.9,96.8L71.2,98.0L69.5,99.3L67.8,100.5L66.0,101.6L64.2,102.8L62.4,103.9L60.6,104.9L58.7,106.0L56.9,107.0L55.0,108.0L53.1,108.9L51.2,109.8L49.3,110.7L47.3,111.5L45.4,112.4L43.4,113.1L41.4,113.9L39.5,114.6L39.9,122.9L37.8,123.6L35.6,124.2L33.4,124.8L31.3,125.4L29.1,125.9L26.9,126.4L24.7,126.8L23.8,135.1L21.5,135.5L19.1,135.9L16.7,136.2L14.3,136.5L12.0,136.7L9.6,136.9L7.6,145.1L5.1,145.2L2.5,145.2L0.0,145.3L-2.5,145.2L-5.1,145.2L-7.6,145.1L-10.7,152.9L-13.4,152.7L-16.0,152.4L-18.7,152.1L-21.3,151.8L-24.0,151.4L-26.6,150.9L-30.8,158.3L-33.5,157.8L-36.3,157.2L-39.0,156.5L-41.7,155.8L-44.5,155.0L-47.2,154.2L-49.8,153.4L-55.1,160.1L-57.9,159.1L-60.7,158.1L-63.4,157.0L-66.2,155.9L-68.9,154.7L-71.6,153.5L-74.2,152.2L-76.9,150.9L-79.5,149.5L-82.1,148.1L-84.7,146.6L-87.2,145.1L-89.7,143.6L-92.2,142.0L-94.7,140.4L-97.1,138.7L-99.5,137.0L-101.9,135.2L-104.2,133.4L-106.6,131.6L-108.8,129.7L-111.1,127.8L-107.9,119.9L-110.0,118.0L-112.0,116.0L-114.1,114.1L-116.0,112.0L-118.0,110.0L-119.9,107.9L-121.7,105.8L-123.6,103.7L-119.1,96.5L-120.8,94.4L-122.4,92.2L-124.0,90.1L-125.6,87.9L-127.1,85.7L-121.8,79.1L-123.2,77.0L-124.5,74.8L-125.8,72.6L-127.0,70.4L-128.2,68.2L-129.4,65.9L-123.3,60.2L-124.4,58.0L-125.4,55.8L-126.3,53.6L-127.2,51.4L-128.1,49.2L-121.4,44.2L-122.2,42.1L-122.9,39.9L-123.6,37.8L-124.2,35.6L-124.8,33.4L-125.4,31.3L-125.9,29.1L-126.4,26.9L-119.0,23.1L-119.3,21.0L-119.7,19.0L-120.0,16.9L-120.3,14.8L-120.5,12.7L-120.7,10.6L-120.9,8.5L-121.0,6.3L-121.1,4.2L-121.2,2.1L-121.2,0.0L-121.2,-2.1L-121.1,-4.2L-121.0,-6.3L-120.9,-8.5L-120.7,-10.6L-120.5,-12.7L-120.3,-14.8L-120.0,-16.9L-119.7,-19.0L-119.3,-21.0L-119.0,-23.1L-126.4,-26.9L-125.9,-29.1L-125.4,-31.3L-124.8,-33.4L-124.2,-35.6L-123.6,-37.8L-122.9,-39.9L-122.2,-42.1L-129.0,-46.9L-128.1,-49.2L-127.2,-51.4L-126.3,-53.6L-125.4,-55.8L-124.4,-58.0L-123.3,-60.2L-129.4,-65.9L-128.2,-68.2L-127.0,-70.4L-125.8,-72.6L-124.5,-74.8L-123.2,-77.0L-121.8,-79.1L-127.1,-85.7L-125.6,-87.9L-124.0,-90.1L-122.4,-92.2L-120.8,-94.4L-119.1,-96.5L-123.6,-103.7L-121.7,-105.8L-119.9,-107.9L-118.0,-110.0L-116.0,-112.0L-114.1,-114.1L-112.0,-116.0L-110.0,-118.0L-107.9,-119.9L-111.1,-127.8L-108.8,-129.7L-106.6,-131.6L-104.2,-133.4L-101.9,-135.2L-99.5,-137.0L-97.1,-138.7L-94.7,-140.4L-92.2,-142.0L-89.7,-143.6L-87.2,-145.1L-84.7,-146.6L-82.1,-148.1L-79.5,-149.5L-76.9,-150.9L-74.2,-152.2L-71.6,-153.5L-68.9,-154.7L-66.2,-155.9L-63.4,-157.0L-60.7,-158.1L-57.9,-159.1L-55.1,-160.1L-49.8,-153.4L-47.2,-154.2L-44.5,-155.0L-41.7,-155.8L-39.0,-156.5L-36.3,-157.2L-33.5,-157.8L-30.8,-158.3L-26.6,-150.9L-24.0,-151.4L-21.3,-151.8L-18.7,-152.1L-16.0,-152.4L-13.4,-152.7L-10.7,-152.9L-7.6,-145.1L-5.1,-145.2L-2.5,-145.2L-0.0,-145.3L2.5,-145.2L5.1,-145.2L7.6,-145.1L9.6,-136.9L12.0,-136.7L14.3,-136.5L16.7,-136.2L19.1,-135.9L21.5,-135.5L23.8,-135.1L24.7,-126.8L26.9,-126.4L29.1,-125.9L31.3,-125.4L33.4,-124.8L35.6,-124.2L37.8,-123.6L39.9,-122.9L39.5,-114.6L41.4,-113.9L43.4,-113.1L45.4,-112.4L47.3,-111.5L49.3,-110.7L51.2,-109.8L53.1,-108.9L55.0,-108.0L56.9,-107.0L58.7,-106.0L60.6,-104.9L62.4,-103.9L64.2,-102.8L66.0,-101.6L67.8,-100.5L69.5,-99.3L71.2,-98.0L72.9,-96.8L74.6,-95.5L76.3,-94.2L77.9,-92.8L79.5,-91.5L86.5,-96.0L88.1,-94.5L89.8,-92.9L91.4,-91.4L92.9,-89.8L94.5,-88.1L96.0,-86.5L97.5,-84.8L99.0,-83.1L106.6,-86.4L108.1,-84.5L109.6,-82.6L111.0,-80.7L112.4,-78.7L113.8,-76.7L121.8,-79.1L123.2,-77.0L124.5,-74.8L125.8,-72.6L127.0,-70.4L128.2,-68.2L129.4,-65.9L137.8,-67.2L138.9,-64.8L140.0,-62.3L141.1,-59.9L142.1,-57.4L143.1,-54.9L144.0,-52.4L152.5,-52.5L153.4,-49.8L154.2,-47.2L155.0,-44.5L155.8,-41.7L156.5,-39.0L157.2,-36.3L157.8,-33.5L166.2,-32.3L166.7,-29.4L167.2,-26.5L167.7,-23.6L168.1,-20.6L168.4,-17.7L168.7,-14.8L168.9,-11.8L169.1,-8.9L169.2,-5.9L169.3,-3.0L169.3,-0.0Z" fill="none" stroke="#ffffff" stroke-width="2.4" stroke-linecap="round" opacity="0.95"/><path d="M152.3,0.0L152.3,2.7L152.2,5.3L152.1,8.0L151.9,10.6L151.7,13.3L151.4,15.9L159.1,19.5L158.7,22.3L158.3,25.1L157.9,27.8L157.4,30.6L156.8,33.3L156.2,36.1L155.5,38.8L154.8,41.5L161.8,46.4L161.0,49.2L160.1,52.0L159.2,54.8L158.2,57.6L157.1,60.3L156.1,63.1L154.9,65.8L153.8,68.5L152.6,71.1L151.3,73.8L150.0,76.4L148.6,79.0L147.2,81.6L145.8,84.2L144.3,86.7L142.7,89.2L141.2,91.7L139.5,94.1L137.9,96.5L136.2,98.9L134.4,101.3L126.3,98.7L124.6,100.9L122.8,103.0L121.0,105.2L119.1,107.3L117.2,109.3L115.3,111.4L113.3,113.3L111.4,115.3L103.9,111.4L101.9,113.2L99.9,114.9L97.9,116.7L95.8,118.3L93.8,120.0L91.6,121.6L84.8,116.7L82.7,118.2L80.7,119.6L78.6,121.0L76.4,122.3L74.3,123.6L68.1,118.0L66.0,119.2L64.0,120.3L61.8,121.4L59.7,122.4L57.6,123.5L55.4,124.5L50.1,118.0L48.0,118.9L45.9,119.7L43.8,120.5L41.7,121.2L39.6,121.9L37.5,122.6L35.3,123.2L33.2,123.8L29.1,116.6L27.0,117.1L25.0,117.6L22.9,118.0L20.9,118.4L18.8,118.7L16.7,119.0L14.6,119.3L12.6,119.5L10.5,119.7L8.4,119.9L6.3,120.0L4.2,120.1L2.1,120.2L0.0,120.2L-2.1,120.2L-4.2,120.1L-6.3,120.0L-8.4,119.9L-10.5,119.7L-12.6,119.5L-14.6,119.3L-17.8,127.0L-20.1,126.6L-22.3,126.3L-24.5,125.9L-26.7,125.4L-28.8,124.9L-31.0,124.4L-33.2,123.8L-35.3,123.2L-39.8,130.3L-42.1,129.6L-44.4,128.8L-46.6,128.0L-48.8,127.2L-51.0,126.3L-53.2,125.4L-58.7,131.8L-61.0,130.7L-63.2,129.7L-65.5,128.5L-67.7,127.4L-69.9,126.2L-76.1,131.9L-78.4,130.5L-80.7,129.1L-82.9,127.7L-85.2,126.2L-87.3,124.7L-89.5,123.2L-96.5,128.0L-98.7,126.3L-100.9,124.6L-103.0,122.8L-105.2,121.0L-107.3,119.1L-109.3,117.2L-111.4,115.3L-113.3,113.3L-121.1,116.9L-123.1,114.8L-125.1,112.6L-127.0,110.4L-128.9,108.2L-130.8,105.9L-132.6,103.6L-134.4,101.3L-136.2,98.9L-137.9,96.5L-139.5,94.1L-141.2,91.7L-142.7,89.2L-144.3,86.7L-145.8,84.2L-147.2,81.6L-148.6,79.0L-150.0,76.4L-151.3,73.8L-152.6,71.1L-153.8,68.5L-154.9,65.8L-148.6,60.0L-149.7,57.4L-150.6,54.8L-151.6,52.2L-152.5,49.5L-153.3,46.9L-154.1,44.2L-154.8,41.5L-155.5,38.8L-148.4,34.3L-148.9,31.7L-149.5,29.1L-150.0,26.4L-150.4,23.8L-150.8,21.2L-151.1,18.6L-143.5,15.1L-143.7,12.6L-143.9,10.1L-144.1,7.5L-144.2,5.0L-144.2,2.5L-136.2,0.0L-136.2,-2.4L-136.1,-4.8L-136.0,-7.1L-135.9,-9.5L-135.7,-11.9L-135.5,-14.2L-127.3,-15.6L-127.0,-17.8L-126.6,-20.1L-126.3,-22.3L-125.9,-24.5L-125.4,-26.7L-124.9,-28.8L-124.4,-31.0L-123.8,-33.2L-115.5,-33.1L-114.9,-35.1L-114.3,-37.1L-113.6,-39.1L-112.9,-41.1L-112.2,-43.1L-111.4,-45.0L-110.6,-47.0L-109.8,-48.9L-108.9,-50.8L-108.0,-52.7L-107.1,-54.6L-106.1,-56.4L-105.1,-58.3L-104.1,-60.1L-103.0,-61.9L-101.9,-63.7L-100.8,-65.5L-99.6,-67.2L-98.4,-68.9L-97.2,-70.6L-96.0,-72.3L-101.0,-78.9L-99.6,-80.7L-98.2,-82.4L-96.8,-84.1L-95.3,-85.8L-93.8,-87.4L-92.2,-89.1L-90.7,-90.7L-89.1,-92.2L-92.9,-99.6L-91.2,-101.2L-89.4,-102.8L-87.6,-104.4L-85.7,-105.9L-83.9,-107.4L-82.0,-108.8L-84.8,-116.7L-82.7,-118.2L-80.7,-119.6L-78.6,-121.0L-76.4,-122.3L-74.3,-123.6L-76.1,-131.9L-73.8,-133.2L-71.5,-134.5L-69.1,-135.7L-66.8,-136.9L-64.4,-138.0L-61.9,-139.1L-62.6,-147.6L-60.0,-148.6L-57.4,-149.7L-54.8,-150.6L-52.2,-151.6L-49.5,-152.5L-46.9,-153.3L-44.2,-154.1L-41.5,-154.8L-40.7,-163.3L-37.9,-164.0L-35.0,-164.6L-32.1,-165.2L-29.2,-165.8L-26.3,-166.3L-23.4,-166.7L-20.5,-167.1L-17.6,-167.4L-14.7,-167.7L-11.7,-167.9L-8.8,-168.1L-5.9,-168.2L-2.9,-168.3L-0.0,-168.3L2.9,-168.3L5.9,-168.2L8.8,-168.1L11.7,-167.9L14.7,-167.7L17.6,-167.4L20.5,-167.1L22.3,-158.7L25.1,-158.3L27.8,-157.9L30.6,-157.4L33.3,-156.8L36.1,-156.2L38.8,-155.5L41.5,-154.8L44.2,-154.1L44.5,-145.6L47.1,-144.8L49.6,-144.0L52.1,-143.1L54.6,-142.2L57.0,-141.2L59.5,-140.2L58.7,-131.8L61.0,-130.7L63.2,-129.7L65.5,-128.5L67.7,-127.4L69.9,-126.2L68.1,-118.0L70.2,-116.8L72.2,-115.5L74.2,-114.3L76.2,-112.9L78.1,-111.6L80.1,-110.2L77.2,-102.4L78.9,-101.0L80.7,-99.6L82.4,-98.2L84.1,-96.8L85.8,-95.3L87.4,-93.8L89.1,-92.2L90.7,-90.7L86.5,-83.5L87.9,-82.0L89.3,-80.4L90.7,-78.8L92.1,-77.3L93.4,-75.6L94.7,-74.0L96.0,-72.3L97.2,-70.6L98.4,-68.9L99.6,-67.2L100.8,-65.5L101.9,-63.7L103.0,-61.9L104.1,-60.1L105.1,-58.3L106.1,-56.4L107.1,-54.6L108.0,-52.7L108.9,-50.8L109.8,-48.9L110.6,-47.0L118.9,-48.0L119.7,-45.9L120.5,-43.8L121.2,-41.7L121.9,-39.6L122.6,-37.5L123.2,-35.3L123.8,-33.2L124.4,-31.0L132.7,-30.6L133.3,-28.3L133.7,-26.0L134.2,-23.7L134.6,-21.3L134.9,-19.0L135.2,-16.6L143.5,-15.1L143.7,-12.6L143.9,-10.1L144.1,-7.5L144.2,-5.0L144.2,-2.5L152.3,-0.0Z" fill="none" stroke="#eaf0ff" stroke-width="7.199999999999999" stroke-linecap="round" opacity="0.18" filter="url(#tg)"/><path d="M152.3,0.0L152.3,2.7L152.2,5.3L152.1,8.0L151.9,10.6L151.7,13.3L151.4,15.9L159.1,19.5L158.7,22.3L158.3,25.1L157.9,27.8L157.4,30.6L156.8,33.3L156.2,36.1L155.5,38.8L154.8,41.5L161.8,46.4L161.0,49.2L160.1,52.0L159.2,54.8L158.2,57.6L157.1,60.3L156.1,63.1L154.9,65.8L153.8,68.5L152.6,71.1L151.3,73.8L150.0,76.4L148.6,79.0L147.2,81.6L145.8,84.2L144.3,86.7L142.7,89.2L141.2,91.7L139.5,94.1L137.9,96.5L136.2,98.9L134.4,101.3L126.3,98.7L124.6,100.9L122.8,103.0L121.0,105.2L119.1,107.3L117.2,109.3L115.3,111.4L113.3,113.3L111.4,115.3L103.9,111.4L101.9,113.2L99.9,114.9L97.9,116.7L95.8,118.3L93.8,120.0L91.6,121.6L84.8,116.7L82.7,118.2L80.7,119.6L78.6,121.0L76.4,122.3L74.3,123.6L68.1,118.0L66.0,119.2L64.0,120.3L61.8,121.4L59.7,122.4L57.6,123.5L55.4,124.5L50.1,118.0L48.0,118.9L45.9,119.7L43.8,120.5L41.7,121.2L39.6,121.9L37.5,122.6L35.3,123.2L33.2,123.8L29.1,116.6L27.0,117.1L25.0,117.6L22.9,118.0L20.9,118.4L18.8,118.7L16.7,119.0L14.6,119.3L12.6,119.5L10.5,119.7L8.4,119.9L6.3,120.0L4.2,120.1L2.1,120.2L0.0,120.2L-2.1,120.2L-4.2,120.1L-6.3,120.0L-8.4,119.9L-10.5,119.7L-12.6,119.5L-14.6,119.3L-17.8,127.0L-20.1,126.6L-22.3,126.3L-24.5,125.9L-26.7,125.4L-28.8,124.9L-31.0,124.4L-33.2,123.8L-35.3,123.2L-39.8,130.3L-42.1,129.6L-44.4,128.8L-46.6,128.0L-48.8,127.2L-51.0,126.3L-53.2,125.4L-58.7,131.8L-61.0,130.7L-63.2,129.7L-65.5,128.5L-67.7,127.4L-69.9,126.2L-76.1,131.9L-78.4,130.5L-80.7,129.1L-82.9,127.7L-85.2,126.2L-87.3,124.7L-89.5,123.2L-96.5,128.0L-98.7,126.3L-100.9,124.6L-103.0,122.8L-105.2,121.0L-107.3,119.1L-109.3,117.2L-111.4,115.3L-113.3,113.3L-121.1,116.9L-123.1,114.8L-125.1,112.6L-127.0,110.4L-128.9,108.2L-130.8,105.9L-132.6,103.6L-134.4,101.3L-136.2,98.9L-137.9,96.5L-139.5,94.1L-141.2,91.7L-142.7,89.2L-144.3,86.7L-145.8,84.2L-147.2,81.6L-148.6,79.0L-150.0,76.4L-151.3,73.8L-152.6,71.1L-153.8,68.5L-154.9,65.8L-148.6,60.0L-149.7,57.4L-150.6,54.8L-151.6,52.2L-152.5,49.5L-153.3,46.9L-154.1,44.2L-154.8,41.5L-155.5,38.8L-148.4,34.3L-148.9,31.7L-149.5,29.1L-150.0,26.4L-150.4,23.8L-150.8,21.2L-151.1,18.6L-143.5,15.1L-143.7,12.6L-143.9,10.1L-144.1,7.5L-144.2,5.0L-144.2,2.5L-136.2,0.0L-136.2,-2.4L-136.1,-4.8L-136.0,-7.1L-135.9,-9.5L-135.7,-11.9L-135.5,-14.2L-127.3,-15.6L-127.0,-17.8L-126.6,-20.1L-126.3,-22.3L-125.9,-24.5L-125.4,-26.7L-124.9,-28.8L-124.4,-31.0L-123.8,-33.2L-115.5,-33.1L-114.9,-35.1L-114.3,-37.1L-113.6,-39.1L-112.9,-41.1L-112.2,-43.1L-111.4,-45.0L-110.6,-47.0L-109.8,-48.9L-108.9,-50.8L-108.0,-52.7L-107.1,-54.6L-106.1,-56.4L-105.1,-58.3L-104.1,-60.1L-103.0,-61.9L-101.9,-63.7L-100.8,-65.5L-99.6,-67.2L-98.4,-68.9L-97.2,-70.6L-96.0,-72.3L-101.0,-78.9L-99.6,-80.7L-98.2,-82.4L-96.8,-84.1L-95.3,-85.8L-93.8,-87.4L-92.2,-89.1L-90.7,-90.7L-89.1,-92.2L-92.9,-99.6L-91.2,-101.2L-89.4,-102.8L-87.6,-104.4L-85.7,-105.9L-83.9,-107.4L-82.0,-108.8L-84.8,-116.7L-82.7,-118.2L-80.7,-119.6L-78.6,-121.0L-76.4,-122.3L-74.3,-123.6L-76.1,-131.9L-73.8,-133.2L-71.5,-134.5L-69.1,-135.7L-66.8,-136.9L-64.4,-138.0L-61.9,-139.1L-62.6,-147.6L-60.0,-148.6L-57.4,-149.7L-54.8,-150.6L-52.2,-151.6L-49.5,-152.5L-46.9,-153.3L-44.2,-154.1L-41.5,-154.8L-40.7,-163.3L-37.9,-164.0L-35.0,-164.6L-32.1,-165.2L-29.2,-165.8L-26.3,-166.3L-23.4,-166.7L-20.5,-167.1L-17.6,-167.4L-14.7,-167.7L-11.7,-167.9L-8.8,-168.1L-5.9,-168.2L-2.9,-168.3L-0.0,-168.3L2.9,-168.3L5.9,-168.2L8.8,-168.1L11.7,-167.9L14.7,-167.7L17.6,-167.4L20.5,-167.1L22.3,-158.7L25.1,-158.3L27.8,-157.9L30.6,-157.4L33.3,-156.8L36.1,-156.2L38.8,-155.5L41.5,-154.8L44.2,-154.1L44.5,-145.6L47.1,-144.8L49.6,-144.0L52.1,-143.1L54.6,-142.2L57.0,-141.2L59.5,-140.2L58.7,-131.8L61.0,-130.7L63.2,-129.7L65.5,-128.5L67.7,-127.4L69.9,-126.2L68.1,-118.0L70.2,-116.8L72.2,-115.5L74.2,-114.3L76.2,-112.9L78.1,-111.6L80.1,-110.2L77.2,-102.4L78.9,-101.0L80.7,-99.6L82.4,-98.2L84.1,-96.8L85.8,-95.3L87.4,-93.8L89.1,-92.2L90.7,-90.7L86.5,-83.5L87.9,-82.0L89.3,-80.4L90.7,-78.8L92.1,-77.3L93.4,-75.6L94.7,-74.0L96.0,-72.3L97.2,-70.6L98.4,-68.9L99.6,-67.2L100.8,-65.5L101.9,-63.7L103.0,-61.9L104.1,-60.1L105.1,-58.3L106.1,-56.4L107.1,-54.6L108.0,-52.7L108.9,-50.8L109.8,-48.9L110.6,-47.0L118.9,-48.0L119.7,-45.9L120.5,-43.8L121.2,-41.7L121.9,-39.6L122.6,-37.5L123.2,-35.3L123.8,-33.2L124.4,-31.0L132.7,-30.6L133.3,-28.3L133.7,-26.0L134.2,-23.7L134.6,-21.3L134.9,-19.0L135.2,-16.6L143.5,-15.1L143.7,-12.6L143.9,-10.1L144.1,-7.5L144.2,-5.0L144.2,-2.5L152.3,-0.0Z" fill="none" stroke="#eaf0ff" stroke-width="2.4" stroke-linecap="round" opacity="0.95"/><path d="M119.2,0.0L119.2,2.1L119.1,4.2L119.0,6.2L118.9,8.3L126.7,11.1L126.5,13.3L126.3,15.5L126.0,17.7L125.6,19.9L125.3,22.1L124.9,24.3L124.4,26.4L131.8,30.4L131.2,32.7L130.6,35.0L130.0,37.3L129.3,39.5L128.6,41.8L127.9,44.0L134.6,49.0L133.7,51.3L132.8,53.7L131.9,56.0L130.9,58.3L129.8,60.5L128.8,62.8L134.8,68.7L133.6,71.0L132.3,73.3L131.0,75.6L129.7,77.9L128.3,80.2L126.9,82.4L132.1,89.1L130.5,91.4L128.9,93.6L127.2,95.9L125.5,98.1L123.8,100.3L122.0,102.4L120.2,104.5L124.3,112.0L122.4,114.1L120.4,116.2L118.3,118.3L116.2,120.4L114.1,122.4L112.0,124.3L109.8,126.3L107.6,128.2L105.3,130.0L103.0,131.9L100.7,133.6L98.4,135.4L96.0,137.1L93.6,138.7L91.1,140.3L88.7,141.9L86.2,143.4L83.7,144.9L81.1,146.3L78.6,147.7L76.0,149.1L73.4,150.4L67.3,144.4L64.8,145.5L62.2,146.6L59.7,147.7L57.1,148.7L54.5,149.7L51.9,150.6L49.2,151.5L46.6,152.3L41.7,145.4L39.2,146.1L36.6,146.8L34.0,147.4L31.5,148.0L28.9,148.5L24.9,141.1L22.4,141.5L19.9,141.9L17.5,142.2L15.0,142.5L12.5,142.7L10.0,142.9L7.1,135.0L4.7,135.2L2.4,135.2L0.0,135.2L-2.4,135.2L-4.7,135.2L-6.7,127.0L-8.9,126.9L-11.1,126.7L-13.3,126.5L-15.5,126.3L-17.7,126.0L-19.9,125.6L-22.1,125.3L-24.3,124.9L-24.8,116.6L-26.8,116.1L-28.8,115.6L-30.8,115.1L-32.9,114.6L-34.8,114.0L-36.8,113.4L-38.8,112.7L-40.8,112.0L-42.7,111.3L-44.6,110.5L-46.6,109.7L-48.5,108.9L-50.4,108.0L-52.2,107.1L-54.1,106.2L-56.0,105.2L-57.8,104.2L-59.6,103.2L-61.4,102.2L-63.2,101.1L-64.9,100.0L-66.6,98.8L-73.0,104.2L-74.8,102.9L-76.6,101.6L-78.3,100.2L-80.1,98.9L-81.8,97.4L-83.5,96.0L-85.1,94.5L-86.8,93.0L-93.9,97.3L-95.6,95.6L-97.3,93.9L-98.9,92.2L-100.5,90.5L-102.1,88.7L-109.7,92.1L-111.3,90.2L-112.9,88.2L-114.4,86.2L-115.9,84.2L-117.4,82.2L-118.8,80.1L-126.9,82.4L-128.3,80.2L-129.7,77.9L-131.0,75.6L-132.3,73.3L-133.6,71.0L-141.9,72.3L-143.2,69.8L-144.4,67.3L-145.5,64.8L-146.6,62.2L-147.7,59.7L-148.7,57.1L-149.7,54.5L-150.6,51.9L-159.1,51.7L-160.0,48.9L-160.8,46.1L-161.6,43.3L-162.4,40.5L-163.0,37.6L-163.7,34.8L-164.3,31.9L-164.8,29.1L-165.3,26.2L-165.7,23.3L-166.1,20.4L-166.4,17.5L-166.7,14.6L-166.9,11.7L-167.1,8.8L-167.2,5.8L-167.3,2.9L-167.3,0.0L-167.3,-2.9L-167.2,-5.8L-167.1,-8.8L-166.9,-11.7L-158.7,-13.9L-158.4,-16.7L-158.1,-19.4L-157.8,-22.2L-157.3,-24.9L-156.9,-27.7L-156.4,-30.4L-155.8,-33.1L-155.2,-35.8L-146.8,-36.6L-146.1,-39.2L-145.4,-41.7L-144.7,-44.2L-143.9,-46.7L-143.0,-49.3L-134.6,-49.0L-133.7,-51.3L-132.8,-53.7L-131.9,-56.0L-130.9,-58.3L-129.8,-60.5L-128.8,-62.8L-120.5,-61.4L-119.4,-63.5L-118.3,-65.6L-117.1,-67.6L-115.9,-69.7L-114.7,-71.7L-106.7,-69.3L-105.5,-71.1L-104.2,-73.0L-102.9,-74.8L-101.6,-76.6L-100.2,-78.3L-98.9,-80.1L-97.4,-81.8L-96.0,-83.5L-88.6,-79.8L-87.2,-81.3L-85.7,-82.8L-84.3,-84.3L-82.8,-85.7L-81.3,-87.2L-79.8,-88.6L-78.2,-90.0L-76.6,-91.3L-75.0,-92.6L-73.4,-93.9L-71.7,-95.2L-70.1,-96.4L-68.4,-97.6L-66.6,-98.8L-64.9,-100.0L-63.2,-101.1L-61.4,-102.2L-59.6,-103.2L-57.8,-104.2L-56.0,-105.2L-54.1,-106.2L-52.2,-107.1L-53.8,-115.3L-51.7,-116.2L-49.7,-117.1L-47.7,-117.9L-45.6,-118.8L-43.5,-119.5L-41.4,-120.3L-39.3,-121.0L-37.2,-121.7L-37.3,-130.0L-35.0,-130.6L-32.7,-131.2L-30.4,-131.8L-28.1,-132.3L-25.8,-132.8L-24.9,-141.1L-22.4,-141.5L-19.9,-141.9L-17.5,-142.2L-15.0,-142.5L-12.5,-142.7L-10.0,-142.9L-7.9,-151.1L-5.3,-151.2L-2.6,-151.3L-0.0,-151.3L2.6,-151.3L5.3,-151.2L7.9,-151.1L11.1,-158.9L13.9,-158.7L16.7,-158.4L19.4,-158.1L22.2,-157.8L24.9,-157.3L27.7,-156.9L30.4,-156.4L34.8,-163.7L37.6,-163.0L40.5,-162.4L43.3,-161.6L46.1,-160.8L48.9,-160.0L51.7,-159.1L54.5,-158.2L57.2,-157.2L60.0,-156.2L62.7,-155.1L65.4,-154.0L68.1,-152.9L70.7,-151.7L73.4,-150.4L76.0,-149.1L78.6,-147.7L81.1,-146.3L83.7,-144.9L86.2,-143.4L88.7,-141.9L91.1,-140.3L93.6,-138.7L91.4,-130.5L93.6,-128.9L95.9,-127.2L98.1,-125.5L100.3,-123.8L102.4,-122.0L104.5,-120.2L106.6,-118.4L103.2,-110.6L105.1,-108.8L107.0,-107.0L108.8,-105.1L110.6,-103.2L112.4,-101.2L114.2,-99.2L109.7,-92.1L111.3,-90.2L112.9,-88.2L114.4,-86.2L115.9,-84.2L117.4,-82.2L118.8,-80.1L113.4,-73.7L114.7,-71.7L115.9,-69.7L117.1,-67.6L118.3,-65.6L119.4,-63.5L120.5,-61.4L114.3,-55.8L115.3,-53.8L116.2,-51.7L117.1,-49.7L117.9,-47.7L118.8,-45.6L119.5,-43.5L120.3,-41.4L113.4,-36.8L114.0,-34.8L114.6,-32.9L115.1,-30.8L115.6,-28.8L116.1,-26.8L116.6,-24.8L117.0,-22.7L117.4,-20.7L117.7,-18.6L118.0,-16.6L118.3,-14.5L118.5,-12.5L118.7,-10.4L118.9,-8.3L119.0,-6.2L119.1,-4.2L119.2,-2.1L119.2,-0.0Z" fill="none" stroke="#d5e1ff" stroke-width="7.199999999999999" stroke-linecap="round" opacity="0.18" filter="url(#tg)"/><path d="M119.2,0.0L119.2,2.1L119.1,4.2L119.0,6.2L118.9,8.3L126.7,11.1L126.5,13.3L126.3,15.5L126.0,17.7L125.6,19.9L125.3,22.1L124.9,24.3L124.4,26.4L131.8,30.4L131.2,32.7L130.6,35.0L130.0,37.3L129.3,39.5L128.6,41.8L127.9,44.0L134.6,49.0L133.7,51.3L132.8,53.7L131.9,56.0L130.9,58.3L129.8,60.5L128.8,62.8L134.8,68.7L133.6,71.0L132.3,73.3L131.0,75.6L129.7,77.9L128.3,80.2L126.9,82.4L132.1,89.1L130.5,91.4L128.9,93.6L127.2,95.9L125.5,98.1L123.8,100.3L122.0,102.4L120.2,104.5L124.3,112.0L122.4,114.1L120.4,116.2L118.3,118.3L116.2,120.4L114.1,122.4L112.0,124.3L109.8,126.3L107.6,128.2L105.3,130.0L103.0,131.9L100.7,133.6L98.4,135.4L96.0,137.1L93.6,138.7L91.1,140.3L88.7,141.9L86.2,143.4L83.7,144.9L81.1,146.3L78.6,147.7L76.0,149.1L73.4,150.4L67.3,144.4L64.8,145.5L62.2,146.6L59.7,147.7L57.1,148.7L54.5,149.7L51.9,150.6L49.2,151.5L46.6,152.3L41.7,145.4L39.2,146.1L36.6,146.8L34.0,147.4L31.5,148.0L28.9,148.5L24.9,141.1L22.4,141.5L19.9,141.9L17.5,142.2L15.0,142.5L12.5,142.7L10.0,142.9L7.1,135.0L4.7,135.2L2.4,135.2L0.0,135.2L-2.4,135.2L-4.7,135.2L-6.7,127.0L-8.9,126.9L-11.1,126.7L-13.3,126.5L-15.5,126.3L-17.7,126.0L-19.9,125.6L-22.1,125.3L-24.3,124.9L-24.8,116.6L-26.8,116.1L-28.8,115.6L-30.8,115.1L-32.9,114.6L-34.8,114.0L-36.8,113.4L-38.8,112.7L-40.8,112.0L-42.7,111.3L-44.6,110.5L-46.6,109.7L-48.5,108.9L-50.4,108.0L-52.2,107.1L-54.1,106.2L-56.0,105.2L-57.8,104.2L-59.6,103.2L-61.4,102.2L-63.2,101.1L-64.9,100.0L-66.6,98.8L-73.0,104.2L-74.8,102.9L-76.6,101.6L-78.3,100.2L-80.1,98.9L-81.8,97.4L-83.5,96.0L-85.1,94.5L-86.8,93.0L-93.9,97.3L-95.6,95.6L-97.3,93.9L-98.9,92.2L-100.5,90.5L-102.1,88.7L-109.7,92.1L-111.3,90.2L-112.9,88.2L-114.4,86.2L-115.9,84.2L-117.4,82.2L-118.8,80.1L-126.9,82.4L-128.3,80.2L-129.7,77.9L-131.0,75.6L-132.3,73.3L-133.6,71.0L-141.9,72.3L-143.2,69.8L-144.4,67.3L-145.5,64.8L-146.6,62.2L-147.7,59.7L-148.7,57.1L-149.7,54.5L-150.6,51.9L-159.1,51.7L-160.0,48.9L-160.8,46.1L-161.6,43.3L-162.4,40.5L-163.0,37.6L-163.7,34.8L-164.3,31.9L-164.8,29.1L-165.3,26.2L-165.7,23.3L-166.1,20.4L-166.4,17.5L-166.7,14.6L-166.9,11.7L-167.1,8.8L-167.2,5.8L-167.3,2.9L-167.3,0.0L-167.3,-2.9L-167.2,-5.8L-167.1,-8.8L-166.9,-11.7L-158.7,-13.9L-158.4,-16.7L-158.1,-19.4L-157.8,-22.2L-157.3,-24.9L-156.9,-27.7L-156.4,-30.4L-155.8,-33.1L-155.2,-35.8L-146.8,-36.6L-146.1,-39.2L-145.4,-41.7L-144.7,-44.2L-143.9,-46.7L-143.0,-49.3L-134.6,-49.0L-133.7,-51.3L-132.8,-53.7L-131.9,-56.0L-130.9,-58.3L-129.8,-60.5L-128.8,-62.8L-120.5,-61.4L-119.4,-63.5L-118.3,-65.6L-117.1,-67.6L-115.9,-69.7L-114.7,-71.7L-106.7,-69.3L-105.5,-71.1L-104.2,-73.0L-102.9,-74.8L-101.6,-76.6L-100.2,-78.3L-98.9,-80.1L-97.4,-81.8L-96.0,-83.5L-88.6,-79.8L-87.2,-81.3L-85.7,-82.8L-84.3,-84.3L-82.8,-85.7L-81.3,-87.2L-79.8,-88.6L-78.2,-90.0L-76.6,-91.3L-75.0,-92.6L-73.4,-93.9L-71.7,-95.2L-70.1,-96.4L-68.4,-97.6L-66.6,-98.8L-64.9,-100.0L-63.2,-101.1L-61.4,-102.2L-59.6,-103.2L-57.8,-104.2L-56.0,-105.2L-54.1,-106.2L-52.2,-107.1L-53.8,-115.3L-51.7,-116.2L-49.7,-117.1L-47.7,-117.9L-45.6,-118.8L-43.5,-119.5L-41.4,-120.3L-39.3,-121.0L-37.2,-121.7L-37.3,-130.0L-35.0,-130.6L-32.7,-131.2L-30.4,-131.8L-28.1,-132.3L-25.8,-132.8L-24.9,-141.1L-22.4,-141.5L-19.9,-141.9L-17.5,-142.2L-15.0,-142.5L-12.5,-142.7L-10.0,-142.9L-7.9,-151.1L-5.3,-151.2L-2.6,-151.3L-0.0,-151.3L2.6,-151.3L5.3,-151.2L7.9,-151.1L11.1,-158.9L13.9,-158.7L16.7,-158.4L19.4,-158.1L22.2,-157.8L24.9,-157.3L27.7,-156.9L30.4,-156.4L34.8,-163.7L37.6,-163.0L40.5,-162.4L43.3,-161.6L46.1,-160.8L48.9,-160.0L51.7,-159.1L54.5,-158.2L57.2,-157.2L60.0,-156.2L62.7,-155.1L65.4,-154.0L68.1,-152.9L70.7,-151.7L73.4,-150.4L76.0,-149.1L78.6,-147.7L81.1,-146.3L83.7,-144.9L86.2,-143.4L88.7,-141.9L91.1,-140.3L93.6,-138.7L91.4,-130.5L93.6,-128.9L95.9,-127.2L98.1,-125.5L100.3,-123.8L102.4,-122.0L104.5,-120.2L106.6,-118.4L103.2,-110.6L105.1,-108.8L107.0,-107.0L108.8,-105.1L110.6,-103.2L112.4,-101.2L114.2,-99.2L109.7,-92.1L111.3,-90.2L112.9,-88.2L114.4,-86.2L115.9,-84.2L117.4,-82.2L118.8,-80.1L113.4,-73.7L114.7,-71.7L115.9,-69.7L117.1,-67.6L118.3,-65.6L119.4,-63.5L120.5,-61.4L114.3,-55.8L115.3,-53.8L116.2,-51.7L117.1,-49.7L117.9,-47.7L118.8,-45.6L119.5,-43.5L120.3,-41.4L113.4,-36.8L114.0,-34.8L114.6,-32.9L115.1,-30.8L115.6,-28.8L116.1,-26.8L116.6,-24.8L117.0,-22.7L117.4,-20.7L117.7,-18.6L118.0,-16.6L118.3,-14.5L118.5,-12.5L118.7,-10.4L118.9,-8.3L119.0,-6.2L119.1,-4.2L119.2,-2.1L119.2,-0.0Z" fill="none" stroke="#d5e1ff" stroke-width="2.4" stroke-linecap="round" opacity="0.95"/><path d="M126.2,0.0L126.2,2.2L126.1,4.4L126.0,6.6L125.9,8.8L125.7,11.0L125.5,13.2L125.3,15.4L125.0,17.6L116.7,18.5L116.4,20.5L116.0,22.6L115.6,24.6L115.2,26.6L114.7,28.6L114.2,30.6L113.6,32.6L113.0,34.6L112.4,36.5L111.8,38.5L111.1,40.4L110.3,42.4L109.6,44.3L108.8,46.2L108.0,48.1L107.1,50.0L106.2,51.8L105.3,53.7L104.4,55.5L103.4,57.3L102.4,59.1L108.2,65.0L107.0,66.9L105.9,68.7L104.6,70.6L103.4,72.4L102.1,74.2L100.8,76.0L99.5,77.7L98.1,79.4L102.8,86.3L101.3,88.1L99.8,89.8L98.2,91.6L96.6,93.3L94.9,94.9L93.3,96.6L97.0,104.0L95.2,105.7L93.3,107.4L91.4,109.0L89.5,110.6L87.6,112.1L90.4,120.0L88.3,121.6L86.2,123.1L84.0,124.6L81.9,126.0L79.6,127.4L77.4,128.8L79.2,137.1L76.7,138.5L74.3,139.8L71.9,141.1L69.4,142.3L66.9,143.5L64.4,144.6L61.9,145.7L59.3,146.8L59.6,155.3L56.9,156.3L54.2,157.3L51.4,158.2L48.6,159.1L45.8,159.9L43.0,160.7L40.2,161.4L37.4,162.1L34.6,162.7L31.7,163.3L28.9,163.8L26.0,164.3L23.1,164.7L20.3,165.1L17.4,165.4L14.5,165.7L11.6,165.9L8.7,166.1L5.8,166.2L2.9,166.3L0.0,166.3L-2.8,158.3L-5.5,158.2L-8.3,158.1L-11.0,157.9L-13.8,157.7L-16.5,157.4L-19.3,157.1L-22.0,156.8L-24.8,156.4L-26.1,148.0L-28.7,147.5L-31.2,147.0L-33.8,146.4L-36.4,145.8L-38.9,145.2L-41.4,144.5L-41.6,136.0L-44.0,135.3L-46.3,134.5L-48.7,133.7L-51.0,132.8L-53.3,131.9L-52.5,123.6L-54.6,122.6L-56.7,121.7L-58.8,120.7L-60.9,119.6L-63.0,118.5L-65.1,117.4L-63.1,109.3L-65.0,108.2L-66.9,107.0L-68.7,105.9L-70.6,104.6L-72.4,103.4L-74.2,102.1L-76.0,100.8L-77.7,99.5L-74.4,91.9L-76.0,90.5L-77.5,89.2L-79.1,87.8L-80.6,86.4L-82.1,85.0L-83.6,83.6L-85.0,82.1L-86.4,80.6L-87.8,79.1L-89.2,77.5L-90.5,76.0L-91.9,74.4L-93.1,72.8L-94.4,71.1L-95.6,69.5L-96.8,67.8L-98.0,66.1L-99.1,64.4L-100.2,62.6L-101.3,60.9L-102.4,59.1L-110.4,61.2L-111.4,59.3L-112.5,57.3L-113.4,55.3L-114.4,53.3L-115.3,51.3L-116.2,49.3L-117.0,47.3L-117.8,45.2L-126.1,45.9L-126.9,43.7L-127.7,41.5L-128.4,39.2L-129.0,37.0L-129.7,34.7L-130.3,32.5L-138.6,32.0L-139.2,29.6L-139.6,27.1L-140.1,24.7L-140.5,22.3L-140.9,19.8L-149.2,18.3L-149.5,15.7L-149.7,13.1L-149.9,10.5L-150.1,7.9L-150.2,5.2L-150.3,2.6L-158.3,0.0L-158.3,-2.8L-158.2,-5.5L-158.1,-8.3L-157.9,-11.0L-157.7,-13.8L-157.4,-16.5L-157.1,-19.3L-156.8,-22.0L-164.3,-26.0L-163.8,-28.9L-163.3,-31.7L-162.7,-34.6L-162.1,-37.4L-161.4,-40.2L-160.7,-43.0L-159.9,-45.8L-159.1,-48.6L-158.2,-51.4L-157.3,-54.2L-156.3,-56.9L-155.3,-59.6L-154.2,-62.3L-153.1,-65.0L-152.0,-67.7L-150.7,-70.3L-149.5,-72.9L-148.2,-75.5L-146.9,-78.1L-145.5,-80.6L-144.0,-83.2L-135.7,-81.5L-134.3,-83.9L-132.8,-86.2L-131.2,-88.5L-129.7,-90.8L-128.1,-93.1L-126.4,-95.3L-124.7,-97.5L-123.0,-99.6L-115.1,-96.6L-113.4,-98.6L-111.7,-100.6L-109.9,-102.5L-108.1,-104.4L-106.3,-106.3L-104.4,-108.1L-97.0,-104.0L-95.2,-105.7L-93.3,-107.4L-91.4,-109.0L-89.5,-110.6L-87.6,-112.1L-80.8,-107.2L-78.9,-108.6L-77.0,-110.0L-75.1,-111.3L-73.1,-112.6L-71.1,-113.8L-69.1,-115.1L-63.1,-109.3L-61.2,-110.4L-59.3,-111.4L-57.3,-112.5L-55.3,-113.4L-53.3,-114.4L-51.3,-115.3L-49.3,-116.2L-47.3,-117.0L-42.4,-110.3L-40.4,-111.1L-38.5,-111.8L-36.5,-112.4L-34.6,-113.0L-32.6,-113.6L-30.6,-114.2L-28.6,-114.7L-26.6,-115.2L-24.6,-115.6L-22.6,-116.0L-20.5,-116.4L-18.5,-116.7L-16.4,-117.0L-14.4,-117.3L-12.4,-117.5L-10.3,-117.7L-8.2,-117.9L-6.2,-118.0L-4.1,-118.1L-2.1,-118.2L-0.0,-118.2L2.2,-126.2L4.4,-126.1L6.6,-126.0L8.8,-125.9L11.0,-125.7L13.2,-125.5L15.4,-125.3L17.6,-125.0L19.7,-124.7L23.3,-132.2L25.6,-131.8L27.9,-131.3L30.2,-130.8L32.5,-130.3L34.7,-129.7L37.0,-129.0L41.6,-136.0L44.0,-135.3L46.3,-134.5L48.7,-133.7L51.0,-132.8L53.3,-131.9L58.7,-138.3L61.1,-137.3L63.5,-136.2L65.9,-135.1L68.2,-133.9L70.6,-132.7L72.9,-131.4L79.2,-137.1L81.5,-135.7L83.9,-134.3L86.2,-132.8L88.5,-131.2L90.8,-129.7L93.1,-128.1L95.3,-126.4L97.5,-124.7L104.7,-129.3L106.9,-127.4L109.1,-125.5L111.3,-123.6L113.4,-121.6L115.5,-119.6L117.6,-117.6L119.6,-115.5L121.6,-113.4L123.6,-111.3L125.5,-109.1L127.4,-106.9L129.3,-104.7L131.1,-102.4L132.8,-100.1L134.6,-97.8L136.3,-95.4L137.9,-93.0L139.5,-90.6L141.1,-88.1L142.6,-85.7L144.0,-83.2L138.5,-76.7L139.8,-74.3L141.1,-71.9L142.3,-69.4L143.5,-66.9L144.6,-64.4L145.7,-61.9L146.8,-59.3L147.8,-56.7L141.2,-51.4L142.1,-48.9L142.9,-46.4L143.7,-43.9L144.5,-41.4L145.2,-38.9L145.8,-36.4L138.6,-32.0L139.2,-29.6L139.6,-27.1L140.1,-24.7L140.5,-22.3L140.9,-19.8L133.2,-16.4L133.5,-14.0L133.7,-11.7L133.9,-9.4L134.1,-7.0L134.2,-4.7L134.2,-2.3L126.2,-0.0Z" fill="none" stroke="#bfd2ff" stroke-width="7.199999999999999" stroke-linecap="round" opacity="0.18" filter="url(#tg)"/><path d="M126.2,0.0L126.2,2.2L126.1,4.4L126.0,6.6L125.9,8.8L125.7,11.0L125.5,13.2L125.3,15.4L125.0,17.6L116.7,18.5L116.4,20.5L116.0,22.6L115.6,24.6L115.2,26.6L114.7,28.6L114.2,30.6L113.6,32.6L113.0,34.6L112.4,36.5L111.8,38.5L111.1,40.4L110.3,42.4L109.6,44.3L108.8,46.2L108.0,48.1L107.1,50.0L106.2,51.8L105.3,53.7L104.4,55.5L103.4,57.3L102.4,59.1L108.2,65.0L107.0,66.9L105.9,68.7L104.6,70.6L103.4,72.4L102.1,74.2L100.8,76.0L99.5,77.7L98.1,79.4L102.8,86.3L101.3,88.1L99.8,89.8L98.2,91.6L96.6,93.3L94.9,94.9L93.3,96.6L97.0,104.0L95.2,105.7L93.3,107.4L91.4,109.0L89.5,110.6L87.6,112.1L90.4,120.0L88.3,121.6L86.2,123.1L84.0,124.6L81.9,126.0L79.6,127.4L77.4,128.8L79.2,137.1L76.7,138.5L74.3,139.8L71.9,141.1L69.4,142.3L66.9,143.5L64.4,144.6L61.9,145.7L59.3,146.8L59.6,155.3L56.9,156.3L54.2,157.3L51.4,158.2L48.6,159.1L45.8,159.9L43.0,160.7L40.2,161.4L37.4,162.1L34.6,162.7L31.7,163.3L28.9,163.8L26.0,164.3L23.1,164.7L20.3,165.1L17.4,165.4L14.5,165.7L11.6,165.9L8.7,166.1L5.8,166.2L2.9,166.3L0.0,166.3L-2.8,158.3L-5.5,158.2L-8.3,158.1L-11.0,157.9L-13.8,157.7L-16.5,157.4L-19.3,157.1L-22.0,156.8L-24.8,156.4L-26.1,148.0L-28.7,147.5L-31.2,147.0L-33.8,146.4L-36.4,145.8L-38.9,145.2L-41.4,144.5L-41.6,136.0L-44.0,135.3L-46.3,134.5L-48.7,133.7L-51.0,132.8L-53.3,131.9L-52.5,123.6L-54.6,122.6L-56.7,121.7L-58.8,120.7L-60.9,119.6L-63.0,118.5L-65.1,117.4L-63.1,109.3L-65.0,108.2L-66.9,107.0L-68.7,105.9L-70.6,104.6L-72.4,103.4L-74.2,102.1L-76.0,100.8L-77.7,99.5L-74.4,91.9L-76.0,90.5L-77.5,89.2L-79.1,87.8L-80.6,86.4L-82.1,85.0L-83.6,83.6L-85.0,82.1L-86.4,80.6L-87.8,79.1L-89.2,77.5L-90.5,76.0L-91.9,74.4L-93.1,72.8L-94.4,71.1L-95.6,69.5L-96.8,67.8L-98.0,66.1L-99.1,64.4L-100.2,62.6L-101.3,60.9L-102.4,59.1L-110.4,61.2L-111.4,59.3L-112.5,57.3L-113.4,55.3L-114.4,53.3L-115.3,51.3L-116.2,49.3L-117.0,47.3L-117.8,45.2L-126.1,45.9L-126.9,43.7L-127.7,41.5L-128.4,39.2L-129.0,37.0L-129.7,34.7L-130.3,32.5L-138.6,32.0L-139.2,29.6L-139.6,27.1L-140.1,24.7L-140.5,22.3L-140.9,19.8L-149.2,18.3L-149.5,15.7L-149.7,13.1L-149.9,10.5L-150.1,7.9L-150.2,5.2L-150.3,2.6L-158.3,0.0L-158.3,-2.8L-158.2,-5.5L-158.1,-8.3L-157.9,-11.0L-157.7,-13.8L-157.4,-16.5L-157.1,-19.3L-156.8,-22.0L-164.3,-26.0L-163.8,-28.9L-163.3,-31.7L-162.7,-34.6L-162.1,-37.4L-161.4,-40.2L-160.7,-43.0L-159.9,-45.8L-159.1,-48.6L-158.2,-51.4L-157.3,-54.2L-156.3,-56.9L-155.3,-59.6L-154.2,-62.3L-153.1,-65.0L-152.0,-67.7L-150.7,-70.3L-149.5,-72.9L-148.2,-75.5L-146.9,-78.1L-145.5,-80.6L-144.0,-83.2L-135.7,-81.5L-134.3,-83.9L-132.8,-86.2L-131.2,-88.5L-129.7,-90.8L-128.1,-93.1L-126.4,-95.3L-124.7,-97.5L-123.0,-99.6L-115.1,-96.6L-113.4,-98.6L-111.7,-100.6L-109.9,-102.5L-108.1,-104.4L-106.3,-106.3L-104.4,-108.1L-97.0,-104.0L-95.2,-105.7L-93.3,-107.4L-91.4,-109.0L-89.5,-110.6L-87.6,-112.1L-80.8,-107.2L-78.9,-108.6L-77.0,-110.0L-75.1,-111.3L-73.1,-112.6L-71.1,-113.8L-69.1,-115.1L-63.1,-109.3L-61.2,-110.4L-59.3,-111.4L-57.3,-112.5L-55.3,-113.4L-53.3,-114.4L-51.3,-115.3L-49.3,-116.2L-47.3,-117.0L-42.4,-110.3L-40.4,-111.1L-38.5,-111.8L-36.5,-112.4L-34.6,-113.0L-32.6,-113.6L-30.6,-114.2L-28.6,-114.7L-26.6,-115.2L-24.6,-115.6L-22.6,-116.0L-20.5,-116.4L-18.5,-116.7L-16.4,-117.0L-14.4,-117.3L-12.4,-117.5L-10.3,-117.7L-8.2,-117.9L-6.2,-118.0L-4.1,-118.1L-2.1,-118.2L-0.0,-118.2L2.2,-126.2L4.4,-126.1L6.6,-126.0L8.8,-125.9L11.0,-125.7L13.2,-125.5L15.4,-125.3L17.6,-125.0L19.7,-124.7L23.3,-132.2L25.6,-131.8L27.9,-131.3L30.2,-130.8L32.5,-130.3L34.7,-129.7L37.0,-129.0L41.6,-136.0L44.0,-135.3L46.3,-134.5L48.7,-133.7L51.0,-132.8L53.3,-131.9L58.7,-138.3L61.1,-137.3L63.5,-136.2L65.9,-135.1L68.2,-133.9L70.6,-132.7L72.9,-131.4L79.2,-137.1L81.5,-135.7L83.9,-134.3L86.2,-132.8L88.5,-131.2L90.8,-129.7L93.1,-128.1L95.3,-126.4L97.5,-124.7L104.7,-129.3L106.9,-127.4L109.1,-125.5L111.3,-123.6L113.4,-121.6L115.5,-119.6L117.6,-117.6L119.6,-115.5L121.6,-113.4L123.6,-111.3L125.5,-109.1L127.4,-106.9L129.3,-104.7L131.1,-102.4L132.8,-100.1L134.6,-97.8L136.3,-95.4L137.9,-93.0L139.5,-90.6L141.1,-88.1L142.6,-85.7L144.0,-83.2L138.5,-76.7L139.8,-74.3L141.1,-71.9L142.3,-69.4L143.5,-66.9L144.6,-64.4L145.7,-61.9L146.8,-59.3L147.8,-56.7L141.2,-51.4L142.1,-48.9L142.9,-46.4L143.7,-43.9L144.5,-41.4L145.2,-38.9L145.8,-36.4L138.6,-32.0L139.2,-29.6L139.6,-27.1L140.1,-24.7L140.5,-22.3L140.9,-19.8L133.2,-16.4L133.5,-14.0L133.7,-11.7L133.9,-9.4L134.1,-7.0L134.2,-4.7L134.2,-2.3L126.2,-0.0Z" fill="none" stroke="#bfd2ff" stroke-width="2.4" stroke-linecap="round" opacity="0.95"/>
</svg>