<svg xmlns="http://www.w3.org/2000/svg" viewBox="-250 -250 500 500">
<defs><filter id="tg"><feGaussianBlur stdDeviation="11.0"/></filter></defs>
<rect x="-250" y="-250" width="500" height="500" fill="#0c1218"/>
<path d="M130.0,0.0L127.1,6.7L123.9,13.0L120.4,19.1L116.6,24.8L112.5,30.1L108.2,35.2L103.7,39.8L99.0,44.1L94.1,48.0L89.1,51.5L84.0,54.6L78.9,57.3L77.9,63.1L76.5,68.9L74.7,74.7L72.5,80.5L69.9,86.3L66.9,92.0L63.4,97.7L59.6,103.2L55.3,108.6L50.7,113.8L45.6,118.8L40.2,123.6L32.9,123.0L25.9,121.9L19.1,120.4L12.5,118.5L6.1,116.3L0.0,113.8L-5.8,110.9L-11.3,107.7L-16.5,104.3L-21.4,100.7L-25.9,96.8L-30.1,92.7L-35.9,93.6L-41.9,94.0L-48.0,94.1L-54.2,93.8L-60.5,93.1L-66.9,92.0L-73.3,90.5L-79.7,88.6L-86.2,86.2L-92.6,83.4L-98.9,80.1L-105.2,76.4L-106.8,69.3L-107.9,62.3L-108.6,55.3L-108.9,48.5L-108.7,41.7L-108.2,35.2L-107.3,28.7L-106.0,22.5L-104.3,16.5L-102.4,10.8L-100.1,5.2L-97.5,0.0L-100.1,-5.2L-102.4,-10.8L-104.3,-16.5L-106.0,-22.5L-107.3,-28.7L-108.2,-35.2L-108.7,-41.7L-108.9,-48.5L-108.6,-55.3L-107.9,-62.3L-106.8,-69.3L-105.2,-76.4L-98.9,-80.1L-92.6,-83.4L-86.2,-86.2L-79.7,-88.6L-73.3,-90.5L-66.9,-92.0L-60.5,-93.1L-54.2,-93.8L-48.0,-94.1L-41.9,-94.0L-35.9,-93.6L-30.1,-92.7L-25.9,-96.8L-21.4,-100.7L-16.5,-104.3L-11.3,-107.7L-5.8,-110.9L-0.0,-113.7L6.1,-116.3L12.5,-118.5L19.1,-120.4L25.9,-121.9L32.9,-123.0L40.2,-123.6L45.6,-118.8L50.7,-113.8L55.3,-108.6L59.6,-103.2L63.4,-97.7L66.9,-92.0L69.9,-86.3L72.5,-80.5L74.7,-74.7L76.5,-68.9L77.9,-63.1L78.9,-57.3L84.0,-54.6L89.1,-51.5L94.1,-48.0L99.0,-44.1L103.7,-39.8L108.2,-35.2L112.5,-30.1L116.6,-24.8L120.4,-19.1L123.9,-13.0L127.1,-6.7L130.0,-0.0Z" fill="none" stroke="#f5f9e4" stroke-width="1.5" stroke-linecap="round" opacity="0.28" filter="url(#tg)"/><path d="M130.0,0.0L127.1,6.7L123.9,13.0L120.4,19.1L116.6,24.8L112.5,30.1L108.2,35.2L103.7,39.8L99.0,44.1L94.1,48.0L89.1,51.5L84.0,54.6L78.9,57.3L77.9,63.1L76.5,68.9L74.7,74.7L72.5,80.5L69.9,86.3L66.9,92.0L63.4,97.7L59.6,103.2L55.3,108.6L50.7,113.8L45.6,118.8L40.2,123.6L32.9,123.0L25.9,121.9L19.1,120.4L12.5,118.5L6.1,116.3L0.0,113.8L-5.8,110.9L-11.3,107.7L-16.5,104.3L-21.4,100.7L-25.9,96.8L-30.1,92.7L-35.9,93.6L-41.9,94.0L-48.0,94.1L-54.2,93.8L-60.5,93.1L-66.9,92.0L-73.3,90.5L-79.7,88.6L-86.2,86.2L-92.6,83.4L-98.9,80.1L-105.2,76.4L-106.8,69.3L-107.9,62.3L-108.6,55.3L-108.9,48.5L-108.7,41.7L-108.2,35.2L-107.3,28.7L-106.0,22.5L-104.3,16.5L-102.4,10.8L-100.1,5.2L-97.5,0.0L-100.1,-5.2L-102.4,-10.8L-104.3,-16.5L-106.0,-22.5L-107.3,-28.7L-108.2,-35.2L-108.7,-41.7L-108.9,-48.5L-108.6,-55.3L-107.9,-62.3L-106.8,-69.3L-105.2,-76.4L-98.9,-80.1L-92.6,-83.4L-86.2,-86.2L-79.7,-88.6L-73.3,-90.5L-66.9,-92.0L-60.5,-93.1L-54.2,-93.8L-48.0,-94.1L-41.9,-94.0L-35.9,-93.6L-30.1,-92.7L-25.9,-96.8L-21.4,-100.7L-16.5,-104.3L-11.3,-107.7L-5.8,-110.9L-0.0,-113.7L6.1,-116.3L12.5,-118.5L19.1,-120.4L25.9,-121.9L32.9,-123.0L40.2,-123.6L45.6,-118.8L50.7,-113.8L55.3,-108.6L59.6,-103.2L63.4,-97.7L66.9,-92.0L69.9,-86.3L72.5,-80.5L74.7,-74.7L76.5,-68.9L77.9,-63.1L78.9,-57.3L84.0,-54.6L89.1,-51.5L94.1,-48.0L99.0,-44.1L103.7,-39.8L108.2,-35.2L112.5,-30.1L116.6,-24.8L120.4,-19.1L123.9,-13.0L127.1,-6.7L130.0,-0.0Z" fill="none" stroke="#f5f9e4" stroke-width="0.5" stroke-linecap="round" opacity="0.95"/><path d="M119.4,0.0L122.0,6.4L123.3,13.0L119.8,19.0L116.0,24.6L111.9,30.0L107.6,35.0L103.1,39.6L98.4,43.8L93.6,47.7L88.6,51.1L83.5,54.2L78.4,56.9L73.2,59.3L68.6,61.8L67.2,67.2L65.4,72.7L63.2,78.1L60.7,83.5L57.7,88.8L54.3,94.1L50.5,99.2L46.4,104.2L41.8,109.0L36.9,113.6L31.6,118.0L25.8,121.2L19.0,119.8L12.4,117.9L6.1,115.7L0.0,113.1L-5.8,110.3L-11.3,107.1L-16.4,103.7L-21.3,100.1L-25.8,96.2L-29.9,92.1L-33.7,87.9L-37.6,84.4L-43.2,84.7L-48.9,84.7L-54.7,84.3L-60.7,83.5L-66.6,82.3L-72.7,80.7L-78.7,78.7L-84.7,76.3L-90.7,73.5L-96.6,70.2L-102.4,66.5L-107.4,62.0L-108.0,55.0L-108.3,48.2L-108.1,41.5L-107.6,35.0L-106.7,28.6L-105.4,22.4L-103.7,16.4L-101.7,10.7L-99.4,5.2L-96.9,0.0L-94.0,-4.9L-91.9,-9.7L-93.9,-14.9L-95.6,-20.3L-97.1,-26.0L-98.1,-31.9L-98.9,-38.0L-99.2,-44.2L-99.2,-50.5L-98.8,-57.0L-97.9,-63.6L-96.6,-70.2L-94.9,-76.9L-92.1,-82.9L-85.7,-85.7L-79.3,-88.1L-72.9,-90.0L-66.5,-91.5L-60.1,-92.6L-53.9,-93.3L-47.7,-93.6L-41.6,-93.4L-35.7,-93.0L-29.9,-92.1L-24.4,-91.0L-19.2,-90.3L-14.9,-93.9L-10.2,-97.2L-5.3,-100.3L-0.0,-103.2L5.5,-105.8L11.4,-108.0L17.4,-109.9L23.7,-111.5L30.2,-112.8L36.9,-113.6L43.8,-114.0L50.4,-113.2L55.0,-108.0L59.3,-102.7L63.1,-97.1L66.5,-91.5L69.5,-85.8L72.1,-80.0L74.2,-74.2L76.0,-68.4L77.4,-62.7L78.4,-56.9L79.0,-51.3L80.0,-46.2L84.7,-43.2L89.3,-39.8L93.8,-36.0L98.1,-31.9L102.3,-27.4L106.2,-22.6L109.9,-17.4L113.4,-11.9L116.6,-6.1L119.4,-0.0Z" fill="none" stroke="#f3f9e3" stroke-width="1.5" stroke-linecap="round" opacity="0.28" filter="url(#tg)"/><path d="M119.4,0.0L122.0,6.4L123.3,13.0L119.8,19.0L116.0,24.6L111.9,30.0L107.6,35.0L103.1,39.6L98.4,43.8L93.6,47.7L88.6,51.1L83.5,54.2L78.4,56.9L73.2,59.3L68.6,61.8L67.2,67.2L65.4,72.7L63.2,78.1L60.7,83.5L57.7,88.8L54.3,94.1L50.5,99.2L46.4,104.2L41.8,109.0L36.9,113.6L31.6,118.0L25.8,121.2L19.0,119.8L12.4,117.9L6.1,115.7L0.0,113.1L-5.8,110.3L-11.3,107.1L-16.4,103.7L-21.3,100.1L-25.8,96.2L-29.9,92.1L-33.7,87.9L-37.6,84.4L-43.2,84.7L-48.9,84.7L-54.7,84.3L-60.7,83.5L-66.6,82.3L-72.7,80.7L-78.7,78.7L-84.7,76.3L-90.7,73.5L-96.6,70.2L-102.4,66.5L-107.4,62.0L-108.0,55.0L-108.3,48.2L-108.1,41.5L-107.6,35.0L-106.7,28.6L-105.4,22.4L-103.7,16.4L-101.7,10.7L-99.4,5.2L-96.9,0.0L-94.0,-4.9L-91.9,-9.7L-93.9,-14.9L-95.6,-20.3L-97.1,-26.0L-98.1,-31.9L-98.9,-38.0L-99.2,-44.2L-99.2,-50.5L-98.8,-57.0L-97.9,-63.6L-96.6,-70.2L-94.9,-76.9L-92.1,-82.9L-85.7,-85.7L-79.3,-88.1L-72.9,-90.0L-66.5,-91.5L-60.1,-92.6L-53.9,-93.3L-47.7,-93.6L-41.6,-93.4L-35.7,-93.0L-29.9,-92.1L-24.4,-91.0L-19.2,-90.3L-14.9,-93.9L-10.2,-97.2L-5.3,-100.3L-0.0,-103.2L5.5,-105.8L11.4,-108.0L17.4,-109.9L23.7,-111.5L30.2,-112.8L36.9,-113.6L43.8,-114.0L50.4,-113.2L55.0,-108.0L59.3,-102.7L63.1,-97.1L66.5,-91.5L69.5,-85.8L72.1,-80.0L74.2,-74.2L76.0,-68.4L77.4,-62.7L78.4,-56.9L79.0,-51.3L80.0,-46.2L84.7,-43.2L89.3,-39.8L93.8,-36.0L98.1,-31.9L102.3,-27.4L106.2,-22.6L109.9,-17.4L113.4,-11.9L116.6,-6.1L119.4,-0.0Z" fill="none" stroke="#f3f9e3" stroke-width="0.5" stroke-linecap="round" opacity="0.95"/><path d="M108.9,0.0L111.4,5.8L113.7,11.9L115.6,18.3L115.3,24.5L111.3,29.8L107.0,34.8L102.5,39.3L97.8,43.6L93.0,47.4L88.0,50.8L83.0,53.9L77.9,56.6L72.7,58.9L67.5,60.8L62.3,62.3L58.4,64.8L56.6,69.9L54.5,74.9L51.9,80.0L49.0,84.9L45.7,89.8L42.1,94.5L38.1,99.1L33.6,103.6L28.9,107.8L23.8,111.8L18.3,115.6L12.3,117.3L6.0,115.1L0.0,112.5L-5.7,109.6L-11.2,106.5L-16.3,103.1L-21.1,99.4L-25.6,95.6L-29.7,91.5L-33.5,87.3L-36.9,83.0L-40.0,78.5L-43.6,75.5L-49.0,75.4L-54.5,74.9L-60.0,74.1L-65.6,72.9L-71.3,71.3L-76.9,69.2L-82.5,66.8L-88.1,64.0L-93.6,60.8L-99.0,57.2L-104.3,53.1L-107.7,48.0L-107.6,41.3L-107.0,34.8L-106.1,28.4L-104.7,22.3L-103.1,16.3L-101.1,10.6L-98.8,5.2L-96.3,0.0L-93.4,-4.9L-90.3,-9.5L-87.0,-13.8L-85.3,-18.1L-86.9,-23.3L-88.1,-28.6L-89.0,-34.2L-89.6,-39.9L-89.8,-45.7L-89.6,-51.7L-89.1,-57.8L-88.1,-64.0L-86.7,-70.2L-84.9,-76.5L-82.7,-82.7L-78.9,-87.6L-72.5,-89.5L-66.1,-91.0L-59.8,-92.1L-53.5,-92.7L-47.4,-93.0L-41.4,-92.9L-35.5,-92.4L-29.7,-91.5L-24.2,-90.4L-18.9,-88.8L-13.8,-87.0L-9.1,-86.7L-4.7,-89.8L-0.0,-92.6L5.0,-95.2L10.2,-97.5L15.8,-99.5L21.5,-101.2L27.5,-102.6L33.6,-103.6L40.0,-104.2L46.5,-104.4L53.1,-104.3L59.0,-102.1L62.7,-96.6L66.1,-91.0L69.1,-85.3L71.7,-79.6L73.8,-73.8L75.6,-68.0L76.9,-62.3L77.9,-56.6L78.5,-50.9L78.7,-45.4L78.5,-40.0L79.7,-35.5L84.0,-32.2L88.1,-28.6L92.1,-24.7L95.9,-20.4L99.5,-15.8L102.9,-10.8L106.0,-5.6L108.9,-0.0Z" fill="none" stroke="#f1fae2" stroke-width="1.5" stroke-linecap="round" opacity="0.28" filter="url(#tg)"/><path d="M108.9,0.0L111.4,5.8L113.7,11.9L115.6,18.3L115.3,24.5L111.3,29.8L107.0,34.8L102.5,39.3L97.8,43.6L93.0,47.4L88.0,50.8L83.0,53.9L77.9,56.6L72.7,58.9L67.5,60.8L62.3,62.3L58.4,64.8L56.6,69.9L54.5,74.9L51.9,80.0L49.0,84.9L45.7,89.8L42.1,94.5L38.1,99.1L33.6,103.6L28.9,107.8L23.8,111.8L18.3,115.6L12.3,117.3L6.0,115.1L0.0,112.5L-5.7,109.6L-11.2,106.5L-16.3,103.1L-21.1,99.4L-25.6,95.6L-29.7,91.5L-33.5,87.3L-36.9,83.0L-40.0,78.5L-43.6,75.5L-49.0,75.4L-54.5,74.9L-60.0,74.1L-65.6,72.9L-71.3,71.3L-76.9,69.2L-82.5,66.8L-88.1,64.0L-93.6,60.8L-99.0,57.2L-104.3,53.1L-107.7,48.0L-107.6,41.3L-107.0,34.8L-106.1,28.4L-104.7,22.3L-103.1,16.3L-101.1,10.6L-98.8,5.2L-96.3,0.0L-93.4,-4.9L-90.3,-9.5L-87.0,-13.8L-85.3,-18.1L-86.9,-23.3L-88.1,-28.6L-89.0,-34.2L-89.6,-39.9L-89.8,-45.7L-89.6,-51.7L-89.1,-57.8L-88.1,-64.0L-86.7,-70.2L-84.9,-76.5L-82.7,-82.7L-78.9,-87.6L-72.5,-89.5L-66.1,-91.0L-59.8,-92.1L-53.5,-92.7L-47.4,-93.0L-41.4,-92.9L-35.5,-92.4L-29.7,-91.5L-24.2,-90.4L-18.9,-88.8L-13.8,-87.0L-9.1,-86.7L-4.7,-89.8L-0.0,-92.6L5.0,-95.2L10.2,-97.5L15.8,-99.5L21.5,-101.2L27.5,-102.6L33.6,-103.6L40.0,-104.2L46.5,-104.4L53.1,-104.3L59.0,-102.1L62.7,-96.6L66.1,-91.0L69.1,-85.3L71.7,-79.6L73.8,-73.8L75.6,-68.0L76.9,-62.3L77.9,-56.6L78.5,-50.9L78.7,-45.4L78.5,-40.0L79.7,-35.5L84.0,-32.2L88.1,-28.6L92.1,-24.7L95.9,-20.4L99.5,-15.8L102.9,-10.8L106.0,-5.6L108.9,-0.0Z" fill="none" stroke="#f1fae2" stroke-width="0.5" stroke-linecap="round" opacity="0.95"/><path d="M98.3,0.0L100.9,5.3L103.2,10.8L105.1,16.7L106.8,22.7L108.1,29.0L106.4,34.6L101.9,39.1L97.3,43.3L92.4,47.1L87.5,50.5L82.5,53.6L77.4,56.2L72.2,58.5L67.0,60.4L61.9,61.9L56.7,63.0L51.7,63.8L48.2,66.4L46.2,71.1L43.8,75.8L41.0,80.4L37.8,84.9L34.3,89.3L30.4,93.5L26.2,97.6L21.6,101.5L16.7,105.1L11.4,108.6L5.9,111.7L0.0,111.9L-5.7,109.0L-11.1,105.9L-16.2,102.5L-21.0,98.8L-25.5,95.0L-29.6,90.9L-33.3,86.7L-36.7,82.4L-39.7,78.0L-42.4,73.4L-44.7,68.8L-48.2,66.4L-53.4,65.9L-58.5,65.0L-63.8,63.8L-69.1,62.2L-74.3,60.2L-79.6,57.8L-84.7,55.0L-89.9,51.9L-94.9,48.3L-99.7,44.4L-104.4,40.1L-106.4,34.6L-105.4,28.3L-104.1,22.1L-102.5,16.2L-100.5,10.6L-98.2,5.1L-95.6,0.0L-92.8,-4.9L-89.7,-9.4L-86.4,-13.7L-82.9,-17.6L-79.3,-21.2L-78.1,-25.4L-79.2,-30.4L-79.9,-35.6L-80.4,-41.0L-80.5,-46.5L-80.2,-52.1L-79.6,-57.8L-78.5,-63.6L-77.1,-69.4L-75.3,-75.3L-73.0,-81.1L-70.4,-86.9L-65.8,-90.5L-59.5,-91.6L-53.2,-92.2L-47.1,-92.4L-41.1,-92.3L-35.2,-91.8L-29.6,-90.9L-24.0,-89.8L-18.8,-88.2L-13.7,-86.4L-8.9,-84.3L-4.3,-82.0L-0.0,-82.1L4.4,-84.7L9.1,-87.0L14.1,-89.1L19.3,-90.9L24.7,-92.4L30.4,-93.5L36.2,-94.3L42.2,-94.8L48.3,-94.9L54.6,-94.5L60.9,-93.8L65.8,-90.5L68.7,-84.8L71.2,-79.1L73.4,-73.4L75.1,-67.6L76.4,-61.9L77.4,-56.2L77.9,-50.6L78.1,-45.1L78.0,-39.7L77.5,-34.5L76.6,-29.4L78.1,-25.4L81.9,-21.9L85.6,-18.2L89.1,-14.1L92.4,-9.7L95.5,-5.0L98.3,-0.0Z" fill="none" stroke="#eefae2" stroke-width="1.5" stroke-linecap="round" opacity="0.28" filter="url(#tg)"/><path d="M98.3,0.0L100.9,5.3L103.2,10.8L105.1,16.7L106.8,22.7L108.1,29.0L106.4,34.6L101.9,39.1L97.3,43.3L92.4,47.1L87.5,50.5L82.5,53.6L77.4,56.2L72.2,58.5L67.0,60.4L61.9,61.9L56.7,63.0L51.7,63.8L48.2,66.4L46.2,71.1L43.8,75.8L41.0,80.4L37.8,84.9L34.3,89.3L30.4,93.5L26.2,97.6L21.6,101.5L16.7,105.1L11.4,108.6L5.9,111.7L0.0,111.9L-5.7,109.0L-11.1,105.9L-16.2,102.5L-21.0,98.8L-25.5,95.0L-29.6,90.9L-33.3,86.7L-36.7,82.4L-39.7,78.0L-42.4,73.4L-44.7,68.8L-48.2,66.4L-53.4,65.9L-58.5,65.0L-63.8,63.8L-69.1,62.2L-74.3,60.2L-79.6,57.8L-84.7,55.0L-89.9,51.9L-94.9,48.3L-99.7,44.4L-104.4,40.1L-106.4,34.6L-105.4,28.3L-104.1,22.1L-102.5,16.2L-100.5,10.6L-98.2,5.1L-95.6,0.0L-92.8,-4.9L-89.7,-9.4L-86.4,-13.7L-82.9,-17.6L-79.3,-21.2L-78.1,-25.4L-79.2,-30.4L-79.9,-35.6L-80.4,-41.0L-80.5,-46.5L-80.2,-52.1L-79.6,-57.8L-78.5,-63.6L-77.1,-69.4L-75.3,-75.3L-73.0,-81.1L-70.4,-86.9L-65.8,-90.5L-59.5,-91.6L-53.2,-92.2L-47.1,-92.4L-41.1,-92.3L-35.2,-91.8L-29.6,-90.9L-24.0,-89.8L-18.8,-88.2L-13.7,-86.4L-8.9,-84.3L-4.3,-82.0L-0.0,-82.1L4.4,-84.7L9.1,-87.0L14.1,-89.1L19.3,-90.9L24.7,-92.4L30.4,-93.5L36.2,-94.3L42.2,-94.8L48.3,-94.9L54.6,-94.5L60.9,-93.8L65.8,-90.5L68.7,-84.8L71.2,-79.1L73.4,-73.4L75.1,-67.6L76.4,-61.9L77.4,-56.2L77.9,-50.6L78.1,-45.1L78.0,-39.7L77.5,-34.5L76.6,-29.4L78.1,-25.4L81.9,-21.9L85.6,-18.2L89.1,-14.1L92.4,-9.7L95.5,-5.0L98.3,-0.0Z" fill="none" stroke="#eefae2" stroke-width="0.5" stroke-linecap="round" opacity="0.95"/><path d="M87.8,0.0L90.4,4.7L92.7,9.7L94.7,15.0L96.5,20.5L97.9,26.2L98.9,32.1L99.6,38.3L96.7,43.0L91.9,46.8L87.0,50.2L81.9,53.2L76.9,55.8L71.7,58.1L66.6,59.9L61.4,61.4L56.3,62.5L51.3,63.3L46.3,63.7L41.4,63.8L38.5,66.6L36.2,71.0L33.5,75.2L30.5,79.4L27.1,83.5L23.4,87.4L19.4,91.2L15.0,94.7L10.3,98.1L5.3,101.2L0.0,104.0L-5.6,106.6L-11.1,105.3L-16.1,101.9L-20.9,98.2L-25.3,94.4L-29.4,90.4L-33.1,86.2L-36.4,81.8L-39.4,77.4L-42.1,72.9L-44.4,68.3L-46.3,63.7L-47.9,59.1L-51.5,57.2L-56.3,56.3L-61.2,55.1L-66.1,53.5L-71.0,51.6L-75.9,49.3L-80.7,46.6L-85.5,43.5L-90.1,40.1L-94.6,36.3L-98.9,32.1L-103.1,27.6L-103.5,22.0L-101.9,16.1L-99.9,10.5L-97.6,5.1L-95.0,0.0L-92.2,-4.8L-89.1,-9.4L-85.8,-13.6L-82.3,-17.5L-78.7,-21.1L-74.9,-24.3L-71.0,-27.3L-70.3,-31.3L-71.0,-36.2L-71.3,-41.2L-71.3,-46.3L-71.0,-51.6L-70.3,-56.9L-69.3,-62.4L-67.8,-67.8L-66.0,-73.3L-63.8,-78.7L-61.1,-84.2L-58.1,-89.5L-52.9,-91.7L-46.8,-91.9L-40.8,-91.7L-35.0,-91.2L-29.4,-90.4L-23.9,-89.1L-18.6,-87.6L-13.6,-85.8L-8.8,-83.7L-4.3,-81.3L-0.0,-78.8L4.0,-75.9L8.0,-76.5L12.5,-78.7L17.1,-80.6L22.0,-82.2L27.1,-83.5L32.4,-84.5L37.9,-85.1L43.5,-85.5L49.3,-85.4L55.2,-85.0L61.1,-84.2L67.2,-83.0L70.8,-78.7L72.9,-72.9L74.6,-67.2L75.9,-61.5L76.9,-55.8L77.4,-50.3L77.6,-44.8L77.4,-39.4L76.9,-34.2L76.0,-29.2L74.9,-24.3L73.5,-19.7L75.3,-16.0L78.7,-12.5L81.9,-8.6L85.0,-4.5L87.8,-0.0Z" fill="none" stroke="#ecfae1" stroke-width="1.5" stroke-linecap="round" opacity="0.28" filter="url(#tg)"/><path d="M87.8,0.0L90.4,4.7L92.7,9.7L94.7,15.0L96.5,20.5L97.9,26.2L98.9,32.1L99.6,38.3L96.7,43.0L91.9,46.8L87.0,50.2L81.9,53.2L76.9,55.8L71.7,58.1L66.6,59.9L61.4,61.4L56.3,62.5L51.3,63.3L46.3,63.7L41.4,63.8L38.5,66.6L36.2,71.0L33.5,75.2L30.5,79.4L27.1,83.5L23.4,87.4L19.4,91.2L15.0,94.7L10.3,98.1L5.3,101.2L0.0,104.0L-5.6,106.6L-11.1,105.3L-16.1,101.9L-20.9,98.2L-25.3,94.4L-29.4,90.4L-33.1,86.2L-36.4,81.8L-39.4,77.4L-42.1,72.9L-44.4,68.3L-46.3,63.7L-47.9,59.1L-51.5,57.2L-56.3,56.3L-61.2,55.1L-66.1,53.5L-71.0,51.6L-75.9,49.3L-80.7,46.6L-85.5,43.5L-90.1,40.1L-94.6,36.3L-98.9,32.1L-103.1,27.6L-103.5,22.0L-101.9,16.1L-99.9,10.5L-97.6,5.1L-95.0,0.0L-92.2,-4.8L-89.1,-9.4L-85.8,-13.6L-82.3,-17.5L-78.7,-21.1L-74.9,-24.3L-71.0,-27.3L-70.3,-31.3L-71.0,-36.2L-71.3,-41.2L-71.3,-46.3L-71.0,-51.6L-70.3,-56.9L-69.3,-62.4L-67.8,-67.8L-66.0,-73.3L-63.8,-78.7L-61.1,-84.2L-58.1,-89.5L-52.9,-91.7L-46.8,-91.9L-40.8,-91.7L-35.0,-91.2L-29.4,-90.4L-23.9,-89.1L-18.6,-87.6L-13.6,-85.8L-8.8,-83.7L-4.3,-81.3L-0.0,-78.8L4.0,-75.9L8.0,-76.5L12.5,-78.7L17.1,-80.6L22.0,-82.2L27.1,-83.5L32.4,-84.5L37.9,-85.1L43.5,-85.5L49.3,-85.4L55.2,-85.0L61.1,-84.2L67.2,-83.0L70.8,-78.7L72.9,-72.9L74.6,-67.2L75.9,-61.5L76.9,-55.8L77.4,-50.3L77.6,-44.8L77.4,-39.4L76.9,-34.2L76.0,-29.2L74.9,-24.3L73.5,-19.7L75.3,-16.0L78.7,-12.5L81.9,-8.6L85.0,-4.5L87.8,-0.0Z" fill="none" stroke="#ecfae1" stroke-width="0.5" stroke-linecap="round" opacity="0.95"/><path d="M77.2,0.0L79.8,4.2L82.2,8.6L84.3,13.4L86.1,18.3L87.7,23.5L88.9,28.9L89.8,34.5L90.3,40.2L90.5,46.1L86.4,49.9L81.4,52.9L76.4,55.5L71.2,57.7L66.1,59.5L61.0,61.0L55.9,62.1L50.9,62.8L45.9,63.2L41.1,63.3L36.4,63.0L31.8,62.4L29.2,65.6L26.7,69.6L23.9,73.4L20.7,77.2L17.2,80.8L13.4,84.3L9.2,87.6L4.8,90.6L0.0,93.5L-5.0,96.1L-10.3,98.3L-15.9,100.3L-20.7,97.6L-25.1,93.8L-29.2,89.8L-32.9,85.6L-36.2,81.3L-39.2,76.9L-41.8,72.4L-44.0,67.8L-45.9,63.2L-47.5,58.6L-48.7,54.0L-49.5,49.5L-53.4,48.0L-57.9,46.9L-62.5,45.4L-67.0,43.5L-71.6,41.3L-76.0,38.7L-80.4,35.8L-84.7,32.5L-88.9,28.9L-92.9,24.9L-96.7,20.6L-100.3,15.9L-99.2,10.4L-97.0,5.1L-94.4,0.0L-91.5,-4.8L-88.5,-9.3L-85.2,-13.5L-81.7,-17.4L-78.1,-20.9L-74.3,-24.1L-70.4,-27.0L-66.4,-29.6L-62.4,-31.8L-62.2,-35.9L-62.5,-40.6L-62.5,-45.4L-62.1,-50.3L-61.4,-55.3L-60.4,-60.4L-58.9,-65.4L-57.1,-70.5L-54.9,-75.6L-52.4,-80.7L-49.4,-85.6L-46.1,-90.5L-40.6,-91.2L-34.8,-90.6L-29.2,-89.8L-23.7,-88.5L-18.5,-87.0L-13.5,-85.2L-8.7,-83.1L-4.2,-80.7L-0.0,-78.1L3.9,-75.3L7.6,-72.3L11.0,-69.1L14.9,-70.2L19.3,-72.0L23.9,-73.4L28.6,-74.6L33.6,-75.5L38.7,-76.0L44.0,-76.3L49.4,-76.1L54.9,-75.6L60.5,-74.7L66.2,-73.5L71.8,-71.8L74.2,-66.8L75.4,-61.1L76.4,-55.5L76.9,-49.9L77.0,-44.5L76.9,-39.2L76.3,-34.0L75.5,-29.0L74.3,-24.1L72.8,-19.5L71.1,-15.1L69.1,-11.0L71.4,-7.5L74.4,-3.9L77.2,-0.0Z" fill="none" stroke="#eafae0" stroke-width="1.5" stroke-linecap="round" opacity="0.28" filter="url(#tg)"/><path d="M77.2,0.0L79.8,4.2L82.2,8.6L84.3,13.4L86.1,18.3L87.7,23.5L88.9,28.9L89.8,34.5L90.3,40.2L90.5,46.1L86.4,49.9L81.4,52.9L76.4,55.5L71.2,57.7L66.1,59.5L61.0,61.0L55.9,62.1L50.9,62.8L45.9,63.2L41.1,63.3L36.4,63.0L31.8,62.4L29.2,65.6L26.7,69.6L23.9,73.4L20.7,77.2L17.2,80.8L13.4,84.3L9.2,87.6L4.8,90.6L0.0,93.5L-5.0,96.1L-10.3,98.3L-15.9,100.3L-20.7,97.6L-25.1,93.8L-29.2,89.8L-32.9,85.6L-36.2,81.3L-39.2,76.9L-41.8,72.4L-44.0,67.8L-45.9,63.2L-47.5,58.6L-48.7,54.0L-49.5,49.5L-53.4,48.0L-57.9,46.9L-62.5,45.4L-67.0,43.5L-71.6,41.3L-76.0,38.7L-80.4,35.8L-84.7,32.5L-88.9,28.9L-92.9,24.9L-96.7,20.6L-100.3,15.9L-99.2,10.4L-97.0,5.1L-94.4,0.0L-91.5,-4.8L-88.5,-9.3L-85.2,-13.5L-81.7,-17.4L-78.1,-20.9L-74.3,-24.1L-70.4,-27.0L-66.4,-29.6L-62.4,-31.8L-62.2,-35.9L-62.5,-40.6L-62.5,-45.4L-62.1,-50.3L-61.4,-55.3L-60.4,-60.4L-58.9,-65.4L-57.1,-70.5L-54.9,-75.6L-52.4,-80.7L-49.4,-85.6L-46.1,-90.5L-40.6,-91.2L-34.8,-90.6L-29.2,-89.8L-23.7,-88.5L-18.5,-87.0L-13.5,-85.2L-8.7,-83.1L-4.2,-80.7L-0.0,-78.1L3.9,-75.3L7.6,-72.3L11.0,-69.1L14.9,-70.2L19.3,-72.0L23.9,-73.4L28.6,-74.6L33.6,-75.5L38.7,-76.0L44.0,-76.3L49.4,-76.1L54.9,-75.6L60.5,-74.7L66.2,-73.5L71.8,-71.8L74.2,-66.8L75.4,-61.1L76.4,-55.5L76.9,-49.9L77.0,-44.5L76.9,-39.2L76.3,-34.0L75.5,-29.0L74.3,-24.1L72.8,-19.5L71.1,-15.1L69.1,-11.0L71.4,-7.5L74.4,-3.9L77.2,-0.0Z" fill="none" stroke="#eafae0" stroke-width="0.5" stroke-linecap="round" opacity="0.95"/><path d="M66.7,0.0L69.3,3.6L71.7,7.5L73.9,11.7L75.8,16.1L77.5,20.8L78.9,25.6L79.9,30.7L80.7,35.9L81.1,41.3L81.2,46.9L80.9,52.5L75.8,55.1L70.8,57.3L65.6,59.1L60.5,60.5L55.5,61.6L50.5,62.3L45.6,62.7L40.7,62.7L36.0,62.4L31.5,61.8L27.1,60.9L22.9,59.7L20.6,63.4L18.0,67.0L15.0,70.5L11.7,73.9L8.1,77.1L4.2,80.1L0.0,82.9L-4.5,85.5L-9.2,87.9L-14.2,89.9L-19.5,91.7L-25.0,93.2L-29.0,89.2L-32.6,85.0L-35.9,80.7L-38.9,76.3L-41.5,71.8L-43.7,67.3L-45.6,62.7L-47.1,58.1L-48.2,53.6L-49.1,49.1L-49.5,44.6L-49.7,40.3L-53.9,39.2L-58.2,37.8L-62.4,36.0L-66.6,34.0L-70.8,31.5L-74.9,28.7L-78.9,25.6L-82.7,22.2L-86.4,18.4L-89.9,14.2L-93.2,9.8L-96.3,5.0L-93.8,0.0L-90.9,-4.8L-87.9,-9.2L-84.6,-13.4L-81.1,-17.2L-77.5,-20.8L-73.7,-23.9L-69.8,-26.8L-65.9,-29.3L-61.8,-31.5L-57.7,-33.3L-53.6,-34.8L-53.9,-39.2L-53.9,-43.7L-53.6,-48.2L-52.9,-52.9L-51.9,-57.6L-50.5,-62.3L-48.7,-67.1L-46.6,-71.8L-44.2,-76.5L-41.3,-81.1L-38.1,-85.6L-34.6,-90.1L-29.0,-89.2L-23.6,-87.9L-18.4,-86.4L-13.4,-84.6L-8.7,-82.5L-4.2,-80.1L-0.0,-77.5L3.9,-74.7L7.5,-71.7L10.9,-68.5L13.9,-65.2L16.6,-61.8L20.6,-63.4L24.9,-64.8L29.3,-65.9L34.0,-66.6L38.8,-67.1L43.7,-67.3L48.7,-67.1L53.9,-66.5L59.1,-65.6L64.4,-64.4L69.7,-62.7L75.0,-60.7L75.8,-55.1L76.4,-49.6L76.5,-44.2L76.3,-38.9L75.7,-33.7L74.9,-28.7L73.7,-23.9L72.2,-19.4L70.5,-15.0L68.5,-10.9L66.3,-7.0L63.9,-3.3L66.7,-0.0Z" fill="none" stroke="#e8fbdf" stroke-width="1.5" stroke-linecap="round" opacity="0.28" filter="url(#tg)"/><path d="M66.7,0.0L69.3,3.6L71.7,7.5L73.9,11.7L75.8,16.1L77.5,20.8L78.9,25.6L79.9,30.7L80.7,35.9L81.1,41.3L81.2,46.9L80.9,52.5L75.8,55.1L70.8,57.3L65.6,59.1L60.5,60.5L55.5,61.6L50.5,62.3L45.6,62.7L40.7,62.7L36.0,62.4L31.5,61.8L27.1,60.9L22.9,59.7L20.6,63.4L18.0,67.0L15.0,70.5L11.7,73.9L8.1,77.1L4.2,80.1L0.0,82.9L-4.5,85.5L-9.2,87.9L-14.2,89.9L-19.5,91.7L-25.0,93.2L-29.0,89.2L-32.6,85.0L-35.9,80.7L-38.9,76.3L-41.5,71.8L-43.7,67.3L-45.6,62.7L-47.1,58.1L-48.2,53.6L-49.1,49.1L-49.5,44.6L-49.7,40.3L-53.9,39.2L-58.2,37.8L-62.4,36.0L-66.6,34.0L-70.8,31.5L-74.9,28.7L-78.9,25.6L-82.7,22.2L-86.4,18.4L-89.9,14.2L-93.2,9.8L-96.3,5.0L-93.8,0.0L-90.9,-4.8L-87.9,-9.2L-84.6,-13.4L-81.1,-17.2L-77.5,-20.8L-73.7,-23.9L-69.8,-26.8L-65.9,-29.3L-61.8,-31.5L-57.7,-33.3L-53.6,-34.8L-53.9,-39.2L-53.9,-43.7L-53.6,-48.2L-52.9,-52.9L-51.9,-57.6L-50.5,-62.3L-48.7,-67.1L-46.6,-71.8L-44.2,-76.5L-41.3,-81.1L-38.1,-85.6L-34.6,-90.1L-29.0,-89.2L-23.6,-87.9L-18.4,-86.4L-13.4,-84.6L-8.7,-82.5L-4.2,-80.1L-0.0,-77.5L3.9,-74.7L7.5,-71.7L10.9,-68.5L13.9,-65.2L16.6,-61.8L20.6,-63.4L24.9,-64.8L29.3,-65.9L34.0,-66.6L38.8,-67.1L43.7,-67.3L48.7,-67.1L53.9,-66.5L59.1,-65.6L64.4,-64.4L69.7,-62.7L75.0,-60.7L75.8,-55.1L76.4,-49.6L76.5,-44.2L76.3,-38.9L75.7,-33.7L74.9,-28.7L73.7,-23.9L72.2,-19.4L70.5,-15.0L68.5,-10.9L66.3,-7.0L63.9,-3.3L66.7,-0.0Z" fill="none" stroke="#e8fbdf" stroke-width="0.5" stroke-linecap="round" opacity="0.95"/><path d="M60.6,0.0L58.7,3.1L61.2,6.4L63.4,10.0L65.5,13.9L67.3,18.0L68.8,22.4L70.1,26.9L71.1,31.6L71.7,36.5L72.1,41.6L72.0,46.8L71.7,52.1L70.3,56.9L65.2,58.7L60.1,60.1L55.1,61.2L50.1,61.8L45.2,62.2L40.4,62.2L35.7,61.9L31.2,61.3L26.9,60.3L22.7,59.1L18.7,57.7L15.2,56.8L12.8,60.2L10.0,63.4L7.0,66.6L3.6,69.6L0.0,72.4L-3.9,75.0L-8.1,77.4L-12.6,79.5L-17.3,81.4L-22.2,83.0L-27.4,84.3L-32.4,84.4L-35.7,80.1L-38.6,75.7L-41.1,71.3L-43.3,66.7L-45.2,62.2L-46.7,57.6L-47.8,53.1L-48.6,48.6L-49.1,44.2L-49.2,39.9L-49.0,35.6L-49.3,32.0L-53.3,30.8L-57.2,29.2L-61.2,27.2L-65.0,25.0L-68.8,22.4L-72.5,19.4L-76.1,16.2L-79.5,12.6L-82.7,8.7L-85.8,4.5L-88.6,0.0L-90.3,-4.7L-87.2,-9.2L-84.0,-13.3L-80.5,-17.1L-76.9,-20.6L-73.1,-23.8L-69.2,-26.6L-65.3,-29.1L-61.3,-31.2L-57.2,-33.0L-53.1,-34.5L-49.0,-35.6L-45.7,-37.0L-45.7,-41.2L-45.4,-45.4L-44.8,-49.8L-43.8,-54.1L-42.5,-58.5L-40.9,-63.0L-38.9,-67.4L-36.5,-71.7L-33.8,-76.0L-30.8,-80.2L-27.4,-84.3L-23.4,-87.3L-18.2,-85.8L-13.3,-84.0L-8.6,-81.8L-4.2,-79.5L-0.0,-76.9L3.9,-74.1L7.5,-71.1L10.8,-67.9L13.7,-64.6L16.4,-61.2L18.7,-57.7L21.1,-54.9L25.0,-56.2L29.2,-57.2L33.5,-58.0L37.9,-58.4L42.5,-58.5L47.2,-58.3L52.0,-57.8L56.9,-56.9L61.8,-55.7L66.8,-54.1L71.7,-52.1L75.8,-49.2L76.0,-43.9L75.7,-38.6L75.2,-33.5L74.3,-28.5L73.1,-23.8L71.6,-19.2L69.9,-14.9L67.9,-10.8L65.7,-6.9L63.2,-3.3L60.6,-0.0Z" fill="none" stroke="#e5fbde" stroke-width="1.5" stroke-linecap="round" opacity="0.28" filter="url(#tg)"/><path d="M60.6,0.0L58.7,3.1L61.2,6.4L63.4,10.0L65.5,13.9L67.3,18.0L68.8,22.4L70.1,26.9L71.1,31.6L71.7,36.5L72.1,41.6L72.0,46.8L71.7,52.1L70.3,56.9L65.2,58.7L60.1,60.1L55.1,61.2L50.1,61.8L45.2,62.2L40.4,62.2L35.7,61.9L31.2,61.3L26.9,60.3L22.7,59.1L18.7,57.7L15.2,56.8L12.8,60.2L10.0,63.4L7.0,66.6L3.6,69.6L0.0,72.4L-3.9,75.0L-8.1,77.4L-12.6,79.5L-17.3,81.4L-22.2,83.0L-27.4,84.3L-32.4,84.4L-35.7,80.1L-38.6,75.7L-41.1,71.3L-43.3,66.7L-45.2,62.2L-46.7,57.6L-47.8,53.1L-48.6,48.6L-49.1,44.2L-49.2,39.9L-49.0,35.6L-49.3,32.0L-53.3,30.8L-57.2,29.2L-61.2,27.2L-65.0,25.0L-68.8,22.4L-72.5,19.4L-76.1,16.2L-79.5,12.6L-82.7,8.7L-85.8,4.5L-88.6,0.0L-90.3,-4.7L-87.2,-9.2L-84.0,-13.3L-80.5,-17.1L-76.9,-20.6L-73.1,-23.8L-69.2,-26.6L-65.3,-29.1L-61.3,-31.2L-57.2,-33.0L-53.1,-34.5L-49.0,-35.6L-45.7,-37.0L-45.7,-41.2L-45.4,-45.4L-44.8,-49.8L-43.8,-54.1L-42.5,-58.5L-40.9,-63.0L-38.9,-67.4L-36.5,-71.7L-33.8,-76.0L-30.8,-80.2L-27.4,-84.3L-23.4,-87.3L-18.2,-85.8L-13.3,-84.0L-8.6,-81.8L-4.2,-79.5L-0.0,-76.9L3.9,-74.1L7.5,-71.1L10.8,-67.9L13.7,-64.6L16.4,-61.2L18.7,-57.7L21.1,-54.9L25.0,-56.2L29.2,-57.2L33.5,-58.0L37.9,-58.4L42.5,-58.5L47.2,-58.3L52.0,-57.8L56.9,-56.9L61.8,-55.7L66.8,-54.1L71.7,-52.1L75.8,-49.2L76.0,-43.9L75.7,-38.6L75.2,-33.5L74.3,-28.5L73.1,-23.8L71.6,-19.2L69.9,-14.9L67.9,-10.8L65.7,-6.9L63.2,-3.3L60.6,-0.0Z" fill="none" stroke="#e5fbde" stroke-width="0.5" stroke-linecap="round" opacity="0.95"/><path d="M60.0,0.0L57.2,3.0L54.3,5.7L53.0,8.4L55.2,11.7L57.1,15.3L58.8,19.1L60.2,23.1L61.4,27.3L62.3,31.7L62.9,36.3L63.2,41.0L63.2,45.9L62.8,50.8L62.0,55.9L59.7,59.7L54.6,60.7L49.7,61.4L44.8,61.7L40.1,61.7L35.4,61.3L30.9,60.7L26.6,59.8L22.5,58.5L18.5,57.1L14.8,55.3L11.3,53.4L8.4,53.0L5.9,56.1L3.1,59.0L0.0,61.8L-3.4,64.4L-7.0,66.9L-10.9,69.1L-15.1,71.1L-19.5,72.8L-24.1,74.2L-28.9,75.4L-34.0,76.3L-38.3,75.2L-40.8,70.7L-43.0,66.2L-44.8,61.7L-46.3,57.2L-47.4,52.6L-48.2,48.2L-48.6,43.8L-48.7,39.5L-48.5,35.3L-48.1,31.2L-47.3,27.3L-47.8,24.4L-51.5,22.9L-55.2,21.2L-58.8,19.1L-62.3,16.7L-65.8,14.0L-69.1,10.9L-72.2,7.6L-75.2,3.9L-78.1,0.0L-80.7,-4.2L-83.0,-8.7L-83.3,-13.2L-79.9,-17.0L-76.3,-20.4L-72.5,-23.6L-68.7,-26.4L-64.7,-28.8L-60.7,-30.9L-56.7,-32.7L-52.6,-34.2L-48.5,-35.3L-44.5,-36.1L-40.6,-36.5L-38.0,-38.0L-37.7,-41.9L-37.2,-45.9L-36.3,-50.0L-35.1,-54.1L-33.6,-58.2L-31.7,-62.3L-29.5,-66.4L-27.0,-70.3L-24.1,-74.2L-20.9,-78.0L-17.4,-81.7L-13.2,-83.3L-8.5,-81.2L-4.1,-78.9L-0.0,-76.3L3.8,-73.4L7.4,-70.4L10.7,-67.3L13.6,-64.0L16.2,-60.6L18.5,-57.1L20.5,-53.5L22.2,-49.9L24.4,-47.8L28.2,-48.8L32.2,-49.6L36.3,-50.0L40.6,-50.1L45.0,-50.0L49.4,-49.4L54.0,-48.6L58.6,-47.4L63.2,-45.9L67.7,-44.0L72.3,-41.7L75.2,-38.3L74.6,-33.2L73.7,-28.3L72.5,-23.6L71.0,-19.0L69.3,-14.7L67.3,-10.7L65.1,-6.8L62.6,-3.3L60.0,-0.0Z" fill="none" stroke="#e3fbdd" stroke-width="1.5" stroke-linecap="round" opacity="0.28" filter="url(#tg)"/><path d="M60.0,0.0L57.2,3.0L54.3,5.7L53.0,8.4L55.2,11.7L57.1,15.3L58.8,19.1L60.2,23.1L61.4,27.3L62.3,31.7L62.9,36.3L63.2,41.0L63.2,45.9L62.8,50.8L62.0,55.9L59.7,59.7L54.6,60.7L49.7,61.4L44.8,61.7L40.1,61.7L35.4,61.3L30.9,60.7L26.6,59.8L22.5,58.5L18.5,57.1L14.8,55.3L11.3,53.4L8.4,53.0L5.9,56.1L3.1,59.0L0.0,61.8L-3.4,64.4L-7.0,66.9L-10.9,69.1L-15.1,71.1L-19.5,72.8L-24.1,74.2L-28.9,75.4L-34.0,76.3L-38.3,75.2L-40.8,70.7L-43.0,66.2L-44.8,61.7L-46.3,57.2L-47.4,52.6L-48.2,48.2L-48.6,43.8L-48.7,39.5L-48.5,35.3L-48.1,31.2L-47.3,27.3L-47.8,24.4L-51.5,22.9L-55.2,21.2L-58.8,19.1L-62.3,16.7L-65.8,14.0L-69.1,10.9L-72.2,7.6L-75.2,3.9L-78.1,0.0L-80.7,-4.2L-83.0,-8.7L-83.3,-13.2L-79.9,-17.0L-76.3,-20.4L-72.5,-23.6L-68.7,-26.4L-64.7,-28.8L-60.7,-30.9L-56.7,-32.7L-52.6,-34.2L-48.5,-35.3L-44.5,-36.1L-40.6,-36.5L-38.0,-38.0L-37.7,-41.9L-37.2,-45.9L-36.3,-50.0L-35.1,-54.1L-33.6,-58.2L-31.7,-62.3L-29.5,-66.4L-27.0,-70.3L-24.1,-74.2L-20.9,-78.0L-17.4,-81.7L-13.2,-83.3L-8.5,-81.2L-4.1,-78.9L-0.0,-76.3L3.8,-73.4L7.4,-70.4L10.7,-67.3L13.6,-64.0L16.2,-60.6L18.5,-57.1L20.5,-53.5L22.2,-49.9L24.4,-47.8L28.2,-48.8L32.2,-49.6L36.3,-50.0L40.6,-50.1L45.0,-50.0L49.4,-49.4L54.0,-48.6L58.6,-47.4L63.2,-45.9L67.7,-44.0L72.3,-41.7L75.2,-38.3L74.6,-33.2L73.7,-28.3L72.5,-23.6L71.0,-19.0L69.3,-14.7L67.3,-10.7L65.1,-6.8L62.6,-3.3L60.0,-0.0Z" fill="none" stroke="#e3fbdd" stroke-width="0.5" stroke-linecap="round" opacity="0.95"/><path d="M59.4,0.0L56.6,3.0L53.7,5.6L50.6,8.0L47.5,10.1L46.9,12.6L48.7,15.8L50.4,19.3L51.8,23.0L52.9,27.0L53.8,31.0L54.3,35.3L54.6,39.7L54.6,44.2L54.2,48.8L53.5,53.5L52.4,58.2L49.3,60.9L44.5,61.2L39.7,61.2L35.1,60.8L30.6,60.1L26.4,59.2L22.2,58.0L18.3,56.5L14.7,54.7L11.2,52.8L8.0,50.6L5.1,48.3L2.5,48.5L0.0,51.3L-2.8,53.9L-5.9,56.4L-9.3,58.6L-12.9,60.7L-16.8,62.6L-20.9,64.2L-25.2,65.5L-29.7,66.6L-34.3,67.4L-39.2,67.8L-42.7,65.7L-44.5,61.2L-45.9,56.7L-47.0,52.2L-47.7,47.7L-48.2,43.4L-48.2,39.1L-48.0,34.9L-47.5,30.9L-46.7,27.0L-45.7,23.3L-44.3,19.7L-45.3,17.4L-48.7,15.8L-52.1,14.0L-55.4,11.8L-58.6,9.3L-61.7,6.5L-64.7,3.4L-67.5,0.0L-70.1,-3.7L-72.5,-7.6L-74.7,-11.8L-76.6,-16.3L-75.7,-20.3L-71.9,-23.4L-68.1,-26.1L-64.1,-28.6L-60.1,-30.6L-56.1,-32.4L-52.1,-33.8L-48.0,-34.9L-44.0,-35.7L-40.1,-36.1L-36.2,-36.2L-32.5,-36.1L-30.5,-37.7L-30.1,-41.5L-29.4,-45.3L-28.3,-49.1L-27.0,-52.9L-25.3,-56.7L-23.2,-60.5L-20.9,-64.2L-18.2,-67.8L-15.2,-71.3L-11.8,-74.7L-8.2,-77.9L-4.1,-78.2L-0.0,-75.6L3.8,-72.8L7.3,-69.8L10.6,-66.7L13.5,-63.4L16.1,-60.0L18.3,-56.5L20.3,-52.9L21.9,-49.3L23.3,-45.7L24.3,-42.0L26.4,-40.7L30.1,-41.5L34.0,-41.9L37.9,-42.1L42.0,-42.0L46.1,-41.5L50.4,-40.8L54.6,-39.7L58.9,-38.2L63.1,-36.5L67.4,-34.3L71.6,-31.9L73.1,-28.1L71.9,-23.4L70.4,-18.9L68.7,-14.6L66.7,-10.6L64.4,-6.8L62.0,-3.2L59.4,-0.0Z" fill="none" stroke="#e1fbdc" stroke-width="1.5" stroke-linecap="round" opacity="0.28" filter="url(#tg)"/><path d="M59.4,0.0L56.6,3.0L53.7,5.6L50.6,8.0L47.5,10.1L46.9,12.6L48.7,15.8L50.4,19.3L51.8,23.0L52.9,27.0L53.8,31.0L54.3,35.3L54.6,39.7L54.6,44.2L54.2,48.8L53.5,53.5L52.4,58.2L49.3,60.9L44.5,61.2L39.7,61.2L35.1,60.8L30.6,60.1L26.4,59.2L22.2,58.0L18.3,56.5L14.7,54.7L11.2,52.8L8.0,50.6L5.1,48.3L2.5,48.5L0.0,51.3L-2.8,53.9L-5.9,56.4L-9.3,58.6L-12.9,60.7L-16.8,62.6L-20.9,64.2L-25.2,65.5L-29.7,66.6L-34.3,67.4L-39.2,67.8L-42.7,65.7L-44.5,61.2L-45.9,56.7L-47.0,52.2L-47.7,47.7L-48.2,43.4L-48.2,39.1L-48.0,34.9L-47.5,30.9L-46.7,27.0L-45.7,23.3L-44.3,19.7L-45.3,17.4L-48.7,15.8L-52.1,14.0L-55.4,11.8L-58.6,9.3L-61.7,6.5L-64.7,3.4L-67.5,0.0L-70.1,-3.7L-72.5,-7.6L-74.7,-11.8L-76.6,-16.3L-75.7,-20.3L-71.9,-23.4L-68.1,-26.1L-64.1,-28.6L-60.1,-30.6L-56.1,-32.4L-52.1,-33.8L-48.0,-34.9L-44.0,-35.7L-40.1,-36.1L-36.2,-36.2L-32.5,-36.1L-30.5,-37.7L-30.1,-41.5L-29.4,-45.3L-28.3,-49.1L-27.0,-52.9L-25.3,-56.7L-23.2,-60.5L-20.9,-64.2L-18.2,-67.8L-15.2,-71.3L-11.8,-74.7L-8.2,-77.9L-4.1,-78.2L-0.0,-75.6L3.8,-72.8L7.3,-69.8L10.6,-66.7L13.5,-63.4L16.1,-60.0L18.3,-56.5L20.3,-52.9L21.9,-49.3L23.3,-45.7L24.3,-42.0L26.4,-40.7L30.1,-41.5L34.0,-41.9L37.9,-42.1L42.0,-42.0L46.1,-41.5L50.4,-40.8L54.6,-39.7L58.9,-38.2L63.1,-36.5L67.4,-34.3L71.6,-31.9L73.1,-28.1L71.9,-23.4L70.4,-18.9L68.7,-14.6L66.7,-10.6L64.4,-6.8L62.0,-3.2L59.4,-0.0Z" fill="none" stroke="#e1fbdc" stroke-width="0.5" stroke-linecap="round" opacity="0.95"/><path d="M58.8,0.0L56.0,2.9L53.0,5.6L50.0,7.9L46.9,10.0L43.7,11.7L40.4,13.1L40.5,15.6L42.1,18.8L43.5,22.2L44.6,25.8L45.5,29.5L46.1,33.5L46.4,37.5L46.3,41.7L46.0,46.0L45.4,50.4L44.4,54.8L43.0,59.2L39.4,60.6L34.8,60.3L30.4,59.6L26.1,58.6L22.0,57.4L18.2,55.9L14.5,54.1L11.1,52.2L7.9,50.0L5.0,47.7L2.4,45.1L0.0,42.5L-2.3,43.3L-4.8,45.9L-7.6,48.2L-10.7,50.4L-14.0,52.4L-17.6,54.2L-21.4,55.7L-25.4,57.0L-29.5,58.0L-33.9,58.7L-38.4,59.1L-43.0,59.2L-45.5,56.2L-46.6,51.7L-47.3,47.3L-47.7,42.9L-47.8,38.7L-47.5,34.5L-47.0,30.5L-46.2,26.7L-45.1,23.0L-43.8,19.5L-42.2,16.2L-40.4,13.1L-41.9,11.2L-45.1,9.6L-48.2,7.6L-51.2,5.4L-54.2,2.8L-56.9,0.0L-59.6,-3.1L-62.0,-6.5L-64.3,-10.2L-66.3,-14.1L-68.1,-18.2L-69.6,-22.6L-67.5,-25.9L-63.6,-28.3L-59.6,-30.4L-55.6,-32.1L-51.5,-33.5L-47.5,-34.5L-43.6,-35.3L-39.6,-35.7L-35.8,-35.8L-32.1,-35.6L-28.5,-35.1L-25.0,-34.4L-23.6,-36.4L-23.1,-39.9L-22.2,-43.5L-21.0,-47.1L-19.4,-50.6L-17.6,-54.2L-15.4,-57.6L-13.0,-61.0L-10.2,-64.3L-7.1,-67.4L-3.7,-70.4L-0.0,-73.2L3.8,-72.2L7.3,-69.2L10.5,-66.1L13.3,-62.8L15.9,-59.4L18.2,-55.9L20.1,-52.3L21.7,-48.7L23.0,-45.1L24.0,-41.5L24.6,-37.9L25.0,-34.4L27.3,-33.7L30.9,-34.3L34.5,-34.5L38.3,-34.5L42.2,-34.1L46.1,-33.5L50.0,-32.5L54.0,-31.2L58.0,-29.5L61.9,-27.6L65.8,-25.3L69.6,-22.6L69.8,-18.7L68.1,-14.5L66.1,-10.5L63.8,-6.7L61.4,-3.2L58.8,-0.0Z" fill="none" stroke="#defcdb" stroke-width="1.5" stroke-linecap="round" opacity="0.28" filter="url(#tg)"/><path d="M58.8,0.0L56.0,2.9L53.0,5.6L50.0,7.9L46.9,10.0L43.7,11.7L40.4,13.1L40.5,15.6L42.1,18.8L43.5,22.2L44.6,25.8L45.5,29.5L46.1,33.5L46.4,37.5L46.3,41.7L46.0,46.0L45.4,50.4L44.4,54.8L43.0,59.2L39.4,60.6L34.8,60.3L30.4,59.6L26.1,58.6L22.0,57.4L18.2,55.9L14.5,54.1L11.1,52.2L7.9,50.0L5.0,47.7L2.4,45.1L0.0,42.5L-2.3,43.3L-4.8,45.9L-7.6,48.2L-10.7,50.4L-14.0,52.4L-17.6,54.2L-21.4,55.7L-25.4,57.0L-29.5,58.0L-33.9,58.7L-38.4,59.1L-43.0,59.2L-45.5,56.2L-46.6,51.7L-47.3,47.3L-47.7,42.9L-47.8,38.7L-47.5,34.5L-47.0,30.5L-46.2,26.7L-45.1,23.0L-43.8,19.5L-42.2,16.2L-40.4,13.1L-41.9,11.2L-45.1,9.6L-48.2,7.6L-51.2,5.4L-54.2,2.8L-56.9,0.0L-59.6,-3.1L-62.0,-6.5L-64.3,-10.2L-66.3,-14.1L-68.1,-18.2L-69.6,-22.6L-67.5,-25.9L-63.6,-28.3L-59.6,-30.4L-55.6,-32.1L-51.5,-33.5L-47.5,-34.5L-43.6,-35.3L-39.6,-35.7L-35.8,-35.8L-32.1,-35.6L-28.5,-35.1L-25.0,-34.4L-23.6,-36.4L-23.1,-39.9L-22.2,-43.5L-21.0,-47.1L-19.4,-50.6L-17.6,-54.2L-15.4,-57.6L-13.0,-61.0L-10.2,-64.3L-7.1,-67.4L-3.7,-70.4L-0.0,-73.2L3.8,-72.2L7.3,-69.2L10.5,-66.1L13.3,-62.8L15.9,-59.4L18.2,-55.9L20.1,-52.3L21.7,-48.7L23.0,-45.1L24.0,-41.5L24.6,-37.9L25.0,-34.4L27.3,-33.7L30.9,-34.3L34.5,-34.5L38.3,-34.5L42.2,-34.1L46.1,-33.5L50.0,-32.5L54.0,-31.2L58.0,-29.5L61.9,-27.6L65.8,-25.3L69.6,-22.6L69.8,-18.7L68.1,-14.5L66.1,-10.5L63.8,-6.7L61.4,-3.2L58.8,-0.0Z" fill="none" stroke="#defcdb" stroke-width="0.5" stroke-linecap="round" opacity="0.95"/><path d="M58.1,0.0L55.3,2.9L52.4,5.5L49.4,7.8L46.3,9.8L43.1,11.5L39.8,12.9L36.6,14.0L33.3,14.8L34.1,17.4L35.5,20.5L36.6,23.8L37.5,27.3L38.2,30.9L38.5,34.7L38.5,38.5L38.3,42.5L37.7,46.6L36.8,50.7L35.6,54.8L34.0,58.9L30.1,59.0L25.8,58.1L21.8,56.8L18.0,55.3L14.3,53.5L11.0,51.6L7.8,49.4L4.9,47.0L2.3,44.5L0.0,41.9L-2.0,39.1L-3.8,36.3L-6.0,37.8L-8.5,40.1L-11.3,42.2L-14.3,44.1L-17.6,45.8L-21.1,47.3L-24.8,48.6L-28.6,49.6L-32.6,50.3L-36.8,50.7L-41.1,50.8L-45.5,50.6L-46.8,46.8L-47.2,42.5L-47.3,38.3L-47.0,34.2L-46.5,30.2L-45.6,26.4L-44.6,22.7L-43.2,19.2L-41.6,16.0L-39.8,12.9L-37.8,10.1L-35.7,7.6L-37.8,6.0L-40.8,4.3L-43.6,2.3L-46.4,0.0L-49.0,-2.6L-51.5,-5.4L-53.8,-8.5L-56.0,-11.9L-57.9,-15.5L-59.6,-19.4L-61.0,-23.4L-62.2,-27.7L-59.0,-30.1L-55.0,-31.8L-51.0,-33.1L-47.0,-34.2L-43.1,-34.9L-39.2,-35.3L-35.4,-35.4L-31.6,-35.1L-28.1,-34.7L-24.6,-33.9L-21.3,-32.9L-18.2,-31.6L-17.4,-34.1L-16.7,-37.4L-15.7,-40.8L-14.3,-44.1L-12.7,-47.4L-10.8,-50.7L-8.5,-53.8L-6.0,-56.9L-3.1,-59.9L-0.0,-62.6L3.4,-65.3L7.1,-67.7L10.4,-65.4L13.2,-62.2L15.7,-58.8L18.0,-55.3L19.9,-51.7L21.4,-48.2L22.7,-44.6L23.6,-41.0L24.3,-37.4L24.6,-33.9L24.7,-30.4L24.4,-27.1L27.1,-27.1L30.5,-27.4L33.9,-27.5L37.5,-27.3L41.2,-26.7L44.9,-25.9L48.6,-24.8L52.3,-23.3L56.0,-21.5L59.6,-19.4L63.1,-16.9L66.6,-14.2L65.4,-10.4L63.2,-6.6L60.8,-3.2L58.1,-0.0Z" fill="none" stroke="#dcfcdb" stroke-width="1.5" stroke-linecap="round" opacity="0.28" filter="url(#tg)"/><path d="M58.1,0.0L55.3,2.9L52.4,5.5L49.4,7.8L46.3,9.8L43.1,11.5L39.8,12.9L36.6,14.0L33.3,14.8L34.1,17.4L35.5,20.5L36.6,23.8L37.5,27.3L38.2,30.9L38.5,34.7L38.5,38.5L38.3,42.5L37.7,46.6L36.8,50.7L35.6,54.8L34.0,58.9L30.1,59.0L25.8,58.1L21.8,56.8L18.0,55.3L14.3,53.5L11.0,51.6L7.8,49.4L4.9,47.0L2.3,44.5L0.0,41.9L-2.0,39.1L-3.8,36.3L-6.0,37.8L-8.5,40.1L-11.3,42.2L-14.3,44.1L-17.6,45.8L-21.1,47.3L-24.8,48.6L-28.6,49.6L-32.6,50.3L-36.8,50.7L-41.1,50.8L-45.5,50.6L-46.8,46.8L-47.2,42.5L-47.3,38.3L-47.0,34.2L-46.5,30.2L-45.6,26.4L-44.6,22.7L-43.2,19.2L-41.6,16.0L-39.8,12.9L-37.8,10.1L-35.7,7.6L-37.8,6.0L-40.8,4.3L-43.6,2.3L-46.4,0.0L-49.0,-2.6L-51.5,-5.4L-53.8,-8.5L-56.0,-11.9L-57.9,-15.5L-59.6,-19.4L-61.0,-23.4L-62.2,-27.7L-59.0,-30.1L-55.0,-31.8L-51.0,-33.1L-47.0,-34.2L-43.1,-34.9L-39.2,-35.3L-35.4,-35.4L-31.6,-35.1L-28.1,-34.7L-24.6,-33.9L-21.3,-32.9L-18.2,-31.6L-17.4,-34.1L-16.7,-37.4L-15.7,-40.8L-14.3,-44.1L-12.7,-47.4L-10.8,-50.7L-8.5,-53.8L-6.0,-56.9L-3.1,-59.9L-0.0,-62.6L3.4,-65.3L7.1,-67.7L10.4,-65.4L13.2,-62.2L15.7,-58.8L18.0,-55.3L19.9,-51.7L21.4,-48.2L22.7,-44.6L23.6,-41.0L24.3,-37.4L24.6,-33.9L24.7,-30.4L24.4,-27.1L27.1,-27.1L30.5,-27.4L33.9,-27.5L37.5,-27.3L41.2,-26.7L44.9,-25.9L48.6,-24.8L52.3,-23.3L56.0,-21.5L59.6,-19.4L63.1,-16.9L66.6,-14.2L65.4,-10.4L63.2,-6.6L60.8,-3.2L58.1,-0.0Z" fill="none" stroke="#dcfcdb" stroke-width="0.5" stroke-linecap="round" opacity="0.95"/><path d="M57.5,0.0L54.7,2.9L51.8,5.4L48.8,7.7L45.7,9.7L42.5,11.4L39.2,12.7L36.0,13.8L32.7,14.6L29.5,15.0L26.3,15.2L27.8,18.0L29.0,21.1L30.0,24.3L30.7,27.6L31.1,31.1L31.2,34.7L31.1,38.4L30.6,42.1L29.8,46.0L28.8,49.8L27.3,53.6L25.6,57.5L21.6,56.2L17.8,54.7L14.2,52.9L10.8,50.9L7.7,48.8L4.9,46.4L2.3,43.9L0.0,41.3L-2.0,38.5L-3.7,35.6L-5.2,32.7L-6.3,29.8L-8.6,32.0L-11.1,34.1L-13.8,36.0L-16.8,37.7L-20.0,39.2L-23.3,40.4L-26.9,41.4L-30.6,42.1L-34.5,42.6L-38.5,42.7L-42.6,42.6L-46.8,42.1L-46.8,37.9L-46.5,33.8L-46.0,29.8L-45.1,26.0L-44.0,22.4L-42.6,19.0L-41.0,15.8L-39.2,12.7L-37.2,10.0L-35.1,7.5L-32.7,5.2L-30.3,3.2L-33.1,1.7L-35.8,0.0L-38.5,-2.0L-41.0,-4.3L-43.4,-6.9L-45.7,-9.7L-47.7,-12.8L-49.5,-16.1L-51.2,-19.6L-52.5,-23.4L-53.6,-27.3L-54.5,-31.5L-50.5,-32.8L-46.5,-33.8L-42.6,-34.5L-38.7,-34.9L-34.9,-34.9L-31.2,-34.7L-27.7,-34.2L-24.2,-33.4L-21.0,-32.3L-17.9,-31.0L-15.0,-29.5L-12.4,-27.8L-11.9,-30.9L-11.1,-34.1L-10.0,-37.2L-8.6,-40.4L-6.9,-43.4L-4.9,-46.4L-2.6,-49.3L-0.0,-52.1L2.9,-54.7L6.0,-57.2L9.4,-59.5L13.1,-61.5L15.6,-58.2L17.8,-54.7L19.6,-51.2L21.2,-47.6L22.4,-44.0L23.3,-40.4L23.9,-36.9L24.2,-33.4L24.3,-30.0L24.0,-26.6L23.4,-23.4L22.6,-20.4L25.7,-20.8L29.0,-21.1L32.3,-21.0L35.7,-20.6L39.2,-20.0L42.6,-19.0L46.1,-17.7L49.5,-16.1L52.9,-14.2L56.2,-12.0L59.5,-9.4L62.6,-6.6L60.1,-3.2L57.5,-0.0Z" fill="none" stroke="#dafcda" stroke-width="1.5" stroke-linecap="round" opacity="0.28" filter="url(#tg)"/><path d="M57.5,0.0L54.7,2.9L51.8,5.4L48.8,7.7L45.7,9.7L42.5,11.4L39.2,12.7L36.0,13.8L32.7,14.6L29.5,15.0L26.3,15.2L27.8,18.0L29.0,21.1L30.0,24.3L30.7,27.6L31.1,31.1L31.2,34.7L31.1,38.4L30.6,42.1L29.8,46.0L28.8,49.8L27.3,53.6L25.6,57.5L21.6,56.2L17.8,54.7L14.2,52.9L10.8,50.9L7.7,48.8L4.9,46.4L2.3,43.9L0.0,41.3L-2.0,38.5L-3.7,35.6L-5.2,32.7L-6.3,29.8L-8.6,32.0L-11.1,34.1L-13.8,36.0L-16.8,37.7L-20.0,39.2L-23.3,40.4L-26.9,41.4L-30.6,42.1L-34.5,42.6L-38.5,42.7L-42.6,42.6L-46.8,42.1L-46.8,37.9L-46.5,33.8L-46.0,29.8L-45.1,26.0L-44.0,22.4L-42.6,19.0L-41.0,15.8L-39.2,12.7L-37.2,10.0L-35.1,7.5L-32.7,5.2L-30.3,3.2L-33.1,1.7L-35.8,0.0L-38.5,-2.0L-41.0,-4.3L-43.4,-6.9L-45.7,-9.7L-47.7,-12.8L-49.5,-16.1L-51.2,-19.6L-52.5,-23.4L-53.6,-27.3L-54.5,-31.5L-50.5,-32.8L-46.5,-33.8L-42.6,-34.5L-38.7,-34.9L-34.9,-34.9L-31.2,-34.7L-27.7,-34.2L-24.2,-33.4L-21.0,-32.3L-17.9,-31.0L-15.0,-29.5L-12.4,-27.8L-11.9,-30.9L-11.1,-34.1L-10.0,-37.2L-8.6,-40.4L-6.9,-43.4L-4.9,-46.4L-2.6,-49.3L-0.0,-52.1L2.9,-54.7L6.0,-57.2L9.4,-59.5L13.1,-61.5L15.6,-58.2L17.8,-54.7L19.6,-51.2L21.2,-47.6L22.4,-44.0L23.3,-40.4L23.9,-36.9L24.2,-33.4L24.3,-30.0L24.0,-26.6L23.4,-23.4L22.6,-20.4L25.7,-20.8L29.0,-21.1L32.3,-21.0L35.7,-20.6L39.2,-20.0L42.6,-19.0L46.1,-17.7L49.5,-16.1L52.9,-14.2L56.2,-12.0L59.5,-9.4L62.6,-6.6L60.1,-3.2L57.5,-0.0Z" fill="none" stroke="#dafcda" stroke-width="0.5" stroke-linecap="round" opacity="0.95"/><path d="M56.9,0.0L54.1,2.8L51.2,5.4L48.2,7.6L45.0,9.6L41.9,11.2L38.6,12.6L35.4,13.6L32.2,14.3L29.0,14.8L25.8,14.9L22.7,14.8L20.5,14.9L21.8,17.6L22.8,20.5L23.6,23.6L24.2,26.8L24.4,30.2L24.4,33.6L24.1,37.1L23.5,40.7L22.5,44.2L21.3,47.8L19.7,51.4L17.6,54.1L14.0,52.3L10.7,50.3L7.6,48.2L4.8,45.8L2.3,43.3L0.0,40.6L-2.0,37.9L-3.7,35.0L-5.1,32.1L-6.2,29.1L-7.0,26.2L-7.8,24.0L-10.0,26.1L-12.5,28.0L-15.2,29.8L-18.1,31.3L-21.1,32.6L-24.4,33.6L-27.8,34.4L-31.4,34.9L-35.1,35.1L-38.9,35.0L-42.8,34.7L-46.0,33.4L-45.4,29.5L-44.6,25.7L-43.4,22.1L-42.1,18.7L-40.5,15.5L-38.6,12.6L-36.6,9.8L-34.4,7.3L-32.1,5.1L-29.6,3.1L-27.0,1.4L-25.3,0.0L-28.0,-1.5L-30.5,-3.2L-33.0,-5.2L-35.3,-7.5L-37.5,-10.0L-39.5,-12.8L-41.3,-15.9L-42.9,-19.1L-44.2,-22.5L-45.3,-26.2L-46.2,-30.0L-46.0,-33.4L-42.1,-34.1L-38.2,-34.4L-34.5,-34.5L-30.8,-34.2L-27.3,-33.7L-23.9,-32.9L-20.7,-31.8L-17.6,-30.5L-14.8,-29.0L-12.1,-27.2L-9.7,-25.3L-7.8,-24.0L-7.2,-27.0L-6.4,-30.0L-5.2,-33.0L-3.8,-35.9L-2.0,-38.8L-0.0,-41.5L2.3,-44.2L4.9,-46.7L7.8,-49.0L10.9,-51.2L14.3,-53.2L17.6,-54.1L19.4,-50.6L20.9,-47.0L22.1,-43.4L23.0,-39.9L23.6,-36.3L23.9,-32.9L23.9,-29.5L23.6,-26.2L23.0,-23.0L22.1,-19.9L21.1,-17.0L20.5,-14.9L23.5,-15.2L26.6,-15.3L29.8,-15.2L33.0,-14.7L36.2,-13.9L39.5,-12.8L42.7,-11.5L45.9,-9.8L49.0,-7.8L52.1,-5.5L55.0,-2.9L56.9,-0.0Z" fill="none" stroke="#d7fcd9" stroke-width="1.5" stroke-linecap="round" opacity="0.28" filter="url(#tg)"/><path d="M56.9,0.0L54.1,2.8L51.2,5.4L48.2,7.6L45.0,9.6L41.9,11.2L38.6,12.6L35.4,13.6L32.2,14.3L29.0,14.8L25.8,14.9L22.7,14.8L20.5,14.9L21.8,17.6L22.8,20.5L23.6,23.6L24.2,26.8L24.4,30.2L24.4,33.6L24.1,37.1L23.5,40.7L22.5,44.2L21.3,47.8L19.7,51.4L17.6,54.1L14.0,52.3L10.7,50.3L7.6,48.2L4.8,45.8L2.3,43.3L0.0,40.6L-2.0,37.9L-3.7,35.0L-5.1,32.1L-6.2,29.1L-7.0,26.2L-7.8,24.0L-10.0,26.1L-12.5,28.0L-15.2,29.8L-18.1,31.3L-21.1,32.6L-24.4,33.6L-27.8,34.4L-31.4,34.9L-35.1,35.1L-38.9,35.0L-42.8,34.7L-46.0,33.4L-45.4,29.5L-44.6,25.7L-43.4,22.1L-42.1,18.7L-40.5,15.5L-38.6,12.6L-36.6,9.8L-34.4,7.3L-32.1,5.1L-29.6,3.1L-27.0,1.4L-25.3,0.0L-28.0,-1.5L-30.5,-3.2L-33.0,-5.2L-35.3,-7.5L-37.5,-10.0L-39.5,-12.8L-41.3,-15.9L-42.9,-19.1L-44.2,-22.5L-45.3,-26.2L-46.2,-30.0L-46.0,-33.4L-42.1,-34.1L-38.2,-34.4L-34.5,-34.5L-30.8,-34.2L-27.3,-33.7L-23.9,-32.9L-20.7,-31.8L-17.6,-30.5L-14.8,-29.0L-12.1,-27.2L-9.7,-25.3L-7.8,-24.0L-7.2,-27.0L-6.4,-30.0L-5.2,-33.0L-3.8,-35.9L-2.0,-38.8L-0.0,-41.5L2.3,-44.2L4.9,-46.7L7.8,-49.0L10.9,-51.2L14.3,-53.2L17.6,-54.1L19.4,-50.6L20.9,-47.0L22.1,-43.4L23.0,-39.9L23.6,-36.3L23.9,-32.9L23.9,-29.5L23.6,-26.2L23.0,-23.0L22.1,-19.9L21.1,-17.0L20.5,-14.9L23.5,-15.2L26.6,-15.3L29.8,-15.2L33.0,-14.7L36.2,-13.9L39.5,-12.8L42.7,-11.5L45.9,-9.8L49.0,-7.8L52.1,-5.5L55.0,-2.9L56.9,-0.0Z" fill="none" stroke="#d7fcd9" stroke-width="0.5" stroke-linecap="round" opacity="0.95"/><path d="M47.2,0.0L49.9,2.6L50.6,5.3L47.5,7.5L44.4,9.4L41.3,11.1L38.0,12.4L34.8,13.4L31.6,14.1L28.4,14.5L25.3,14.6L22.2,14.4L19.2,14.0L16.4,13.2L15.0,13.5L16.2,16.2L17.1,19.0L17.8,22.0L18.2,25.1L18.3,28.3L18.2,31.5L17.8,34.8L17.0,38.2L16.0,41.6L14.6,44.9L12.9,48.2L10.6,49.7L7.5,47.5L4.7,45.2L2.2,42.7L0.0,40.0L-2.0,37.2L-3.6,34.4L-5.0,31.5L-6.1,28.5L-6.8,25.6L-7.3,22.6L-7.5,19.6L-8.2,18.4L-10.4,20.4L-12.8,22.1L-15.4,23.7L-18.2,25.1L-21.2,26.2L-24.4,27.0L-27.6,27.6L-31.1,28.0L-34.6,28.0L-38.2,27.8L-41.9,27.2L-44.0,25.4L-42.9,21.9L-41.5,18.5L-39.9,15.3L-38.0,12.4L-36.0,9.7L-33.8,7.2L-31.5,5.0L-29.0,3.0L-26.4,1.4L-23.8,0.0L-21.0,-1.1L-20.0,-2.1L-22.6,-3.6L-25.0,-5.3L-27.3,-7.3L-29.5,-9.6L-31.4,-12.1L-33.2,-14.8L-34.8,-17.8L-36.2,-20.9L-37.3,-24.2L-38.2,-27.8L-38.8,-31.4L-37.8,-34.0L-34.0,-34.0L-30.4,-33.8L-26.9,-33.2L-23.5,-32.4L-20.3,-31.3L-17.3,-30.0L-14.5,-28.4L-11.9,-26.6L-9.5,-24.7L-7.3,-22.6L-5.4,-20.3L-4.2,-19.7L-3.6,-22.6L-2.7,-25.4L-1.5,-28.2L-0.0,-31.0L1.8,-33.6L3.8,-36.2L6.1,-38.6L8.7,-40.9L11.5,-43.0L14.6,-44.9L17.9,-46.6L20.7,-46.4L21.9,-42.9L22.7,-39.3L23.3,-35.8L23.5,-32.4L23.5,-29.0L23.1,-25.7L22.5,-22.5L21.7,-19.5L20.6,-16.7L19.2,-14.0L17.7,-11.5L17.4,-10.1L20.4,-10.4L23.3,-10.4L26.4,-10.1L29.5,-9.6L32.5,-8.7L35.6,-7.6L38.6,-6.1L41.6,-4.4L44.5,-2.3L47.2,-0.0Z" fill="none" stroke="#d5fdd8" stroke-width="1.5" stroke-linecap="round" opacity="0.28" filter="url(#tg)"/><path d="M47.2,0.0L49.9,2.6L50.6,5.3L47.5,7.5L44.4,9.4L41.3,11.1L38.0,12.4L34.8,13.4L31.6,14.1L28.4,14.5L25.3,14.6L22.2,14.4L19.2,14.0L16.4,13.2L15.0,13.5L16.2,16.2L17.1,19.0L17.8,22.0L18.2,25.1L18.3,28.3L18.2,31.5L17.8,34.8L17.0,38.2L16.0,41.6L14.6,44.9L12.9,48.2L10.6,49.7L7.5,47.5L4.7,45.2L2.2,42.7L0.0,40.0L-2.0,37.2L-3.6,34.4L-5.0,31.5L-6.1,28.5L-6.8,25.6L-7.3,22.6L-7.5,19.6L-8.2,18.4L-10.4,20.4L-12.8,22.1L-15.4,23.7L-18.2,25.1L-21.2,26.2L-24.4,27.0L-27.6,27.6L-31.1,28.0L-34.6,28.0L-38.2,27.8L-41.9,27.2L-44.0,25.4L-42.9,21.9L-41.5,18.5L-39.9,15.3L-38.0,12.4L-36.0,9.7L-33.8,7.2L-31.5,5.0L-29.0,3.0L-26.4,1.4L-23.8,0.0L-21.0,-1.1L-20.0,-2.1L-22.6,-3.6L-25.0,-5.3L-27.3,-7.3L-29.5,-9.6L-31.4,-12.1L-33.2,-14.8L-34.8,-17.8L-36.2,-20.9L-37.3,-24.2L-38.2,-27.8L-38.8,-31.4L-37.8,-34.0L-34.0,-34.0L-30.4,-33.8L-26.9,-33.2L-23.5,-32.4L-20.3,-31.3L-17.3,-30.0L-14.5,-28.4L-11.9,-26.6L-9.5,-24.7L-7.3,-22.6L-5.4,-20.3L-4.2,-19.7L-3.6,-22.6L-2.7,-25.4L-1.5,-28.2L-0.0,-31.0L1.8,-33.6L3.8,-36.2L6.1,-38.6L8.7,-40.9L11.5,-43.0L14.6,-44.9L17.9,-46.6L20.7,-46.4L21.9,-42.9L22.7,-39.3L23.3,-35.8L23.5,-32.4L23.5,-29.0L23.1,-25.7L22.5,-22.5L21.7,-19.5L20.6,-16.7L19.2,-14.0L17.7,-11.5L17.4,-10.1L20.4,-10.4L23.3,-10.4L26.4,-10.1L29.5,-9.6L32.5,-8.7L35.6,-7.6L38.6,-6.1L41.6,-4.4L44.5,-2.3L47.2,-0.0Z" fill="none" stroke="#d5fdd8" stroke-width="0.5" stroke-linecap="round" opacity="0.95"/><path d="M36.7,0.0L39.3,2.1L41.9,4.4L44.2,7.0L43.8,9.3L40.7,10.9L37.5,12.2L34.2,13.1L31.0,13.8L27.8,14.2L24.7,14.3L21.7,14.1L18.7,13.6L15.9,12.9L13.2,11.9L10.6,10.6L10.0,11.2L11.1,13.8L12.0,16.5L12.6,19.4L12.9,22.4L13.0,25.4L12.7,28.6L12.2,31.7L11.3,34.9L10.2,38.0L8.8,41.2L7.0,44.2L4.7,44.6L2.2,42.0L0.0,39.4L-1.9,36.6L-3.6,33.8L-4.9,30.9L-5.9,27.9L-6.7,25.0L-7.1,22.0L-7.3,19.1L-7.2,16.2L-6.8,13.4L-7.5,13.0L-9.6,14.9L-12.0,16.5L-14.6,18.0L-17.3,19.2L-20.2,20.2L-23.2,20.9L-26.4,21.4L-29.7,21.6L-33.0,21.4L-36.4,21.0L-39.9,20.3L-40.9,18.2L-39.3,15.1L-37.5,12.2L-35.4,9.5L-33.2,7.1L-30.9,4.9L-28.4,3.0L-25.8,1.4L-23.1,0.0L-20.4,-1.1L-17.6,-1.9L-14.8,-2.3L-14.7,-3.1L-17.1,-4.6L-19.4,-6.3L-21.6,-8.3L-23.6,-10.5L-25.4,-13.0L-27.1,-15.6L-28.5,-18.5L-29.7,-21.6L-30.6,-24.8L-31.3,-28.2L-31.7,-31.7L-30.0,-33.3L-26.5,-32.7L-23.1,-31.9L-20.0,-30.8L-17.0,-29.4L-14.2,-27.8L-11.6,-26.1L-9.3,-24.1L-7.1,-22.0L-5.3,-19.7L-3.7,-17.3L-2.3,-14.8L-1.6,-14.9L-0.9,-17.7L-0.0,-20.4L1.2,-23.1L2.7,-25.7L4.5,-28.2L6.5,-30.6L8.8,-32.8L11.3,-34.9L14.1,-36.8L17.1,-38.4L20.3,-39.9L22.4,-38.8L22.9,-35.3L23.1,-31.9L23.1,-28.5L22.7,-25.2L22.1,-22.1L21.2,-19.1L20.1,-16.3L18.7,-13.6L17.1,-11.1L15.3,-8.9L13.4,-6.8L13.7,-6.1L16.5,-6.3L19.4,-6.3L22.3,-6.0L25.3,-5.4L28.2,-4.5L31.1,-3.3L33.9,-1.8L36.7,-0.0Z" fill="none" stroke="#d3fdd7" stroke-width="1.5" stroke-linecap="round" opacity="0.28" filter="url(#tg)"/><path d="M36.7,0.0L39.3,2.1L41.9,4.4L44.2,7.0L43.8,9.3L40.7,10.9L37.5,12.2L34.2,13.1L31.0,13.8L27.8,14.2L24.7,14.3L21.7,14.1L18.7,13.6L15.9,12.9L13.2,11.9L10.6,10.6L10.0,11.2L11.1,13.8L12.0,16.5L12.6,19.4L12.9,22.4L13.0,25.4L12.7,28.6L12.2,31.7L11.3,34.9L10.2,38.0L8.8,41.2L7.0,44.2L4.7,44.6L2.2,42.0L0.0,39.4L-1.9,36.6L-3.6,33.8L-4.9,30.9L-5.9,27.9L-6.7,25.0L-7.1,22.0L-7.3,19.1L-7.2,16.2L-6.8,13.4L-7.5,13.0L-9.6,14.9L-12.0,16.5L-14.6,18.0L-17.3,19.2L-20.2,20.2L-23.2,20.9L-26.4,21.4L-29.7,21.6L-33.0,21.4L-36.4,21.0L-39.9,20.3L-40.9,18.2L-39.3,15.1L-37.5,12.2L-35.4,9.5L-33.2,7.1L-30.9,4.9L-28.4,3.0L-25.8,1.4L-23.1,0.0L-20.4,-1.1L-17.6,-1.9L-14.8,-2.3L-14.7,-3.1L-17.1,-4.6L-19.4,-6.3L-21.6,-8.3L-23.6,-10.5L-25.4,-13.0L-27.1,-15.6L-28.5,-18.5L-29.7,-21.6L-30.6,-24.8L-31.3,-28.2L-31.7,-31.7L-30.0,-33.3L-26.5,-32.7L-23.1,-31.9L-20.0,-30.8L-17.0,-29.4L-14.2,-27.8L-11.6,-26.1L-9.3,-24.1L-7.1,-22.0L-5.3,-19.7L-3.7,-17.3L-2.3,-14.8L-1.6,-14.9L-0.9,-17.7L-0.0,-20.4L1.2,-23.1L2.7,-25.7L4.5,-28.2L6.5,-30.6L8.8,-32.8L11.3,-34.9L14.1,-36.8L17.1,-38.4L20.3,-39.9L22.4,-38.8L22.9,-35.3L23.1,-31.9L23.1,-28.5L22.7,-25.2L22.1,-22.1L21.2,-19.1L20.1,-16.3L18.7,-13.6L17.1,-11.1L15.3,-8.9L13.4,-6.8L13.7,-6.1L16.5,-6.3L19.4,-6.3L22.3,-6.0L25.3,-5.4L28.2,-4.5L31.1,-3.3L33.9,-1.8L36.7,-0.0Z" fill="none" stroke="#d3fdd7" stroke-width="0.5" stroke-linecap="round" opacity="0.95"/><path d="M26.1,0.0L28.8,1.5L31.4,3.3L33.8,5.4L36.1,7.7L38.3,10.3L36.9,12.0L33.7,12.9L30.5,13.6L27.3,13.9L24.2,14.0L21.1,13.7L18.2,13.2L15.4,12.5L12.7,11.4L10.2,10.2L7.8,8.7L5.6,7.0L5.8,8.0L6.8,10.5L7.6,13.2L8.2,16.0L8.4,18.9L8.4,21.9L8.1,24.8L7.5,27.8L6.6,30.8L5.4,33.8L3.9,36.7L2.1,39.6L0.0,38.8L-1.9,36.0L-3.5,33.2L-4.8,30.3L-5.8,27.3L-6.5,24.4L-7.0,21.4L-7.1,18.5L-7.0,15.6L-6.5,12.8L-5.8,10.1L-4.9,7.5L-5.8,8.0L-7.9,9.8L-10.2,11.4L-12.7,12.7L-15.4,13.9L-18.2,14.7L-21.1,15.4L-24.2,15.7L-27.3,15.8L-30.5,15.5L-33.8,15.0L-37.0,14.2L-36.9,12.0L-34.8,9.3L-32.6,6.9L-30.3,4.8L-27.8,2.9L-25.2,1.3L-22.5,0.0L-19.8,-1.0L-17.0,-1.8L-14.2,-2.2L-11.4,-2.4L-8.7,-2.3L-9.4,-3.0L-11.7,-4.5L-14.0,-6.2L-16.0,-8.2L-17.9,-10.3L-19.6,-12.7L-21.1,-15.4L-22.4,-18.1L-23.4,-21.1L-24.2,-24.2L-24.7,-27.5L-25.0,-30.8L-22.8,-31.4L-19.6,-30.2L-16.7,-28.9L-13.9,-27.3L-11.4,-25.5L-9.0,-23.5L-7.0,-21.4L-5.1,-19.1L-3.6,-16.7L-2.2,-14.2L-1.2,-11.6L-0.5,-9.0L-0.0,-9.9L0.7,-12.6L1.6,-15.2L2.8,-17.8L4.3,-20.2L6.1,-22.6L8.1,-24.8L10.3,-26.9L12.8,-28.8L15.5,-30.5L18.5,-32.0L21.6,-33.3L22.8,-31.4L22.7,-28.0L22.3,-24.8L21.7,-21.7L20.7,-18.7L19.6,-15.9L18.2,-13.2L16.6,-10.8L14.8,-8.5L12.8,-6.5L10.7,-4.7L8.4,-3.2L9.4,-3.0L12.1,-3.3L14.9,-3.2L17.8,-2.8L20.6,-2.2L23.4,-1.2L26.1,-0.0Z" fill="none" stroke="#d1fdd6" stroke-width="1.5" stroke-linecap="round" opacity="0.28" filter="url(#tg)"/><path d="M26.1,0.0L28.8,1.5L31.4,3.3L33.8,5.4L36.1,7.7L38.3,10.3L36.9,12.0L33.7,12.9L30.5,13.6L27.3,13.9L24.2,14.0L21.1,13.7L18.2,13.2L15.4,12.5L12.7,11.4L10.2,10.2L7.8,8.7L5.6,7.0L5.8,8.0L6.8,10.5L7.6,13.2L8.2,16.0L8.4,18.9L8.4,21.9L8.1,24.8L7.5,27.8L6.6,30.8L5.4,33.8L3.9,36.7L2.1,39.6L0.0,38.8L-1.9,36.0L-3.5,33.2L-4.8,30.3L-5.8,27.3L-6.5,24.4L-7.0,21.4L-7.1,18.5L-7.0,15.6L-6.5,12.8L-5.8,10.1L-4.9,7.5L-5.8,8.0L-7.9,9.8L-10.2,11.4L-12.7,12.7L-15.4,13.9L-18.2,14.7L-21.1,15.4L-24.2,15.7L-27.3,15.8L-30.5,15.5L-33.8,15.0L-37.0,14.2L-36.9,12.0L-34.8,9.3L-32.6,6.9L-30.3,4.8L-27.8,2.9L-25.2,1.3L-22.5,0.0L-19.8,-1.0L-17.0,-1.8L-14.2,-2.2L-11.4,-2.4L-8.7,-2.3L-9.4,-3.0L-11.7,-4.5L-14.0,-6.2L-16.0,-8.2L-17.9,-10.3L-19.6,-12.7L-21.1,-15.4L-22.4,-18.1L-23.4,-21.1L-24.2,-24.2L-24.7,-27.5L-25.0,-30.8L-22.8,-31.4L-19.6,-30.2L-16.7,-28.9L-13.9,-27.3L-11.4,-25.5L-9.0,-23.5L-7.0,-21.4L-5.1,-19.1L-3.6,-16.7L-2.2,-14.2L-1.2,-11.6L-0.5,-9.0L-0.0,-9.9L0.7,-12.6L1.6,-15.2L2.8,-17.8L4.3,-20.2L6.1,-22.6L8.1,-24.8L10.3,-26.9L12.8,-28.8L15.5,-30.5L18.5,-32.0L21.6,-33.3L22.8,-31.4L22.7,-28.0L22.3,-24.8L21.7,-21.7L20.7,-18.7L19.6,-15.9L18.2,-13.2L16.6,-10.8L14.8,-8.5L12.8,-6.5L10.7,-4.7L8.4,-3.2L9.4,-3.0L12.1,-3.3L14.9,-3.2L17.8,-2.8L20.6,-2.2L23.4,-1.2L26.1,-0.0Z" fill="none" stroke="#d1fdd6" stroke-width="0.5" stroke-linecap="round" opacity="0.95"/><path d="M15.6,0.0L18.2,1.0L20.9,2.2L23.4,3.7L25.8,5.5L28.1,7.5L30.3,9.8L32.2,12.4L29.9,13.3L26.7,13.6L23.6,13.6L20.6,13.4L17.7,12.9L14.9,12.1L12.2,11.0L9.7,9.7L7.4,8.2L5.2,6.5L3.3,4.6L1.6,2.5L2.4,4.1L3.4,6.6L4.1,9.3L4.6,12.0L4.8,14.8L4.7,17.6L4.4,20.5L3.7,23.4L2.8,26.2L1.5,29.1L0.0,31.8L-1.8,34.5L-3.4,32.5L-4.7,29.6L-5.7,26.7L-6.4,23.8L-6.8,20.8L-6.9,17.9L-6.7,15.0L-6.2,12.3L-5.5,9.6L-4.5,7.0L-3.3,4.6L-1.8,2.3L-3.2,3.5L-5.3,5.3L-7.5,6.8L-10.0,8.1L-12.6,9.1L-15.3,9.9L-18.2,10.5L-21.1,10.8L-24.1,10.7L-27.2,10.4L-30.3,9.8L-33.3,8.9L-32.0,6.8L-29.6,4.7L-27.1,2.9L-24.6,1.3L-21.9,0.0L-19.1,-1.0L-16.4,-1.7L-13.6,-2.2L-10.8,-2.3L-8.1,-2.2L-5.4,-1.7L-2.7,-1.0L-4.3,-1.9L-6.6,-3.4L-8.8,-5.1L-10.8,-7.0L-12.6,-9.1L-14.2,-11.5L-15.6,-14.0L-16.7,-16.7L-17.7,-19.6L-18.3,-22.6L-18.7,-25.7L-18.8,-28.9L-16.4,-28.3L-13.6,-26.7L-11.1,-24.9L-8.8,-23.0L-6.8,-20.8L-5.0,-18.5L-3.4,-16.1L-2.2,-13.6L-1.2,-11.0L-0.4,-8.3L-0.0,-5.6L0.2,-2.9L0.5,-4.7L1.2,-7.3L2.1,-9.9L3.3,-12.4L4.8,-14.8L6.5,-17.1L8.5,-19.2L10.8,-21.1L13.2,-22.9L15.9,-24.4L18.7,-25.7L21.7,-26.8L21.9,-24.3L21.2,-21.2L20.3,-18.3L19.1,-15.5L17.7,-12.9L16.1,-10.4L14.3,-8.2L12.3,-6.2L10.1,-4.5L7.8,-3.0L5.4,-1.7L2.8,-0.8L4.6,-1.0L7.3,-1.2L10.1,-1.1L12.8,-0.7L15.6,-0.0Z" fill="none" stroke="#cefdd5" stroke-width="1.5" stroke-linecap="round" opacity="0.28" filter="url(#tg)"/><path d="M15.6,0.0L18.2,1.0L20.9,2.2L23.4,3.7L25.8,5.5L28.1,7.5L30.3,9.8L32.2,12.4L29.9,13.3L26.7,13.6L23.6,13.6L20.6,13.4L17.7,12.9L14.9,12.1L12.2,11.0L9.7,9.7L7.4,8.2L5.2,6.5L3.3,4.6L1.6,2.5L2.4,4.1L3.4,6.6L4.1,9.3L4.6,12.0L4.8,14.8L4.7,17.6L4.4,20.5L3.7,23.4L2.8,26.2L1.5,29.1L0.0,31.8L-1.8,34.5L-3.4,32.5L-4.7,29.6L-5.7,26.7L-6.4,23.8L-6.8,20.8L-6.9,17.9L-6.7,15.0L-6.2,12.3L-5.5,9.6L-4.5,7.0L-3.3,4.6L-1.8,2.3L-3.2,3.5L-5.3,5.3L-7.5,6.8L-10.0,8.1L-12.6,9.1L-15.3,9.9L-18.2,10.5L-21.1,10.8L-24.1,10.7L-27.2,10.4L-30.3,9.8L-33.3,8.9L-32.0,6.8L-29.6,4.7L-27.1,2.9L-24.6,1.3L-21.9,0.0L-19.1,-1.0L-16.4,-1.7L-13.6,-2.2L-10.8,-2.3L-8.1,-2.2L-5.4,-1.7L-2.7,-1.0L-4.3,-1.9L-6.6,-3.4L-8.8,-5.1L-10.8,-7.0L-12.6,-9.1L-14.2,-11.5L-15.6,-14.0L-16.7,-16.7L-17.7,-19.6L-18.3,-22.6L-18.7,-25.7L-18.8,-28.9L-16.4,-28.3L-13.6,-26.7L-11.1,-24.9L-8.8,-23.0L-6.8,-20.8L-5.0,-18.5L-3.4,-16.1L-2.2,-13.6L-1.2,-11.0L-0.4,-8.3L-0.0,-5.6L0.2,-2.9L0.5,-4.7L1.2,-7.3L2.1,-9.9L3.3,-12.4L4.8,-14.8L6.5,-17.1L8.5,-19.2L10.8,-21.1L13.2,-22.9L15.9,-24.4L18.7,-25.7L21.7,-26.8L21.9,-24.3L21.2,-21.2L20.3,-18.3L19.1,-15.5L17.7,-12.9L16.1,-10.4L14.3,-8.2L12.3,-6.2L10.1,-4.5L7.8,-3.0L5.4,-1.7L2.8,-0.8L4.6,-1.0L7.3,-1.2L10.1,-1.1L12.8,-0.7L15.6,-0.0Z" fill="none" stroke="#cefdd5" stroke-width="0.5" stroke-linecap="round" opacity="0.95"/><path d="M5.0,0.0L7.7,0.4L10.4,1.1L13.0,2.1L15.5,3.3L17.9,4.8L20.2,6.6L22.4,8.6L24.4,10.8L26.2,13.3L23.1,13.3L20.1,13.1L17.2,12.5L14.4,11.7L11.8,10.6L9.3,9.3L7.0,7.7L4.9,6.0L2.9,4.0L1.3,1.9L-0.2,-0.4L-1.4,-2.8L-0.2,-0.4L0.8,2.1L1.5,4.8L2.0,7.5L2.2,10.2L2.1,13.0L1.7,15.8L1.0,18.5L0.0,21.3L-1.3,23.9L-2.8,26.5L-4.6,29.0L-5.5,26.1L-6.2,23.1L-6.6,20.2L-6.6,17.3L-6.4,14.5L-6.0,11.7L-5.2,9.0L-4.2,6.5L-2.9,4.0L-1.4,1.8L0.3,-0.3L2.2,-2.2L0.3,-0.3L-1.8,1.4L-4.0,2.9L-6.5,4.2L-9.0,5.2L-11.7,6.0L-14.5,6.4L-17.3,6.6L-20.2,6.6L-23.1,6.2L-26.1,5.5L-29.0,4.6L-26.5,2.8L-23.9,1.3L-21.3,0.0L-18.5,-1.0L-15.8,-1.7L-13.0,-2.1L-10.2,-2.2L-7.5,-2.0L-4.8,-1.5L-2.1,-0.8L0.4,0.2L2.8,1.4L0.4,0.2L-1.9,-1.3L-4.0,-2.9L-6.0,-4.9L-7.7,-7.0L-9.3,-9.3L-10.6,-11.8L-11.7,-14.4L-12.5,-17.2L-13.1,-20.1L-13.3,-23.1L-13.3,-26.2L-10.8,-24.4L-8.6,-22.4L-6.6,-20.2L-4.8,-17.9L-3.3,-15.5L-2.1,-13.0L-1.1,-10.4L-0.4,-7.7L-0.0,-5.0L0.1,-2.3L-0.0,0.4L-0.5,3.1L-0.1,0.4L0.6,-2.2L1.5,-4.8L2.8,-7.2L4.2,-9.5L6.0,-11.7L7.9,-13.7L10.1,-15.6L12.5,-17.2L15.1,-18.6L17.8,-19.8L20.8,-20.8L19.8,-17.8L18.6,-15.1L17.2,-12.5L15.6,-10.1L13.7,-7.9L11.7,-6.0L9.5,-4.2L7.2,-2.8L4.8,-1.5L2.2,-0.6L-0.4,0.1L-3.1,0.5L-0.4,0.0L2.3,-0.1L5.0,-0.0Z" fill="none" stroke="#ccfed4" stroke-width="1.5" stroke-linecap="round" opacity="0.28" filter="url(#tg)"/><path d="M5.0,0.0L7.7,0.4L10.4,1.1L13.0,2.1L15.5,3.3L17.9,4.8L20.2,6.6L22.4,8.6L24.4,10.8L26.2,13.3L23.1,13.3L20.1,13.1L17.2,12.5L14.4,11.7L11.8,10.6L9.3,9.3L7.0,7.7L4.9,6.0L2.9,4.0L1.3,1.9L-0.2,-0.4L-1.4,-2.8L-0.2,-0.4L0.8,2.1L1.5,4.8L2.0,7.5L2.2,10.2L2.1,13.0L1.7,15.8L1.0,18.5L0.0,21.3L-1.3,23.9L-2.8,26.5L-4.6,29.0L-5.5,26.1L-6.2,23.1L-6.6,20.2L-6.6,17.3L-6.4,14.5L-6.0,11.7L-5.2,9.0L-4.2,6.5L-2.9,4.0L-1.4,1.8L0.3,-0.3L2.2,-2.2L0.3,-0.3L-1.8,1.4L-4.0,2.9L-6.5,4.2L-9.0,5.2L-11.7,6.0L-14.5,6.4L-17.3,6.6L-20.2,6.6L-23.1,6.2L-26.1,5.5L-29.0,4.6L-26.5,2.8L-23.9,1.3L-21.3,0.0L-18.5,-1.0L-15.8,-1.7L-13.0,-2.1L-10.2,-2.2L-7.5,-2.0L-4.8,-1.5L-2.1,-0.8L0.4,0.2L2.8,1.4L0.4,0.2L-1.9,-1.3L-4.0,-2.9L-6.0,-4.9L-7.7,-7.0L-9.3,-9.3L-10.6,-11.8L-11.7,-14.4L-12.5,-17.2L-13.1,-20.1L-13.3,-23.1L-13.3,-26.2L-10.8,-24.4L-8.6,-22.4L-6.6,-20.2L-4.8,-17.9L-3.3,-15.5L-2.1,-13.0L-1.1,-10.4L-0.4,-7.7L-0.0,-5.0L0.1,-2.3L-0.0,0.4L-0.5,3.1L-0.1,0.4L0.6,-2.2L1.5,-4.8L2.8,-7.2L4.2,-9.5L6.0,-11.7L7.9,-13.7L10.1,-15.6L12.5,-17.2L15.1,-18.6L17.8,-19.8L20.8,-20.8L19.8,-17.8L18.6,-15.1L17.2,-12.5L15.6,-10.1L13.7,-7.9L11.7,-6.0L9.5,-4.2L7.2,-2.8L4.8,-1.5L2.2,-0.6L-0.4,0.1L-3.1,0.5L-0.4,0.0L2.3,-0.1L5.0,-0.0Z" fill="none" stroke="#ccfed4" stroke-width="0.5" stroke-linecap="round" opacity="0.95"/><path d="M-5.6,0.0L-2.8,-0.1L-0.1,-0.0L2.5,0.4L5.2,1.1L7.7,2.1L10.2,3.3L12.5,4.8L14.7,6.6L16.8,8.5L18.6,10.8L19.6,12.7L16.7,12.1L13.9,11.3L11.3,10.2L8.8,8.8L6.6,7.3L4.5,5.5L2.6,3.5L0.9,1.4L-0.5,-0.9L-1.7,-3.3L-2.6,-5.9L-3.0,-7.7L-1.7,-5.3L-0.7,-2.7L-0.0,-0.1L0.4,2.5L0.6,5.3L0.4,8.0L0.0,10.7L-0.7,13.4L-1.7,16.0L-2.9,18.6L-4.5,21.1L-6.0,22.5L-6.4,19.6L-6.4,16.7L-6.2,13.9L-5.7,11.1L-4.9,8.5L-3.9,5.9L-2.6,3.5L-1.1,1.3L0.7,-0.8L2.6,-2.6L4.8,-4.3L6.4,-5.2L4.5,-3.3L2.4,-1.5L0.1,-0.1L-2.3,1.2L-4.8,2.1L-7.5,2.9L-10.2,3.3L-13.0,3.5L-15.8,3.4L-18.6,2.9L-21.4,2.3L-23.3,1.2L-20.6,0.0L-17.9,-0.9L-15.1,-1.6L-12.4,-2.0L-9.6,-2.0L-6.8,-1.8L-4.2,-1.4L-1.6,-0.6L0.9,0.4L3.3,1.7L5.6,3.2L6.9,4.5L4.5,3.3L2.2,1.8L0.1,0.1L-1.8,-1.8L-3.5,-3.9L-5.0,-6.2L-6.3,-8.7L-7.3,-11.2L-8.1,-14.0L-8.5,-16.8L-8.8,-19.7L-8.4,-21.8L-6.4,-19.6L-4.6,-17.3L-3.2,-14.9L-2.0,-12.4L-1.0,-9.7L-0.4,-7.1L-0.0,-4.4L0.1,-1.7L-0.1,1.0L-0.6,3.7L-1.3,6.3L-2.1,8.0L-1.7,5.3L-1.0,2.7L-0.1,0.1L1.2,-2.3L2.6,-4.6L4.4,-6.7L6.3,-8.7L8.4,-10.4L10.8,-12.0L13.3,-13.3L16.0,-14.4L18.1,-14.7L16.7,-12.1L15.0,-9.8L13.2,-7.6L11.1,-5.7L8.9,-4.0L6.6,-2.5L4.2,-1.4L1.6,-0.4L-1.0,0.2L-3.7,0.6L-6.4,0.7L-8.2,0.4L-5.6,0.0Z" fill="none" stroke="#cafed4" stroke-width="1.5" stroke-linecap="round" opacity="0.28" filter="url(#tg)"/><path d="M-5.6,0.0L-2.8,-0.1L-0.1,-0.0L2.5,0.4L5.2,1.1L7.7,2.1L10.2,3.3L12.5,4.8L14.7,6.6L16.8,8.5L18.6,10.8L19.6,12.7L16.7,12.1L13.9,11.3L11.3,10.2L8.8,8.8L6.6,7.3L4.5,5.5L2.6,3.5L0.9,1.4L-0.5,-0.9L-1.7,-3.3L-2.6,-5.9L-3.0,-7.7L-1.7,-5.3L-0.7,-2.7L-0.0,-0.1L0.4,2.5L0.6,5.3L0.4,8.0L0.0,10.7L-0.7,13.4L-1.7,16.0L-2.9,18.6L-4.5,21.1L-6.0,22.5L-6.4,19.6L-6.4,16.7L-6.2,13.9L-5.7,11.1L-4.9,8.5L-3.9,5.9L-2.6,3.5L-1.1,1.3L0.7,-0.8L2.6,-2.6L4.8,-4.3L6.4,-5.2L4.5,-3.3L2.4,-1.5L0.1,-0.1L-2.3,1.2L-4.8,2.1L-7.5,2.9L-10.2,3.3L-13.0,3.5L-15.8,3.4L-18.6,2.9L-21.4,2.3L-23.3,1.2L-20.6,0.0L-17.9,-0.9L-15.1,-1.6L-12.4,-2.0L-9.6,-2.0L-6.8,-1.8L-4.2,-1.4L-1.6,-0.6L0.9,0.4L3.3,1.7L5.6,3.2L6.9,4.5L4.5,3.3L2.2,1.8L0.1,0.1L-1.8,-1.8L-3.5,-3.9L-5.0,-6.2L-6.3,-8.7L-7.3,-11.2L-8.1,-14.0L-8.5,-16.8L-8.8,-19.7L-8.4,-21.8L-6.4,-19.6L-4.6,-17.3L-3.2,-14.9L-2.0,-12.4L-1.0,-9.7L-0.4,-7.1L-0.0,-4.4L0.1,-1.7L-0.1,1.0L-0.6,3.7L-1.3,6.3L-2.1,8.0L-1.7,5.3L-1.0,2.7L-0.1,0.1L1.2,-2.3L2.6,-4.6L4.4,-6.7L6.3,-8.7L8.4,-10.4L10.8,-12.0L13.3,-13.3L16.0,-14.4L18.1,-14.7L16.7,-12.1L15.0,-9.8L13.2,-7.6L11.1,-5.7L8.9,-4.0L6.6,-2.5L4.2,-1.4L1.6,-0.4L-1.0,0.2L-3.7,0.6L-6.4,0.7L-8.2,0.4L-5.6,0.0Z" fill="none" stroke="#cafed4" stroke-width="0.5" stroke-linecap="round" opacity="0.95"/>
</svg>