<svg xmlns="http://www.w3.org/2000/svg" viewBox="-250 -250 500 500">
<defs><filter id="tg"><feGaussianBlur stdDeviation="11.0"/></filter></defs>
<rect x="-250" y="-250" width="500" height="500" fill="#0c1218"/>
<path d="M130.0,0.0L127.1,6.7L123.9,13.0L120.4,19.1L116.6,24.8L112.5,30.1L108.2,35.2L103.7,39.8L99.0,44.1L94.1,48.0L89.1,51.5L84.0,54.6L78.9,57.3L77.9,63.1L76.5,68.9L74.7,74.7L72.5,80.5L69.9,86.3L66.9,92.0L63.4,97.7L59.6,103.2L55.3,108.6L50.7,113.8L45.6,118.8L40.2,123.6L32.9,123.0L25.9,121.9L19.1,120.4L12.5,118.5L6.1,116.3L0.0,113.8L-5.8,110.9L-11.3,107.7L-16.5,104.3L-21.4,100.7L-25.9,96.8L-30.1,92.7L-35.9,93.6L-41.9,94.0L-48.0,94.1L-54.2,93.8L-60.5,93.1L-66.9,92.0L-73.3,90.5L-79.7,88.6L-86.2,86.2L-92.6,83.4L-98.9,80.1L-105.2,76.4L-106.8,69.3L-107.9,62.3L-108.6,55.3L-108.9,48.5L-108.7,41.7L-108.2,35.2L-107.3,28.7L-106.0,22.5L-104.3,16.5L-102.4,10.8L-100.1,5.2L-97.5,0.0L-100.1,-5.2L-102.4,-10.8L-104.3,-16.5L-106.0,-22.5L-107.3,-28.7L-108.2,-35.2L-108.7,-41.7L-108.9,-48.5L-108.6,-55.3L-107.9,-62.3L-106.8,-69.3L-105.2,-76.4L-98.9,-80.1L-92.6,-83.4L-86.2,-86.2L-79.7,-88.6L-73.3,-90.5L-66.9,-92.0L-60.5,-93.1L-54.2,-93.8L-48.0,-94.1L-41.9,-94.0L-35.9,-93.6L-30.1,-92.7L-25.9,-96.8L-21.4,-100.7L-16.5,-104.3L-11.3,-107.7L-5.8,-110.9L-0.0,-113.7L6.1,-116.3L12.5,-118.5L19.1,-120.4L25.9,-121.9L32.9,-123.0L40.2,-123.6L45.6,-118.8L50.7,-113.8L55.3,-108.6L59.6,-103.2L63.4,-97.7L66.9,-92.0L69.9,-86.3L72.5,-80.5L74.7,-74.7L76.5,-68.9L77.9,-63.1L78.9,-57.3L84.0,-54.6L89.1,-51.5L94.1,-48.0L99.0,-44.1L103.7,-39.8L108.2,-35.2L112.5,-30.1L116.6,-24.8L120.4,-19.1L123.9,-13.0L127.1,-6.7L130.0,-0.0Z" fill="none" stroke="#f5f9e4" stroke-width="1.5" stroke-linecap="round" opacity="0.28" filter="url(#tg)"/><path d="M130.0,0.0L127.1,6.7L123.9,13.0L120.4,19.1L116.6,24.8L112.5,30.1L108.2,35.2L103.7,39.8L99.0,44.1L94.1,48.0L89.1,51.5L84.0,54.6L78.9,57.3L77.9,63.1L76.5,68.9L74.7,74.7L72.5,80.5L69.9,86.3L66.9,92.0L63.4,97.7L59.6,103.2L55.3,108.6L50.7,113.8L45.6,118.8L40.2,123.6L32.9,123.0L25.9,121.9L19.1,120.4L12.5,118.5L6.1,116.3L0.0,113.8L-5.8,110.9L-11.3,107.7L-16.5,104.3L-21.4,100.7L-25.9,96.8L-30.1,92.7L-35.9,93.6L-41.9,94.0L-48.0,94.1L-54.2,93.8L-60.5,93.1L-66.9,92.0L-73.3,90.5L-79.7,88.6L-86.2,86.2L-92.6,83.4L-98.9,80.1L-105.2,76.4L-106.8,69.3L-107.9,62.3L-108.6,55.3L-108.9,48.5L-108.7,41.7L-108.2,35.2L-107.3,28.7L-106.0,22.5L-104.3,16.5L-102.4,10.8L-100.1,5.2L-97.5,0.0L-100.1,-5.2L-102.4,-10.8L-104.3,-16.5L-106.0,-22.5L-107.3,-28.7L-108.2,-35.2L-108.7,-41.7L-108.9,-48.5L-108.6,-55.3L-107.9,-62.3L-106.8,-69.3L-105.2,-76.4L-98.9,-80.1L-92.6,-83.4L-86.2,-86.2L-79.7,-88.6L-73.3,-90.5L-66.9,-92.0L-60.5,-93.1L-54.2,-93.8L-48.0,-94.1L-41.9,-94.0L-35.9,-93.6L-30.1,-92.7L-25.9,-96.8L-21.4,-100.7L-16.5,-104.3L-11.3,-107.7L-5.8,-110.9L-0.0,-113.7L6.1,-116.3L12.5,-118.5L19.1,-120.4L25.9,-121.9L32.9,-123.0L40.2,-123.6L45.6,-118.8L50.7,-113.8L55.3,-108.6L59.6,-103.2L63.4,-97.7L66.9,-92.0L69.9,-86.3L72.5,-80.5L74.7,-74.7L76.5,-68.9L77.9,-63.1L78.9,-57.3L84.0,-54.6L89.1,-51.5L94.1,-48.0L99.0,-44.1L103.7,-39.8L108.2,-35.2L112.5,-30.1L116.6,-24.8L120.4,-19.1L123.9,-13.0L127.1,-6.7L130.0,-0.0Z" fill="none" stroke="#f5f9e4" stroke-width="0.5" stroke-linecap="round" opacity="0.95"/><path d="M121.3,0.0L123.8,6.5L125.1,13.1L121.6,19.3L117.7,25.0L113.6,30.5L109.3,35.5L104.8,40.2L100.1,44.5L95.2,48.5L90.2,52.1L85.0,55.2L79.8,58.0L74.6,60.4L70.0,63.0L68.5,68.5L66.6,74.0L64.4,79.5L61.7,85.0L58.7,90.3L55.2,95.6L51.4,100.8L47.1,105.8L42.5,110.7L37.5,115.3L32.1,119.7L26.2,123.0L19.3,121.6L12.6,119.7L6.2,117.5L0.0,114.9L-5.9,112.1L-11.4,108.9L-16.7,105.5L-21.6,101.8L-26.2,97.9L-30.5,93.9L-34.4,89.6L-38.3,86.0L-44.0,86.3L-49.8,86.3L-55.7,85.8L-61.7,85.0L-67.8,83.7L-73.9,82.1L-80.0,80.0L-86.1,77.5L-92.1,74.6L-98.1,71.3L-104.0,67.5L-108.9,62.9L-109.7,55.9L-110.0,49.0L-109.8,42.2L-109.3,35.5L-108.4,29.0L-107.1,22.8L-105.5,16.7L-103.5,10.9L-101.3,5.3L-98.7,0.0L-95.9,-5.0L-93.7,-9.8L-95.7,-15.2L-97.4,-20.7L-98.8,-26.5L-99.9,-32.5L-100.6,-38.6L-100.9,-44.9L-100.8,-51.4L-100.3,-57.9L-99.4,-64.6L-98.1,-71.3L-96.3,-78.0L-93.5,-84.2L-87.0,-87.0L-80.5,-89.4L-74.0,-91.4L-67.6,-93.0L-61.1,-94.1L-54.8,-94.9L-48.5,-95.2L-42.3,-95.1L-36.3,-94.7L-30.5,-93.9L-24.8,-92.7L-19.6,-92.1L-15.2,-95.7L-10.4,-99.1L-5.4,-102.2L-0.0,-105.0L5.6,-107.6L11.5,-109.8L17.7,-111.7L24.1,-113.3L30.7,-114.5L37.5,-115.3L44.4,-115.7L51.2,-114.9L55.9,-109.7L60.2,-104.2L64.1,-98.7L67.6,-93.0L70.6,-87.2L73.3,-81.4L75.5,-75.5L77.4,-69.7L78.8,-63.8L79.8,-58.0L80.5,-52.3L81.6,-47.1L86.3,-44.0L91.0,-40.5L95.5,-36.7L99.9,-32.5L104.1,-27.9L108.0,-23.0L111.7,-17.7L115.2,-12.1L118.4,-6.2L121.3,-0.0Z" fill="none" stroke="#f3f9e3" stroke-width="1.5" stroke-linecap="round" opacity="0.28" filter="url(#tg)"/><path d="M121.3,0.0L123.8,6.5L125.1,13.1L121.6,19.3L117.7,25.0L113.6,30.5L109.3,35.5L104.8,40.2L100.1,44.5L95.2,48.5L90.2,52.1L85.0,55.2L79.8,58.0L74.6,60.4L70.0,63.0L68.5,68.5L66.6,74.0L64.4,79.5L61.7,85.0L58.7,90.3L55.2,95.6L51.4,100.8L47.1,105.8L42.5,110.7L37.5,115.3L32.1,119.7L26.2,123.0L19.3,121.6L12.6,119.7L6.2,117.5L0.0,114.9L-5.9,112.1L-11.4,108.9L-16.7,105.5L-21.6,101.8L-26.2,97.9L-30.5,93.9L-34.4,89.6L-38.3,86.0L-44.0,86.3L-49.8,86.3L-55.7,85.8L-61.7,85.0L-67.8,83.7L-73.9,82.1L-80.0,80.0L-86.1,77.5L-92.1,74.6L-98.1,71.3L-104.0,67.5L-108.9,62.9L-109.7,55.9L-110.0,49.0L-109.8,42.2L-109.3,35.5L-108.4,29.0L-107.1,22.8L-105.5,16.7L-103.5,10.9L-101.3,5.3L-98.7,0.0L-95.9,-5.0L-93.7,-9.8L-95.7,-15.2L-97.4,-20.7L-98.8,-26.5L-99.9,-32.5L-100.6,-38.6L-100.9,-44.9L-100.8,-51.4L-100.3,-57.9L-99.4,-64.6L-98.1,-71.3L-96.3,-78.0L-93.5,-84.2L-87.0,-87.0L-80.5,-89.4L-74.0,-91.4L-67.6,-93.0L-61.1,-94.1L-54.8,-94.9L-48.5,-95.2L-42.3,-95.1L-36.3,-94.7L-30.5,-93.9L-24.8,-92.7L-19.6,-92.1L-15.2,-95.7L-10.4,-99.1L-5.4,-102.2L-0.0,-105.0L5.6,-107.6L11.5,-109.8L17.7,-111.7L24.1,-113.3L30.7,-114.5L37.5,-115.3L44.4,-115.7L51.2,-114.9L55.9,-109.7L60.2,-104.2L64.1,-98.7L67.6,-93.0L70.6,-87.2L73.3,-81.4L75.5,-75.5L77.4,-69.7L78.8,-63.8L79.8,-58.0L80.5,-52.3L81.6,-47.1L86.3,-44.0L91.0,-40.5L95.5,-36.7L99.9,-32.5L104.1,-27.9L108.0,-23.0L111.7,-17.7L115.2,-12.1L118.4,-6.2L121.3,-0.0Z" fill="none" stroke="#f3f9e3" stroke-width="0.5" stroke-linecap="round" opacity="0.95"/><path d="M112.5,0.0L115.1,6.0L117.3,12.3L119.2,18.9L118.9,25.3L114.8,30.8L110.5,35.9L105.9,40.7L101.2,45.0L96.2,49.0L91.2,52.7L86.0,55.9L80.8,58.7L75.5,61.2L70.2,63.2L64.9,64.9L60.8,67.5L58.9,72.7L56.6,77.9L53.9,83.0L50.8,88.1L47.4,93.0L43.6,97.9L39.4,102.5L34.8,107.0L29.8,111.3L24.5,115.4L18.9,119.2L12.7,120.9L6.2,118.7L0.0,116.1L-5.9,113.3L-11.6,110.1L-16.9,106.7L-21.9,103.0L-26.6,99.1L-30.9,95.0L-34.8,90.7L-38.4,86.3L-41.7,81.8L-45.4,78.7L-51.0,78.5L-56.6,77.9L-62.3,76.9L-68.0,75.6L-73.8,73.8L-79.6,71.7L-85.3,69.1L-91.0,66.1L-96.6,62.8L-102.1,59.0L-107.5,54.8L-111.0,49.4L-111.0,42.6L-110.5,35.9L-109.6,29.4L-108.3,23.0L-106.7,16.9L-104.7,11.0L-102.5,5.4L-99.9,0.0L-97.0,-5.1L-94.0,-9.9L-90.6,-14.4L-88.9,-18.9L-90.4,-24.2L-91.6,-29.8L-92.4,-35.5L-92.9,-41.4L-93.0,-47.4L-92.8,-53.6L-92.1,-59.8L-91.0,-66.1L-89.6,-72.5L-87.7,-78.9L-85.3,-85.3L-81.3,-90.3L-74.8,-92.4L-68.3,-94.0L-61.8,-95.1L-55.4,-95.9L-49.0,-96.2L-42.8,-96.2L-36.8,-95.8L-30.9,-95.0L-25.2,-93.9L-19.6,-92.4L-14.4,-90.6L-9.5,-90.4L-4.9,-93.4L-0.0,-96.3L5.2,-98.9L10.6,-101.1L16.3,-103.1L22.3,-104.8L28.4,-106.1L34.8,-107.0L41.3,-107.6L48.0,-107.7L54.8,-107.5L60.8,-105.3L64.7,-99.7L68.3,-94.0L71.4,-88.2L74.1,-82.3L76.4,-76.4L78.3,-70.5L79.7,-64.6L80.8,-58.7L81.5,-52.9L81.8,-47.2L81.8,-41.7L83.0,-37.0L87.4,-33.5L91.6,-29.8L95.6,-25.6L99.5,-21.1L103.1,-16.3L106.5,-11.2L109.7,-5.7L112.5,-0.0Z" fill="none" stroke="#f1fae2" stroke-width="1.5" stroke-linecap="round" opacity="0.28" filter="url(#tg)"/><path d="M112.5,0.0L115.1,6.0L117.3,12.3L119.2,18.9L118.9,25.3L114.8,30.8L110.5,35.9L105.9,40.7L101.2,45.0L96.2,49.0L91.2,52.7L86.0,55.9L80.8,58.7L75.5,61.2L70.2,63.2L64.9,64.9L60.8,67.5L58.9,72.7L56.6,77.9L53.9,83.0L50.8,88.1L47.4,93.0L43.6,97.9L39.4,102.5L34.8,107.0L29.8,111.3L24.5,115.4L18.9,119.2L12.7,120.9L6.2,118.7L0.0,116.1L-5.9,113.3L-11.6,110.1L-16.9,106.7L-21.9,103.0L-26.6,99.1L-30.9,95.0L-34.8,90.7L-38.4,86.3L-41.7,81.8L-45.4,78.7L-51.0,78.5L-56.6,77.9L-62.3,76.9L-68.0,75.6L-73.8,73.8L-79.6,71.7L-85.3,69.1L-91.0,66.1L-96.6,62.8L-102.1,59.0L-107.5,54.8L-111.0,49.4L-111.0,42.6L-110.5,35.9L-109.6,29.4L-108.3,23.0L-106.7,16.9L-104.7,11.0L-102.5,5.4L-99.9,0.0L-97.0,-5.1L-94.0,-9.9L-90.6,-14.4L-88.9,-18.9L-90.4,-24.2L-91.6,-29.8L-92.4,-35.5L-92.9,-41.4L-93.0,-47.4L-92.8,-53.6L-92.1,-59.8L-91.0,-66.1L-89.6,-72.5L-87.7,-78.9L-85.3,-85.3L-81.3,-90.3L-74.8,-92.4L-68.3,-94.0L-61.8,-95.1L-55.4,-95.9L-49.0,-96.2L-42.8,-96.2L-36.8,-95.8L-30.9,-95.0L-25.2,-93.9L-19.6,-92.4L-14.4,-90.6L-9.5,-90.4L-4.9,-93.4L-0.0,-96.3L5.2,-98.9L10.6,-101.1L16.3,-103.1L22.3,-104.8L28.4,-106.1L34.8,-107.0L41.3,-107.6L48.0,-107.7L54.8,-107.5L60.8,-105.3L64.7,-99.7L68.3,-94.0L71.4,-88.2L74.1,-82.3L76.4,-76.4L78.3,-70.5L79.7,-64.6L80.8,-58.7L81.5,-52.9L81.8,-47.2L81.8,-41.7L83.0,-37.0L87.4,-33.5L91.6,-29.8L95.6,-25.6L99.5,-21.1L103.1,-16.3L106.5,-11.2L109.7,-5.7L112.5,-0.0Z" fill="none" stroke="#f1fae2" stroke-width="0.5" stroke-linecap="round" opacity="0.95"/><path d="M103.8,0.0L106.4,5.6L108.6,11.4L110.5,17.5L112.1,23.8L113.3,30.4L111.6,36.3L107.0,41.1L102.2,45.5L97.3,49.6L92.2,53.3L87.0,56.5L81.8,59.4L76.5,61.9L71.1,64.0L65.7,65.7L60.4,67.1L55.1,68.0L51.5,70.8L49.2,75.7L46.5,80.5L43.4,85.2L40.0,89.9L36.2,94.4L32.1,98.7L27.6,102.9L22.7,106.8L17.5,110.5L12.0,114.0L6.1,117.2L0.0,117.3L-6.0,114.5L-11.7,111.3L-17.1,107.9L-22.1,104.2L-26.9,100.3L-31.2,96.1L-35.3,91.8L-38.9,87.4L-42.2,82.8L-45.1,78.2L-47.7,73.4L-51.5,70.8L-56.8,70.1L-62.2,69.1L-67.6,67.6L-73.1,65.8L-78.6,63.6L-84.0,61.0L-89.3,58.0L-94.6,54.6L-99.7,50.8L-104.7,46.6L-109.5,42.0L-111.6,36.3L-110.7,29.7L-109.5,23.3L-107.9,17.1L-105.9,11.1L-103.7,5.4L-101.1,0.0L-98.2,-5.1L-95.1,-10.0L-91.8,-14.5L-88.3,-18.8L-84.6,-22.7L-83.3,-27.1L-84.3,-32.3L-84.9,-37.8L-85.2,-43.4L-85.2,-49.2L-84.8,-55.1L-84.0,-61.0L-82.8,-67.0L-81.2,-73.1L-79.1,-79.1L-76.7,-85.2L-73.8,-91.2L-69.0,-94.9L-62.4,-96.1L-56.0,-96.9L-49.6,-97.3L-43.3,-97.3L-37.2,-96.9L-31.2,-96.1L-25.5,-95.0L-19.9,-93.6L-14.5,-91.8L-9.4,-89.8L-4.6,-87.4L-0.0,-87.5L4.7,-90.1L9.7,-92.5L15.0,-94.5L20.5,-96.2L26.2,-97.6L32.1,-98.7L38.2,-99.4L44.4,-99.8L50.8,-99.7L57.3,-99.3L63.9,-98.4L69.0,-94.9L72.1,-89.1L74.9,-83.2L77.2,-77.2L79.1,-71.3L80.7,-65.3L81.8,-59.4L82.5,-53.6L82.9,-47.8L82.8,-42.2L82.4,-36.7L81.7,-31.4L83.3,-27.1L87.2,-23.4L90.9,-19.3L94.5,-15.0L97.8,-10.3L100.9,-5.3L103.8,-0.0Z" fill="none" stroke="#eefae2" stroke-width="1.5" stroke-linecap="round" opacity="0.28" filter="url(#tg)"/><path d="M103.8,0.0L106.4,5.6L108.6,11.4L110.5,17.5L112.1,23.8L113.3,30.4L111.6,36.3L107.0,41.1L102.2,45.5L97.3,49.6L92.2,53.3L87.0,56.5L81.8,59.4L76.5,61.9L71.1,64.0L65.7,65.7L60.4,67.1L55.1,68.0L51.5,70.8L49.2,75.7L46.5,80.5L43.4,85.2L40.0,89.9L36.2,94.4L32.1,98.7L27.6,102.9L22.7,106.8L17.5,110.5L12.0,114.0L6.1,117.2L0.0,117.3L-6.0,114.5L-11.7,111.3L-17.1,107.9L-22.1,104.2L-26.9,100.3L-31.2,96.1L-35.3,91.8L-38.9,87.4L-42.2,82.8L-45.1,78.2L-47.7,73.4L-51.5,70.8L-56.8,70.1L-62.2,69.1L-67.6,67.6L-73.1,65.8L-78.6,63.6L-84.0,61.0L-89.3,58.0L-94.6,54.6L-99.7,50.8L-104.7,46.6L-109.5,42.0L-111.6,36.3L-110.7,29.7L-109.5,23.3L-107.9,17.1L-105.9,11.1L-103.7,5.4L-101.1,0.0L-98.2,-5.1L-95.1,-10.0L-91.8,-14.5L-88.3,-18.8L-84.6,-22.7L-83.3,-27.1L-84.3,-32.3L-84.9,-37.8L-85.2,-43.4L-85.2,-49.2L-84.8,-55.1L-84.0,-61.0L-82.8,-67.0L-81.2,-73.1L-79.1,-79.1L-76.7,-85.2L-73.8,-91.2L-69.0,-94.9L-62.4,-96.1L-56.0,-96.9L-49.6,-97.3L-43.3,-97.3L-37.2,-96.9L-31.2,-96.1L-25.5,-95.0L-19.9,-93.6L-14.5,-91.8L-9.4,-89.8L-4.6,-87.4L-0.0,-87.5L4.7,-90.1L9.7,-92.5L15.0,-94.5L20.5,-96.2L26.2,-97.6L32.1,-98.7L38.2,-99.4L44.4,-99.8L50.8,-99.7L57.3,-99.3L63.9,-98.4L69.0,-94.9L72.1,-89.1L74.9,-83.2L77.2,-77.2L79.1,-71.3L80.7,-65.3L81.8,-59.4L82.5,-53.6L82.9,-47.8L82.8,-42.2L82.4,-36.7L81.7,-31.4L83.3,-27.1L87.2,-23.4L90.9,-19.3L94.5,-15.0L97.8,-10.3L100.9,-5.3L103.8,-0.0Z" fill="none" stroke="#eefae2" stroke-width="0.5" stroke-linecap="round" opacity="0.95"/><path d="M95.1,0.0L97.6,5.1L99.9,10.5L101.9,16.1L103.6,22.0L104.9,28.1L105.9,34.4L106.4,40.9L103.3,46.0L98.4,50.1L93.3,53.8L88.1,57.2L82.7,60.1L77.4,62.7L72.0,64.8L66.6,66.6L61.2,68.0L55.8,69.0L50.6,69.6L45.4,69.9L42.1,72.9L39.5,77.5L36.5,81.9L33.1,86.2L29.4,90.4L25.3,94.4L20.9,98.3L16.1,101.9L11.1,105.3L5.7,108.5L0.0,111.3L-6.0,113.9L-11.8,112.5L-17.3,109.0L-22.4,105.3L-27.2,101.4L-31.6,97.3L-35.7,93.0L-39.4,88.5L-42.7,83.9L-45.7,79.2L-48.3,74.4L-50.6,69.6L-52.4,64.8L-56.4,62.6L-61.5,61.5L-66.6,60.0L-71.8,58.1L-76.9,55.9L-82.0,53.2L-87.0,50.2L-91.9,46.8L-96.7,43.1L-101.4,38.9L-105.9,34.4L-110.1,29.5L-110.6,23.5L-109.0,17.3L-107.1,11.3L-104.8,5.5L-102.3,0.0L-99.4,-5.2L-96.3,-10.1L-93.0,-14.7L-89.4,-19.0L-85.7,-23.0L-81.8,-26.6L-77.8,-29.9L-76.9,-34.3L-77.5,-39.5L-77.6,-44.8L-77.5,-50.3L-76.9,-55.9L-76.0,-61.5L-74.7,-67.2L-73.0,-73.0L-70.9,-78.7L-68.3,-84.4L-65.4,-90.1L-62.1,-95.6L-56.6,-98.0L-50.1,-98.4L-43.8,-98.4L-37.6,-98.0L-31.6,-97.3L-25.8,-96.2L-20.1,-94.7L-14.7,-93.0L-9.6,-90.9L-4.6,-88.6L-0.0,-86.0L4.4,-83.2L8.8,-83.8L13.6,-85.9L18.6,-87.7L23.9,-89.2L29.4,-90.4L35.0,-91.3L40.9,-91.8L46.8,-91.9L52.9,-91.7L59.1,-91.1L65.4,-90.1L71.8,-88.6L75.7,-84.1L78.1,-78.1L80.0,-72.1L81.6,-66.1L82.7,-60.1L83.5,-54.2L83.9,-48.4L83.9,-42.7L83.5,-37.2L82.8,-31.8L81.8,-26.6L80.5,-21.6L82.4,-17.5L85.9,-13.6L89.2,-9.4L92.2,-4.8L95.1,-0.0Z" fill="none" stroke="#ecfae1" stroke-width="1.5" stroke-linecap="round" opacity="0.28" filter="url(#tg)"/><path d="M95.1,0.0L97.6,5.1L99.9,10.5L101.9,16.1L103.6,22.0L104.9,28.1L105.9,34.4L106.4,40.9L103.3,46.0L98.4,50.1L93.3,53.8L88.1,57.2L82.7,60.1L77.4,62.7L72.0,64.8L66.6,66.6L61.2,68.0L55.8,69.0L50.6,69.6L45.4,69.9L42.1,72.9L39.5,77.5L36.5,81.9L33.1,86.2L29.4,90.4L25.3,94.4L20.9,98.3L16.1,101.9L11.1,105.3L5.7,108.5L0.0,111.3L-6.0,113.9L-11.8,112.5L-17.3,109.0L-22.4,105.3L-27.2,101.4L-31.6,97.3L-35.7,93.0L-39.4,88.5L-42.7,83.9L-45.7,79.2L-48.3,74.4L-50.6,69.6L-52.4,64.8L-56.4,62.6L-61.5,61.5L-66.6,60.0L-71.8,58.1L-76.9,55.9L-82.0,53.2L-87.0,50.2L-91.9,46.8L-96.7,43.1L-101.4,38.9L-105.9,34.4L-110.1,29.5L-110.6,23.5L-109.0,17.3L-107.1,11.3L-104.8,5.5L-102.3,0.0L-99.4,-5.2L-96.3,-10.1L-93.0,-14.7L-89.4,-19.0L-85.7,-23.0L-81.8,-26.6L-77.8,-29.9L-76.9,-34.3L-77.5,-39.5L-77.6,-44.8L-77.5,-50.3L-76.9,-55.9L-76.0,-61.5L-74.7,-67.2L-73.0,-73.0L-70.9,-78.7L-68.3,-84.4L-65.4,-90.1L-62.1,-95.6L-56.6,-98.0L-50.1,-98.4L-43.8,-98.4L-37.6,-98.0L-31.6,-97.3L-25.8,-96.2L-20.1,-94.7L-14.7,-93.0L-9.6,-90.9L-4.6,-88.6L-0.0,-86.0L4.4,-83.2L8.8,-83.8L13.6,-85.9L18.6,-87.7L23.9,-89.2L29.4,-90.4L35.0,-91.3L40.9,-91.8L46.8,-91.9L52.9,-91.7L59.1,-91.1L65.4,-90.1L71.8,-88.6L75.7,-84.1L78.1,-78.1L80.0,-72.1L81.6,-66.1L82.7,-60.1L83.5,-54.2L83.9,-48.4L83.9,-42.7L83.5,-37.2L82.8,-31.8L81.8,-26.6L80.5,-21.6L82.4,-17.5L85.9,-13.6L89.2,-9.4L92.2,-4.8L95.1,-0.0Z" fill="none" stroke="#ecfae1" stroke-width="0.5" stroke-linecap="round" opacity="0.95"/><path d="M86.3,0.0L88.9,4.7L91.2,9.6L93.3,14.8L95.0,20.2L96.5,25.8L97.6,31.7L98.3,37.7L98.7,43.9L98.6,50.3L94.3,54.4L89.1,57.8L83.7,60.8L78.3,63.4L72.9,65.6L67.4,67.4L62.0,68.8L56.6,69.9L51.3,70.6L46.0,70.9L40.9,70.8L35.9,70.5L32.9,73.9L30.0,78.1L26.7,82.1L23.0,86.0L19.1,89.7L14.8,93.3L10.2,96.6L5.2,99.7L0.0,102.6L-5.5,105.1L-11.3,107.4L-17.3,109.3L-22.6,106.5L-27.5,102.6L-32.0,98.4L-36.1,94.1L-39.9,89.6L-43.3,85.0L-46.3,80.2L-49.0,75.4L-51.3,70.6L-53.2,65.7L-54.7,60.8L-55.9,55.9L-60.1,54.1L-65.0,52.6L-69.8,50.7L-74.7,48.5L-79.4,45.9L-84.2,42.9L-88.8,39.5L-93.2,35.8L-97.6,31.7L-101.7,27.2L-105.6,22.5L-109.3,17.3L-108.3,11.4L-106.0,5.6L-103.5,0.0L-100.6,-5.3L-97.5,-10.3L-94.2,-14.9L-90.6,-19.3L-86.9,-23.3L-83.0,-27.0L-78.9,-30.3L-74.7,-33.3L-70.5,-35.9L-70.1,-40.5L-70.1,-45.5L-69.8,-50.7L-69.2,-56.0L-68.2,-61.4L-66.8,-66.8L-65.0,-72.2L-62.8,-77.6L-60.3,-83.0L-57.3,-88.3L-54.0,-93.5L-50.3,-98.6L-44.3,-99.5L-38.1,-99.1L-32.0,-98.4L-26.1,-97.3L-20.4,-95.9L-14.9,-94.2L-9.7,-92.1L-4.7,-89.8L-0.0,-87.2L4.4,-84.4L8.6,-81.4L12.4,-78.1L16.8,-79.1L21.6,-80.8L26.7,-82.1L31.9,-83.1L37.3,-83.8L42.9,-84.2L48.6,-84.1L54.4,-83.8L60.3,-83.0L66.3,-81.8L72.3,-80.3L78.3,-78.3L80.9,-72.9L82.5,-66.8L83.7,-60.8L84.5,-54.9L84.9,-49.0L85.0,-43.3L84.6,-37.7L84.0,-32.2L83.0,-27.0L81.6,-21.9L80.0,-17.0L78.1,-12.4L80.5,-8.5L83.5,-4.4L86.3,-0.0Z" fill="none" stroke="#eafae0" stroke-width="1.5" stroke-linecap="round" opacity="0.28" filter="url(#tg)"/><path d="M86.3,0.0L88.9,4.7L91.2,9.6L93.3,14.8L95.0,20.2L96.5,25.8L97.6,31.7L98.3,37.7L98.7,43.9L98.6,50.3L94.3,54.4L89.1,57.8L83.7,60.8L78.3,63.4L72.9,65.6L67.4,67.4L62.0,68.8L56.6,69.9L51.3,70.6L46.0,70.9L40.9,70.8L35.9,70.5L32.9,73.9L30.0,78.1L26.7,82.1L23.0,86.0L19.1,89.7L14.8,93.3L10.2,96.6L5.2,99.7L0.0,102.6L-5.5,105.1L-11.3,107.4L-17.3,109.3L-22.6,106.5L-27.5,102.6L-32.0,98.4L-36.1,94.1L-39.9,89.6L-43.3,85.0L-46.3,80.2L-49.0,75.4L-51.3,70.6L-53.2,65.7L-54.7,60.8L-55.9,55.9L-60.1,54.1L-65.0,52.6L-69.8,50.7L-74.7,48.5L-79.4,45.9L-84.2,42.9L-88.8,39.5L-93.2,35.8L-97.6,31.7L-101.7,27.2L-105.6,22.5L-109.3,17.3L-108.3,11.4L-106.0,5.6L-103.5,0.0L-100.6,-5.3L-97.5,-10.3L-94.2,-14.9L-90.6,-19.3L-86.9,-23.3L-83.0,-27.0L-78.9,-30.3L-74.7,-33.3L-70.5,-35.9L-70.1,-40.5L-70.1,-45.5L-69.8,-50.7L-69.2,-56.0L-68.2,-61.4L-66.8,-66.8L-65.0,-72.2L-62.8,-77.6L-60.3,-83.0L-57.3,-88.3L-54.0,-93.5L-50.3,-98.6L-44.3,-99.5L-38.1,-99.1L-32.0,-98.4L-26.1,-97.3L-20.4,-95.9L-14.9,-94.2L-9.7,-92.1L-4.7,-89.8L-0.0,-87.2L4.4,-84.4L8.6,-81.4L12.4,-78.1L16.8,-79.1L21.6,-80.8L26.7,-82.1L31.9,-83.1L37.3,-83.8L42.9,-84.2L48.6,-84.1L54.4,-83.8L60.3,-83.0L66.3,-81.8L72.3,-80.3L78.3,-78.3L80.9,-72.9L82.5,-66.8L83.7,-60.8L84.5,-54.9L84.9,-49.0L85.0,-43.3L84.6,-37.7L84.0,-32.2L83.0,-27.0L81.6,-21.9L80.0,-17.0L78.1,-12.4L80.5,-8.5L83.5,-4.4L86.3,-0.0Z" fill="none" stroke="#eafae0" stroke-width="0.5" stroke-linecap="round" opacity="0.95"/><path d="M77.6,0.0L80.2,4.2L82.6,8.7L84.7,13.4L86.5,18.4L88.0,23.6L89.2,29.0L90.1,34.6L90.7,40.4L90.8,46.3L90.6,52.3L90.1,58.5L84.7,61.5L79.2,64.2L73.8,66.4L68.3,68.3L62.8,69.7L57.3,70.8L52.0,71.5L46.7,71.9L41.5,71.9L36.5,71.5L31.6,70.9L26.8,69.9L24.0,73.8L20.8,77.6L17.3,81.2L13.4,84.7L9.2,87.9L4.8,91.0L0.0,93.8L-5.1,96.4L-10.4,98.7L-16.0,100.7L-21.8,102.4L-27.8,103.7L-32.3,99.5L-36.5,95.2L-40.4,90.7L-43.8,86.0L-46.9,81.3L-49.6,76.4L-52.0,71.5L-53.9,66.6L-55.5,61.7L-56.8,56.8L-57.7,51.9L-58.2,47.1L-62.8,45.6L-67.3,43.7L-71.9,41.5L-76.4,38.9L-80.8,36.0L-85.1,32.7L-89.2,29.0L-93.3,25.0L-97.1,20.6L-100.7,16.0L-104.1,10.9L-107.2,5.6L-104.7,0.0L-101.8,-5.3L-98.7,-10.4L-95.4,-15.1L-91.8,-19.5L-88.0,-23.6L-84.1,-27.3L-80.0,-30.7L-75.8,-33.8L-71.5,-36.5L-67.2,-38.8L-62.8,-40.8L-62.8,-45.6L-62.4,-50.5L-61.7,-55.5L-60.6,-60.6L-59.2,-65.7L-57.3,-70.8L-55.2,-75.9L-52.6,-81.0L-49.6,-86.0L-46.3,-90.8L-42.6,-95.6L-38.5,-100.2L-32.3,-99.5L-26.4,-98.5L-20.6,-97.1L-15.1,-95.4L-9.8,-93.3L-4.8,-91.0L-0.0,-88.4L4.5,-85.6L8.7,-82.6L12.6,-79.3L16.1,-75.9L19.4,-72.3L24.0,-73.8L28.8,-75.0L33.8,-75.8L38.9,-76.4L44.2,-76.6L49.6,-76.4L55.2,-75.9L60.8,-75.0L66.4,-73.8L72.1,-72.1L77.8,-70.0L83.4,-67.6L84.7,-61.5L85.5,-55.5L86.0,-49.6L86.0,-43.8L85.7,-38.2L85.1,-32.7L84.1,-27.3L82.8,-22.2L81.2,-17.3L79.3,-12.6L77.2,-8.1L74.8,-3.9L77.6,-0.0Z" fill="none" stroke="#e8fbdf" stroke-width="1.5" stroke-linecap="round" opacity="0.28" filter="url(#tg)"/><path d="M77.6,0.0L80.2,4.2L82.6,8.7L84.7,13.4L86.5,18.4L88.0,23.6L89.2,29.0L90.1,34.6L90.7,40.4L90.8,46.3L90.6,52.3L90.1,58.5L84.7,61.5L79.2,64.2L73.8,66.4L68.3,68.3L62.8,69.7L57.3,70.8L52.0,71.5L46.7,71.9L41.5,71.9L36.5,71.5L31.6,70.9L26.8,69.9L24.0,73.8L20.8,77.6L17.3,81.2L13.4,84.7L9.2,87.9L4.8,91.0L0.0,93.8L-5.1,96.4L-10.4,98.7L-16.0,100.7L-21.8,102.4L-27.8,103.7L-32.3,99.5L-36.5,95.2L-40.4,90.7L-43.8,86.0L-46.9,81.3L-49.6,76.4L-52.0,71.5L-53.9,66.6L-55.5,61.7L-56.8,56.8L-57.7,51.9L-58.2,47.1L-62.8,45.6L-67.3,43.7L-71.9,41.5L-76.4,38.9L-80.8,36.0L-85.1,32.7L-89.2,29.0L-93.3,25.0L-97.1,20.6L-100.7,16.0L-104.1,10.9L-107.2,5.6L-104.7,0.0L-101.8,-5.3L-98.7,-10.4L-95.4,-15.1L-91.8,-19.5L-88.0,-23.6L-84.1,-27.3L-80.0,-30.7L-75.8,-33.8L-71.5,-36.5L-67.2,-38.8L-62.8,-40.8L-62.8,-45.6L-62.4,-50.5L-61.7,-55.5L-60.6,-60.6L-59.2,-65.7L-57.3,-70.8L-55.2,-75.9L-52.6,-81.0L-49.6,-86.0L-46.3,-90.8L-42.6,-95.6L-38.5,-100.2L-32.3,-99.5L-26.4,-98.5L-20.6,-97.1L-15.1,-95.4L-9.8,-93.3L-4.8,-91.0L-0.0,-88.4L4.5,-85.6L8.7,-82.6L12.6,-79.3L16.1,-75.9L19.4,-72.3L24.0,-73.8L28.8,-75.0L33.8,-75.8L38.9,-76.4L44.2,-76.6L49.6,-76.4L55.2,-75.9L60.8,-75.0L66.4,-73.8L72.1,-72.1L77.8,-70.0L83.4,-67.6L84.7,-61.5L85.5,-55.5L86.0,-49.6L86.0,-43.8L85.7,-38.2L85.1,-32.7L84.1,-27.3L82.8,-22.2L81.2,-17.3L79.3,-12.6L77.2,-8.1L74.8,-3.9L77.6,-0.0Z" fill="none" stroke="#e8fbdf" stroke-width="0.5" stroke-linecap="round" opacity="0.95"/><path d="M73.4,0.0L71.5,3.7L73.9,7.8L76.0,12.0L77.9,16.6L79.6,21.3L80.9,26.3L82.0,31.5L82.7,36.8L83.1,42.3L83.1,48.0L82.7,53.7L82.0,59.6L80.2,64.9L74.6,67.2L69.1,69.1L63.6,70.6L58.1,71.8L52.7,72.5L47.3,72.9L42.1,72.9L37.0,72.6L32.0,72.0L27.3,71.0L22.7,69.8L18.5,69.1L15.4,72.6L12.0,76.0L8.3,79.2L4.3,82.3L0.0,85.1L-4.6,87.7L-9.5,90.0L-14.6,92.1L-19.9,93.8L-25.5,95.3L-31.3,96.4L-37.0,96.3L-40.9,91.8L-44.4,87.1L-47.5,82.3L-50.3,77.4L-52.7,72.5L-54.7,67.5L-56.3,62.6L-57.6,57.6L-58.5,52.7L-59.1,47.9L-59.4,43.1L-60.0,39.0L-64.3,37.1L-68.6,34.9L-72.8,32.4L-76.9,29.5L-80.9,26.3L-84.8,22.7L-88.5,18.8L-92.1,14.6L-95.4,10.0L-98.5,5.2L-101.4,0.0L-103.0,-5.4L-99.9,-10.5L-96.5,-15.3L-93.0,-19.8L-89.2,-23.9L-85.2,-27.7L-81.1,-31.1L-76.9,-34.2L-72.6,-37.0L-68.2,-39.4L-63.8,-41.4L-59.4,-43.1L-55.6,-45.0L-55.2,-49.7L-54.4,-54.4L-53.3,-59.2L-51.9,-64.0L-50.0,-68.8L-47.8,-73.6L-45.3,-78.4L-42.3,-83.1L-39.0,-87.6L-35.4,-92.1L-31.3,-96.4L-26.7,-99.6L-20.9,-98.3L-15.3,-96.5L-9.9,-94.5L-4.8,-92.2L-0.0,-89.6L4.5,-86.8L8.8,-83.7L12.7,-80.5L16.4,-77.1L19.7,-73.5L22.7,-69.8L25.6,-66.8L30.2,-67.8L34.9,-68.6L39.8,-69.0L44.9,-69.1L50.0,-68.8L55.3,-68.2L60.6,-67.3L65.9,-65.9L71.3,-64.2L76.7,-62.1L82.0,-59.6L86.5,-56.2L87.0,-50.2L87.1,-44.4L86.8,-38.7L86.2,-33.1L85.2,-27.7L83.9,-22.5L82.4,-17.5L80.5,-12.7L78.4,-8.2L76.0,-4.0L73.4,-0.0Z" fill="none" stroke="#e5fbde" stroke-width="1.5" stroke-linecap="round" opacity="0.28" filter="url(#tg)"/><path d="M73.4,0.0L71.5,3.7L73.9,7.8L76.0,12.0L77.9,16.6L79.6,21.3L80.9,26.3L82.0,31.5L82.7,36.8L83.1,42.3L83.1,48.0L82.7,53.7L82.0,59.6L80.2,64.9L74.6,67.2L69.1,69.1L63.6,70.6L58.1,71.8L52.7,72.5L47.3,72.9L42.1,72.9L37.0,72.6L32.0,72.0L27.3,71.0L22.7,69.8L18.5,69.1L15.4,72.6L12.0,76.0L8.3,79.2L4.3,82.3L0.0,85.1L-4.6,87.7L-9.5,90.0L-14.6,92.1L-19.9,93.8L-25.5,95.3L-31.3,96.4L-37.0,96.3L-40.9,91.8L-44.4,87.1L-47.5,82.3L-50.3,77.4L-52.7,72.5L-54.7,67.5L-56.3,62.6L-57.6,57.6L-58.5,52.7L-59.1,47.9L-59.4,43.1L-60.0,39.0L-64.3,37.1L-68.6,34.9L-72.8,32.4L-76.9,29.5L-80.9,26.3L-84.8,22.7L-88.5,18.8L-92.1,14.6L-95.4,10.0L-98.5,5.2L-101.4,0.0L-103.0,-5.4L-99.9,-10.5L-96.5,-15.3L-93.0,-19.8L-89.2,-23.9L-85.2,-27.7L-81.1,-31.1L-76.9,-34.2L-72.6,-37.0L-68.2,-39.4L-63.8,-41.4L-59.4,-43.1L-55.6,-45.0L-55.2,-49.7L-54.4,-54.4L-53.3,-59.2L-51.9,-64.0L-50.0,-68.8L-47.8,-73.6L-45.3,-78.4L-42.3,-83.1L-39.0,-87.6L-35.4,-92.1L-31.3,-96.4L-26.7,-99.6L-20.9,-98.3L-15.3,-96.5L-9.9,-94.5L-4.8,-92.2L-0.0,-89.6L4.5,-86.8L8.8,-83.7L12.7,-80.5L16.4,-77.1L19.7,-73.5L22.7,-69.8L25.6,-66.8L30.2,-67.8L34.9,-68.6L39.8,-69.0L44.9,-69.1L50.0,-68.8L55.3,-68.2L60.6,-67.3L65.9,-65.9L71.3,-64.2L76.7,-62.1L82.0,-59.6L86.5,-56.2L87.0,-50.2L87.1,-44.4L86.8,-38.7L86.2,-33.1L85.2,-27.7L83.9,-22.5L82.4,-17.5L80.5,-12.7L78.4,-8.2L76.0,-4.0L73.4,-0.0Z" fill="none" stroke="#e5fbde" stroke-width="0.5" stroke-linecap="round" opacity="0.95"/><path d="M74.6,0.0L71.8,3.8L68.8,7.2L67.4,10.7L69.4,14.8L71.1,19.1L72.6,23.6L73.8,28.3L74.7,33.3L75.3,38.4L75.5,43.6L75.4,49.0L74.9,54.4L74.1,60.0L72.9,65.6L70.0,70.0L64.4,71.5L58.9,72.7L53.4,73.5L48.0,73.9L42.7,74.0L37.5,73.7L32.5,73.1L27.7,72.1L23.0,70.9L18.6,69.4L14.4,67.6L10.7,67.4L7.4,70.6L3.9,73.6L0.0,76.4L-4.1,79.0L-8.5,81.3L-13.2,83.5L-18.1,85.3L-23.3,86.8L-28.6,88.1L-34.2,89.0L-39.9,89.6L-44.9,88.2L-48.1,83.3L-50.9,78.4L-53.4,73.5L-55.4,68.5L-57.1,63.5L-58.5,58.5L-59.4,53.5L-60.1,48.6L-60.3,43.8L-60.3,39.1L-59.9,34.6L-60.8,31.0L-64.8,28.9L-68.8,26.4L-72.6,23.6L-76.4,20.5L-80.0,17.0L-83.5,13.2L-86.7,9.1L-89.8,4.7L-92.6,0.0L-95.2,-5.0L-97.5,-10.2L-97.7,-15.5L-94.1,-20.0L-90.3,-24.2L-86.4,-28.1L-82.3,-31.6L-78.0,-34.7L-73.7,-37.5L-69.3,-40.0L-64.8,-42.1L-60.3,-43.8L-55.8,-45.2L-51.4,-46.3L-48.3,-48.3L-47.5,-52.7L-46.4,-57.2L-44.9,-61.8L-43.1,-66.3L-40.9,-70.8L-38.4,-75.3L-35.5,-79.7L-32.2,-83.9L-28.6,-88.1L-24.7,-92.1L-20.4,-95.9L-15.5,-97.7L-10.1,-95.7L-4.9,-93.4L-0.0,-90.8L4.6,-88.0L8.9,-84.9L12.9,-81.7L16.6,-78.2L20.0,-74.6L23.0,-70.9L25.8,-67.1L28.1,-63.2L31.0,-60.8L35.5,-61.4L40.1,-61.8L44.9,-61.8L49.8,-61.5L54.7,-60.8L59.7,-59.7L64.8,-58.3L69.9,-56.6L74.9,-54.4L79.9,-51.9L84.9,-49.0L88.2,-44.9L87.9,-39.1L87.3,-33.5L86.4,-28.1L85.1,-22.8L83.5,-17.8L81.7,-12.9L79.5,-8.4L77.2,-4.0L74.6,-0.0Z" fill="none" stroke="#e3fbdd" stroke-width="1.5" stroke-linecap="round" opacity="0.28" filter="url(#tg)"/><path d="M74.6,0.0L71.8,3.8L68.8,7.2L67.4,10.7L69.4,14.8L71.1,19.1L72.6,23.6L73.8,28.3L74.7,33.3L75.3,38.4L75.5,43.6L75.4,49.0L74.9,54.4L74.1,60.0L72.9,65.6L70.0,70.0L64.4,71.5L58.9,72.7L53.4,73.5L48.0,73.9L42.7,74.0L37.5,73.7L32.5,73.1L27.7,72.1L23.0,70.9L18.6,69.4L14.4,67.6L10.7,67.4L7.4,70.6L3.9,73.6L0.0,76.4L-4.1,79.0L-8.5,81.3L-13.2,83.5L-18.1,85.3L-23.3,86.8L-28.6,88.1L-34.2,89.0L-39.9,89.6L-44.9,88.2L-48.1,83.3L-50.9,78.4L-53.4,73.5L-55.4,68.5L-57.1,63.5L-58.5,58.5L-59.4,53.5L-60.1,48.6L-60.3,43.8L-60.3,39.1L-59.9,34.6L-60.8,31.0L-64.8,28.9L-68.8,26.4L-72.6,23.6L-76.4,20.5L-80.0,17.0L-83.5,13.2L-86.7,9.1L-89.8,4.7L-92.6,0.0L-95.2,-5.0L-97.5,-10.2L-97.7,-15.5L-94.1,-20.0L-90.3,-24.2L-86.4,-28.1L-82.3,-31.6L-78.0,-34.7L-73.7,-37.5L-69.3,-40.0L-64.8,-42.1L-60.3,-43.8L-55.8,-45.2L-51.4,-46.3L-48.3,-48.3L-47.5,-52.7L-46.4,-57.2L-44.9,-61.8L-43.1,-66.3L-40.9,-70.8L-38.4,-75.3L-35.5,-79.7L-32.2,-83.9L-28.6,-88.1L-24.7,-92.1L-20.4,-95.9L-15.5,-97.7L-10.1,-95.7L-4.9,-93.4L-0.0,-90.8L4.6,-88.0L8.9,-84.9L12.9,-81.7L16.6,-78.2L20.0,-74.6L23.0,-70.9L25.8,-67.1L28.1,-63.2L31.0,-60.8L35.5,-61.4L40.1,-61.8L44.9,-61.8L49.8,-61.5L54.7,-60.8L59.7,-59.7L64.8,-58.3L69.9,-56.6L74.9,-54.4L79.9,-51.9L84.9,-49.0L88.2,-44.9L87.9,-39.1L87.3,-33.5L86.4,-28.1L85.1,-22.8L83.5,-17.8L81.7,-12.9L79.5,-8.4L77.2,-4.0L74.6,-0.0Z" fill="none" stroke="#e3fbdd" stroke-width="0.5" stroke-linecap="round" opacity="0.95"/><path d="M75.8,0.0L72.9,3.8L70.0,7.4L66.8,10.6L63.5,13.5L62.7,16.8L64.3,20.9L65.7,25.2L66.7,29.7L67.5,34.4L68.0,39.2L68.1,44.2L67.9,49.3L67.3,54.5L66.4,59.8L65.1,65.1L63.4,70.4L59.6,73.6L54.1,74.4L48.6,74.9L43.3,75.0L38.1,74.7L33.0,74.2L28.1,73.3L23.4,72.0L18.9,70.6L14.6,68.8L10.6,66.8L6.8,64.6L3.4,64.8L0.0,67.6L-3.7,70.2L-7.6,72.6L-11.9,74.8L-16.3,76.8L-21.0,78.4L-25.9,79.8L-31.0,80.8L-36.3,81.6L-41.8,82.0L-47.4,82.0L-51.6,79.4L-54.1,74.4L-56.2,69.4L-57.9,64.3L-59.3,59.3L-60.3,54.3L-61.0,49.4L-61.3,44.5L-61.3,39.8L-60.9,35.2L-60.3,30.7L-59.3,26.4L-60.6,23.3L-64.3,20.9L-67.9,18.2L-71.5,15.2L-74.8,11.9L-78.0,8.2L-81.1,4.2L-83.9,0.0L-86.5,-4.5L-88.8,-9.3L-90.9,-14.4L-92.6,-19.7L-91.5,-24.5L-87.5,-28.4L-83.4,-32.0L-79.1,-35.2L-74.7,-38.1L-70.3,-40.6L-65.8,-42.7L-61.3,-44.5L-56.8,-46.0L-52.3,-47.1L-47.8,-47.8L-43.4,-48.2L-40.9,-50.5L-39.8,-54.7L-38.3,-59.0L-36.5,-63.3L-34.4,-67.5L-31.9,-71.7L-29.1,-75.8L-25.9,-79.8L-22.4,-83.6L-18.6,-87.3L-14.4,-90.9L-9.9,-94.2L-5.0,-94.6L-0.0,-92.0L4.7,-89.2L9.1,-86.1L13.1,-82.8L16.9,-79.4L20.3,-75.8L23.4,-72.0L26.2,-68.2L28.6,-64.3L30.7,-60.3L32.5,-56.2L35.4,-54.4L39.8,-54.7L44.3,-54.7L48.9,-54.3L53.6,-53.6L58.3,-52.5L63.1,-51.1L67.9,-49.3L72.6,-47.2L77.3,-44.6L82.0,-41.8L86.5,-38.5L88.4,-33.9L87.5,-28.4L86.3,-23.1L84.7,-18.0L82.8,-13.1L80.7,-8.5L78.4,-4.1L75.8,-0.0Z" fill="none" stroke="#e1fbdc" stroke-width="1.5" stroke-linecap="round" opacity="0.28" filter="url(#tg)"/><path d="M75.8,0.0L72.9,3.8L70.0,7.4L66.8,10.6L63.5,13.5L62.7,16.8L64.3,20.9L65.7,25.2L66.7,29.7L67.5,34.4L68.0,39.2L68.1,44.2L67.9,49.3L67.3,54.5L66.4,59.8L65.1,65.1L63.4,70.4L59.6,73.6L54.1,74.4L48.6,74.9L43.3,75.0L38.1,74.7L33.0,74.2L28.1,73.3L23.4,72.0L18.9,70.6L14.6,68.8L10.6,66.8L6.8,64.6L3.4,64.8L0.0,67.6L-3.7,70.2L-7.6,72.6L-11.9,74.8L-16.3,76.8L-21.0,78.4L-25.9,79.8L-31.0,80.8L-36.3,81.6L-41.8,82.0L-47.4,82.0L-51.6,79.4L-54.1,74.4L-56.2,69.4L-57.9,64.3L-59.3,59.3L-60.3,54.3L-61.0,49.4L-61.3,44.5L-61.3,39.8L-60.9,35.2L-60.3,30.7L-59.3,26.4L-60.6,23.3L-64.3,20.9L-67.9,18.2L-71.5,15.2L-74.8,11.9L-78.0,8.2L-81.1,4.2L-83.9,0.0L-86.5,-4.5L-88.8,-9.3L-90.9,-14.4L-92.6,-19.7L-91.5,-24.5L-87.5,-28.4L-83.4,-32.0L-79.1,-35.2L-74.7,-38.1L-70.3,-40.6L-65.8,-42.7L-61.3,-44.5L-56.8,-46.0L-52.3,-47.1L-47.8,-47.8L-43.4,-48.2L-40.9,-50.5L-39.8,-54.7L-38.3,-59.0L-36.5,-63.3L-34.4,-67.5L-31.9,-71.7L-29.1,-75.8L-25.9,-79.8L-22.4,-83.6L-18.6,-87.3L-14.4,-90.9L-9.9,-94.2L-5.0,-94.6L-0.0,-92.0L4.7,-89.2L9.1,-86.1L13.1,-82.8L16.9,-79.4L20.3,-75.8L23.4,-72.0L26.2,-68.2L28.6,-64.3L30.7,-60.3L32.5,-56.2L35.4,-54.4L39.8,-54.7L44.3,-54.7L48.9,-54.3L53.6,-53.6L58.3,-52.5L63.1,-51.1L67.9,-49.3L72.6,-47.2L77.3,-44.6L82.0,-41.8L86.5,-38.5L88.4,-33.9L87.5,-28.4L86.3,-23.1L84.7,-18.0L82.8,-13.1L80.7,-8.5L78.4,-4.1L75.8,-0.0Z" fill="none" stroke="#e1fbdc" stroke-width="0.5" stroke-linecap="round" opacity="0.95"/><path d="M77.0,0.0L74.1,3.9L71.1,7.5L68.0,10.8L64.7,13.7L61.3,16.4L57.7,18.8L57.5,22.1L58.8,26.2L59.7,30.4L60.4,34.9L60.8,39.5L60.8,44.2L60.5,49.0L59.9,53.9L58.9,58.9L57.5,63.9L55.8,68.9L53.7,73.9L49.3,75.9L43.9,76.0L38.6,75.8L33.5,75.2L28.5,74.4L23.8,73.2L19.2,71.7L14.9,70.0L10.8,68.0L6.9,65.8L3.3,63.3L0.0,60.7L-3.2,61.5L-6.7,64.0L-10.5,66.2L-14.5,68.2L-18.7,70.0L-23.2,71.5L-27.9,72.7L-32.8,73.6L-37.8,74.2L-43.0,74.5L-48.3,74.4L-53.7,73.9L-56.9,70.3L-58.7,65.2L-60.2,60.2L-61.2,55.1L-61.9,50.1L-62.3,45.2L-62.3,40.4L-62.0,35.8L-61.3,31.2L-60.4,26.9L-59.2,22.7L-57.7,18.8L-59.5,15.9L-62.9,13.4L-66.2,10.5L-69.3,7.3L-72.3,3.8L-75.1,0.0L-77.7,-4.1L-80.1,-8.4L-82.2,-13.0L-84.1,-17.9L-85.7,-23.0L-86.9,-28.2L-84.5,-32.4L-80.2,-35.7L-75.8,-38.6L-71.3,-41.2L-66.8,-43.4L-62.3,-45.2L-57.7,-46.7L-53.2,-47.9L-48.7,-48.7L-44.2,-49.1L-39.9,-49.3L-35.7,-49.1L-33.6,-51.7L-32.2,-55.7L-30.4,-59.7L-28.4,-63.7L-26.0,-67.6L-23.2,-71.5L-20.2,-75.2L-16.8,-78.8L-13.0,-82.2L-9.0,-85.5L-4.6,-88.6L-0.0,-91.4L4.7,-90.4L9.2,-87.3L13.3,-84.0L17.1,-80.6L20.6,-76.9L23.8,-73.2L26.6,-69.3L29.1,-65.4L31.2,-61.3L33.1,-57.3L34.5,-53.2L35.7,-49.1L38.8,-47.9L43.0,-47.8L47.4,-47.4L51.8,-46.7L56.3,-45.6L60.8,-44.2L65.3,-42.4L69.8,-40.3L74.2,-37.8L78.5,-35.0L82.8,-31.8L86.9,-28.2L87.4,-23.4L85.9,-18.3L84.0,-13.3L81.9,-8.6L79.6,-4.2L77.0,-0.0Z" fill="none" stroke="#defcdb" stroke-width="1.5" stroke-linecap="round" opacity="0.28" filter="url(#tg)"/><path d="M77.0,0.0L74.1,3.9L71.1,7.5L68.0,10.8L64.7,13.7L61.3,16.4L57.7,18.8L57.5,22.1L58.8,26.2L59.7,30.4L60.4,34.9L60.8,39.5L60.8,44.2L60.5,49.0L59.9,53.9L58.9,58.9L57.5,63.9L55.8,68.9L53.7,73.9L49.3,75.9L43.9,76.0L38.6,75.8L33.5,75.2L28.5,74.4L23.8,73.2L19.2,71.7L14.9,70.0L10.8,68.0L6.9,65.8L3.3,63.3L0.0,60.7L-3.2,61.5L-6.7,64.0L-10.5,66.2L-14.5,68.2L-18.7,70.0L-23.2,71.5L-27.9,72.7L-32.8,73.6L-37.8,74.2L-43.0,74.5L-48.3,74.4L-53.7,73.9L-56.9,70.3L-58.7,65.2L-60.2,60.2L-61.2,55.1L-61.9,50.1L-62.3,45.2L-62.3,40.4L-62.0,35.8L-61.3,31.2L-60.4,26.9L-59.2,22.7L-57.7,18.8L-59.5,15.9L-62.9,13.4L-66.2,10.5L-69.3,7.3L-72.3,3.8L-75.1,0.0L-77.7,-4.1L-80.1,-8.4L-82.2,-13.0L-84.1,-17.9L-85.7,-23.0L-86.9,-28.2L-84.5,-32.4L-80.2,-35.7L-75.8,-38.6L-71.3,-41.2L-66.8,-43.4L-62.3,-45.2L-57.7,-46.7L-53.2,-47.9L-48.7,-48.7L-44.2,-49.1L-39.9,-49.3L-35.7,-49.1L-33.6,-51.7L-32.2,-55.7L-30.4,-59.7L-28.4,-63.7L-26.0,-67.6L-23.2,-71.5L-20.2,-75.2L-16.8,-78.8L-13.0,-82.2L-9.0,-85.5L-4.6,-88.6L-0.0,-91.4L4.7,-90.4L9.2,-87.3L13.3,-84.0L17.1,-80.6L20.6,-76.9L23.8,-73.2L26.6,-69.3L29.1,-65.4L31.2,-61.3L33.1,-57.3L34.5,-53.2L35.7,-49.1L38.8,-47.9L43.0,-47.8L47.4,-47.4L51.8,-46.7L56.3,-45.6L60.8,-44.2L65.3,-42.4L69.8,-40.3L74.2,-37.8L78.5,-35.0L82.8,-31.8L86.9,-28.2L87.4,-23.4L85.9,-18.3L84.0,-13.3L81.9,-8.6L79.6,-4.2L77.0,-0.0Z" fill="none" stroke="#defcdb" stroke-width="0.5" stroke-linecap="round" opacity="0.95"/><path d="M78.1,0.0L75.3,3.9L72.3,7.6L69.2,11.0L65.8,14.0L62.4,16.7L58.9,19.1L55.3,21.2L51.6,23.0L51.9,26.5L52.8,30.5L53.4,34.7L53.7,39.0L53.7,43.5L53.4,48.1L52.7,52.7L51.7,57.4L50.3,62.1L48.6,66.9L46.5,71.6L44.0,76.3L39.2,76.9L34.0,76.3L29.0,75.5L24.1,74.3L19.5,72.9L15.1,71.1L11.0,69.2L7.0,66.9L3.4,64.5L0.0,61.9L-3.1,59.1L-5.9,56.2L-9.1,57.6L-12.7,59.7L-16.5,61.5L-20.5,63.2L-24.8,64.5L-29.2,65.6L-33.8,66.4L-38.6,66.9L-43.5,67.1L-48.6,66.9L-53.7,66.3L-58.9,65.5L-61.0,61.0L-62.1,55.9L-62.8,50.9L-63.2,45.9L-63.3,41.1L-63.0,36.4L-62.4,31.8L-61.5,27.4L-60.3,23.2L-58.9,19.1L-57.2,15.3L-55.2,11.7L-57.6,9.1L-60.7,6.4L-63.6,3.3L-66.4,0.0L-69.0,-3.6L-71.4,-7.5L-73.6,-11.7L-75.6,-16.1L-77.2,-20.7L-78.6,-25.5L-79.7,-30.6L-80.5,-35.8L-76.9,-39.2L-72.4,-41.8L-67.8,-44.0L-63.2,-45.9L-58.6,-47.5L-54.0,-48.7L-49.5,-49.5L-45.0,-50.0L-40.7,-50.2L-36.4,-50.1L-32.2,-49.6L-28.2,-48.9L-26.5,-51.9L-24.8,-55.7L-22.8,-59.5L-20.5,-63.2L-17.9,-66.8L-14.9,-70.3L-11.7,-73.6L-8.1,-76.8L-4.2,-79.8L-0.0,-82.7L4.5,-85.3L9.2,-87.6L13.5,-85.2L17.4,-81.7L20.9,-78.1L24.1,-74.3L27.0,-70.4L29.6,-66.4L31.8,-62.4L33.7,-58.3L35.2,-54.2L36.4,-50.1L37.2,-46.0L37.8,-42.0L41.2,-41.2L45.3,-40.8L49.5,-40.1L53.7,-39.0L58.0,-37.6L62.2,-35.9L66.4,-33.8L70.6,-31.4L74.6,-28.7L78.6,-25.5L82.5,-22.1L86.2,-18.3L85.2,-13.5L83.1,-8.7L80.7,-4.2L78.1,-0.0Z" fill="none" stroke="#dcfcdb" stroke-width="1.5" stroke-linecap="round" opacity="0.28" filter="url(#tg)"/><path d="M78.1,0.0L75.3,3.9L72.3,7.6L69.2,11.0L65.8,14.0L62.4,16.7L58.9,19.1L55.3,21.2L51.6,23.0L51.9,26.5L52.8,30.5L53.4,34.7L53.7,39.0L53.7,43.5L53.4,48.1L52.7,52.7L51.7,57.4L50.3,62.1L48.6,66.9L46.5,71.6L44.0,76.3L39.2,76.9L34.0,76.3L29.0,75.5L24.1,74.3L19.5,72.9L15.1,71.1L11.0,69.2L7.0,66.9L3.4,64.5L0.0,61.9L-3.1,59.1L-5.9,56.2L-9.1,57.6L-12.7,59.7L-16.5,61.5L-20.5,63.2L-24.8,64.5L-29.2,65.6L-33.8,66.4L-38.6,66.9L-43.5,67.1L-48.6,66.9L-53.7,66.3L-58.9,65.5L-61.0,61.0L-62.1,55.9L-62.8,50.9L-63.2,45.9L-63.3,41.1L-63.0,36.4L-62.4,31.8L-61.5,27.4L-60.3,23.2L-58.9,19.1L-57.2,15.3L-55.2,11.7L-57.6,9.1L-60.7,6.4L-63.6,3.3L-66.4,0.0L-69.0,-3.6L-71.4,-7.5L-73.6,-11.7L-75.6,-16.1L-77.2,-20.7L-78.6,-25.5L-79.7,-30.6L-80.5,-35.8L-76.9,-39.2L-72.4,-41.8L-67.8,-44.0L-63.2,-45.9L-58.6,-47.5L-54.0,-48.7L-49.5,-49.5L-45.0,-50.0L-40.7,-50.2L-36.4,-50.1L-32.2,-49.6L-28.2,-48.9L-26.5,-51.9L-24.8,-55.7L-22.8,-59.5L-20.5,-63.2L-17.9,-66.8L-14.9,-70.3L-11.7,-73.6L-8.1,-76.8L-4.2,-79.8L-0.0,-82.7L4.5,-85.3L9.2,-87.6L13.5,-85.2L17.4,-81.7L20.9,-78.1L24.1,-74.3L27.0,-70.4L29.6,-66.4L31.8,-62.4L33.7,-58.3L35.2,-54.2L36.4,-50.1L37.2,-46.0L37.8,-42.0L41.2,-41.2L45.3,-40.8L49.5,-40.1L53.7,-39.0L58.0,-37.6L62.2,-35.9L66.4,-33.8L70.6,-31.4L74.6,-28.7L78.6,-25.5L82.5,-22.1L86.2,-18.3L85.2,-13.5L83.1,-8.7L80.7,-4.2L78.1,-0.0Z" fill="none" stroke="#dcfcdb" stroke-width="0.5" stroke-linecap="round" opacity="0.95"/><path d="M79.3,0.0L76.5,4.0L73.5,7.7L70.3,11.1L67.0,14.2L63.6,17.0L60.0,19.5L56.4,21.6L52.7,23.5L49.0,25.0L45.3,26.1L46.1,29.9L46.7,33.9L46.9,38.0L46.9,42.2L46.5,46.5L45.8,50.9L44.8,55.3L43.5,59.8L41.7,64.3L39.7,68.7L37.3,73.1L34.5,77.4L29.4,76.6L24.5,75.5L19.8,74.0L15.4,72.3L11.1,70.3L7.2,68.1L3.4,65.7L0.0,63.1L-3.2,60.3L-6.0,57.4L-8.6,54.3L-10.9,51.1L-14.2,53.1L-17.8,54.9L-21.6,56.4L-25.7,57.6L-29.9,58.6L-34.3,59.3L-38.8,59.7L-43.5,59.8L-48.2,59.6L-53.1,59.0L-58.0,58.0L-63.0,56.7L-63.8,51.6L-64.2,46.6L-64.3,41.7L-64.0,37.0L-63.5,32.3L-62.6,27.9L-61.4,23.6L-60.0,19.5L-58.3,15.6L-56.4,12.0L-54.3,8.6L-52.0,5.5L-54.9,2.9L-57.7,0.0L-60.3,-3.2L-62.7,-6.6L-65.0,-10.3L-67.0,-14.2L-68.8,-18.4L-70.3,-22.8L-71.5,-27.5L-72.5,-32.3L-73.1,-37.3L-73.4,-42.4L-68.8,-44.7L-64.2,-46.6L-59.6,-48.2L-54.9,-49.5L-50.4,-50.4L-45.8,-50.9L-41.4,-51.1L-37.1,-51.0L-32.9,-50.6L-28.8,-49.9L-25.0,-49.0L-21.3,-47.7L-19.7,-51.3L-17.8,-54.9L-15.6,-58.3L-13.1,-61.7L-10.3,-65.0L-7.2,-68.1L-3.7,-71.1L-0.0,-73.9L4.0,-76.5L8.3,-78.9L12.8,-81.0L17.6,-82.9L21.2,-79.3L24.5,-75.5L27.5,-71.5L30.1,-67.5L32.3,-63.5L34.3,-59.3L35.8,-55.2L37.1,-51.0L38.0,-46.9L38.6,-42.9L38.9,-38.9L38.8,-35.0L42.7,-34.6L46.7,-33.9L50.6,-32.9L54.6,-31.5L58.6,-29.9L62.6,-27.9L66.5,-25.5L70.3,-22.8L74.0,-19.8L77.6,-16.5L81.0,-12.8L84.3,-8.9L81.9,-4.3L79.3,-0.0Z" fill="none" stroke="#dafcda" stroke-width="1.5" stroke-linecap="round" opacity="0.28" filter="url(#tg)"/><path d="M79.3,0.0L76.5,4.0L73.5,7.7L70.3,11.1L67.0,14.2L63.6,17.0L60.0,19.5L56.4,21.6L52.7,23.5L49.0,25.0L45.3,26.1L46.1,29.9L46.7,33.9L46.9,38.0L46.9,42.2L46.5,46.5L45.8,50.9L44.8,55.3L43.5,59.8L41.7,64.3L39.7,68.7L37.3,73.1L34.5,77.4L29.4,76.6L24.5,75.5L19.8,74.0L15.4,72.3L11.1,70.3L7.2,68.1L3.4,65.7L0.0,63.1L-3.2,60.3L-6.0,57.4L-8.6,54.3L-10.9,51.1L-14.2,53.1L-17.8,54.9L-21.6,56.4L-25.7,57.6L-29.9,58.6L-34.3,59.3L-38.8,59.7L-43.5,59.8L-48.2,59.6L-53.1,59.0L-58.0,58.0L-63.0,56.7L-63.8,51.6L-64.2,46.6L-64.3,41.7L-64.0,37.0L-63.5,32.3L-62.6,27.9L-61.4,23.6L-60.0,19.5L-58.3,15.6L-56.4,12.0L-54.3,8.6L-52.0,5.5L-54.9,2.9L-57.7,0.0L-60.3,-3.2L-62.7,-6.6L-65.0,-10.3L-67.0,-14.2L-68.8,-18.4L-70.3,-22.8L-71.5,-27.5L-72.5,-32.3L-73.1,-37.3L-73.4,-42.4L-68.8,-44.7L-64.2,-46.6L-59.6,-48.2L-54.9,-49.5L-50.4,-50.4L-45.8,-50.9L-41.4,-51.1L-37.1,-51.0L-32.9,-50.6L-28.8,-49.9L-25.0,-49.0L-21.3,-47.7L-19.7,-51.3L-17.8,-54.9L-15.6,-58.3L-13.1,-61.7L-10.3,-65.0L-7.2,-68.1L-3.7,-71.1L-0.0,-73.9L4.0,-76.5L8.3,-78.9L12.8,-81.0L17.6,-82.9L21.2,-79.3L24.5,-75.5L27.5,-71.5L30.1,-67.5L32.3,-63.5L34.3,-59.3L35.8,-55.2L37.1,-51.0L38.0,-46.9L38.6,-42.9L38.9,-38.9L38.8,-35.0L42.7,-34.6L46.7,-33.9L50.6,-32.9L54.6,-31.5L58.6,-29.9L62.6,-27.9L66.5,-25.5L70.3,-22.8L74.0,-19.8L77.6,-16.5L81.0,-12.8L84.3,-8.9L81.9,-4.3L79.3,-0.0Z" fill="none" stroke="#dafcda" stroke-width="0.5" stroke-linecap="round" opacity="0.95"/><path d="M80.5,0.0L77.7,4.1L74.7,7.9L71.5,11.3L68.2,14.5L64.7,17.3L61.1,19.9L57.5,22.1L53.8,23.9L50.0,25.5L46.3,26.7L42.6,27.6L39.6,28.8L40.1,32.5L40.4,36.4L40.4,40.4L40.0,44.4L39.3,48.6L38.3,52.7L37.0,56.9L35.3,61.1L33.3,65.3L30.9,69.5L28.2,73.5L24.9,76.6L20.1,75.2L15.6,73.5L11.3,71.5L7.3,69.3L3.5,66.9L0.0,64.3L-3.2,61.5L-6.2,58.5L-8.8,55.5L-11.1,52.3L-13.1,49.0L-15.1,46.5L-18.5,48.2L-22.1,49.7L-25.9,50.8L-29.9,51.8L-34.0,52.4L-38.3,52.7L-42.7,52.8L-47.2,52.5L-51.8,51.8L-56.5,50.9L-61.2,49.5L-65.2,47.3L-65.3,42.4L-65.1,37.6L-64.5,32.9L-63.7,28.4L-62.5,24.0L-61.1,19.9L-59.5,15.9L-57.6,12.2L-55.5,8.8L-53.2,5.6L-50.7,2.7L-48.9,0.0L-51.6,-2.7L-54.1,-5.7L-56.4,-8.9L-58.5,-12.4L-60.4,-16.2L-62.0,-20.1L-63.4,-24.3L-64.5,-28.7L-65.3,-33.3L-65.8,-38.0L-66.0,-42.9L-65.2,-47.3L-60.5,-49.0L-55.8,-50.3L-51.2,-51.2L-46.6,-51.8L-42.2,-52.1L-37.8,-52.0L-33.5,-51.6L-29.4,-51.0L-25.5,-50.0L-21.7,-48.8L-18.2,-47.4L-15.1,-46.5L-13.4,-49.9L-11.3,-53.2L-8.9,-56.4L-6.2,-59.4L-3.3,-62.4L-0.0,-65.2L3.6,-67.8L7.4,-70.2L11.5,-72.4L15.8,-74.4L20.4,-76.1L24.9,-76.6L27.9,-72.7L30.6,-68.6L32.9,-64.5L34.9,-60.4L36.5,-56.2L37.8,-52.0L38.8,-47.9L39.4,-43.8L39.7,-39.7L39.7,-35.8L39.4,-31.9L39.6,-28.8L43.3,-28.1L47.1,-27.2L50.8,-25.9L54.6,-24.3L58.3,-22.4L62.0,-20.1L65.6,-17.6L69.1,-14.7L72.4,-11.5L75.6,-7.9L78.6,-4.1L80.5,-0.0Z" fill="none" stroke="#d7fcd9" stroke-width="1.5" stroke-linecap="round" opacity="0.28" filter="url(#tg)"/><path d="M80.5,0.0L77.7,4.1L74.7,7.9L71.5,11.3L68.2,14.5L64.7,17.3L61.1,19.9L57.5,22.1L53.8,23.9L50.0,25.5L46.3,26.7L42.6,27.6L39.6,28.8L40.1,32.5L40.4,36.4L40.4,40.4L40.0,44.4L39.3,48.6L38.3,52.7L37.0,56.9L35.3,61.1L33.3,65.3L30.9,69.5L28.2,73.5L24.9,76.6L20.1,75.2L15.6,73.5L11.3,71.5L7.3,69.3L3.5,66.9L0.0,64.3L-3.2,61.5L-6.2,58.5L-8.8,55.5L-11.1,52.3L-13.1,49.0L-15.1,46.5L-18.5,48.2L-22.1,49.7L-25.9,50.8L-29.9,51.8L-34.0,52.4L-38.3,52.7L-42.7,52.8L-47.2,52.5L-51.8,51.8L-56.5,50.9L-61.2,49.5L-65.2,47.3L-65.3,42.4L-65.1,37.6L-64.5,32.9L-63.7,28.4L-62.5,24.0L-61.1,19.9L-59.5,15.9L-57.6,12.2L-55.5,8.8L-53.2,5.6L-50.7,2.7L-48.9,0.0L-51.6,-2.7L-54.1,-5.7L-56.4,-8.9L-58.5,-12.4L-60.4,-16.2L-62.0,-20.1L-63.4,-24.3L-64.5,-28.7L-65.3,-33.3L-65.8,-38.0L-66.0,-42.9L-65.2,-47.3L-60.5,-49.0L-55.8,-50.3L-51.2,-51.2L-46.6,-51.8L-42.2,-52.1L-37.8,-52.0L-33.5,-51.6L-29.4,-51.0L-25.5,-50.0L-21.7,-48.8L-18.2,-47.4L-15.1,-46.5L-13.4,-49.9L-11.3,-53.2L-8.9,-56.4L-6.2,-59.4L-3.3,-62.4L-0.0,-65.2L3.6,-67.8L7.4,-70.2L11.5,-72.4L15.8,-74.4L20.4,-76.1L24.9,-76.6L27.9,-72.7L30.6,-68.6L32.9,-64.5L34.9,-60.4L36.5,-56.2L37.8,-52.0L38.8,-47.9L39.4,-43.8L39.7,-39.7L39.7,-35.8L39.4,-31.9L39.6,-28.8L43.3,-28.1L47.1,-27.2L50.8,-25.9L54.6,-24.3L58.3,-22.4L62.0,-20.1L65.6,-17.6L69.1,-14.7L72.4,-11.5L75.6,-7.9L78.6,-4.1L80.5,-0.0Z" fill="none" stroke="#d7fcd9" stroke-width="0.5" stroke-linecap="round" opacity="0.95"/><path d="M72.7,0.0L75.3,3.9L75.9,8.0L72.7,11.5L69.4,14.7L65.9,17.6L62.3,20.2L58.6,22.5L54.9,24.4L51.1,26.0L47.3,27.3L43.6,28.3L39.8,28.9L36.2,29.3L33.9,30.5L34.2,34.2L34.2,37.9L33.8,41.8L33.2,45.7L32.2,49.6L30.9,53.6L29.3,57.5L27.4,61.5L25.1,65.3L22.5,69.1L19.5,72.8L15.9,74.6L11.5,72.7L7.4,70.5L3.6,68.1L0.0,65.5L-3.3,62.7L-6.3,59.7L-9.0,56.7L-11.4,53.5L-13.4,50.2L-15.2,46.8L-16.7,43.4L-18.6,41.7L-21.9,43.1L-25.5,44.2L-29.3,45.1L-33.2,45.7L-37.2,46.0L-41.4,46.0L-45.7,45.7L-50.0,45.0L-54.4,44.1L-58.8,42.7L-63.2,41.1L-66.1,38.2L-65.6,33.4L-64.8,28.8L-63.7,24.4L-62.3,20.2L-60.6,16.2L-58.8,12.5L-56.7,9.0L-54.4,5.7L-51.9,2.7L-49.2,0.0L-46.5,-2.4L-45.4,-4.8L-47.7,-7.6L-49.9,-10.6L-51.9,-13.9L-53.7,-17.4L-55.2,-21.2L-56.5,-25.2L-57.5,-29.3L-58.3,-33.6L-58.7,-38.1L-58.8,-42.7L-58.6,-47.5L-56.7,-51.1L-52.0,-52.0L-47.4,-52.7L-42.9,-53.0L-38.5,-53.0L-34.2,-52.6L-30.0,-52.0L-26.0,-51.1L-22.2,-49.9L-18.6,-48.5L-15.2,-46.8L-12.0,-44.9L-9.5,-44.6L-7.6,-47.7L-5.3,-50.8L-2.8,-53.7L-0.0,-56.5L3.1,-59.1L6.5,-61.5L10.1,-63.8L14.0,-65.8L18.1,-67.6L22.5,-69.1L27.0,-70.4L31.0,-69.7L33.4,-65.6L35.5,-61.4L37.1,-57.2L38.5,-53.0L39.5,-48.8L40.2,-44.6L40.6,-40.6L40.6,-36.6L40.4,-32.7L39.8,-28.9L39.0,-25.3L39.5,-22.8L43.1,-21.9L46.6,-20.8L50.2,-19.3L53.7,-17.4L57.1,-15.3L60.5,-12.9L63.8,-10.1L66.9,-7.0L69.9,-3.7L72.7,-0.0Z" fill="none" stroke="#d5fdd8" stroke-width="1.5" stroke-linecap="round" opacity="0.28" filter="url(#tg)"/><path d="M72.7,0.0L75.3,3.9L75.9,8.0L72.7,11.5L69.4,14.7L65.9,17.6L62.3,20.2L58.6,22.5L54.9,24.4L51.1,26.0L47.3,27.3L43.6,28.3L39.8,28.9L36.2,29.3L33.9,30.5L34.2,34.2L34.2,37.9L33.8,41.8L33.2,45.7L32.2,49.6L30.9,53.6L29.3,57.5L27.4,61.5L25.1,65.3L22.5,69.1L19.5,72.8L15.9,74.6L11.5,72.7L7.4,70.5L3.6,68.1L0.0,65.5L-3.3,62.7L-6.3,59.7L-9.0,56.7L-11.4,53.5L-13.4,50.2L-15.2,46.8L-16.7,43.4L-18.6,41.7L-21.9,43.1L-25.5,44.2L-29.3,45.1L-33.2,45.7L-37.2,46.0L-41.4,46.0L-45.7,45.7L-50.0,45.0L-54.4,44.1L-58.8,42.7L-63.2,41.1L-66.1,38.2L-65.6,33.4L-64.8,28.8L-63.7,24.4L-62.3,20.2L-60.6,16.2L-58.8,12.5L-56.7,9.0L-54.4,5.7L-51.9,2.7L-49.2,0.0L-46.5,-2.4L-45.4,-4.8L-47.7,-7.6L-49.9,-10.6L-51.9,-13.9L-53.7,-17.4L-55.2,-21.2L-56.5,-25.2L-57.5,-29.3L-58.3,-33.6L-58.7,-38.1L-58.8,-42.7L-58.6,-47.5L-56.7,-51.1L-52.0,-52.0L-47.4,-52.7L-42.9,-53.0L-38.5,-53.0L-34.2,-52.6L-30.0,-52.0L-26.0,-51.1L-22.2,-49.9L-18.6,-48.5L-15.2,-46.8L-12.0,-44.9L-9.5,-44.6L-7.6,-47.7L-5.3,-50.8L-2.8,-53.7L-0.0,-56.5L3.1,-59.1L6.5,-61.5L10.1,-63.8L14.0,-65.8L18.1,-67.6L22.5,-69.1L27.0,-70.4L31.0,-69.7L33.4,-65.6L35.5,-61.4L37.1,-57.2L38.5,-53.0L39.5,-48.8L40.2,-44.6L40.6,-40.6L40.6,-36.6L40.4,-32.7L39.8,-28.9L39.0,-25.3L39.5,-22.8L43.1,-21.9L46.6,-20.8L50.2,-19.3L53.7,-17.4L57.1,-15.3L60.5,-12.9L63.8,-10.1L66.9,-7.0L69.9,-3.7L72.7,-0.0Z" fill="none" stroke="#d5fdd8" stroke-width="0.5" stroke-linecap="round" opacity="0.95"/><path d="M64.0,0.0L66.6,3.5L69.0,7.3L71.2,11.3L70.5,15.0L67.0,18.0L63.4,20.6L59.7,22.9L56.0,24.9L52.2,26.6L48.4,27.9L44.6,28.9L40.8,29.6L37.1,30.0L33.5,30.1L29.9,29.9L28.3,31.4L28.3,35.0L28.0,38.6L27.5,42.3L26.6,46.0L25.4,49.8L23.8,53.5L22.0,57.2L19.8,60.8L17.3,64.4L14.4,67.9L11.3,71.2L7.5,71.7L3.6,69.3L0.0,66.7L-3.3,63.9L-6.4,60.9L-9.2,57.8L-11.6,54.6L-13.8,51.3L-15.6,48.0L-17.1,44.6L-18.3,41.1L-19.2,37.7L-21.2,36.6L-24.5,37.8L-28.0,38.6L-31.7,39.2L-35.6,39.5L-39.5,39.5L-43.5,39.2L-47.6,38.6L-51.8,37.6L-55.9,36.3L-60.1,34.7L-64.2,32.7L-65.9,29.3L-64.8,24.9L-63.4,20.6L-61.8,16.6L-59.9,12.7L-57.8,9.2L-55.5,5.8L-53.1,2.8L-50.4,0.0L-47.7,-2.5L-44.8,-4.7L-41.8,-6.6L-41.4,-8.8L-43.5,-11.7L-45.4,-14.7L-47.1,-18.1L-48.5,-21.6L-49.8,-25.4L-50.7,-29.3L-51.4,-33.4L-51.8,-37.6L-51.8,-42.0L-51.6,-46.4L-51.0,-51.0L-48.2,-53.6L-43.7,-53.9L-39.2,-53.9L-34.8,-53.7L-30.6,-53.1L-26.6,-52.2L-22.7,-51.0L-19.0,-49.6L-15.6,-48.0L-12.4,-46.1L-9.4,-44.0L-6.6,-41.8L-4.4,-42.1L-2.4,-45.0L-0.0,-47.7L2.6,-50.4L5.6,-52.8L8.7,-55.2L12.2,-57.3L15.9,-59.2L19.8,-60.8L23.9,-62.3L28.2,-63.4L32.7,-64.2L36.0,-62.4L37.8,-58.2L39.2,-53.9L40.3,-49.7L41.0,-45.5L41.4,-41.4L41.5,-37.4L41.3,-33.4L40.8,-29.6L40.0,-26.0L39.0,-22.5L37.7,-19.2L38.6,-17.2L42.0,-16.1L45.4,-14.7L48.7,-13.1L52.0,-11.0L55.2,-8.7L58.2,-6.1L61.2,-3.2L64.0,-0.0Z" fill="none" stroke="#d3fdd7" stroke-width="1.5" stroke-linecap="round" opacity="0.28" filter="url(#tg)"/><path d="M64.0,0.0L66.6,3.5L69.0,7.3L71.2,11.3L70.5,15.0L67.0,18.0L63.4,20.6L59.7,22.9L56.0,24.9L52.2,26.6L48.4,27.9L44.6,28.9L40.8,29.6L37.1,30.0L33.5,30.1L29.9,29.9L28.3,31.4L28.3,35.0L28.0,38.6L27.5,42.3L26.6,46.0L25.4,49.8L23.8,53.5L22.0,57.2L19.8,60.8L17.3,64.4L14.4,67.9L11.3,71.2L7.5,71.7L3.6,69.3L0.0,66.7L-3.3,63.9L-6.4,60.9L-9.2,57.8L-11.6,54.6L-13.8,51.3L-15.6,48.0L-17.1,44.6L-18.3,41.1L-19.2,37.7L-21.2,36.6L-24.5,37.8L-28.0,38.6L-31.7,39.2L-35.6,39.5L-39.5,39.5L-43.5,39.2L-47.6,38.6L-51.8,37.6L-55.9,36.3L-60.1,34.7L-64.2,32.7L-65.9,29.3L-64.8,24.9L-63.4,20.6L-61.8,16.6L-59.9,12.7L-57.8,9.2L-55.5,5.8L-53.1,2.8L-50.4,0.0L-47.7,-2.5L-44.8,-4.7L-41.8,-6.6L-41.4,-8.8L-43.5,-11.7L-45.4,-14.7L-47.1,-18.1L-48.5,-21.6L-49.8,-25.4L-50.7,-29.3L-51.4,-33.4L-51.8,-37.6L-51.8,-42.0L-51.6,-46.4L-51.0,-51.0L-48.2,-53.6L-43.7,-53.9L-39.2,-53.9L-34.8,-53.7L-30.6,-53.1L-26.6,-52.2L-22.7,-51.0L-19.0,-49.6L-15.6,-48.0L-12.4,-46.1L-9.4,-44.0L-6.6,-41.8L-4.4,-42.1L-2.4,-45.0L-0.0,-47.7L2.6,-50.4L5.6,-52.8L8.7,-55.2L12.2,-57.3L15.9,-59.2L19.8,-60.8L23.9,-62.3L28.2,-63.4L32.7,-64.2L36.0,-62.4L37.8,-58.2L39.2,-53.9L40.3,-49.7L41.0,-45.5L41.4,-41.4L41.5,-37.4L41.3,-33.4L40.8,-29.6L40.0,-26.0L39.0,-22.5L37.7,-19.2L38.6,-17.2L42.0,-16.1L45.4,-14.7L48.7,-13.1L52.0,-11.0L55.2,-8.7L58.2,-6.1L61.2,-3.2L64.0,-0.0Z" fill="none" stroke="#d3fdd7" stroke-width="0.5" stroke-linecap="round" opacity="0.95"/><path d="M55.2,0.0L57.9,3.0L60.3,6.3L62.6,9.9L64.6,13.7L66.4,17.8L64.6,21.0L60.8,23.4L57.1,25.4L53.2,27.1L49.4,28.5L45.6,29.6L41.8,30.3L38.0,30.8L34.3,30.9L30.8,30.8L27.3,30.3L24.0,29.6L22.9,31.5L22.7,35.0L22.2,38.5L21.4,42.0L20.3,45.5L18.8,49.0L17.1,52.5L15.0,56.0L12.6,59.3L9.9,62.6L6.9,65.7L3.6,68.7L0.0,67.9L-3.4,65.1L-6.5,62.1L-9.3,59.0L-11.9,55.8L-14.1,52.5L-16.0,49.1L-17.5,45.7L-18.8,42.2L-19.7,38.8L-20.4,35.3L-20.7,31.9L-22.9,31.5L-26.2,32.4L-29.7,33.0L-33.3,33.3L-37.0,33.3L-40.8,33.1L-44.7,32.5L-48.6,31.6L-52.5,30.3L-56.5,28.8L-60.4,26.9L-64.2,24.6L-64.6,21.0L-62.9,16.9L-61.1,13.0L-59.0,9.3L-56.7,6.0L-54.3,2.8L-51.6,0.0L-48.8,-2.6L-46.0,-4.8L-43.0,-6.8L-39.9,-8.5L-36.8,-9.9L-37.1,-12.0L-38.9,-14.9L-40.6,-18.1L-42.0,-21.4L-43.1,-24.9L-44.1,-28.6L-44.7,-32.5L-45.0,-36.5L-45.1,-40.6L-44.8,-44.8L-44.2,-49.1L-43.3,-53.4L-39.9,-54.9L-35.5,-54.7L-31.2,-54.1L-27.1,-53.2L-23.2,-52.1L-19.5,-50.7L-16.0,-49.1L-12.7,-47.2L-9.6,-45.2L-6.8,-43.0L-4.3,-40.6L-2.0,-38.0L-0.0,-39.0L2.2,-41.6L4.6,-44.2L7.4,-46.5L10.4,-48.7L13.6,-50.7L17.1,-52.5L20.8,-54.1L24.7,-55.4L28.8,-56.5L33.0,-57.2L37.5,-57.7L39.9,-54.9L41.0,-50.6L41.8,-46.4L42.2,-42.2L42.4,-38.2L42.2,-34.2L41.8,-30.3L41.0,-26.6L40.0,-23.1L38.8,-19.7L37.3,-16.6L35.6,-13.6L37.1,-12.0L40.3,-10.8L43.4,-9.2L46.5,-7.4L49.5,-5.2L52.5,-2.7L55.2,-0.0Z" fill="none" stroke="#d1fdd6" stroke-width="1.5" stroke-linecap="round" opacity="0.28" filter="url(#tg)"/><path d="M55.2,0.0L57.9,3.0L60.3,6.3L62.6,9.9L64.6,13.7L66.4,17.8L64.6,21.0L60.8,23.4L57.1,25.4L53.2,27.1L49.4,28.5L45.6,29.6L41.8,30.3L38.0,30.8L34.3,30.9L30.8,30.8L27.3,30.3L24.0,29.6L22.9,31.5L22.7,35.0L22.2,38.5L21.4,42.0L20.3,45.5L18.8,49.0L17.1,52.5L15.0,56.0L12.6,59.3L9.9,62.6L6.9,65.7L3.6,68.7L0.0,67.9L-3.4,65.1L-6.5,62.1L-9.3,59.0L-11.9,55.8L-14.1,52.5L-16.0,49.1L-17.5,45.7L-18.8,42.2L-19.7,38.8L-20.4,35.3L-20.7,31.9L-22.9,31.5L-26.2,32.4L-29.7,33.0L-33.3,33.3L-37.0,33.3L-40.8,33.1L-44.7,32.5L-48.6,31.6L-52.5,30.3L-56.5,28.8L-60.4,26.9L-64.2,24.6L-64.6,21.0L-62.9,16.9L-61.1,13.0L-59.0,9.3L-56.7,6.0L-54.3,2.8L-51.6,0.0L-48.8,-2.6L-46.0,-4.8L-43.0,-6.8L-39.9,-8.5L-36.8,-9.9L-37.1,-12.0L-38.9,-14.9L-40.6,-18.1L-42.0,-21.4L-43.1,-24.9L-44.1,-28.6L-44.7,-32.5L-45.0,-36.5L-45.1,-40.6L-44.8,-44.8L-44.2,-49.1L-43.3,-53.4L-39.9,-54.9L-35.5,-54.7L-31.2,-54.1L-27.1,-53.2L-23.2,-52.1L-19.5,-50.7L-16.0,-49.1L-12.7,-47.2L-9.6,-45.2L-6.8,-43.0L-4.3,-40.6L-2.0,-38.0L-0.0,-39.0L2.2,-41.6L4.6,-44.2L7.4,-46.5L10.4,-48.7L13.6,-50.7L17.1,-52.5L20.8,-54.1L24.7,-55.4L28.8,-56.5L33.0,-57.2L37.5,-57.7L39.9,-54.9L41.0,-50.6L41.8,-46.4L42.2,-42.2L42.4,-38.2L42.2,-34.2L41.8,-30.3L41.0,-26.6L40.0,-23.1L38.8,-19.7L37.3,-16.6L35.6,-13.6L37.1,-12.0L40.3,-10.8L43.4,-9.2L46.5,-7.4L49.5,-5.2L52.5,-2.7L55.2,-0.0Z" fill="none" stroke="#d1fdd6" stroke-width="0.5" stroke-linecap="round" opacity="0.95"/><path d="M46.5,0.0L49.1,2.6L51.6,5.4L54.0,8.5L56.1,11.9L58.0,15.5L59.7,19.4L61.1,23.5L58.1,25.9L54.3,27.7L50.4,29.1L46.6,30.2L42.7,31.0L38.9,31.5L35.2,31.7L31.6,31.6L28.1,31.2L24.7,30.5L21.5,29.6L18.4,28.4L17.8,30.9L17.4,34.2L16.7,37.5L15.7,40.9L14.4,44.2L12.7,47.5L10.8,50.8L8.5,54.0L6.0,57.0L3.1,60.0L0.0,62.8L-3.4,65.4L-6.7,63.3L-9.5,60.2L-12.1,57.0L-14.4,53.6L-16.3,50.2L-18.0,46.8L-19.3,43.3L-20.3,39.8L-21.0,36.4L-21.4,32.9L-21.5,29.6L-21.3,26.3L-23.9,26.5L-27.1,27.1L-30.5,27.5L-34.0,27.6L-37.6,27.3L-41.3,26.8L-45.0,26.0L-48.7,24.8L-52.4,23.3L-56.1,21.5L-59.7,19.4L-63.2,16.9L-62.3,13.2L-60.2,9.5L-57.9,6.1L-55.5,2.9L-52.8,0.0L-50.0,-2.6L-47.1,-5.0L-44.1,-7.0L-41.1,-8.7L-37.9,-10.2L-34.8,-11.3L-31.6,-12.1L-32.6,-14.5L-34.2,-17.4L-35.6,-20.5L-36.7,-23.9L-37.6,-27.3L-38.2,-31.0L-38.6,-34.7L-38.6,-38.6L-38.4,-42.6L-37.8,-46.7L-36.9,-50.8L-35.7,-54.9L-31.8,-55.1L-27.7,-54.3L-23.7,-53.2L-19.9,-51.8L-16.3,-50.2L-13.0,-48.4L-9.9,-46.4L-7.0,-44.1L-4.4,-41.8L-2.1,-39.2L-0.0,-36.6L1.8,-33.8L3.7,-35.5L6.0,-37.9L8.5,-40.2L11.3,-42.3L14.4,-44.2L17.6,-45.9L21.1,-47.4L24.8,-48.7L28.7,-49.7L32.7,-50.4L36.9,-50.8L41.2,-50.9L42.6,-47.3L43.1,-43.1L43.3,-39.0L43.2,-34.9L42.7,-31.0L42.0,-27.3L41.1,-23.7L39.8,-20.3L38.4,-17.1L36.7,-14.1L34.8,-11.3L32.7,-8.8L34.9,-7.4L37.9,-6.0L40.9,-4.3L43.7,-2.3L46.5,-0.0Z" fill="none" stroke="#cefdd5" stroke-width="1.5" stroke-linecap="round" opacity="0.28" filter="url(#tg)"/><path d="M46.5,0.0L49.1,2.6L51.6,5.4L54.0,8.5L56.1,11.9L58.0,15.5L59.7,19.4L61.1,23.5L58.1,25.9L54.3,27.7L50.4,29.1L46.6,30.2L42.7,31.0L38.9,31.5L35.2,31.7L31.6,31.6L28.1,31.2L24.7,30.5L21.5,29.6L18.4,28.4L17.8,30.9L17.4,34.2L16.7,37.5L15.7,40.9L14.4,44.2L12.7,47.5L10.8,50.8L8.5,54.0L6.0,57.0L3.1,60.0L0.0,62.8L-3.4,65.4L-6.7,63.3L-9.5,60.2L-12.1,57.0L-14.4,53.6L-16.3,50.2L-18.0,46.8L-19.3,43.3L-20.3,39.8L-21.0,36.4L-21.4,32.9L-21.5,29.6L-21.3,26.3L-23.9,26.5L-27.1,27.1L-30.5,27.5L-34.0,27.6L-37.6,27.3L-41.3,26.8L-45.0,26.0L-48.7,24.8L-52.4,23.3L-56.1,21.5L-59.7,19.4L-63.2,16.9L-62.3,13.2L-60.2,9.5L-57.9,6.1L-55.5,2.9L-52.8,0.0L-50.0,-2.6L-47.1,-5.0L-44.1,-7.0L-41.1,-8.7L-37.9,-10.2L-34.8,-11.3L-31.6,-12.1L-32.6,-14.5L-34.2,-17.4L-35.6,-20.5L-36.7,-23.9L-37.6,-27.3L-38.2,-31.0L-38.6,-34.7L-38.6,-38.6L-38.4,-42.6L-37.8,-46.7L-36.9,-50.8L-35.7,-54.9L-31.8,-55.1L-27.7,-54.3L-23.7,-53.2L-19.9,-51.8L-16.3,-50.2L-13.0,-48.4L-9.9,-46.4L-7.0,-44.1L-4.4,-41.8L-2.1,-39.2L-0.0,-36.6L1.8,-33.8L3.7,-35.5L6.0,-37.9L8.5,-40.2L11.3,-42.3L14.4,-44.2L17.6,-45.9L21.1,-47.4L24.8,-48.7L28.7,-49.7L32.7,-50.4L36.9,-50.8L41.2,-50.9L42.6,-47.3L43.1,-43.1L43.3,-39.0L43.2,-34.9L42.7,-31.0L42.0,-27.3L41.1,-23.7L39.8,-20.3L38.4,-17.1L36.7,-14.1L34.8,-11.3L32.7,-8.8L34.9,-7.4L37.9,-6.0L40.9,-4.3L43.7,-2.3L46.5,-0.0Z" fill="none" stroke="#cefdd5" stroke-width="0.5" stroke-linecap="round" opacity="0.95"/><path d="M37.8,0.0L40.4,2.1L42.9,4.5L45.3,7.2L47.5,10.1L49.6,13.3L51.4,16.7L53.0,20.3L54.3,24.2L55.4,28.2L51.5,29.7L47.6,30.9L43.7,31.7L39.9,32.3L36.1,32.5L32.4,32.4L28.9,32.1L25.5,31.5L22.2,30.6L19.1,29.4L16.2,28.0L13.5,26.4L13.2,29.6L12.6,32.7L11.7,35.9L10.5,39.1L9.0,42.2L7.2,45.3L5.1,48.3L2.7,51.2L0.0,54.0L-3.0,56.6L-6.2,59.1L-9.7,61.4L-12.4,58.1L-14.7,54.8L-16.7,51.4L-18.4,47.9L-19.8,44.4L-20.8,40.9L-21.6,37.4L-22.0,33.9L-22.2,30.6L-22.1,27.2L-21.6,24.0L-21.0,21.0L-24.0,21.6L-27.2,22.1L-30.6,22.2L-33.9,22.0L-37.4,21.6L-40.9,20.8L-44.4,19.8L-47.9,18.4L-51.4,16.7L-54.8,14.7L-58.1,12.4L-61.4,9.7L-59.1,6.2L-56.6,3.0L-54.0,0.0L-51.2,-2.7L-48.3,-5.1L-45.3,-7.2L-42.2,-9.0L-39.1,-10.5L-35.9,-11.7L-32.7,-12.6L-29.6,-13.2L-26.4,-13.5L-28.0,-16.2L-29.4,-19.1L-30.6,-22.2L-31.5,-25.5L-32.1,-28.9L-32.4,-32.4L-32.5,-36.1L-32.3,-39.9L-31.7,-43.7L-30.9,-47.6L-29.7,-51.5L-28.2,-55.4L-24.2,-54.3L-20.3,-53.0L-16.7,-51.4L-13.3,-49.6L-10.1,-47.5L-7.2,-45.3L-4.5,-42.9L-2.1,-40.4L-0.0,-37.8L1.8,-35.0L3.4,-32.2L4.6,-29.3L6.7,-31.6L9.1,-33.9L11.7,-35.9L14.5,-37.8L17.6,-39.4L20.8,-40.9L24.3,-42.1L27.9,-43.0L31.7,-43.7L35.7,-44.1L39.8,-44.2L43.9,-43.9L44.2,-39.8L44.1,-35.7L43.7,-31.7L43.0,-27.9L42.1,-24.3L40.9,-20.8L39.4,-17.6L37.8,-14.5L35.9,-11.7L33.9,-9.1L31.6,-6.7L29.3,-4.6L32.2,-3.4L35.0,-1.8L37.8,-0.0Z" fill="none" stroke="#ccfed4" stroke-width="1.5" stroke-linecap="round" opacity="0.28" filter="url(#tg)"/><path d="M37.8,0.0L40.4,2.1L42.9,4.5L45.3,7.2L47.5,10.1L49.6,13.3L51.4,16.7L53.0,20.3L54.3,24.2L55.4,28.2L51.5,29.7L47.6,30.9L43.7,31.7L39.9,32.3L36.1,32.5L32.4,32.4L28.9,32.1L25.5,31.5L22.2,30.6L19.1,29.4L16.2,28.0L13.5,26.4L13.2,29.6L12.6,32.7L11.7,35.9L10.5,39.1L9.0,42.2L7.2,45.3L5.1,48.3L2.7,51.2L0.0,54.0L-3.0,56.6L-6.2,59.1L-9.7,61.4L-12.4,58.1L-14.7,54.8L-16.7,51.4L-18.4,47.9L-19.8,44.4L-20.8,40.9L-21.6,37.4L-22.0,33.9L-22.2,30.6L-22.1,27.2L-21.6,24.0L-21.0,21.0L-24.0,21.6L-27.2,22.1L-30.6,22.2L-33.9,22.0L-37.4,21.6L-40.9,20.8L-44.4,19.8L-47.9,18.4L-51.4,16.7L-54.8,14.7L-58.1,12.4L-61.4,9.7L-59.1,6.2L-56.6,3.0L-54.0,0.0L-51.2,-2.7L-48.3,-5.1L-45.3,-7.2L-42.2,-9.0L-39.1,-10.5L-35.9,-11.7L-32.7,-12.6L-29.6,-13.2L-26.4,-13.5L-28.0,-16.2L-29.4,-19.1L-30.6,-22.2L-31.5,-25.5L-32.1,-28.9L-32.4,-32.4L-32.5,-36.1L-32.3,-39.9L-31.7,-43.7L-30.9,-47.6L-29.7,-51.5L-28.2,-55.4L-24.2,-54.3L-20.3,-53.0L-16.7,-51.4L-13.3,-49.6L-10.1,-47.5L-7.2,-45.3L-4.5,-42.9L-2.1,-40.4L-0.0,-37.8L1.8,-35.0L3.4,-32.2L4.6,-29.3L6.7,-31.6L9.1,-33.9L11.7,-35.9L14.5,-37.8L17.6,-39.4L20.8,-40.9L24.3,-42.1L27.9,-43.0L31.7,-43.7L35.7,-44.1L39.8,-44.2L43.9,-43.9L44.2,-39.8L44.1,-35.7L43.7,-31.7L43.0,-27.9L42.1,-24.3L40.9,-20.8L39.4,-17.6L37.8,-14.5L35.9,-11.7L33.9,-9.1L31.6,-6.7L29.3,-4.6L32.2,-3.4L35.0,-1.8L37.8,-0.0Z" fill="none" stroke="#ccfed4" stroke-width="0.5" stroke-linecap="round" opacity="0.95"/><path d="M29.0,0.0L31.7,1.7L34.3,3.6L36.7,5.8L39.0,8.3L41.1,11.0L43.1,14.0L44.8,17.2L46.3,20.6L47.6,24.2L48.6,28.1L48.6,31.5L44.7,32.5L40.8,33.0L37.0,33.3L33.3,33.3L29.7,33.0L26.2,32.4L22.9,31.5L19.7,30.4L16.8,29.0L14.0,27.5L11.4,25.7L9.4,24.6L9.0,27.6L8.2,30.7L7.2,33.7L5.8,36.7L4.2,39.6L2.2,42.5L0.0,45.3L-2.5,47.9L-5.3,50.4L-8.4,52.7L-11.7,54.9L-15.0,55.9L-17.1,52.5L-18.8,49.0L-20.3,45.5L-21.4,42.0L-22.2,38.4L-22.7,34.9L-22.9,31.5L-22.8,28.2L-22.4,24.9L-21.8,21.8L-20.9,18.8L-20.5,16.6L-23.5,17.1L-26.6,17.3L-29.8,17.2L-33.1,16.9L-36.4,16.2L-39.7,15.3L-43.1,14.0L-46.4,12.4L-49.6,10.5L-52.7,8.4L-55.8,5.9L-57.8,3.0L-55.2,0.0L-52.4,-2.7L-49.5,-5.2L-46.5,-7.4L-43.4,-9.2L-40.2,-10.8L-37.1,-12.0L-33.8,-13.0L-30.6,-13.6L-27.5,-14.0L-24.4,-14.1L-22.1,-14.3L-23.5,-17.1L-24.7,-20.0L-25.6,-23.0L-26.3,-26.3L-26.7,-29.6L-26.8,-33.1L-26.6,-36.6L-26.1,-40.2L-25.3,-43.9L-24.2,-47.6L-22.8,-51.3L-20.8,-54.1L-17.1,-52.5L-13.6,-50.7L-10.4,-48.7L-7.4,-46.5L-4.6,-44.1L-2.2,-41.6L-0.0,-39.0L1.9,-36.2L3.5,-33.4L4.8,-30.5L5.8,-27.5L6.8,-25.4L9.0,-27.6L11.4,-29.6L14.0,-31.5L16.9,-33.1L19.9,-34.5L23.2,-35.7L26.6,-36.6L30.2,-37.3L33.9,-37.7L37.8,-37.8L41.7,-37.5L45.0,-36.4L44.7,-32.5L44.0,-28.6L43.1,-24.9L42.0,-21.4L40.5,-18.0L38.9,-14.9L37.1,-12.0L35.0,-9.4L32.8,-7.0L30.5,-4.8L28.0,-2.9L26.3,-1.4L29.0,-0.0Z" fill="none" stroke="#cafed4" stroke-width="1.5" stroke-linecap="round" opacity="0.28" filter="url(#tg)"/><path d="M29.0,0.0L31.7,1.7L34.3,3.6L36.7,5.8L39.0,8.3L41.1,11.0L43.1,14.0L44.8,17.2L46.3,20.6L47.6,24.2L48.6,28.1L48.6,31.5L44.7,32.5L40.8,33.0L37.0,33.3L33.3,33.3L29.7,33.0L26.2,32.4L22.9,31.5L19.7,30.4L16.8,29.0L14.0,27.5L11.4,25.7L9.4,24.6L9.0,27.6L8.2,30.7L7.2,33.7L5.8,36.7L4.2,39.6L2.2,42.5L0.0,45.3L-2.5,47.9L-5.3,50.4L-8.4,52.7L-11.7,54.9L-15.0,55.9L-17.1,52.5L-18.8,49.0L-20.3,45.5L-21.4,42.0L-22.2,38.4L-22.7,34.9L-22.9,31.5L-22.8,28.2L-22.4,24.9L-21.8,21.8L-20.9,18.8L-20.5,16.6L-23.5,17.1L-26.6,17.3L-29.8,17.2L-33.1,16.9L-36.4,16.2L-39.7,15.3L-43.1,14.0L-46.4,12.4L-49.6,10.5L-52.7,8.4L-55.8,5.9L-57.8,3.0L-55.2,0.0L-52.4,-2.7L-49.5,-5.2L-46.5,-7.4L-43.4,-9.2L-40.2,-10.8L-37.1,-12.0L-33.8,-13.0L-30.6,-13.6L-27.5,-14.0L-24.4,-14.1L-22.1,-14.3L-23.5,-17.1L-24.7,-20.0L-25.6,-23.0L-26.3,-26.3L-26.7,-29.6L-26.8,-33.1L-26.6,-36.6L-26.1,-40.2L-25.3,-43.9L-24.2,-47.6L-22.8,-51.3L-20.8,-54.1L-17.1,-52.5L-13.6,-50.7L-10.4,-48.7L-7.4,-46.5L-4.6,-44.1L-2.2,-41.6L-0.0,-39.0L1.9,-36.2L3.5,-33.4L4.8,-30.5L5.8,-27.5L6.8,-25.4L9.0,-27.6L11.4,-29.6L14.0,-31.5L16.9,-33.1L19.9,-34.5L23.2,-35.7L26.6,-36.6L30.2,-37.3L33.9,-37.7L37.8,-37.8L41.7,-37.5L45.0,-36.4L44.7,-32.5L44.0,-28.6L43.1,-24.9L42.0,-21.4L40.5,-18.0L38.9,-14.9L37.1,-12.0L35.0,-9.4L32.8,-7.0L30.5,-4.8L28.0,-2.9L26.3,-1.4L29.0,-0.0Z" fill="none" stroke="#cafed4" stroke-width="0.5" stroke-linecap="round" opacity="0.95"/>
</svg>