<svg xmlns="http://www.w3.org/2000/svg" viewBox="-250 -250 500 500">
<rect x="-250" y="-250" width="500" height="500" fill="#fba234"/>
<path d="M103.0,0.0L101.8,5.3L98.3,10.3L93.1,14.7L86.7,18.4L80.0,21.4L73.8,24.0L68.7,26.4L65.2,29.0L63.4,32.3L63.3,36.6L64.5,41.9L66.4,48.2L68.3,55.3L69.5,62.6L69.5,69.5L68.0,75.5L64.8,80.0L60.1,82.7L54.2,83.4L47.5,82.3L40.6,79.7L34.0,76.4L28.1,73.1L22.9,70.4L18.5,69.1L14.8,69.5L11.4,71.8L8.0,75.9L4.3,81.2L0.0,87.0L-4.9,92.6L-10.2,97.2L-15.8,100.0L-21.4,100.7L-26.5,99.0L-30.9,95.1L-34.3,89.4L-36.7,82.5L-38.4,75.3L-39.5,68.4L-40.6,62.5L-42.2,58.1L-44.7,55.2L-48.4,53.8L-53.5,53.5L-59.8,53.9L-67.0,54.2L-74.4,54.0L-81.4,52.9L-87.3,50.4L-91.6,46.7L-93.8,41.8L-93.7,36.0L-91.7,29.8L-88.0,23.6L-83.5,17.7L-78.8,12.5L-74.7,7.9L-72.0,3.8L-71.0,0.0L-72.0,-3.8L-74.7,-7.9L-78.8,-12.5L-83.5,-17.7L-88.0,-23.6L-91.7,-29.8L-93.7,-36.0L-93.8,-41.8L-91.6,-46.7L-87.3,-50.4L-81.4,-52.9L-74.4,-54.0L-67.0,-54.2L-59.8,-53.9L-53.5,-53.5L-48.4,-53.8L-44.7,-55.2L-42.2,-58.1L-40.6,-62.5L-39.5,-68.4L-38.4,-75.3L-36.7,-82.5L-34.3,-89.4L-30.9,-95.1L-26.5,-99.0L-21.4,-100.7L-15.8,-100.0L-10.2,-97.2L-4.9,-92.6L-0.0,-87.0L4.3,-81.2L8.0,-75.9L11.4,-71.8L14.8,-69.5L18.5,-69.1L22.9,-70.4L28.1,-73.1L34.0,-76.4L40.6,-79.7L47.5,-82.3L54.2,-83.4L60.1,-82.7L64.8,-80.0L68.0,-75.5L69.5,-69.5L69.5,-62.6L68.3,-55.3L66.4,-48.2L64.5,-41.9L63.3,-36.6L63.4,-32.3L65.2,-29.0L68.7,-26.4L73.8,-24.0L80.0,-21.4L86.7,-18.4L93.1,-14.7L98.3,-10.3L101.8,-5.3L103.0,-0.0Z" fill="none" stroke="#dafbf1" stroke-width="3.3" stroke-linecap="round" opacity="0.95"/><path d="M100.7,0.0L95.5,5.0L89.4,9.4L83.2,13.2L77.6,16.5L73.2,19.6L70.6,22.9L69.9,26.8L70.7,31.5L72.8,37.1L75.5,43.6L78.0,50.6L79.6,57.9L79.9,64.7L78.4,70.6L75.1,75.1L70.1,77.8L63.8,78.7L56.7,78.0L49.4,76.1L42.5,73.6L36.3,71.2L31.0,69.6L26.6,69.4L23.1,71.0L19.9,74.3L16.8,79.3L13.5,85.3L9.6,91.6L5.1,97.6L0.0,102.3L-5.5,105.1L-11.1,105.6L-16.4,103.7L-21.2,99.7L-25.2,93.9L-28.3,87.1L-30.7,80.1L-32.8,73.6L-34.8,68.3L-37.2,64.5L-40.5,62.4L-45.0,61.9L-50.6,62.4L-57.2,63.6L-64.6,64.6L-72.1,64.9L-79.0,64.0L-84.9,61.7L-89.1,57.8L-91.2,52.7L-91.3,46.5L-89.5,39.8L-86.3,33.1L-82.4,26.8L-78.5,21.0L-75.4,16.0L-73.8,11.7L-73.9,7.8L-76.0,4.0L-79.7,0.0L-84.6,-4.4L-90.0,-9.5L-95.0,-15.0L-98.9,-21.0L-101.0,-27.1L-100.9,-32.8L-98.6,-37.8L-94.1,-41.9L-87.9,-44.8L-80.8,-46.6L-73.3,-47.6L-66.3,-48.2L-60.3,-48.8L-55.7,-50.1L-52.5,-52.5L-50.7,-56.3L-49.8,-61.5L-49.3,-67.9L-48.8,-75.2L-47.7,-82.6L-45.6,-89.5L-42.4,-95.2L-38.0,-99.0L-32.7,-100.6L-26.8,-99.9L-20.7,-97.2L-14.7,-92.9L-9.2,-87.8L-4.3,-82.6L-0.0,-78.1L3.9,-75.1L7.8,-73.8L11.8,-74.4L16.3,-76.8L21.5,-80.4L27.4,-84.5L33.9,-88.3L40.6,-91.2L47.1,-92.5L53.0,-91.7L57.7,-88.9L61.1,-84.1L63.0,-77.8L63.5,-70.5L63.0,-63.0L62.0,-55.8L61.2,-49.5L61.1,-44.4L62.2,-40.4L65.0,-37.5L69.4,-35.4L75.3,-33.5L82.1,-31.5L89.2,-29.0L95.8,-25.7L101.0,-21.5L104.4,-16.5L105.5,-11.1L104.2,-5.5L100.7,-0.0Z" fill="none" stroke="#fee8c8" stroke-width="3.3" stroke-linecap="round" opacity="0.95"/><path d="M91.2,0.0L85.5,4.5L80.7,8.5L77.3,12.2L75.7,16.1L76.0,20.4L77.9,25.3L80.9,31.0L84.3,37.5L87.4,44.5L89.4,51.6L89.8,58.3L88.3,64.2L84.8,68.7L79.5,71.6L72.9,72.9L65.4,72.7L57.9,71.5L50.8,69.9L44.5,68.5L39.3,68.0L35.1,69.0L31.9,71.6L29.1,75.9L26.5,81.7L23.7,88.3L20.2,95.1L16.0,101.3L11.1,106.1L5.7,108.8L0.0,109.2L-5.6,107.2L-10.8,103.1L-15.4,97.4L-19.3,90.8L-22.6,84.2L-25.4,78.3L-28.3,73.7L-31.5,70.7L-35.5,69.6L-40.4,70.0L-46.4,71.4L-53.3,73.3L-60.7,75.0L-68.2,75.7L-75.1,75.1L-80.8,72.8L-85.0,68.8L-87.2,63.4L-87.5,56.8L-86.1,49.7L-83.5,42.5L-80.3,35.8L-77.4,29.7L-75.4,24.5L-74.9,20.1L-76.2,16.2L-79.3,12.6L-84.0,8.8L-89.7,4.7L-95.6,0.0L-101.0,-5.3L-105.1,-11.0L-107.2,-17.0L-107.0,-22.7L-104.4,-28.0L-99.8,-32.4L-93.5,-35.9L-86.3,-38.4L-79.1,-40.3L-72.4,-41.8L-66.8,-43.4L-62.8,-45.6L-60.4,-48.9L-59.3,-53.4L-59.2,-59.2L-59.5,-66.1L-59.7,-73.7L-59.0,-81.2L-57.2,-88.1L-54.1,-93.7L-49.7,-97.5L-44.1,-99.1L-37.8,-98.5L-31.2,-96.0L-24.7,-92.1L-18.6,-87.6L-13.2,-83.2L-8.4,-79.7L-4.1,-77.7L-0.0,-77.6L4.2,-79.3L8.7,-82.7L13.8,-87.1L19.5,-91.9L25.8,-96.3L32.3,-99.4L38.7,-100.7L44.5,-99.9L49.3,-96.9L53.0,-91.8L55.4,-85.2L56.5,-77.8L56.9,-70.2L56.8,-63.1L57.0,-57.0L58.0,-52.2L60.2,-48.7L63.9,-46.4L69.2,-44.9L75.7,-43.7L83.0,-42.3L90.3,-40.2L97.0,-37.2L102.3,-33.2L105.6,-28.3L106.5,-22.6L105.2,-16.7L101.8,-10.7L96.9,-5.1L91.2,-0.0Z" fill="none" stroke="#dafbf1" stroke-width="3.3" stroke-linecap="round" opacity="0.95"/><path d="M83.2,0.0L80.8,4.2L80.4,8.4L81.7,12.9L84.6,18.0L88.5,23.7L92.7,30.1L96.3,37.0L98.6,43.9L99.1,50.5L97.5,56.3L93.8,60.9L88.2,64.1L81.3,65.8L73.6,66.3L66.0,66.0L58.8,65.3L52.6,65.0L47.7,65.6L43.9,67.7L41.2,71.3L39.0,76.5L37.0,83.0L34.6,90.2L31.6,97.3L27.8,103.6L23.0,108.4L17.6,111.1L11.7,111.4L5.7,109.4L0.0,105.3L-5.2,99.8L-9.8,93.6L-13.9,87.5L-17.5,82.3L-21.1,78.6L-24.9,76.7L-29.4,76.5L-34.7,77.9L-40.9,80.3L-47.9,82.9L-55.3,85.2L-62.7,86.3L-69.5,85.8L-75.2,83.5L-79.4,79.4L-81.8,73.6L-82.4,66.7L-81.5,59.2L-79.6,51.7L-77.4,44.7L-75.5,38.5L-74.6,33.2L-75.2,28.9L-77.7,25.2L-81.8,21.9L-87.4,18.6L-93.8,14.8L-100.2,10.5L-105.9,5.5L-110.0,0.0L-112.1,-5.9L-111.8,-11.7L-109.1,-17.3L-104.3,-22.2L-98.1,-26.3L-91.1,-29.6L-84.1,-32.3L-77.9,-34.7L-73.0,-37.2L-69.8,-40.3L-68.3,-44.3L-68.1,-49.5L-68.9,-55.8L-69.9,-63.0L-70.7,-70.7L-70.5,-78.3L-68.9,-85.1L-65.9,-90.7L-61.3,-94.4L-55.4,-96.0L-48.7,-95.6L-41.6,-93.5L-34.6,-90.2L-28.1,-86.4L-22.2,-83.0L-17.1,-80.5L-12.6,-79.7L-8.5,-80.7L-4.4,-83.5L-0.0,-87.9L4.9,-93.1L10.4,-98.6L16.4,-103.3L22.7,-106.7L28.9,-108.0L34.8,-107.1L39.9,-103.8L43.9,-98.6L46.8,-91.9L48.7,-84.4L49.9,-76.9L50.9,-70.0L52.1,-64.3L54.1,-60.0L57.2,-57.2L61.8,-55.7L67.8,-54.9L74.8,-54.3L82.4,-53.5L89.9,-51.9L96.7,-49.3L101.9,-45.4L105.1,-40.4L106.1,-34.5L104.8,-28.1L101.6,-21.6L97.1,-15.4L92.0,-9.7L87.1,-4.6L83.2,-0.0Z" fill="none" stroke="#fee8c8" stroke-width="3.3" stroke-linecap="round" opacity="0.95"/><path d="M84.4,0.0L86.9,4.6L90.8,9.5L95.6,15.1L100.3,21.3L104.4,28.0L106.9,34.7L107.5,41.2L105.8,47.1L101.8,51.9L96.1,55.5L88.9,57.8L81.2,59.0L73.5,59.5L66.5,59.9L60.7,60.7L56.2,62.4L53.0,65.4L50.9,70.0L49.4,76.0L48.0,83.1L46.2,90.7L43.6,98.0L40.1,104.4L35.5,109.2L30.0,111.9L23.8,112.1L17.4,110.1L11.2,106.2L5.3,101.1L0.0,95.4L-4.7,90.0L-9.0,85.8L-13.2,83.1L-17.5,82.2L-22.3,83.2L-27.8,85.5L-34.1,88.8L-41.0,92.2L-48.4,94.9L-55.7,96.4L-62.4,96.1L-68.1,93.7L-72.3,89.3L-75.0,83.3L-76.1,76.1L-75.8,68.3L-74.8,60.5L-73.5,53.4L-72.7,47.2L-73.0,42.1L-74.8,38.1L-78.3,34.8L-83.4,32.0L-89.7,29.1L-96.7,25.9L-103.5,22.0L-109.3,17.3L-113.6,11.9L-115.6,6.1L-115.2,0.0L-112.4,-5.9L-107.7,-11.3L-101.6,-16.1L-94.9,-20.2L-88.4,-23.7L-82.9,-26.9L-78.9,-30.3L-76.6,-34.1L-76.0,-38.7L-76.8,-44.3L-78.5,-51.0L-80.3,-58.3L-81.6,-66.1L-81.8,-73.7L-80.5,-80.5L-77.4,-85.9L-72.6,-89.7L-66.5,-91.5L-59.4,-91.4L-51.8,-89.8L-44.4,-87.2L-37.5,-84.3L-31.4,-81.9L-26.2,-80.6L-21.7,-80.9L-17.7,-83.1L-13.8,-87.0L-9.7,-92.3L-5.2,-98.3L-0.0,-104.2L5.7,-109.3L11.9,-112.7L18.1,-114.1L24.0,-113.0L29.4,-109.6L33.9,-104.3L37.4,-97.5L40.1,-90.2L42.2,-82.9L44.1,-76.5L46.3,-71.3L49.3,-67.8L53.3,-65.8L58.6,-65.1L65.1,-65.1L72.5,-65.3L80.4,-65.1L88.0,-63.9L94.7,-61.5L99.9,-57.7L103.1,-52.5L104.1,-46.3L103.0,-39.5L100.1,-32.5L96.1,-25.8L91.8,-19.5L87.8,-13.9L85.0,-8.9L83.7,-4.4L84.4,-0.0Z" fill="none" stroke="#dafbf1" stroke-width="3.3" stroke-linecap="round" opacity="0.95"/><path d="M96.2,0.0L101.7,5.3L107.1,11.3L111.5,17.7L114.2,24.3L114.7,30.7L112.9,36.7L108.8,41.8L102.9,45.8L95.7,48.8L88.0,50.8L80.5,52.3L73.9,53.7L68.5,55.5L64.7,58.2L62.2,62.2L60.8,67.6L60.1,74.2L59.4,81.8L58.2,89.6L56.1,97.1L52.8,103.6L48.2,108.3L42.6,111.0L36.2,111.3L29.3,109.4L22.5,105.8L16.0,101.2L10.1,96.2L4.8,91.8L0.0,88.5L-4.6,86.9L-9.2,87.2L-14.1,89.3L-19.7,92.7L-25.9,96.8L-32.8,100.9L-40.0,104.1L-47.1,105.8L-53.7,105.5L-59.5,103.0L-63.9,98.4L-67.0,92.2L-68.6,84.7L-69.1,76.8L-69.0,69.0L-68.7,61.9L-69.1,55.9L-70.5,51.2L-73.4,47.6L-77.9,44.9L-83.8,42.7L-90.8,40.4L-98.2,37.7L-105.3,34.2L-111.3,29.8L-115.5,24.6L-117.5,18.6L-117.1,12.3L-114.4,6.0L-109.8,0.0L-104.0,-5.4L-97.8,-10.3L-92.0,-14.6L-87.3,-18.6L-84.3,-22.6L-83.0,-27.0L-83.5,-32.0L-85.3,-38.0L-87.8,-44.8L-90.4,-52.2L-92.3,-59.9L-92.8,-67.4L-91.6,-74.2L-88.4,-79.6L-83.5,-83.5L-77.0,-85.5L-69.5,-85.9L-61.7,-84.9L-54.0,-83.1L-46.9,-81.3L-40.7,-80.0L-35.6,-79.9L-31.2,-81.4L-27.5,-84.6L-24.0,-89.6L-20.3,-95.7L-16.2,-102.3L-11.4,-108.7L-6.0,-114.0L-0.0,-117.5L6.2,-118.8L12.4,-117.7L18.1,-114.2L23.1,-108.8L27.4,-102.2L30.9,-95.1L33.9,-88.2L36.7,-82.4L39.8,-78.1L43.5,-75.4L48.3,-74.3L54.1,-74.5L61.0,-75.4L68.7,-76.3L76.7,-76.7L84.3,-75.9L91.0,-73.7L96.2,-69.9L99.4,-64.6L100.6,-58.1L99.7,-50.8L97.4,-43.4L94.1,-36.1L90.6,-29.4L87.7,-23.5L86.0,-18.3L85.9,-13.6L87.8,-9.2L91.4,-4.8L96.2,-0.0Z" fill="none" stroke="#fee8c8" stroke-width="3.3" stroke-linecap="round" opacity="0.95"/><path d="M112.7,0.0L117.4,6.2L120.2,12.6L120.7,19.1L118.8,25.2L114.6,30.7L108.6,35.3L101.5,39.0L94.0,41.8L86.9,44.3L80.8,46.6L76.1,49.4L73.0,53.1L71.5,57.9L71.0,63.9L71.0,71.0L71.1,78.9L70.4,87.0L68.7,94.6L65.6,101.0L61.1,105.8L55.2,108.4L48.5,108.8L41.2,107.3L33.8,104.2L26.8,100.2L20.4,96.1L14.7,92.6L9.5,90.5L4.7,90.1L0.0,91.6L-5.0,94.8L-10.4,99.1L-16.5,104.1L-23.1,108.7L-30.1,112.3L-37.1,114.2L-43.7,113.9L-49.6,111.3L-54.3,106.6L-57.8,100.1L-60.1,92.5L-61.4,84.6L-62.3,76.9L-63.1,70.1L-64.5,64.5L-67.0,60.4L-70.9,57.4L-76.3,55.4L-83.0,53.9L-90.5,52.3L-98.3,50.1L-105.6,47.0L-111.7,42.9L-115.9,37.7L-117.8,31.6L-117.4,25.0L-114.8,18.2L-110.5,11.6L-105.2,5.5L-99.7,0.0L-94.8,-5.0L-91.1,-9.6L-89.1,-14.1L-89.0,-18.9L-90.6,-24.3L-93.4,-30.3L-96.8,-37.2L-100.1,-44.5L-102.4,-52.2L-103.2,-59.6L-102.0,-66.3L-98.8,-71.8L-93.6,-75.8L-86.9,-78.2L-79.1,-79.1L-71.1,-78.9L-63.2,-78.1L-56.1,-77.3L-50.1,-77.1L-45.1,-78.2L-41.2,-80.9L-37.9,-85.2L-34.9,-91.0L-31.8,-97.8L-28.1,-105.0L-23.7,-111.7L-18.6,-117.2L-12.7,-120.8L-6.4,-122.0L-0.0,-120.8L6.2,-117.4L11.8,-112.1L16.7,-105.7L21.1,-99.0L24.9,-92.9L28.5,-87.8L32.4,-84.4L36.8,-82.7L42.1,-82.7L48.4,-83.8L55.6,-85.6L63.4,-87.3L71.4,-88.2L79.0,-87.8L85.7,-85.7L90.8,-81.8L94.1,-76.2L95.5,-69.4L95.2,-61.8L93.4,-53.9L90.9,-46.3L88.4,-39.4L86.6,-33.2L86.1,-28.0L87.3,-23.4L90.3,-19.2L94.9,-15.0L100.7,-10.6L106.9,-5.6L112.7,-0.0Z" fill="none" stroke="#dafbf1" stroke-width="3.3" stroke-linecap="round" opacity="0.95"/><path d="M124.7,0.0L125.2,6.6L123.2,13.0L119.0,18.9L113.1,24.0L106.2,28.5L99.1,32.2L92.5,35.5L87.2,38.8L83.4,42.5L81.2,46.9L80.6,52.4L81.1,58.9L82.0,66.4L82.7,74.5L82.7,82.7L81.3,90.3L78.3,96.7L73.7,101.4L67.7,104.2L60.6,104.9L52.9,103.7L45.1,101.2L37.6,98.0L30.8,94.9L24.8,92.6L19.5,91.6L14.6,92.5L10.0,95.2L5.2,99.4L0.0,104.7L-5.8,110.4L-12.1,115.5L-18.9,119.4L-25.8,121.4L-32.5,121.1L-38.5,118.4L-43.6,113.6L-47.7,107.0L-50.7,99.5L-52.9,91.6L-54.7,84.2L-56.6,77.9L-59.1,73.0L-62.6,69.5L-67.4,67.4L-73.5,66.2L-80.8,65.4L-88.7,64.5L-96.8,62.8L-104.2,60.2L-110.3,56.2L-114.5,51.0L-116.5,44.7L-116.2,37.8L-113.9,30.5L-110.0,23.4L-105.3,16.7L-100.6,10.6L-96.7,5.1L-94.1,0.0L-93.3,-4.9L-94.4,-9.9L-97.1,-15.4L-100.9,-21.4L-105.1,-28.2L-109.0,-35.4L-111.7,-42.9L-112.7,-50.2L-111.6,-56.9L-108.2,-62.5L-102.9,-66.8L-95.9,-69.7L-88.0,-71.3L-79.9,-71.9L-72.0,-72.0L-65.1,-72.3L-59.4,-73.3L-54.9,-75.6L-51.5,-79.3L-48.8,-84.6L-46.5,-91.2L-43.9,-98.7L-40.8,-106.3L-36.8,-113.2L-31.8,-118.8L-26.0,-122.4L-19.6,-123.6L-12.9,-122.4L-6.2,-119.1L-0.0,-114.1L5.7,-108.1L10.7,-102.1L15.3,-96.7L19.7,-92.6L24.2,-90.2L29.1,-89.7L34.8,-90.7L41.3,-92.9L48.7,-95.5L56.5,-97.9L64.5,-99.3L72.0,-99.1L78.6,-97.1L83.8,-93.1L87.3,-87.3L89.1,-80.2L89.3,-72.3L88.3,-64.1L86.7,-56.3L85.3,-49.2L84.7,-43.1L85.4,-38.0L87.8,-33.7L91.9,-29.9L97.5,-26.1L104.0,-22.1L110.8,-17.5L117.0,-12.3L121.8,-6.4L124.7,-0.0Z" fill="none" stroke="#fee8c8" stroke-width="3.3" stroke-linecap="round" opacity="0.95"/><path d="M126.2,0.0L122.1,6.4L116.4,12.2L109.8,17.4L103.3,22.0L97.5,26.1L93.0,30.2L90.2,34.6L89.1,39.7L89.6,45.6L91.0,52.5L92.8,60.3L94.2,68.5L94.6,76.6L93.5,84.2L90.6,90.6L85.9,95.5L79.7,98.4L72.2,99.4L64.2,98.8L56.0,97.0L48.3,94.8L41.3,92.7L35.2,91.6L29.9,91.9L25.2,94.0L20.8,97.8L16.3,103.1L11.5,109.2L6.1,115.5L0.0,121.1L-6.6,125.2L-13.4,127.3L-20.1,127.0L-26.4,124.2L-32.0,119.3L-36.6,112.8L-40.5,105.4L-43.6,97.9L-46.4,91.0L-49.2,85.3L-52.7,81.1L-57.1,78.5L-62.6,77.3L-69.4,77.0L-77.1,77.1L-85.3,76.8L-93.5,75.7L-101.0,73.4L-107.1,69.6L-111.4,64.3L-113.5,57.8L-113.4,50.5L-111.4,42.8L-108.2,35.1L-104.2,27.9L-100.5,21.4L-97.7,15.5L-96.3,10.1L-96.8,5.1L-99.0,0.0L-102.8,-5.4L-107.6,-11.3L-112.6,-17.8L-117.0,-24.9L-120.1,-32.2L-121.2,-39.4L-120.1,-46.1L-116.6,-51.9L-111.1,-56.6L-104.0,-60.1L-96.1,-62.4L-88.0,-63.9L-80.4,-65.1L-73.8,-66.5L-68.6,-68.6L-64.7,-71.9L-62.1,-76.6L-60.1,-82.8L-58.5,-90.1L-56.6,-98.0L-54.0,-105.9L-50.3,-113.0L-45.5,-118.7L-39.7,-122.3L-33.1,-123.5L-26.0,-122.5L-18.9,-119.4L-12.1,-114.7L-5.7,-109.4L-0.0,-104.1L5.2,-99.7L10.2,-96.7L15.1,-95.5L20.4,-96.1L26.3,-98.2L32.9,-101.4L40.3,-104.9L48.0,-107.9L55.9,-109.7L63.4,-109.7L70.0,-107.8L75.3,-103.7L79.1,-97.7L81.3,-90.3L82.2,-82.2L82.0,-73.9L81.5,-66.0L81.2,-59.0L81.7,-53.1L83.7,-48.3L87.2,-44.4L92.4,-41.1L98.8,-37.9L106.0,-34.5L113.3,-30.4L119.8,-25.5L124.8,-19.8L127.7,-13.4L128.1,-6.7L126.2,-0.0Z" fill="none" stroke="#dafbf1" stroke-width="3.3" stroke-linecap="round" opacity="0.95"/><path d="M118.3,0.0L112.3,5.9L106.5,11.2L101.6,16.1L98.2,20.9L96.5,25.9L96.6,31.4L98.1,37.7L100.6,44.8L103.2,52.6L105.3,60.8L106.1,68.9L105.2,76.4L102.4,82.9L97.5,87.8L91.0,91.0L83.3,92.5L75.0,92.6L66.6,91.7L58.7,90.4L51.7,89.5L45.7,89.6L40.6,91.2L36.3,94.5L32.3,99.4L28.3,105.6L23.9,112.5L18.9,119.3L13.2,125.2L6.8,129.5L0.0,131.6L-6.9,131.3L-13.5,128.5L-19.6,123.7L-24.9,117.3L-29.5,110.2L-33.5,103.2L-37.2,97.0L-41.0,92.1L-45.3,88.9L-50.4,87.3L-56.6,87.1L-63.8,87.8L-71.8,88.7L-80.3,89.1L-88.5,88.5L-96.0,86.5L-102.2,82.7L-106.5,77.4L-108.7,70.6L-109.0,62.9L-107.6,54.8L-105.0,46.8L-102.0,39.2L-99.4,32.3L-97.7,26.2L-97.6,20.8L-99.3,15.7L-102.8,10.8L-107.7,5.6L-113.3,0.0L-119.0,-6.2L-123.8,-13.0L-127.2,-20.1L-128.4,-27.3L-127.2,-34.1L-123.7,-40.2L-118.1,-45.3L-111.0,-49.4L-103.2,-52.6L-95.3,-55.0L-88.1,-57.2L-82.2,-59.7L-77.6,-62.9L-74.6,-67.1L-72.7,-72.7L-71.7,-79.6L-70.8,-87.4L-69.5,-95.7L-67.4,-103.8L-64.1,-111.1L-59.5,-116.7L-53.6,-120.4L-46.7,-121.8L-39.3,-120.9L-31.7,-118.1L-24.3,-114.1L-17.3,-109.5L-11.1,-105.2L-5.3,-101.8L-0.0,-100.0L5.2,-100.0L10.7,-101.8L16.6,-105.1L23.2,-109.2L30.4,-113.5L38.0,-117.0L45.8,-119.2L53.2,-119.4L59.8,-117.4L65.4,-113.2L69.5,-107.1L72.3,-99.6L73.9,-91.3L74.7,-83.0L75.2,-75.2L76.1,-68.5L77.8,-63.0L80.9,-58.8L85.5,-55.5L91.6,-52.9L98.8,-50.3L106.6,-47.4L114.2,-43.8L120.9,-39.3L126.0,-33.8L128.9,-27.4L129.4,-20.5L127.5,-13.4L123.6,-6.5L118.3,-0.0Z" fill="none" stroke="#fee8c8" stroke-width="3.3" stroke-linecap="round" opacity="0.95"/><path d="M108.7,0.0L104.9,5.5L102.6,10.8L102.1,16.2L103.4,22.0L106.1,28.4L109.5,35.6L112.9,43.3L115.6,51.5L116.8,59.5L116.1,67.0L113.2,73.5L108.3,78.7L101.6,82.3L93.6,84.3L85.1,85.1L76.7,85.2L68.8,85.0L62.0,85.3L56.3,86.6L51.6,89.4L47.8,93.8L44.4,99.7L41.0,106.7L37.1,114.2L32.5,121.5L27.1,127.7L20.9,132.1L14.1,134.3L7.0,133.9L0.0,131.3L-6.6,126.6L-12.7,120.6L-18.1,114.0L-22.9,107.6L-27.4,102.3L-32.0,98.4L-37.0,96.3L-42.7,95.8L-49.3,96.7L-56.8,98.3L-65.0,100.0L-73.5,101.1L-81.8,101.0L-89.2,99.1L-95.4,95.4L-99.9,89.9L-102.4,82.9L-103.1,74.9L-102.4,66.5L-100.7,58.1L-98.7,50.3L-97.2,43.3L-96.8,37.2L-98.0,31.8L-100.9,27.0L-105.5,22.4L-111.4,17.6L-117.8,12.4L-124.0,6.5L-129.3,0.0L-132.8,-7.0L-134.1,-14.1L-132.9,-21.1L-129.4,-27.5L-123.8,-33.2L-116.9,-38.0L-109.3,-41.9L-101.8,-45.3L-95.3,-48.5L-90.0,-52.0L-86.4,-56.1L-84.3,-61.2L-83.4,-67.5L-83.2,-74.9L-83.2,-83.2L-82.6,-91.7L-80.9,-100.0L-77.9,-107.3L-73.4,-113.0L-67.4,-116.7L-60.3,-118.2L-52.4,-117.7L-44.3,-115.5L-36.4,-112.1L-29.0,-108.4L-22.3,-105.1L-16.3,-103.0L-10.8,-102.4L-5.4,-103.7L-0.0,-106.7L5.8,-111.1L12.2,-116.1L19.2,-121.1L26.6,-125.2L34.2,-127.6L41.6,-127.9L48.3,-125.9L54.1,-121.6L58.8,-115.4L62.2,-107.8L64.7,-99.6L66.4,-91.4L68.0,-84.0L70.0,-77.7L72.9,-72.9L77.0,-69.3L82.5,-66.8L89.4,-65.0L97.2,-63.1L105.5,-60.9L113.4,-57.8L120.2,-53.5L125.4,-48.1L128.4,-41.7L129.0,-34.6L127.3,-27.1L123.7,-19.6L118.9,-12.5L113.6,-6.0L108.7,-0.0Z" fill="none" stroke="#dafbf1" stroke-width="3.3" stroke-linecap="round" opacity="0.95"/><path d="M106.2,0.0L107.0,5.6L109.5,11.5L113.3,17.9L117.6,25.0L121.8,32.6L124.9,40.6L126.5,48.5L125.9,56.0L123.0,62.7L117.9,68.1L111.1,72.2L103.1,74.9L94.5,76.6L86.2,77.6L78.5,78.5L72.1,80.0L66.9,82.6L62.8,86.5L59.7,91.9L57.0,98.7L54.2,106.4L50.9,114.4L46.8,122.0L41.7,128.4L35.6,132.9L28.7,135.1L21.4,134.9L13.9,132.4L6.7,128.0L0.0,122.5L-6.1,116.6L-11.7,111.1L-16.9,106.7L-22.1,104.0L-27.6,103.0L-33.7,103.8L-40.6,105.7L-48.2,108.3L-56.5,110.9L-65.0,112.5L-73.2,112.8L-80.7,111.1L-87.0,107.4L-91.6,101.8L-94.5,94.5L-95.8,86.3L-95.8,77.6L-95.1,69.1L-94.2,61.2L-94.0,54.2L-94.8,48.3L-97.3,43.3L-101.4,38.9L-107.1,34.8L-113.8,30.5L-120.9,25.7L-127.6,20.2L-133.2,14.0L-136.8,7.2L-138.2,0.0L-137.0,-7.2L-133.5,-14.0L-128.1,-20.3L-121.4,-25.8L-114.3,-30.6L-107.5,-34.9L-101.7,-39.0L-97.4,-43.4L-94.8,-48.3L-93.7,-54.1L-93.9,-61.0L-94.6,-68.8L-95.4,-77.3L-95.5,-86.0L-94.3,-94.3L-91.5,-101.6L-86.9,-107.4L-80.8,-111.2L-73.4,-113.1L-65.2,-113.0L-56.7,-111.4L-48.5,-108.8L-40.8,-106.2L-33.8,-104.1L-27.6,-103.2L-22.1,-103.9L-16.9,-106.5L-11.6,-110.7L-6.1,-116.0L-0.0,-121.9L6.7,-127.5L13.9,-132.0L21.3,-134.6L28.7,-135.1L35.6,-133.0L41.8,-128.7L47.0,-122.4L51.2,-114.9L54.5,-106.9L57.2,-99.1L59.9,-92.2L62.9,-86.6L66.8,-82.5L71.9,-79.9L78.3,-78.3L85.8,-77.2L94.1,-76.2L102.6,-74.6L110.7,-71.9L117.7,-68.0L122.9,-62.6L126.0,-56.1L126.8,-48.7L125.4,-40.7L122.3,-32.8L118.2,-25.1L113.8,-18.0L109.9,-11.6L107.2,-5.6L106.2,-0.0Z" fill="none" stroke="#fee8c8" stroke-width="3.3" stroke-linecap="round" opacity="0.95"/>
</svg>