<svg xmlns="http://www.w3.org/2000/svg" viewBox="-250 -250 500 500">
<defs><filter id="tg"><feGaussianBlur stdDeviation="5.5"/></filter></defs>
<rect x="-250" y="-250" width="500" height="500" fill="#000000"/>
<path d="M68.9,0.0L68.9,1.2L68.8,2.4L68.8,3.6L68.7,4.8L68.6,6.0L68.5,7.2L68.4,8.4L68.2,9.6L68.0,10.8L67.8,12.0L67.6,13.1L67.4,14.3L67.1,15.5L66.8,16.7L66.5,17.8L66.2,19.0L65.9,20.1L65.5,21.3L44.7,15.4L44.5,16.2L44.2,17.0L43.9,17.7L43.5,18.5L43.2,19.2L42.9,20.0L42.5,20.7L42.2,21.5L41.8,22.2L41.4,22.9L41.0,23.7L40.6,24.4L40.1,25.1L39.7,25.8L39.2,26.5L38.8,27.1L38.3,27.8L37.8,28.5L37.3,29.1L36.8,29.8L36.2,30.4L35.7,31.0L35.2,31.7L34.6,32.3L34.0,32.9L33.5,33.5L32.9,34.0L32.3,34.6L31.7,35.2L31.0,35.7L30.4,36.2L29.8,36.8L29.1,37.3L28.5,37.8L27.8,38.3L39.5,56.4L38.5,57.1L37.5,57.8L36.5,58.4L35.5,59.1L34.4,59.7L33.4,60.3L32.3,60.8L31.3,61.4L30.2,61.9L29.1,62.4L28.0,62.9L26.9,63.4L25.8,63.9L24.7,64.3L23.6,64.7L22.4,65.1L21.3,65.5L20.1,65.9L19.0,66.2L17.8,66.5L16.7,66.8L15.5,67.1L14.3,67.4L13.1,67.6L12.0,67.8L10.8,68.0L9.6,68.2L8.4,68.4L7.2,68.5L6.0,68.6L4.8,68.7L3.6,68.8L2.4,68.8L1.2,68.9L0.0,68.9L-0.8,47.3L-1.7,47.3L-2.5,47.2L-3.3,47.2L-4.1,47.1L-4.9,47.1L-5.8,47.0L-6.6,46.8L-7.4,46.7L-8.2,46.6L-9.0,46.4L-9.8,46.3L-10.6,46.1L-11.4,45.9L-12.2,45.7L-13.0,45.5L-13.8,45.2L-14.6,45.0L-15.4,44.7L-16.2,44.5L-17.0,44.2L-17.7,43.9L-18.5,43.5L-19.2,43.2L-20.0,42.9L-20.7,42.5L-21.5,42.2L-22.2,41.8L-22.9,41.4L-23.7,41.0L-24.4,40.6L-25.1,40.1L-25.8,39.7L-26.5,39.2L-27.1,38.8L-27.8,38.3L-41.5,55.0L-42.4,54.3L-43.4,53.5L-44.3,52.8L-45.2,52.0L-46.1,51.2L-47.0,50.4L-47.9,49.6L-48.7,48.7L-49.6,47.9L-50.4,47.0L-51.2,46.1L-52.0,45.2L-52.8,44.3L-53.5,43.4L-54.3,42.4L-55.0,41.5L-55.7,40.5L-56.4,39.5L-57.1,38.5L-57.8,37.5L-58.4,36.5L-59.1,35.5L-59.7,34.4L-60.3,33.4L-60.8,32.3L-61.4,31.3L-61.9,30.2L-62.4,29.1L-62.9,28.0L-63.4,26.9L-63.9,25.8L-64.3,24.7L-64.7,23.6L-65.1,22.4L-65.5,21.3L-45.2,13.8L-45.5,13.0L-45.7,12.2L-45.9,11.4L-46.1,10.6L-46.3,9.8L-46.4,9.0L-46.6,8.2L-46.7,7.4L-46.8,6.6L-47.0,5.8L-47.1,4.9L-47.1,4.1L-47.2,3.3L-47.2,2.5L-47.3,1.7L-47.3,0.8L-47.3,0.0L-47.3,-0.8L-47.3,-1.7L-47.2,-2.5L-47.2,-3.3L-47.1,-4.1L-47.1,-4.9L-47.0,-5.8L-46.8,-6.6L-46.7,-7.4L-46.6,-8.2L-46.4,-9.0L-46.3,-9.8L-46.1,-10.6L-45.9,-11.4L-45.7,-12.2L-45.5,-13.0L-45.2,-13.8L-65.5,-21.3L-65.1,-22.4L-64.7,-23.6L-64.3,-24.7L-63.9,-25.8L-63.4,-26.9L-62.9,-28.0L-62.4,-29.1L-61.9,-30.2L-61.4,-31.3L-60.8,-32.3L-60.3,-33.4L-59.7,-34.4L-59.1,-35.5L-58.4,-36.5L-57.8,-37.5L-57.1,-38.5L-56.4,-39.5L-55.7,-40.5L-55.0,-41.5L-54.3,-42.4L-53.5,-43.4L-52.8,-44.3L-52.0,-45.2L-51.2,-46.1L-50.4,-47.0L-49.6,-47.9L-48.7,-48.7L-47.9,-49.6L-47.0,-50.4L-46.1,-51.2L-45.2,-52.0L-44.3,-52.8L-43.4,-53.5L-42.4,-54.3L-41.5,-55.0L-27.8,-38.3L-27.1,-38.8L-26.5,-39.2L-25.8,-39.7L-25.1,-40.1L-24.4,-40.6L-23.7,-41.0L-22.9,-41.4L-22.2,-41.8L-21.5,-42.2L-20.7,-42.5L-20.0,-42.9L-19.2,-43.2L-18.5,-43.5L-17.7,-43.9L-17.0,-44.2L-16.2,-44.5L-15.4,-44.7L-14.6,-45.0L-13.8,-45.2L-13.0,-45.5L-12.2,-45.7L-11.4,-45.9L-10.6,-46.1L-9.8,-46.3L-9.0,-46.4L-8.2,-46.6L-7.4,-46.7L-6.6,-46.8L-5.8,-47.0L-4.9,-47.1L-4.1,-47.1L-3.3,-47.2L-2.5,-47.2L-1.7,-47.3L-0.8,-47.3L-0.0,-47.3L1.2,-68.9L2.4,-68.8L3.6,-68.8L4.8,-68.7L6.0,-68.6L7.2,-68.5L8.4,-68.4L9.6,-68.2L10.8,-68.0L12.0,-67.8L13.1,-67.6L14.3,-67.4L15.5,-67.1L16.7,-66.8L17.8,-66.5L19.0,-66.2L20.1,-65.9L21.3,-65.5L22.4,-65.1L23.6,-64.7L24.7,-64.3L25.8,-63.9L26.9,-63.4L28.0,-62.9L29.1,-62.4L30.2,-61.9L31.3,-61.4L32.3,-60.8L33.4,-60.3L34.4,-59.7L35.5,-59.1L36.5,-58.4L37.5,-57.8L38.5,-57.1L39.5,-56.4L27.8,-38.3L28.5,-37.8L29.1,-37.3L29.8,-36.8L30.4,-36.2L31.0,-35.7L31.7,-35.2L32.3,-34.6L32.9,-34.0L33.5,-33.5L34.0,-32.9L34.6,-32.3L35.2,-31.7L35.7,-31.0L36.2,-30.4L36.8,-29.8L37.3,-29.1L37.8,-28.5L38.3,-27.8L38.8,-27.1L39.2,-26.5L39.7,-25.8L40.1,-25.1L40.6,-24.4L41.0,-23.7L41.4,-22.9L41.8,-22.2L42.2,-21.5L42.5,-20.7L42.9,-20.0L43.2,-19.2L43.5,-18.5L43.9,-17.7L44.2,-17.0L44.5,-16.2L44.7,-15.4L45.0,-14.6L65.9,-20.1L66.2,-19.0L66.5,-17.8L66.8,-16.7L67.1,-15.5L67.4,-14.3L67.6,-13.1L67.8,-12.0L68.0,-10.8L68.2,-9.6L68.4,-8.4L68.5,-7.2L68.6,-6.0L68.7,-4.8L68.8,-3.6L68.8,-2.4L68.9,-1.2L68.9,-0.0Z" fill="none" stroke="#ffffff" stroke-width="10.8" stroke-linecap="round" opacity="0.14" filter="url(#tg)"/><path d="M68.9,0.0L68.9,1.2L68.8,2.4L68.8,3.6L68.7,4.8L68.6,6.0L68.5,7.2L68.4,8.4L68.2,9.6L68.0,10.8L67.8,12.0L67.6,13.1L67.4,14.3L67.1,15.5L66.8,16.7L66.5,17.8L66.2,19.0L65.9,20.1L65.5,21.3L44.7,15.4L44.5,16.2L44.2,17.0L43.9,17.7L43.5,18.5L43.2,19.2L42.9,20.0L42.5,20.7L42.2,21.5L41.8,22.2L41.4,22.9L41.0,23.7L40.6,24.4L40.1,25.1L39.7,25.8L39.2,26.5L38.8,27.1L38.3,27.8L37.8,28.5L37.3,29.1L36.8,29.8L36.2,30.4L35.7,31.0L35.2,31.7L34.6,32.3L34.0,32.9L33.5,33.5L32.9,34.0L32.3,34.6L31.7,35.2L31.0,35.7L30.4,36.2L29.8,36.8L29.1,37.3L28.5,37.8L27.8,38.3L39.5,56.4L38.5,57.1L37.5,57.8L36.5,58.4L35.5,59.1L34.4,59.7L33.4,60.3L32.3,60.8L31.3,61.4L30.2,61.9L29.1,62.4L28.0,62.9L26.9,63.4L25.8,63.9L24.7,64.3L23.6,64.7L22.4,65.1L21.3,65.5L20.1,65.9L19.0,66.2L17.8,66.5L16.7,66.8L15.5,67.1L14.3,67.4L13.1,67.6L12.0,67.8L10.8,68.0L9.6,68.2L8.4,68.4L7.2,68.5L6.0,68.6L4.8,68.7L3.6,68.8L2.4,68.8L1.2,68.9L0.0,68.9L-0.8,47.3L-1.7,47.3L-2.5,47.2L-3.3,47.2L-4.1,47.1L-4.9,47.1L-5.8,47.0L-6.6,46.8L-7.4,46.7L-8.2,46.6L-9.0,46.4L-9.8,46.3L-10.6,46.1L-11.4,45.9L-12.2,45.7L-13.0,45.5L-13.8,45.2L-14.6,45.0L-15.4,44.7L-16.2,44.5L-17.0,44.2L-17.7,43.9L-18.5,43.5L-19.2,43.2L-20.0,42.9L-20.7,42.5L-21.5,42.2L-22.2,41.8L-22.9,41.4L-23.7,41.0L-24.4,40.6L-25.1,40.1L-25.8,39.7L-26.5,39.2L-27.1,38.8L-27.8,38.3L-41.5,55.0L-42.4,54.3L-43.4,53.5L-44.3,52.8L-45.2,52.0L-46.1,51.2L-47.0,50.4L-47.9,49.6L-48.7,48.7L-49.6,47.9L-50.4,47.0L-51.2,46.1L-52.0,45.2L-52.8,44.3L-53.5,43.4L-54.3,42.4L-55.0,41.5L-55.7,40.5L-56.4,39.5L-57.1,38.5L-57.8,37.5L-58.4,36.5L-59.1,35.5L-59.7,34.4L-60.3,33.4L-60.8,32.3L-61.4,31.3L-61.9,30.2L-62.4,29.1L-62.9,28.0L-63.4,26.9L-63.9,25.8L-64.3,24.7L-64.7,23.6L-65.1,22.4L-65.5,21.3L-45.2,13.8L-45.5,13.0L-45.7,12.2L-45.9,11.4L-46.1,10.6L-46.3,9.8L-46.4,9.0L-46.6,8.2L-46.7,7.4L-46.8,6.6L-47.0,5.8L-47.1,4.9L-47.1,4.1L-47.2,3.3L-47.2,2.5L-47.3,1.7L-47.3,0.8L-47.3,0.0L-47.3,-0.8L-47.3,-1.7L-47.2,-2.5L-47.2,-3.3L-47.1,-4.1L-47.1,-4.9L-47.0,-5.8L-46.8,-6.6L-46.7,-7.4L-46.6,-8.2L-46.4,-9.0L-46.3,-9.8L-46.1,-10.6L-45.9,-11.4L-45.7,-12.2L-45.5,-13.0L-45.2,-13.8L-65.5,-21.3L-65.1,-22.4L-64.7,-23.6L-64.3,-24.7L-63.9,-25.8L-63.4,-26.9L-62.9,-28.0L-62.4,-29.1L-61.9,-30.2L-61.4,-31.3L-60.8,-32.3L-60.3,-33.4L-59.7,-34.4L-59.1,-35.5L-58.4,-36.5L-57.8,-37.5L-57.1,-38.5L-56.4,-39.5L-55.7,-40.5L-55.0,-41.5L-54.3,-42.4L-53.5,-43.4L-52.8,-44.3L-52.0,-45.2L-51.2,-46.1L-50.4,-47.0L-49.6,-47.9L-48.7,-48.7L-47.9,-49.6L-47.0,-50.4L-46.1,-51.2L-45.2,-52.0L-44.3,-52.8L-43.4,-53.5L-42.4,-54.3L-41.5,-55.0L-27.8,-38.3L-27.1,-38.8L-26.5,-39.2L-25.8,-39.7L-25.1,-40.1L-24.4,-40.6L-23.7,-41.0L-22.9,-41.4L-22.2,-41.8L-21.5,-42.2L-20.7,-42.5L-20.0,-42.9L-19.2,-43.2L-18.5,-43.5L-17.7,-43.9L-17.0,-44.2L-16.2,-44.5L-15.4,-44.7L-14.6,-45.0L-13.8,-45.2L-13.0,-45.5L-12.2,-45.7L-11.4,-45.9L-10.6,-46.1L-9.8,-46.3L-9.0,-46.4L-8.2,-46.6L-7.4,-46.7L-6.6,-46.8L-5.8,-47.0L-4.9,-47.1L-4.1,-47.1L-3.3,-47.2L-2.5,-47.2L-1.7,-47.3L-0.8,-47.3L-0.0,-47.3L1.2,-68.9L2.4,-68.8L3.6,-68.8L4.8,-68.7L6.0,-68.6L7.2,-68.5L8.4,-68.4L9.6,-68.2L10.8,-68.0L12.0,-67.8L13.1,-67.6L14.3,-67.4L15.5,-67.1L16.7,-66.8L17.8,-66.5L19.0,-66.2L20.1,-65.9L21.3,-65.5L22.4,-65.1L23.6,-64.7L24.7,-64.3L25.8,-63.9L26.9,-63.4L28.0,-62.9L29.1,-62.4L30.2,-61.9L31.3,-61.4L32.3,-60.8L33.4,-60.3L34.4,-59.7L35.5,-59.1L36.5,-58.4L37.5,-57.8L38.5,-57.1L39.5,-56.4L27.8,-38.3L28.5,-37.8L29.1,-37.3L29.8,-36.8L30.4,-36.2L31.0,-35.7L31.7,-35.2L32.3,-34.6L32.9,-34.0L33.5,-33.5L34.0,-32.9L34.6,-32.3L35.2,-31.7L35.7,-31.0L36.2,-30.4L36.8,-29.8L37.3,-29.1L37.8,-28.5L38.3,-27.8L38.8,-27.1L39.2,-26.5L39.7,-25.8L40.1,-25.1L40.6,-24.4L41.0,-23.7L41.4,-22.9L41.8,-22.2L42.2,-21.5L42.5,-20.7L42.9,-20.0L43.2,-19.2L43.5,-18.5L43.9,-17.7L44.2,-17.0L44.5,-16.2L44.7,-15.4L45.0,-14.6L65.9,-20.1L66.2,-19.0L66.5,-17.8L66.8,-16.7L67.1,-15.5L67.4,-14.3L67.6,-13.1L67.8,-12.0L68.0,-10.8L68.2,-9.6L68.4,-8.4L68.5,-7.2L68.6,-6.0L68.7,-4.8L68.8,-3.6L68.8,-2.4L68.9,-1.2L68.9,-0.0Z" fill="none" stroke="#ffffff" stroke-width="3.6" stroke-linecap="round" opacity="0.95"/><path d="M42.1,0.0L42.1,0.7L42.1,1.5L63.6,3.3L63.5,4.4L63.4,5.5L63.3,6.7L63.2,7.8L63.0,8.9L62.9,10.0L62.7,11.1L62.5,12.1L62.3,13.2L62.0,14.3L61.8,15.4L61.5,16.5L61.2,17.5L60.9,18.6L60.5,19.7L60.2,20.7L59.8,21.8L59.4,22.8L59.0,23.8L58.6,24.9L58.2,25.9L57.7,26.9L57.2,27.9L56.7,28.9L56.2,29.9L55.7,30.9L55.1,31.8L54.6,32.8L54.0,33.7L53.4,34.7L52.8,35.6L52.1,36.5L51.5,37.4L50.8,38.3L50.2,39.2L32.7,26.5L32.2,27.0L31.8,27.6L31.3,28.2L30.8,28.7L30.3,29.2L29.8,29.8L29.2,30.3L28.7,30.8L28.2,31.3L27.6,31.8L27.0,32.2L26.5,32.7L25.9,33.2L25.3,33.6L24.7,34.0L24.1,34.5L23.5,34.9L22.9,35.3L22.3,35.7L21.7,36.1L21.0,36.4L20.4,36.8L19.8,37.2L19.1,37.5L18.4,37.8L17.8,38.1L17.1,38.4L16.4,38.7L15.8,39.0L15.1,39.3L14.4,39.5L13.7,39.8L13.0,40.0L12.3,40.2L11.6,40.5L16.5,61.5L15.4,61.8L14.3,62.0L13.2,62.3L12.1,62.5L11.1,62.7L10.0,62.9L8.9,63.0L7.8,63.2L6.7,63.3L5.5,63.4L4.4,63.5L3.3,63.6L2.2,63.6L1.1,63.7L0.0,63.7L-1.1,63.7L-2.2,63.6L-3.3,63.6L-4.4,63.5L-5.5,63.4L-6.7,63.3L-7.8,63.2L-8.9,63.0L-10.0,62.9L-11.1,62.7L-12.1,62.5L-13.2,62.3L-14.3,62.0L-15.4,61.8L-16.5,61.5L-17.5,61.2L-18.6,60.9L-19.7,60.5L-20.7,60.2L-21.8,59.8L-15.1,39.3L-15.8,39.0L-16.4,38.7L-17.1,38.4L-17.8,38.1L-18.4,37.8L-19.1,37.5L-19.8,37.2L-20.4,36.8L-21.0,36.4L-21.7,36.1L-22.3,35.7L-22.9,35.3L-23.5,34.9L-24.1,34.5L-24.7,34.0L-25.3,33.6L-25.9,33.2L-26.5,32.7L-27.0,32.2L-27.6,31.8L-28.2,31.3L-28.7,30.8L-29.2,30.3L-29.8,29.8L-30.3,29.2L-30.8,28.7L-31.3,28.2L-31.8,27.6L-32.2,27.0L-32.7,26.5L-33.2,25.9L-33.6,25.3L-34.0,24.7L-34.5,24.1L-34.9,23.5L-53.4,34.7L-54.0,33.7L-54.6,32.8L-55.1,31.8L-55.7,30.9L-56.2,29.9L-56.7,28.9L-57.2,27.9L-57.7,26.9L-58.2,25.9L-58.6,24.9L-59.0,23.8L-59.4,22.8L-59.8,21.8L-60.2,20.7L-60.5,19.7L-60.9,18.6L-61.2,17.5L-61.5,16.5L-61.8,15.4L-62.0,14.3L-62.3,13.2L-62.5,12.1L-62.7,11.1L-62.9,10.0L-63.0,8.9L-63.2,7.8L-63.3,6.7L-63.4,5.5L-63.5,4.4L-63.6,3.3L-63.6,2.2L-63.7,1.1L-63.7,0.0L-63.7,-1.1L-63.6,-2.2L-42.0,-2.2L-42.0,-2.9L-41.9,-3.7L-41.9,-4.4L-41.8,-5.1L-41.7,-5.9L-41.6,-6.6L-41.4,-7.3L-41.3,-8.0L-41.2,-8.7L-41.0,-9.5L-40.8,-10.2L-40.6,-10.9L-40.5,-11.6L-40.2,-12.3L-40.0,-13.0L-39.8,-13.7L-39.5,-14.4L-39.3,-15.1L-39.0,-15.8L-38.7,-16.4L-38.4,-17.1L-38.1,-17.8L-37.8,-18.4L-37.5,-19.1L-37.2,-19.8L-36.8,-20.4L-36.4,-21.0L-36.1,-21.7L-35.7,-22.3L-35.3,-22.9L-34.9,-23.5L-34.5,-24.1L-34.0,-24.7L-33.6,-25.3L-33.2,-25.9L-49.5,-40.1L-48.8,-40.9L-48.0,-41.8L-47.3,-42.6L-46.6,-43.4L-45.8,-44.2L-45.0,-45.0L-44.2,-45.8L-43.4,-46.6L-42.6,-47.3L-41.8,-48.0L-40.9,-48.8L-40.1,-49.5L-39.2,-50.2L-38.3,-50.8L-37.4,-51.5L-36.5,-52.1L-35.6,-52.8L-34.7,-53.4L-33.7,-54.0L-32.8,-54.6L-31.8,-55.1L-30.9,-55.7L-29.9,-56.2L-28.9,-56.7L-27.9,-57.2L-26.9,-57.7L-25.9,-58.2L-24.9,-58.6L-23.8,-59.0L-22.8,-59.4L-21.8,-59.8L-20.7,-60.2L-19.7,-60.5L-18.6,-60.9L-17.5,-61.2L-10.9,-40.6L-10.2,-40.8L-9.5,-41.0L-8.7,-41.2L-8.0,-41.3L-7.3,-41.4L-6.6,-41.6L-5.9,-41.7L-5.1,-41.8L-4.4,-41.9L-3.7,-41.9L-2.9,-42.0L-2.2,-42.0L-1.5,-42.1L-0.7,-42.1L-0.0,-42.1L0.7,-42.1L1.5,-42.1L2.2,-42.0L2.9,-42.0L3.7,-41.9L4.4,-41.9L5.1,-41.8L5.9,-41.7L6.6,-41.6L7.3,-41.4L8.0,-41.3L8.7,-41.2L9.5,-41.0L10.2,-40.8L10.9,-40.6L11.6,-40.5L12.3,-40.2L13.0,-40.0L13.7,-39.8L14.4,-39.5L22.8,-59.4L23.8,-59.0L24.9,-58.6L25.9,-58.2L26.9,-57.7L27.9,-57.2L28.9,-56.7L29.9,-56.2L30.9,-55.7L31.8,-55.1L32.8,-54.6L33.7,-54.0L34.7,-53.4L35.6,-52.8L36.5,-52.1L37.4,-51.5L38.3,-50.8L39.2,-50.2L40.1,-49.5L40.9,-48.8L41.8,-48.0L42.6,-47.3L43.4,-46.6L44.2,-45.8L45.0,-45.0L45.8,-44.2L46.6,-43.4L47.3,-42.6L48.0,-41.8L48.8,-40.9L49.5,-40.1L50.2,-39.2L50.8,-38.3L51.5,-37.4L52.1,-36.5L52.8,-35.6L35.3,-22.9L35.7,-22.3L36.1,-21.7L36.4,-21.0L36.8,-20.4L37.2,-19.8L37.5,-19.1L37.8,-18.4L38.1,-17.8L38.4,-17.1L38.7,-16.4L39.0,-15.8L39.3,-15.1L39.5,-14.4L39.8,-13.7L40.0,-13.0L40.2,-12.3L40.5,-11.6L40.6,-10.9L40.8,-10.2L41.0,-9.5L41.2,-8.7L41.3,-8.0L41.4,-7.3L41.6,-6.6L41.7,-5.9L41.8,-5.1L41.9,-4.4L41.9,-3.7L42.0,-2.9L42.0,-2.2L42.1,-1.5L42.1,-0.7L42.1,-0.0Z" fill="none" stroke="#ffffff" stroke-width="10.8" stroke-linecap="round" opacity="0.14" filter="url(#tg)"/><path d="M42.1,0.0L42.1,0.7L42.1,1.5L63.6,3.3L63.5,4.4L63.4,5.5L63.3,6.7L63.2,7.8L63.0,8.9L62.9,10.0L62.7,11.1L62.5,12.1L62.3,13.2L62.0,14.3L61.8,15.4L61.5,16.5L61.2,17.5L60.9,18.6L60.5,19.7L60.2,20.7L59.8,21.8L59.4,22.8L59.0,23.8L58.6,24.9L58.2,25.9L57.7,26.9L57.2,27.9L56.7,28.9L56.2,29.9L55.7,30.9L55.1,31.8L54.6,32.8L54.0,33.7L53.4,34.7L52.8,35.6L52.1,36.5L51.5,37.4L50.8,38.3L50.2,39.2L32.7,26.5L32.2,27.0L31.8,27.6L31.3,28.2L30.8,28.7L30.3,29.2L29.8,29.8L29.2,30.3L28.7,30.8L28.2,31.3L27.6,31.8L27.0,32.2L26.5,32.7L25.9,33.2L25.3,33.6L24.7,34.0L24.1,34.5L23.5,34.9L22.9,35.3L22.3,35.7L21.7,36.1L21.0,36.4L20.4,36.8L19.8,37.2L19.1,37.5L18.4,37.8L17.8,38.1L17.1,38.4L16.4,38.7L15.8,39.0L15.1,39.3L14.4,39.5L13.7,39.8L13.0,40.0L12.3,40.2L11.6,40.5L16.5,61.5L15.4,61.8L14.3,62.0L13.2,62.3L12.1,62.5L11.1,62.7L10.0,62.9L8.9,63.0L7.8,63.2L6.7,63.3L5.5,63.4L4.4,63.5L3.3,63.6L2.2,63.6L1.1,63.7L0.0,63.7L-1.1,63.7L-2.2,63.6L-3.3,63.6L-4.4,63.5L-5.5,63.4L-6.7,63.3L-7.8,63.2L-8.9,63.0L-10.0,62.9L-11.1,62.7L-12.1,62.5L-13.2,62.3L-14.3,62.0L-15.4,61.8L-16.5,61.5L-17.5,61.2L-18.6,60.9L-19.7,60.5L-20.7,60.2L-21.8,59.8L-15.1,39.3L-15.8,39.0L-16.4,38.7L-17.1,38.4L-17.8,38.1L-18.4,37.8L-19.1,37.5L-19.8,37.2L-20.4,36.8L-21.0,36.4L-21.7,36.1L-22.3,35.7L-22.9,35.3L-23.5,34.9L-24.1,34.5L-24.7,34.0L-25.3,33.6L-25.9,33.2L-26.5,32.7L-27.0,32.2L-27.6,31.8L-28.2,31.3L-28.7,30.8L-29.2,30.3L-29.8,29.8L-30.3,29.2L-30.8,28.7L-31.3,28.2L-31.8,27.6L-32.2,27.0L-32.7,26.5L-33.2,25.9L-33.6,25.3L-34.0,24.7L-34.5,24.1L-34.9,23.5L-53.4,34.7L-54.0,33.7L-54.6,32.8L-55.1,31.8L-55.7,30.9L-56.2,29.9L-56.7,28.9L-57.2,27.9L-57.7,26.9L-58.2,25.9L-58.6,24.9L-59.0,23.8L-59.4,22.8L-59.8,21.8L-60.2,20.7L-60.5,19.7L-60.9,18.6L-61.2,17.5L-61.5,16.5L-61.8,15.4L-62.0,14.3L-62.3,13.2L-62.5,12.1L-62.7,11.1L-62.9,10.0L-63.0,8.9L-63.2,7.8L-63.3,6.7L-63.4,5.5L-63.5,4.4L-63.6,3.3L-63.6,2.2L-63.7,1.1L-63.7,0.0L-63.7,-1.1L-63.6,-2.2L-42.0,-2.2L-42.0,-2.9L-41.9,-3.7L-41.9,-4.4L-41.8,-5.1L-41.7,-5.9L-41.6,-6.6L-41.4,-7.3L-41.3,-8.0L-41.2,-8.7L-41.0,-9.5L-40.8,-10.2L-40.6,-10.9L-40.5,-11.6L-40.2,-12.3L-40.0,-13.0L-39.8,-13.7L-39.5,-14.4L-39.3,-15.1L-39.0,-15.8L-38.7,-16.4L-38.4,-17.1L-38.1,-17.8L-37.8,-18.4L-37.5,-19.1L-37.2,-19.8L-36.8,-20.4L-36.4,-21.0L-36.1,-21.7L-35.7,-22.3L-35.3,-22.9L-34.9,-23.5L-34.5,-24.1L-34.0,-24.7L-33.6,-25.3L-33.2,-25.9L-49.5,-40.1L-48.8,-40.9L-48.0,-41.8L-47.3,-42.6L-46.6,-43.4L-45.8,-44.2L-45.0,-45.0L-44.2,-45.8L-43.4,-46.6L-42.6,-47.3L-41.8,-48.0L-40.9,-48.8L-40.1,-49.5L-39.2,-50.2L-38.3,-50.8L-37.4,-51.5L-36.5,-52.1L-35.6,-52.8L-34.7,-53.4L-33.7,-54.0L-32.8,-54.6L-31.8,-55.1L-30.9,-55.7L-29.9,-56.2L-28.9,-56.7L-27.9,-57.2L-26.9,-57.7L-25.9,-58.2L-24.9,-58.6L-23.8,-59.0L-22.8,-59.4L-21.8,-59.8L-20.7,-60.2L-19.7,-60.5L-18.6,-60.9L-17.5,-61.2L-10.9,-40.6L-10.2,-40.8L-9.5,-41.0L-8.7,-41.2L-8.0,-41.3L-7.3,-41.4L-6.6,-41.6L-5.9,-41.7L-5.1,-41.8L-4.4,-41.9L-3.7,-41.9L-2.9,-42.0L-2.2,-42.0L-1.5,-42.1L-0.7,-42.1L-0.0,-42.1L0.7,-42.1L1.5,-42.1L2.2,-42.0L2.9,-42.0L3.7,-41.9L4.4,-41.9L5.1,-41.8L5.9,-41.7L6.6,-41.6L7.3,-41.4L8.0,-41.3L8.7,-41.2L9.5,-41.0L10.2,-40.8L10.9,-40.6L11.6,-40.5L12.3,-40.2L13.0,-40.0L13.7,-39.8L14.4,-39.5L22.8,-59.4L23.8,-59.0L24.9,-58.6L25.9,-58.2L26.9,-57.7L27.9,-57.2L28.9,-56.7L29.9,-56.2L30.9,-55.7L31.8,-55.1L32.8,-54.6L33.7,-54.0L34.7,-53.4L35.6,-52.8L36.5,-52.1L37.4,-51.5L38.3,-50.8L39.2,-50.2L40.1,-49.5L40.9,-48.8L41.8,-48.0L42.6,-47.3L43.4,-46.6L44.2,-45.8L45.0,-45.0L45.8,-44.2L46.6,-43.4L47.3,-42.6L48.0,-41.8L48.8,-40.9L49.5,-40.1L50.2,-39.2L50.8,-38.3L51.5,-37.4L52.1,-36.5L52.8,-35.6L35.3,-22.9L35.7,-22.3L36.1,-21.7L36.4,-21.0L36.8,-20.4L37.2,-19.8L37.5,-19.1L37.8,-18.4L38.1,-17.8L38.4,-17.1L38.7,-16.4L39.0,-15.8L39.3,-15.1L39.5,-14.4L39.8,-13.7L40.0,-13.0L40.2,-12.3L40.5,-11.6L40.6,-10.9L40.8,-10.2L41.0,-9.5L41.2,-8.7L41.3,-8.0L41.4,-7.3L41.6,-6.6L41.7,-5.9L41.8,-5.1L41.9,-4.4L41.9,-3.7L42.0,-2.9L42.0,-2.2L42.1,-1.5L42.1,-0.7L42.1,-0.0Z" fill="none" stroke="#ffffff" stroke-width="3.6" stroke-linecap="round" opacity="0.95"/><path d="M36.9,0.0L36.8,0.6L36.8,1.3L36.8,1.9L36.8,2.6L36.7,3.2L36.7,3.9L36.6,4.5L36.5,5.1L36.4,5.8L36.3,6.4L36.2,7.0L36.0,7.7L35.9,8.3L35.8,8.9L35.6,9.5L35.4,10.2L35.2,10.8L35.0,11.4L34.8,12.0L34.6,12.6L34.4,13.2L34.2,13.8L33.9,14.4L53.4,23.8L53.0,24.7L52.5,25.6L52.1,26.5L51.6,27.4L51.1,28.3L50.6,29.2L50.1,30.1L49.6,31.0L49.0,31.8L48.4,32.7L47.9,33.5L47.3,34.3L46.7,35.2L46.0,36.0L45.4,36.8L44.8,37.6L44.1,38.3L43.4,39.1L42.7,39.9L42.0,40.6L41.3,41.3L40.6,42.0L39.9,42.7L39.1,43.4L38.3,44.1L37.6,44.8L36.8,45.4L36.0,46.0L35.2,46.7L34.3,47.3L33.5,47.9L32.7,48.4L31.8,49.0L31.0,49.6L30.1,50.1L18.4,31.9L17.9,32.2L17.3,32.5L16.7,32.8L16.2,33.1L15.6,33.4L15.0,33.7L14.4,33.9L13.8,34.2L13.2,34.4L12.6,34.6L12.0,34.8L11.4,35.0L10.8,35.2L10.2,35.4L9.5,35.6L8.9,35.8L8.3,35.9L7.7,36.0L7.0,36.2L6.4,36.3L5.8,36.4L5.1,36.5L4.5,36.6L3.9,36.7L3.2,36.7L2.6,36.8L1.9,36.8L1.3,36.8L0.6,36.8L0.0,36.9L-0.6,36.8L-1.3,36.8L-1.9,36.8L-2.6,36.8L-3.2,36.7L-6.1,58.1L-7.1,58.0L-8.1,57.9L-9.1,57.7L-10.1,57.5L-11.1,57.4L-12.1,57.2L-13.1,56.9L-14.1,56.7L-15.1,56.4L-16.1,56.2L-17.1,55.9L-18.1,55.6L-19.0,55.2L-20.0,54.9L-20.9,54.6L-21.9,54.2L-22.8,53.8L-23.8,53.4L-24.7,53.0L-25.6,52.5L-26.5,52.1L-27.4,51.6L-28.3,51.1L-29.2,50.6L-30.1,50.1L-31.0,49.6L-31.8,49.0L-32.7,48.4L-33.5,47.9L-34.3,47.3L-35.2,46.7L-36.0,46.0L-36.8,45.4L-37.6,44.8L-24.2,27.8L-24.7,27.4L-25.1,27.0L-25.6,26.5L-26.1,26.1L-26.5,25.6L-27.0,25.1L-27.4,24.7L-27.8,24.2L-28.2,23.7L-28.6,23.2L-29.0,22.7L-29.4,22.2L-29.8,21.7L-30.2,21.1L-30.6,20.6L-30.9,20.1L-31.3,19.5L-31.6,19.0L-31.9,18.4L-32.2,17.9L-32.5,17.3L-32.8,16.7L-33.1,16.2L-33.4,15.6L-33.7,15.0L-33.9,14.4L-34.2,13.8L-34.4,13.2L-34.6,12.6L-34.8,12.0L-35.0,11.4L-35.2,10.8L-35.4,10.2L-35.6,9.5L-35.8,8.9L-35.9,8.3L-57.2,12.1L-57.4,11.1L-57.5,10.1L-57.7,9.1L-57.9,8.1L-58.0,7.1L-58.1,6.1L-58.2,5.1L-58.3,4.1L-58.4,3.1L-58.4,2.0L-58.4,1.0L-58.4,0.0L-58.4,-1.0L-58.4,-2.0L-58.4,-3.1L-58.3,-4.1L-58.2,-5.1L-58.1,-6.1L-58.0,-7.1L-57.9,-8.1L-57.7,-9.1L-57.5,-10.1L-57.4,-11.1L-57.2,-12.1L-56.9,-13.1L-56.7,-14.1L-56.4,-15.1L-56.2,-16.1L-55.9,-17.1L-55.6,-18.1L-55.2,-19.0L-54.9,-20.0L-54.6,-20.9L-54.2,-21.9L-33.9,-14.4L-33.7,-15.0L-33.4,-15.6L-33.1,-16.2L-32.8,-16.7L-32.5,-17.3L-32.2,-17.9L-31.9,-18.4L-31.6,-19.0L-31.3,-19.5L-30.9,-20.1L-30.6,-20.6L-30.2,-21.1L-29.8,-21.7L-29.4,-22.2L-29.0,-22.7L-28.6,-23.2L-28.2,-23.7L-27.8,-24.2L-27.4,-24.7L-27.0,-25.1L-26.5,-25.6L-26.1,-26.1L-25.6,-26.5L-25.1,-27.0L-24.7,-27.4L-24.2,-27.8L-23.7,-28.2L-23.2,-28.6L-22.7,-29.0L-22.2,-29.4L-21.7,-29.8L-21.1,-30.2L-20.6,-30.6L-20.1,-30.9L-19.5,-31.3L-19.0,-31.6L-29.2,-50.6L-28.3,-51.1L-27.4,-51.6L-26.5,-52.1L-25.6,-52.5L-24.7,-53.0L-23.8,-53.4L-22.8,-53.8L-21.9,-54.2L-20.9,-54.6L-20.0,-54.9L-19.0,-55.2L-18.1,-55.6L-17.1,-55.9L-16.1,-56.2L-15.1,-56.4L-14.1,-56.7L-13.1,-56.9L-12.1,-57.2L-11.1,-57.4L-10.1,-57.5L-9.1,-57.7L-8.1,-57.9L-7.1,-58.0L-6.1,-58.1L-5.1,-58.2L-4.1,-58.3L-3.1,-58.4L-2.0,-58.4L-1.0,-58.4L-0.0,-58.4L1.0,-58.4L2.0,-58.4L3.1,-58.4L4.1,-58.3L3.2,-36.7L3.9,-36.7L4.5,-36.6L5.1,-36.5L5.8,-36.4L6.4,-36.3L7.0,-36.2L7.7,-36.0L8.3,-35.9L8.9,-35.8L9.5,-35.6L10.2,-35.4L10.8,-35.2L11.4,-35.0L12.0,-34.8L12.6,-34.6L13.2,-34.4L13.8,-34.2L14.4,-33.9L15.0,-33.7L15.6,-33.4L16.2,-33.1L16.7,-32.8L17.3,-32.5L17.9,-32.2L18.4,-31.9L19.0,-31.6L19.5,-31.3L20.1,-30.9L20.6,-30.6L21.1,-30.2L21.7,-29.8L22.2,-29.4L22.7,-29.0L23.2,-28.6L23.7,-28.2L24.2,-27.8L39.1,-43.4L39.9,-42.7L40.6,-42.0L41.3,-41.3L42.0,-40.6L42.7,-39.9L43.4,-39.1L44.1,-38.3L44.8,-37.6L45.4,-36.8L46.0,-36.0L46.7,-35.2L47.3,-34.3L47.9,-33.5L48.4,-32.7L49.0,-31.8L49.6,-31.0L50.1,-30.1L50.6,-29.2L51.1,-28.3L51.6,-27.4L52.1,-26.5L52.5,-25.6L53.0,-24.7L53.4,-23.8L53.8,-22.8L54.2,-21.9L54.6,-20.9L54.9,-20.0L55.2,-19.0L55.6,-18.1L55.9,-17.1L56.2,-16.1L56.4,-15.1L56.7,-14.1L35.9,-8.3L36.0,-7.7L36.2,-7.0L36.3,-6.4L36.4,-5.8L36.5,-5.1L36.6,-4.5L36.7,-3.9L36.7,-3.2L36.8,-2.6L36.8,-1.9L36.8,-1.3L36.8,-0.6L36.9,-0.0Z" fill="none" stroke="#ffffff" stroke-width="10.8" stroke-linecap="round" opacity="0.14" filter="url(#tg)"/><path d="M36.9,0.0L36.8,0.6L36.8,1.3L36.8,1.9L36.8,2.6L36.7,3.2L36.7,3.9L36.6,4.5L36.5,5.1L36.4,5.8L36.3,6.4L36.2,7.0L36.0,7.7L35.9,8.3L35.8,8.9L35.6,9.5L35.4,10.2L35.2,10.8L35.0,11.4L34.8,12.0L34.6,12.6L34.4,13.2L34.2,13.8L33.9,14.4L53.4,23.8L53.0,24.7L52.5,25.6L52.1,26.5L51.6,27.4L51.1,28.3L50.6,29.2L50.1,30.1L49.6,31.0L49.0,31.8L48.4,32.7L47.9,33.5L47.3,34.3L46.7,35.2L46.0,36.0L45.4,36.8L44.8,37.6L44.1,38.3L43.4,39.1L42.7,39.9L42.0,40.6L41.3,41.3L40.6,42.0L39.9,42.7L39.1,43.4L38.3,44.1L37.6,44.8L36.8,45.4L36.0,46.0L35.2,46.7L34.3,47.3L33.5,47.9L32.7,48.4L31.8,49.0L31.0,49.6L30.1,50.1L18.4,31.9L17.9,32.2L17.3,32.5L16.7,32.8L16.2,33.1L15.6,33.4L15.0,33.7L14.4,33.9L13.8,34.2L13.2,34.4L12.6,34.6L12.0,34.8L11.4,35.0L10.8,35.2L10.2,35.4L9.5,35.6L8.9,35.8L8.3,35.9L7.7,36.0L7.0,36.2L6.4,36.3L5.8,36.4L5.1,36.5L4.5,36.6L3.9,36.7L3.2,36.7L2.6,36.8L1.9,36.8L1.3,36.8L0.6,36.8L0.0,36.9L-0.6,36.8L-1.3,36.8L-1.9,36.8L-2.6,36.8L-3.2,36.7L-6.1,58.1L-7.1,58.0L-8.1,57.9L-9.1,57.7L-10.1,57.5L-11.1,57.4L-12.1,57.2L-13.1,56.9L-14.1,56.7L-15.1,56.4L-16.1,56.2L-17.1,55.9L-18.1,55.6L-19.0,55.2L-20.0,54.9L-20.9,54.6L-21.9,54.2L-22.8,53.8L-23.8,53.4L-24.7,53.0L-25.6,52.5L-26.5,52.1L-27.4,51.6L-28.3,51.1L-29.2,50.6L-30.1,50.1L-31.0,49.6L-31.8,49.0L-32.7,48.4L-33.5,47.9L-34.3,47.3L-35.2,46.7L-36.0,46.0L-36.8,45.4L-37.6,44.8L-24.2,27.8L-24.7,27.4L-25.1,27.0L-25.6,26.5L-26.1,26.1L-26.5,25.6L-27.0,25.1L-27.4,24.7L-27.8,24.2L-28.2,23.7L-28.6,23.2L-29.0,22.7L-29.4,22.2L-29.8,21.7L-30.2,21.1L-30.6,20.6L-30.9,20.1L-31.3,19.5L-31.6,19.0L-31.9,18.4L-32.2,17.9L-32.5,17.3L-32.8,16.7L-33.1,16.2L-33.4,15.6L-33.7,15.0L-33.9,14.4L-34.2,13.8L-34.4,13.2L-34.6,12.6L-34.8,12.0L-35.0,11.4L-35.2,10.8L-35.4,10.2L-35.6,9.5L-35.8,8.9L-35.9,8.3L-57.2,12.1L-57.4,11.1L-57.5,10.1L-57.7,9.1L-57.9,8.1L-58.0,7.1L-58.1,6.1L-58.2,5.1L-58.3,4.1L-58.4,3.1L-58.4,2.0L-58.4,1.0L-58.4,0.0L-58.4,-1.0L-58.4,-2.0L-58.4,-3.1L-58.3,-4.1L-58.2,-5.1L-58.1,-6.1L-58.0,-7.1L-57.9,-8.1L-57.7,-9.1L-57.5,-10.1L-57.4,-11.1L-57.2,-12.1L-56.9,-13.1L-56.7,-14.1L-56.4,-15.1L-56.2,-16.1L-55.9,-17.1L-55.6,-18.1L-55.2,-19.0L-54.9,-20.0L-54.6,-20.9L-54.2,-21.9L-33.9,-14.4L-33.7,-15.0L-33.4,-15.6L-33.1,-16.2L-32.8,-16.7L-32.5,-17.3L-32.2,-17.9L-31.9,-18.4L-31.6,-19.0L-31.3,-19.5L-30.9,-20.1L-30.6,-20.6L-30.2,-21.1L-29.8,-21.7L-29.4,-22.2L-29.0,-22.7L-28.6,-23.2L-28.2,-23.7L-27.8,-24.2L-27.4,-24.7L-27.0,-25.1L-26.5,-25.6L-26.1,-26.1L-25.6,-26.5L-25.1,-27.0L-24.7,-27.4L-24.2,-27.8L-23.7,-28.2L-23.2,-28.6L-22.7,-29.0L-22.2,-29.4L-21.7,-29.8L-21.1,-30.2L-20.6,-30.6L-20.1,-30.9L-19.5,-31.3L-19.0,-31.6L-29.2,-50.6L-28.3,-51.1L-27.4,-51.6L-26.5,-52.1L-25.6,-52.5L-24.7,-53.0L-23.8,-53.4L-22.8,-53.8L-21.9,-54.2L-20.9,-54.6L-20.0,-54.9L-19.0,-55.2L-18.1,-55.6L-17.1,-55.9L-16.1,-56.2L-15.1,-56.4L-14.1,-56.7L-13.1,-56.9L-12.1,-57.2L-11.1,-57.4L-10.1,-57.5L-9.1,-57.7L-8.1,-57.9L-7.1,-58.0L-6.1,-58.1L-5.1,-58.2L-4.1,-58.3L-3.1,-58.4L-2.0,-58.4L-1.0,-58.4L-0.0,-58.4L1.0,-58.4L2.0,-58.4L3.1,-58.4L4.1,-58.3L3.2,-36.7L3.9,-36.7L4.5,-36.6L5.1,-36.5L5.8,-36.4L6.4,-36.3L7.0,-36.2L7.7,-36.0L8.3,-35.9L8.9,-35.8L9.5,-35.6L10.2,-35.4L10.8,-35.2L11.4,-35.0L12.0,-34.8L12.6,-34.6L13.2,-34.4L13.8,-34.2L14.4,-33.9L15.0,-33.7L15.6,-33.4L16.2,-33.1L16.7,-32.8L17.3,-32.5L17.9,-32.2L18.4,-31.9L19.0,-31.6L19.5,-31.3L20.1,-30.9L20.6,-30.6L21.1,-30.2L21.7,-29.8L22.2,-29.4L22.7,-29.0L23.2,-28.6L23.7,-28.2L24.2,-27.8L39.1,-43.4L39.9,-42.7L40.6,-42.0L41.3,-41.3L42.0,-40.6L42.7,-39.9L43.4,-39.1L44.1,-38.3L44.8,-37.6L45.4,-36.8L46.0,-36.0L46.7,-35.2L47.3,-34.3L47.9,-33.5L48.4,-32.7L49.0,-31.8L49.6,-31.0L50.1,-30.1L50.6,-29.2L51.1,-28.3L51.6,-27.4L52.1,-26.5L52.5,-25.6L53.0,-24.7L53.4,-23.8L53.8,-22.8L54.2,-21.9L54.6,-20.9L54.9,-20.0L55.2,-19.0L55.6,-18.1L55.9,-17.1L56.2,-16.1L56.4,-15.1L56.7,-14.1L35.9,-8.3L36.0,-7.7L36.2,-7.0L36.3,-6.4L36.4,-5.8L36.5,-5.1L36.6,-4.5L36.7,-3.9L36.7,-3.2L36.8,-2.6L36.8,-1.9L36.8,-1.3L36.8,-0.6L36.9,-0.0Z" fill="none" stroke="#ffffff" stroke-width="3.6" stroke-linecap="round" opacity="0.95"/><path d="M53.2,0.0L53.2,0.9L53.2,1.9L53.1,2.8L53.1,3.7L53.0,4.6L52.9,5.6L52.8,6.5L31.3,4.4L31.2,4.9L31.1,5.5L31.0,6.0L30.9,6.6L30.8,7.1L30.7,7.7L30.5,8.2L30.4,8.7L30.2,9.2L30.1,9.8L29.9,10.3L29.7,10.8L29.5,11.3L29.3,11.8L29.1,12.4L28.9,12.9L28.7,13.4L28.4,13.9L28.2,14.4L27.9,14.8L27.7,15.3L27.4,15.8L27.1,16.3L26.8,16.8L26.5,17.2L26.2,17.7L25.9,18.1L25.6,18.6L25.3,19.0L24.9,19.5L24.6,19.9L24.2,20.3L23.9,20.7L23.5,21.2L23.1,21.6L38.3,37.0L37.6,37.6L37.0,38.3L36.3,38.9L35.6,39.5L34.9,40.2L34.2,40.8L33.5,41.3L32.8,41.9L32.0,42.5L31.3,43.0L30.5,43.6L29.8,44.1L29.0,44.6L28.2,45.1L27.4,45.6L26.6,46.1L25.8,46.5L25.0,47.0L24.2,47.4L23.3,47.8L22.5,48.2L21.6,48.6L20.8,49.0L19.9,49.3L19.1,49.7L18.2,50.0L17.3,50.3L16.4,50.6L15.6,50.9L14.7,51.1L13.8,51.4L12.9,51.6L12.0,51.8L11.1,52.0L10.2,52.2L5.5,31.1L4.9,31.2L4.4,31.3L3.9,31.4L3.3,31.4L2.8,31.5L2.2,31.5L1.7,31.6L1.1,31.6L0.6,31.6L0.0,31.6L-0.6,31.6L-1.1,31.6L-1.7,31.6L-2.2,31.5L-2.8,31.5L-3.3,31.4L-3.9,31.4L-4.4,31.3L-4.9,31.2L-5.5,31.1L-6.0,31.0L-6.6,30.9L-7.1,30.8L-7.7,30.7L-8.2,30.5L-8.7,30.4L-9.2,30.2L-9.8,30.1L-10.3,29.9L-10.8,29.7L-11.3,29.5L-11.8,29.3L-12.4,29.1L-12.9,28.9L-13.4,28.7L-23.3,47.8L-24.2,47.4L-25.0,47.0L-25.8,46.5L-26.6,46.1L-27.4,45.6L-28.2,45.1L-29.0,44.6L-29.8,44.1L-30.5,43.6L-31.3,43.0L-32.0,42.5L-32.8,41.9L-33.5,41.3L-34.2,40.8L-34.9,40.2L-35.6,39.5L-36.3,38.9L-37.0,38.3L-37.6,37.6L-38.3,37.0L-38.9,36.3L-39.5,35.6L-40.2,34.9L-40.8,34.2L-41.3,33.5L-41.9,32.8L-42.5,32.0L-43.0,31.3L-43.6,30.5L-44.1,29.8L-44.6,29.0L-45.1,28.2L-45.6,27.4L-46.1,26.6L-46.5,25.8L-27.9,14.8L-28.2,14.4L-28.4,13.9L-28.7,13.4L-28.9,12.9L-29.1,12.4L-29.3,11.8L-29.5,11.3L-29.7,10.8L-29.9,10.3L-30.1,9.8L-30.2,9.2L-30.4,8.7L-30.5,8.2L-30.7,7.7L-30.8,7.1L-30.9,6.6L-31.0,6.0L-31.1,5.5L-31.2,4.9L-31.3,4.4L-31.4,3.9L-31.4,3.3L-31.5,2.8L-31.5,2.2L-31.6,1.7L-31.6,1.1L-31.6,0.6L-31.6,0.0L-31.6,-0.6L-31.6,-1.1L-31.6,-1.7L-31.5,-2.2L-31.5,-2.8L-31.4,-3.3L-31.4,-3.9L-52.7,-7.4L-52.5,-8.3L-52.4,-9.2L-52.2,-10.2L-52.0,-11.1L-51.8,-12.0L-51.6,-12.9L-51.4,-13.8L-51.1,-14.7L-50.9,-15.6L-50.6,-16.4L-50.3,-17.3L-50.0,-18.2L-49.7,-19.1L-49.3,-19.9L-49.0,-20.8L-48.6,-21.6L-48.2,-22.5L-47.8,-23.3L-47.4,-24.2L-47.0,-25.0L-46.5,-25.8L-46.1,-26.6L-45.6,-27.4L-45.1,-28.2L-44.6,-29.0L-44.1,-29.8L-43.6,-30.5L-43.0,-31.3L-42.5,-32.0L-41.9,-32.8L-41.3,-33.5L-40.8,-34.2L-40.2,-34.9L-39.5,-35.6L-38.9,-36.3L-22.7,-22.0L-22.4,-22.4L-22.0,-22.7L-21.6,-23.1L-21.2,-23.5L-20.7,-23.9L-20.3,-24.2L-19.9,-24.6L-19.5,-24.9L-19.0,-25.3L-18.6,-25.6L-18.1,-25.9L-17.7,-26.2L-17.2,-26.5L-16.8,-26.8L-16.3,-27.1L-15.8,-27.4L-15.3,-27.7L-14.8,-27.9L-14.4,-28.2L-13.9,-28.4L-13.4,-28.7L-12.9,-28.9L-12.4,-29.1L-11.8,-29.3L-11.3,-29.5L-10.8,-29.7L-10.3,-29.9L-9.8,-30.1L-9.2,-30.2L-8.7,-30.4L-8.2,-30.5L-7.7,-30.7L-7.1,-30.8L-6.6,-30.9L-6.0,-31.0L-9.2,-52.4L-8.3,-52.5L-7.4,-52.7L-6.5,-52.8L-5.6,-52.9L-4.6,-53.0L-3.7,-53.1L-2.8,-53.1L-1.9,-53.2L-0.9,-53.2L-0.0,-53.2L0.9,-53.2L1.9,-53.2L2.8,-53.1L3.7,-53.1L4.6,-53.0L5.6,-52.9L6.5,-52.8L7.4,-52.7L8.3,-52.5L9.2,-52.4L10.2,-52.2L11.1,-52.0L12.0,-51.8L12.9,-51.6L13.8,-51.4L14.7,-51.1L15.6,-50.9L16.4,-50.6L17.3,-50.3L18.2,-50.0L19.1,-49.7L19.9,-49.3L20.8,-49.0L21.6,-48.6L22.5,-48.2L13.9,-28.4L14.4,-28.2L14.8,-27.9L15.3,-27.7L15.8,-27.4L16.3,-27.1L16.8,-26.8L17.2,-26.5L17.7,-26.2L18.1,-25.9L18.6,-25.6L19.0,-25.3L19.5,-24.9L19.9,-24.6L20.3,-24.2L20.7,-23.9L21.2,-23.5L21.6,-23.1L22.0,-22.7L22.4,-22.4L22.7,-22.0L23.1,-21.6L23.5,-21.2L23.9,-20.7L24.2,-20.3L24.6,-19.9L24.9,-19.5L25.3,-19.0L25.6,-18.6L25.9,-18.1L26.2,-17.7L26.5,-17.2L26.8,-16.8L27.1,-16.3L27.4,-15.8L27.7,-15.3L47.0,-25.0L47.4,-24.2L47.8,-23.3L48.2,-22.5L48.6,-21.6L49.0,-20.8L49.3,-19.9L49.7,-19.1L50.0,-18.2L50.3,-17.3L50.6,-16.4L50.9,-15.6L51.1,-14.7L51.4,-13.8L51.6,-12.9L51.8,-12.0L52.0,-11.1L52.2,-10.2L52.4,-9.2L52.5,-8.3L52.7,-7.4L52.8,-6.5L52.9,-5.6L53.0,-4.6L53.1,-3.7L53.1,-2.8L53.2,-1.9L53.2,-0.9L53.2,-0.0Z" fill="none" stroke="#ffffff" stroke-width="10.8" stroke-linecap="round" opacity="0.14" filter="url(#tg)"/><path d="M53.2,0.0L53.2,0.9L53.2,1.9L53.1,2.8L53.1,3.7L53.0,4.6L52.9,5.6L52.8,6.5L31.3,4.4L31.2,4.9L31.1,5.5L31.0,6.0L30.9,6.6L30.8,7.1L30.7,7.7L30.5,8.2L30.4,8.7L30.2,9.2L30.1,9.8L29.9,10.3L29.7,10.8L29.5,11.3L29.3,11.8L29.1,12.4L28.9,12.9L28.7,13.4L28.4,13.9L28.2,14.4L27.9,14.8L27.7,15.3L27.4,15.8L27.1,16.3L26.8,16.8L26.5,17.2L26.2,17.7L25.9,18.1L25.6,18.6L25.3,19.0L24.9,19.5L24.6,19.9L24.2,20.3L23.9,20.7L23.5,21.2L23.1,21.6L38.3,37.0L37.6,37.6L37.0,38.3L36.3,38.9L35.6,39.5L34.9,40.2L34.2,40.8L33.5,41.3L32.8,41.9L32.0,42.5L31.3,43.0L30.5,43.6L29.8,44.1L29.0,44.6L28.2,45.1L27.4,45.6L26.6,46.1L25.8,46.5L25.0,47.0L24.2,47.4L23.3,47.8L22.5,48.2L21.6,48.6L20.8,49.0L19.9,49.3L19.1,49.7L18.2,50.0L17.3,50.3L16.4,50.6L15.6,50.9L14.7,51.1L13.8,51.4L12.9,51.6L12.0,51.8L11.1,52.0L10.2,52.2L5.5,31.1L4.9,31.2L4.4,31.3L3.9,31.4L3.3,31.4L2.8,31.5L2.2,31.5L1.7,31.6L1.1,31.6L0.6,31.6L0.0,31.6L-0.6,31.6L-1.1,31.6L-1.7,31.6L-2.2,31.5L-2.8,31.5L-3.3,31.4L-3.9,31.4L-4.4,31.3L-4.9,31.2L-5.5,31.1L-6.0,31.0L-6.6,30.9L-7.1,30.8L-7.7,30.7L-8.2,30.5L-8.7,30.4L-9.2,30.2L-9.8,30.1L-10.3,29.9L-10.8,29.7L-11.3,29.5L-11.8,29.3L-12.4,29.1L-12.9,28.9L-13.4,28.7L-23.3,47.8L-24.2,47.4L-25.0,47.0L-25.8,46.5L-26.6,46.1L-27.4,45.6L-28.2,45.1L-29.0,44.6L-29.8,44.1L-30.5,43.6L-31.3,43.0L-32.0,42.5L-32.8,41.9L-33.5,41.3L-34.2,40.8L-34.9,40.2L-35.6,39.5L-36.3,38.9L-37.0,38.3L-37.6,37.6L-38.3,37.0L-38.9,36.3L-39.5,35.6L-40.2,34.9L-40.8,34.2L-41.3,33.5L-41.9,32.8L-42.5,32.0L-43.0,31.3L-43.6,30.5L-44.1,29.8L-44.6,29.0L-45.1,28.2L-45.6,27.4L-46.1,26.6L-46.5,25.8L-27.9,14.8L-28.2,14.4L-28.4,13.9L-28.7,13.4L-28.9,12.9L-29.1,12.4L-29.3,11.8L-29.5,11.3L-29.7,10.8L-29.9,10.3L-30.1,9.8L-30.2,9.2L-30.4,8.7L-30.5,8.2L-30.7,7.7L-30.8,7.1L-30.9,6.6L-31.0,6.0L-31.1,5.5L-31.2,4.9L-31.3,4.4L-31.4,3.9L-31.4,3.3L-31.5,2.8L-31.5,2.2L-31.6,1.7L-31.6,1.1L-31.6,0.6L-31.6,0.0L-31.6,-0.6L-31.6,-1.1L-31.6,-1.7L-31.5,-2.2L-31.5,-2.8L-31.4,-3.3L-31.4,-3.9L-52.7,-7.4L-52.5,-8.3L-52.4,-9.2L-52.2,-10.2L-52.0,-11.1L-51.8,-12.0L-51.6,-12.9L-51.4,-13.8L-51.1,-14.7L-50.9,-15.6L-50.6,-16.4L-50.3,-17.3L-50.0,-18.2L-49.7,-19.1L-49.3,-19.9L-49.0,-20.8L-48.6,-21.6L-48.2,-22.5L-47.8,-23.3L-47.4,-24.2L-47.0,-25.0L-46.5,-25.8L-46.1,-26.6L-45.6,-27.4L-45.1,-28.2L-44.6,-29.0L-44.1,-29.8L-43.6,-30.5L-43.0,-31.3L-42.5,-32.0L-41.9,-32.8L-41.3,-33.5L-40.8,-34.2L-40.2,-34.9L-39.5,-35.6L-38.9,-36.3L-22.7,-22.0L-22.4,-22.4L-22.0,-22.7L-21.6,-23.1L-21.2,-23.5L-20.7,-23.9L-20.3,-24.2L-19.9,-24.6L-19.5,-24.9L-19.0,-25.3L-18.6,-25.6L-18.1,-25.9L-17.7,-26.2L-17.2,-26.5L-16.8,-26.8L-16.3,-27.1L-15.8,-27.4L-15.3,-27.7L-14.8,-27.9L-14.4,-28.2L-13.9,-28.4L-13.4,-28.7L-12.9,-28.9L-12.4,-29.1L-11.8,-29.3L-11.3,-29.5L-10.8,-29.7L-10.3,-29.9L-9.8,-30.1L-9.2,-30.2L-8.7,-30.4L-8.2,-30.5L-7.7,-30.7L-7.1,-30.8L-6.6,-30.9L-6.0,-31.0L-9.2,-52.4L-8.3,-52.5L-7.4,-52.7L-6.5,-52.8L-5.6,-52.9L-4.6,-53.0L-3.7,-53.1L-2.8,-53.1L-1.9,-53.2L-0.9,-53.2L-0.0,-53.2L0.9,-53.2L1.9,-53.2L2.8,-53.1L3.7,-53.1L4.6,-53.0L5.6,-52.9L6.5,-52.8L7.4,-52.7L8.3,-52.5L9.2,-52.4L10.2,-52.2L11.1,-52.0L12.0,-51.8L12.9,-51.6L13.8,-51.4L14.7,-51.1L15.6,-50.9L16.4,-50.6L17.3,-50.3L18.2,-50.0L19.1,-49.7L19.9,-49.3L20.8,-49.0L21.6,-48.6L22.5,-48.2L13.9,-28.4L14.4,-28.2L14.8,-27.9L15.3,-27.7L15.8,-27.4L16.3,-27.1L16.8,-26.8L17.2,-26.5L17.7,-26.2L18.1,-25.9L18.6,-25.6L19.0,-25.3L19.5,-24.9L19.9,-24.6L20.3,-24.2L20.7,-23.9L21.2,-23.5L21.6,-23.1L22.0,-22.7L22.4,-22.4L22.7,-22.0L23.1,-21.6L23.5,-21.2L23.9,-20.7L24.2,-20.3L24.6,-19.9L24.9,-19.5L25.3,-19.0L25.6,-18.6L25.9,-18.1L26.2,-17.7L26.5,-17.2L26.8,-16.8L27.1,-16.3L27.4,-15.8L27.7,-15.3L47.0,-25.0L47.4,-24.2L47.8,-23.3L48.2,-22.5L48.6,-21.6L49.0,-20.8L49.3,-19.9L49.7,-19.1L50.0,-18.2L50.3,-17.3L50.6,-16.4L50.9,-15.6L51.1,-14.7L51.4,-13.8L51.6,-12.9L51.8,-12.0L52.0,-11.1L52.2,-10.2L52.4,-9.2L52.5,-8.3L52.7,-7.4L52.8,-6.5L52.9,-5.6L53.0,-4.6L53.1,-3.7L53.1,-2.8L53.2,-1.9L53.2,-0.9L53.2,-0.0Z" fill="none" stroke="#ffffff" stroke-width="3.6" stroke-linecap="round" opacity="0.95"/><path d="M48.0,0.0L48.0,0.8L47.9,1.7L47.9,2.5L47.9,3.3L47.8,4.2L47.7,5.0L47.6,5.8L47.5,6.7L47.4,7.5L47.2,8.3L47.1,9.2L46.9,10.0L46.7,10.8L46.5,11.6L46.3,12.4L46.1,13.2L45.9,14.0L45.6,14.8L45.4,15.6L45.1,16.4L44.8,17.2L44.5,18.0L44.2,18.7L43.8,19.5L43.5,20.3L43.1,21.0L42.7,21.8L23.3,12.4L23.1,12.8L22.9,13.2L22.6,13.6L22.4,14.0L22.1,14.4L21.9,14.8L21.6,15.1L21.4,15.5L21.1,15.9L20.8,16.2L20.5,16.6L20.2,17.0L19.9,17.3L19.6,17.7L19.3,18.0L19.0,18.3L18.7,18.7L18.3,19.0L18.0,19.3L17.7,19.6L17.3,19.9L17.0,20.2L16.6,20.5L16.2,20.8L15.9,21.1L15.5,21.4L15.1,21.6L14.8,21.9L14.4,22.1L14.0,22.4L13.6,22.6L13.2,22.9L12.8,23.1L12.4,23.3L12.0,23.5L11.6,23.7L20.3,43.5L19.5,43.8L18.7,44.2L18.0,44.5L17.2,44.8L16.4,45.1L15.6,45.4L14.8,45.6L14.0,45.9L13.2,46.1L12.4,46.3L11.6,46.5L10.8,46.7L10.0,46.9L9.2,47.1L8.3,47.2L7.5,47.4L6.7,47.5L5.8,47.6L5.0,47.7L4.2,47.8L3.3,47.9L2.5,47.9L1.7,47.9L0.8,48.0L0.0,48.0L-0.8,48.0L-1.7,47.9L-2.5,47.9L-3.3,47.9L-4.2,47.8L-5.0,47.7L-5.8,47.6L-6.7,47.5L-7.5,47.4L-4.6,26.0L-5.0,25.9L-5.5,25.8L-5.9,25.7L-6.4,25.6L-6.8,25.5L-7.3,25.4L-7.7,25.2L-8.2,25.1L-8.6,25.0L-9.0,24.8L-9.5,24.6L-9.9,24.5L-10.3,24.3L-10.7,24.1L-11.2,23.9L-11.6,23.7L-12.0,23.5L-12.4,23.3L-12.8,23.1L-13.2,22.9L-13.6,22.6L-14.0,22.4L-14.4,22.1L-14.8,21.9L-15.1,21.6L-15.5,21.4L-15.9,21.1L-16.2,20.8L-16.6,20.5L-17.0,20.2L-17.3,19.9L-17.7,19.6L-18.0,19.3L-18.3,19.0L-18.7,18.7L-19.0,18.3L-35.1,32.7L-35.7,32.1L-36.2,31.5L-36.8,30.8L-37.3,30.2L-37.8,29.5L-38.3,28.9L-38.8,28.2L-39.3,27.5L-39.8,26.8L-40.2,26.1L-40.7,25.4L-41.1,24.7L-41.5,24.0L-42.0,23.3L-42.4,22.5L-42.7,21.8L-43.1,21.0L-43.5,20.3L-43.8,19.5L-44.2,18.7L-44.5,18.0L-44.8,17.2L-45.1,16.4L-45.4,15.6L-45.6,14.8L-45.9,14.0L-46.1,13.2L-46.3,12.4L-46.5,11.6L-46.7,10.8L-46.9,10.0L-47.1,9.2L-47.2,8.3L-47.4,7.5L-26.1,3.7L-26.2,3.2L-26.2,2.8L-26.3,2.3L-26.3,1.8L-26.4,1.4L-26.4,0.9L-26.4,0.5L-26.4,0.0L-26.4,-0.5L-26.4,-0.9L-26.4,-1.4L-26.3,-1.8L-26.3,-2.3L-26.2,-2.8L-26.2,-3.2L-26.1,-3.7L-26.1,-4.1L-26.0,-4.6L-25.9,-5.0L-25.8,-5.5L-25.7,-5.9L-25.6,-6.4L-25.5,-6.8L-25.4,-7.3L-25.2,-7.7L-25.1,-8.2L-25.0,-8.6L-24.8,-9.0L-24.6,-9.5L-24.5,-9.9L-24.3,-10.3L-24.1,-10.7L-23.9,-11.2L-23.7,-11.6L-23.5,-12.0L-23.3,-12.4L-42.0,-23.3L-41.5,-24.0L-41.1,-24.7L-40.7,-25.4L-40.2,-26.1L-39.8,-26.8L-39.3,-27.5L-38.8,-28.2L-38.3,-28.9L-37.8,-29.5L-37.3,-30.2L-36.8,-30.8L-36.2,-31.5L-35.7,-32.1L-35.1,-32.7L-34.5,-33.3L-33.9,-33.9L-33.3,-34.5L-32.7,-35.1L-32.1,-35.7L-31.5,-36.2L-30.8,-36.8L-30.2,-37.3L-29.5,-37.8L-28.9,-38.3L-28.2,-38.8L-27.5,-39.3L-26.8,-39.8L-26.1,-40.2L-25.4,-40.7L-24.7,-41.1L-24.0,-41.5L-23.3,-42.0L-22.5,-42.4L-21.8,-42.7L-11.6,-23.7L-11.2,-23.9L-10.7,-24.1L-10.3,-24.3L-9.9,-24.5L-9.5,-24.6L-9.0,-24.8L-8.6,-25.0L-8.2,-25.1L-7.7,-25.2L-7.3,-25.4L-6.8,-25.5L-6.4,-25.6L-5.9,-25.7L-5.5,-25.8L-5.0,-25.9L-4.6,-26.0L-4.1,-26.1L-3.7,-26.1L-3.2,-26.2L-2.8,-26.2L-2.3,-26.3L-1.8,-26.3L-1.4,-26.4L-0.9,-26.4L-0.5,-26.4L-0.0,-26.4L0.5,-26.4L0.9,-26.4L1.4,-26.4L1.8,-26.3L2.3,-26.3L2.8,-26.2L3.2,-26.2L3.7,-26.1L4.1,-26.1L4.6,-26.0L9.2,-47.1L10.0,-46.9L10.8,-46.7L11.6,-46.5L12.4,-46.3L13.2,-46.1L14.0,-45.9L14.8,-45.6L15.6,-45.4L16.4,-45.1L17.2,-44.8L18.0,-44.5L18.7,-44.2L19.5,-43.8L20.3,-43.5L21.0,-43.1L21.8,-42.7L22.5,-42.4L23.3,-42.0L24.0,-41.5L24.7,-41.1L25.4,-40.7L26.1,-40.2L26.8,-39.8L27.5,-39.3L28.2,-38.8L28.9,-38.3L29.5,-37.8L30.2,-37.3L30.8,-36.8L31.5,-36.2L32.1,-35.7L32.7,-35.1L33.3,-34.5L33.9,-33.9L19.0,-18.3L19.3,-18.0L19.6,-17.7L19.9,-17.3L20.2,-17.0L20.5,-16.6L20.8,-16.2L21.1,-15.9L21.4,-15.5L21.6,-15.1L21.9,-14.8L22.1,-14.4L22.4,-14.0L22.6,-13.6L22.9,-13.2L23.1,-12.8L23.3,-12.4L23.5,-12.0L23.7,-11.6L23.9,-11.2L24.1,-10.7L24.3,-10.3L24.5,-9.9L24.6,-9.5L24.8,-9.0L25.0,-8.6L25.1,-8.2L25.2,-7.7L25.4,-7.3L25.5,-6.8L25.6,-6.4L25.7,-5.9L25.8,-5.5L25.9,-5.0L26.0,-4.6L26.1,-4.1L26.1,-3.7L47.6,-5.8L47.7,-5.0L47.8,-4.2L47.9,-3.3L47.9,-2.5L47.9,-1.7L48.0,-0.8L48.0,-0.0Z" fill="none" stroke="#ffffff" stroke-width="10.8" stroke-linecap="round" opacity="0.14" filter="url(#tg)"/><path d="M48.0,0.0L48.0,0.8L47.9,1.7L47.9,2.5L47.9,3.3L47.8,4.2L47.7,5.0L47.6,5.8L47.5,6.7L47.4,7.5L47.2,8.3L47.1,9.2L46.9,10.0L46.7,10.8L46.5,11.6L46.3,12.4L46.1,13.2L45.9,14.0L45.6,14.8L45.4,15.6L45.1,16.4L44.8,17.2L44.5,18.0L44.2,18.7L43.8,19.5L43.5,20.3L43.1,21.0L42.7,21.8L23.3,12.4L23.1,12.8L22.9,13.2L22.6,13.6L22.4,14.0L22.1,14.4L21.9,14.8L21.6,15.1L21.4,15.5L21.1,15.9L20.8,16.2L20.5,16.6L20.2,17.0L19.9,17.3L19.6,17.7L19.3,18.0L19.0,18.3L18.7,18.7L18.3,19.0L18.0,19.3L17.7,19.6L17.3,19.9L17.0,20.2L16.6,20.5L16.2,20.8L15.9,21.1L15.5,21.4L15.1,21.6L14.8,21.9L14.4,22.1L14.0,22.4L13.6,22.6L13.2,22.9L12.8,23.1L12.4,23.3L12.0,23.5L11.6,23.7L20.3,43.5L19.5,43.8L18.7,44.2L18.0,44.5L17.2,44.8L16.4,45.1L15.6,45.4L14.8,45.6L14.0,45.9L13.2,46.1L12.4,46.3L11.6,46.5L10.8,46.7L10.0,46.9L9.2,47.1L8.3,47.2L7.5,47.4L6.7,47.5L5.8,47.6L5.0,47.7L4.2,47.8L3.3,47.9L2.5,47.9L1.7,47.9L0.8,48.0L0.0,48.0L-0.8,48.0L-1.7,47.9L-2.5,47.9L-3.3,47.9L-4.2,47.8L-5.0,47.7L-5.8,47.6L-6.7,47.5L-7.5,47.4L-4.6,26.0L-5.0,25.9L-5.5,25.8L-5.9,25.7L-6.4,25.6L-6.8,25.5L-7.3,25.4L-7.7,25.2L-8.2,25.1L-8.6,25.0L-9.0,24.8L-9.5,24.6L-9.9,24.5L-10.3,24.3L-10.7,24.1L-11.2,23.9L-11.6,23.7L-12.0,23.5L-12.4,23.3L-12.8,23.1L-13.2,22.9L-13.6,22.6L-14.0,22.4L-14.4,22.1L-14.8,21.9L-15.1,21.6L-15.5,21.4L-15.9,21.1L-16.2,20.8L-16.6,20.5L-17.0,20.2L-17.3,19.9L-17.7,19.6L-18.0,19.3L-18.3,19.0L-18.7,18.7L-19.0,18.3L-35.1,32.7L-35.7,32.1L-36.2,31.5L-36.8,30.8L-37.3,30.2L-37.8,29.5L-38.3,28.9L-38.8,28.2L-39.3,27.5L-39.8,26.8L-40.2,26.1L-40.7,25.4L-41.1,24.7L-41.5,24.0L-42.0,23.3L-42.4,22.5L-42.7,21.8L-43.1,21.0L-43.5,20.3L-43.8,19.5L-44.2,18.7L-44.5,18.0L-44.8,17.2L-45.1,16.4L-45.4,15.6L-45.6,14.8L-45.9,14.0L-46.1,13.2L-46.3,12.4L-46.5,11.6L-46.7,10.8L-46.9,10.0L-47.1,9.2L-47.2,8.3L-47.4,7.5L-26.1,3.7L-26.2,3.2L-26.2,2.8L-26.3,2.3L-26.3,1.8L-26.4,1.4L-26.4,0.9L-26.4,0.5L-26.4,0.0L-26.4,-0.5L-26.4,-0.9L-26.4,-1.4L-26.3,-1.8L-26.3,-2.3L-26.2,-2.8L-26.2,-3.2L-26.1,-3.7L-26.1,-4.1L-26.0,-4.6L-25.9,-5.0L-25.8,-5.5L-25.7,-5.9L-25.6,-6.4L-25.5,-6.8L-25.4,-7.3L-25.2,-7.7L-25.1,-8.2L-25.0,-8.6L-24.8,-9.0L-24.6,-9.5L-24.5,-9.9L-24.3,-10.3L-24.1,-10.7L-23.9,-11.2L-23.7,-11.6L-23.5,-12.0L-23.3,-12.4L-42.0,-23.3L-41.5,-24.0L-41.1,-24.7L-40.7,-25.4L-40.2,-26.1L-39.8,-26.8L-39.3,-27.5L-38.8,-28.2L-38.3,-28.9L-37.8,-29.5L-37.3,-30.2L-36.8,-30.8L-36.2,-31.5L-35.7,-32.1L-35.1,-32.7L-34.5,-33.3L-33.9,-33.9L-33.3,-34.5L-32.7,-35.1L-32.1,-35.7L-31.5,-36.2L-30.8,-36.8L-30.2,-37.3L-29.5,-37.8L-28.9,-38.3L-28.2,-38.8L-27.5,-39.3L-26.8,-39.8L-26.1,-40.2L-25.4,-40.7L-24.7,-41.1L-24.0,-41.5L-23.3,-42.0L-22.5,-42.4L-21.8,-42.7L-11.6,-23.7L-11.2,-23.9L-10.7,-24.1L-10.3,-24.3L-9.9,-24.5L-9.5,-24.6L-9.0,-24.8L-8.6,-25.0L-8.2,-25.1L-7.7,-25.2L-7.3,-25.4L-6.8,-25.5L-6.4,-25.6L-5.9,-25.7L-5.5,-25.8L-5.0,-25.9L-4.6,-26.0L-4.1,-26.1L-3.7,-26.1L-3.2,-26.2L-2.8,-26.2L-2.3,-26.3L-1.8,-26.3L-1.4,-26.4L-0.9,-26.4L-0.5,-26.4L-0.0,-26.4L0.5,-26.4L0.9,-26.4L1.4,-26.4L1.8,-26.3L2.3,-26.3L2.8,-26.2L3.2,-26.2L3.7,-26.1L4.1,-26.1L4.6,-26.0L9.2,-47.1L10.0,-46.9L10.8,-46.7L11.6,-46.5L12.4,-46.3L13.2,-46.1L14.0,-45.9L14.8,-45.6L15.6,-45.4L16.4,-45.1L17.2,-44.8L18.0,-44.5L18.7,-44.2L19.5,-43.8L20.3,-43.5L21.0,-43.1L21.8,-42.7L22.5,-42.4L23.3,-42.0L24.0,-41.5L24.7,-41.1L25.4,-40.7L26.1,-40.2L26.8,-39.8L27.5,-39.3L28.2,-38.8L28.9,-38.3L29.5,-37.8L30.2,-37.3L30.8,-36.8L31.5,-36.2L32.1,-35.7L32.7,-35.1L33.3,-34.5L33.9,-33.9L19.0,-18.3L19.3,-18.0L19.6,-17.7L19.9,-17.3L20.2,-17.0L20.5,-16.6L20.8,-16.2L21.1,-15.9L21.4,-15.5L21.6,-15.1L21.9,-14.8L22.1,-14.4L22.4,-14.0L22.6,-13.6L22.9,-13.2L23.1,-12.8L23.3,-12.4L23.5,-12.0L23.7,-11.6L23.9,-11.2L24.1,-10.7L24.3,-10.3L24.5,-9.9L24.6,-9.5L24.8,-9.0L25.0,-8.6L25.1,-8.2L25.2,-7.7L25.4,-7.3L25.5,-6.8L25.6,-6.4L25.7,-5.9L25.8,-5.5L25.9,-5.0L26.0,-4.6L26.1,-4.1L26.1,-3.7L47.6,-5.8L47.7,-5.0L47.8,-4.2L47.9,-3.3L47.9,-2.5L47.9,-1.7L48.0,-0.8L48.0,-0.0Z" fill="none" stroke="#ffffff" stroke-width="3.6" stroke-linecap="round" opacity="0.95"/><path d="M21.2,0.0L21.2,0.4L21.2,0.7L21.1,1.1L21.1,1.5L21.1,1.8L21.0,2.2L21.0,2.6L21.0,2.9L20.9,3.3L20.8,3.7L20.8,4.0L20.7,4.4L41.6,9.6L41.5,10.3L41.3,11.1L41.1,11.8L40.9,12.5L40.7,13.2L40.4,13.9L40.2,14.6L39.9,15.3L39.6,16.0L39.3,16.7L39.0,17.4L38.7,18.1L38.4,18.7L38.1,19.4L37.7,20.1L37.4,20.7L37.0,21.4L36.6,22.0L36.2,22.7L35.8,23.3L35.4,23.9L35.0,24.5L34.6,25.1L34.1,25.7L33.7,26.3L33.2,26.9L32.7,27.5L32.3,28.0L31.8,28.6L31.3,29.2L30.7,29.7L30.2,30.2L29.7,30.7L29.2,31.3L28.6,31.8L13.9,16.0L13.6,16.2L13.3,16.4L13.0,16.7L12.7,16.9L12.4,17.1L12.1,17.3L11.8,17.5L11.5,17.8L11.2,17.9L10.9,18.1L10.6,18.3L10.3,18.5L9.9,18.7L9.6,18.9L9.3,19.0L8.9,19.2L8.6,19.3L8.3,19.5L7.9,19.6L7.6,19.8L7.2,19.9L6.9,20.0L6.5,20.1L6.2,20.2L5.8,20.3L5.5,20.4L5.1,20.5L4.8,20.6L4.4,20.7L4.0,20.8L3.7,20.8L3.3,20.9L2.9,21.0L2.6,21.0L2.2,21.0L3.7,42.6L3.0,42.6L2.2,42.7L1.5,42.7L0.7,42.7L0.0,42.7L-0.7,42.7L-1.5,42.7L-2.2,42.7L-3.0,42.6L-3.7,42.6L-4.5,42.5L-5.2,42.4L-5.9,42.3L-6.7,42.2L-7.4,42.1L-8.2,42.0L-8.9,41.8L-9.6,41.6L-10.3,41.5L-11.1,41.3L-11.8,41.1L-12.5,40.9L-13.2,40.7L-13.9,40.4L-14.6,40.2L-15.3,39.9L-16.0,39.6L-16.7,39.3L-17.4,39.0L-18.1,38.7L-18.7,38.4L-19.4,38.1L-20.1,37.7L-20.7,37.4L-21.4,37.0L-10.9,18.1L-11.2,17.9L-11.5,17.8L-11.8,17.5L-12.1,17.3L-12.4,17.1L-12.7,16.9L-13.0,16.7L-13.3,16.4L-13.6,16.2L-13.9,16.0L-14.2,15.7L-14.4,15.5L-14.7,15.2L-15.0,15.0L-15.2,14.7L-15.5,14.4L-15.7,14.2L-16.0,13.9L-16.2,13.6L-16.4,13.3L-16.7,13.0L-16.9,12.7L-17.1,12.4L-17.3,12.1L-17.5,11.8L-17.8,11.5L-17.9,11.2L-18.1,10.9L-18.3,10.6L-18.5,10.3L-18.7,9.9L-18.9,9.6L-19.0,9.3L-19.2,8.9L-19.3,8.6L-39.3,16.7L-39.6,16.0L-39.9,15.3L-40.2,14.6L-40.4,13.9L-40.7,13.2L-40.9,12.5L-41.1,11.8L-41.3,11.1L-41.5,10.3L-41.6,9.6L-41.8,8.9L-42.0,8.2L-42.1,7.4L-42.2,6.7L-42.3,5.9L-42.4,5.2L-42.5,4.5L-42.6,3.7L-42.6,3.0L-42.7,2.2L-42.7,1.5L-42.7,0.7L-42.7,0.0L-42.7,-0.7L-42.7,-1.5L-42.7,-2.2L-42.6,-3.0L-42.6,-3.7L-42.5,-4.5L-42.4,-5.2L-42.3,-5.9L-42.2,-6.7L-42.1,-7.4L-42.0,-8.2L-41.8,-8.9L-20.6,-4.8L-20.5,-5.1L-20.4,-5.5L-20.3,-5.8L-20.2,-6.2L-20.1,-6.5L-20.0,-6.9L-19.9,-7.2L-19.8,-7.6L-19.6,-7.9L-19.5,-8.3L-19.3,-8.6L-19.2,-8.9L-19.0,-9.3L-18.9,-9.6L-18.7,-9.9L-18.5,-10.3L-18.3,-10.6L-18.1,-10.9L-17.9,-11.2L-17.8,-11.5L-17.5,-11.8L-17.3,-12.1L-17.1,-12.4L-16.9,-12.7L-16.7,-13.0L-16.4,-13.3L-16.2,-13.6L-16.0,-13.9L-15.7,-14.2L-15.5,-14.4L-15.2,-14.7L-15.0,-15.0L-14.7,-15.2L-14.4,-15.5L-14.2,-15.7L-28.0,-32.3L-27.5,-32.7L-26.9,-33.2L-26.3,-33.7L-25.7,-34.1L-25.1,-34.6L-24.5,-35.0L-23.9,-35.4L-23.3,-35.8L-22.7,-36.2L-22.0,-36.6L-21.4,-37.0L-20.7,-37.4L-20.1,-37.7L-19.4,-38.1L-18.7,-38.4L-18.1,-38.7L-17.4,-39.0L-16.7,-39.3L-16.0,-39.6L-15.3,-39.9L-14.6,-40.2L-13.9,-40.4L-13.2,-40.7L-12.5,-40.9L-11.8,-41.1L-11.1,-41.3L-10.3,-41.5L-9.6,-41.6L-8.9,-41.8L-8.2,-42.0L-7.4,-42.1L-6.7,-42.2L-5.9,-42.3L-5.2,-42.4L-4.5,-42.5L-1.8,-21.1L-1.5,-21.1L-1.1,-21.1L-0.7,-21.2L-0.4,-21.2L-0.0,-21.2L0.4,-21.2L0.7,-21.2L1.1,-21.1L1.5,-21.1L1.8,-21.1L2.2,-21.0L2.6,-21.0L2.9,-21.0L3.3,-20.9L3.7,-20.8L4.0,-20.8L4.4,-20.7L4.8,-20.6L5.1,-20.5L5.5,-20.4L5.8,-20.3L6.2,-20.2L6.5,-20.1L6.9,-20.0L7.2,-19.9L7.6,-19.8L7.9,-19.6L8.3,-19.5L8.6,-19.3L8.9,-19.2L9.3,-19.0L9.6,-18.9L9.9,-18.7L10.3,-18.5L10.6,-18.3L22.0,-36.6L22.7,-36.2L23.3,-35.8L23.9,-35.4L24.5,-35.0L25.1,-34.6L25.7,-34.1L26.3,-33.7L26.9,-33.2L27.5,-32.7L28.0,-32.3L28.6,-31.8L29.2,-31.3L29.7,-30.7L30.2,-30.2L30.7,-29.7L31.3,-29.2L31.8,-28.6L32.3,-28.0L32.7,-27.5L33.2,-26.9L33.7,-26.3L34.1,-25.7L34.6,-25.1L35.0,-24.5L35.4,-23.9L35.8,-23.3L36.2,-22.7L36.6,-22.0L37.0,-21.4L37.4,-20.7L37.7,-20.1L38.1,-19.4L38.4,-18.7L38.7,-18.1L39.0,-17.4L19.5,-8.3L19.6,-7.9L19.8,-7.6L19.9,-7.2L20.0,-6.9L20.1,-6.5L20.2,-6.2L20.3,-5.8L20.4,-5.5L20.5,-5.1L20.6,-4.8L20.7,-4.4L20.8,-4.0L20.8,-3.7L20.9,-3.3L21.0,-2.9L21.0,-2.6L21.0,-2.2L21.1,-1.8L21.1,-1.5L21.1,-1.1L21.2,-0.7L21.2,-0.4L21.2,-0.0Z" fill="none" stroke="#ffffff" stroke-width="10.8" stroke-linecap="round" opacity="0.14" filter="url(#tg)"/><path d="M21.2,0.0L21.2,0.4L21.2,0.7L21.1,1.1L21.1,1.5L21.1,1.8L21.0,2.2L21.0,2.6L21.0,2.9L20.9,3.3L20.8,3.7L20.8,4.0L20.7,4.4L41.6,9.6L41.5,10.3L41.3,11.1L41.1,11.8L40.9,12.5L40.7,13.2L40.4,13.9L40.2,14.6L39.9,15.3L39.6,16.0L39.3,16.7L39.0,17.4L38.7,18.1L38.4,18.7L38.1,19.4L37.7,20.1L37.4,20.7L37.0,21.4L36.6,22.0L36.2,22.7L35.8,23.3L35.4,23.9L35.0,24.5L34.6,25.1L34.1,25.7L33.7,26.3L33.2,26.9L32.7,27.5L32.3,28.0L31.8,28.6L31.3,29.2L30.7,29.7L30.2,30.2L29.7,30.7L29.2,31.3L28.6,31.8L13.9,16.0L13.6,16.2L13.3,16.4L13.0,16.7L12.7,16.9L12.4,17.1L12.1,17.3L11.8,17.5L11.5,17.8L11.2,17.9L10.9,18.1L10.6,18.3L10.3,18.5L9.9,18.7L9.6,18.9L9.3,19.0L8.9,19.2L8.6,19.3L8.3,19.5L7.9,19.6L7.6,19.8L7.2,19.9L6.9,20.0L6.5,20.1L6.2,20.2L5.8,20.3L5.5,20.4L5.1,20.5L4.8,20.6L4.4,20.7L4.0,20.8L3.7,20.8L3.3,20.9L2.9,21.0L2.6,21.0L2.2,21.0L3.7,42.6L3.0,42.6L2.2,42.7L1.5,42.7L0.7,42.7L0.0,42.7L-0.7,42.7L-1.5,42.7L-2.2,42.7L-3.0,42.6L-3.7,42.6L-4.5,42.5L-5.2,42.4L-5.9,42.3L-6.7,42.2L-7.4,42.1L-8.2,42.0L-8.9,41.8L-9.6,41.6L-10.3,41.5L-11.1,41.3L-11.8,41.1L-12.5,40.9L-13.2,40.7L-13.9,40.4L-14.6,40.2L-15.3,39.9L-16.0,39.6L-16.7,39.3L-17.4,39.0L-18.1,38.7L-18.7,38.4L-19.4,38.1L-20.1,37.7L-20.7,37.4L-21.4,37.0L-10.9,18.1L-11.2,17.9L-11.5,17.8L-11.8,17.5L-12.1,17.3L-12.4,17.1L-12.7,16.9L-13.0,16.7L-13.3,16.4L-13.6,16.2L-13.9,16.0L-14.2,15.7L-14.4,15.5L-14.7,15.2L-15.0,15.0L-15.2,14.7L-15.5,14.4L-15.7,14.2L-16.0,13.9L-16.2,13.6L-16.4,13.3L-16.7,13.0L-16.9,12.7L-17.1,12.4L-17.3,12.1L-17.5,11.8L-17.8,11.5L-17.9,11.2L-18.1,10.9L-18.3,10.6L-18.5,10.3L-18.7,9.9L-18.9,9.6L-19.0,9.3L-19.2,8.9L-19.3,8.6L-39.3,16.7L-39.6,16.0L-39.9,15.3L-40.2,14.6L-40.4,13.9L-40.7,13.2L-40.9,12.5L-41.1,11.8L-41.3,11.1L-41.5,10.3L-41.6,9.6L-41.8,8.9L-42.0,8.2L-42.1,7.4L-42.2,6.7L-42.3,5.9L-42.4,5.2L-42.5,4.5L-42.6,3.7L-42.6,3.0L-42.7,2.2L-42.7,1.5L-42.7,0.7L-42.7,0.0L-42.7,-0.7L-42.7,-1.5L-42.7,-2.2L-42.6,-3.0L-42.6,-3.7L-42.5,-4.5L-42.4,-5.2L-42.3,-5.9L-42.2,-6.7L-42.1,-7.4L-42.0,-8.2L-41.8,-8.9L-20.6,-4.8L-20.5,-5.1L-20.4,-5.5L-20.3,-5.8L-20.2,-6.2L-20.1,-6.5L-20.0,-6.9L-19.9,-7.2L-19.8,-7.6L-19.6,-7.9L-19.5,-8.3L-19.3,-8.6L-19.2,-8.9L-19.0,-9.3L-18.9,-9.6L-18.7,-9.9L-18.5,-10.3L-18.3,-10.6L-18.1,-10.9L-17.9,-11.2L-17.8,-11.5L-17.5,-11.8L-17.3,-12.1L-17.1,-12.4L-16.9,-12.7L-16.7,-13.0L-16.4,-13.3L-16.2,-13.6L-16.0,-13.9L-15.7,-14.2L-15.5,-14.4L-15.2,-14.7L-15.0,-15.0L-14.7,-15.2L-14.4,-15.5L-14.2,-15.7L-28.0,-32.3L-27.5,-32.7L-26.9,-33.2L-26.3,-33.7L-25.7,-34.1L-25.1,-34.6L-24.5,-35.0L-23.9,-35.4L-23.3,-35.8L-22.7,-36.2L-22.0,-36.6L-21.4,-37.0L-20.7,-37.4L-20.1,-37.7L-19.4,-38.1L-18.7,-38.4L-18.1,-38.7L-17.4,-39.0L-16.7,-39.3L-16.0,-39.6L-15.3,-39.9L-14.6,-40.2L-13.9,-40.4L-13.2,-40.7L-12.5,-40.9L-11.8,-41.1L-11.1,-41.3L-10.3,-41.5L-9.6,-41.6L-8.9,-41.8L-8.2,-42.0L-7.4,-42.1L-6.7,-42.2L-5.9,-42.3L-5.2,-42.4L-4.5,-42.5L-1.8,-21.1L-1.5,-21.1L-1.1,-21.1L-0.7,-21.2L-0.4,-21.2L-0.0,-21.2L0.4,-21.2L0.7,-21.2L1.1,-21.1L1.5,-21.1L1.8,-21.1L2.2,-21.0L2.6,-21.0L2.9,-21.0L3.3,-20.9L3.7,-20.8L4.0,-20.8L4.4,-20.7L4.8,-20.6L5.1,-20.5L5.5,-20.4L5.8,-20.3L6.2,-20.2L6.5,-20.1L6.9,-20.0L7.2,-19.9L7.6,-19.8L7.9,-19.6L8.3,-19.5L8.6,-19.3L8.9,-19.2L9.3,-19.0L9.6,-18.9L9.9,-18.7L10.3,-18.5L10.6,-18.3L22.0,-36.6L22.7,-36.2L23.3,-35.8L23.9,-35.4L24.5,-35.0L25.1,-34.6L25.7,-34.1L26.3,-33.7L26.9,-33.2L27.5,-32.7L28.0,-32.3L28.6,-31.8L29.2,-31.3L29.7,-30.7L30.2,-30.2L30.7,-29.7L31.3,-29.2L31.8,-28.6L32.3,-28.0L32.7,-27.5L33.2,-26.9L33.7,-26.3L34.1,-25.7L34.6,-25.1L35.0,-24.5L35.4,-23.9L35.8,-23.3L36.2,-22.7L36.6,-22.0L37.0,-21.4L37.4,-20.7L37.7,-20.1L38.1,-19.4L38.4,-18.7L38.7,-18.1L39.0,-17.4L19.5,-8.3L19.6,-7.9L19.8,-7.6L19.9,-7.2L20.0,-6.9L20.1,-6.5L20.2,-6.2L20.3,-5.8L20.4,-5.5L20.5,-5.1L20.6,-4.8L20.7,-4.4L20.8,-4.0L20.8,-3.7L20.9,-3.3L21.0,-2.9L21.0,-2.6L21.0,-2.2L21.1,-1.8L21.1,-1.5L21.1,-1.1L21.2,-0.7L21.2,-0.4L21.2,-0.0Z" fill="none" stroke="#ffffff" stroke-width="3.6" stroke-linecap="round" opacity="0.95"/><path d="M15.9,0.0L15.9,0.3L15.9,0.6L15.9,0.8L15.9,1.1L15.9,1.4L15.8,1.7L15.8,1.9L15.8,2.2L15.7,2.5L15.7,2.8L15.6,3.0L15.6,3.3L15.5,3.6L15.5,3.9L15.4,4.1L15.3,4.4L15.2,4.7L15.2,4.9L15.1,5.2L15.0,5.5L14.9,5.7L14.8,6.0L14.7,6.2L14.6,6.5L14.4,6.7L14.3,7.0L14.2,7.2L14.1,7.5L13.9,7.7L13.8,8.0L13.7,8.2L13.5,8.4L13.4,8.7L31.1,21.0L30.7,21.5L30.4,22.1L30.0,22.6L29.6,23.1L29.2,23.6L28.7,24.1L28.3,24.6L27.9,25.1L27.4,25.6L27.0,26.1L26.5,26.5L26.1,27.0L25.6,27.4L25.1,27.9L24.6,28.3L24.1,28.7L23.6,29.2L23.1,29.6L22.6,30.0L22.1,30.4L21.5,30.7L21.0,31.1L20.4,31.5L19.9,31.8L19.3,32.2L18.8,32.5L18.2,32.8L17.6,33.1L17.0,33.4L16.4,33.7L15.9,34.0L15.3,34.3L14.7,34.5L14.1,34.8L5.7,14.9L5.5,15.0L5.2,15.1L4.9,15.2L4.7,15.2L4.4,15.3L4.1,15.4L3.9,15.5L3.6,15.5L3.3,15.6L3.0,15.6L2.8,15.7L2.5,15.7L2.2,15.8L1.9,15.8L1.7,15.8L1.4,15.9L1.1,15.9L0.8,15.9L0.6,15.9L0.3,15.9L0.0,15.9L-0.3,15.9L-0.6,15.9L-0.8,15.9L-1.1,15.9L-1.4,15.9L-1.7,15.8L-1.9,15.8L-2.2,15.8L-2.5,15.7L-2.8,15.7L-3.0,15.6L-3.3,15.6L-3.6,15.5L-3.9,15.5L-4.1,15.4L-10.3,36.1L-11.0,35.9L-11.6,35.7L-12.2,35.5L-12.8,35.3L-13.4,35.0L-14.1,34.8L-14.7,34.5L-15.3,34.3L-15.9,34.0L-16.4,33.7L-17.0,33.4L-17.6,33.1L-18.2,32.8L-18.8,32.5L-19.3,32.2L-19.9,31.8L-20.4,31.5L-21.0,31.1L-21.5,30.7L-22.1,30.4L-22.6,30.0L-23.1,29.6L-23.6,29.2L-24.1,28.7L-24.6,28.3L-25.1,27.9L-25.6,27.4L-26.1,27.0L-26.5,26.5L-27.0,26.1L-27.4,25.6L-27.9,25.1L-28.3,24.6L-28.7,24.1L-12.4,10.0L-12.6,9.8L-12.7,9.6L-12.9,9.4L-13.1,9.1L-13.2,8.9L-13.4,8.7L-13.5,8.4L-13.7,8.2L-13.8,8.0L-13.9,7.7L-14.1,7.5L-14.2,7.2L-14.3,7.0L-14.4,6.7L-14.6,6.5L-14.7,6.2L-14.8,6.0L-14.9,5.7L-15.0,5.5L-15.1,5.2L-15.2,4.9L-15.2,4.7L-15.3,4.4L-15.4,4.1L-15.5,3.9L-15.5,3.6L-15.6,3.3L-15.6,3.0L-15.7,2.8L-15.7,2.5L-15.8,2.2L-15.8,1.9L-15.8,1.7L-15.9,1.4L-15.9,1.1L-15.9,0.8L-37.5,1.3L-37.5,0.7L-37.5,0.0L-37.5,-0.7L-37.5,-1.3L-37.5,-2.0L-37.4,-2.6L-37.4,-3.3L-37.3,-3.9L-37.2,-4.6L-37.2,-5.2L-37.1,-5.9L-36.9,-6.5L-36.8,-7.2L-36.7,-7.8L-36.6,-8.4L-36.4,-9.1L-36.2,-9.7L-36.1,-10.3L-35.9,-11.0L-35.7,-11.6L-35.5,-12.2L-35.3,-12.8L-35.0,-13.4L-34.8,-14.1L-34.5,-14.7L-34.3,-15.3L-34.0,-15.9L-33.7,-16.4L-33.4,-17.0L-33.1,-17.6L-32.8,-18.2L-32.5,-18.8L-32.2,-19.3L-31.8,-19.9L-13.4,-8.7L-13.2,-8.9L-13.1,-9.1L-12.9,-9.4L-12.7,-9.6L-12.6,-9.8L-12.4,-10.0L-12.2,-10.2L-12.0,-10.5L-11.8,-10.7L-11.7,-10.9L-11.5,-11.1L-11.3,-11.3L-11.1,-11.5L-10.9,-11.7L-10.7,-11.8L-10.5,-12.0L-10.2,-12.2L-10.0,-12.4L-9.8,-12.6L-9.6,-12.7L-9.4,-12.9L-9.1,-13.1L-8.9,-13.2L-8.7,-13.4L-8.4,-13.5L-8.2,-13.7L-8.0,-13.8L-7.7,-13.9L-7.5,-14.1L-7.2,-14.2L-7.0,-14.3L-6.7,-14.4L-6.5,-14.6L-6.2,-14.7L-6.0,-14.8L-5.7,-14.9L-12.8,-35.3L-12.2,-35.5L-11.6,-35.7L-11.0,-35.9L-10.3,-36.1L-9.7,-36.2L-9.1,-36.4L-8.4,-36.6L-7.8,-36.7L-7.2,-36.8L-6.5,-36.9L-5.9,-37.1L-5.2,-37.2L-4.6,-37.2L-3.9,-37.3L-3.3,-37.4L-2.6,-37.4L-2.0,-37.5L-1.3,-37.5L-0.7,-37.5L-0.0,-37.5L0.7,-37.5L1.3,-37.5L2.0,-37.5L2.6,-37.4L3.3,-37.4L3.9,-37.3L4.6,-37.2L5.2,-37.2L5.9,-37.1L6.5,-36.9L7.2,-36.8L7.8,-36.7L8.4,-36.6L9.1,-36.4L9.7,-36.2L4.4,-15.3L4.7,-15.2L4.9,-15.2L5.2,-15.1L5.5,-15.0L5.7,-14.9L6.0,-14.8L6.2,-14.7L6.5,-14.6L6.7,-14.4L7.0,-14.3L7.2,-14.2L7.5,-14.1L7.7,-13.9L8.0,-13.8L8.2,-13.7L8.4,-13.5L8.7,-13.4L8.9,-13.2L9.1,-13.1L9.4,-12.9L9.6,-12.7L9.8,-12.6L10.0,-12.4L10.2,-12.2L10.5,-12.0L10.7,-11.8L10.9,-11.7L11.1,-11.5L11.3,-11.3L11.5,-11.1L11.7,-10.9L11.8,-10.7L12.0,-10.5L12.2,-10.2L12.4,-10.0L29.6,-23.1L30.0,-22.6L30.4,-22.1L30.7,-21.5L31.1,-21.0L31.5,-20.4L31.8,-19.9L32.2,-19.3L32.5,-18.8L32.8,-18.2L33.1,-17.6L33.4,-17.0L33.7,-16.4L34.0,-15.9L34.3,-15.3L34.5,-14.7L34.8,-14.1L35.0,-13.4L35.3,-12.8L35.5,-12.2L35.7,-11.6L35.9,-11.0L36.1,-10.3L36.2,-9.7L36.4,-9.1L36.6,-8.4L36.7,-7.8L36.8,-7.2L36.9,-6.5L37.1,-5.9L37.2,-5.2L37.2,-4.6L37.3,-3.9L37.4,-3.3L37.4,-2.6L37.5,-2.0L15.9,-0.6L15.9,-0.3L15.9,-0.0Z" fill="none" stroke="#ffffff" stroke-width="10.8" stroke-linecap="round" opacity="0.14" filter="url(#tg)"/><path d="M15.9,0.0L15.9,0.3L15.9,0.6L15.9,0.8L15.9,1.1L15.9,1.4L15.8,1.7L15.8,1.9L15.8,2.2L15.7,2.5L15.7,2.8L15.6,3.0L15.6,3.3L15.5,3.6L15.5,3.9L15.4,4.1L15.3,4.4L15.2,4.7L15.2,4.9L15.1,5.2L15.0,5.5L14.9,5.7L14.8,6.0L14.7,6.2L14.6,6.5L14.4,6.7L14.3,7.0L14.2,7.2L14.1,7.5L13.9,7.7L13.8,8.0L13.7,8.2L13.5,8.4L13.4,8.7L31.1,21.0L30.7,21.5L30.4,22.1L30.0,22.6L29.6,23.1L29.2,23.6L28.7,24.1L28.3,24.6L27.9,25.1L27.4,25.6L27.0,26.1L26.5,26.5L26.1,27.0L25.6,27.4L25.1,27.9L24.6,28.3L24.1,28.7L23.6,29.2L23.1,29.6L22.6,30.0L22.1,30.4L21.5,30.7L21.0,31.1L20.4,31.5L19.9,31.8L19.3,32.2L18.8,32.5L18.2,32.8L17.6,33.1L17.0,33.4L16.4,33.7L15.9,34.0L15.3,34.3L14.7,34.5L14.1,34.8L5.7,14.9L5.5,15.0L5.2,15.1L4.9,15.2L4.7,15.2L4.4,15.3L4.1,15.4L3.9,15.5L3.6,15.5L3.3,15.6L3.0,15.6L2.8,15.7L2.5,15.7L2.2,15.8L1.9,15.8L1.7,15.8L1.4,15.9L1.1,15.9L0.8,15.9L0.6,15.9L0.3,15.9L0.0,15.9L-0.3,15.9L-0.6,15.9L-0.8,15.9L-1.1,15.9L-1.4,15.9L-1.7,15.8L-1.9,15.8L-2.2,15.8L-2.5,15.7L-2.8,15.7L-3.0,15.6L-3.3,15.6L-3.6,15.5L-3.9,15.5L-4.1,15.4L-10.3,36.1L-11.0,35.9L-11.6,35.7L-12.2,35.5L-12.8,35.3L-13.4,35.0L-14.1,34.8L-14.7,34.5L-15.3,34.3L-15.9,34.0L-16.4,33.7L-17.0,33.4L-17.6,33.1L-18.2,32.8L-18.8,32.5L-19.3,32.2L-19.9,31.8L-20.4,31.5L-21.0,31.1L-21.5,30.7L-22.1,30.4L-22.6,30.0L-23.1,29.6L-23.6,29.2L-24.1,28.7L-24.6,28.3L-25.1,27.9L-25.6,27.4L-26.1,27.0L-26.5,26.5L-27.0,26.1L-27.4,25.6L-27.9,25.1L-28.3,24.6L-28.7,24.1L-12.4,10.0L-12.6,9.8L-12.7,9.6L-12.9,9.4L-13.1,9.1L-13.2,8.9L-13.4,8.7L-13.5,8.4L-13.7,8.2L-13.8,8.0L-13.9,7.7L-14.1,7.5L-14.2,7.2L-14.3,7.0L-14.4,6.7L-14.6,6.5L-14.7,6.2L-14.8,6.0L-14.9,5.7L-15.0,5.5L-15.1,5.2L-15.2,4.9L-15.2,4.7L-15.3,4.4L-15.4,4.1L-15.5,3.9L-15.5,3.6L-15.6,3.3L-15.6,3.0L-15.7,2.8L-15.7,2.5L-15.8,2.2L-15.8,1.9L-15.8,1.7L-15.9,1.4L-15.9,1.1L-15.9,0.8L-37.5,1.3L-37.5,0.7L-37.5,0.0L-37.5,-0.7L-37.5,-1.3L-37.5,-2.0L-37.4,-2.6L-37.4,-3.3L-37.3,-3.9L-37.2,-4.6L-37.2,-5.2L-37.1,-5.9L-36.9,-6.5L-36.8,-7.2L-36.7,-7.8L-36.6,-8.4L-36.4,-9.1L-36.2,-9.7L-36.1,-10.3L-35.9,-11.0L-35.7,-11.6L-35.5,-12.2L-35.3,-12.8L-35.0,-13.4L-34.8,-14.1L-34.5,-14.7L-34.3,-15.3L-34.0,-15.9L-33.7,-16.4L-33.4,-17.0L-33.1,-17.6L-32.8,-18.2L-32.5,-18.8L-32.2,-19.3L-31.8,-19.9L-13.4,-8.7L-13.2,-8.9L-13.1,-9.1L-12.9,-9.4L-12.7,-9.6L-12.6,-9.8L-12.4,-10.0L-12.2,-10.2L-12.0,-10.5L-11.8,-10.7L-11.7,-10.9L-11.5,-11.1L-11.3,-11.3L-11.1,-11.5L-10.9,-11.7L-10.7,-11.8L-10.5,-12.0L-10.2,-12.2L-10.0,-12.4L-9.8,-12.6L-9.6,-12.7L-9.4,-12.9L-9.1,-13.1L-8.9,-13.2L-8.7,-13.4L-8.4,-13.5L-8.2,-13.7L-8.0,-13.8L-7.7,-13.9L-7.5,-14.1L-7.2,-14.2L-7.0,-14.3L-6.7,-14.4L-6.5,-14.6L-6.2,-14.7L-6.0,-14.8L-5.7,-14.9L-12.8,-35.3L-12.2,-35.5L-11.6,-35.7L-11.0,-35.9L-10.3,-36.1L-9.7,-36.2L-9.1,-36.4L-8.4,-36.6L-7.8,-36.7L-7.2,-36.8L-6.5,-36.9L-5.9,-37.1L-5.2,-37.2L-4.6,-37.2L-3.9,-37.3L-3.3,-37.4L-2.6,-37.4L-2.0,-37.5L-1.3,-37.5L-0.7,-37.5L-0.0,-37.5L0.7,-37.5L1.3,-37.5L2.0,-37.5L2.6,-37.4L3.3,-37.4L3.9,-37.3L4.6,-37.2L5.2,-37.2L5.9,-37.1L6.5,-36.9L7.2,-36.8L7.8,-36.7L8.4,-36.6L9.1,-36.4L9.7,-36.2L4.4,-15.3L4.7,-15.2L4.9,-15.2L5.2,-15.1L5.5,-15.0L5.7,-14.9L6.0,-14.8L6.2,-14.7L6.5,-14.6L6.7,-14.4L7.0,-14.3L7.2,-14.2L7.5,-14.1L7.7,-13.9L8.0,-13.8L8.2,-13.7L8.4,-13.5L8.7,-13.4L8.9,-13.2L9.1,-13.1L9.4,-12.9L9.6,-12.7L9.8,-12.6L10.0,-12.4L10.2,-12.2L10.5,-12.0L10.7,-11.8L10.9,-11.7L11.1,-11.5L11.3,-11.3L11.5,-11.1L11.7,-10.9L11.8,-10.7L12.0,-10.5L12.2,-10.2L12.4,-10.0L29.6,-23.1L30.0,-22.6L30.4,-22.1L30.7,-21.5L31.1,-21.0L31.5,-20.4L31.8,-19.9L32.2,-19.3L32.5,-18.8L32.8,-18.2L33.1,-17.6L33.4,-17.0L33.7,-16.4L34.0,-15.9L34.3,-15.3L34.5,-14.7L34.8,-14.1L35.0,-13.4L35.3,-12.8L35.5,-12.2L35.7,-11.6L35.9,-11.0L36.1,-10.3L36.2,-9.7L36.4,-9.1L36.6,-8.4L36.7,-7.8L36.8,-7.2L36.9,-6.5L37.1,-5.9L37.2,-5.2L37.2,-4.6L37.3,-3.9L37.4,-3.3L37.4,-2.6L37.5,-2.0L15.9,-0.6L15.9,-0.3L15.9,-0.0Z" fill="none" stroke="#ffffff" stroke-width="3.6" stroke-linecap="round" opacity="0.95"/><path d="M32.3,0.0L32.3,0.6L32.3,1.1L32.2,1.7L32.2,2.3L32.2,2.8L32.1,3.4L32.0,3.9L32.0,4.5L31.9,5.1L31.8,5.6L31.7,6.2L31.6,6.7L31.5,7.3L31.3,7.8L31.2,8.4L31.0,8.9L30.9,9.4L10.2,3.3L10.1,3.5L10.1,3.7L10.0,3.8L9.9,4.0L9.9,4.2L9.8,4.4L9.7,4.5L9.6,4.7L9.5,4.9L9.5,5.0L9.4,5.2L9.3,5.4L9.2,5.5L9.1,5.7L9.0,5.8L8.9,6.0L8.8,6.1L8.7,6.3L8.6,6.4L8.4,6.6L8.3,6.7L8.2,6.9L8.1,7.0L8.0,7.2L7.8,7.3L7.7,7.4L7.6,7.6L7.4,7.7L7.3,7.8L7.2,8.0L7.0,8.1L6.9,8.2L6.7,8.3L6.6,8.4L6.4,8.6L19.0,26.1L18.5,26.4L18.1,26.8L17.6,27.1L17.1,27.4L16.6,27.7L16.1,28.0L15.7,28.2L15.2,28.5L14.7,28.8L14.2,29.0L13.6,29.3L13.1,29.5L12.6,29.7L12.1,29.9L11.6,30.1L11.0,30.3L10.5,30.5L10.0,30.7L9.4,30.9L8.9,31.0L8.4,31.2L7.8,31.3L7.3,31.5L6.7,31.6L6.2,31.7L5.6,31.8L5.1,31.9L4.5,32.0L3.9,32.0L3.4,32.1L2.8,32.2L2.3,32.2L1.7,32.2L1.1,32.3L0.6,32.3L0.0,10.7L-0.2,10.7L-0.4,10.7L-0.6,10.7L-0.7,10.7L-0.9,10.7L-1.1,10.6L-1.3,10.6L-1.5,10.6L-1.7,10.6L-1.9,10.5L-2.0,10.5L-2.2,10.5L-2.4,10.4L-2.6,10.4L-2.8,10.3L-3.0,10.3L-3.1,10.2L-3.3,10.2L-3.5,10.1L-3.7,10.1L-3.8,10.0L-4.0,9.9L-4.2,9.9L-4.4,9.8L-4.5,9.7L-4.7,9.6L-4.9,9.5L-5.0,9.5L-5.2,9.4L-5.4,9.3L-5.5,9.2L-5.7,9.1L-5.8,9.0L-6.0,8.9L-6.1,8.8L-19.0,26.1L-19.4,25.8L-19.9,25.4L-20.3,25.1L-20.8,24.7L-21.2,24.4L-21.6,24.0L-22.0,23.6L-22.4,23.2L-22.8,22.8L-23.2,22.4L-23.6,22.0L-24.0,21.6L-24.4,21.2L-24.7,20.8L-25.1,20.3L-25.4,19.9L-25.8,19.4L-26.1,19.0L-26.4,18.5L-26.8,18.1L-27.1,17.6L-27.4,17.1L-27.7,16.6L-28.0,16.1L-28.2,15.7L-28.5,15.2L-28.8,14.7L-29.0,14.2L-29.3,13.6L-29.5,13.1L-29.7,12.6L-29.9,12.1L-30.1,11.6L-30.3,11.0L-30.5,10.5L-10.2,3.3L-10.2,3.1L-10.3,3.0L-10.3,2.8L-10.4,2.6L-10.4,2.4L-10.5,2.2L-10.5,2.0L-10.5,1.9L-10.6,1.7L-10.6,1.5L-10.6,1.3L-10.6,1.1L-10.7,0.9L-10.7,0.7L-10.7,0.6L-10.7,0.4L-10.7,0.2L-10.7,0.0L-10.7,-0.2L-10.7,-0.4L-10.7,-0.6L-10.7,-0.7L-10.7,-0.9L-10.6,-1.1L-10.6,-1.3L-10.6,-1.5L-10.6,-1.7L-10.5,-1.9L-10.5,-2.0L-10.5,-2.2L-10.4,-2.4L-10.4,-2.6L-10.3,-2.8L-10.3,-3.0L-10.2,-3.1L-30.7,-10.0L-30.5,-10.5L-30.3,-11.0L-30.1,-11.6L-29.9,-12.1L-29.7,-12.6L-29.5,-13.1L-29.3,-13.6L-29.0,-14.2L-28.8,-14.7L-28.5,-15.2L-28.2,-15.7L-28.0,-16.1L-27.7,-16.6L-27.4,-17.1L-27.1,-17.6L-26.8,-18.1L-26.4,-18.5L-26.1,-19.0L-25.8,-19.4L-25.4,-19.9L-25.1,-20.3L-24.7,-20.8L-24.4,-21.2L-24.0,-21.6L-23.6,-22.0L-23.2,-22.4L-22.8,-22.8L-22.4,-23.2L-22.0,-23.6L-21.6,-24.0L-21.2,-24.4L-20.8,-24.7L-20.3,-25.1L-19.9,-25.4L-19.4,-25.8L-6.3,-8.7L-6.1,-8.8L-6.0,-8.9L-5.8,-9.0L-5.7,-9.1L-5.5,-9.2L-5.4,-9.3L-5.2,-9.4L-5.0,-9.5L-4.9,-9.5L-4.7,-9.6L-4.5,-9.7L-4.4,-9.8L-4.2,-9.9L-4.0,-9.9L-3.8,-10.0L-3.7,-10.1L-3.5,-10.1L-3.3,-10.2L-3.1,-10.2L-3.0,-10.3L-2.8,-10.3L-2.6,-10.4L-2.4,-10.4L-2.2,-10.5L-2.0,-10.5L-1.9,-10.5L-1.7,-10.6L-1.5,-10.6L-1.3,-10.6L-1.1,-10.6L-0.9,-10.7L-0.7,-10.7L-0.6,-10.7L-0.4,-10.7L-0.2,-10.7L-0.0,-32.3L0.6,-32.3L1.1,-32.3L1.7,-32.2L2.3,-32.2L2.8,-32.2L3.4,-32.1L3.9,-32.0L4.5,-32.0L5.1,-31.9L5.6,-31.8L6.2,-31.7L6.7,-31.6L7.3,-31.5L7.8,-31.3L8.4,-31.2L8.9,-31.0L9.4,-30.9L10.0,-30.7L10.5,-30.5L11.0,-30.3L11.6,-30.1L12.1,-29.9L12.6,-29.7L13.1,-29.5L13.6,-29.3L14.2,-29.0L14.7,-28.8L15.2,-28.5L15.7,-28.2L16.1,-28.0L16.6,-27.7L17.1,-27.4L17.6,-27.1L18.1,-26.8L18.5,-26.4L6.3,-8.7L6.4,-8.6L6.6,-8.4L6.7,-8.3L6.9,-8.2L7.0,-8.1L7.2,-8.0L7.3,-7.8L7.4,-7.7L7.6,-7.6L7.7,-7.4L7.8,-7.3L8.0,-7.2L8.1,-7.0L8.2,-6.9L8.3,-6.7L8.4,-6.6L8.6,-6.4L8.7,-6.3L8.8,-6.1L8.9,-6.0L9.0,-5.8L9.1,-5.7L9.2,-5.5L9.3,-5.4L9.4,-5.2L9.5,-5.0L9.5,-4.9L9.6,-4.7L9.7,-4.5L9.8,-4.4L9.9,-4.2L9.9,-4.0L10.0,-3.8L10.1,-3.7L10.1,-3.5L30.7,-10.0L30.9,-9.4L31.0,-8.9L31.2,-8.4L31.3,-7.8L31.5,-7.3L31.6,-6.7L31.7,-6.2L31.8,-5.6L31.9,-5.1L32.0,-4.5L32.0,-3.9L32.1,-3.4L32.2,-2.8L32.2,-2.3L32.2,-1.7L32.3,-1.1L32.3,-0.6L32.3,-0.0Z" fill="none" stroke="#ffffff" stroke-width="10.8" stroke-linecap="round" opacity="0.14" filter="url(#tg)"/><path d="M32.3,0.0L32.3,0.6L32.3,1.1L32.2,1.7L32.2,2.3L32.2,2.8L32.1,3.4L32.0,3.9L32.0,4.5L31.9,5.1L31.8,5.6L31.7,6.2L31.6,6.7L31.5,7.3L31.3,7.8L31.2,8.4L31.0,8.9L30.9,9.4L10.2,3.3L10.1,3.5L10.1,3.7L10.0,3.8L9.9,4.0L9.9,4.2L9.8,4.4L9.7,4.5L9.6,4.7L9.5,4.9L9.5,5.0L9.4,5.2L9.3,5.4L9.2,5.5L9.1,5.7L9.0,5.8L8.9,6.0L8.8,6.1L8.7,6.3L8.6,6.4L8.4,6.6L8.3,6.7L8.2,6.9L8.1,7.0L8.0,7.2L7.8,7.3L7.7,7.4L7.6,7.6L7.4,7.7L7.3,7.8L7.2,8.0L7.0,8.1L6.9,8.2L6.7,8.3L6.6,8.4L6.4,8.6L19.0,26.1L18.5,26.4L18.1,26.8L17.6,27.1L17.1,27.4L16.6,27.7L16.1,28.0L15.7,28.2L15.2,28.5L14.7,28.8L14.2,29.0L13.6,29.3L13.1,29.5L12.6,29.7L12.1,29.9L11.6,30.1L11.0,30.3L10.5,30.5L10.0,30.7L9.4,30.9L8.9,31.0L8.4,31.2L7.8,31.3L7.3,31.5L6.7,31.6L6.2,31.7L5.6,31.8L5.1,31.9L4.5,32.0L3.9,32.0L3.4,32.1L2.8,32.2L2.3,32.2L1.7,32.2L1.1,32.3L0.6,32.3L0.0,10.7L-0.2,10.7L-0.4,10.7L-0.6,10.7L-0.7,10.7L-0.9,10.7L-1.1,10.6L-1.3,10.6L-1.5,10.6L-1.7,10.6L-1.9,10.5L-2.0,10.5L-2.2,10.5L-2.4,10.4L-2.6,10.4L-2.8,10.3L-3.0,10.3L-3.1,10.2L-3.3,10.2L-3.5,10.1L-3.7,10.1L-3.8,10.0L-4.0,9.9L-4.2,9.9L-4.4,9.8L-4.5,9.7L-4.7,9.6L-4.9,9.5L-5.0,9.5L-5.2,9.4L-5.4,9.3L-5.5,9.2L-5.7,9.1L-5.8,9.0L-6.0,8.9L-6.1,8.8L-19.0,26.1L-19.4,25.8L-19.9,25.4L-20.3,25.1L-20.8,24.7L-21.2,24.4L-21.6,24.0L-22.0,23.6L-22.4,23.2L-22.8,22.8L-23.2,22.4L-23.6,22.0L-24.0,21.6L-24.4,21.2L-24.7,20.8L-25.1,20.3L-25.4,19.9L-25.8,19.4L-26.1,19.0L-26.4,18.5L-26.8,18.1L-27.1,17.6L-27.4,17.1L-27.7,16.6L-28.0,16.1L-28.2,15.7L-28.5,15.2L-28.8,14.7L-29.0,14.2L-29.3,13.6L-29.5,13.1L-29.7,12.6L-29.9,12.1L-30.1,11.6L-30.3,11.0L-30.5,10.5L-10.2,3.3L-10.2,3.1L-10.3,3.0L-10.3,2.8L-10.4,2.6L-10.4,2.4L-10.5,2.2L-10.5,2.0L-10.5,1.9L-10.6,1.7L-10.6,1.5L-10.6,1.3L-10.6,1.1L-10.7,0.9L-10.7,0.7L-10.7,0.6L-10.7,0.4L-10.7,0.2L-10.7,0.0L-10.7,-0.2L-10.7,-0.4L-10.7,-0.6L-10.7,-0.7L-10.7,-0.9L-10.6,-1.1L-10.6,-1.3L-10.6,-1.5L-10.6,-1.7L-10.5,-1.9L-10.5,-2.0L-10.5,-2.2L-10.4,-2.4L-10.4,-2.6L-10.3,-2.8L-10.3,-3.0L-10.2,-3.1L-30.7,-10.0L-30.5,-10.5L-30.3,-11.0L-30.1,-11.6L-29.9,-12.1L-29.7,-12.6L-29.5,-13.1L-29.3,-13.6L-29.0,-14.2L-28.8,-14.7L-28.5,-15.2L-28.2,-15.7L-28.0,-16.1L-27.7,-16.6L-27.4,-17.1L-27.1,-17.6L-26.8,-18.1L-26.4,-18.5L-26.1,-19.0L-25.8,-19.4L-25.4,-19.9L-25.1,-20.3L-24.7,-20.8L-24.4,-21.2L-24.0,-21.6L-23.6,-22.0L-23.2,-22.4L-22.8,-22.8L-22.4,-23.2L-22.0,-23.6L-21.6,-24.0L-21.2,-24.4L-20.8,-24.7L-20.3,-25.1L-19.9,-25.4L-19.4,-25.8L-6.3,-8.7L-6.1,-8.8L-6.0,-8.9L-5.8,-9.0L-5.7,-9.1L-5.5,-9.2L-5.4,-9.3L-5.2,-9.4L-5.0,-9.5L-4.9,-9.5L-4.7,-9.6L-4.5,-9.7L-4.4,-9.8L-4.2,-9.9L-4.0,-9.9L-3.8,-10.0L-3.7,-10.1L-3.5,-10.1L-3.3,-10.2L-3.1,-10.2L-3.0,-10.3L-2.8,-10.3L-2.6,-10.4L-2.4,-10.4L-2.2,-10.5L-2.0,-10.5L-1.9,-10.5L-1.7,-10.6L-1.5,-10.6L-1.3,-10.6L-1.1,-10.6L-0.9,-10.7L-0.7,-10.7L-0.6,-10.7L-0.4,-10.7L-0.2,-10.7L-0.0,-32.3L0.6,-32.3L1.1,-32.3L1.7,-32.2L2.3,-32.2L2.8,-32.2L3.4,-32.1L3.9,-32.0L4.5,-32.0L5.1,-31.9L5.6,-31.8L6.2,-31.7L6.7,-31.6L7.3,-31.5L7.8,-31.3L8.4,-31.2L8.9,-31.0L9.4,-30.9L10.0,-30.7L10.5,-30.5L11.0,-30.3L11.6,-30.1L12.1,-29.9L12.6,-29.7L13.1,-29.5L13.6,-29.3L14.2,-29.0L14.7,-28.8L15.2,-28.5L15.7,-28.2L16.1,-28.0L16.6,-27.7L17.1,-27.4L17.6,-27.1L18.1,-26.8L18.5,-26.4L6.3,-8.7L6.4,-8.6L6.6,-8.4L6.7,-8.3L6.9,-8.2L7.0,-8.1L7.2,-8.0L7.3,-7.8L7.4,-7.7L7.6,-7.6L7.7,-7.4L7.8,-7.3L8.0,-7.2L8.1,-7.0L8.2,-6.9L8.3,-6.7L8.4,-6.6L8.6,-6.4L8.7,-6.3L8.8,-6.1L8.9,-6.0L9.0,-5.8L9.1,-5.7L9.2,-5.5L9.3,-5.4L9.4,-5.2L9.5,-5.0L9.5,-4.9L9.6,-4.7L9.7,-4.5L9.8,-4.4L9.9,-4.2L9.9,-4.0L10.0,-3.8L10.1,-3.7L10.1,-3.5L30.7,-10.0L30.9,-9.4L31.0,-8.9L31.2,-8.4L31.3,-7.8L31.5,-7.3L31.6,-6.7L31.7,-6.2L31.8,-5.6L31.9,-5.1L32.0,-4.5L32.0,-3.9L32.1,-3.4L32.2,-2.8L32.2,-2.3L32.2,-1.7L32.3,-1.1L32.3,-0.6L32.3,-0.0Z" fill="none" stroke="#ffffff" stroke-width="3.6" stroke-linecap="round" opacity="0.95"/><path d="M5.5,0.0L5.5,0.1L5.5,0.2L27.0,1.4L27.0,1.9L27.0,2.4L26.9,2.8L26.9,3.3L26.8,3.8L26.7,4.2L26.6,4.7L26.6,5.2L26.5,5.6L26.4,6.1L26.3,6.5L26.1,7.0L26.0,7.5L25.9,7.9L25.7,8.4L25.6,8.8L25.4,9.3L25.3,9.7L25.1,10.1L24.9,10.6L24.7,11.0L24.5,11.4L24.3,11.9L24.1,12.3L23.9,12.7L23.7,13.1L23.4,13.5L23.2,13.9L22.9,14.3L22.7,14.7L22.4,15.1L22.2,15.5L21.9,15.9L21.6,16.3L4.3,3.4L4.3,3.4L4.2,3.5L4.1,3.6L4.1,3.7L4.0,3.7L3.9,3.8L3.9,3.9L3.8,3.9L3.7,4.0L3.7,4.1L3.6,4.1L3.5,4.2L3.4,4.3L3.4,4.3L3.3,4.4L3.2,4.4L3.1,4.5L3.1,4.5L3.0,4.6L2.9,4.6L2.8,4.7L2.7,4.7L2.7,4.8L2.6,4.8L2.5,4.9L2.4,4.9L2.3,5.0L2.2,5.0L2.1,5.0L2.1,5.1L2.0,5.1L1.9,5.1L1.8,5.2L1.7,5.2L1.6,5.2L1.5,5.3L7.0,26.1L6.5,26.3L6.1,26.4L5.6,26.5L5.2,26.6L4.7,26.6L4.2,26.7L3.8,26.8L3.3,26.9L2.8,26.9L2.4,27.0L1.9,27.0L1.4,27.0L0.9,27.0L0.5,27.1L0.0,27.1L-0.5,27.1L-0.9,27.0L-1.4,27.0L-1.9,27.0L-2.4,27.0L-2.8,26.9L-3.3,26.9L-3.8,26.8L-4.2,26.7L-4.7,26.6L-5.2,26.6L-5.6,26.5L-6.1,26.4L-6.5,26.3L-7.0,26.1L-7.5,26.0L-7.9,25.9L-8.4,25.7L-8.8,25.6L-1.9,5.1L-2.0,5.1L-2.1,5.1L-2.1,5.0L-2.2,5.0L-2.3,5.0L-2.4,4.9L-2.5,4.9L-2.6,4.8L-2.7,4.8L-2.7,4.7L-2.8,4.7L-2.9,4.6L-3.0,4.6L-3.1,4.5L-3.1,4.5L-3.2,4.4L-3.3,4.4L-3.4,4.3L-3.4,4.3L-3.5,4.2L-3.6,4.1L-3.7,4.1L-3.7,4.0L-3.8,3.9L-3.9,3.9L-3.9,3.8L-4.0,3.7L-4.1,3.7L-4.1,3.6L-4.2,3.5L-4.3,3.4L-4.3,3.4L-4.4,3.3L-4.4,3.2L-4.5,3.1L-4.5,3.1L-22.7,14.7L-22.9,14.3L-23.2,13.9L-23.4,13.5L-23.7,13.1L-23.9,12.7L-24.1,12.3L-24.3,11.9L-24.5,11.4L-24.7,11.0L-24.9,10.6L-25.1,10.1L-25.3,9.7L-25.4,9.3L-25.6,8.8L-25.7,8.4L-25.9,7.9L-26.0,7.5L-26.1,7.0L-26.3,6.5L-26.4,6.1L-26.5,5.6L-26.6,5.2L-26.6,4.7L-26.7,4.2L-26.8,3.8L-26.9,3.3L-26.9,2.8L-27.0,2.4L-27.0,1.9L-27.0,1.4L-27.0,0.9L-27.1,0.5L-27.1,0.0L-27.1,-0.5L-27.0,-0.9L-5.5,-0.3L-5.5,-0.4L-5.5,-0.5L-5.4,-0.6L-5.4,-0.7L-5.4,-0.8L-5.4,-0.9L-5.4,-1.0L-5.4,-1.0L-5.4,-1.1L-5.3,-1.2L-5.3,-1.3L-5.3,-1.4L-5.3,-1.5L-5.2,-1.6L-5.2,-1.7L-5.2,-1.8L-5.1,-1.9L-5.1,-2.0L-5.1,-2.1L-5.0,-2.1L-5.0,-2.2L-5.0,-2.3L-4.9,-2.4L-4.9,-2.5L-4.8,-2.6L-4.8,-2.7L-4.7,-2.7L-4.7,-2.8L-4.6,-2.9L-4.6,-3.0L-4.5,-3.1L-4.5,-3.1L-4.4,-3.2L-4.4,-3.3L-4.3,-3.4L-21.0,-17.0L-20.7,-17.4L-20.4,-17.8L-20.1,-18.1L-19.8,-18.5L-19.5,-18.8L-19.1,-19.1L-18.8,-19.5L-18.5,-19.8L-18.1,-20.1L-17.8,-20.4L-17.4,-20.7L-17.0,-21.0L-16.7,-21.3L-16.3,-21.6L-15.9,-21.9L-15.5,-22.2L-15.1,-22.4L-14.7,-22.7L-14.3,-22.9L-13.9,-23.2L-13.5,-23.4L-13.1,-23.7L-12.7,-23.9L-12.3,-24.1L-11.9,-24.3L-11.4,-24.5L-11.0,-24.7L-10.6,-24.9L-10.1,-25.1L-9.7,-25.3L-9.3,-25.4L-8.8,-25.6L-8.4,-25.7L-7.9,-25.9L-7.5,-26.0L-1.4,-5.3L-1.3,-5.3L-1.2,-5.3L-1.1,-5.4L-1.0,-5.4L-1.0,-5.4L-0.9,-5.4L-0.8,-5.4L-0.7,-5.4L-0.6,-5.4L-0.5,-5.5L-0.4,-5.5L-0.3,-5.5L-0.2,-5.5L-0.1,-5.5L-0.0,-5.5L0.1,-5.5L0.2,-5.5L0.3,-5.5L0.4,-5.5L0.5,-5.5L0.6,-5.4L0.7,-5.4L0.8,-5.4L0.9,-5.4L1.0,-5.4L1.0,-5.4L1.1,-5.4L1.2,-5.3L1.3,-5.3L1.4,-5.3L1.5,-5.3L1.6,-5.2L1.7,-5.2L1.8,-5.2L1.9,-5.1L9.7,-25.3L10.1,-25.1L10.6,-24.9L11.0,-24.7L11.4,-24.5L11.9,-24.3L12.3,-24.1L12.7,-23.9L13.1,-23.7L13.5,-23.4L13.9,-23.2L14.3,-22.9L14.7,-22.7L15.1,-22.4L15.5,-22.2L15.9,-21.9L16.3,-21.6L16.7,-21.3L17.0,-21.0L17.4,-20.7L17.8,-20.4L18.1,-20.1L18.5,-19.8L18.8,-19.5L19.1,-19.1L19.5,-18.8L19.8,-18.5L20.1,-18.1L20.4,-17.8L20.7,-17.4L21.0,-17.0L21.3,-16.7L21.6,-16.3L21.9,-15.9L22.2,-15.5L22.4,-15.1L4.6,-3.0L4.6,-2.9L4.7,-2.8L4.7,-2.7L4.8,-2.7L4.8,-2.6L4.9,-2.5L4.9,-2.4L5.0,-2.3L5.0,-2.2L5.0,-2.1L5.1,-2.1L5.1,-2.0L5.1,-1.9L5.2,-1.8L5.2,-1.7L5.2,-1.6L5.3,-1.5L5.3,-1.4L5.3,-1.3L5.3,-1.2L5.4,-1.1L5.4,-1.0L5.4,-1.0L5.4,-0.9L5.4,-0.8L5.4,-0.7L5.4,-0.6L5.5,-0.5L5.5,-0.4L5.5,-0.3L5.5,-0.2L5.5,-0.1L5.5,-0.0Z" fill="none" stroke="#ffffff" stroke-width="10.8" stroke-linecap="round" opacity="0.14" filter="url(#tg)"/><path d="M5.5,0.0L5.5,0.1L5.5,0.2L27.0,1.4L27.0,1.9L27.0,2.4L26.9,2.8L26.9,3.3L26.8,3.8L26.7,4.2L26.6,4.7L26.6,5.2L26.5,5.6L26.4,6.1L26.3,6.5L26.1,7.0L26.0,7.5L25.9,7.9L25.7,8.4L25.6,8.8L25.4,9.3L25.3,9.7L25.1,10.1L24.9,10.6L24.7,11.0L24.5,11.4L24.3,11.9L24.1,12.3L23.9,12.7L23.7,13.1L23.4,13.5L23.2,13.9L22.9,14.3L22.7,14.7L22.4,15.1L22.2,15.5L21.9,15.9L21.6,16.3L4.3,3.4L4.3,3.4L4.2,3.5L4.1,3.6L4.1,3.7L4.0,3.7L3.9,3.8L3.9,3.9L3.8,3.9L3.7,4.0L3.7,4.1L3.6,4.1L3.5,4.2L3.4,4.3L3.4,4.3L3.3,4.4L3.2,4.4L3.1,4.5L3.1,4.5L3.0,4.6L2.9,4.6L2.8,4.7L2.7,4.7L2.7,4.8L2.6,4.8L2.5,4.9L2.4,4.9L2.3,5.0L2.2,5.0L2.1,5.0L2.1,5.1L2.0,5.1L1.9,5.1L1.8,5.2L1.7,5.2L1.6,5.2L1.5,5.3L7.0,26.1L6.5,26.3L6.1,26.4L5.6,26.5L5.2,26.6L4.7,26.6L4.2,26.7L3.8,26.8L3.3,26.9L2.8,26.9L2.4,27.0L1.9,27.0L1.4,27.0L0.9,27.0L0.5,27.1L0.0,27.1L-0.5,27.1L-0.9,27.0L-1.4,27.0L-1.9,27.0L-2.4,27.0L-2.8,26.9L-3.3,26.9L-3.8,26.8L-4.2,26.7L-4.7,26.6L-5.2,26.6L-5.6,26.5L-6.1,26.4L-6.5,26.3L-7.0,26.1L-7.5,26.0L-7.9,25.9L-8.4,25.7L-8.8,25.6L-1.9,5.1L-2.0,5.1L-2.1,5.1L-2.1,5.0L-2.2,5.0L-2.3,5.0L-2.4,4.9L-2.5,4.9L-2.6,4.8L-2.7,4.8L-2.7,4.7L-2.8,4.7L-2.9,4.6L-3.0,4.6L-3.1,4.5L-3.1,4.5L-3.2,4.4L-3.3,4.4L-3.4,4.3L-3.4,4.3L-3.5,4.2L-3.6,4.1L-3.7,4.1L-3.7,4.0L-3.8,3.9L-3.9,3.9L-3.9,3.8L-4.0,3.7L-4.1,3.7L-4.1,3.6L-4.2,3.5L-4.3,3.4L-4.3,3.4L-4.4,3.3L-4.4,3.2L-4.5,3.1L-4.5,3.1L-22.7,14.7L-22.9,14.3L-23.2,13.9L-23.4,13.5L-23.7,13.1L-23.9,12.7L-24.1,12.3L-24.3,11.9L-24.5,11.4L-24.7,11.0L-24.9,10.6L-25.1,10.1L-25.3,9.7L-25.4,9.3L-25.6,8.8L-25.7,8.4L-25.9,7.9L-26.0,7.5L-26.1,7.0L-26.3,6.5L-26.4,6.1L-26.5,5.6L-26.6,5.2L-26.6,4.7L-26.7,4.2L-26.8,3.8L-26.9,3.3L-26.9,2.8L-27.0,2.4L-27.0,1.9L-27.0,1.4L-27.0,0.9L-27.1,0.5L-27.1,0.0L-27.1,-0.5L-27.0,-0.9L-5.5,-0.3L-5.5,-0.4L-5.5,-0.5L-5.4,-0.6L-5.4,-0.7L-5.4,-0.8L-5.4,-0.9L-5.4,-1.0L-5.4,-1.0L-5.4,-1.1L-5.3,-1.2L-5.3,-1.3L-5.3,-1.4L-5.3,-1.5L-5.2,-1.6L-5.2,-1.7L-5.2,-1.8L-5.1,-1.9L-5.1,-2.0L-5.1,-2.1L-5.0,-2.1L-5.0,-2.2L-5.0,-2.3L-4.9,-2.4L-4.9,-2.5L-4.8,-2.6L-4.8,-2.7L-4.7,-2.7L-4.7,-2.8L-4.6,-2.9L-4.6,-3.0L-4.5,-3.1L-4.5,-3.1L-4.4,-3.2L-4.4,-3.3L-4.3,-3.4L-21.0,-17.0L-20.7,-17.4L-20.4,-17.8L-20.1,-18.1L-19.8,-18.5L-19.5,-18.8L-19.1,-19.1L-18.8,-19.5L-18.5,-19.8L-18.1,-20.1L-17.8,-20.4L-17.4,-20.7L-17.0,-21.0L-16.7,-21.3L-16.3,-21.6L-15.9,-21.9L-15.5,-22.2L-15.1,-22.4L-14.7,-22.7L-14.3,-22.9L-13.9,-23.2L-13.5,-23.4L-13.1,-23.7L-12.7,-23.9L-12.3,-24.1L-11.9,-24.3L-11.4,-24.5L-11.0,-24.7L-10.6,-24.9L-10.1,-25.1L-9.7,-25.3L-9.3,-25.4L-8.8,-25.6L-8.4,-25.7L-7.9,-25.9L-7.5,-26.0L-1.4,-5.3L-1.3,-5.3L-1.2,-5.3L-1.1,-5.4L-1.0,-5.4L-1.0,-5.4L-0.9,-5.4L-0.8,-5.4L-0.7,-5.4L-0.6,-5.4L-0.5,-5.5L-0.4,-5.5L-0.3,-5.5L-0.2,-5.5L-0.1,-5.5L-0.0,-5.5L0.1,-5.5L0.2,-5.5L0.3,-5.5L0.4,-5.5L0.5,-5.5L0.6,-5.4L0.7,-5.4L0.8,-5.4L0.9,-5.4L1.0,-5.4L1.0,-5.4L1.1,-5.4L1.2,-5.3L1.3,-5.3L1.4,-5.3L1.5,-5.3L1.6,-5.2L1.7,-5.2L1.8,-5.2L1.9,-5.1L9.7,-25.3L10.1,-25.1L10.6,-24.9L11.0,-24.7L11.4,-24.5L11.9,-24.3L12.3,-24.1L12.7,-23.9L13.1,-23.7L13.5,-23.4L13.9,-23.2L14.3,-22.9L14.7,-22.7L15.1,-22.4L15.5,-22.2L15.9,-21.9L16.3,-21.6L16.7,-21.3L17.0,-21.0L17.4,-20.7L17.8,-20.4L18.1,-20.1L18.5,-19.8L18.8,-19.5L19.1,-19.1L19.5,-18.8L19.8,-18.5L20.1,-18.1L20.4,-17.8L20.7,-17.4L21.0,-17.0L21.3,-16.7L21.6,-16.3L21.9,-15.9L22.2,-15.5L22.4,-15.1L4.6,-3.0L4.6,-2.9L4.7,-2.8L4.7,-2.7L4.8,-2.7L4.8,-2.6L4.9,-2.5L4.9,-2.4L5.0,-2.3L5.0,-2.2L5.0,-2.1L5.1,-2.1L5.1,-2.0L5.1,-1.9L5.2,-1.8L5.2,-1.7L5.2,-1.6L5.3,-1.5L5.3,-1.4L5.3,-1.3L5.3,-1.2L5.4,-1.1L5.4,-1.0L5.4,-1.0L5.4,-0.9L5.4,-0.8L5.4,-0.7L5.4,-0.6L5.5,-0.5L5.5,-0.4L5.5,-0.3L5.5,-0.2L5.5,-0.1L5.5,-0.0Z" fill="none" stroke="#ffffff" stroke-width="3.6" stroke-linecap="round" opacity="0.95"/>
</svg>