<svg xmlns="http://www.w3.org/2000/svg" viewBox="-250 -250 500 500">
<rect x="-250" y="-250" width="500" height="500" fill="#000000"/>
<path d="M78.0,0.0L77.9,4.1L77.6,8.2L77.0,12.2L60.6,12.9L59.9,16.0L59.0,19.2L57.9,22.2L56.6,25.2L55.2,28.1L53.7,31.0L65.4,42.5L63.1,45.8L60.6,49.1L58.0,52.2L55.2,55.2L52.2,58.0L39.0,48.2L36.4,50.2L33.8,52.0L31.0,53.7L28.1,55.2L25.2,56.6L22.2,57.9L24.1,74.2L20.2,75.3L16.2,76.3L12.2,77.0L8.2,77.6L4.1,77.9L0.0,78.0L-3.2,61.9L-6.5,61.7L-9.7,61.2L-12.9,60.6L-16.0,59.9L-19.2,59.0L-28.0,72.8L-31.7,71.3L-35.4,69.5L-39.0,67.5L-42.5,65.4L-45.8,63.1L-49.1,60.6L-41.5,46.1L-43.8,43.8L-46.1,41.5L-48.2,39.0L-50.2,36.4L-52.0,33.8L-67.5,39.0L-69.5,35.4L-71.3,31.7L-72.8,28.0L-74.2,24.1L-75.3,20.2L-76.3,16.2L-61.2,9.7L-61.7,6.5L-61.9,3.2L-62.0,0.0L-61.9,-3.2L-61.7,-6.5L-61.2,-9.7L-76.3,-16.2L-75.3,-20.2L-74.2,-24.1L-72.8,-28.0L-71.3,-31.7L-69.5,-35.4L-53.7,-31.0L-52.0,-33.8L-50.2,-36.4L-48.2,-39.0L-46.1,-41.5L-43.8,-43.8L-41.5,-46.1L-49.1,-60.6L-45.8,-63.1L-42.5,-65.4L-39.0,-67.5L-35.4,-69.5L-31.7,-71.3L-28.0,-72.8L-19.2,-59.0L-16.0,-59.9L-12.9,-60.6L-9.7,-61.2L-6.5,-61.7L-3.2,-61.9L-0.0,-62.0L4.1,-77.9L8.2,-77.6L12.2,-77.0L16.2,-76.3L20.2,-75.3L24.1,-74.2L22.2,-57.9L25.2,-56.6L28.1,-55.2L31.0,-53.7L33.8,-52.0L36.4,-50.2L39.0,-48.2L52.2,-58.0L55.2,-55.2L58.0,-52.2L60.6,-49.1L63.1,-45.8L65.4,-42.5L67.5,-39.0L55.2,-28.1L56.6,-25.2L57.9,-22.2L59.0,-19.2L59.9,-16.0L60.6,-12.9L77.0,-12.2L77.6,-8.2L77.9,-4.1L78.0,-0.0Z" fill="none" stroke="#ffffff" stroke-width="3.6" stroke-linecap="round" opacity="0.95"/><path d="M55.7,0.0L55.6,2.9L55.4,5.8L55.0,8.7L54.5,11.6L53.8,14.4L53.0,17.2L66.9,25.7L65.5,29.2L63.9,32.6L62.1,35.8L60.1,39.1L58.0,42.1L43.3,35.1L41.4,37.3L39.4,39.4L37.3,41.4L35.1,43.3L32.7,45.1L30.3,46.7L35.9,62.1L32.6,63.9L29.2,65.5L25.7,66.9L22.2,68.2L18.6,69.3L14.9,70.1L8.7,55.0L5.8,55.4L2.9,55.6L0.0,55.7L-2.9,55.6L-5.8,55.4L-11.2,70.8L-14.9,70.1L-18.6,69.3L-22.2,68.2L-25.7,66.9L-29.2,65.5L-32.6,63.9L-27.8,48.2L-30.3,46.7L-32.7,45.1L-35.1,43.3L-37.3,41.4L-39.4,39.4L-41.4,37.3L-55.7,45.1L-58.0,42.1L-60.1,39.1L-62.1,35.8L-63.9,32.6L-65.5,29.2L-52.0,20.0L-53.0,17.2L-53.8,14.4L-54.5,11.6L-55.0,8.7L-55.4,5.8L-55.6,2.9L-71.7,0.0L-71.6,-3.8L-71.3,-7.5L-70.8,-11.2L-70.1,-14.9L-69.3,-18.6L-68.2,-22.2L-52.0,-20.0L-50.9,-22.7L-49.6,-25.3L-48.2,-27.9L-46.7,-30.3L-45.1,-32.7L-55.7,-45.1L-53.3,-48.0L-50.7,-50.7L-48.0,-53.3L-45.1,-55.7L-42.1,-58.0L-39.1,-60.1L-27.9,-48.2L-25.3,-49.6L-22.7,-50.9L-20.0,-52.0L-17.2,-53.0L-14.4,-53.8L-11.6,-54.5L-11.2,-70.8L-7.5,-71.3L-3.8,-71.6L-0.0,-71.7L3.8,-71.6L7.5,-71.3L8.7,-55.0L11.6,-54.5L14.4,-53.8L17.2,-53.0L20.0,-52.0L22.7,-50.9L25.3,-49.6L35.9,-62.1L39.1,-60.1L42.1,-58.0L45.1,-55.7L48.0,-53.3L50.7,-50.7L53.3,-48.0L43.3,-35.1L45.1,-32.7L46.7,-30.3L48.2,-27.9L49.6,-25.3L50.9,-22.7L66.9,-25.7L68.2,-22.2L69.3,-18.6L70.1,-14.9L70.8,-11.2L71.3,-7.5L71.6,-3.8L55.7,-0.0Z" fill="none" stroke="#ffffff" stroke-width="3.6" stroke-linecap="round" opacity="0.95"/><path d="M49.4,0.0L49.3,2.6L49.1,5.2L64.6,10.2L64.0,13.6L63.2,16.9L62.2,20.2L61.1,23.4L59.7,26.6L44.0,22.4L42.8,24.7L41.4,26.9L40.0,29.0L38.4,31.1L36.7,33.1L34.9,34.9L43.8,48.6L41.2,50.8L38.4,52.9L35.6,54.8L32.7,56.6L29.7,58.3L26.6,59.7L17.7,46.1L15.3,47.0L12.8,47.7L10.3,48.3L7.7,48.8L5.2,49.1L2.6,49.3L0.0,65.4L-3.4,65.3L-6.8,65.0L-10.2,64.6L-13.6,64.0L-16.9,63.2L-15.3,47.0L-17.7,46.1L-20.1,45.1L-22.4,44.0L-24.7,42.8L-26.9,41.4L-29.0,40.0L-41.2,50.8L-43.8,48.6L-46.2,46.2L-48.6,43.8L-50.8,41.2L-52.9,38.4L-54.8,35.6L-42.8,24.7L-44.0,22.4L-45.1,20.1L-46.1,17.7L-47.0,15.3L-47.7,12.8L-64.0,13.6L-64.6,10.2L-65.0,6.8L-65.3,3.4L-65.4,0.0L-65.3,-3.4L-65.0,-6.8L-48.8,-7.7L-48.3,-10.3L-47.7,-12.8L-47.0,-15.3L-46.1,-17.7L-45.1,-20.1L-44.0,-22.4L-56.6,-32.7L-54.8,-35.6L-52.9,-38.4L-50.8,-41.2L-48.6,-43.8L-46.2,-46.2L-33.1,-36.7L-31.1,-38.4L-29.0,-40.0L-26.9,-41.4L-24.7,-42.8L-22.4,-44.0L-20.1,-45.1L-23.4,-61.1L-20.2,-62.2L-16.9,-63.2L-13.6,-64.0L-10.2,-64.6L-6.8,-65.0L-2.6,-49.3L-0.0,-49.4L2.6,-49.3L5.2,-49.1L7.7,-48.8L10.3,-48.3L12.8,-47.7L20.2,-62.2L23.4,-61.1L26.6,-59.7L29.7,-58.3L32.7,-56.6L35.6,-54.8L38.4,-52.9L31.1,-38.4L33.1,-36.7L34.9,-34.9L36.7,-33.1L38.4,-31.1L40.0,-29.0L41.4,-26.9L56.6,-32.7L58.3,-29.7L59.7,-26.6L61.1,-23.4L62.2,-20.2L63.2,-16.9L48.3,-10.3L48.8,-7.7L49.1,-5.2L49.3,-2.6L49.4,-0.0Z" fill="none" stroke="#ffffff" stroke-width="3.6" stroke-linecap="round" opacity="0.95"/><path d="M59.1,0.0L59.0,3.1L58.8,6.2L58.4,9.2L57.8,12.3L57.1,15.3L41.0,13.3L40.2,15.4L39.4,17.5L38.4,19.6L37.3,21.5L36.1,23.5L47.8,34.7L45.9,37.2L43.9,39.5L41.8,41.8L39.5,43.9L37.2,45.9L34.7,47.8L23.5,36.1L21.6,37.3L19.6,38.4L17.5,39.4L15.4,40.2L13.3,41.0L11.2,41.6L12.3,57.8L9.2,58.4L6.2,58.8L3.1,59.0L0.0,59.1L-3.1,59.0L-4.5,42.9L-6.7,42.6L-9.0,42.2L-11.2,41.6L-13.3,41.0L-15.4,40.2L-17.5,39.4L-26.8,52.7L-29.5,51.2L-32.2,49.6L-34.7,47.8L-37.2,45.9L-39.5,43.9L-41.8,41.8L-32.0,28.8L-33.5,27.1L-34.9,25.3L-36.1,23.5L-37.3,21.5L-38.4,19.6L-54.0,24.0L-55.2,21.2L-56.2,18.3L-57.1,15.3L-57.8,12.3L-58.4,9.2L-58.8,6.2L-43.0,2.3L-43.1,0.0L-43.0,-2.3L-42.9,-4.5L-42.6,-6.7L-42.2,-9.0L-41.6,-11.2L-56.2,-18.3L-55.2,-21.2L-54.0,-24.0L-52.7,-26.8L-51.2,-29.6L-49.6,-32.2L-34.9,-25.3L-33.5,-27.1L-32.0,-28.8L-30.5,-30.5L-28.8,-32.0L-27.1,-33.5L-25.3,-34.9L-32.2,-49.6L-29.6,-51.2L-26.8,-52.7L-24.0,-54.0L-21.2,-55.2L-18.3,-56.2L-15.3,-57.1L-9.0,-42.2L-6.7,-42.6L-4.5,-42.9L-2.3,-43.0L-0.0,-43.1L2.3,-43.0L6.2,-58.8L9.2,-58.4L12.3,-57.8L15.3,-57.1L18.3,-56.2L21.2,-55.2L24.0,-54.0L19.6,-38.4L21.6,-37.3L23.5,-36.1L25.3,-34.9L27.1,-33.5L28.8,-32.0L30.5,-30.5L43.9,-39.5L45.9,-37.2L47.8,-34.7L49.6,-32.2L51.2,-29.6L52.7,-26.8L39.4,-17.5L40.2,-15.4L41.0,-13.3L41.6,-11.2L42.2,-9.0L42.6,-6.7L42.9,-4.5L59.0,-3.1L59.1,-0.0Z" fill="none" stroke="#ffffff" stroke-width="3.6" stroke-linecap="round" opacity="0.95"/><path d="M52.8,0.0L52.7,2.8L36.6,3.8L36.3,5.8L36.0,7.7L35.5,9.5L35.0,11.4L34.4,13.2L33.6,15.0L47.0,24.0L45.7,26.4L44.3,28.8L42.7,31.0L41.0,33.2L39.2,35.3L26.0,26.0L24.6,27.3L23.2,28.6L21.6,29.8L20.0,30.9L18.4,31.9L16.7,32.8L21.5,48.2L18.9,49.3L16.3,50.2L13.7,51.0L11.0,51.6L8.3,52.1L5.5,52.5L1.9,36.7L0.0,36.8L-1.9,36.7L-3.8,36.6L-5.8,36.3L-7.7,36.0L-13.7,51.0L-16.3,50.2L-18.9,49.3L-21.5,48.2L-24.0,47.0L-26.4,45.7L-28.8,44.3L-21.6,29.8L-23.2,28.6L-24.6,27.3L-26.0,26.0L-27.3,24.6L-28.6,23.2L-29.8,21.6L-44.3,28.8L-45.7,26.4L-47.0,24.0L-48.2,21.5L-49.3,18.9L-50.2,16.3L-35.5,9.5L-36.0,7.7L-36.3,5.8L-36.6,3.8L-36.7,1.9L-36.8,0.0L-36.7,-1.9L-52.5,-5.5L-52.1,-8.3L-51.6,-11.0L-51.0,-13.7L-50.2,-16.3L-49.3,-18.9L-48.2,-21.5L-32.8,-16.7L-31.9,-18.4L-30.9,-20.0L-29.8,-21.6L-28.6,-23.2L-27.3,-24.6L-37.3,-37.3L-35.3,-39.2L-33.2,-41.0L-31.0,-42.7L-28.8,-44.3L-26.4,-45.7L-24.0,-47.0L-15.0,-33.6L-13.2,-34.4L-11.4,-35.0L-9.5,-35.5L-7.7,-36.0L-5.8,-36.3L-3.8,-36.6L-2.8,-52.7L-0.0,-52.8L2.8,-52.7L5.5,-52.5L8.3,-52.1L11.0,-51.6L9.5,-35.5L11.4,-35.0L13.2,-34.4L15.0,-33.6L16.7,-32.8L18.4,-31.9L20.0,-30.9L31.0,-42.7L33.2,-41.0L35.3,-39.2L37.3,-37.3L39.2,-35.3L41.0,-33.2L42.7,-31.0L30.9,-20.0L31.9,-18.4L32.8,-16.7L33.6,-15.0L34.4,-13.2L35.0,-11.4L51.0,-13.7L51.6,-11.0L52.1,-8.3L52.5,-5.5L52.7,-2.8L52.8,-0.0Z" fill="none" stroke="#ffffff" stroke-width="3.6" stroke-linecap="round" opacity="0.95"/><path d="M30.5,0.0L30.5,1.6L30.3,3.2L30.1,4.8L29.8,6.3L44.9,12.0L44.2,14.4L43.4,16.7L42.5,18.9L41.4,21.1L40.3,23.2L25.6,16.6L24.7,17.9L23.7,19.2L22.7,20.4L21.6,21.6L20.4,22.7L19.2,23.7L27.3,37.6L25.3,39.0L23.3,40.3L21.1,41.4L18.9,42.5L16.7,43.4L14.4,44.2L7.9,29.5L6.3,29.8L4.8,30.1L3.2,30.3L1.6,30.5L0.0,30.5L-2.4,46.4L-4.9,46.2L-7.3,45.9L-9.7,45.5L-12.0,44.9L-14.4,44.2L-16.7,43.4L-12.4,27.9L-13.8,27.2L-15.2,26.4L-16.6,25.6L-17.9,24.7L-19.2,23.7L-20.4,22.7L-32.9,32.9L-34.6,31.1L-36.1,29.3L-37.6,27.3L-39.0,25.3L-40.3,23.2L-27.2,13.8L-27.9,12.4L-28.5,10.9L-29.0,9.4L-29.5,7.9L-29.8,6.3L-30.1,4.8L-46.2,4.9L-46.4,2.4L-46.5,0.0L-46.4,-2.4L-46.2,-4.9L-45.9,-7.3L-45.5,-9.7L-29.5,-7.9L-29.0,-9.4L-28.5,-10.9L-27.9,-12.4L-27.2,-13.8L-26.4,-15.3L-39.0,-25.3L-37.6,-27.3L-36.1,-29.3L-34.6,-31.1L-32.9,-32.9L-31.1,-34.6L-29.3,-36.1L-17.9,-24.7L-16.6,-25.6L-15.3,-26.4L-13.8,-27.2L-12.4,-27.9L-10.9,-28.5L-9.4,-29.0L-12.0,-44.9L-9.7,-45.5L-7.3,-45.9L-4.9,-46.2L-2.4,-46.4L-0.0,-46.5L1.6,-30.5L3.2,-30.3L4.8,-30.1L6.3,-29.8L7.9,-29.5L9.4,-29.0L10.9,-28.5L18.9,-42.5L21.1,-41.4L23.3,-40.3L25.3,-39.0L27.3,-37.6L29.3,-36.1L31.1,-34.6L21.6,-21.6L22.7,-20.4L23.7,-19.2L24.7,-17.9L25.6,-16.6L26.4,-15.3L41.4,-21.1L42.5,-18.9L43.4,-16.7L44.2,-14.4L44.9,-12.0L45.5,-9.7L45.9,-7.3L30.3,-3.2L30.5,-1.6L30.5,-0.0Z" fill="none" stroke="#ffffff" stroke-width="3.6" stroke-linecap="round" opacity="0.95"/><path d="M24.2,0.0L40.1,2.1L40.0,4.2L39.7,6.3L39.3,8.4L38.8,10.4L38.2,12.4L37.5,14.4L22.1,9.8L21.6,11.0L21.0,12.1L20.3,13.2L19.6,14.2L18.8,15.2L29.9,26.9L28.4,28.4L26.9,29.9L25.3,31.2L23.6,32.5L21.9,33.7L20.1,34.8L11.0,21.6L9.8,22.1L8.7,22.6L7.5,23.0L6.3,23.4L5.0,23.7L3.8,23.9L4.2,40.0L2.1,40.1L0.0,40.2L-2.1,40.1L-4.2,40.0L-6.3,39.7L-5.0,23.7L-6.3,23.4L-7.5,23.0L-8.7,22.6L-9.8,22.1L-11.0,21.6L-12.1,21.0L-21.9,33.7L-23.6,32.5L-25.3,31.2L-26.9,29.9L-28.4,28.4L-29.9,26.9L-31.2,25.3L-19.6,14.2L-20.3,13.2L-21.0,12.1L-21.6,11.0L-22.1,9.8L-22.6,8.7L-38.2,12.4L-38.8,10.4L-39.3,8.4L-39.7,6.3L-40.0,4.2L-40.1,2.1L-40.2,0.0L-24.2,-1.3L-24.1,-2.5L-23.9,-3.8L-23.7,-5.0L-23.4,-6.3L-23.0,-7.5L-37.5,-14.4L-36.7,-16.4L-35.8,-18.3L-34.8,-20.1L-33.7,-21.9L-32.5,-23.6L-31.2,-25.3L-18.0,-16.2L-17.1,-17.1L-16.2,-18.0L-15.2,-18.8L-14.2,-19.6L-13.2,-20.3L-12.1,-21.0L-18.3,-35.8L-16.4,-36.7L-14.4,-37.5L-12.4,-38.2L-10.4,-38.8L-8.4,-39.3L-6.3,-39.7L-2.5,-24.1L-1.3,-24.2L-0.0,-24.2L1.3,-24.2L2.5,-24.1L3.8,-23.9L8.4,-39.3L10.4,-38.8L12.4,-38.2L14.4,-37.5L16.4,-36.7L18.3,-35.8L20.1,-34.8L13.2,-20.3L14.2,-19.6L15.2,-18.8L16.2,-18.0L17.1,-17.1L18.0,-16.2L31.2,-25.3L32.5,-23.6L33.7,-21.9L34.8,-20.1L35.8,-18.3L36.7,-16.4L37.5,-14.4L23.0,-7.5L23.4,-6.3L23.7,-5.0L23.9,-3.8L24.1,-2.5L24.2,-1.3L24.2,-0.0Z" fill="none" stroke="#ffffff" stroke-width="3.6" stroke-linecap="round" opacity="0.95"/><path d="M33.9,0.0L33.9,1.8L33.7,3.5L33.5,5.3L17.5,3.7L17.3,4.6L17.0,5.5L16.7,6.4L16.4,7.3L15.9,8.1L29.4,16.9L28.4,18.5L27.4,19.9L26.3,21.3L25.2,22.7L24.0,24.0L22.7,25.2L11.3,13.9L10.5,14.5L9.7,15.0L9.0,15.5L8.1,15.9L7.3,16.4L6.4,16.7L10.5,32.2L8.8,32.7L7.0,33.2L5.3,33.5L3.5,33.7L1.8,33.9L0.0,17.9L-0.9,17.9L-1.9,17.8L-2.8,17.7L-3.7,17.5L-4.6,17.3L-5.5,17.0L-12.1,31.6L-13.8,31.0L-15.4,30.2L-16.9,29.4L-18.5,28.4L-19.9,27.4L-21.3,26.3L-12.0,13.3L-12.7,12.7L-13.3,12.0L-13.9,11.3L-14.5,10.5L-15.0,9.7L-29.4,16.9L-30.2,15.4L-31.0,13.8L-31.6,12.1L-32.2,10.5L-32.7,8.8L-33.2,7.0L-17.7,2.8L-17.8,1.9L-17.9,0.9L-17.9,0.0L-17.9,-0.9L-17.8,-1.9L-17.7,-2.8L-33.2,-7.0L-32.7,-8.8L-32.2,-10.5L-31.6,-12.1L-31.0,-13.8L-30.2,-15.4L-15.5,-9.0L-15.0,-9.7L-14.5,-10.5L-13.9,-11.3L-13.3,-12.0L-12.7,-12.7L-12.0,-13.3L-21.3,-26.3L-19.9,-27.4L-18.5,-28.4L-17.0,-29.4L-15.4,-30.2L-13.8,-31.0L-12.1,-31.6L-5.5,-17.0L-4.6,-17.3L-3.7,-17.5L-2.8,-17.7L-1.9,-17.8L-0.9,-17.9L-0.0,-33.9L1.8,-33.9L3.5,-33.7L5.3,-33.5L7.0,-33.2L8.8,-32.7L10.5,-32.2L6.4,-16.7L7.3,-16.4L8.1,-15.9L9.0,-15.5L9.7,-15.0L10.5,-14.5L11.3,-13.9L22.7,-25.2L24.0,-24.0L25.2,-22.7L26.3,-21.3L27.4,-19.9L28.4,-18.5L15.5,-9.0L15.9,-8.1L16.4,-7.3L16.7,-6.4L17.0,-5.5L17.3,-4.6L17.5,-3.7L33.5,-5.3L33.7,-3.5L33.9,-1.8L33.9,-0.0Z" fill="none" stroke="#ffffff" stroke-width="3.6" stroke-linecap="round" opacity="0.95"/><path d="M11.6,0.0L11.6,0.6L11.5,1.2L11.5,1.8L11.3,2.4L11.2,3.0L11.0,3.6L25.8,9.9L25.2,11.2L24.6,12.5L23.9,13.8L23.1,15.0L22.3,16.2L9.0,7.3L8.6,7.8L8.2,8.2L7.8,8.6L7.3,9.0L6.8,9.4L6.3,9.7L13.8,23.9L12.5,24.6L11.2,25.2L9.9,25.8L8.5,26.2L7.1,26.7L5.7,27.0L1.8,11.5L1.2,11.5L0.6,11.6L0.0,11.6L-0.6,11.6L-1.2,11.5L-4.3,27.3L-5.7,27.0L-7.1,26.7L-8.5,26.2L-9.9,25.8L-11.2,25.2L-12.5,24.6L-5.8,10.0L-6.3,9.7L-6.8,9.4L-7.3,9.0L-7.8,8.6L-8.2,8.2L-8.6,7.8L-21.4,17.4L-22.3,16.2L-23.1,15.0L-23.9,13.8L-24.6,12.5L-25.2,11.2L-10.8,4.2L-11.0,3.6L-11.2,3.0L-11.3,2.4L-11.5,1.8L-11.5,1.2L-11.6,0.6L-27.6,0.0L-27.6,-1.4L-27.4,-2.9L-27.3,-4.3L-27.0,-5.7L-26.7,-7.1L-26.2,-8.5L-10.8,-4.2L-10.6,-4.7L-10.3,-5.3L-10.0,-5.8L-9.7,-6.3L-9.4,-6.8L-21.4,-17.4L-20.5,-18.5L-19.5,-19.5L-18.5,-20.5L-17.4,-21.4L-16.2,-22.3L-15.0,-23.1L-5.8,-10.0L-5.3,-10.3L-4.7,-10.6L-4.2,-10.8L-3.6,-11.0L-3.0,-11.2L-2.4,-11.3L-4.3,-27.3L-2.9,-27.4L-1.4,-27.6L-0.0,-27.6L1.4,-27.6L2.9,-27.4L1.8,-11.5L2.4,-11.3L3.0,-11.2L3.6,-11.0L4.2,-10.8L4.7,-10.6L5.3,-10.3L13.8,-23.9L15.0,-23.1L16.2,-22.3L17.4,-21.4L18.5,-20.5L19.5,-19.5L20.5,-18.5L9.0,-7.3L9.4,-6.8L9.7,-6.3L10.0,-5.8L10.3,-5.3L10.6,-4.7L25.8,-9.9L26.2,-8.5L26.7,-7.1L27.0,-5.7L27.3,-4.3L27.4,-2.9L27.6,-1.4L11.6,-0.0Z" fill="none" stroke="#ffffff" stroke-width="3.6" stroke-linecap="round" opacity="0.95"/><path d="M5.3,0.0L5.3,0.3L5.3,0.6L21.0,3.3L20.8,4.4L20.6,5.5L20.3,6.6L19.9,7.6L19.5,8.7L4.7,2.4L4.6,2.7L4.4,2.9L4.3,3.1L4.1,3.3L3.9,3.5L3.7,3.7L14.3,15.8L13.4,16.6L12.5,17.2L11.6,17.9L10.7,18.4L9.7,19.0L8.7,19.5L1.9,4.9L1.6,5.0L1.4,5.1L1.1,5.2L0.8,5.2L0.6,5.3L1.1,21.3L0.0,21.3L-1.1,21.3L-2.2,21.2L-3.3,21.0L-4.4,20.8L-5.5,20.6L-1.6,5.0L-1.9,4.9L-2.2,4.8L-2.4,4.7L-2.7,4.6L-2.9,4.4L-3.1,4.3L-13.4,16.6L-14.3,15.8L-15.1,15.1L-15.8,14.3L-16.6,13.4L-17.2,12.5L-4.4,2.9L-4.6,2.7L-4.7,2.4L-4.8,2.2L-4.9,1.9L-5.0,1.6L-5.1,1.4L-20.8,4.4L-21.0,3.3L-21.2,2.2L-21.3,1.1L-21.3,0.0L-21.3,-1.1L-21.2,-2.2L-5.2,-0.8L-5.2,-1.1L-5.1,-1.4L-5.0,-1.6L-4.9,-1.9L-4.8,-2.2L-19.0,-9.7L-18.4,-10.7L-17.9,-11.6L-17.2,-12.5L-16.6,-13.4L-15.8,-14.3L-15.1,-15.1L-3.5,-3.9L-3.3,-4.1L-3.1,-4.3L-2.9,-4.4L-2.7,-4.6L-2.4,-4.7L-2.2,-4.8L-7.6,-19.9L-6.6,-20.3L-5.5,-20.6L-4.4,-20.8L-3.3,-21.0L-2.2,-21.2L-0.3,-5.3L-0.0,-5.3L0.3,-5.3L0.6,-5.3L0.8,-5.2L1.1,-5.2L1.4,-5.1L6.6,-20.3L7.6,-19.9L8.7,-19.5L9.7,-19.0L10.7,-18.4L11.6,-17.9L12.5,-17.2L3.3,-4.1L3.5,-3.9L3.7,-3.7L3.9,-3.5L4.1,-3.3L4.3,-3.1L17.9,-11.6L18.4,-10.7L19.0,-9.7L19.5,-8.7L19.9,-7.6L20.3,-6.6L20.6,-5.5L5.2,-1.1L5.2,-0.8L5.3,-0.6L5.3,-0.3L5.3,-0.0Z" fill="none" stroke="#ffffff" stroke-width="3.6" stroke-linecap="round" opacity="0.95"/>
</svg>