<svg xmlns="http://www.w3.org/2000/svg" viewBox="-250 -250 500 500">
<defs><filter id="tg"><feGaussianBlur stdDeviation="11.4"/></filter></defs>
<rect x="-250" y="-250" width="500" height="500" fill="#f186ec"/>
<path d="M61.6,0.0L60.9,3.2L58.9,6.2L55.8,8.8L51.7,11.0L47.0,12.6L42.0,13.7L37.0,14.2L32.4,14.4L28.4,14.5L25.2,14.6L23.0,14.9L21.7,15.7L21.3,17.2L21.6,19.5L22.5,22.5L23.7,26.4L25.0,30.8L26.0,35.7L26.5,40.8L26.4,45.8L25.6,50.3L24.1,54.1L21.9,56.9L19.0,58.6L15.8,58.9L12.3,57.9L8.8,55.8L5.5,52.6L2.5,48.6L0.0,44.2L-2.1,39.6L-3.7,35.3L-5.0,31.5L-6.1,28.5L-7.1,26.4L-8.3,25.5L-9.8,25.6L-11.8,26.6L-14.5,28.4L-17.7,30.7L-21.6,33.3L-26.0,35.7L-30.6,37.8L-35.4,39.3L-39.9,39.9L-44.0,39.6L-47.4,38.4L-49.8,36.2L-51.1,33.2L-51.3,29.6L-50.3,25.6L-48.3,21.5L-45.4,17.4L-42.0,13.7L-38.3,10.3L-34.7,7.4L-31.5,5.0L-29.0,3.0L-27.3,1.4L-26.8,0.0L-27.3,-1.4L-29.0,-3.0L-31.5,-5.0L-34.7,-7.4L-38.3,-10.3L-42.0,-13.7L-45.4,-17.4L-48.3,-21.5L-50.3,-25.6L-51.3,-29.6L-51.1,-33.2L-49.8,-36.2L-47.4,-38.4L-44.0,-39.6L-39.9,-39.9L-35.4,-39.3L-30.6,-37.8L-26.0,-35.7L-21.6,-33.3L-17.7,-30.7L-14.5,-28.4L-11.8,-26.6L-9.8,-25.6L-8.3,-25.5L-7.1,-26.4L-6.1,-28.5L-5.0,-31.5L-3.7,-35.3L-2.1,-39.6L-0.0,-44.2L2.5,-48.6L5.5,-52.6L8.8,-55.8L12.3,-57.9L15.8,-58.9L19.0,-58.6L21.9,-56.9L24.1,-54.1L25.6,-50.3L26.4,-45.8L26.5,-40.8L26.0,-35.7L25.0,-30.8L23.7,-26.4L22.5,-22.5L21.6,-19.5L21.3,-17.2L21.7,-15.7L23.0,-14.9L25.2,-14.6L28.4,-14.5L32.4,-14.4L37.0,-14.2L42.0,-13.7L47.0,-12.6L51.7,-11.0L55.8,-8.8L58.9,-6.2L60.9,-3.2L61.6,-0.0Z" fill="none" stroke="#c3f2f6" stroke-width="9.600000000000001" stroke-linecap="round" opacity="0.28" filter="url(#tg)"/><path d="M61.6,0.0L60.9,3.2L58.9,6.2L55.8,8.8L51.7,11.0L47.0,12.6L42.0,13.7L37.0,14.2L32.4,14.4L28.4,14.5L25.2,14.6L23.0,14.9L21.7,15.7L21.3,17.2L21.6,19.5L22.5,22.5L23.7,26.4L25.0,30.8L26.0,35.7L26.5,40.8L26.4,45.8L25.6,50.3L24.1,54.1L21.9,56.9L19.0,58.6L15.8,58.9L12.3,57.9L8.8,55.8L5.5,52.6L2.5,48.6L0.0,44.2L-2.1,39.6L-3.7,35.3L-5.0,31.5L-6.1,28.5L-7.1,26.4L-8.3,25.5L-9.8,25.6L-11.8,26.6L-14.5,28.4L-17.7,30.7L-21.6,33.3L-26.0,35.7L-30.6,37.8L-35.4,39.3L-39.9,39.9L-44.0,39.6L-47.4,38.4L-49.8,36.2L-51.1,33.2L-51.3,29.6L-50.3,25.6L-48.3,21.5L-45.4,17.4L-42.0,13.7L-38.3,10.3L-34.7,7.4L-31.5,5.0L-29.0,3.0L-27.3,1.4L-26.8,0.0L-27.3,-1.4L-29.0,-3.0L-31.5,-5.0L-34.7,-7.4L-38.3,-10.3L-42.0,-13.7L-45.4,-17.4L-48.3,-21.5L-50.3,-25.6L-51.3,-29.6L-51.1,-33.2L-49.8,-36.2L-47.4,-38.4L-44.0,-39.6L-39.9,-39.9L-35.4,-39.3L-30.6,-37.8L-26.0,-35.7L-21.6,-33.3L-17.7,-30.7L-14.5,-28.4L-11.8,-26.6L-9.8,-25.6L-8.3,-25.5L-7.1,-26.4L-6.1,-28.5L-5.0,-31.5L-3.7,-35.3L-2.1,-39.6L-0.0,-44.2L2.5,-48.6L5.5,-52.6L8.8,-55.8L12.3,-57.9L15.8,-58.9L19.0,-58.6L21.9,-56.9L24.1,-54.1L25.6,-50.3L26.4,-45.8L26.5,-40.8L26.0,-35.7L25.0,-30.8L23.7,-26.4L22.5,-22.5L21.6,-19.5L21.3,-17.2L21.7,-15.7L23.0,-14.9L25.2,-14.6L28.4,-14.5L32.4,-14.4L37.0,-14.2L42.0,-13.7L47.0,-12.6L51.7,-11.0L55.8,-8.8L58.9,-6.2L60.9,-3.2L61.6,-0.0Z" fill="none" stroke="#c3f2f6" stroke-width="3.2" stroke-linecap="round" opacity="0.95"/><path d="M65.1,0.0L66.5,3.5L66.6,7.0L65.4,10.4L62.9,13.4L59.3,15.9L54.8,17.8L49.8,19.1L44.6,19.9L39.6,20.2L34.9,20.1L30.9,20.0L27.7,20.1L25.4,20.5L24.0,21.6L23.4,23.4L23.4,26.0L23.8,29.4L24.5,33.7L25.0,38.5L25.2,43.6L24.9,48.9L24.0,53.9L22.4,58.3L20.1,61.9L17.2,64.3L13.9,65.5L10.4,65.4L6.7,63.9L3.2,61.3L0.0,57.7L-2.8,53.3L-5.1,48.6L-6.9,43.9L-8.4,39.4L-9.5,35.6L-10.6,32.5L-11.7,30.5L-13.1,29.5L-15.0,29.4L-17.5,30.3L-20.6,31.8L-24.5,33.7L-28.9,35.6L-33.7,37.4L-38.8,38.8L-43.8,39.5L-48.5,39.3L-52.6,38.2L-55.9,36.3L-58.0,33.5L-59.0,30.1L-58.7,26.2L-57.3,22.0L-54.8,17.8L-51.6,13.8L-47.8,10.2L-43.9,6.9L-40.1,4.2L-36.8,1.9L-34.2,0.0L-32.6,-1.7L-32.1,-3.4L-32.6,-5.2L-34.2,-7.3L-36.6,-9.8L-39.6,-12.9L-42.8,-16.4L-46.0,-20.5L-48.9,-24.9L-51.1,-29.5L-52.4,-34.0L-52.6,-38.2L-51.8,-41.9L-49.8,-44.8L-46.8,-46.8L-43.0,-47.8L-38.6,-47.7L-33.9,-46.6L-29.1,-44.8L-24.4,-42.3L-20.2,-39.6L-16.4,-36.8L-13.2,-34.4L-10.6,-32.5L-8.5,-31.5L-6.7,-31.6L-5.2,-32.6L-3.7,-34.8L-2.0,-37.8L-0.0,-41.6L2.4,-45.8L5.3,-50.1L8.6,-54.2L12.3,-57.7L16.2,-60.3L20.1,-61.9L23.9,-62.2L27.3,-61.2L30.1,-59.0L32.1,-55.7L33.4,-51.5L33.9,-46.6L33.6,-41.5L32.7,-36.3L31.4,-31.4L29.9,-27.0L28.6,-23.2L27.7,-20.1L27.4,-17.8L27.9,-16.1L29.4,-15.0L31.9,-14.2L35.4,-13.6L39.6,-12.9L44.3,-11.9L49.3,-10.5L54.2,-8.6L58.7,-6.2L62.4,-3.3L65.1,-0.0Z" fill="none" stroke="#c8f0f2" stroke-width="9.600000000000001" stroke-linecap="round" opacity="0.28" filter="url(#tg)"/><path d="M65.1,0.0L66.5,3.5L66.6,7.0L65.4,10.4L62.9,13.4L59.3,15.9L54.8,17.8L49.8,19.1L44.6,19.9L39.6,20.2L34.9,20.1L30.9,20.0L27.7,20.1L25.4,20.5L24.0,21.6L23.4,23.4L23.4,26.0L23.8,29.4L24.5,33.7L25.0,38.5L25.2,43.6L24.9,48.9L24.0,53.9L22.4,58.3L20.1,61.9L17.2,64.3L13.9,65.5L10.4,65.4L6.7,63.9L3.2,61.3L0.0,57.7L-2.8,53.3L-5.1,48.6L-6.9,43.9L-8.4,39.4L-9.5,35.6L-10.6,32.5L-11.7,30.5L-13.1,29.5L-15.0,29.4L-17.5,30.3L-20.6,31.8L-24.5,33.7L-28.9,35.6L-33.7,37.4L-38.8,38.8L-43.8,39.5L-48.5,39.3L-52.6,38.2L-55.9,36.3L-58.0,33.5L-59.0,30.1L-58.7,26.2L-57.3,22.0L-54.8,17.8L-51.6,13.8L-47.8,10.2L-43.9,6.9L-40.1,4.2L-36.8,1.9L-34.2,0.0L-32.6,-1.7L-32.1,-3.4L-32.6,-5.2L-34.2,-7.3L-36.6,-9.8L-39.6,-12.9L-42.8,-16.4L-46.0,-20.5L-48.9,-24.9L-51.1,-29.5L-52.4,-34.0L-52.6,-38.2L-51.8,-41.9L-49.8,-44.8L-46.8,-46.8L-43.0,-47.8L-38.6,-47.7L-33.9,-46.6L-29.1,-44.8L-24.4,-42.3L-20.2,-39.6L-16.4,-36.8L-13.2,-34.4L-10.6,-32.5L-8.5,-31.5L-6.7,-31.6L-5.2,-32.6L-3.7,-34.8L-2.0,-37.8L-0.0,-41.6L2.4,-45.8L5.3,-50.1L8.6,-54.2L12.3,-57.7L16.2,-60.3L20.1,-61.9L23.9,-62.2L27.3,-61.2L30.1,-59.0L32.1,-55.7L33.4,-51.5L33.9,-46.6L33.6,-41.5L32.7,-36.3L31.4,-31.4L29.9,-27.0L28.6,-23.2L27.7,-20.1L27.4,-17.8L27.9,-16.1L29.4,-15.0L31.9,-14.2L35.4,-13.6L39.6,-12.9L44.3,-11.9L49.3,-10.5L54.2,-8.6L58.7,-6.2L62.4,-3.3L65.1,-0.0Z" fill="none" stroke="#c8f0f2" stroke-width="3.2" stroke-linecap="round" opacity="0.95"/><path d="M65.1,0.0L68.3,3.6L70.5,7.4L71.3,11.3L70.8,15.1L69.0,18.5L65.9,21.4L61.9,23.7L57.0,25.4L51.8,26.4L46.4,26.8L41.2,26.8L36.5,26.5L32.5,26.3L29.2,26.3L26.8,26.8L25.3,28.1L24.4,30.1L24.0,33.0L23.9,36.8L23.9,41.3L23.6,46.4L23.0,51.7L21.9,57.0L20.1,61.9L17.7,66.1L14.7,69.3L11.3,71.3L7.6,72.0L3.7,71.3L0.0,69.3L-3.5,66.2L-6.5,62.1L-9.1,57.4L-11.1,52.4L-12.7,47.5L-13.9,42.9L-15.0,39.0L-16.0,35.9L-17.2,33.8L-18.9,32.7L-21.1,32.5L-24.0,33.0L-27.6,34.1L-31.9,35.5L-36.8,36.8L-42.1,37.9L-47.4,38.4L-52.6,38.2L-57.4,37.3L-61.4,35.4L-64.3,32.8L-66.1,29.5L-66.7,25.6L-65.9,21.4L-64.0,17.1L-61.1,13.0L-57.4,9.1L-53.3,5.6L-49.1,2.6L-45.1,0.0L-41.7,-2.2L-39.1,-4.1L-37.5,-5.9L-36.9,-7.9L-37.4,-10.0L-38.8,-12.6L-41.0,-15.7L-43.6,-19.4L-46.4,-23.6L-49.0,-28.3L-51.2,-33.2L-52.6,-38.2L-53.2,-43.0L-52.6,-47.4L-51.1,-51.1L-48.5,-53.8L-44.9,-55.5L-40.8,-56.1L-36.1,-55.6L-31.2,-54.1L-26.4,-51.8L-21.8,-48.9L-17.6,-45.9L-13.9,-42.9L-10.8,-40.3L-8.2,-38.5L-5.9,-37.5L-3.9,-37.6L-2.0,-38.7L-0.0,-40.8L2.3,-43.8L5.0,-47.5L8.1,-51.4L11.8,-55.4L15.8,-59.0L20.1,-61.9L24.5,-63.9L28.8,-64.7L32.8,-64.3L36.2,-62.7L38.9,-59.9L40.8,-56.1L41.7,-51.5L41.8,-46.4L41.1,-41.1L39.8,-35.8L38.2,-30.9L36.5,-26.5L35.0,-22.7L34.1,-19.7L33.8,-17.2L34.5,-15.4L36.2,-13.9L38.8,-12.6L42.4,-11.4L46.7,-9.9L51.4,-8.1L56.3,-5.9L60.9,-3.2L65.1,-0.0Z" fill="none" stroke="#cdeeee" stroke-width="9.600000000000001" stroke-linecap="round" opacity="0.28" filter="url(#tg)"/><path d="M65.1,0.0L68.3,3.6L70.5,7.4L71.3,11.3L70.8,15.1L69.0,18.5L65.9,21.4L61.9,23.7L57.0,25.4L51.8,26.4L46.4,26.8L41.2,26.8L36.5,26.5L32.5,26.3L29.2,26.3L26.8,26.8L25.3,28.1L24.4,30.1L24.0,33.0L23.9,36.8L23.9,41.3L23.6,46.4L23.0,51.7L21.9,57.0L20.1,61.9L17.7,66.1L14.7,69.3L11.3,71.3L7.6,72.0L3.7,71.3L0.0,69.3L-3.5,66.2L-6.5,62.1L-9.1,57.4L-11.1,52.4L-12.7,47.5L-13.9,42.9L-15.0,39.0L-16.0,35.9L-17.2,33.8L-18.9,32.7L-21.1,32.5L-24.0,33.0L-27.6,34.1L-31.9,35.5L-36.8,36.8L-42.1,37.9L-47.4,38.4L-52.6,38.2L-57.4,37.3L-61.4,35.4L-64.3,32.8L-66.1,29.5L-66.7,25.6L-65.9,21.4L-64.0,17.1L-61.1,13.0L-57.4,9.1L-53.3,5.6L-49.1,2.6L-45.1,0.0L-41.7,-2.2L-39.1,-4.1L-37.5,-5.9L-36.9,-7.9L-37.4,-10.0L-38.8,-12.6L-41.0,-15.7L-43.6,-19.4L-46.4,-23.6L-49.0,-28.3L-51.2,-33.2L-52.6,-38.2L-53.2,-43.0L-52.6,-47.4L-51.1,-51.1L-48.5,-53.8L-44.9,-55.5L-40.8,-56.1L-36.1,-55.6L-31.2,-54.1L-26.4,-51.8L-21.8,-48.9L-17.6,-45.9L-13.9,-42.9L-10.8,-40.3L-8.2,-38.5L-5.9,-37.5L-3.9,-37.6L-2.0,-38.7L-0.0,-40.8L2.3,-43.8L5.0,-47.5L8.1,-51.4L11.8,-55.4L15.8,-59.0L20.1,-61.9L24.5,-63.9L28.8,-64.7L32.8,-64.3L36.2,-62.7L38.9,-59.9L40.8,-56.1L41.7,-51.5L41.8,-46.4L41.1,-41.1L39.8,-35.8L38.2,-30.9L36.5,-26.5L35.0,-22.7L34.1,-19.7L33.8,-17.2L34.5,-15.4L36.2,-13.9L38.8,-12.6L42.4,-11.4L46.7,-9.9L51.4,-8.1L56.3,-5.9L60.9,-3.2L65.1,-0.0Z" fill="none" stroke="#cdeeee" stroke-width="3.2" stroke-linecap="round" opacity="0.95"/><path d="M62.8,0.0L67.1,3.5L70.7,7.4L73.4,11.6L74.9,15.9L75.1,20.1L74.0,24.0L71.5,27.5L67.9,30.2L63.4,32.3L58.2,33.6L52.7,34.2L47.1,34.2L41.9,33.9L37.1,33.4L33.0,33.0L29.8,33.0L27.2,33.6L25.4,35.0L24.2,37.3L23.4,40.5L22.7,44.5L21.9,49.2L20.9,54.4L19.4,59.7L17.4,64.9L14.8,69.6L11.6,73.4L8.0,76.2L4.1,77.7L0.0,77.8L-4.0,76.5L-7.8,73.9L-11.1,70.2L-14.0,65.7L-16.3,60.7L-18.0,55.4L-19.3,50.3L-20.3,45.6L-21.2,41.6L-22.2,38.5L-23.6,36.3L-25.4,35.0L-28.0,34.6L-31.3,34.7L-35.3,35.3L-40.0,36.1L-45.3,36.7L-50.8,36.9L-56.4,36.6L-61.6,35.6L-66.2,33.7L-70.0,31.2L-72.6,27.9L-74.0,24.0L-74.0,19.8L-72.7,15.5L-70.2,11.1L-66.8,7.0L-62.7,3.3L-58.3,0.0L-53.8,-2.8L-49.7,-5.2L-46.2,-7.3L-43.5,-9.2L-41.8,-11.2L-41.2,-13.4L-41.5,-15.9L-42.7,-19.0L-44.5,-22.7L-46.7,-26.9L-48.9,-31.7L-50.8,-36.9L-52.2,-42.3L-52.9,-47.6L-52.6,-52.6L-51.3,-56.9L-48.9,-60.4L-45.7,-62.9L-41.7,-64.2L-37.2,-64.4L-32.3,-63.4L-27.3,-61.4L-22.5,-58.6L-18.0,-55.4L-13.9,-52.0L-10.4,-48.9L-7.3,-46.2L-4.6,-44.2L-2.3,-43.2L-0.0,-43.3L2.3,-44.4L4.9,-46.5L7.8,-49.3L11.2,-52.7L15.1,-56.3L19.4,-59.7L24.1,-62.7L28.9,-65.0L33.7,-66.2L38.3,-66.3L42.4,-65.2L45.7,-62.9L48.2,-59.5L49.7,-55.2L50.3,-50.3L49.9,-45.0L48.8,-39.5L47.1,-34.2L45.2,-29.3L43.3,-25.0L41.6,-21.2L40.6,-18.1L40.4,-15.5L41.2,-13.4L43.0,-11.5L45.7,-9.7L49.3,-7.8L53.6,-5.6L58.2,-3.0L62.8,-0.0Z" fill="none" stroke="#d2ece9" stroke-width="9.600000000000001" stroke-linecap="round" opacity="0.28" filter="url(#tg)"/><path d="M62.8,0.0L67.1,3.5L70.7,7.4L73.4,11.6L74.9,15.9L75.1,20.1L74.0,24.0L71.5,27.5L67.9,30.2L63.4,32.3L58.2,33.6L52.7,34.2L47.1,34.2L41.9,33.9L37.1,33.4L33.0,33.0L29.8,33.0L27.2,33.6L25.4,35.0L24.2,37.3L23.4,40.5L22.7,44.5L21.9,49.2L20.9,54.4L19.4,59.7L17.4,64.9L14.8,69.6L11.6,73.4L8.0,76.2L4.1,77.7L0.0,77.8L-4.0,76.5L-7.8,73.9L-11.1,70.2L-14.0,65.7L-16.3,60.7L-18.0,55.4L-19.3,50.3L-20.3,45.6L-21.2,41.6L-22.2,38.5L-23.6,36.3L-25.4,35.0L-28.0,34.6L-31.3,34.7L-35.3,35.3L-40.0,36.1L-45.3,36.7L-50.8,36.9L-56.4,36.6L-61.6,35.6L-66.2,33.7L-70.0,31.2L-72.6,27.9L-74.0,24.0L-74.0,19.8L-72.7,15.5L-70.2,11.1L-66.8,7.0L-62.7,3.3L-58.3,0.0L-53.8,-2.8L-49.7,-5.2L-46.2,-7.3L-43.5,-9.2L-41.8,-11.2L-41.2,-13.4L-41.5,-15.9L-42.7,-19.0L-44.5,-22.7L-46.7,-26.9L-48.9,-31.7L-50.8,-36.9L-52.2,-42.3L-52.9,-47.6L-52.6,-52.6L-51.3,-56.9L-48.9,-60.4L-45.7,-62.9L-41.7,-64.2L-37.2,-64.4L-32.3,-63.4L-27.3,-61.4L-22.5,-58.6L-18.0,-55.4L-13.9,-52.0L-10.4,-48.9L-7.3,-46.2L-4.6,-44.2L-2.3,-43.2L-0.0,-43.3L2.3,-44.4L4.9,-46.5L7.8,-49.3L11.2,-52.7L15.1,-56.3L19.4,-59.7L24.1,-62.7L28.9,-65.0L33.7,-66.2L38.3,-66.3L42.4,-65.2L45.7,-62.9L48.2,-59.5L49.7,-55.2L50.3,-50.3L49.9,-45.0L48.8,-39.5L47.1,-34.2L45.2,-29.3L43.3,-25.0L41.6,-21.2L40.6,-18.1L40.4,-15.5L41.2,-13.4L43.0,-11.5L45.7,-9.7L49.3,-7.8L53.6,-5.6L58.2,-3.0L62.8,-0.0Z" fill="none" stroke="#d2ece9" stroke-width="3.2" stroke-linecap="round" opacity="0.95"/><path d="M60.0,0.0L64.4,3.4L68.6,7.2L72.4,11.5L75.5,16.0L77.5,20.8L78.3,25.4L77.8,29.9L75.9,33.8L72.8,37.1L68.7,39.7L63.7,41.4L58.2,42.3L52.5,42.5L46.8,42.1L41.5,41.5L36.7,40.7L32.6,40.2L29.2,40.2L26.5,40.8L24.4,42.3L22.8,44.8L21.4,48.1L20.1,52.3L18.6,57.1L16.7,62.3L14.3,67.5L11.5,72.4L8.1,76.7L4.2,80.1L0.0,82.3L-4.4,83.2L-8.7,82.7L-12.8,80.7L-16.5,77.6L-19.7,73.4L-22.2,68.4L-24.2,63.0L-25.6,57.5L-26.6,52.2L-27.4,47.5L-28.2,43.4L-29.2,40.2L-30.6,37.8L-32.7,36.3L-35.5,35.5L-39.1,35.2L-43.5,35.3L-48.6,35.3L-54.1,35.1L-59.8,34.5L-65.3,33.3L-70.5,31.4L-74.9,28.8L-78.3,25.4L-80.5,21.6L-81.3,17.3L-80.7,12.8L-78.9,8.3L-75.9,4.0L-71.9,0.0L-67.4,-3.5L-62.6,-6.6L-57.9,-9.2L-53.6,-11.4L-50.0,-13.4L-47.2,-15.3L-45.4,-17.4L-44.6,-19.9L-44.8,-22.8L-45.6,-26.3L-47.0,-30.5L-48.6,-35.3L-50.1,-40.6L-51.3,-46.2L-51.9,-51.9L-51.6,-57.3L-50.5,-62.4L-48.4,-66.6L-45.4,-69.9L-41.6,-72.0L-37.1,-72.8L-32.3,-72.5L-27.2,-70.9L-22.2,-68.4L-17.5,-65.2L-13.1,-61.6L-9.2,-57.9L-5.7,-54.5L-2.7,-51.7L-0.0,-49.6L2.5,-48.6L5.1,-48.6L7.9,-49.6L10.9,-51.5L14.5,-54.1L18.6,-57.1L23.1,-60.2L28.1,-63.0L33.3,-65.3L38.6,-66.8L43.7,-67.3L48.4,-66.6L52.4,-64.7L55.6,-61.8L57.8,-57.8L58.9,-53.1L59.0,-47.8L58.2,-42.3L56.6,-36.8L54.5,-31.5L52.2,-26.6L50.1,-22.3L48.3,-18.5L47.2,-15.3L47.0,-12.6L47.8,-10.2L49.6,-7.9L52.4,-5.5L55.9,-2.9L60.0,-0.0Z" fill="none" stroke="#d7ebe5" stroke-width="9.600000000000001" stroke-linecap="round" opacity="0.28" filter="url(#tg)"/><path d="M60.0,0.0L64.4,3.4L68.6,7.2L72.4,11.5L75.5,16.0L77.5,20.8L78.3,25.4L77.8,29.9L75.9,33.8L72.8,37.1L68.7,39.7L63.7,41.4L58.2,42.3L52.5,42.5L46.8,42.1L41.5,41.5L36.7,40.7L32.6,40.2L29.2,40.2L26.5,40.8L24.4,42.3L22.8,44.8L21.4,48.1L20.1,52.3L18.6,57.1L16.7,62.3L14.3,67.5L11.5,72.4L8.1,76.7L4.2,80.1L0.0,82.3L-4.4,83.2L-8.7,82.7L-12.8,80.7L-16.5,77.6L-19.7,73.4L-22.2,68.4L-24.2,63.0L-25.6,57.5L-26.6,52.2L-27.4,47.5L-28.2,43.4L-29.2,40.2L-30.6,37.8L-32.7,36.3L-35.5,35.5L-39.1,35.2L-43.5,35.3L-48.6,35.3L-54.1,35.1L-59.8,34.5L-65.3,33.3L-70.5,31.4L-74.9,28.8L-78.3,25.4L-80.5,21.6L-81.3,17.3L-80.7,12.8L-78.9,8.3L-75.9,4.0L-71.9,0.0L-67.4,-3.5L-62.6,-6.6L-57.9,-9.2L-53.6,-11.4L-50.0,-13.4L-47.2,-15.3L-45.4,-17.4L-44.6,-19.9L-44.8,-22.8L-45.6,-26.3L-47.0,-30.5L-48.6,-35.3L-50.1,-40.6L-51.3,-46.2L-51.9,-51.9L-51.6,-57.3L-50.5,-62.4L-48.4,-66.6L-45.4,-69.9L-41.6,-72.0L-37.1,-72.8L-32.3,-72.5L-27.2,-70.9L-22.2,-68.4L-17.5,-65.2L-13.1,-61.6L-9.2,-57.9L-5.7,-54.5L-2.7,-51.7L-0.0,-49.6L2.5,-48.6L5.1,-48.6L7.9,-49.6L10.9,-51.5L14.5,-54.1L18.6,-57.1L23.1,-60.2L28.1,-63.0L33.3,-65.3L38.6,-66.8L43.7,-67.3L48.4,-66.6L52.4,-64.7L55.6,-61.8L57.8,-57.8L58.9,-53.1L59.0,-47.8L58.2,-42.3L56.6,-36.8L54.5,-31.5L52.2,-26.6L50.1,-22.3L48.3,-18.5L47.2,-15.3L47.0,-12.6L47.8,-10.2L49.6,-7.9L52.4,-5.5L55.9,-2.9L60.0,-0.0Z" fill="none" stroke="#d7ebe5" stroke-width="3.2" stroke-linecap="round" opacity="0.95"/><path d="M58.6,0.0L62.0,3.2L65.8,6.9L69.8,11.1L73.6,15.6L76.8,20.6L79.1,25.7L80.4,30.9L80.4,35.8L79.1,40.3L76.6,44.2L72.9,47.3L68.2,49.5L62.8,50.8L57.0,51.3L51.1,51.1L45.3,50.3L39.9,49.3L35.1,48.3L30.9,47.6L27.4,47.5L24.5,48.2L22.2,49.8L20.1,52.3L18.1,55.7L16.1,60.0L13.8,64.8L11.1,69.8L7.9,74.8L4.2,79.4L0.0,83.2L-4.5,86.0L-9.2,87.5L-13.9,87.7L-18.4,86.5L-22.5,83.9L-26.0,80.1L-29.0,75.4L-31.2,70.0L-32.8,64.3L-33.8,58.6L-34.5,53.2L-35.1,48.3L-35.7,44.1L-36.7,40.8L-38.2,38.2L-40.5,36.4L-43.5,35.3L-47.4,34.5L-52.1,33.8L-57.3,33.1L-63.0,32.1L-68.7,30.6L-74.2,28.5L-79.1,25.7L-83.2,22.3L-86.1,18.3L-87.7,13.9L-87.9,9.2L-86.7,4.5L-84.3,0.0L-80.7,-4.2L-76.2,-8.0L-71.3,-11.3L-66.2,-14.1L-61.2,-16.4L-56.8,-18.4L-53.0,-20.3L-50.1,-22.3L-48.2,-24.5L-47.2,-27.2L-47.0,-30.5L-47.4,-34.5L-48.3,-39.1L-49.2,-44.3L-50.0,-50.0L-50.3,-55.9L-50.0,-61.8L-48.9,-67.3L-46.9,-72.2L-44.0,-76.2L-40.3,-79.1L-36.0,-80.8L-31.1,-81.1L-26.0,-80.1L-20.9,-78.0L-15.9,-75.0L-11.3,-71.3L-7.1,-67.3L-3.3,-63.3L-0.0,-59.7L3.0,-56.7L5.7,-54.6L8.5,-53.4L11.3,-53.3L14.5,-54.1L18.1,-55.7L22.3,-58.0L26.9,-60.5L32.1,-63.0L37.6,-65.1L43.3,-66.6L48.9,-67.3L54.2,-66.9L58.9,-65.4L62.8,-62.8L65.7,-59.2L67.5,-54.7L68.2,-49.5L67.8,-44.0L66.4,-38.3L64.3,-32.8L61.8,-27.5L59.2,-22.7L56.8,-18.4L54.8,-14.7L53.7,-11.4L53.4,-8.5L54.2,-5.7L55.9,-2.9L58.6,-0.0Z" fill="none" stroke="#dce9e1" stroke-width="9.600000000000001" stroke-linecap="round" opacity="0.28" filter="url(#tg)"/><path d="M58.6,0.0L62.0,3.2L65.8,6.9L69.8,11.1L73.6,15.6L76.8,20.6L79.1,25.7L80.4,30.9L80.4,35.8L79.1,40.3L76.6,44.2L72.9,47.3L68.2,49.5L62.8,50.8L57.0,51.3L51.1,51.1L45.3,50.3L39.9,49.3L35.1,48.3L30.9,47.6L27.4,47.5L24.5,48.2L22.2,49.8L20.1,52.3L18.1,55.7L16.1,60.0L13.8,64.8L11.1,69.8L7.9,74.8L4.2,79.4L0.0,83.2L-4.5,86.0L-9.2,87.5L-13.9,87.7L-18.4,86.5L-22.5,83.9L-26.0,80.1L-29.0,75.4L-31.2,70.0L-32.8,64.3L-33.8,58.6L-34.5,53.2L-35.1,48.3L-35.7,44.1L-36.7,40.8L-38.2,38.2L-40.5,36.4L-43.5,35.3L-47.4,34.5L-52.1,33.8L-57.3,33.1L-63.0,32.1L-68.7,30.6L-74.2,28.5L-79.1,25.7L-83.2,22.3L-86.1,18.3L-87.7,13.9L-87.9,9.2L-86.7,4.5L-84.3,0.0L-80.7,-4.2L-76.2,-8.0L-71.3,-11.3L-66.2,-14.1L-61.2,-16.4L-56.8,-18.4L-53.0,-20.3L-50.1,-22.3L-48.2,-24.5L-47.2,-27.2L-47.0,-30.5L-47.4,-34.5L-48.3,-39.1L-49.2,-44.3L-50.0,-50.0L-50.3,-55.9L-50.0,-61.8L-48.9,-67.3L-46.9,-72.2L-44.0,-76.2L-40.3,-79.1L-36.0,-80.8L-31.1,-81.1L-26.0,-80.1L-20.9,-78.0L-15.9,-75.0L-11.3,-71.3L-7.1,-67.3L-3.3,-63.3L-0.0,-59.7L3.0,-56.7L5.7,-54.6L8.5,-53.4L11.3,-53.3L14.5,-54.1L18.1,-55.7L22.3,-58.0L26.9,-60.5L32.1,-63.0L37.6,-65.1L43.3,-66.6L48.9,-67.3L54.2,-66.9L58.9,-65.4L62.8,-62.8L65.7,-59.2L67.5,-54.7L68.2,-49.5L67.8,-44.0L66.4,-38.3L64.3,-32.8L61.8,-27.5L59.2,-22.7L56.8,-18.4L54.8,-14.7L53.7,-11.4L53.4,-8.5L54.2,-5.7L55.9,-2.9L58.6,-0.0Z" fill="none" stroke="#dce9e1" stroke-width="3.2" stroke-linecap="round" opacity="0.95"/><path d="M60.1,0.0L61.7,3.2L64.2,6.8L67.4,10.7L70.8,15.1L74.3,19.9L77.4,25.2L79.9,30.7L81.5,36.3L81.9,41.7L81.1,46.8L79.1,51.3L75.8,55.1L71.5,57.9L66.3,59.7L60.5,60.5L54.5,60.5L48.4,59.8L42.6,58.6L37.1,57.2L32.3,55.9L28.1,55.1L24.4,54.9L21.3,55.5L18.6,57.2L16.0,59.7L13.4,63.2L10.7,67.4L7.6,72.0L4.0,76.8L0.0,81.4L-4.5,85.5L-9.3,88.7L-14.4,90.8L-19.5,91.6L-24.4,91.1L-29.0,89.1L-33.0,85.8L-36.3,81.5L-38.9,76.3L-40.7,70.5L-41.9,64.5L-42.6,58.6L-42.9,53.0L-43.2,48.0L-43.7,43.7L-44.7,40.2L-46.2,37.4L-48.6,35.3L-51.9,33.7L-55.9,32.3L-60.8,31.0L-66.1,29.4L-71.8,27.6L-77.4,25.2L-82.7,22.2L-87.2,18.5L-90.8,14.4L-93.2,9.8L-94.2,4.9L-93.7,0.0L-91.8,-4.8L-88.7,-9.3L-84.5,-13.4L-79.6,-16.9L-74.3,-19.9L-68.8,-22.4L-63.7,-24.4L-59.0,-26.3L-55.1,-28.1L-52.0,-30.0L-49.9,-32.4L-48.6,-35.3L-48.1,-38.9L-48.0,-43.2L-48.2,-48.2L-48.4,-53.8L-48.4,-59.8L-47.8,-65.8L-46.6,-71.8L-44.6,-77.2L-41.7,-81.9L-38.1,-85.6L-33.8,-88.0L-29.0,-89.1L-23.8,-88.8L-18.5,-87.2L-13.4,-84.5L-8.5,-80.9L-4.0,-76.8L-0.0,-72.4L3.6,-68.1L6.8,-64.2L9.7,-61.1L12.5,-58.8L15.4,-57.5L18.6,-57.2L22.2,-57.7L26.3,-59.0L31.0,-60.8L36.2,-62.7L41.9,-64.5L47.8,-65.8L53.9,-66.5L59.7,-66.3L65.0,-65.0L69.6,-62.7L73.3,-59.3L75.8,-55.1L77.1,-50.1L77.2,-44.6L76.3,-38.9L74.4,-33.1L71.8,-27.6L68.8,-22.4L65.9,-17.7L63.2,-13.4L61.1,-9.7L59.8,-6.3L59.4,-3.1L60.1,-0.0Z" fill="none" stroke="#e1e7dd" stroke-width="9.600000000000001" stroke-linecap="round" opacity="0.28" filter="url(#tg)"/><path d="M60.1,0.0L61.7,3.2L64.2,6.8L67.4,10.7L70.8,15.1L74.3,19.9L77.4,25.2L79.9,30.7L81.5,36.3L81.9,41.7L81.1,46.8L79.1,51.3L75.8,55.1L71.5,57.9L66.3,59.7L60.5,60.5L54.5,60.5L48.4,59.8L42.6,58.6L37.1,57.2L32.3,55.9L28.1,55.1L24.4,54.9L21.3,55.5L18.6,57.2L16.0,59.7L13.4,63.2L10.7,67.4L7.6,72.0L4.0,76.8L0.0,81.4L-4.5,85.5L-9.3,88.7L-14.4,90.8L-19.5,91.6L-24.4,91.1L-29.0,89.1L-33.0,85.8L-36.3,81.5L-38.9,76.3L-40.7,70.5L-41.9,64.5L-42.6,58.6L-42.9,53.0L-43.2,48.0L-43.7,43.7L-44.7,40.2L-46.2,37.4L-48.6,35.3L-51.9,33.7L-55.9,32.3L-60.8,31.0L-66.1,29.4L-71.8,27.6L-77.4,25.2L-82.7,22.2L-87.2,18.5L-90.8,14.4L-93.2,9.8L-94.2,4.9L-93.7,0.0L-91.8,-4.8L-88.7,-9.3L-84.5,-13.4L-79.6,-16.9L-74.3,-19.9L-68.8,-22.4L-63.7,-24.4L-59.0,-26.3L-55.1,-28.1L-52.0,-30.0L-49.9,-32.4L-48.6,-35.3L-48.1,-38.9L-48.0,-43.2L-48.2,-48.2L-48.4,-53.8L-48.4,-59.8L-47.8,-65.8L-46.6,-71.8L-44.6,-77.2L-41.7,-81.9L-38.1,-85.6L-33.8,-88.0L-29.0,-89.1L-23.8,-88.8L-18.5,-87.2L-13.4,-84.5L-8.5,-80.9L-4.0,-76.8L-0.0,-72.4L3.6,-68.1L6.8,-64.2L9.7,-61.1L12.5,-58.8L15.4,-57.5L18.6,-57.2L22.2,-57.7L26.3,-59.0L31.0,-60.8L36.2,-62.7L41.9,-64.5L47.8,-65.8L53.9,-66.5L59.7,-66.3L65.0,-65.0L69.6,-62.7L73.3,-59.3L75.8,-55.1L77.1,-50.1L77.2,-44.6L76.3,-38.9L74.4,-33.1L71.8,-27.6L68.8,-22.4L65.9,-17.7L63.2,-13.4L61.1,-9.7L59.8,-6.3L59.4,-3.1L60.1,-0.0Z" fill="none" stroke="#e1e7dd" stroke-width="3.2" stroke-linecap="round" opacity="0.95"/><path d="M65.4,0.0L64.9,3.4L65.4,6.9L66.8,10.6L69.1,14.7L71.8,19.2L74.7,24.3L77.6,29.8L80.0,35.6L81.7,41.6L82.4,47.6L82.0,53.2L80.4,58.4L77.5,62.8L73.5,66.2L68.6,68.6L63.0,69.9L56.9,70.2L50.6,69.7L44.4,68.4L38.6,66.8L33.1,65.0L28.3,63.5L24.0,62.5L20.2,62.2L16.8,62.8L13.7,64.3L10.6,66.8L7.4,70.2L3.9,74.2L0.0,78.6L-4.3,83.0L-9.2,87.1L-14.3,90.6L-19.8,93.1L-25.3,94.4L-30.7,94.5L-35.7,93.1L-40.2,90.4L-44.0,86.4L-47.0,81.5L-49.2,75.8L-50.6,69.7L-51.3,63.4L-51.6,57.3L-51.6,51.6L-51.7,46.5L-52.0,42.1L-52.9,38.4L-54.5,35.4L-56.9,32.9L-60.3,30.7L-64.5,28.7L-69.4,26.6L-74.7,24.3L-80.3,21.5L-85.7,18.2L-90.6,14.3L-94.6,9.9L-97.6,5.1L-99.3,0.0L-99.6,-5.2L-98.4,-10.3L-95.8,-15.2L-92.0,-19.6L-87.3,-23.4L-81.9,-26.6L-76.2,-29.2L-70.4,-31.4L-65.0,-33.1L-60.2,-34.8L-56.1,-36.4L-52.9,-38.4L-50.5,-40.9L-48.9,-44.0L-47.9,-47.9L-47.2,-52.5L-46.8,-57.8L-46.2,-63.6L-45.3,-69.7L-43.8,-75.8L-41.6,-81.7L-38.7,-86.9L-35.0,-91.3L-30.7,-94.5L-25.8,-96.3L-20.6,-96.8L-15.2,-95.8L-9.8,-93.6L-4.7,-90.2L-0.0,-86.1L4.3,-81.5L8.1,-76.7L11.4,-72.1L14.5,-68.0L17.3,-64.6L20.2,-62.2L23.3,-60.7L26.7,-60.1L30.7,-60.3L35.3,-61.1L40.5,-62.3L46.2,-63.6L52.3,-64.6L58.6,-65.1L64.8,-64.8L70.7,-63.7L76.0,-61.5L80.4,-58.4L83.6,-54.3L85.7,-49.5L86.4,-44.0L86.0,-38.3L84.4,-32.4L81.9,-26.6L78.8,-21.1L75.4,-16.0L72.1,-11.4L69.1,-7.3L66.8,-3.5L65.4,-0.0Z" fill="none" stroke="#e6e5d8" stroke-width="9.600000000000001" stroke-linecap="round" opacity="0.28" filter="url(#tg)"/><path d="M65.4,0.0L64.9,3.4L65.4,6.9L66.8,10.6L69.1,14.7L71.8,19.2L74.7,24.3L77.6,29.8L80.0,35.6L81.7,41.6L82.4,47.6L82.0,53.2L80.4,58.4L77.5,62.8L73.5,66.2L68.6,68.6L63.0,69.9L56.9,70.2L50.6,69.7L44.4,68.4L38.6,66.8L33.1,65.0L28.3,63.5L24.0,62.5L20.2,62.2L16.8,62.8L13.7,64.3L10.6,66.8L7.4,70.2L3.9,74.2L0.0,78.6L-4.3,83.0L-9.2,87.1L-14.3,90.6L-19.8,93.1L-25.3,94.4L-30.7,94.5L-35.7,93.1L-40.2,90.4L-44.0,86.4L-47.0,81.5L-49.2,75.8L-50.6,69.7L-51.3,63.4L-51.6,57.3L-51.6,51.6L-51.7,46.5L-52.0,42.1L-52.9,38.4L-54.5,35.4L-56.9,32.9L-60.3,30.7L-64.5,28.7L-69.4,26.6L-74.7,24.3L-80.3,21.5L-85.7,18.2L-90.6,14.3L-94.6,9.9L-97.6,5.1L-99.3,0.0L-99.6,-5.2L-98.4,-10.3L-95.8,-15.2L-92.0,-19.6L-87.3,-23.4L-81.9,-26.6L-76.2,-29.2L-70.4,-31.4L-65.0,-33.1L-60.2,-34.8L-56.1,-36.4L-52.9,-38.4L-50.5,-40.9L-48.9,-44.0L-47.9,-47.9L-47.2,-52.5L-46.8,-57.8L-46.2,-63.6L-45.3,-69.7L-43.8,-75.8L-41.6,-81.7L-38.7,-86.9L-35.0,-91.3L-30.7,-94.5L-25.8,-96.3L-20.6,-96.8L-15.2,-95.8L-9.8,-93.6L-4.7,-90.2L-0.0,-86.1L4.3,-81.5L8.1,-76.7L11.4,-72.1L14.5,-68.0L17.3,-64.6L20.2,-62.2L23.3,-60.7L26.7,-60.1L30.7,-60.3L35.3,-61.1L40.5,-62.3L46.2,-63.6L52.3,-64.6L58.6,-65.1L64.8,-64.8L70.7,-63.7L76.0,-61.5L80.4,-58.4L83.6,-54.3L85.7,-49.5L86.4,-44.0L86.0,-38.3L84.4,-32.4L81.9,-26.6L78.8,-21.1L75.4,-16.0L72.1,-11.4L69.1,-7.3L66.8,-3.5L65.4,-0.0Z" fill="none" stroke="#e6e5d8" stroke-width="3.2" stroke-linecap="round" opacity="0.95"/><path d="M74.5,0.0L71.9,3.8L70.3,7.4L69.6,11.0L69.9,14.9L71.0,19.0L72.9,23.7L75.1,28.8L77.4,34.5L79.6,40.5L81.2,46.9L82.0,53.2L81.8,59.4L80.5,65.2L78.0,70.2L74.3,74.3L69.7,77.4L64.2,79.3L58.2,80.1L51.8,79.8L45.4,78.6L39.2,76.9L33.3,74.8L27.9,72.7L23.0,70.8L18.6,69.6L14.7,69.1L11.0,69.6L7.5,71.1L3.8,73.5L0.0,76.6L-4.2,80.3L-8.9,84.3L-14.0,88.2L-19.5,91.7L-25.3,94.4L-31.2,96.2L-37.1,96.7L-42.7,95.9L-47.7,93.7L-52.1,90.2L-55.6,85.6L-58.2,80.1L-59.9,73.9L-60.8,67.5L-61.0,61.0L-60.8,54.8L-60.5,49.0L-60.3,43.8L-60.4,39.2L-61.2,35.3L-62.8,32.0L-65.3,29.1L-68.7,26.4L-72.9,23.7L-77.7,20.8L-82.9,17.6L-88.2,14.0L-93.2,9.8L-97.6,5.1L-101.1,0.0L-103.4,-5.4L-104.3,-11.0L-103.8,-16.4L-101.9,-21.7L-98.6,-26.4L-94.1,-30.6L-88.8,-34.1L-83.0,-36.9L-76.9,-39.2L-70.9,-40.9L-65.3,-42.4L-60.3,-43.8L-56.0,-45.3L-52.5,-47.3L-49.8,-49.8L-47.8,-53.1L-46.3,-57.2L-45.0,-62.0L-43.8,-67.5L-42.4,-73.4L-40.5,-79.6L-38.1,-85.6L-35.0,-91.3L-31.2,-96.2L-26.8,-100.0L-21.8,-102.6L-16.4,-103.8L-10.9,-103.6L-5.3,-101.9L-0.0,-99.0L5.0,-95.0L9.5,-90.3L13.5,-85.2L17.0,-80.1L20.1,-75.2L23.0,-70.8L25.8,-67.3L28.7,-64.6L32.0,-62.8L35.7,-61.9L40.1,-61.7L45.0,-62.0L50.6,-62.5L56.7,-63.0L63.2,-63.2L69.7,-62.7L76.0,-61.5L81.8,-59.4L86.8,-56.4L90.9,-52.5L93.7,-47.7L95.1,-42.4L95.3,-36.6L94.1,-30.6L91.9,-24.6L88.8,-18.9L85.2,-13.5L81.4,-8.6L77.7,-4.1L74.5,-0.0Z" fill="none" stroke="#ebe4d4" stroke-width="9.600000000000001" stroke-linecap="round" opacity="0.28" filter="url(#tg)"/><path d="M74.5,0.0L71.9,3.8L70.3,7.4L69.6,11.0L69.9,14.9L71.0,19.0L72.9,23.7L75.1,28.8L77.4,34.5L79.6,40.5L81.2,46.9L82.0,53.2L81.8,59.4L80.5,65.2L78.0,70.2L74.3,74.3L69.7,77.4L64.2,79.3L58.2,80.1L51.8,79.8L45.4,78.6L39.2,76.9L33.3,74.8L27.9,72.7L23.0,70.8L18.6,69.6L14.7,69.1L11.0,69.6L7.5,71.1L3.8,73.5L0.0,76.6L-4.2,80.3L-8.9,84.3L-14.0,88.2L-19.5,91.7L-25.3,94.4L-31.2,96.2L-37.1,96.7L-42.7,95.9L-47.7,93.7L-52.1,90.2L-55.6,85.6L-58.2,80.1L-59.9,73.9L-60.8,67.5L-61.0,61.0L-60.8,54.8L-60.5,49.0L-60.3,43.8L-60.4,39.2L-61.2,35.3L-62.8,32.0L-65.3,29.1L-68.7,26.4L-72.9,23.7L-77.7,20.8L-82.9,17.6L-88.2,14.0L-93.2,9.8L-97.6,5.1L-101.1,0.0L-103.4,-5.4L-104.3,-11.0L-103.8,-16.4L-101.9,-21.7L-98.6,-26.4L-94.1,-30.6L-88.8,-34.1L-83.0,-36.9L-76.9,-39.2L-70.9,-40.9L-65.3,-42.4L-60.3,-43.8L-56.0,-45.3L-52.5,-47.3L-49.8,-49.8L-47.8,-53.1L-46.3,-57.2L-45.0,-62.0L-43.8,-67.5L-42.4,-73.4L-40.5,-79.6L-38.1,-85.6L-35.0,-91.3L-31.2,-96.2L-26.8,-100.0L-21.8,-102.6L-16.4,-103.8L-10.9,-103.6L-5.3,-101.9L-0.0,-99.0L5.0,-95.0L9.5,-90.3L13.5,-85.2L17.0,-80.1L20.1,-75.2L23.0,-70.8L25.8,-67.3L28.7,-64.6L32.0,-62.8L35.7,-61.9L40.1,-61.7L45.0,-62.0L50.6,-62.5L56.7,-63.0L63.2,-63.2L69.7,-62.7L76.0,-61.5L81.8,-59.4L86.8,-56.4L90.9,-52.5L93.7,-47.7L95.1,-42.4L95.3,-36.6L94.1,-30.6L91.9,-24.6L88.8,-18.9L85.2,-13.5L81.4,-8.6L77.7,-4.1L74.5,-0.0Z" fill="none" stroke="#ebe4d4" stroke-width="3.2" stroke-linecap="round" opacity="0.95"/><path d="M86.6,0.0L82.5,4.3L79.0,8.3L76.2,12.1L74.3,15.8L73.4,19.7L73.4,23.9L74.2,28.5L75.5,33.6L77.2,39.3L78.8,45.5L80.1,52.0L80.8,58.7L80.7,65.3L79.5,71.6L77.3,77.3L73.9,82.1L69.5,85.9L64.3,88.4L58.3,89.8L51.9,89.9L45.4,89.0L38.9,87.3L32.6,84.9L26.8,82.4L21.4,79.8L16.5,77.7L12.1,76.2L7.9,75.6L4.0,75.9L0.0,77.2L-4.2,79.3L-8.6,82.2L-13.5,85.5L-18.9,89.0L-24.7,92.3L-30.9,95.0L-37.2,96.9L-43.5,97.8L-49.6,97.4L-55.2,95.7L-60.2,92.7L-64.3,88.4L-67.4,83.2L-69.5,77.2L-70.6,70.6L-71.0,63.9L-70.7,57.3L-70.1,50.9L-69.3,45.0L-68.8,39.7L-68.8,35.0L-69.4,30.9L-71.0,27.2L-73.4,23.9L-76.7,20.6L-80.9,17.2L-85.5,13.5L-90.5,9.5L-95.4,5.0L-99.9,0.0L-103.7,-5.4L-106.5,-11.2L-108.0,-17.1L-108.1,-23.0L-106.7,-28.6L-104.0,-33.8L-99.9,-38.4L-94.9,-42.2L-89.0,-45.4L-82.7,-47.8L-76.3,-49.6L-70.1,-50.9L-64.2,-52.0L-59.0,-53.2L-54.6,-54.6L-50.9,-56.5L-47.8,-59.1L-45.4,-62.4L-43.3,-66.6L-41.3,-71.6L-39.3,-77.2L-37.0,-83.1L-34.2,-89.2L-30.9,-95.0L-26.9,-100.3L-22.3,-104.7L-17.1,-108.0L-11.5,-109.9L-5.8,-110.3L-0.0,-109.3L5.6,-106.9L10.9,-103.3L15.6,-98.7L19.9,-93.4L23.5,-87.9L26.8,-82.4L29.6,-77.2L32.3,-72.6L35.0,-68.8L38.0,-65.8L41.4,-63.7L45.4,-62.4L50.0,-61.7L55.3,-61.4L61.2,-61.2L67.6,-60.9L74.2,-60.1L80.8,-58.7L87.1,-56.6L92.7,-53.5L97.4,-49.6L100.9,-44.9L103.2,-39.6L104.0,-33.8L103.4,-27.7L101.6,-21.6L98.7,-15.6L95.0,-10.0L90.9,-4.8L86.6,-0.0Z" fill="none" stroke="#f0e2d0" stroke-width="9.600000000000001" stroke-linecap="round" opacity="0.28" filter="url(#tg)"/><path d="M86.6,0.0L82.5,4.3L79.0,8.3L76.2,12.1L74.3,15.8L73.4,19.7L73.4,23.9L74.2,28.5L75.5,33.6L77.2,39.3L78.8,45.5L80.1,52.0L80.8,58.7L80.7,65.3L79.5,71.6L77.3,77.3L73.9,82.1L69.5,85.9L64.3,88.4L58.3,89.8L51.9,89.9L45.4,89.0L38.9,87.3L32.6,84.9L26.8,82.4L21.4,79.8L16.5,77.7L12.1,76.2L7.9,75.6L4.0,75.9L0.0,77.2L-4.2,79.3L-8.6,82.2L-13.5,85.5L-18.9,89.0L-24.7,92.3L-30.9,95.0L-37.2,96.9L-43.5,97.8L-49.6,97.4L-55.2,95.7L-60.2,92.7L-64.3,88.4L-67.4,83.2L-69.5,77.2L-70.6,70.6L-71.0,63.9L-70.7,57.3L-70.1,50.9L-69.3,45.0L-68.8,39.7L-68.8,35.0L-69.4,30.9L-71.0,27.2L-73.4,23.9L-76.7,20.6L-80.9,17.2L-85.5,13.5L-90.5,9.5L-95.4,5.0L-99.9,0.0L-103.7,-5.4L-106.5,-11.2L-108.0,-17.1L-108.1,-23.0L-106.7,-28.6L-104.0,-33.8L-99.9,-38.4L-94.9,-42.2L-89.0,-45.4L-82.7,-47.8L-76.3,-49.6L-70.1,-50.9L-64.2,-52.0L-59.0,-53.2L-54.6,-54.6L-50.9,-56.5L-47.8,-59.1L-45.4,-62.4L-43.3,-66.6L-41.3,-71.6L-39.3,-77.2L-37.0,-83.1L-34.2,-89.2L-30.9,-95.0L-26.9,-100.3L-22.3,-104.7L-17.1,-108.0L-11.5,-109.9L-5.8,-110.3L-0.0,-109.3L5.6,-106.9L10.9,-103.3L15.6,-98.7L19.9,-93.4L23.5,-87.9L26.8,-82.4L29.6,-77.2L32.3,-72.6L35.0,-68.8L38.0,-65.8L41.4,-63.7L45.4,-62.4L50.0,-61.7L55.3,-61.4L61.2,-61.2L67.6,-60.9L74.2,-60.1L80.8,-58.7L87.1,-56.6L92.7,-53.5L97.4,-49.6L100.9,-44.9L103.2,-39.6L104.0,-33.8L103.4,-27.7L101.6,-21.6L98.7,-15.6L95.0,-10.0L90.9,-4.8L86.6,-0.0Z" fill="none" stroke="#f0e2d0" stroke-width="3.2" stroke-linecap="round" opacity="0.95"/><path d="M100.2,0.0L95.5,5.0L90.9,9.5L86.4,13.7L82.6,17.6L79.6,21.3L77.4,25.1L76.2,29.2L75.8,33.7L76.1,38.8L76.8,44.4L77.8,50.5L78.6,57.1L79.1,64.0L78.8,71.0L77.7,77.7L75.6,83.9L72.4,89.4L68.2,93.9L63.1,97.1L57.2,99.1L50.9,99.8L44.2,99.3L37.5,97.7L31.0,95.3L24.8,92.4L19.0,89.4L13.7,86.4L8.8,84.0L4.3,82.2L0.0,81.4L-4.3,81.5L-8.7,82.5L-13.4,84.3L-18.4,86.8L-24.0,89.6L-30.0,92.4L-36.5,95.0L-43.1,96.9L-49.9,97.9L-56.5,97.8L-62.7,96.5L-68.2,93.9L-72.9,90.0L-76.6,85.1L-79.2,79.2L-80.8,72.7L-81.3,65.9L-81.1,58.9L-80.2,52.1L-79.1,45.7L-78.0,39.7L-77.2,34.4L-76.9,29.5L-77.4,25.1L-78.8,21.1L-81.1,17.2L-84.3,13.4L-88.2,9.3L-92.6,4.9L-97.2,0.0L-101.6,-5.3L-105.5,-11.1L-108.5,-17.2L-110.5,-23.5L-111.1,-29.8L-110.3,-35.9L-108.1,-41.5L-104.6,-46.6L-99.8,-50.9L-94.1,-54.3L-87.8,-57.0L-81.1,-58.9L-74.4,-60.2L-67.9,-61.1L-61.9,-61.9L-56.5,-62.8L-51.8,-64.0L-47.8,-65.8L-44.4,-68.4L-41.5,-71.8L-38.8,-76.1L-36.1,-81.1L-33.2,-86.6L-30.0,-92.4L-26.3,-98.3L-22.0,-103.7L-17.2,-108.5L-11.8,-112.3L-6.0,-114.9L-0.0,-116.0L6.1,-115.7L12.0,-113.8L17.5,-110.6L22.6,-106.3L27.1,-101.1L31.0,-95.3L34.3,-89.3L37.2,-83.5L39.7,-78.0L42.2,-73.1L44.9,-69.1L47.8,-65.8L51.3,-63.4L55.5,-61.6L60.4,-60.4L65.9,-59.4L72.1,-58.4L78.6,-57.1L85.3,-55.4L91.8,-53.0L97.9,-49.9L103.2,-45.9L107.4,-41.2L110.3,-35.9L111.9,-30.0L112.0,-23.8L110.6,-17.5L108.1,-11.4L104.5,-5.5L100.2,-0.0Z" fill="none" stroke="#f5e0cc" stroke-width="9.600000000000001" stroke-linecap="round" opacity="0.28" filter="url(#tg)"/><path d="M100.2,0.0L95.5,5.0L90.9,9.5L86.4,13.7L82.6,17.6L79.6,21.3L77.4,25.1L76.2,29.2L75.8,33.7L76.1,38.8L76.8,44.4L77.8,50.5L78.6,57.1L79.1,64.0L78.8,71.0L77.7,77.7L75.6,83.9L72.4,89.4L68.2,93.9L63.1,97.1L57.2,99.1L50.9,99.8L44.2,99.3L37.5,97.7L31.0,95.3L24.8,92.4L19.0,89.4L13.7,86.4L8.8,84.0L4.3,82.2L0.0,81.4L-4.3,81.5L-8.7,82.5L-13.4,84.3L-18.4,86.8L-24.0,89.6L-30.0,92.4L-36.5,95.0L-43.1,96.9L-49.9,97.9L-56.5,97.8L-62.7,96.5L-68.2,93.9L-72.9,90.0L-76.6,85.1L-79.2,79.2L-80.8,72.7L-81.3,65.9L-81.1,58.9L-80.2,52.1L-79.1,45.7L-78.0,39.7L-77.2,34.4L-76.9,29.5L-77.4,25.1L-78.8,21.1L-81.1,17.2L-84.3,13.4L-88.2,9.3L-92.6,4.9L-97.2,0.0L-101.6,-5.3L-105.5,-11.1L-108.5,-17.2L-110.5,-23.5L-111.1,-29.8L-110.3,-35.9L-108.1,-41.5L-104.6,-46.6L-99.8,-50.9L-94.1,-54.3L-87.8,-57.0L-81.1,-58.9L-74.4,-60.2L-67.9,-61.1L-61.9,-61.9L-56.5,-62.8L-51.8,-64.0L-47.8,-65.8L-44.4,-68.4L-41.5,-71.8L-38.8,-76.1L-36.1,-81.1L-33.2,-86.6L-30.0,-92.4L-26.3,-98.3L-22.0,-103.7L-17.2,-108.5L-11.8,-112.3L-6.0,-114.9L-0.0,-116.0L6.1,-115.7L12.0,-113.8L17.5,-110.6L22.6,-106.3L27.1,-101.1L31.0,-95.3L34.3,-89.3L37.2,-83.5L39.7,-78.0L42.2,-73.1L44.9,-69.1L47.8,-65.8L51.3,-63.4L55.5,-61.6L60.4,-60.4L65.9,-59.4L72.1,-58.4L78.6,-57.1L85.3,-55.4L91.8,-53.0L97.9,-49.9L103.2,-45.9L107.4,-41.2L110.3,-35.9L111.9,-30.0L112.0,-23.8L110.6,-17.5L108.1,-11.4L104.5,-5.5L100.2,-0.0Z" fill="none" stroke="#f5e0cc" stroke-width="3.2" stroke-linecap="round" opacity="0.95"/><path d="M113.5,0.0L109.2,5.7L104.3,11.0L99.2,15.7L94.0,20.0L89.3,23.9L85.1,27.7L81.8,31.4L79.3,35.3L77.7,39.6L76.8,44.4L76.6,49.7L76.7,55.7L76.9,62.3L76.8,69.2L76.3,76.3L75.1,83.4L72.9,90.1L69.8,96.1L65.8,101.3L60.8,105.2L55.0,107.9L48.6,109.2L41.9,109.2L35.1,107.9L28.3,105.7L21.8,102.6L15.7,99.2L10.0,95.6L4.8,92.3L0.0,89.5L-4.6,87.4L-9.1,86.3L-13.6,86.1L-18.4,86.8L-23.6,88.2L-29.3,90.2L-35.5,92.4L-42.1,94.5L-49.0,96.2L-56.1,97.2L-63.1,97.2L-69.8,96.1L-76.0,93.8L-81.3,90.3L-85.7,85.7L-88.9,80.0L-90.9,73.6L-91.8,66.7L-91.7,59.6L-90.9,52.5L-89.4,45.6L-87.8,39.1L-86.3,33.1L-85.1,27.7L-84.6,22.7L-84.9,18.0L-86.1,13.6L-88.2,9.3L-91.2,4.8L-94.8,0.0L-98.8,-5.2L-102.8,-10.8L-106.6,-16.9L-109.7,-23.3L-112.0,-30.0L-113.0,-36.7L-112.7,-43.3L-111.0,-49.4L-107.9,-55.0L-103.6,-59.8L-98.1,-63.7L-91.8,-66.7L-85.0,-68.8L-78.0,-70.2L-71.0,-71.0L-64.3,-71.4L-58.2,-71.8L-52.6,-72.4L-47.7,-73.4L-43.4,-75.2L-39.6,-77.7L-36.1,-81.1L-32.7,-85.3L-29.3,-90.2L-25.6,-95.6L-21.5,-101.1L-16.9,-106.6L-11.7,-111.6L-6.1,-115.7L-0.0,-118.8L6.3,-120.6L12.7,-120.9L18.9,-119.6L24.9,-117.0L30.3,-113.0L35.1,-107.9L39.2,-102.1L42.7,-95.8L45.6,-89.4L48.1,-83.2L50.3,-77.5L52.6,-72.4L55.1,-68.1L58.1,-64.5L61.6,-61.6L65.9,-59.4L71.0,-57.5L76.7,-55.7L83.0,-53.9L89.5,-51.7L96.2,-49.0L102.5,-45.6L108.2,-41.5L113.0,-36.7L116.6,-31.2L118.9,-25.3L119.6,-18.9L118.9,-12.5L116.8,-6.1L113.5,-0.0Z" fill="none" stroke="#fadec8" stroke-width="9.600000000000001" stroke-linecap="round" opacity="0.28" filter="url(#tg)"/><path d="M113.5,0.0L109.2,5.7L104.3,11.0L99.2,15.7L94.0,20.0L89.3,23.9L85.1,27.7L81.8,31.4L79.3,35.3L77.7,39.6L76.8,44.4L76.6,49.7L76.7,55.7L76.9,62.3L76.8,69.2L76.3,76.3L75.1,83.4L72.9,90.1L69.8,96.1L65.8,101.3L60.8,105.2L55.0,107.9L48.6,109.2L41.9,109.2L35.1,107.9L28.3,105.7L21.8,102.6L15.7,99.2L10.0,95.6L4.8,92.3L0.0,89.5L-4.6,87.4L-9.1,86.3L-13.6,86.1L-18.4,86.8L-23.6,88.2L-29.3,90.2L-35.5,92.4L-42.1,94.5L-49.0,96.2L-56.1,97.2L-63.1,97.2L-69.8,96.1L-76.0,93.8L-81.3,90.3L-85.7,85.7L-88.9,80.0L-90.9,73.6L-91.8,66.7L-91.7,59.6L-90.9,52.5L-89.4,45.6L-87.8,39.1L-86.3,33.1L-85.1,27.7L-84.6,22.7L-84.9,18.0L-86.1,13.6L-88.2,9.3L-91.2,4.8L-94.8,0.0L-98.8,-5.2L-102.8,-10.8L-106.6,-16.9L-109.7,-23.3L-112.0,-30.0L-113.0,-36.7L-112.7,-43.3L-111.0,-49.4L-107.9,-55.0L-103.6,-59.8L-98.1,-63.7L-91.8,-66.7L-85.0,-68.8L-78.0,-70.2L-71.0,-71.0L-64.3,-71.4L-58.2,-71.8L-52.6,-72.4L-47.7,-73.4L-43.4,-75.2L-39.6,-77.7L-36.1,-81.1L-32.7,-85.3L-29.3,-90.2L-25.6,-95.6L-21.5,-101.1L-16.9,-106.6L-11.7,-111.6L-6.1,-115.7L-0.0,-118.8L6.3,-120.6L12.7,-120.9L18.9,-119.6L24.9,-117.0L30.3,-113.0L35.1,-107.9L39.2,-102.1L42.7,-95.8L45.6,-89.4L48.1,-83.2L50.3,-77.5L52.6,-72.4L55.1,-68.1L58.1,-64.5L61.6,-61.6L65.9,-59.4L71.0,-57.5L76.7,-55.7L83.0,-53.9L89.5,-51.7L96.2,-49.0L102.5,-45.6L108.2,-41.5L113.0,-36.7L116.6,-31.2L118.9,-25.3L119.6,-18.9L118.9,-12.5L116.8,-6.1L113.5,-0.0Z" fill="none" stroke="#fadec8" stroke-width="3.2" stroke-linecap="round" opacity="0.95"/>
</svg>