<svg xmlns="http://www.w3.org/2000/svg" viewBox="-250 -250 500 500">
<rect x="-250" y="-250" width="500" height="500" fill="#ffffff"/>
<path d="M136.0,0.0L135.7,7.1L134.8,14.2L133.4,21.1L131.4,27.9L129.0,34.6L126.1,41.0L122.8,47.1L119.2,53.1L115.3,58.8L111.3,64.2L107.1,69.5L102.7,74.6L98.3,79.6L93.7,84.4L89.1,89.1L84.4,93.7L79.6,98.3L74.6,102.7L69.5,107.1L64.3,111.3L58.8,115.3L53.1,119.2L47.1,122.8L41.0,126.1L34.6,129.0L27.9,131.4L21.1,133.4L14.2,134.8L7.1,135.7L0.0,136.0L-7.1,135.7L-14.2,134.8L-21.1,133.4L-27.9,131.4L-34.6,129.0L-41.0,126.1L-47.1,122.8L-53.1,119.2L-58.8,115.3L-64.2,111.3L-69.5,107.1L-74.6,102.7L-79.6,98.3L-84.4,93.7L-89.1,89.1L-93.7,84.4L-98.3,79.6L-102.7,74.6L-107.1,69.5L-111.3,64.2L-115.3,58.8L-119.2,53.1L-122.8,47.1L-126.1,41.0L-129.0,34.6L-131.4,27.9L-133.4,21.1L-134.8,14.2L-135.7,7.1L-136.0,0.0L-135.7,-7.1L-134.8,-14.2L-133.4,-21.1L-131.4,-27.9L-129.0,-34.6L-126.1,-41.0L-122.8,-47.1L-119.2,-53.1L-115.3,-58.8L-111.3,-64.3L-107.1,-69.5L-102.7,-74.6L-98.3,-79.6L-93.7,-84.4L-89.1,-89.1L-84.4,-93.7L-79.6,-98.3L-74.6,-102.7L-69.5,-107.1L-64.3,-111.3L-58.8,-115.3L-53.1,-119.2L-47.1,-122.8L-41.0,-126.1L-34.6,-129.0L-27.9,-131.4L-21.1,-133.4L-14.2,-134.8L-7.1,-135.7L-0.0,-136.0L7.1,-135.7L14.2,-134.8L21.1,-133.4L27.9,-131.4L34.6,-129.0L41.0,-126.1L47.1,-122.8L53.1,-119.2L58.8,-115.3L64.3,-111.3L69.5,-107.1L74.6,-102.7L79.6,-98.3L84.4,-93.7L89.1,-89.1L93.7,-84.4L98.3,-79.6L102.7,-74.6L107.1,-69.5L111.3,-64.3L115.3,-58.8L119.2,-53.1L122.8,-47.1L126.1,-41.0L129.0,-34.6L131.4,-27.9L133.4,-21.1L134.8,-14.2L135.7,-7.1L136.0,-0.0Z" fill="none" stroke="#bfbfbf" stroke-width="0.5" stroke-linecap="round" opacity="0.95"/><path d="M120.5,0.0L119.5,6.3L118.3,12.4L117.0,18.5L115.5,24.6L114.0,30.5L112.3,36.5L110.6,42.4L108.7,48.4L106.6,54.3L104.4,60.2L101.9,66.1L99.1,72.0L96.0,77.7L92.6,83.3L88.7,88.7L84.5,93.9L80.0,98.7L75.0,103.2L69.7,107.3L64.0,110.9L58.1,114.0L51.9,116.5L45.5,118.6L39.0,120.2L32.5,121.2L25.9,121.8L19.3,122.0L12.8,121.8L6.4,121.3L0.0,120.5L-6.3,119.5L-12.4,118.3L-18.5,117.0L-24.6,115.5L-30.5,114.0L-36.5,112.3L-42.4,110.6L-48.4,108.7L-54.3,106.6L-60.2,104.4L-66.1,101.9L-72.0,99.1L-77.7,96.0L-83.3,92.6L-88.7,88.7L-93.9,84.5L-98.7,80.0L-103.2,75.0L-107.3,69.7L-110.9,64.0L-114.0,58.1L-116.5,51.9L-118.6,45.5L-120.2,39.0L-121.2,32.5L-121.8,25.9L-122.0,19.3L-121.8,12.8L-121.3,6.4L-120.5,0.0L-119.5,-6.3L-118.3,-12.4L-117.0,-18.5L-115.5,-24.6L-114.0,-30.5L-112.3,-36.5L-110.6,-42.4L-108.7,-48.4L-106.6,-54.3L-104.4,-60.3L-101.9,-66.1L-99.1,-72.0L-96.0,-77.7L-92.6,-83.3L-88.7,-88.7L-84.5,-93.9L-80.0,-98.7L-75.0,-103.2L-69.7,-107.3L-64.0,-110.9L-58.1,-114.0L-51.9,-116.5L-45.5,-118.6L-39.0,-120.2L-32.5,-121.2L-25.9,-121.8L-19.3,-122.0L-12.8,-121.8L-6.4,-121.3L-0.0,-120.5L6.3,-119.5L12.4,-118.3L18.5,-117.0L24.6,-115.5L30.5,-114.0L36.5,-112.3L42.4,-110.6L48.4,-108.7L54.3,-106.6L60.3,-104.4L66.1,-101.9L72.0,-99.1L77.7,-96.0L83.3,-92.6L88.7,-88.7L93.9,-84.5L98.7,-80.0L103.2,-75.0L107.3,-69.7L110.9,-64.0L114.0,-58.1L116.5,-51.9L118.6,-45.5L120.2,-39.0L121.2,-32.5L121.8,-25.9L122.0,-19.3L121.8,-12.8L121.3,-6.4L120.5,-0.0Z" fill="none" stroke="#bfbfbf" stroke-width="0.5" stroke-linecap="round" opacity="0.95"/><path d="M112.5,0.0L113.3,5.9L113.9,12.0L114.1,18.1L114.0,24.2L113.5,30.4L112.6,36.6L111.1,42.7L109.2,48.6L106.8,54.4L103.9,60.0L100.5,65.3L96.7,70.3L92.5,74.9L87.9,79.2L83.1,83.1L78.0,86.6L72.7,89.8L67.3,92.6L61.8,95.2L56.3,97.4L50.7,99.5L45.1,101.4L39.6,103.1L34.0,104.7L28.5,106.3L22.9,107.7L17.3,109.1L11.6,110.3L5.8,111.5L0.0,112.5L-5.9,113.3L-12.0,113.9L-18.1,114.1L-24.2,114.0L-30.4,113.5L-36.6,112.6L-42.7,111.1L-48.6,109.2L-54.4,106.8L-60.0,103.9L-65.3,100.5L-70.3,96.7L-74.9,92.5L-79.2,87.9L-83.1,83.1L-86.6,78.0L-89.8,72.7L-92.6,67.3L-95.2,61.8L-97.4,56.2L-99.5,50.7L-101.4,45.1L-103.1,39.6L-104.7,34.0L-106.3,28.5L-107.7,22.9L-109.1,17.3L-110.3,11.6L-111.5,5.8L-112.5,0.0L-113.3,-5.9L-113.9,-12.0L-114.1,-18.1L-114.0,-24.2L-113.5,-30.4L-112.6,-36.6L-111.1,-42.7L-109.2,-48.6L-106.8,-54.4L-103.9,-60.0L-100.5,-65.3L-96.7,-70.3L-92.5,-74.9L-87.9,-79.2L-83.1,-83.1L-78.0,-86.6L-72.7,-89.8L-67.3,-92.6L-61.8,-95.2L-56.3,-97.4L-50.7,-99.5L-45.1,-101.4L-39.6,-103.1L-34.0,-104.7L-28.5,-106.3L-22.9,-107.7L-17.3,-109.1L-11.6,-110.3L-5.8,-111.5L-0.0,-112.5L5.9,-113.3L12.0,-113.9L18.1,-114.1L24.2,-114.0L30.4,-113.5L36.6,-112.6L42.7,-111.1L48.6,-109.2L54.4,-106.8L60.0,-103.9L65.3,-100.5L70.3,-96.7L74.9,-92.5L79.2,-87.9L83.1,-83.1L86.6,-78.0L89.8,-72.7L92.6,-67.3L95.2,-61.8L97.4,-56.3L99.5,-50.7L101.4,-45.1L103.1,-39.6L104.7,-34.0L106.3,-28.5L107.7,-22.9L109.1,-17.3L110.3,-11.6L111.5,-5.8L112.5,-0.0Z" fill="none" stroke="#bfbfbf" stroke-width="0.5" stroke-linecap="round" opacity="0.95"/><path d="M112.0,0.0L111.7,5.9L111.0,11.7L109.7,17.4L107.9,22.9L105.8,28.3L103.2,33.5L100.4,38.5L97.3,43.3L94.0,47.9L90.5,52.2L86.9,56.5L83.3,60.5L79.6,64.5L75.9,68.3L72.1,72.1L68.3,75.9L64.5,79.6L60.5,83.3L56.5,86.9L52.3,90.5L47.9,94.0L43.3,97.3L38.5,100.4L33.5,103.2L28.3,105.8L22.9,107.9L17.4,109.7L11.7,111.0L5.9,111.7L0.0,112.0L-5.9,111.7L-11.7,111.0L-17.4,109.7L-22.9,107.9L-28.3,105.8L-33.5,103.2L-38.5,100.4L-43.3,97.3L-47.9,94.0L-52.2,90.5L-56.5,86.9L-60.5,83.3L-64.5,79.6L-68.3,75.9L-72.1,72.1L-75.9,68.3L-79.6,64.5L-83.3,60.5L-86.9,56.5L-90.5,52.3L-94.0,47.9L-97.3,43.3L-100.4,38.5L-103.2,33.5L-105.8,28.3L-107.9,22.9L-109.7,17.4L-111.0,11.7L-111.7,5.9L-112.0,0.0L-111.7,-5.9L-111.0,-11.7L-109.7,-17.4L-107.9,-22.9L-105.8,-28.3L-103.2,-33.5L-100.4,-38.5L-97.3,-43.3L-94.0,-47.9L-90.5,-52.3L-86.9,-56.5L-83.3,-60.5L-79.6,-64.5L-75.9,-68.3L-72.1,-72.1L-68.3,-75.9L-64.5,-79.6L-60.5,-83.3L-56.5,-86.9L-52.3,-90.5L-47.9,-94.0L-43.3,-97.3L-38.5,-100.4L-33.5,-103.2L-28.3,-105.8L-22.9,-107.9L-17.4,-109.7L-11.7,-111.0L-5.9,-111.7L-0.0,-112.0L5.9,-111.7L11.7,-111.0L17.4,-109.7L22.9,-107.9L28.3,-105.8L33.5,-103.2L38.5,-100.4L43.3,-97.3L47.9,-94.0L52.3,-90.5L56.5,-86.9L60.5,-83.3L64.5,-79.6L68.3,-75.9L72.1,-72.1L75.9,-68.3L79.6,-64.5L83.3,-60.5L86.9,-56.5L90.5,-52.3L94.0,-47.9L97.3,-43.3L100.4,-38.5L103.2,-33.5L105.8,-28.3L107.9,-22.9L109.7,-17.4L111.0,-11.7L111.7,-5.9L112.0,-0.0Z" fill="none" stroke="#bfbfbf" stroke-width="0.5" stroke-linecap="round" opacity="0.95"/><path d="M96.5,0.0L95.5,5.0L94.4,9.9L93.3,14.8L92.1,19.6L90.8,24.3L89.5,29.1L88.2,33.8L86.7,38.6L85.2,43.4L83.6,48.2L81.7,53.1L79.7,57.9L77.3,62.6L74.7,67.3L71.8,71.8L68.5,76.1L64.8,80.1L60.9,83.8L56.6,87.1L52.0,90.1L47.2,92.6L42.1,94.6L36.9,96.2L31.6,97.3L26.3,98.0L20.9,98.3L15.6,98.3L10.3,97.9L5.1,97.3L0.0,96.5L-5.0,95.5L-9.9,94.4L-14.8,93.3L-19.6,92.1L-24.3,90.8L-29.1,89.5L-33.8,88.2L-38.6,86.7L-43.4,85.2L-48.2,83.6L-53.1,81.7L-57.9,79.7L-62.6,77.3L-67.3,74.7L-71.8,71.8L-76.1,68.5L-80.1,64.8L-83.8,60.9L-87.1,56.6L-90.1,52.0L-92.6,47.2L-94.6,42.1L-96.2,36.9L-97.3,31.6L-98.0,26.3L-98.3,20.9L-98.3,15.6L-97.9,10.3L-97.3,5.1L-96.5,0.0L-95.5,-5.0L-94.4,-9.9L-93.3,-14.8L-92.1,-19.6L-90.8,-24.3L-89.5,-29.1L-88.2,-33.8L-86.7,-38.6L-85.2,-43.4L-83.6,-48.3L-81.7,-53.1L-79.7,-57.9L-77.3,-62.6L-74.7,-67.3L-71.8,-71.8L-68.5,-76.1L-64.8,-80.1L-60.9,-83.8L-56.6,-87.1L-52.0,-90.1L-47.2,-92.6L-42.1,-94.6L-36.9,-96.2L-31.6,-97.3L-26.3,-98.0L-20.9,-98.3L-15.6,-98.3L-10.3,-97.9L-5.1,-97.3L-0.0,-96.5L5.0,-95.5L9.9,-94.4L14.8,-93.3L19.6,-92.1L24.3,-90.8L29.1,-89.5L33.8,-88.2L38.6,-86.7L43.4,-85.2L48.3,-83.6L53.1,-81.7L57.9,-79.7L62.6,-77.3L67.3,-74.7L71.8,-71.8L76.1,-68.5L80.1,-64.8L83.8,-60.9L87.1,-56.6L90.1,-52.0L92.6,-47.2L94.6,-42.1L96.2,-36.9L97.3,-31.6L98.0,-26.3L98.3,-20.9L98.3,-15.6L97.9,-10.3L97.3,-5.1L96.5,-0.0Z" fill="none" stroke="#bfbfbf" stroke-width="0.5" stroke-linecap="round" opacity="0.95"/>
</svg>